<svg width="156" height="183" viewBox="0 0 156 183" fill="none" xmlns="http://www.w3.org/2000/svg">
<path d="M82.9432 2.64998C106.743 2.64998 124.36 8.59999 135.793 20.5C147.46 32.1667 153.293 50.0167 153.293 74.05V159.45C153.293 165.75 151.427 170.767 147.693 174.5C143.96 178 138.827 179.75 132.293 179.75C126.227 179.75 121.21 177.883 117.243 174.15C113.51 170.417 111.643 165.517 111.643 159.45V151.75C107.677 160.85 101.377 167.967 92.7432 173.1C84.3432 178.233 74.5432 180.8 63.3432 180.8C51.9098 180.8 41.5265 178.467 32.1932 173.8C22.8598 169.133 15.5098 162.717 10.1432 154.55C4.7765 146.383 2.09317 137.283 2.09317 127.25C2.09317 114.65 5.24317 104.733 11.5432 97.5C18.0765 90.2667 28.5765 85.0167 43.0432 81.75C57.5098 78.4833 77.4598 76.85 102.893 76.85H111.643V68.8C111.643 57.3667 109.193 49.0833 104.293 43.95C99.3932 38.5833 91.4598 35.9 80.4932 35.9C73.7265 35.9 66.8432 36.95 59.8432 39.05C52.8432 40.9167 44.5598 43.7167 34.9932 47.45C28.9265 50.4833 24.4932 52 21.6932 52C17.4932 52 13.9932 50.4833 11.1932 47.45C8.6265 44.4167 7.34317 40.45 7.34317 35.55C7.34317 31.5833 8.2765 28.2 10.1432 25.4C12.2432 22.3667 15.6265 19.5667 20.2932 17C28.4598 12.5667 38.1432 9.06666 49.3432 6.5C60.7765 3.93332 71.9765 2.64998 82.9432 2.64998ZM72.0932 149.3C83.7598 149.3 93.2098 145.45 100.443 137.75C107.91 129.817 111.643 119.667 111.643 107.3V99.95H105.343C89.7098 99.95 77.5765 100.65 68.9432 102.05C60.3098 103.45 54.1265 105.9 50.3932 109.4C46.6598 112.9 44.7932 117.683 44.7932 123.75C44.7932 131.217 47.3598 137.4 52.4932 142.3C57.8598 146.967 64.3932 149.3 72.0932 149.3Z" fill="#F5F5F5"/>
<path d="M135.793 20.5L135.072 21.1928L135.079 21.2L135.086 21.2071L135.793 20.5ZM147.693 174.5L148.377 175.23L148.389 175.219L148.4 175.207L147.693 174.5ZM117.243 174.15L116.536 174.857L116.547 174.868L116.558 174.878L117.243 174.15ZM111.643 151.75H112.643L110.726 151.35L111.643 151.75ZM92.7432 173.1L92.2321 172.24L92.2217 172.247L92.7432 173.1ZM32.1932 173.8L31.746 174.694L31.746 174.694L32.1932 173.8ZM10.1432 154.55L9.30746 155.099L9.30746 155.099L10.1432 154.55ZM11.5432 97.5L10.8011 96.8297L10.795 96.8364L10.7891 96.8432L11.5432 97.5ZM43.0432 81.75L42.8229 80.7746L42.8229 80.7746L43.0432 81.75ZM111.643 76.85V77.85H112.643V76.85H111.643ZM104.293 43.95L103.555 44.6243L103.562 44.6325L103.57 44.6405L104.293 43.95ZM59.8432 39.05L60.1008 40.0162L60.1157 40.0123L60.1305 40.0078L59.8432 39.05ZM34.9932 47.45L34.6296 46.5184L34.5869 46.5351L34.546 46.5556L34.9932 47.45ZM11.1932 47.45L10.4298 48.0959L10.4437 48.1124L10.4584 48.1283L11.1932 47.45ZM10.1432 25.4L9.32097 24.8308L9.31598 24.838L9.31112 24.8453L10.1432 25.4ZM20.2932 17L19.8161 16.1211L19.8112 16.1238L20.2932 17ZM49.3432 6.5L49.1241 5.52427L49.1198 5.52526L49.3432 6.5ZM100.443 137.75L99.715 137.065L99.7143 137.065L100.443 137.75ZM111.643 99.95H112.643V98.95H111.643V99.95ZM68.9432 102.05L69.1032 103.037L69.1032 103.037L68.9432 102.05ZM50.3932 109.4L51.0771 110.13L51.0771 110.13L50.3932 109.4ZM52.4932 142.3L51.8027 143.023L51.8195 143.039L51.837 143.055L52.4932 142.3ZM82.9432 1.64998C80.1161 1.64998 77.274 1.73466 74.4169 1.90398L74.5352 3.90048C77.3534 3.73347 80.1561 3.64998 82.9432 3.64998V1.64998ZM57.4841 3.86781C54.7108 4.34352 51.9242 4.89569 49.1241 5.52428L49.5622 7.47571C52.3298 6.85442 55.0831 6.30887 57.8222 5.83902L57.4841 3.86781ZM49.1198 5.52526C46.5219 6.12062 44.0037 6.76618 41.5655 7.46206L42.1144 9.38527C44.5171 8.69952 47.0011 8.06264 49.5665 7.47473L49.1198 5.52526ZM26.8528 12.691C24.3971 13.7643 22.0515 14.9077 19.8161 16.1211L20.7703 17.8789C22.953 16.6939 25.2474 15.5754 27.6538 14.5235L26.8528 12.691ZM19.8112 16.1238C18.7805 16.6907 17.8085 17.2703 16.8957 17.8627L17.9845 19.5403C18.8532 18.9765 19.7833 18.4217 20.7751 17.8762L19.8112 16.1238ZM11.5504 22.1499C10.7021 23.0173 9.95793 23.9107 9.32097 24.8308L10.9654 25.9692C11.5323 25.1503 12.203 24.3431 12.9803 23.5482L11.5504 22.1499ZM9.31112 24.8453C8.78627 25.6326 8.331 26.4627 7.94539 27.335L9.77462 28.1437C10.1144 27.3751 10.5145 26.6457 10.9752 25.9547L9.31112 24.8453ZM6.50061 32.7675C6.39537 33.6659 6.34317 34.5935 6.34317 35.55H8.34317C8.34317 34.6663 8.3914 33.8165 8.48702 33.0002L6.50061 32.7675ZM6.34317 35.55C6.34317 36.6995 6.41136 37.8047 6.54906 38.8651L8.53241 38.6075C8.40669 37.6395 8.34317 36.6205 8.34317 35.55H6.34317ZM8.52308 45.2794C9.05982 46.2889 9.69552 47.2282 10.4298 48.0959L11.9566 46.804C11.315 46.0459 10.7593 45.2251 10.289 44.3405L8.52308 45.2794ZM10.4584 48.1283C11.1893 48.9201 11.9695 49.6191 12.7996 50.2228L13.9759 48.6053C13.2582 48.0833 12.5753 47.473 11.928 46.7717L10.4584 48.1283ZM18.5725 52.7145C19.5749 52.9056 20.6156 53 21.6932 53V51C20.7327 51 19.8178 50.9159 18.947 50.7498L18.5725 52.7145ZM21.6932 53C22.777 53 24.0307 52.7985 25.4377 52.4231L24.9223 50.4907C23.6148 50.8395 22.544 51 21.6932 51V53ZM32.2121 49.8861C33.234 49.4235 34.3102 48.9095 35.4404 48.3444L34.546 46.5556C33.4358 47.1106 32.383 47.6134 31.3873 48.0641L32.2121 49.8861ZM35.3567 48.3816C37.458 47.5615 39.4967 46.7869 41.4727 46.0576L40.7802 44.1813C38.7919 44.9152 36.7416 45.6942 34.6296 46.5184L35.3567 48.3816ZM53.8382 41.8296C56.0316 41.1491 58.1191 40.5447 60.1008 40.0162L59.5855 38.0838C57.5751 38.6199 55.4616 39.2319 53.2455 39.9195L53.8382 41.8296ZM60.1305 40.0078C61.8053 39.5054 63.4725 39.064 65.1322 38.6837L64.6854 36.7342C62.9816 37.1247 61.2718 37.5774 59.5558 38.0922L60.1305 40.0078ZM75.3366 37.1046C77.0635 36.9682 78.7824 36.9 80.4932 36.9V34.9C78.7292 34.9 76.9578 34.9703 75.1791 35.1108L75.3366 37.1046ZM80.4932 36.9C82.7427 36.9 84.8559 37.0146 86.8339 37.2423L87.0626 35.2555C85.0002 35.018 82.81 34.9 80.4932 34.9V36.9ZM98.7523 40.8168C100.605 41.875 102.204 43.1446 103.555 44.6243L105.032 43.2757C103.532 41.6338 101.768 40.2357 99.7441 39.0801L98.7523 40.8168ZM103.57 44.6405C104.957 46.0937 106.146 47.8228 107.132 49.8373L108.929 48.9579C107.861 46.7777 106.559 44.8751 105.017 43.2595L103.57 44.6405ZM110.34 62.2726C110.542 64.3128 110.643 66.4884 110.643 68.8H112.643C112.643 66.4304 112.539 64.1887 112.33 62.0758L110.34 62.2726ZM110.643 68.8V70.8125H112.643V68.8H110.643ZM110.643 74.8375V76.85H112.643V74.8375H110.643ZM111.643 75.85H109.456V77.85H111.643V75.85ZM105.081 75.85H102.893V77.85H105.081V75.85ZM102.893 75.85C100.326 75.85 97.8134 75.8666 95.3568 75.8999L95.3838 77.8997C97.8311 77.8666 100.334 77.85 102.893 77.85V75.85ZM80.2905 76.3445C74.9537 76.5965 69.9371 76.9449 65.2411 77.39L65.4298 79.3811C70.0906 78.9393 75.0754 78.593 80.3849 78.3423L80.2905 76.3445ZM50.2541 79.3193C47.638 79.7616 45.1608 80.2466 42.8229 80.7746L43.2634 82.7254C45.5623 82.2063 48.0035 81.7282 50.5875 81.2913L50.2541 79.3193ZM42.8229 80.7746C39.7439 81.4698 36.8388 82.2551 34.1082 83.1311L34.7191 85.0355C37.3882 84.1793 40.2361 83.409 43.2634 82.7254L42.8229 80.7746ZM17.723 90.841C15.0774 92.6563 12.7682 94.6518 10.8011 96.8297L12.2853 98.1703C14.1374 96.1197 16.3253 94.2256 18.8546 92.4901L17.723 90.841ZM10.7891 96.8432C9.00414 98.8926 7.46609 101.15 6.17475 103.612L7.94595 104.541C9.16673 102.213 10.6172 100.086 12.2972 98.1568L10.7891 96.8432ZM1.56193 119.169C1.24898 121.735 1.09317 124.429 1.09317 127.25H3.09317C3.09317 124.502 3.24495 121.89 3.54722 119.412L1.56193 119.169ZM1.09317 127.25C1.09317 129.749 1.25675 132.194 1.58459 134.585L3.56604 134.313C3.25101 132.016 3.09317 129.662 3.09317 127.25H1.09317ZM5.71654 148.676C6.7434 150.878 7.94061 153.019 9.30746 155.099L10.9789 154.001C9.66377 152 8.51409 149.943 7.52915 147.831L5.71654 148.676ZM9.30746 155.099C10.697 157.214 12.2176 159.214 13.8692 161.099L15.3735 159.781C13.7832 157.966 12.3184 156.039 10.9789 154.001L9.30746 155.099ZM25.2269 170.947C27.2843 172.301 29.4575 173.55 31.746 174.694L32.6404 172.906C30.4197 171.795 28.3152 170.585 26.3264 169.276L25.2269 170.947ZM31.746 174.694C34.185 175.914 36.6945 176.977 39.2744 177.882L39.9368 175.995C37.4361 175.117 35.004 174.087 32.6404 172.906L31.746 174.694ZM55.1994 181.392C57.8548 181.664 60.5695 181.8 63.3432 181.8V179.8C60.6348 179.8 57.9882 179.667 55.403 179.403L55.1994 181.392ZM63.3432 181.8C66.0172 181.8 68.6157 181.656 71.1382 181.366L70.9103 179.379C68.4675 179.66 65.9452 179.8 63.3432 179.8V181.8ZM86.2762 177.513C88.7022 176.504 91.0319 175.318 93.2646 173.953L92.2217 172.247C90.0773 173.557 87.8396 174.697 85.5083 175.666L86.2762 177.513ZM93.2542 173.96C95.4163 172.674 97.4375 171.265 99.3168 169.732L98.0524 168.182C96.2525 169.65 94.3127 171.003 92.2321 172.24L93.2542 173.96ZM109.107 158.689C110.406 156.631 111.556 154.451 112.56 152.15L110.726 151.35C109.762 153.562 108.658 155.652 107.416 157.621L109.107 158.689ZM110.643 151.75V153.675H112.643V151.75H110.643ZM110.643 157.525V159.45H112.643V157.525H110.643ZM110.643 159.45C110.643 160.902 110.747 162.296 110.955 163.631L112.931 163.322C112.74 162.098 112.643 160.807 112.643 159.45H110.643ZM113.871 171.545C114.628 172.734 115.517 173.838 116.536 174.857L117.95 173.443C117.032 172.524 116.235 171.534 115.557 170.471L113.871 171.545ZM116.558 174.878C117.623 175.881 118.763 176.757 119.978 177.505L121.027 175.803C119.931 175.127 118.898 174.334 117.929 173.422L116.558 174.878ZM128.036 180.429C129.4 180.644 130.82 180.75 132.293 180.75V178.75C130.916 178.75 129.601 178.65 128.347 178.453L128.036 180.429ZM132.293 180.75C133.788 180.75 135.218 180.661 136.582 180.481L136.32 178.498C135.051 178.666 133.709 178.75 132.293 178.75V180.75ZM144.836 177.834C146.124 177.103 147.305 176.234 148.377 175.23L147.009 173.77C146.054 174.666 145.001 175.44 143.849 176.094L144.836 177.834ZM148.4 175.207C149.437 174.17 150.34 173.037 151.105 171.809L149.408 170.751C148.724 171.848 147.917 172.862 146.986 173.793L148.4 175.207ZM153.991 163.709C154.193 162.352 154.293 160.932 154.293 159.45H152.293C152.293 160.842 152.199 162.163 152.013 163.414L153.991 163.709ZM154.293 159.45V152.333H152.293V159.45H154.293ZM154.293 138.1V123.867H152.293V138.1H154.293ZM154.293 109.633V95.4H152.293V109.633H154.293ZM154.293 81.1667V74.05H152.293V81.1667H154.293ZM154.293 74.05C154.293 71.5584 154.231 69.1313 154.106 66.769L152.109 66.8745C152.232 69.1998 152.293 71.5916 152.293 74.05H154.293ZM152.408 52.2879C151.441 47.218 150.102 42.5303 148.386 38.228L146.528 38.969C148.191 43.1398 149.498 47.7032 150.443 52.6624L152.408 52.2879ZM141.308 25.3761C139.832 23.383 138.229 21.5218 136.5 19.7929L135.086 21.2071C136.744 22.8652 138.283 24.6516 139.701 26.5666L141.308 25.3761ZM136.514 19.8072C134.83 18.0546 133.016 16.4288 131.07 14.93L129.85 16.5143C131.717 17.9531 133.458 19.5126 135.072 21.1928L136.514 19.8072ZM118.435 7.70472C114.184 5.9457 109.546 4.5727 104.524 3.58215L104.137 5.54434C109.044 6.51231 113.554 7.84963 117.67 9.55274L118.435 7.70472ZM90.1655 1.84141C87.8229 1.71374 85.4154 1.64998 82.9432 1.64998V3.64998C85.3811 3.64998 87.7522 3.71286 90.0566 3.83844L90.1655 1.84141ZM72.0932 148.3C70.3078 148.3 68.592 148.171 66.9448 147.915L66.6374 149.891C68.3926 150.164 70.2115 150.3 72.0932 150.3V148.3ZM57.3112 144.54C55.8536 143.688 54.4664 142.691 53.1493 141.545L51.837 143.055C53.2453 144.279 54.7337 145.35 56.3023 146.267L57.3112 144.54ZM53.1836 141.577C51.9474 140.397 50.8695 139.143 49.9478 137.817L48.3054 138.958C49.3077 140.4 50.4742 141.755 51.8027 143.023L53.1836 141.577ZM46.2193 128.718C45.9359 127.139 45.7932 125.484 45.7932 123.75H43.7932C43.7932 125.594 43.945 127.368 44.2508 129.072L46.2193 128.718ZM45.7932 123.75C45.7932 122.412 45.8871 121.146 46.0729 119.951L44.0967 119.644C43.8937 120.95 43.7932 122.319 43.7932 123.75H45.7932ZM48.6731 112.973C49.3519 111.944 50.1525 110.996 51.0771 110.13L49.7092 108.67C48.6731 109.642 47.7705 110.709 47.0035 111.872L48.6731 112.973ZM51.0771 110.13C52.1482 109.125 53.4479 108.201 54.986 107.361L54.0273 105.605C52.3646 106.514 50.922 107.534 49.7092 108.67L51.0771 110.13ZM64.2151 104.006C65.7409 103.641 67.3701 103.318 69.1032 103.037L68.7831 101.063C67.0067 101.351 65.3287 101.684 63.7498 102.061L64.2151 104.006ZM69.1032 103.037C71.7556 102.607 74.7495 102.242 78.0867 101.944L77.9088 99.9523C74.5347 100.254 71.4922 100.624 68.7831 101.063L69.1032 103.037ZM96.2374 101.037C99.1265 100.979 102.162 100.95 105.343 100.95V98.95C102.15 98.95 99.101 98.9792 96.1972 99.0375L96.2374 101.037ZM105.343 100.95H106.918V98.95H105.343V100.95ZM110.068 100.95H111.643V98.95H110.068V100.95ZM110.643 99.95V101.787H112.643V99.95H110.643ZM110.643 105.462V107.3H112.643V105.462H110.643ZM110.643 107.3C110.643 110.136 110.444 112.848 110.046 115.437L112.023 115.74C112.437 113.044 112.643 110.23 112.643 107.3H110.643ZM104.631 130.633C103.237 132.919 101.599 135.063 99.715 137.065L101.171 138.435C103.148 136.335 104.871 134.082 106.339 131.674L104.631 130.633ZM99.7143 137.065C97.9181 138.977 95.9852 140.642 93.9156 142.062L95.047 143.711C97.2399 142.207 99.2815 140.447 101.172 138.435L99.7143 137.065ZM79.7761 147.678C77.3411 148.092 74.7806 148.3 72.0932 148.3V150.3C74.8839 150.3 77.5571 150.084 80.1115 149.649L79.7761 147.678ZM135.793 20.5L134.351 21.8856L134.365 21.9001L134.379 21.9142L135.793 20.5ZM147.693 174.5L149.061 175.959L149.085 175.937L149.107 175.914L147.693 174.5ZM117.243 174.15L115.829 175.564L115.85 175.586L115.872 175.606L117.243 174.15ZM111.643 151.75H113.643L109.81 150.951L111.643 151.75ZM92.7432 173.1L91.721 171.381L91.7106 171.387L91.7003 171.393L92.7432 173.1ZM32.1932 173.8L31.2987 175.589L31.2987 175.589L32.1932 173.8ZM10.1432 154.55L8.47176 155.648L8.47176 155.648L10.1432 154.55ZM11.5432 97.5L10.059 96.1594L10.0469 96.1728L10.035 96.1864L11.5432 97.5ZM43.0432 81.75L42.6026 79.7991L42.6026 79.7991L43.0432 81.75ZM111.643 76.85V78.85H113.643V76.85H111.643ZM104.293 43.95L102.816 45.2985L102.831 45.3149L102.846 45.3309L104.293 43.95ZM59.8432 39.05L60.3585 40.9825L60.3883 40.9745L60.4179 40.9656L59.8432 39.05ZM34.9932 47.45L34.2661 45.5868L34.1807 45.6202L34.0987 45.6611L34.9932 47.45ZM11.1932 47.45L9.66639 48.7419L9.69428 48.7748L9.72356 48.8066L11.1932 47.45ZM10.1432 25.4L8.49878 24.2616L8.4888 24.276L8.47907 24.2906L10.1432 25.4ZM20.2932 17L19.339 15.2423L19.3293 15.2476L20.2932 17ZM49.3432 6.5L48.9051 4.54855L48.8964 4.55053L49.3432 6.5ZM100.443 137.75L98.9868 136.379L98.9855 136.381L100.443 137.75ZM111.643 99.95H113.643V97.95H111.643V99.95ZM68.9432 102.05L69.2633 104.024L69.2633 104.024L68.9432 102.05ZM50.3932 109.4L51.7611 110.859L51.7611 110.859L50.3932 109.4ZM52.4932 142.3L51.1122 143.747L51.1458 143.779L51.1808 143.809L52.4932 142.3ZM82.9432 0.649984C80.0961 0.649984 77.2343 0.735263 74.3578 0.905731L74.5944 4.89873C77.3931 4.73287 80.1761 4.64998 82.9432 4.64998V0.649984ZM57.315 2.88221C54.5247 3.36084 51.7214 3.91633 48.9051 4.54856L49.7812 8.45143C52.5326 7.83378 55.2693 7.29155 57.9913 6.82463L57.315 2.88221ZM48.8964 4.55053C46.2822 5.14961 43.747 5.79951 41.291 6.50046L42.3888 10.3469C44.7738 9.66619 47.2407 9.03364 49.7899 8.44946L48.8964 4.55053ZM26.4522 11.7747C23.972 12.8588 21.6007 14.0145 19.339 15.2423L21.2474 18.7577C23.4038 17.5871 25.6725 16.4809 28.0543 15.4398L26.4522 11.7747ZM19.3293 15.2476C18.2791 15.8252 17.2861 16.4171 16.3513 17.0239L18.5289 20.3791C19.3756 19.8296 20.2846 19.2872 21.257 18.7524L19.3293 15.2476ZM10.8355 21.4507C9.95161 22.3544 9.17074 23.291 8.49878 24.2616L11.7876 26.5384C12.3195 25.7701 12.9534 25.0059 13.6952 24.2474L10.8355 21.4507ZM8.47907 24.2906C7.92213 25.126 7.43932 26.0065 7.03077 26.9307L10.6892 28.548C11.0061 27.8313 11.3787 27.1523 11.8073 26.5094L8.47907 24.2906ZM5.5074 32.6512C5.39735 33.5906 5.34317 34.5572 5.34317 35.55H9.34317C9.34317 34.7026 9.38942 33.8918 9.48023 33.1166L5.5074 32.6512ZM5.34317 35.55C5.34317 36.7389 5.41369 37.8874 5.55739 38.9939L9.52408 38.4787C9.40435 37.5568 9.34317 36.5811 9.34317 35.55H5.34317ZM7.64012 45.7489C8.21008 46.8209 8.88578 47.8193 9.66639 48.7419L12.7199 46.1581C12.1248 45.4547 11.609 44.6932 11.1719 43.8711L7.64012 45.7489ZM9.72356 48.8066C10.4962 49.6436 11.3251 50.387 12.2115 51.0316L14.564 47.7965C13.9025 47.3155 13.2684 46.7495 12.6628 46.0934L9.72356 48.8066ZM18.3852 53.6968C19.4534 53.9004 20.557 54 21.6932 54V50C20.7913 50 19.9393 49.921 19.1343 49.7675L18.3852 53.6968ZM21.6932 54C22.8935 54 24.2387 53.778 25.6955 53.3894L24.6645 49.5245C23.4069 49.86 22.4275 50 21.6932 50V54ZM32.6245 50.7971C33.6595 50.3286 34.7473 49.809 35.8876 49.2388L34.0987 45.6611C32.9986 46.2112 31.9575 46.7083 30.9749 47.1531L32.6245 50.7971ZM35.7202 49.3131C37.8162 48.4952 39.8491 47.7227 41.819 46.9957L40.434 43.2431C38.4394 43.9793 36.3834 44.7605 34.2661 45.5868L35.7202 49.3131ZM54.1345 42.7847C56.3166 42.1077 58.3911 41.5071 60.3585 40.9825L59.3278 37.1175C57.303 37.6575 55.1767 38.2733 52.9492 38.9644L54.1345 42.7847ZM60.4179 40.9656C62.0721 40.4694 63.718 40.0337 65.3556 39.6584L64.462 35.7595C62.7362 36.155 61.005 36.6134 59.2685 37.1343L60.4179 40.9656ZM75.4153 38.1014C77.1164 37.9671 78.8089 37.9 80.4932 37.9V33.9C78.7026 33.9 76.9049 33.9713 75.1004 34.1139L75.4153 38.1014ZM80.4932 37.9C82.709 37.9 84.7838 38.0129 86.7195 38.2358L87.177 34.262C85.0723 34.0197 82.8437 33.9 80.4932 33.9V37.9ZM98.2564 41.6852C100.024 42.6946 101.539 43.9 102.816 45.2985L105.77 42.6015C104.197 40.8783 102.349 39.4161 100.24 38.2117L98.2564 41.6852ZM102.846 45.3309C104.156 46.703 105.288 48.3454 106.234 50.2771L109.827 48.5181C108.719 46.2552 107.36 44.2659 105.74 42.569L102.846 45.3309ZM109.345 62.371C109.543 64.3749 109.643 66.5173 109.643 68.8H113.643C113.643 66.4014 113.538 64.1267 113.325 61.9774L109.345 62.371ZM109.643 68.8V70.8125H113.643V68.8H109.643ZM109.643 74.8375V76.85H113.643V74.8375H109.643ZM111.643 74.85H109.456V78.85H111.643V74.85ZM105.081 74.85H102.893V78.85H105.081V74.85ZM102.893 74.85C100.321 74.85 97.8046 74.8666 95.3432 74.9L95.3974 78.8996C97.8399 78.8665 100.338 78.85 102.893 78.85V74.85ZM80.2434 75.3456C74.8928 75.5983 69.8603 75.9477 65.1468 76.3945L65.5242 80.3766C70.1673 79.9365 75.1363 79.5912 80.432 79.3412L80.2434 75.3456ZM50.0873 78.3333C47.4553 78.7783 44.9601 79.2668 42.6026 79.7991L43.4837 83.7009C45.763 83.1862 48.1862 82.7115 50.7542 82.2773L50.0873 78.3333ZM42.6026 79.7991C39.4978 80.5002 36.564 81.2931 33.8027 82.1789L35.0246 85.9877C37.6629 85.1413 40.4821 84.3787 43.4837 83.7009L42.6026 79.7991ZM17.1572 90.0165C14.4535 91.8716 12.0837 93.9178 10.059 96.1594L13.0274 98.8406C14.822 96.8537 16.9492 95.0102 19.4203 93.3147L17.1572 90.0165ZM10.035 96.1864C8.19759 98.2961 6.61577 100.618 5.28916 103.147L8.83155 105.005C10.017 102.745 11.4238 100.682 13.0513 98.8136L10.035 96.1864ZM0.569281 119.048C0.251002 121.658 0.0931654 124.392 0.0931654 127.25H4.09317C4.09317 124.539 4.24293 121.967 4.53986 119.533L0.569281 119.048ZM0.0931654 127.25C0.0931654 129.793 0.259621 132.283 0.593863 134.721L4.55677 134.177C4.24814 131.927 4.09317 129.618 4.09317 127.25H0.0931654ZM4.81023 149.099C5.85806 151.346 7.07902 153.529 8.47176 155.648L11.8146 153.452C10.5254 151.49 9.39944 149.475 8.43546 147.408L4.81023 149.099ZM8.47176 155.648C9.88633 157.801 11.4348 159.838 13.117 161.758L16.1257 159.122C14.566 157.342 13.129 155.452 11.8146 153.452L8.47176 155.648ZM24.6771 171.782C26.7688 173.159 28.9764 174.428 31.2987 175.589L33.0876 172.011C30.9008 170.918 28.8307 169.728 26.8762 168.441L24.6771 171.782ZM31.2987 175.589C33.7755 176.827 36.3238 177.906 38.9432 178.826L40.2681 175.052C37.8068 174.188 35.4135 173.174 33.0876 172.011L31.2987 175.589ZM55.0975 182.387C57.7882 182.663 60.5369 182.8 63.3432 182.8V178.8C60.6674 178.8 58.0548 178.669 55.5048 178.408L55.0975 182.387ZM63.3432 182.8C66.0532 182.8 68.6898 182.654 71.2522 182.36L70.7964 178.386C68.3934 178.661 65.9092 178.8 63.3432 178.8V182.8ZM86.6601 178.436C89.1335 177.408 91.5091 176.198 93.7861 174.807L91.7003 171.393C89.6 172.677 87.4083 173.793 85.1244 174.743L86.6601 178.436ZM93.7653 174.819C95.9681 173.509 98.0299 172.072 99.9489 170.506L97.4203 167.407C95.6601 168.843 93.7609 170.168 91.721 171.381L93.7653 174.819ZM109.952 159.223C111.279 157.121 112.454 154.896 113.477 152.549L109.81 150.951C108.865 153.118 107.785 155.163 106.57 157.087L109.952 159.223ZM109.643 151.75V153.675H113.643V151.75H109.643ZM109.643 157.525V159.45H113.643V157.525H109.643ZM109.643 159.45C109.643 160.95 109.75 162.396 109.968 163.786L113.919 163.168C113.737 161.998 113.643 160.76 113.643 159.45H109.643ZM113.027 172.083C113.825 173.335 114.76 174.495 115.829 175.564L118.657 172.736C117.789 171.867 117.038 170.933 116.401 169.933L113.027 172.083ZM115.872 175.606C116.985 176.654 118.179 177.572 119.453 178.357L121.551 174.951C120.515 174.312 119.535 173.561 118.614 172.694L115.872 175.606ZM127.881 181.417C129.3 181.64 130.772 181.75 132.293 181.75V177.75C130.964 177.75 129.701 177.654 128.502 177.465L127.881 181.417ZM132.293 181.75C133.828 181.75 135.302 181.658 136.713 181.472L136.19 177.507C134.968 177.668 133.669 177.75 132.293 177.75V181.75ZM145.33 178.703C146.686 177.934 147.931 177.019 149.061 175.959L146.325 173.041C145.428 173.882 144.439 174.609 143.356 175.224L145.33 178.703ZM149.107 175.914C150.197 174.824 151.147 173.631 151.954 172.338L148.559 170.222C147.916 171.253 147.157 172.207 146.279 173.086L149.107 175.914ZM154.98 163.857C155.19 162.447 155.293 160.977 155.293 159.45H151.293C151.293 160.797 151.202 162.069 151.024 163.267L154.98 163.857ZM155.293 159.45V152.333H151.293V159.45H155.293ZM155.293 138.1V123.867H151.293V138.1H155.293ZM155.293 109.633V95.4H151.293V109.633H155.293ZM155.293 81.1667V74.05H151.293V81.1667H155.293ZM155.293 74.05C155.293 71.5417 155.23 69.0971 155.105 66.7163L151.11 66.9272C151.232 69.2341 151.293 71.6083 151.293 74.05H155.293ZM153.39 52.1006C152.413 46.9754 151.057 42.2256 149.314 37.8575L145.599 39.3395C147.236 43.4446 148.526 47.9458 149.461 52.8497L153.39 52.1006ZM142.112 24.7808C140.607 22.7487 138.972 20.85 137.207 19.0858L134.379 21.9142C136.002 23.5369 137.508 25.2858 138.898 27.1619L142.112 24.7808ZM137.235 19.1143C135.517 17.3255 133.665 15.6666 131.681 14.1378L129.239 17.3064C131.068 18.7153 132.771 20.2416 134.351 21.8856L137.235 19.1143ZM118.817 6.78071C114.499 4.99374 109.797 3.60289 104.718 2.60106L103.944 6.52544C108.794 7.48212 113.239 8.80159 117.287 10.4768L118.817 6.78071ZM90.2199 0.842888C87.8582 0.714181 85.4326 0.649984 82.9432 0.649984V4.64998C85.3639 4.64998 87.7169 4.71241 90.0022 4.83696L90.2199 0.842888ZM72.0932 147.3C70.356 147.3 68.6916 147.175 67.0984 146.927L66.4837 150.879C68.2929 151.161 70.1633 151.3 72.0932 151.3V147.3ZM57.8157 143.677C56.4136 142.857 55.0769 141.896 53.8055 140.791L51.1808 143.809C52.6347 145.073 54.1738 146.181 55.7978 147.13L57.8157 143.677ZM53.8741 140.853C52.6839 139.717 51.6505 138.515 50.7689 137.246L47.4843 139.529C48.5268 141.029 49.7377 142.435 51.1122 143.747L53.8741 140.853ZM47.2036 128.542C46.9314 127.025 46.7932 125.429 46.7932 123.75H42.7932C42.7932 125.649 42.9495 127.482 43.2665 129.248L47.2036 128.542ZM46.7932 123.75C46.7932 122.459 46.8838 121.245 47.0611 120.104L43.1085 119.49C42.8969 120.851 42.7932 122.272 42.7932 123.75H46.7932ZM49.5078 113.524C50.1425 112.562 50.8922 111.674 51.7611 110.859L49.0253 107.941C47.9334 108.965 46.9799 110.092 46.1687 111.322L49.5078 113.524ZM51.7611 110.859C52.7613 109.921 53.9895 109.044 55.4653 108.238L53.5479 104.728C51.823 105.67 50.3088 106.738 49.0253 107.941L51.7611 110.859ZM64.4477 104.979C65.9471 104.62 67.5519 104.302 69.2633 104.024L68.623 100.076C66.8249 100.367 65.1226 100.705 63.5172 101.089L64.4477 104.979ZM69.2633 104.024C71.8873 103.599 74.8569 103.237 78.1757 102.94L77.8198 98.9563C74.4274 99.2593 71.3605 99.6319 68.623 100.076L69.2633 104.024ZM96.2575 102.037C99.1393 101.979 102.168 101.95 105.343 101.95V97.95C102.144 97.95 99.0882 97.9792 96.1771 98.0377L96.2575 102.037ZM105.343 101.95H106.918V97.95H105.343V101.95ZM110.068 101.95H111.643V97.95H110.068V101.95ZM109.643 99.95V101.787H113.643V99.95H109.643ZM109.643 105.462V107.3H113.643V105.462H109.643ZM109.643 107.3C109.643 110.09 109.447 112.75 109.058 115.285L113.011 115.892C113.434 113.142 113.643 110.277 113.643 107.3H109.643ZM103.778 130.112C102.42 132.338 100.824 134.427 98.9868 136.379L101.9 139.121C103.922 136.972 105.688 134.663 107.193 132.195L103.778 130.112ZM98.9855 136.381C97.2364 138.243 95.3578 139.86 93.3498 141.238L95.6128 144.536C97.8673 142.989 99.9632 141.182 101.901 139.119L98.9855 136.381ZM79.6084 146.692C77.2331 147.096 74.7289 147.3 72.0932 147.3V151.3C74.9355 151.3 77.6651 151.08 80.2792 150.635L79.6084 146.692Z" fill="black"/>
</svg>
