<svg width="249" height="255" viewBox="0 0 249 255" fill="none" xmlns="http://www.w3.org/2000/svg">
<path d="M244.867 224.05C246.267 227.083 246.967 230.117 246.967 233.15C246.967 238.517 244.751 243.067 240.317 246.8C236.117 250.533 231.217 252.4 225.617 252.4C221.884 252.4 218.384 251.467 215.117 249.6C211.851 247.5 209.284 244.35 207.417 240.15L186.417 193.25H63.2172L42.2172 240.15C40.3505 244.35 37.7839 247.5 34.5172 249.6C31.2505 251.467 27.6339 252.4 23.6672 252.4C18.3005 252.4 13.4005 250.533 8.96719 246.8C4.53385 243.067 2.31719 238.517 2.31719 233.15C2.31719 230.117 3.01719 227.083 4.41719 224.05L101.017 16.5C103.117 11.8333 106.267 8.33331 110.467 5.99998C114.901 3.43332 119.567 2.14999 124.467 2.14999C129.367 2.14999 133.917 3.43332 138.117 5.99998C142.551 8.33331 145.817 11.8333 147.917 16.5L244.867 224.05ZM78.6172 158.25H171.017L124.817 54.3L78.6172 158.25Z" fill="#F5F5F5"/>
<path d="M244.867 224.05L245.775 223.631L245.773 223.627L244.867 224.05ZM240.317 246.8L239.673 246.035L239.663 246.044L239.653 246.053L240.317 246.8ZM215.117 249.6L214.576 250.441L214.598 250.455L214.621 250.468L215.117 249.6ZM207.417 240.15L208.331 239.744L208.33 239.741L207.417 240.15ZM186.417 193.25L187.33 192.841L187.065 192.25H186.417V193.25ZM63.2172 193.25V192.25H62.5693L62.3045 192.841L63.2172 193.25ZM42.2172 240.15L41.3045 239.741L41.3034 239.744L42.2172 240.15ZM34.5172 249.6L35.0133 250.468L35.036 250.455L35.0579 250.441L34.5172 249.6ZM8.96719 246.8L8.32305 247.565L8.32305 247.565L8.96719 246.8ZM4.41719 224.05L3.51057 223.628L3.50923 223.631L4.41719 224.05ZM101.017 16.5L101.924 16.922L101.929 16.9104L101.017 16.5ZM110.467 5.99998L110.953 6.87414L110.961 6.86984L110.968 6.86541L110.467 5.99998ZM138.117 5.99998L137.596 6.85327L137.623 6.86998L137.651 6.8849L138.117 5.99998ZM147.917 16.5L147.005 16.9104L147.008 16.9168L147.011 16.9232L147.917 16.5ZM78.6172 158.25L77.7034 157.844L77.0784 159.25H78.6172V158.25ZM171.017 158.25V159.25H172.556L171.931 157.844L171.017 158.25ZM124.817 54.3L125.731 53.8938L124.817 51.8378L123.903 53.8938L124.817 54.3ZM245.773 223.627L242.744 217.141L240.931 217.987L243.961 224.473L245.773 223.627ZM236.684 204.169L230.625 191.197L228.813 192.044L234.872 205.015L236.684 204.169ZM224.565 178.225L218.506 165.253L216.694 166.1L222.753 179.072L224.565 178.225ZM212.447 152.281L206.387 139.31L204.575 140.156L210.635 153.128L212.447 152.281ZM200.328 126.338L194.269 113.366L192.456 114.212L198.516 127.184L200.328 126.338ZM188.209 100.394L182.15 87.4221L180.338 88.2685L186.397 101.24L188.209 100.394ZM176.09 74.4502L170.031 61.4783L168.219 62.3248L174.278 75.2967L176.09 74.4502ZM163.972 48.5065L157.912 35.5346L156.1 36.381L162.16 49.3529L163.972 48.5065ZM151.853 22.5627L148.823 16.0768L147.011 16.9232L150.041 23.4091L151.853 22.5627ZM148.829 16.0896C148.296 14.9044 147.688 13.7882 147.007 12.742L145.331 13.8341C145.954 14.7899 146.512 15.815 147.005 16.9104L148.829 16.0896ZM141.81 7.15824C140.807 6.40025 139.731 5.71935 138.583 5.11506L137.651 6.8849C138.707 7.44045 139.691 8.06352 140.603 8.75362L141.81 7.15824ZM138.639 5.1467C137.564 4.48999 136.465 3.91336 135.343 3.41741L134.535 5.24678C135.574 5.70598 136.594 6.24127 137.596 6.85327L138.639 5.1467ZM128.182 1.39578C126.964 1.23177 125.726 1.14999 124.467 1.14999V3.14999C125.639 3.14999 126.788 3.22611 127.915 3.37788L128.182 1.39578ZM124.467 1.14999C123.187 1.14999 121.922 1.23451 120.671 1.40381L120.939 3.38575C122.1 3.22866 123.276 3.14999 124.467 3.14999V1.14999ZM113.355 3.43334C112.209 3.92264 111.08 4.48991 109.966 5.13456L110.968 6.86541C112.014 6.25982 113.072 5.72911 114.141 5.27267L113.355 3.43334ZM109.982 5.12583C108.872 5.74234 107.83 6.43796 106.858 7.2129L108.104 8.77699C108.988 8.0726 109.937 7.43825 110.953 6.87414L109.982 5.12583ZM101.871 12.7984C101.217 13.8283 100.629 14.9257 100.105 16.0896L101.929 16.9104C102.416 15.8287 102.96 14.8156 103.56 13.87L101.871 12.7984ZM100.111 16.078L97.0918 22.564L98.9051 23.4079L101.924 16.922L100.111 16.078ZM91.0543 35.5358L85.0168 48.5077L86.8301 49.3516L92.8676 36.3798L91.0543 35.5358ZM78.9793 61.4796L72.9418 74.4515L74.7551 75.2954L80.7926 62.3235L78.9793 61.4796ZM66.9043 87.4233L60.8668 100.395L62.6801 101.239L68.7176 88.2673L66.9043 87.4233ZM54.8293 113.367L48.7918 126.339L50.605 127.183L56.6426 114.211L54.8293 113.367ZM42.7543 139.311L36.7168 152.283L38.5301 153.127L44.5676 140.155L42.7543 139.311ZM30.6793 165.255L24.6418 178.226L26.455 179.07L32.4926 166.099L30.6793 165.255ZM18.6043 191.198L12.5668 204.17L14.38 205.014L20.4175 192.042L18.6043 191.198ZM6.52932 217.142L3.51058 223.628L5.3238 224.472L8.34254 217.986L6.52932 217.142ZM3.50923 223.631C3.16117 224.385 2.854 225.141 2.58812 225.898L4.47525 226.561C4.71939 225.865 5.00256 225.168 5.32515 224.469L3.50923 223.631ZM1.46399 230.684C1.36616 231.506 1.31719 232.328 1.31719 233.15H3.31719C3.31719 232.407 3.36141 231.664 3.44996 230.92L1.46399 230.684ZM1.31719 233.15C1.31719 234.571 1.46497 235.944 1.76304 237.267L3.71417 236.828C3.45035 235.657 3.31719 234.431 3.31719 233.15H1.31719ZM5.42613 244.655C6.26741 245.678 7.23405 246.648 8.32305 247.565L9.61132 246.035C8.60758 245.19 7.72843 244.306 6.97091 243.385L5.42613 244.655ZM8.32305 247.565C9.41701 248.486 10.5421 249.301 11.6987 250.007L12.7409 248.3C11.6759 247.65 10.6326 246.895 9.61132 246.035L8.32305 247.565ZM19.4893 253.023C20.8529 253.274 22.2459 253.4 23.6672 253.4V251.4C22.3642 251.4 21.093 251.285 19.8526 251.056L19.4893 253.023ZM23.6672 253.4C24.6685 253.4 25.6506 253.343 26.6133 253.228L26.3762 251.242C25.4951 251.347 24.5922 251.4 23.6672 251.4V253.4ZM32.3455 251.765C33.259 251.395 34.1483 250.963 35.0133 250.468L34.0211 248.732C33.2329 249.182 32.4243 249.575 31.5949 249.911L32.3455 251.765ZM35.0579 250.441C35.9703 249.855 36.8303 249.191 37.6377 248.451L36.2862 246.977C35.5617 247.641 34.7919 248.235 33.9764 248.759L35.0579 250.441ZM41.6683 243.408C42.1966 242.513 42.684 241.562 43.131 240.556L41.3034 239.744C40.8855 240.684 40.4327 241.567 39.9458 242.392L41.6683 243.408ZM43.1299 240.559L45.7549 234.696L43.9295 233.879L41.3045 239.741L43.1299 240.559ZM51.0049 222.971L56.2549 211.246L54.4295 210.429L49.1795 222.154L51.0049 222.971ZM61.5049 199.521L64.1299 193.659L62.3045 192.841L59.6795 198.704L61.5049 199.521ZM63.2172 194.25H70.9172V192.25H63.2172V194.25ZM86.3172 194.25H101.717V192.25H86.3172V194.25ZM117.117 194.25H132.517V192.25H117.117V194.25ZM147.917 194.25H163.317V192.25H147.917V194.25ZM178.717 194.25H186.417V192.25H178.717V194.25ZM185.505 193.659L188.13 199.521L189.955 198.704L187.33 192.841L185.505 193.659ZM193.38 211.246L198.63 222.971L200.455 222.154L195.205 210.429L193.38 211.246ZM203.88 234.696L206.505 240.559L208.33 239.741L205.705 233.879L203.88 234.696ZM206.503 240.556C206.95 241.562 207.438 242.513 207.966 243.408L209.689 242.392C209.202 241.567 208.749 240.684 208.331 239.744L206.503 240.556ZM211.997 248.451C212.804 249.191 213.664 249.855 214.576 250.441L215.658 248.759C214.843 248.235 214.073 247.641 213.348 246.977L211.997 248.451ZM214.621 250.468C215.464 250.95 216.322 251.372 217.198 251.736L217.965 249.889C217.169 249.559 216.385 249.173 215.613 248.732L214.621 250.468ZM222.749 253.219C223.691 253.34 224.648 253.4 225.617 253.4V251.4C224.731 251.4 223.859 251.345 223.003 251.235L222.749 253.219ZM225.617 253.4C227.05 253.4 228.443 253.282 229.796 253.046L229.451 251.076C228.218 251.292 226.94 251.4 225.617 251.4V253.4ZM237.626 250.061C238.792 249.338 239.911 248.499 240.982 247.547L239.653 246.053C238.663 246.932 237.636 247.701 236.572 248.361L237.626 250.061ZM240.961 247.565C242.05 246.648 243.017 245.678 243.858 244.655L242.313 243.385C241.556 244.306 240.677 245.19 239.673 246.035L240.961 247.565ZM247.521 237.267C247.819 235.944 247.967 234.571 247.967 233.15H245.967C245.967 234.431 245.834 235.657 245.57 236.828L247.521 237.267ZM247.967 233.15C247.967 232.328 247.918 231.506 247.82 230.684L245.834 230.92C245.923 231.664 245.967 232.407 245.967 233.15H247.967ZM246.696 225.898C246.43 225.141 246.123 224.385 245.775 223.631L243.959 224.469C244.282 225.168 244.565 225.865 244.809 226.561L246.696 225.898ZM79.531 158.656L82.4185 152.159L80.5909 151.347L77.7034 157.844L79.531 158.656ZM88.1935 139.166L93.9685 126.172L92.1409 125.359L86.3659 138.353L88.1935 139.166ZM99.7435 113.178L105.519 100.184L103.691 99.372L97.9159 112.366L99.7435 113.178ZM111.294 87.1905L117.069 74.1968L115.241 73.3845L109.466 86.3782L111.294 87.1905ZM122.844 61.203L125.731 54.7061L123.903 53.8938L121.016 60.3907L122.844 61.203ZM123.903 54.7061L126.791 61.203L128.619 60.3907L125.731 53.8938L123.903 54.7061ZM132.566 74.1968L138.341 87.1905L140.169 86.3782L134.394 73.3845L132.566 74.1968ZM144.116 100.184L149.891 113.178L151.719 112.366L145.944 99.372L144.116 100.184ZM155.666 126.172L161.441 139.166L163.269 138.353L157.494 125.359L155.666 126.172ZM167.216 152.159L170.103 158.656L171.931 157.844L169.044 151.347L167.216 152.159ZM171.017 157.25H163.317V159.25H171.017V157.25ZM147.917 157.25H132.517V159.25H147.917V157.25ZM117.117 157.25H101.717V159.25H117.117V157.25ZM86.3172 157.25H78.6172V159.25H86.3172V157.25ZM244.867 224.05L246.683 223.212L246.679 223.204L244.867 224.05ZM240.317 246.8L239.029 245.27L239.008 245.287L238.988 245.305L240.317 246.8ZM215.117 249.6L214.036 251.282L214.08 251.311L214.125 251.336L215.117 249.6ZM207.417 240.15L209.245 239.338L209.243 239.333L207.417 240.15ZM186.417 193.25L188.243 192.433L187.713 191.25H186.417V193.25ZM63.2172 193.25V191.25H61.9214L61.3918 192.433L63.2172 193.25ZM42.2172 240.15L40.3918 239.333L40.3896 239.338L42.2172 240.15ZM34.5172 249.6L35.5095 251.336L35.5548 251.311L35.5987 251.282L34.5172 249.6ZM8.96719 246.8L7.67892 248.33L7.67892 248.33L8.96719 246.8ZM4.41719 224.05L2.60395 223.206L2.60127 223.212L4.41719 224.05ZM101.017 16.5L102.83 17.3439L102.836 17.3324L102.841 17.3207L101.017 16.5ZM110.467 5.99998L111.438 7.7483L111.454 7.7397L111.469 7.73084L110.467 5.99998ZM138.117 5.99998L137.074 7.70655L137.129 7.73997L137.186 7.76982L138.117 5.99998ZM147.917 16.5L146.093 17.3207L146.099 17.3336L146.105 17.3464L147.917 16.5ZM78.6172 158.25L76.7896 157.438L75.5397 160.25H78.6172V158.25ZM171.017 158.25V160.25H174.095L172.845 157.438L171.017 158.25ZM124.817 54.3L126.645 53.4877L124.817 49.3756L122.99 53.4877L124.817 54.3ZM246.679 223.204L243.65 216.718L240.025 218.41L243.055 224.896L246.679 223.204ZM237.59 203.746L231.531 190.774L227.907 192.467L233.966 205.439L237.59 203.746ZM225.471 177.802L219.412 164.83L215.788 166.523L221.847 179.495L225.471 177.802ZM213.353 151.858L207.293 138.886L203.669 140.579L209.729 153.551L213.353 151.858ZM201.234 125.914L195.175 112.943L191.55 114.636L197.61 127.607L201.234 125.914ZM189.115 99.9708L183.056 86.9989L179.432 88.6918L185.491 101.664L189.115 99.9708ZM176.996 74.027L170.937 61.0551L167.313 62.748L173.372 75.7199L176.996 74.027ZM164.878 48.0832L158.818 35.1114L155.194 36.8042L161.254 49.7761L164.878 48.0832ZM152.759 22.1395L149.729 15.6536L146.105 17.3464L149.135 23.8324L152.759 22.1395ZM149.741 15.6793C149.187 14.4492 148.556 13.2873 147.844 12.1959L144.493 14.3802C145.087 15.2907 145.621 16.2702 146.093 17.3207L149.741 15.6793ZM142.413 6.36055C141.365 5.56861 140.243 4.85879 139.049 4.23015L137.186 7.76982C138.195 8.30101 139.132 8.89515 140 9.55131L142.413 6.36055ZM139.16 4.29342C138.049 3.61435 136.911 3.01705 135.747 2.50273L134.131 6.16146C135.128 6.60229 136.109 7.11691 137.074 7.70655L139.16 4.29342ZM128.316 0.404731C127.052 0.234596 125.769 0.149991 124.467 0.149991V4.14999C125.596 4.14999 126.7 4.22328 127.782 4.36893L128.316 0.404731ZM124.467 0.149991C123.143 0.149991 121.833 0.23744 120.537 0.412845L121.073 4.37671C122.189 4.22573 123.32 4.14999 124.467 4.14999V0.149991ZM112.963 2.51367C111.778 3.0194 110.612 3.60496 109.465 4.26913L111.469 7.73084C112.482 7.14477 113.503 6.63234 114.533 6.19234L112.963 2.51367ZM109.496 4.25167C108.339 4.89438 107.251 5.62064 106.235 6.43085L108.728 9.55903C109.567 8.88993 110.47 8.28621 111.438 7.7483L109.496 4.25167ZM101.027 12.2626C100.346 13.3347 99.7356 14.4742 99.1934 15.6793L102.841 17.3207C103.309 16.2802 103.831 15.3092 104.404 14.4058L101.027 12.2626ZM99.204 15.6561L96.1852 22.142L99.8117 23.8299L102.83 17.3439L99.204 15.6561ZM90.1477 35.1139L84.1102 48.0857L87.7367 49.7736L93.7742 36.8017L90.1477 35.1139ZM78.0727 61.0576L72.0352 74.0295L75.6617 75.7174L81.6992 62.7455L78.0727 61.0576ZM65.9977 87.0014L59.9602 99.9733L63.5867 101.661L69.6242 88.6892L65.9977 87.0014ZM53.9227 112.945L47.8852 125.917L51.5117 127.605L57.5492 114.633L53.9227 112.945ZM41.8477 138.889L35.8102 151.861L39.4367 153.549L45.4742 140.577L41.8477 138.889ZM29.7727 164.833L23.7352 177.805L27.3617 179.492L33.3992 166.52L29.7727 164.833ZM17.6977 190.776L11.6602 203.748L15.2867 205.436L21.3242 192.464L17.6977 190.776ZM5.62271 216.72L2.60396 223.206L6.23041 224.894L9.24916 218.408L5.62271 216.72ZM2.60127 223.212C2.24047 223.994 1.9213 224.779 1.64455 225.567L5.41882 226.892C5.65208 226.227 5.92325 225.559 6.23311 224.888L2.60127 223.212ZM0.471001 230.566C0.368533 231.426 0.317188 232.288 0.317188 233.15H4.31719C4.31719 232.447 4.35903 231.743 4.44294 231.039L0.471001 230.566ZM0.317188 233.15C0.317188 234.64 0.472273 236.088 0.787472 237.487L4.68974 236.608C4.44305 235.513 4.31719 234.361 4.31719 233.15H0.317188ZM4.65373 245.29C5.53691 246.364 6.54728 247.377 7.67892 248.33L10.2555 245.27C9.29434 244.461 8.45894 243.62 7.7433 242.75L4.65373 245.29ZM7.67892 248.33C8.8092 249.282 9.97527 250.126 11.1776 250.86L13.262 247.446C12.2428 246.824 11.2405 246.1 10.2555 245.27L7.67892 248.33ZM19.3076 254.006C20.7329 254.269 22.1867 254.4 23.6672 254.4V250.4C22.4234 250.4 21.213 250.29 20.0342 250.073L19.3076 254.006ZM23.6672 254.4C24.7066 254.4 25.7284 254.341 26.7318 254.221L26.2577 250.249C25.4173 250.349 24.5541 250.4 23.6672 250.4V254.4ZM32.7208 252.692C33.6763 252.305 34.606 251.853 35.5095 251.336L33.5249 247.864C32.7752 248.292 32.0069 248.665 31.2196 248.984L32.7208 252.692ZM35.5987 251.282C36.5595 250.665 37.4646 249.966 38.3135 249.188L35.6105 246.239C34.9274 246.866 34.2027 247.425 33.4357 247.918L35.5987 251.282ZM42.5296 243.916C43.0786 242.986 43.5833 242.001 44.0448 240.962L40.3896 239.338C39.9862 240.245 39.5508 241.094 39.0846 241.884L42.5296 243.916ZM44.0426 240.967L46.6676 235.105L43.0168 233.47L40.3918 239.333L44.0426 240.967ZM51.9176 223.38L57.1676 211.655L53.5168 210.02L48.2668 221.745L51.9176 223.38ZM62.4176 199.93L65.0426 194.067L61.3918 192.433L58.7668 198.295L62.4176 199.93ZM63.2172 195.25H70.9172V191.25H63.2172V195.25ZM86.3172 195.25H101.717V191.25H86.3172V195.25ZM117.117 195.25H132.517V191.25H117.117V195.25ZM147.917 195.25H163.317V191.25H147.917V195.25ZM178.717 195.25H186.417V191.25H178.717V195.25ZM184.592 194.067L187.217 199.93L190.868 198.295L188.243 192.433L184.592 194.067ZM192.467 211.655L197.717 223.38L201.368 221.745L196.118 210.02L192.467 211.655ZM202.967 235.105L205.592 240.967L209.243 239.333L206.618 233.47L202.967 235.105ZM205.59 240.962C206.051 242.001 206.556 242.986 207.105 243.916L210.55 241.884C210.084 241.094 209.648 240.245 209.245 239.338L205.59 240.962ZM211.321 249.188C212.17 249.966 213.075 250.665 214.036 251.282L216.199 247.918C215.432 247.425 214.707 246.866 214.024 246.239L211.321 249.188ZM214.125 251.336C215.003 251.838 215.899 252.279 216.814 252.66L218.349 248.966C217.593 248.652 216.846 248.284 216.109 247.864L214.125 251.336ZM222.622 254.211C223.607 254.337 224.606 254.4 225.617 254.4V250.4C224.772 250.4 223.944 250.347 223.131 250.243L222.622 254.211ZM225.617 254.4C227.105 254.4 228.556 254.278 229.968 254.031L229.279 250.091C228.105 250.296 226.885 250.4 225.617 250.4V254.4ZM238.153 250.91C239.37 250.156 240.534 249.283 241.646 248.295L238.988 245.305C238.039 246.149 237.058 246.883 236.045 247.511L238.153 250.91ZM241.605 248.33C242.737 247.377 243.747 246.364 244.631 245.29L241.541 242.75C240.825 243.62 239.99 244.461 239.029 245.27L241.605 248.33ZM248.497 237.487C248.812 236.088 248.967 234.64 248.967 233.15H244.967C244.967 234.361 244.841 235.513 244.595 236.608L248.497 237.487ZM248.967 233.15C248.967 232.288 248.916 231.426 248.813 230.566L244.841 231.039C244.925 231.743 244.967 232.447 244.967 233.15H248.967ZM247.64 225.567C247.363 224.779 247.044 223.994 246.683 223.212L243.051 224.888C243.361 225.559 243.632 226.227 243.866 226.892L247.64 225.567ZM80.4448 159.062L83.3323 152.565L79.6771 150.941L76.7896 157.438L80.4448 159.062ZM89.1073 139.572L94.8823 126.578L91.2271 124.953L85.4521 137.947L89.1073 139.572ZM100.657 113.584L106.432 100.59L102.777 98.9658L97.0021 111.96L100.657 113.584ZM112.207 87.5966L117.982 74.6029L114.327 72.9783L108.552 85.9721L112.207 87.5966ZM123.757 61.6091L126.645 55.1123L122.99 53.4877L120.102 59.9846L123.757 61.6091ZM122.99 55.1123L125.877 61.6091L129.532 59.9846L126.645 53.4877L122.99 55.1123ZM131.652 74.6029L137.427 87.5966L141.082 85.9721L135.307 72.9783L131.652 74.6029ZM143.202 100.59L148.977 113.584L152.632 111.96L146.857 98.9658L143.202 100.59ZM154.752 126.578L160.527 139.572L164.182 137.947L158.407 124.953L154.752 126.578ZM166.302 152.565L169.19 159.062L172.845 157.438L169.957 150.941L166.302 152.565ZM171.017 156.25H163.317V160.25H171.017V156.25ZM147.917 156.25H132.517V160.25H147.917V156.25ZM117.117 156.25H101.717V160.25H117.117V156.25ZM86.3172 156.25H78.6172V160.25H86.3172V156.25Z" fill="black"/>
</svg>
