<svg width="179" height="256" viewBox="0 0 179 256" fill="none" xmlns="http://www.w3.org/2000/svg">
<path d="M100.497 75.65C115.431 75.65 128.614 79.2667 140.047 86.5C151.481 93.7333 160.347 104 166.647 117.3C173.181 130.6 176.447 146.117 176.447 163.85C176.447 181.583 173.181 197.333 166.647 211.1C160.347 224.633 151.364 235.133 139.697 242.6C128.264 250.067 115.197 253.8 100.497 253.8C88.1308 253.8 77.0475 251.117 67.2475 245.75C57.6808 240.383 50.3308 232.917 45.1975 223.35V232.1C45.1975 238.4 43.2141 243.417 39.2475 247.15C35.2808 250.883 30.0308 252.75 23.4975 252.75C16.9641 252.75 11.7141 250.883 7.74746 247.15C4.01413 243.417 2.14746 238.4 2.14746 232.1V22.8C2.14746 16.7333 4.1308 11.8333 8.09746 8.1C12.2975 4.36666 17.6641 2.49999 24.1975 2.49999C30.7308 2.49999 35.9808 4.24998 39.9475 7.74998C43.9141 11.25 45.8975 16.0333 45.8975 22.1V104.7C51.0308 95.3667 58.3808 88.25 67.9475 83.35C77.5141 78.2167 88.3641 75.65 100.497 75.65ZM88.9475 219.85C102.714 219.85 113.447 214.95 121.147 205.15C128.847 195.35 132.697 181.583 132.697 163.85C132.697 146.35 128.847 132.933 121.147 123.6C113.681 114.267 102.947 109.6 88.9475 109.6C74.9475 109.6 64.0975 114.383 56.3975 123.95C48.9308 133.283 45.1975 146.817 45.1975 164.55C45.1975 182.283 48.9308 195.933 56.3975 205.5C64.0975 215.067 74.9475 219.85 88.9475 219.85Z" fill="#F5F5F5"/>
<path d="M140.047 86.5L139.513 87.3451L140.047 86.5ZM166.647 117.3L165.744 117.728L165.747 117.735L165.75 117.741L166.647 117.3ZM166.647 211.1L165.744 210.671L165.741 210.678L166.647 211.1ZM139.697 242.6L139.158 241.758L139.151 241.763L139.697 242.6ZM67.2475 245.75L66.7582 246.622L66.7672 246.627L67.2475 245.75ZM45.1975 223.35L46.0786 222.877L44.1975 223.35H45.1975ZM39.2475 247.15L38.5621 246.422L38.5621 246.422L39.2475 247.15ZM7.74746 247.15L7.04035 247.857L7.05107 247.868L7.0621 247.878L7.74746 247.15ZM8.09746 8.1L7.4331 7.35259L7.42246 7.36204L7.4121 7.3718L8.09746 8.1ZM39.9475 7.74998L40.6091 7.00014L40.6091 7.00014L39.9475 7.74998ZM45.8975 104.7H44.8975L46.7737 105.182L45.8975 104.7ZM67.9475 83.35L68.4033 84.24L68.4119 84.2357L68.4203 84.2311L67.9475 83.35ZM121.147 205.15L121.934 205.768L121.934 205.768L121.147 205.15ZM121.147 123.6L120.367 124.225L120.371 124.231L120.376 124.236L121.147 123.6ZM56.3975 123.95L55.6185 123.323L55.6166 123.325L56.3975 123.95ZM56.3975 205.5L55.6092 206.115L55.6138 206.121L55.6185 206.127L56.3975 205.5ZM100.497 74.65C97.5799 74.65 94.7332 74.7967 91.9577 75.0906L92.1683 77.0795C94.8707 76.7933 97.647 76.65 100.497 76.65V74.65ZM75.2936 78.9394C72.6002 79.9407 69.9937 81.1171 67.4747 82.4688L68.4203 84.2311C70.8586 82.9228 73.3819 81.7838 75.9905 80.8141L75.2936 78.9394ZM67.4916 82.4599C65.0949 83.6875 62.8326 85.0531 60.7054 86.557L61.86 88.1901C63.9071 86.7428 66.088 85.4259 68.4033 84.24L67.4916 82.4599ZM49.3291 97.5605C47.7529 99.6425 46.3171 101.862 45.0212 104.218L46.7737 105.182C48.0244 102.908 49.4078 100.77 50.9237 98.7676L49.3291 97.5605ZM46.8975 104.7V97.8167H44.8975V104.7H46.8975ZM46.8975 84.05V70.2833H44.8975V84.05H46.8975ZM46.8975 56.5167V42.75H44.8975V56.5167H46.8975ZM46.8975 28.9833V22.1H44.8975V28.9833H46.8975ZM46.8975 22.1C46.8975 20.6501 46.7881 19.2632 46.567 17.9409L44.5944 18.2706C44.7957 19.4745 44.8975 20.7505 44.8975 22.1H46.8975ZM43.4435 10.1455C42.6365 9.00306 41.6908 7.95463 40.6091 7.00014L39.2858 8.49982C40.2555 9.35537 41.0959 10.2886 41.8099 11.2994L43.4435 10.1455ZM40.6091 7.00014C39.4907 6.01335 38.2752 5.15874 36.9637 4.43689L35.9993 6.18901C37.1829 6.84044 38.278 7.61051 39.2858 8.49982L40.6091 7.00014ZM28.5639 1.77708C27.1706 1.59188 25.7149 1.49999 24.1975 1.49999V3.49999C25.6343 3.49999 27.0017 3.58701 28.3003 3.75964L28.5639 1.77708ZM24.1975 1.49999C22.6417 1.49999 21.1446 1.60283 19.7071 1.81003L19.9924 3.78958C21.3284 3.59702 22.7298 3.49999 24.1975 3.49999V1.49999ZM11.1323 4.68775C9.81476 5.44314 8.5815 6.33179 7.4331 7.35259L8.76183 8.84741C9.80886 7.91671 10.9304 7.10889 12.1271 6.42282L11.1323 4.68775ZM7.4121 7.3718C6.34685 8.37438 5.41432 9.46048 4.61685 10.6302L6.26934 11.7568C6.98197 10.7115 7.81902 9.73531 8.78283 8.8282L7.4121 7.3718ZM1.48708 18.5672C1.25995 19.9181 1.14746 21.3295 1.14746 22.8H3.14746C3.14746 21.4314 3.25215 20.1315 3.4594 18.8988L1.48708 18.5672ZM1.14746 22.8V30.275H3.14746V22.8H1.14746ZM1.14746 45.225V60.175H3.14746V45.225H1.14746ZM1.14746 75.125V90.075H3.14746V75.125H1.14746ZM1.14746 105.025V119.975H3.14746V105.025H1.14746ZM1.14746 134.925V149.875H3.14746V134.925H1.14746ZM1.14746 164.825V179.775H3.14746V164.825H1.14746ZM1.14746 194.725V209.675H3.14746V194.725H1.14746ZM1.14746 224.625V232.1H3.14746V224.625H1.14746ZM1.14746 232.1C1.14746 233.582 1.24766 235.002 1.44989 236.359L3.42803 236.064C3.24159 234.813 3.14746 233.492 3.14746 232.1H1.14746ZM4.3353 244.459C5.10095 245.687 6.00317 246.82 7.04035 247.857L8.45457 246.443C7.52323 245.512 6.71642 244.498 6.03254 243.401L4.3353 244.459ZM7.0621 247.878C8.16452 248.916 9.36258 249.817 10.6555 250.581L11.6731 248.86C10.5086 248.171 9.42874 247.359 8.43283 246.422L7.0621 247.878ZM19.0839 253.448C20.4919 253.65 21.9634 253.75 23.4975 253.75V251.75C22.0501 251.75 20.6738 251.656 19.3675 251.469L19.0839 253.448ZM23.4975 253.75C25.0316 253.75 26.5031 253.65 27.911 253.448L27.6274 251.469C26.3211 251.656 24.9448 251.75 23.4975 251.75V253.75ZM36.3395 250.581C37.6323 249.817 38.8304 248.916 39.9328 247.878L38.5621 246.422C37.5662 247.359 36.4863 248.171 35.3218 248.86L36.3395 250.581ZM39.9328 247.878C41.0173 246.858 41.9637 245.743 42.77 244.534L41.1063 243.424C40.3867 244.503 39.5393 245.502 38.5621 246.422L39.9328 247.878ZM45.8688 236.41C46.0886 235.037 46.1975 233.6 46.1975 232.1H44.1975C44.1975 233.504 44.0956 234.835 43.894 236.094L45.8688 236.41ZM46.1975 232.1V229.912H44.1975V232.1H46.1975ZM46.1975 225.537V223.35H44.1975V225.537H46.1975ZM44.3163 223.823C45.6128 226.239 47.0495 228.525 48.6264 230.681L50.2407 229.501C48.72 227.422 47.3325 225.214 46.0786 222.877L44.3163 223.823ZM59.9762 242.198C62.1017 243.804 64.3626 245.278 66.7582 246.622L67.7367 244.878C65.4175 243.577 63.2327 242.151 61.1818 240.602L59.9762 242.198ZM66.7672 246.627C69.3364 248.034 71.9924 249.259 74.7351 250.303L75.4464 248.434C72.7893 247.423 70.2165 246.236 67.7278 244.873L66.7672 246.627ZM91.7602 254.336C94.6011 254.646 97.5136 254.8 100.497 254.8V252.8C97.5827 252.8 94.7425 252.649 91.9767 252.348L91.7602 254.336ZM100.497 254.8C104.07 254.8 107.551 254.582 110.939 254.145L110.683 252.162C107.384 252.587 103.989 252.8 100.497 252.8V254.8ZM131.059 248.488C134.229 247.05 137.291 245.366 140.244 243.437L139.151 241.763C136.281 243.637 133.309 245.271 130.232 246.667L131.059 248.488ZM140.237 243.442C143.251 241.513 146.091 239.383 148.753 237.052L147.436 235.547C144.849 237.811 142.09 239.881 139.158 241.758L140.237 243.442ZM162.487 220.863C164.334 217.924 166.023 214.81 167.554 211.522L165.741 210.678C164.244 213.894 162.595 216.934 160.794 219.799L162.487 220.863ZM167.551 211.529C168.426 209.685 169.243 207.806 170.002 205.892L168.143 205.155C167.4 207.028 166.6 208.867 165.744 210.671L167.551 211.529ZM173.801 194.215C174.808 190.328 175.605 186.316 176.195 182.181L174.215 181.899C173.635 185.963 172.852 189.901 171.865 193.713L173.801 194.215ZM177.315 169.975C177.403 167.96 177.447 165.918 177.447 163.85H175.447C175.447 165.889 175.404 167.902 175.317 169.888L177.315 169.975ZM177.447 163.85C177.447 161.808 177.404 159.794 177.318 157.808L175.32 157.895C175.405 159.851 175.447 161.836 175.447 163.85H177.447ZM176.218 145.768C175.634 141.673 174.842 137.716 173.842 133.898L171.907 134.405C172.887 138.146 173.664 142.027 174.238 146.05L176.218 145.768ZM170.027 122.395C169.259 120.51 168.432 118.665 167.545 116.859L165.75 117.741C166.616 119.504 167.424 121.307 168.174 123.149L170.027 122.395ZM167.551 116.872C166.026 113.651 164.35 110.604 162.524 107.731L160.836 108.803C162.616 111.604 164.252 114.579 165.744 117.728L167.551 116.872ZM148.974 91.8916C146.346 89.6109 143.549 87.532 140.582 85.6549L139.513 87.3451C142.396 89.1689 145.112 91.1878 147.663 93.4019L148.974 91.8916ZM140.582 85.6549C137.597 83.7665 134.494 82.1207 131.273 80.7179L130.475 82.5515C133.601 83.9133 136.614 85.511 139.513 87.3451L140.582 85.6549ZM110.989 75.2726C107.589 74.8573 104.092 74.65 100.497 74.65V76.65C104.015 76.65 107.431 76.8528 110.746 77.2578L110.989 75.2726ZM88.9475 218.85C85.7732 218.85 82.772 218.6 79.9424 218.103L79.5963 220.073C82.5508 220.592 85.6684 220.85 88.9475 220.85V218.85ZM63.5745 211.14C61.2428 209.363 59.1099 207.275 57.1765 204.873L55.6185 206.127C57.6483 208.649 59.896 210.851 62.3621 212.731L63.5745 211.14ZM57.1858 204.885C55.0925 202.203 53.2952 199.185 51.7963 195.828L49.9701 196.644C51.5301 200.138 53.409 203.296 55.6092 206.115L57.1858 204.885ZM46.7024 175.244C46.3661 171.868 46.1975 168.304 46.1975 164.55H44.1975C44.1975 168.363 44.3688 171.995 44.7123 175.443L46.7024 175.244ZM46.1975 164.55C46.1975 160.819 46.364 157.281 46.6962 153.934L44.706 153.737C44.3667 157.155 44.1975 160.76 44.1975 164.55H46.1975ZM51.7671 133.514C53.2704 130.182 55.075 127.204 57.1783 124.575L55.6166 123.325C53.4007 126.095 51.5108 129.219 49.9441 132.691L51.7671 133.514ZM57.1765 124.577C59.1099 122.175 61.2428 120.087 63.5745 118.31L62.3621 116.719C59.896 118.599 57.6483 120.801 55.6185 123.323L57.1765 124.577ZM79.9424 111.347C82.772 110.85 85.7732 110.6 88.9475 110.6V108.6C85.6684 108.6 82.5508 108.858 79.5963 109.377L79.9424 111.347ZM88.9475 110.6C92.0877 110.6 95.0524 110.839 97.8431 111.313L98.1783 109.341C95.2662 108.846 92.1887 108.6 88.9475 108.6V110.6ZM114.05 118.058C116.367 119.803 118.473 121.857 120.367 124.225L121.928 122.975C119.934 120.483 117.709 118.31 115.253 116.46L114.05 118.058ZM120.376 124.236C122.524 126.839 124.368 129.774 125.908 133.044L127.718 132.192C126.111 128.781 124.179 125.703 121.919 122.964L120.376 124.236ZM131.175 153.292C131.523 156.622 131.697 160.141 131.697 163.85H133.697C133.697 160.078 133.52 156.489 133.164 153.084L131.175 153.292ZM131.697 163.85C131.697 167.638 131.52 171.238 131.167 174.652L133.157 174.857C133.517 171.369 133.697 167.7 133.697 163.85H131.697ZM125.874 195.41C124.337 198.771 122.499 201.811 120.361 204.532L121.934 205.768C124.176 202.914 126.095 199.738 127.693 196.241L125.874 195.41ZM120.361 204.532C118.453 206.96 116.359 209.075 114.08 210.879L115.322 212.447C117.731 210.54 119.935 208.312 121.934 205.768L120.361 204.532ZM97.904 218.067C95.0883 218.588 92.1034 218.85 88.9475 218.85V220.85C92.214 220.85 95.3214 220.579 98.268 220.033L97.904 218.067ZM140.047 86.5L138.978 88.1901L140.047 86.5ZM166.647 117.3L164.84 118.156L164.846 118.169L164.852 118.182L166.647 117.3ZM166.647 211.1L164.841 210.243L164.837 210.249L164.834 210.256L166.647 211.1ZM139.697 242.6L138.619 240.915L138.612 240.92L138.604 240.925L139.697 242.6ZM67.2475 245.75L66.269 247.494L66.2779 247.499L66.2868 247.504L67.2475 245.75ZM45.1975 223.35L46.9598 222.404L43.1975 223.35H45.1975ZM39.2475 247.15L37.8767 245.694L37.8767 245.694L39.2475 247.15ZM7.74746 247.15L6.33325 248.564L6.35467 248.586L6.37673 248.606L7.74746 247.15ZM8.09746 8.1L6.76873 6.60518L6.74746 6.62409L6.72673 6.6436L8.09746 8.1ZM39.9475 7.74998L41.2707 6.25031L41.2707 6.25031L39.9475 7.74998ZM45.8975 104.7H43.8975L47.6499 105.664L45.8975 104.7ZM67.9475 83.35L68.8592 85.1301L68.8762 85.1214L68.8931 85.1123L67.9475 83.35ZM121.147 205.15L122.72 206.386L122.72 206.386L121.147 205.15ZM121.147 123.6L119.586 124.849L119.595 124.861L119.605 124.873L121.147 123.6ZM56.3975 123.95L54.8394 122.696L54.8357 122.701L56.3975 123.95ZM56.3975 205.5L54.8208 206.731L54.8301 206.742L54.8394 206.754L56.3975 205.5ZM100.497 73.65C97.5464 73.65 94.6645 73.7984 91.8524 74.0961L92.2736 78.0739C94.9394 77.7916 97.6805 77.65 100.497 77.65V73.65ZM74.9452 78.0021C72.2093 79.0191 69.5613 80.2143 67.0018 81.5877L68.8931 85.1123C71.2911 83.8256 73.7728 82.7053 76.3389 81.7515L74.9452 78.0021ZM67.0357 81.5699C64.5983 82.8183 62.2953 84.2083 60.1281 85.7405L62.4373 89.0066C64.4444 87.5876 66.5845 86.2952 68.8592 85.1301L67.0357 81.5699ZM48.5318 96.9569C46.9255 99.0787 45.4635 101.339 44.145 103.736L47.6499 105.664C48.878 103.431 50.2352 101.334 51.721 99.3712L48.5318 96.9569ZM47.8975 104.7V97.8167H43.8975V104.7H47.8975ZM47.8975 84.05V70.2833H43.8975V84.05H47.8975ZM47.8975 56.5167V42.75H43.8975V56.5167H47.8975ZM47.8975 28.9833V22.1H43.8975V28.9833H47.8975ZM47.8975 22.1C47.8975 20.5998 47.7843 19.1576 47.5533 17.776L43.6081 18.4355C43.7994 19.5801 43.8975 20.8007 43.8975 22.1H47.8975ZM44.2603 9.56857C43.4068 8.36031 42.4085 7.25426 41.2707 6.25031L38.6242 9.24966C39.5378 10.0557 40.3256 10.9313 40.9931 11.8763L44.2603 9.56857ZM41.2707 6.25031C40.0971 5.21478 38.8214 4.31789 37.4459 3.56082L35.5171 7.06507C36.6367 7.68129 37.6716 8.40909 38.6242 9.24966L41.2707 6.25031ZM28.6956 0.785799C27.2551 0.59431 25.7551 0.499987 24.1975 0.499987V4.49999C25.5941 4.49999 26.9172 4.58458 28.1686 4.75092L28.6956 0.785799ZM24.1975 0.499987C22.5977 0.499987 21.0527 0.605743 19.5644 0.82026L20.135 4.77935C21.4203 4.59411 22.7738 4.49999 24.1975 4.49999V0.499987ZM10.6349 3.82022C9.25693 4.61026 7.96782 5.53932 6.76873 6.60518L9.42619 9.59482C10.4225 8.70917 11.4882 7.94177 12.6244 7.29035L10.6349 3.82022ZM6.72673 6.6436C5.61076 7.69392 4.6305 8.83495 3.79061 10.0669L7.09559 12.3201C7.7658 11.3371 8.5551 10.4158 9.46819 9.5564L6.72673 6.6436ZM0.500917 18.4014C0.263855 19.8114 0.147463 21.2785 0.147463 22.8H4.14746C4.14746 21.4824 4.24825 20.2381 4.44556 19.0646L0.500917 18.4014ZM0.147463 22.8V30.275H4.14746V22.8H0.147463ZM0.147463 45.225V60.175H4.14746V45.225H0.147463ZM0.147463 75.125V90.075H4.14746V75.125H0.147463ZM0.147463 105.025V119.975H4.14746V105.025H0.147463ZM0.147463 134.925V149.875H4.14746V134.925H0.147463ZM0.147463 164.825V179.775H4.14746V164.825H0.147463ZM0.147463 194.725V209.675H4.14746V194.725H0.147463ZM0.147463 224.625V232.1H4.14746V224.625H0.147463ZM0.147463 232.1C0.147463 233.627 0.250697 235.097 0.460814 236.507L4.41711 235.917C4.23856 234.719 4.14746 233.447 4.14746 232.1H0.147463ZM3.48668 244.988C4.29322 246.281 5.24313 247.474 6.33325 248.564L9.16167 245.736C8.28327 244.857 7.52416 243.903 6.88116 242.872L3.48668 244.988ZM6.37673 248.606C7.53241 249.694 8.78958 250.64 10.1466 251.442L12.182 247.999C11.0816 247.348 10.0608 246.581 9.11819 245.694L6.37673 248.606ZM18.9422 254.438C20.4009 254.647 21.92 254.75 23.4975 254.75V250.75C22.0935 250.75 20.7647 250.658 19.5093 250.479L18.9422 254.438ZM23.4975 254.75C25.0749 254.75 26.594 254.647 28.0528 254.438L27.4857 250.479C26.2302 250.658 24.9015 250.75 23.4975 250.75V254.75ZM36.8483 251.442C38.2053 250.64 39.4625 249.694 40.6182 248.606L37.8767 245.694C36.9341 246.581 35.9134 247.348 34.8129 247.999L36.8483 251.442ZM40.6182 248.606C41.7562 247.535 42.7522 246.363 43.6019 245.089L40.2744 242.869C39.5982 243.883 38.8004 244.824 37.8767 245.694L40.6182 248.606ZM46.8562 236.568C47.0851 235.139 47.1975 233.649 47.1975 232.1H43.1975C43.1975 233.455 43.0991 234.733 42.9065 235.935L46.8562 236.568ZM47.1975 232.1V229.912H43.1975V232.1H47.1975ZM47.1975 225.537V223.35H43.1975V225.537H47.1975ZM43.4351 224.296C44.753 226.752 46.2142 229.077 47.8193 231.272L51.0478 228.91C49.5552 226.87 48.1924 224.701 46.9598 222.404L43.4351 224.296ZM59.3735 242.996C61.5362 244.63 63.8352 246.129 66.269 247.494L68.226 244.006C65.9449 242.726 63.7982 241.325 61.7845 239.804L59.3735 242.996ZM66.2868 247.504C68.8963 248.933 71.594 250.178 74.3794 251.238L75.8021 247.499C73.1877 246.504 70.6566 245.337 68.2081 243.996L66.2868 247.504ZM91.652 255.33C94.5304 255.644 97.4791 255.8 100.497 255.8V251.8C97.6172 251.8 94.8132 251.651 92.0849 251.354L91.652 255.33ZM100.497 255.8C104.111 255.8 107.635 255.579 111.067 255.137L110.555 251.17C107.301 251.589 103.948 251.8 100.497 251.8V255.8ZM131.472 249.399C134.689 247.939 137.796 246.231 140.791 244.275L138.604 240.925C135.776 242.772 132.848 244.382 129.819 245.756L131.472 249.399ZM140.776 244.285C143.832 242.328 146.711 240.169 149.412 237.805L146.778 234.795C144.229 237.025 141.51 239.066 138.619 240.915L140.776 244.285ZM163.334 221.395C165.204 218.42 166.913 215.269 168.461 211.944L164.834 210.256C163.354 213.436 161.725 216.439 159.947 219.267L163.334 221.395ZM168.454 211.957C169.339 210.094 170.165 208.195 170.931 206.261L167.213 204.786C166.478 206.64 165.687 208.458 164.841 210.243L168.454 211.957ZM174.769 194.465C175.785 190.541 176.59 186.493 177.185 182.322L173.225 181.758C172.65 185.787 171.874 189.688 170.897 193.463L174.769 194.465ZM178.314 170.019C178.403 167.988 178.447 165.932 178.447 163.85H174.447C174.447 165.875 174.404 167.873 174.318 169.844L178.314 170.019ZM178.447 163.85C178.447 161.793 178.404 159.765 178.317 157.765L174.321 157.938C174.405 159.879 174.447 161.85 174.447 163.85H178.447ZM177.208 145.627C176.619 141.496 175.82 137.502 174.809 133.645L170.94 134.659C171.91 138.361 172.679 142.205 173.248 146.191L177.208 145.627ZM170.953 122.018C170.177 120.112 169.34 118.245 168.443 116.418L164.852 118.182C165.708 119.924 166.507 121.705 167.248 123.527L170.953 122.018ZM168.455 116.444C166.913 113.188 165.217 110.104 163.368 107.194L159.992 109.34C161.749 112.104 163.365 115.042 164.84 118.156L168.455 116.444ZM149.629 91.1365C146.964 88.8225 144.126 86.7135 141.117 84.8098L138.978 88.1901C141.819 89.9873 144.495 91.9762 147.007 94.1571L149.629 91.1365ZM141.117 84.8098C138.089 82.8942 134.941 81.2244 131.673 79.8011L130.075 83.4683C133.155 84.8096 136.122 86.3833 138.978 88.1901L141.117 84.8098ZM111.11 74.28C107.668 73.8595 104.13 73.65 100.497 73.65V77.65C103.977 77.65 107.352 77.8506 110.625 78.2505L111.11 74.28ZM88.9475 217.85C85.8255 217.85 82.8827 217.604 80.1155 217.118L79.4232 221.058C82.4401 221.588 85.616 221.85 88.9475 221.85V217.85ZM64.1807 210.345C61.9161 208.619 59.8408 206.588 57.9555 204.246L54.8394 206.754C56.9175 209.336 59.2227 211.596 61.756 213.526L64.1807 210.345ZM57.9741 204.269C55.9343 201.656 54.1778 198.709 52.7094 195.421L49.057 197.052C50.6476 200.614 52.5673 203.843 54.8208 206.731L57.9741 204.269ZM47.6975 175.145C47.3648 171.805 47.1975 168.274 47.1975 164.55H43.1975C43.1975 168.393 43.3701 172.058 43.7172 175.542L47.6975 175.145ZM47.1975 164.55C47.1975 160.849 47.3627 157.343 47.6913 154.033L43.7109 153.638C43.368 157.093 43.1975 160.73 43.1975 164.55H47.1975ZM52.6786 133.925C54.1502 130.664 55.9122 127.758 57.9592 125.199L54.8357 122.701C52.5635 125.541 50.631 128.737 49.0325 132.28L52.6786 133.925ZM57.9555 125.204C59.8408 122.862 61.9161 120.831 64.1807 119.105L61.756 115.924C59.2227 117.854 56.9175 120.114 54.8394 122.696L57.9555 125.204ZM80.1155 112.332C82.8827 111.846 85.8255 111.6 88.9475 111.6V107.6C85.616 107.6 82.4401 107.862 79.4232 108.392L80.1155 112.332ZM88.9475 111.6C92.0372 111.6 94.9455 111.835 97.6755 112.299L98.3459 108.356C95.3731 107.85 92.2392 107.6 88.9475 107.6V111.6ZM113.448 118.857C115.696 120.549 117.742 122.545 119.586 124.849L122.709 122.351C120.665 119.795 118.38 117.563 115.854 115.661L113.448 118.857ZM119.605 124.873C121.696 127.407 123.497 130.27 125.004 133.47L128.622 131.766C126.983 128.284 125.007 125.135 122.69 122.327L119.605 124.873ZM130.181 153.396C130.524 156.688 130.697 160.172 130.697 163.85H134.697C134.697 160.047 134.519 156.423 134.159 152.98L130.181 153.396ZM130.697 163.85C130.697 167.607 130.522 171.173 130.172 174.549L134.151 174.96C134.516 171.435 134.697 167.731 134.697 163.85H130.697ZM124.964 194.994C123.459 198.288 121.661 201.259 119.575 203.914L122.72 206.386C125.014 203.466 126.973 200.221 128.602 196.657L124.964 194.994ZM119.575 203.914C117.713 206.284 115.674 208.342 113.46 210.095L115.942 213.231C118.416 211.273 120.675 208.988 122.72 206.386L119.575 203.914ZM97.722 217.084C94.9717 217.593 92.0481 217.85 88.9475 217.85V221.85C92.2693 221.85 95.438 221.574 98.4499 221.017L97.722 217.084Z" fill="black"/>
</svg>
