<svg width="202" height="251" viewBox="0 0 202 251" fill="none" xmlns="http://www.w3.org/2000/svg">
<path d="M154.542 121.6C168.775 125.567 179.742 132.8 187.442 143.3C195.375 153.8 199.342 166.633 199.342 181.8C199.342 202.8 191.759 219.25 176.592 231.15C161.659 243.05 141.009 249 114.642 249H24.342C17.5753 249 12.2087 247.133 8.24199 243.4C4.50866 239.667 2.64199 234.417 2.64199 227.65V23.6C2.64199 16.8333 4.50866 11.5833 8.24199 7.85C12.2087 4.11666 17.5753 2.24998 24.342 2.24998H111.142C136.809 2.24998 156.875 7.96665 171.342 19.4C186.042 30.6 193.392 46.35 193.392 66.65C193.392 79.7167 189.892 91.0333 182.892 100.6C176.125 110.167 166.675 117.167 154.542 121.6ZM46.742 106.2H103.792C134.825 106.2 150.342 94.65 150.342 71.55C150.342 59.8833 146.492 51.25 138.792 45.65C131.092 40.05 119.425 37.25 103.792 37.25H46.742V106.2ZM109.742 214C126.075 214 137.975 211.083 145.442 205.25C152.909 199.417 156.642 190.317 156.642 177.95C156.642 165.583 152.792 156.367 145.092 150.3C137.625 144.233 125.842 141.2 109.742 141.2H46.742V214H109.742Z" fill="#F5F5F5"/>
<path d="M154.542 121.6L154.199 120.661L151.277 121.728L154.274 122.563L154.542 121.6ZM187.442 143.3L186.636 143.891L186.64 143.897L186.644 143.903L187.442 143.3ZM176.592 231.15L175.975 230.363L175.969 230.368L176.592 231.15ZM8.24199 243.4L7.53489 244.107L7.5456 244.118L7.55663 244.128L8.24199 243.4ZM8.24199 7.85L7.55663 7.1218L7.5456 7.13218L7.53489 7.14289L8.24199 7.85ZM171.342 19.4L170.722 20.1846L170.729 20.1901L170.736 20.1954L171.342 19.4ZM182.892 100.6L182.085 100.009L182.08 100.016L182.076 100.023L182.892 100.6ZM46.742 106.2H45.742V107.2H46.742V106.2ZM138.792 45.65L139.38 44.8413L139.38 44.8413L138.792 45.65ZM46.742 37.25V36.25H45.742V37.25H46.742ZM145.442 205.25L146.058 206.038L146.058 206.038L145.442 205.25ZM145.092 150.3L144.461 151.076L144.467 151.081L144.473 151.085L145.092 150.3ZM46.742 141.2V140.2H45.742V141.2H46.742ZM46.742 214H45.742V215H46.742V214ZM154.885 122.539C157.809 121.471 160.582 120.254 163.205 118.889L162.281 117.115C159.739 118.438 157.046 119.621 154.199 120.661L154.885 122.539ZM177.858 108.166C179.989 106.008 181.939 103.679 183.708 101.177L182.076 100.023C180.369 102.436 178.489 104.682 176.435 106.761L177.858 108.166ZM183.699 101.191C185.528 98.6905 187.124 96.0719 188.485 93.3351L186.694 92.4446C185.384 95.0783 183.848 97.5998 182.085 100.009L183.699 101.191ZM193.791 75.7985C194.192 72.8454 194.392 69.7958 194.392 66.65H192.392C192.392 69.7109 192.197 72.6704 191.809 75.5292L193.791 75.7985ZM194.392 66.65C194.392 64.3071 194.295 62.0219 194.101 59.7947L192.109 59.9682C192.298 62.1349 192.392 64.3621 192.392 66.65H194.392ZM191.522 46.305C190.137 41.8178 188.249 37.6356 185.858 33.7613L184.156 34.8116C186.456 38.5373 188.274 42.5641 189.611 46.895L191.522 46.305ZM177.184 23.0738C175.553 21.5109 173.807 20.0213 171.948 18.6046L170.736 20.1954C172.538 21.5681 174.225 23.009 175.8 24.5178L177.184 23.0738ZM171.962 18.6154C169.864 16.9571 167.65 15.4179 165.322 13.9977L164.281 15.7051C166.541 17.0841 168.688 18.5773 170.722 20.1846L171.962 18.6154ZM150.718 7.15788C145.87 5.46468 140.673 4.13711 135.129 3.17301L134.786 5.14344C140.233 6.09063 145.323 7.39221 150.059 9.04605L150.718 7.15788ZM119.165 1.44391C116.553 1.31459 113.878 1.24998 111.142 1.24998V3.24998C113.847 3.24998 116.488 3.31385 119.066 3.44146L119.165 1.44391ZM111.142 1.24998H103.909V3.24998H111.142V1.24998ZM89.442 1.24998H74.9753V3.24998H89.442V1.24998ZM60.5087 1.24998H46.042V3.24998H60.5087V1.24998ZM31.5753 1.24998H24.342V3.24998H31.5753V1.24998ZM24.342 1.24998C22.7776 1.24998 21.2798 1.34712 19.8497 1.54298L20.121 3.52448C21.4534 3.34201 22.8601 3.24998 24.342 3.24998V1.24998ZM11.2376 4.38186C9.90471 5.15343 8.67731 6.06703 7.55663 7.1218L8.92736 8.5782C9.936 7.62889 11.0396 6.80737 12.2395 6.11276L11.2376 4.38186ZM7.53489 7.14289C6.46183 8.21594 5.53442 9.40774 4.75357 10.7166L6.47113 11.7413C7.16778 10.5736 7.99346 9.51274 8.9491 8.5571L7.53489 7.14289ZM1.92691 19.1843C1.7364 20.5854 1.64199 22.0577 1.64199 23.6H3.64199C3.64199 22.1389 3.73145 20.7572 3.90868 19.4538L1.92691 19.1843ZM1.64199 23.6V30.8875H3.64199V23.6H1.64199ZM1.64199 45.4625V60.0375H3.64199V45.4625H1.64199ZM1.64199 74.6125V89.1875H3.64199V74.6125H1.64199ZM1.64199 103.762V118.337H3.64199V103.762H1.64199ZM1.64199 132.912V147.488H3.64199V132.912H1.64199ZM1.64199 162.062V176.638H3.64199V162.062H1.64199ZM1.64199 191.213V205.787H3.64199V191.213H1.64199ZM1.64199 220.362V227.65H3.64199V220.362H1.64199ZM1.64199 227.65C1.64199 229.192 1.7364 230.665 1.92691 232.066L3.90868 231.796C3.73145 230.493 3.64199 229.111 3.64199 227.65H1.64199ZM4.75357 240.533C5.53442 241.842 6.46183 243.034 7.53489 244.107L8.9491 242.693C7.99347 241.737 7.16778 240.676 6.47113 239.509L4.75357 240.533ZM7.55663 244.128C8.67732 245.183 9.90471 246.097 11.2376 246.868L12.2395 245.137C11.0396 244.443 9.936 243.621 8.92736 242.672L7.55663 244.128ZM19.8497 249.707C21.2798 249.903 22.7776 250 24.342 250V248C22.8601 248 21.4534 247.908 20.121 247.726L19.8497 249.707ZM24.342 250H31.867V248H24.342V250ZM46.917 250H61.967V248H46.917V250ZM77.017 250H92.067V248H77.017V250ZM107.117 250H114.642V248H107.117V250ZM114.642 250C117.461 250 120.216 249.932 122.907 249.797L122.806 247.8C120.15 247.933 117.429 248 114.642 248V250ZM139.348 247.989C145.051 246.982 150.4 245.597 155.391 243.83L154.724 241.945C149.846 243.671 144.605 245.03 139 246.019L139.348 247.989ZM170.399 236.717C172.787 235.245 175.06 233.65 177.215 231.932L175.969 230.368C173.877 232.035 171.671 233.584 169.349 235.015L170.399 236.717ZM177.209 231.937C179.121 230.437 180.916 228.864 182.593 227.219L181.192 225.791C179.57 227.383 177.831 228.907 175.975 230.363L177.209 231.937ZM191.515 216.028C193.981 211.98 195.93 207.624 197.362 202.964L195.45 202.377C194.066 206.883 192.184 211.085 189.807 214.987L191.515 216.028ZM200.039 188.932C200.241 186.613 200.342 184.236 200.342 181.8H198.342C198.342 184.181 198.243 186.5 198.047 188.758L200.039 188.932ZM200.342 181.8C200.342 178.222 200.124 174.767 199.686 171.438L197.703 171.698C198.129 174.936 198.342 178.303 198.342 181.8H200.342ZM193.74 151.556C192.182 148.441 190.348 145.488 188.24 142.697L186.644 143.903C188.679 146.596 190.448 149.445 191.951 152.45L193.74 151.556ZM188.248 142.709C186.216 139.936 183.958 137.387 181.476 135.061L180.109 136.52C182.499 138.761 184.675 141.218 186.636 143.891L188.248 142.709ZM164.41 124.01C161.388 122.702 158.188 121.578 154.81 120.637L154.274 122.563C157.569 123.482 160.683 124.576 163.615 125.846L164.41 124.01ZM47.742 106.2V97.5812H45.742V106.2H47.742ZM47.742 80.3437V63.1062H45.742V80.3437H47.742ZM47.742 45.8687V37.25H45.742V45.8687H47.742ZM46.742 38.25H53.8732V36.25H46.742V38.25ZM68.1357 38.25H82.3982V36.25H68.1357V38.25ZM96.6607 38.25H103.792V36.25H96.6607V38.25ZM103.792 38.25C106.98 38.25 109.997 38.3673 112.844 38.6013L113.008 36.608C110.101 36.3691 107.028 36.25 103.792 36.25V38.25ZM130.394 42.2845C133.363 43.436 135.963 44.8293 138.204 46.4587L139.38 44.8413C136.982 43.0975 134.225 41.6255 131.117 40.4198L130.394 42.2845ZM138.204 46.4587C140.173 47.8906 141.875 49.5239 143.316 51.3586L144.889 50.1234C143.33 48.1381 141.492 46.3774 139.38 44.8413L138.204 46.4587ZM148.782 64.3641C149.154 66.6033 149.342 68.998 149.342 71.55H151.342C151.342 68.9004 151.147 66.3951 150.754 64.0358L148.782 64.3641ZM149.342 71.55C149.342 74.4215 149.097 77.0992 148.613 79.5858L150.576 79.9686C151.088 77.3415 151.342 74.5344 151.342 71.55H149.342ZM141.576 93.6781C138.189 97.2222 133.663 99.9686 127.955 101.891L128.593 103.786C134.545 101.782 139.369 98.8819 143.022 95.0599L141.576 93.6781ZM111.981 104.902C109.388 105.101 106.659 105.2 103.792 105.2V107.2C106.705 107.2 109.485 107.099 112.134 106.897L111.981 104.902ZM103.792 105.2H96.6607V107.2H103.792V105.2ZM82.3982 105.2H68.1357V107.2H82.3982V105.2ZM53.8732 105.2H46.742V107.2H53.8732V105.2ZM109.742 213H101.867V215H109.742V213ZM86.117 213H70.367V215H86.117V213ZM54.617 213H46.742V215H54.617V213ZM47.742 214V204.9H45.742V214H47.742ZM47.742 186.7V168.5H45.742V186.7H47.742ZM47.742 150.3V141.2H45.742V150.3H47.742ZM46.742 142.2H54.617V140.2H46.742V142.2ZM70.367 142.2H86.117V140.2H70.367V142.2ZM101.867 142.2H109.742V140.2H101.867V142.2ZM109.742 142.2C112.991 142.2 116.059 142.325 118.945 142.573L119.116 140.58C116.167 140.326 113.042 140.2 109.742 140.2V142.2ZM136.715 146.537C139.7 147.788 142.279 149.303 144.461 151.076L145.723 149.524C143.373 147.615 140.625 146.007 137.488 144.693L136.715 146.537ZM144.473 151.085C146.472 152.661 148.2 154.453 149.658 156.463L151.277 155.288C149.708 153.126 147.852 151.201 145.711 149.515L144.473 151.085ZM155.089 170.362C155.457 172.732 155.642 175.261 155.642 177.95H157.642C157.642 175.17 157.451 172.538 157.065 170.055L155.089 170.362ZM155.642 177.95C155.642 180.604 155.467 183.096 155.12 185.429L157.098 185.724C157.462 183.283 157.642 180.691 157.642 177.95H155.642ZM149.905 199.166C148.48 201.164 146.789 202.929 144.826 204.462L146.058 206.038C148.169 204.388 149.996 202.484 151.534 200.327L149.905 199.166ZM144.826 204.462C142.62 206.186 139.996 207.657 136.943 208.868L137.68 210.727C140.883 209.457 143.68 207.896 146.058 206.038L144.826 204.462ZM119.004 212.647C116.1 212.882 113.013 213 109.742 213V215C113.06 215 116.202 214.88 119.165 214.641L119.004 212.647ZM154.542 121.6L153.856 119.721L148.012 121.856L154.005 123.527L154.542 121.6ZM187.442 143.3L185.829 144.483L185.838 144.494L185.846 144.506L187.442 143.3ZM176.592 231.15L175.357 229.577L175.351 229.581L175.346 229.586L176.592 231.15ZM8.24199 243.4L6.82778 244.814L6.8492 244.836L6.87127 244.856L8.24199 243.4ZM8.24199 7.85L6.87126 6.3936L6.8492 6.41436L6.82778 6.43578L8.24199 7.85ZM171.342 19.4L170.102 20.9691L170.116 20.9801L170.13 20.9909L171.342 19.4ZM182.892 100.6L181.278 99.419L181.268 99.4319L181.259 99.4451L182.892 100.6ZM46.742 106.2H44.742V108.2H46.742V106.2ZM138.792 45.65L139.968 44.0325L139.968 44.0325L138.792 45.65ZM46.742 37.25V35.25H44.742V37.25H46.742ZM145.442 205.25L146.673 206.826L146.673 206.826L145.442 205.25ZM145.092 150.3L143.831 151.852L143.842 151.862L143.854 151.871L145.092 150.3ZM46.742 141.2V139.2H44.742V141.2H46.742ZM46.742 214H44.742V216H46.742V214ZM155.228 123.479C158.191 122.396 161.004 121.162 163.666 119.776L161.819 116.228C159.318 117.53 156.664 118.695 153.856 119.721L155.228 123.479ZM178.57 108.869C180.739 106.672 182.725 104.3 184.525 101.755L181.259 99.4451C179.583 101.814 177.738 104.018 175.724 106.058L178.57 108.869ZM184.506 101.781C186.368 99.2359 187.994 96.5687 189.38 93.7803L185.798 91.9993C184.514 94.5815 183.008 97.0545 181.278 99.419L184.506 101.781ZM194.782 75.9331C195.189 72.933 195.392 69.8382 195.392 66.65H191.392C191.392 69.6684 191.2 72.5829 190.818 75.3945L194.782 75.9331ZM195.392 66.65C195.392 64.2796 195.294 61.9655 195.098 59.708L191.113 60.0549C191.299 62.1914 191.392 64.3897 191.392 66.65H195.392ZM192.478 46.01C191.068 41.4447 189.146 37.1848 186.709 33.2361L183.305 35.3368C185.559 38.9881 187.343 42.9372 188.656 47.19L192.478 46.01ZM177.876 22.3518C176.217 20.7619 174.442 19.2478 172.554 17.8091L170.13 20.9909C171.903 22.3415 173.562 23.758 175.108 25.2397L177.876 22.3518ZM172.582 17.8309C170.452 16.147 168.205 14.5848 165.843 13.144L163.76 16.5588C165.987 17.9172 168.101 19.3874 170.102 20.9691L172.582 17.8309ZM151.048 6.21379C146.143 4.50092 140.893 3.16035 135.3 2.1878L134.615 6.12865C140.013 7.06739 145.05 8.35598 149.729 9.99014L151.048 6.21379ZM119.214 0.445132C116.585 0.31496 113.894 0.249985 111.142 0.249985V4.24998C113.831 4.24998 116.456 4.31348 119.016 4.44024L119.214 0.445132ZM111.142 0.249985H103.909V4.24998H111.142V0.249985ZM89.442 0.249985H74.9753V4.24998H89.442V0.249985ZM60.5087 0.249985H46.042V4.24998H60.5087V0.249985ZM31.5753 0.249985H24.342V4.24998H31.5753V0.249985ZM24.342 0.249985C22.7363 0.249985 21.193 0.349677 19.714 0.552223L20.2567 4.51523C21.5403 4.33946 22.9014 4.24998 24.342 4.24998V0.249985ZM10.7366 3.51641C9.33724 4.32646 8.04797 5.2861 6.87126 6.3936L9.61273 9.30639C10.5653 8.40981 11.6071 7.63433 12.7405 6.97821L10.7366 3.51641ZM6.82778 6.43578C5.69601 7.56755 4.71774 8.82482 3.89479 10.2042L7.32991 12.2536C7.98446 11.1565 8.75928 10.1611 9.65621 9.26421L6.82778 6.43578ZM0.936027 19.0496C0.738882 20.4995 0.641994 22.017 0.641994 23.6H4.64199C4.64199 22.1796 4.72897 20.8431 4.89956 19.5885L0.936027 19.0496ZM0.641994 23.6V30.8875H4.64199V23.6H0.641994ZM0.641994 45.4625V60.0375H4.64199V45.4625H0.641994ZM0.641994 74.6125V89.1875H4.64199V74.6125H0.641994ZM0.641994 103.762V118.337H4.64199V103.762H0.641994ZM0.641994 132.912V147.488H4.64199V132.912H0.641994ZM0.641994 162.062V176.638H4.64199V162.062H0.641994ZM0.641994 191.213V205.787H4.64199V191.213H0.641994ZM0.641994 220.362V227.65H4.64199V220.362H0.641994ZM0.641994 227.65C0.641994 229.233 0.738882 230.75 0.936027 232.2L4.89956 231.661C4.72897 230.407 4.64199 229.07 4.64199 227.65H0.641994ZM3.89479 241.046C4.71774 242.425 5.69601 243.682 6.82778 244.814L9.65621 241.986C8.75928 241.089 7.98446 240.094 7.32991 238.996L3.89479 241.046ZM6.87127 244.856C8.04797 245.964 9.33724 246.924 10.7366 247.734L12.7405 244.272C11.6071 243.616 10.5653 242.84 9.61272 241.944L6.87127 244.856ZM19.714 250.698C21.193 250.9 22.7363 251 24.342 251V247C22.9014 247 21.5403 246.911 20.2567 246.735L19.714 250.698ZM24.342 251H31.867V247H24.342V251ZM46.917 251H61.967V247H46.917V251ZM77.017 251H92.067V247H77.017V251ZM107.117 251H114.642V247H107.117V251ZM114.642 251C117.477 251 120.248 250.932 122.957 250.796L122.756 246.801C120.117 246.934 117.413 247 114.642 247V251ZM139.522 248.974C145.274 247.958 150.676 246.559 155.725 244.773L154.39 241.002C149.569 242.708 144.382 244.054 138.826 245.035L139.522 248.974ZM170.924 237.568C173.346 236.075 175.651 234.457 177.838 232.714L175.346 229.586C173.286 231.227 171.113 232.753 168.825 234.163L170.924 237.568ZM177.827 232.723C179.766 231.202 181.589 229.605 183.293 227.933L180.492 225.078C178.896 226.643 177.185 228.142 175.357 229.577L177.827 232.723ZM192.369 216.548C194.88 212.427 196.862 207.995 198.318 203.258L194.494 202.083C193.133 206.512 191.286 210.638 188.953 214.467L192.369 216.548ZM201.035 189.019C201.24 186.67 201.342 184.263 201.342 181.8H197.342C197.342 184.153 197.245 186.443 197.05 188.671L201.035 189.019ZM201.342 181.8C201.342 178.181 201.121 174.683 200.678 171.307L196.712 171.829C197.131 175.02 197.342 178.344 197.342 181.8H201.342ZM194.634 151.108C193.049 147.938 191.183 144.933 189.038 142.094L185.846 144.506C187.845 147.15 189.581 149.947 191.057 152.898L194.634 151.108ZM189.055 142.117C186.986 139.296 184.687 136.7 182.16 134.331L179.425 137.249C181.77 139.448 183.905 141.858 185.829 144.483L189.055 142.117ZM164.807 123.092C161.741 121.765 158.497 120.626 155.079 119.673L154.005 123.527C157.26 124.434 160.33 125.513 163.218 126.763L164.807 123.092ZM48.742 106.2V97.5812H44.742V106.2H48.742ZM48.742 80.3437V63.1062H44.742V80.3437H48.742ZM48.742 45.8687V37.25H44.742V45.8687H48.742ZM46.742 39.25H53.8732V35.25H46.742V39.25ZM68.1357 39.25H82.3982V35.25H68.1357V39.25ZM96.6607 39.25H103.792V35.25H96.6607V39.25ZM103.792 39.25C106.955 39.25 109.945 39.3664 112.762 39.5979L113.09 35.6113C110.152 35.37 107.053 35.25 103.792 35.25V39.25ZM130.032 43.2168C132.931 44.3413 135.454 45.6952 137.616 47.2675L139.968 44.0325C137.492 42.2316 134.657 40.7202 131.479 39.4875L130.032 43.2168ZM137.616 47.2675C139.513 48.6472 141.148 50.2168 142.529 51.9762L145.675 49.5059C144.057 47.4451 142.152 45.6208 139.968 44.0325L137.616 47.2675ZM147.795 64.5282C148.158 66.7074 148.342 69.0468 148.342 71.55H152.342C152.342 68.8517 152.144 66.291 151.741 63.8716L147.795 64.5282ZM148.342 71.55C148.342 74.365 148.102 76.9781 147.631 79.3944L151.557 80.16C152.083 77.4626 152.342 74.5909 152.342 71.55H148.342ZM140.853 92.9872C137.599 96.3924 133.222 99.0619 127.636 100.943L128.912 104.734C134.986 102.689 139.96 99.7118 143.745 95.7508L140.853 92.9872ZM111.905 103.905C109.34 104.101 106.636 104.2 103.792 104.2V108.2C106.728 108.2 109.534 108.098 112.21 107.894L111.905 103.905ZM103.792 104.2H96.6607V108.2H103.792V104.2ZM82.3982 104.2H68.1357V108.2H82.3982V104.2ZM53.8732 104.2H46.742V108.2H53.8732V104.2ZM109.742 212H101.867V216H109.742V212ZM86.117 212H70.367V216H86.117V212ZM54.617 212H46.742V216H54.617V212ZM48.742 214V204.9H44.742V214H48.742ZM48.742 186.7V168.5H44.742V186.7H48.742ZM48.742 150.3V141.2H44.742V150.3H48.742ZM46.742 143.2H54.617V139.2H46.742V143.2ZM70.367 143.2H86.117V139.2H70.367V143.2ZM101.867 143.2H109.742V139.2H101.867V143.2ZM109.742 143.2C112.966 143.2 116.005 143.324 118.859 143.569L119.202 139.584C116.221 139.327 113.067 139.2 109.742 139.2V143.2ZM136.329 147.46C139.237 148.678 141.732 150.147 143.831 151.852L146.353 148.748C143.921 146.771 141.088 145.116 137.874 143.77L136.329 147.46ZM143.854 151.871C145.783 153.39 147.445 155.116 148.848 157.05L152.086 154.701C150.462 152.462 148.541 150.471 146.33 148.729L143.854 151.871ZM154.101 170.515C154.46 172.829 154.642 175.307 154.642 177.95H158.642C158.642 175.124 158.448 172.44 158.054 169.902L154.101 170.515ZM154.642 177.95C154.642 180.56 154.47 183.003 154.131 185.282L158.087 185.871C158.459 183.376 158.642 180.735 158.642 177.95H154.642ZM149.091 198.585C147.723 200.504 146.098 202.199 144.211 203.674L146.673 206.826C148.86 205.118 150.753 203.144 152.348 200.908L149.091 198.585ZM144.211 203.674C142.09 205.331 139.552 206.757 136.574 207.939L138.049 211.657C141.327 210.356 144.209 208.751 146.673 206.826L144.211 203.674ZM118.923 211.651C116.049 211.883 112.989 212 109.742 212V216C113.084 216 116.252 215.88 119.246 215.637L118.923 211.651Z" fill="black"/>
</svg>
