<svg width="156" height="183" viewBox="0 0 156 183" fill="none" xmlns="http://www.w3.org/2000/svg">
<path d="M87.7508 180.8C70.7175 180.8 55.6675 177.183 42.6008 169.95C29.7675 162.717 19.8508 152.45 12.8508 139.15C5.85078 125.85 2.35078 110.333 2.35078 92.6C2.35078 74.8667 5.96745 59.2333 13.2008 45.7C20.6674 31.9333 31.0508 21.3167 44.3508 13.85C57.6508 6.38332 72.9341 2.64998 90.2008 2.64998C99.3008 2.64998 108.401 3.93332 117.501 6.5C126.834 9.06666 135.001 12.5667 142.001 17C149.467 21.9 153.201 28.0833 153.201 35.55C153.201 40.6833 151.917 44.8833 149.351 48.15C147.017 51.1833 143.867 52.7 139.901 52.7C137.334 52.7 134.651 52.1167 131.851 50.95C129.051 49.7833 126.251 48.3833 123.451 46.75C118.317 43.7167 113.417 41.3833 108.751 39.75C104.084 37.8833 98.7175 36.95 92.6508 36.95C78.1841 36.95 66.9841 41.7333 59.0508 51.3C51.3508 60.6333 47.5008 74.1667 47.5008 91.9C47.5008 109.4 51.3508 122.933 59.0508 132.5C66.9841 141.833 78.1841 146.5 92.6508 146.5C98.4841 146.5 103.617 145.683 108.051 144.05C112.717 142.183 117.851 139.733 123.451 136.7C126.951 134.6 129.984 133.083 132.551 132.15C135.117 130.983 137.684 130.4 140.251 130.4C143.984 130.4 147.134 132.033 149.701 135.3C152.267 138.567 153.551 142.65 153.551 147.55C153.551 151.517 152.617 155.017 150.751 158.05C149.117 160.85 146.317 163.417 142.351 165.75C135.117 170.417 126.717 174.15 117.151 176.95C107.584 179.517 97.7841 180.8 87.7508 180.8Z" fill="#F5F5F5"/>
<path d="M42.6008 169.95L42.1098 170.821L42.1165 170.825L42.6008 169.95ZM12.8508 139.15L13.7357 138.684L13.7357 138.684L12.8508 139.15ZM13.2008 45.7L12.3217 45.2232L12.3189 45.2286L13.2008 45.7ZM44.3508 13.85L44.8403 14.722L44.8403 14.722L44.3508 13.85ZM117.501 6.5L117.229 7.46247L117.236 7.4642L117.501 6.5ZM142.001 17L142.549 16.1639L142.543 16.1595L142.536 16.1552L142.001 17ZM149.351 48.15L148.564 47.5321L148.558 47.5403L149.351 48.15ZM131.851 50.95L131.466 51.8731L131.466 51.8731L131.851 50.95ZM123.451 46.75L122.942 47.6109L122.947 47.6138L123.451 46.75ZM108.751 39.75L108.379 40.6785L108.4 40.6866L108.42 40.6939L108.751 39.75ZM59.0508 51.3L58.281 50.6617L58.2794 50.6636L59.0508 51.3ZM59.0508 132.5L58.2718 133.127L58.2802 133.137L58.2888 133.148L59.0508 132.5ZM108.051 144.05L108.396 144.988L108.409 144.984L108.422 144.978L108.051 144.05ZM123.451 136.7L123.927 137.579L123.946 137.569L123.965 137.557L123.451 136.7ZM132.551 132.15L132.893 133.09L132.929 133.076L132.965 133.06L132.551 132.15ZM149.701 135.3L150.487 134.682L150.487 134.682L149.701 135.3ZM150.751 158.05L149.899 157.526L149.893 157.536L149.887 157.546L150.751 158.05ZM142.351 165.75L141.844 164.888L141.826 164.899L141.809 164.91L142.351 165.75ZM117.151 176.95L117.41 177.916L117.421 177.913L117.432 177.91L117.151 176.95ZM87.7508 179.8C85.7849 179.8 83.8463 179.751 81.935 179.654L81.8335 181.652C83.7795 181.751 85.7519 181.8 87.7508 181.8V179.8ZM70.3845 178.423C66.4911 177.777 62.7247 176.905 59.085 175.806L58.5069 177.721C62.2319 178.845 66.0822 179.737 70.0573 180.396L70.3845 178.423ZM48.2526 171.696C46.4965 170.884 44.774 170.01 43.0851 169.075L42.1165 170.825C43.8476 171.783 45.613 172.679 47.4127 173.512L48.2526 171.696ZM43.0918 169.079C39.9323 167.298 36.9537 165.332 34.1552 163.181L32.9364 164.767C35.8119 166.977 38.8699 168.995 42.1098 170.821L43.0918 169.079ZM19.3456 147.813C17.3034 144.953 15.4334 141.91 13.7357 138.684L11.9659 139.616C13.7041 142.918 15.6213 146.039 17.7178 148.975L19.3456 147.813ZM13.7357 138.684C12.8154 136.936 11.9562 135.148 11.1581 133.321L9.32538 134.122C10.1427 135.993 11.0228 137.824 11.9659 139.616L13.7357 138.684ZM7.16462 122.109C6.11023 118.367 5.274 114.483 4.6565 110.457L2.67962 110.761C3.30893 114.863 4.16205 118.827 5.23956 122.652L7.16462 122.109ZM3.48826 98.577C3.39663 96.6143 3.35078 94.622 3.35078 92.6H1.35078C1.35078 94.6522 1.39731 96.6757 1.49043 98.6703L3.48826 98.577ZM3.35078 92.6C3.35078 90.5616 3.39894 88.5517 3.49519 86.5705L1.49755 86.4735C1.39968 88.4879 1.35078 90.5301 1.35078 92.6H3.35078ZM4.71773 74.5894C5.36064 70.5421 6.23008 66.629 7.32552 62.8499L5.40459 62.2931C4.28511 66.1552 3.39792 70.1495 2.74249 74.2756L4.71773 74.5894ZM11.4431 51.5665C12.261 49.7319 13.1409 47.9335 14.0827 46.1714L12.3189 45.2286C11.3544 47.033 10.4536 48.8742 9.6164 50.7521L11.4431 51.5665ZM14.0798 46.1768C14.9761 44.5243 15.9145 42.9183 16.8951 41.3586L15.2019 40.2941C14.1981 41.8907 13.238 43.5338 12.3218 45.2232L14.0798 46.1768ZM23.4558 32.3518C25.8618 29.4937 28.4518 26.8355 31.2261 24.3768L29.8995 22.8801C27.0519 25.4038 24.3939 28.1318 21.9258 31.0638L23.4558 32.3518ZM40.0753 17.6162C41.6187 16.6037 43.207 15.6389 44.8403 14.722L43.8612 12.978C42.1884 13.9172 40.5607 14.9058 38.9782 15.944L40.0753 17.6162ZM44.8403 14.722C46.5533 13.7603 48.2996 12.8613 50.0792 12.025L49.2286 10.2149C47.4054 11.0717 45.6163 11.9927 43.8612 12.978L44.8403 14.722ZM61.0705 7.78569C64.7695 6.64898 68.5951 5.74619 72.5479 5.07781L72.2144 3.10581C68.1788 3.78821 64.2681 4.71075 60.483 5.87392L61.0705 7.78569ZM84.2882 3.80119C86.2316 3.70041 88.2025 3.64998 90.2008 3.64998V1.64998C88.1688 1.64998 86.1634 1.70126 84.1846 1.80387L84.2882 3.80119ZM90.2008 3.64998C92.4798 3.64998 94.7589 3.73132 97.0381 3.894L97.1805 1.89907C94.854 1.73302 92.5274 1.64998 90.2008 1.64998V3.64998ZM110.582 5.81791C112.797 6.28916 115.013 6.83731 117.229 7.46245L117.772 5.53755C115.515 4.90078 113.256 4.34213 110.998 3.86168L110.582 5.81791ZM117.236 7.4642C119.412 8.06272 121.523 8.71208 123.569 9.41217L124.217 7.51987C122.13 6.80601 119.98 6.14469 117.766 5.53579L117.236 7.4642ZM135.74 14.5652C137.731 15.5947 139.639 16.6879 141.466 17.8448L142.536 16.1552C140.658 14.9661 138.699 13.844 136.659 12.7888L135.74 14.5652ZM141.452 17.836C143.082 18.9057 144.521 20.0324 145.771 21.2145L147.145 19.761C145.799 18.489 144.266 17.2906 142.549 16.1639L141.452 17.836ZM151.473 30.2304C151.957 31.9132 152.201 33.6851 152.201 35.55H154.201C154.201 33.5087 153.934 31.5501 153.396 29.6779L151.473 30.2304ZM152.201 35.55C152.201 36.6769 152.137 37.7523 152.01 38.777L153.995 39.0223C154.133 37.91 154.201 36.7523 154.201 35.55H152.201ZM150.246 44.8708C149.771 45.8225 149.211 46.7092 148.564 47.5322L150.137 48.7678C150.869 47.8366 151.502 46.8345 152.036 45.7628L150.246 44.8708ZM148.558 47.5403C148.024 48.2348 147.449 48.837 146.834 49.3505L148.116 50.8857C148.851 50.2717 149.526 49.5618 150.143 48.7597L148.558 47.5403ZM142.41 51.4594C141.625 51.6187 140.789 51.7 139.901 51.7V53.7C140.911 53.7 141.881 53.6075 142.807 53.4194L142.41 51.4594ZM139.901 51.7C139.26 51.7 138.61 51.6614 137.95 51.5836L137.716 53.5699C138.451 53.6565 139.179 53.7 139.901 53.7V51.7ZM134.103 50.7212C133.489 50.521 132.866 50.2897 132.235 50.0269L131.466 51.8731C132.144 52.1553 132.816 52.4053 133.484 52.6229L134.103 50.7212ZM132.235 50.0269C131.529 49.7327 130.823 49.4233 130.116 49.0987L129.281 50.9161C130.009 51.2505 130.738 51.5695 131.466 51.8731L132.235 50.0269ZM125.975 47.0238C125.302 46.6584 124.628 46.2792 123.955 45.8862L122.947 47.6138C123.638 48.017 124.33 48.4062 125.021 48.7816L125.975 47.0238ZM123.96 45.8891C122.753 45.176 121.558 44.5009 120.376 43.8637L119.427 45.6244C120.585 46.2486 121.757 46.9107 122.942 47.6109L123.96 45.8891ZM112.941 40.2924C111.639 39.7465 110.352 39.251 109.081 38.8061L108.42 40.6939C109.652 41.1248 110.901 41.6057 112.168 42.1369L112.941 40.2924ZM109.122 38.8215C107.836 38.3071 106.5 37.8623 105.115 37.4867L104.592 39.417C105.905 39.7732 107.168 40.1938 108.379 40.6785L109.122 38.8215ZM96.8329 36.1033C95.4752 36.001 94.0811 35.95 92.6508 35.95V37.95C94.0336 37.95 95.3775 37.9993 96.6826 38.0977L96.8329 36.1033ZM92.6508 35.95C89.2904 35.95 86.0953 36.2042 83.0672 36.7152L83.4 38.6873C86.3079 38.1966 89.391 37.95 92.6508 37.95V35.95ZM65.3051 44.0052C62.734 45.8954 60.3927 48.1153 58.281 50.6617L59.8205 51.9383C61.8321 49.5126 64.0552 47.4064 66.4897 45.6166L65.3051 44.0052ZM58.2794 50.6636C56.0061 53.4191 54.065 56.5254 52.4537 59.9779L54.266 60.8237C55.811 57.5134 57.6638 54.5525 59.8222 51.9364L58.2794 50.6636ZM47.0288 81.0501C46.6764 84.4799 46.5008 88.0967 46.5008 91.9H48.5008C48.5008 88.1579 48.6736 84.6097 49.0183 81.2545L47.0288 81.0501ZM46.5008 91.9C46.5008 95.6949 46.6803 99.3099 47.0404 102.744L49.0295 102.536C48.6774 99.1772 48.5008 95.6321 48.5008 91.9H46.5008ZM52.5064 123.792C54.1059 127.225 56.0271 130.338 58.2718 133.127L59.8298 131.873C57.6924 129.217 55.8549 126.244 54.3193 122.948L52.5064 123.792ZM58.2888 133.148C60.4158 135.65 62.7753 137.829 65.3671 139.681L66.53 138.054C64.0761 136.3 61.837 134.234 59.8127 131.852L58.2888 133.148ZM83.115 146.761C86.1288 147.254 89.3079 147.5 92.6508 147.5V145.5C89.4055 145.5 86.3352 145.262 83.4382 144.787L83.115 146.761ZM92.6508 147.5C94.0147 147.5 95.3428 147.456 96.635 147.368L96.4989 145.373C95.2545 145.457 93.9718 145.5 92.6508 145.5V147.5ZM104.546 146.165C105.879 145.835 107.163 145.443 108.396 144.988L107.705 143.112C106.544 143.54 105.331 143.91 104.065 144.224L104.546 146.165ZM108.422 144.978C109.71 144.463 111.032 143.905 112.388 143.303L111.576 141.475C110.241 142.067 108.943 142.616 107.679 143.122L108.422 144.978ZM120.133 139.582C121.373 138.945 122.638 138.277 123.927 137.579L122.974 135.821C121.698 136.512 120.446 137.173 119.219 137.803L120.133 139.582ZM123.965 137.557C124.713 137.109 125.439 136.687 126.142 136.293L125.165 134.548C124.443 134.953 123.7 135.384 122.936 135.843L123.965 137.557ZM130.602 134.025C131.409 133.663 132.172 133.352 132.893 133.09L132.209 131.21C131.437 131.491 130.629 131.821 129.784 132.2L130.602 134.025ZM132.965 133.06C133.553 132.793 134.139 132.559 134.724 132.356L134.071 130.466C133.424 130.689 132.78 130.947 132.137 131.24L132.965 133.06ZM138.382 131.509C139.006 131.436 139.628 131.4 140.251 131.4V129.4C139.55 129.4 138.85 129.441 138.15 129.523L138.382 131.509ZM140.251 131.4C141.126 131.4 141.959 131.497 142.753 131.689L143.223 129.745C142.267 129.514 141.276 129.4 140.251 129.4V131.4ZM147.153 134.035C147.764 134.575 148.351 135.201 148.914 135.918L150.487 134.682C149.856 133.879 149.187 133.163 148.478 132.537L147.153 134.035ZM148.914 135.918C149.551 136.728 150.103 137.591 150.572 138.507L152.352 137.597C151.825 136.565 151.203 135.593 150.487 134.682L148.914 135.918ZM152.354 144.416C152.485 145.414 152.551 146.459 152.551 147.55H154.551C154.551 146.378 154.48 145.247 154.337 144.156L152.354 144.416ZM152.551 147.55C152.551 148.455 152.5 149.331 152.4 150.179L154.386 150.414C154.496 149.484 154.551 148.529 154.551 147.55H152.551ZM151.09 155.216C150.752 156.016 150.355 156.785 149.899 157.526L151.602 158.574C152.111 157.748 152.554 156.888 152.932 155.995L151.09 155.216ZM149.887 157.546C149.455 158.286 148.932 159.015 148.315 159.732L149.83 161.037C150.52 160.236 151.116 159.408 151.615 158.554L149.887 157.546ZM144.198 163.377C143.469 163.889 142.685 164.393 141.844 164.888L142.858 166.612C143.742 166.092 144.572 165.559 145.349 165.012L144.198 163.377ZM141.809 164.91C139.925 166.125 137.961 167.276 135.915 168.364L136.854 170.13C138.948 169.017 140.961 167.837 142.893 166.59L141.809 164.91ZM123.391 173.87C121.283 174.628 119.109 175.335 116.87 175.99L117.432 177.91C119.708 177.243 121.92 176.524 124.068 175.753L123.391 173.87ZM116.892 175.984C114.515 176.622 112.123 177.18 109.717 177.657L110.107 179.619C112.556 179.133 114.991 178.565 117.41 177.916L116.892 175.984ZM95.1158 179.565C92.6753 179.722 90.2204 179.8 87.7508 179.8V181.8C90.2627 181.8 92.7605 181.72 95.244 181.561L95.1158 179.565ZM42.6008 169.95L41.6188 171.692L41.6254 171.696L41.6322 171.7L42.6008 169.95ZM12.8508 139.15L14.6206 138.219L14.6206 138.219L12.8508 139.15ZM13.2008 45.7L11.4427 44.7464L11.4369 44.7572L13.2008 45.7ZM44.3508 13.85L45.3299 15.594L45.3299 15.594L44.3508 13.85ZM117.501 6.5L116.958 8.42494L116.97 8.42841L117.501 6.5ZM142.001 17L143.098 15.3279L143.085 15.319L143.071 15.3104L142.001 17ZM149.351 48.15L147.778 46.9144L147.772 46.9224L147.766 46.9306L149.351 48.15ZM131.851 50.95L131.082 52.7962L131.082 52.7962L131.851 50.95ZM123.451 46.75L122.433 48.4719L122.443 48.4775L123.451 46.75ZM108.751 39.75L108.008 41.6069L108.049 41.6232L108.09 41.6377L108.751 39.75ZM59.0508 51.3L57.5113 50.0233L57.508 50.0272L59.0508 51.3ZM59.0508 132.5L57.4928 133.754L57.5096 133.775L57.5269 133.795L59.0508 132.5ZM108.051 144.05L108.742 145.927L108.768 145.917L108.794 145.907L108.051 144.05ZM123.451 136.7L124.403 138.459L124.442 138.438L124.48 138.415L123.451 136.7ZM132.551 132.15L133.234 134.03L133.307 134.003L133.378 133.971L132.551 132.15ZM149.701 135.3L151.273 134.064L151.273 134.064L149.701 135.3ZM150.751 158.05L149.047 157.002L149.035 157.022L149.023 157.042L150.751 158.05ZM142.351 165.75L141.337 164.026L141.301 164.047L141.267 164.069L142.351 165.75ZM117.151 176.95L117.669 178.882L117.691 178.876L117.713 178.869L117.151 176.95ZM87.7508 178.8C85.8014 178.8 83.8797 178.752 81.9857 178.656L81.7828 182.65C83.7461 182.75 85.7355 182.8 87.7508 182.8V178.8ZM70.5481 177.437C66.6955 176.798 62.9711 175.935 59.374 174.849L58.2179 178.678C61.9855 179.815 65.8777 180.717 69.8937 181.383L70.5481 177.437ZM48.6726 170.789C46.9382 169.986 45.2372 169.123 43.5694 168.2L41.6322 171.7C43.3844 172.67 45.1712 173.576 46.9928 174.419L48.6726 170.789ZM43.5828 168.208C40.4635 166.45 37.5245 164.51 34.7646 162.388L32.327 165.56C35.2411 167.8 38.3388 169.844 41.6188 171.692L43.5828 168.208ZM20.1595 147.232C18.1445 144.41 16.298 141.406 14.6206 138.219L11.0809 140.081C12.8395 143.423 14.7803 146.581 16.9039 149.556L20.1595 147.232ZM14.6206 138.219C13.7117 136.492 12.8629 134.726 12.0745 132.921L8.40902 134.522C9.2359 136.415 10.1265 138.268 11.0809 140.081L14.6206 138.219ZM8.12716 121.838C7.08433 118.137 6.25653 114.293 5.64494 110.306L1.69118 110.912C2.3264 115.053 3.18796 119.057 4.27703 122.923L8.12716 121.838ZM4.48717 98.5304C4.39628 96.5837 4.35078 94.6069 4.35078 92.6H0.350782C0.350782 94.6674 0.397655 96.7064 0.491522 98.7169L4.48717 98.5304ZM4.35078 92.6C4.35078 90.5773 4.39857 88.5837 4.49401 86.619L0.498727 86.4249C0.400056 88.4559 0.350782 90.5143 0.350782 92.6H4.35078ZM5.70534 74.7463C6.342 70.7383 7.20256 66.866 8.28599 63.1283L4.44413 62.0147C3.31263 65.9182 2.41656 69.9532 1.75487 74.1188L5.70534 74.7463ZM12.3564 51.9737C13.1647 50.1607 14.0341 48.3838 14.9646 46.6427L11.4369 44.7572C10.4612 46.5828 9.54991 48.4454 8.70306 50.3449L12.3564 51.9737ZM14.9588 46.6535C15.8451 45.0195 16.7727 43.432 17.7417 41.8909L14.3554 39.7619C13.3399 41.377 12.369 43.0386 11.4427 44.7465L14.9588 46.6535ZM24.2208 32.9958C26.5957 30.1747 29.1517 27.5514 31.8893 25.1252L29.2363 22.1317C26.3519 24.6879 23.66 27.4509 21.1607 30.4198L24.2208 32.9958ZM40.6238 18.4523C42.1477 17.4526 43.7164 16.4998 45.3299 15.594L43.3717 12.106C41.6791 13.0563 40.0317 14.0569 38.4297 15.1078L40.6238 18.4523ZM45.3299 15.594C47.0218 14.6441 48.7467 13.7561 50.5045 12.93L48.8033 9.30987C46.9583 10.1769 45.1478 11.109 43.3717 12.106L45.3299 15.594ZM61.3642 8.74157C65.0202 7.61809 68.8033 6.72518 72.7146 6.06382L72.0477 2.1198C67.9706 2.80921 64.0174 3.74163 60.1892 4.91803L61.3642 8.74157ZM84.34 4.79985C86.2657 4.69998 88.2193 4.64998 90.2008 4.64998V0.649984C88.152 0.649984 86.1293 0.701682 84.1329 0.805216L84.34 4.79985ZM90.2008 4.64998C92.456 4.64998 94.7114 4.73047 96.9669 4.89146L97.2517 0.901613C94.9016 0.73387 92.5513 0.649984 90.2008 0.649984V4.64998ZM110.374 6.79603C112.567 7.26267 114.762 7.80557 116.958 8.4249L118.044 4.5751C115.765 3.93252 113.486 3.36862 111.206 2.88357L110.374 6.79603ZM116.97 8.42841C119.128 9.02173 121.22 9.66512 123.246 10.3583L124.541 6.57373C122.434 5.85297 120.264 5.18567 118.031 4.57159L116.97 8.42841ZM135.281 15.4535C137.246 16.47 139.129 17.5488 140.931 18.6896L143.071 15.3104C141.168 14.1051 139.184 12.9686 137.118 11.9005L135.281 15.4535ZM140.903 18.6721C142.49 19.7132 143.881 20.8041 145.085 21.9413L147.832 19.0342C146.439 17.7173 144.858 16.483 143.098 15.3279L140.903 18.6721ZM150.512 30.5066C150.969 32.0947 151.201 33.7733 151.201 35.55H155.201C155.201 33.4205 154.922 31.3686 154.357 29.4017L150.512 30.5066ZM151.201 35.55C151.201 36.6391 151.139 37.6734 151.018 38.6543L154.988 39.145C155.13 37.9888 155.201 36.79 155.201 35.55H151.201ZM149.351 44.4248C148.906 45.3165 148.382 46.1455 147.778 46.9144L150.923 49.3856C151.698 48.4002 152.367 47.3405 152.931 46.2088L149.351 44.4248ZM147.766 46.9306C147.273 47.5714 146.748 48.1197 146.193 48.583L148.757 51.6533C149.552 50.9891 150.278 50.2253 150.936 49.3694L147.766 46.9306ZM142.211 50.4794C141.497 50.6243 140.728 50.7 139.901 50.7V54.7C140.972 54.7 142.009 54.6019 143.006 54.3994L142.211 50.4794ZM139.901 50.7C139.3 50.7 138.689 50.6638 138.067 50.5905L137.599 54.563C138.372 54.654 139.139 54.7 139.901 54.7V50.7ZM134.413 49.7703C133.825 49.5788 133.227 49.3569 132.62 49.1038L131.082 52.7962C131.782 53.0881 132.48 53.3475 133.174 53.5737L134.413 49.7703ZM132.62 49.1038C131.925 48.8143 131.23 48.5097 130.534 48.1899L128.864 51.8248C129.603 52.1641 130.342 52.4879 131.082 52.7962L132.62 49.1038ZM126.452 46.1449C125.788 45.7845 125.124 45.4104 124.459 45.0224L122.443 48.4775C123.143 48.8858 123.843 49.2802 124.544 49.6605L126.452 46.1449ZM124.468 45.0281C123.251 44.3087 122.045 43.6271 120.85 42.9834L118.953 46.5048C120.099 47.1224 121.259 47.778 122.433 48.4718L124.468 45.0281ZM113.328 39.3701C112.008 38.8169 110.702 38.3141 109.411 37.8623L108.09 41.6377C109.301 42.0617 110.532 42.5354 111.781 43.0591L113.328 39.3701ZM109.494 37.893C108.17 37.3637 106.798 36.9068 105.377 36.5216L104.33 40.3821C105.608 40.7286 106.833 41.1371 108.008 41.6069L109.494 37.893ZM96.908 35.1062C95.5241 35.0019 94.1049 34.95 92.6508 34.95V38.95C94.0099 38.95 95.3286 38.9985 96.6074 39.0949L96.908 35.1062ZM92.6508 34.95C89.2401 34.95 85.989 35.208 82.9008 35.7291L83.5663 39.6734C86.4142 39.1928 89.4413 38.95 92.6508 38.95V34.95ZM64.7128 43.1995C62.0733 45.1399 59.6729 47.4166 57.5113 50.0233L60.5903 52.5767C62.5519 50.2112 64.7159 48.1618 67.0821 46.4223L64.7128 43.1995ZM57.508 50.0272C55.1773 52.8524 53.192 56.0314 51.5475 59.555L55.1722 61.2467C56.684 58.0075 58.4927 55.1193 60.5935 52.5728L57.508 50.0272ZM46.034 80.9479C45.6778 84.415 45.5008 88.0662 45.5008 91.9H49.5008C49.5008 88.1885 49.6722 84.6746 50.0131 81.3567L46.034 80.9479ZM45.5008 91.9C45.5008 95.7262 45.6818 99.3763 46.0459 102.849L50.0241 102.432C49.6759 99.1109 49.5008 95.6008 49.5008 91.9H45.5008ZM51.6 124.215C53.2315 127.716 55.1945 130.899 57.4928 133.754L60.6088 131.246C58.525 128.657 56.7294 125.753 55.2257 122.525L51.6 124.215ZM57.5269 133.795C59.7052 136.358 62.1249 138.593 64.7857 140.495L67.1115 137.24C64.7265 135.536 62.5476 133.526 60.5747 131.205L57.5269 133.795ZM82.9534 147.748C86.0256 148.251 89.259 148.5 92.6508 148.5V144.5C89.4544 144.5 86.4383 144.265 83.5998 143.8L82.9534 147.748ZM92.6508 148.5C94.0361 148.5 95.387 148.455 96.7031 148.366L96.4309 144.375C95.2103 144.458 93.9504 144.5 92.6508 144.5V148.5ZM104.786 147.136C106.154 146.797 107.473 146.394 108.742 145.927L107.359 142.173C106.234 142.588 105.056 142.948 103.824 143.253L104.786 147.136ZM108.794 145.907C110.094 145.387 111.427 144.823 112.794 144.217L111.17 140.561C109.846 141.149 108.559 141.693 107.308 142.193L108.794 145.907ZM120.589 140.472C121.837 139.831 123.108 139.16 124.403 138.459L122.498 134.941C121.228 135.63 119.982 136.287 118.762 136.914L120.589 140.472ZM124.48 138.415C125.22 137.971 125.937 137.554 126.631 137.166L124.676 133.676C123.945 134.086 123.194 134.522 122.422 134.985L124.48 138.415ZM131.012 134.937C131.799 134.584 132.539 134.282 133.234 134.03L131.867 130.27C131.07 130.56 130.239 130.9 129.375 131.287L131.012 134.937ZM133.378 133.971C133.939 133.716 134.496 133.493 135.05 133.302L133.744 129.521C133.067 129.755 132.394 130.025 131.723 130.329L133.378 133.971ZM138.499 132.503C139.084 132.434 139.667 132.4 140.251 132.4V128.4C139.511 128.4 138.772 128.443 138.033 128.53L138.499 132.503ZM140.251 132.4C141.051 132.4 141.805 132.489 142.518 132.661L143.458 128.774C142.421 128.523 141.351 128.4 140.251 128.4V132.4ZM146.491 134.785C147.052 135.281 147.599 135.862 148.128 136.536L151.273 134.064C150.609 133.219 149.898 132.457 149.14 131.787L146.491 134.785ZM148.128 136.536C148.725 137.295 149.242 138.103 149.681 138.962L153.243 137.141C152.686 136.052 152.029 135.026 151.273 134.064L148.128 136.536ZM151.362 144.546C151.487 145.498 151.551 146.499 151.551 147.55H155.551C155.551 146.338 155.477 145.163 155.329 144.026L151.362 144.546ZM151.551 147.55C151.551 148.417 151.502 149.254 151.407 150.061L155.379 150.532C155.494 149.56 155.551 148.566 155.551 147.55H151.551ZM150.168 154.827C149.85 155.579 149.477 156.304 149.047 157.002L152.454 159.098C152.989 158.229 153.456 157.324 153.853 156.385L150.168 154.827ZM149.023 157.042C148.625 157.725 148.138 158.405 147.557 159.079L150.588 161.69C151.315 160.846 151.947 159.969 152.478 159.058L149.023 157.042ZM143.622 162.559C142.918 163.055 142.157 163.544 141.337 164.026L143.365 167.474C144.27 166.941 145.124 166.393 145.924 165.83L143.622 162.559ZM141.267 164.069C139.408 165.269 137.467 166.406 135.445 167.482L137.324 171.013C139.442 169.887 141.479 168.693 143.435 167.431L141.267 164.069ZM123.053 172.929C120.964 173.68 118.81 174.381 116.589 175.031L117.713 178.869C120.008 178.198 122.239 177.473 124.406 176.694L123.053 172.929ZM116.633 175.018C114.277 175.65 111.907 176.203 109.523 176.677L110.302 180.6C112.773 180.109 115.228 179.536 117.669 178.882L116.633 175.018ZM95.0517 178.567C92.6328 178.722 90.1992 178.8 87.7508 178.8V182.8C90.2839 182.8 92.803 182.72 95.3081 182.559L95.0517 178.567Z" fill="black"/>
</svg>
