<svg width="211" height="258" viewBox="0 0 211 258" fill="none" xmlns="http://www.w3.org/2000/svg">
<path d="M120.746 255.15C96.9465 255.15 76.0632 250.017 58.0965 239.75C40.3632 229.483 26.7132 214.783 17.1465 195.65C7.57982 176.517 2.79648 154.117 2.79648 128.45C2.79648 102.783 7.57982 80.5 17.1465 61.6C26.7132 42.4667 40.3632 27.7667 58.0965 17.5C76.0632 7.23332 96.9465 2.09998 120.746 2.09998C136.146 2.09998 150.613 4.43332 164.147 9.1C177.68 13.5333 189.696 20.0667 200.196 28.7C203.23 31.0333 205.33 33.4833 206.496 36.05C207.663 38.6167 208.246 41.7667 208.246 45.5C208.246 50.6333 206.846 54.95 204.046 58.45C201.246 61.95 197.863 63.7 193.896 63.7C189.23 63.7 184.446 62.0667 179.546 58.8C169.513 51.3333 160.18 46.2 151.546 43.4C142.913 40.3667 133.346 38.85 122.846 38.85C98.5798 38.85 80.1465 46.4333 67.5465 61.6C55.1798 76.7667 48.9965 99.05 48.9965 128.45C48.9965 158.083 55.1798 180.483 67.5465 195.65C80.1465 210.817 98.5798 218.4 122.846 218.4C132.88 218.4 142.096 216.883 150.496 213.85C159.13 210.817 168.813 205.683 179.546 198.45C181.88 197.05 184.213 195.883 186.547 194.95C188.88 194.017 191.33 193.55 193.896 193.55C197.863 193.55 201.246 195.3 204.046 198.8C206.846 202.3 208.246 206.617 208.246 211.75C208.246 215.25 207.663 218.4 206.496 221.2C205.33 223.767 203.23 226.217 200.196 228.55C189.696 237.183 177.68 243.833 164.147 248.5C150.613 252.933 136.146 255.15 120.746 255.15Z" fill="#F5F5F5"/>
<path d="M58.0965 239.75L57.5954 240.615L57.6003 240.618L58.0965 239.75ZM17.1465 195.65L18.0409 195.203L18.0409 195.203L17.1465 195.65ZM17.1465 61.6L18.0387 62.0516L18.0409 62.0472L17.1465 61.6ZM58.0965 17.5L57.6003 16.6317L57.5955 16.6346L58.0965 17.5ZM164.147 9.1L163.821 10.0454L163.828 10.0479L163.835 10.0503L164.147 9.1ZM200.196 28.7L199.561 29.4724L199.574 29.4827L199.587 29.4926L200.196 28.7ZM206.496 36.05L207.407 35.6362L207.407 35.6362L206.496 36.05ZM204.046 58.45L203.266 57.8253L203.266 57.8253L204.046 58.45ZM179.546 58.8L178.949 59.6022L178.97 59.6177L178.992 59.632L179.546 58.8ZM151.546 43.4L151.215 44.3435L151.226 44.3475L151.238 44.3512L151.546 43.4ZM67.5465 61.6L66.7773 60.9609L66.7715 60.9681L67.5465 61.6ZM67.5465 195.65L66.7714 196.282L66.7773 196.289L67.5465 195.65ZM150.496 213.85L150.165 212.907L150.157 212.909L150.496 213.85ZM179.546 198.45L179.032 197.593L179.009 197.606L178.988 197.621L179.546 198.45ZM186.547 194.95L186.918 195.878L186.918 195.878L186.547 194.95ZM204.046 198.8L203.266 199.425L203.266 199.425L204.046 198.8ZM206.496 221.2L207.407 221.614L207.413 221.599L207.42 221.585L206.496 221.2ZM200.196 228.55L199.587 227.757L199.574 227.767L199.561 227.778L200.196 228.55ZM164.147 248.5L164.458 249.45L164.465 249.448L164.472 249.445L164.147 248.5ZM120.746 254.15C118.005 254.15 115.304 254.081 112.642 253.945L112.54 255.942C115.236 256.081 117.972 256.15 120.746 256.15V254.15ZM96.5462 252.203C91.1142 251.286 85.8687 250.047 80.8091 248.484L80.2191 250.395C85.3662 251.985 90.6978 253.244 96.2135 254.175L96.5462 252.203ZM65.7538 242.625C63.3168 241.465 60.9298 240.217 58.5926 238.882L57.6003 240.618C59.9809 241.979 62.4121 243.25 64.894 244.431L65.7538 242.625ZM58.5975 238.885C56.4003 237.612 54.2668 236.272 52.1969 234.863L51.0715 236.516C53.1821 237.953 55.3568 239.319 57.5955 240.615L58.5975 238.885ZM40.3899 225.449C36.7176 222.031 33.3043 218.332 30.1499 214.35L28.5822 215.592C31.7985 219.652 35.2803 223.426 39.0274 226.913L40.3899 225.449ZM21.6408 201.86C20.3826 199.705 19.1826 197.486 18.0409 195.203L16.2521 196.097C17.4126 198.418 18.6331 200.675 19.9136 202.868L21.6408 201.86ZM18.0409 195.203C16.7671 192.655 15.5786 190.049 14.4755 187.383L12.6275 188.148C13.7486 190.857 14.9567 193.507 16.2521 196.097L18.0409 195.203ZM8.98931 171.093C7.55032 165.679 6.40992 160.057 5.56871 154.228L3.58922 154.513C4.44097 160.416 5.5965 166.114 7.05641 171.607L8.98931 171.093ZM3.98273 137.073C3.85858 134.242 3.79648 131.367 3.79648 128.45H1.79648C1.79648 131.396 1.85919 134.299 1.98465 137.161L3.98273 137.073ZM3.79648 128.45C3.79648 125.545 3.85805 122.685 3.98112 119.868L1.98303 119.781C1.85865 122.627 1.79648 125.517 1.79648 128.45H3.79648ZM5.55705 102.796C6.3952 96.9878 7.53232 91.3942 8.96777 86.015L7.03539 85.4993C5.57871 90.9581 4.42631 96.6287 3.57755 102.511L5.55705 102.796ZM14.4596 69.8169C15.5666 67.167 16.7596 64.5786 18.0387 62.0516L16.2543 61.1484C14.9529 63.7193 13.7396 66.3519 12.6141 69.046L14.4596 69.8169ZM18.0409 62.0472C19.1826 59.7639 20.3826 57.5449 21.6408 55.3901L19.9136 54.3816C18.6331 56.5745 17.4126 58.8316 16.2521 61.1528L18.0409 62.0472ZM30.1499 42.9001C33.3043 38.918 36.7176 35.2186 40.3899 31.8014L39.0274 30.3373C35.2803 33.8241 31.7985 37.5979 28.5822 41.6582L30.1499 42.9001ZM52.1969 22.387C54.2668 20.978 56.4003 19.6375 58.5975 18.3654L57.5955 16.6346C55.3568 17.9307 53.1821 19.297 51.0715 20.7336L52.1969 22.387ZM58.5926 18.3682C60.9298 17.0327 63.3168 15.7848 65.7538 14.6246L64.894 12.8188C62.4121 14.0004 59.9809 15.2714 57.6003 16.6318L58.5926 18.3682ZM80.8091 8.7655C85.8687 7.20337 91.1142 5.96382 96.5462 5.04742L96.2135 3.07528C90.6978 4.0058 85.3662 5.26535 80.2191 6.85451L80.8091 8.7655ZM112.642 3.30542C115.304 3.16849 118.005 3.09998 120.746 3.09998V1.09998C117.972 1.09998 115.236 1.16932 112.54 1.30806L112.642 3.30542ZM120.746 3.09998C124.454 3.09998 128.106 3.23611 131.703 3.50822L131.853 1.51392C128.205 1.23791 124.503 1.09998 120.746 1.09998V3.09998ZM153.321 6.94339C156.882 7.82557 160.382 8.85958 163.821 10.0454L164.472 8.15463C160.977 6.94928 157.42 5.89844 153.802 5.00207L153.321 6.94339ZM163.835 10.0503C167.118 11.1256 170.309 12.3251 173.41 13.6487L174.195 11.8093C171.04 10.4624 167.794 9.24259 164.458 8.14969L163.835 10.0503ZM191.365 23.3717C194.193 25.2717 196.926 27.3052 199.561 29.4724L200.832 27.9276C198.146 25.7195 195.362 23.6474 192.48 21.7115L191.365 23.3717ZM199.587 29.4926C200.238 29.9933 200.842 30.4976 201.399 31.0052L202.746 29.5261C202.144 28.9785 201.497 28.439 200.806 27.9074L199.587 29.4926ZM204.469 34.4827C204.913 35.1395 205.284 35.7999 205.586 36.4638L207.407 35.6362C207.056 34.8639 206.628 34.1064 206.127 33.3636L204.469 34.4827ZM205.586 36.4638C205.889 37.1293 206.151 37.8409 206.372 38.5996L208.292 38.0395C208.046 37.1955 207.751 36.394 207.407 35.6362L205.586 36.4638ZM207.162 43.1561C207.218 43.9065 207.246 44.6877 207.246 45.5H209.246C209.246 44.6412 209.216 43.8099 209.156 43.0062L207.162 43.1561ZM207.246 45.5C207.246 46.656 207.173 47.7642 207.027 48.8255L209.008 49.098C209.167 47.9404 209.246 46.7409 209.246 45.5H207.246ZM205.064 55.085C204.554 56.05 203.955 56.9633 203.266 57.8253L204.827 59.0747C205.595 58.1151 206.264 57.0962 206.832 56.0184L205.064 55.085ZM203.266 57.8253C202.651 58.5932 202.013 59.2655 201.351 59.8454L202.669 61.3495C203.428 60.6849 204.147 59.9256 204.827 59.0747L203.266 57.8253ZM196.594 62.3837C195.736 62.5937 194.837 62.7 193.896 62.7V64.7C194.989 64.7 196.048 64.5763 197.07 64.3264L196.594 62.3837ZM193.896 62.7C192.694 62.7 191.481 62.5858 190.257 62.3564L189.888 64.3222C191.23 64.5737 192.567 64.7 193.896 64.7V62.7ZM183.314 59.8784C182.253 59.3246 181.181 58.6881 180.101 57.9679L178.992 59.632C180.127 60.3889 181.26 61.0624 182.389 61.6517L183.314 59.8784ZM180.144 57.9978C177.908 56.3343 175.706 54.7848 173.537 53.3495L172.433 55.0175C174.57 56.431 176.742 57.9592 178.949 59.6022L180.144 57.9978ZM159.428 45.4138C156.852 44.2395 154.328 43.2507 151.855 42.4488L151.238 44.3512C153.632 45.1277 156.086 46.0881 158.599 47.2337L159.428 45.4138ZM151.878 42.4565C149.579 41.6489 147.217 40.9477 144.79 40.3528L144.314 42.2953C146.679 42.8751 148.979 43.5579 151.215 44.3435L151.878 42.4565ZM130.212 38.1071C127.808 37.9356 125.353 37.85 122.846 37.85V39.85C125.307 39.85 127.715 39.9341 130.069 40.102L130.212 38.1071ZM122.846 37.85C120.177 37.85 117.575 37.941 115.041 38.1233L115.185 40.1181C117.668 39.9395 120.222 39.85 122.846 39.85V37.85ZM99.6081 40.578C94.3479 41.9343 89.4675 43.7978 84.9702 46.1712L85.9037 47.94C90.2539 45.6442 94.9873 43.8349 100.107 42.5147L99.6081 40.578ZM72.1727 55.2463C70.2695 57.0171 68.4711 58.9222 66.7773 60.961L68.3157 62.239C69.9559 60.2646 71.6958 58.4219 73.5351 56.7105L72.1727 55.2463ZM66.7715 60.9681C64.908 63.2534 63.1841 65.6962 61.5993 68.2956L63.307 69.3367C64.8459 66.8124 66.5175 64.4444 68.3215 62.2319L66.7715 60.9681ZM54.1599 84.5404C52.3748 89.8791 50.9795 95.6545 49.9713 101.864L51.9454 102.185C52.9384 96.0689 54.3096 90.3996 56.0567 85.1746L54.1599 84.5404ZM48.1936 119.563C48.0622 122.451 47.9965 125.413 47.9965 128.45H49.9965C49.9965 125.442 50.0615 122.51 50.1915 119.654L48.1936 119.563ZM47.9965 128.45C47.9965 131.502 48.0618 134.478 48.1924 137.38L50.1904 137.29C50.0611 134.42 49.9965 131.473 49.9965 128.45H47.9965ZM49.9611 155.163C50.9658 161.41 52.3569 167.215 54.137 172.577L56.0352 171.947C54.2927 166.698 52.9254 160.999 51.9358 154.846L49.9611 155.163ZM61.5798 188.915C63.1698 191.531 64.9003 193.987 66.7715 196.282L68.3215 195.018C66.5105 192.797 64.8329 190.417 63.2889 187.876L61.5798 188.915ZM66.7773 196.289C68.4711 198.328 70.2695 200.233 72.1727 202.004L73.5351 200.539C71.6958 198.828 69.9559 196.985 68.3157 195.011L66.7773 196.289ZM84.9702 211.079C89.4675 213.452 94.3479 215.316 99.6081 216.672L100.107 214.735C94.9873 213.415 90.2538 211.606 85.9037 209.31L84.9702 211.079ZM115.041 219.127C117.575 219.309 120.177 219.4 122.846 219.4V217.4C120.222 217.4 117.668 217.311 115.185 217.132L115.041 219.127ZM122.846 219.4C125.262 219.4 127.632 219.313 129.956 219.139L129.807 217.144C127.534 217.315 125.214 217.4 122.846 217.4V219.4ZM144.014 216.881C146.343 216.288 148.617 215.592 150.836 214.791L150.157 212.909C148 213.688 145.788 214.366 143.521 214.942L144.014 216.881ZM150.828 214.793C153.318 213.918 155.891 212.872 158.544 211.657L157.711 209.838C155.107 211.031 152.592 212.054 150.165 212.907L150.828 214.793ZM173.144 203.768C175.415 202.373 177.735 200.877 180.105 199.279L178.988 197.621C176.639 199.204 174.342 200.684 172.097 202.064L173.144 203.768ZM180.061 199.307C180.617 198.974 181.172 198.654 181.727 198.348L180.761 196.597C180.184 196.915 179.608 197.247 179.032 197.593L180.061 199.307ZM185.156 196.629C185.744 196.363 186.331 196.113 186.918 195.878L186.175 194.022C185.561 194.267 184.947 194.529 184.333 194.806L185.156 196.629ZM186.918 195.878C187.474 195.656 188.036 195.462 188.605 195.295L188.044 193.376C187.413 193.56 186.79 193.776 186.175 194.022L186.918 195.878ZM192.108 194.631C192.697 194.577 193.293 194.55 193.896 194.55V192.55C193.233 192.55 192.576 192.58 191.926 192.639L192.108 194.631ZM193.896 194.55C194.837 194.55 195.736 194.656 196.594 194.866L197.07 192.924C196.048 192.674 194.989 192.55 193.896 192.55V194.55ZM201.351 197.405C202.013 197.984 202.651 198.657 203.266 199.425L204.827 198.175C204.147 197.324 203.428 196.565 202.669 195.901L201.351 197.405ZM203.266 199.425C203.955 200.287 204.554 201.2 205.064 202.165L206.832 201.232C206.264 200.154 205.595 199.135 204.827 198.175L203.266 199.425ZM207.027 208.425C207.173 209.486 207.246 210.594 207.246 211.75H209.246C209.246 210.509 209.167 209.31 209.008 208.152L207.027 208.425ZM207.246 211.75C207.246 212.549 207.215 213.327 207.153 214.084L209.146 214.248C209.213 213.434 209.246 212.601 209.246 211.75H207.246ZM206.335 218.642C206.119 219.391 205.865 220.115 205.573 220.815L207.42 221.585C207.741 220.812 208.02 220.016 208.257 219.196L206.335 218.642ZM205.586 220.786C205.284 221.45 204.913 222.11 204.469 222.767L206.127 223.886C206.628 223.144 207.056 222.386 207.407 221.614L205.586 220.786ZM201.399 226.245C200.842 226.752 200.238 227.257 199.587 227.757L200.806 229.343C201.497 228.811 202.144 228.271 202.746 227.724L201.399 226.245ZM199.561 227.778C196.919 229.951 194.179 231.997 191.342 233.916L192.463 235.573C195.351 233.618 198.141 231.535 200.832 229.322L199.561 227.778ZM173.385 243.812C170.287 245.177 167.099 246.424 163.821 247.555L164.472 249.445C167.802 248.297 171.042 247.03 174.191 245.642L173.385 243.812ZM163.835 247.55C160.388 248.679 156.878 249.664 153.308 250.503L153.766 252.45C157.391 251.598 160.955 250.598 164.458 249.45L163.835 247.55ZM131.689 253.763C128.097 254.021 124.449 254.15 120.746 254.15V256.15C124.496 256.15 128.191 256.019 131.832 255.758L131.689 253.763ZM58.0965 239.75L57.0944 241.481L57.1042 241.486L58.0965 239.75ZM17.1465 195.65L18.9353 194.756L18.9353 194.756L17.1465 195.65ZM17.1465 61.6L18.9309 62.5032L18.9353 62.4944L17.1465 61.6ZM58.0965 17.5L57.1042 15.7635L57.0944 15.7691L58.0965 17.5ZM164.147 9.1L163.495 10.9907L163.509 10.9958L163.524 11.0006L164.147 9.1ZM200.196 28.7L198.926 30.2448L198.951 30.2655L198.977 30.2852L200.196 28.7ZM206.496 36.05L208.317 35.2224L208.317 35.2224L206.496 36.05ZM204.046 58.45L202.485 57.2006L202.485 57.2006L204.046 58.45ZM179.546 58.8L178.352 60.4045L178.394 60.4354L178.437 60.4641L179.546 58.8ZM151.546 43.4L150.884 45.2869L150.906 45.295L150.929 45.3024L151.546 43.4ZM67.5465 61.6L66.0081 60.322L66.0022 60.329L65.9964 60.3361L67.5465 61.6ZM67.5465 195.65L65.9964 196.914L66.0022 196.921L66.0081 196.928L67.5465 195.65ZM150.496 213.85L149.834 211.963L149.825 211.966L149.817 211.969L150.496 213.85ZM179.546 198.45L178.517 196.735L178.472 196.762L178.429 196.791L179.546 198.45ZM186.547 194.95L187.289 196.807L187.289 196.807L186.547 194.95ZM204.046 198.8L202.485 200.049L202.485 200.049L204.046 198.8ZM206.496 221.2L208.317 222.028L208.33 221.999L208.343 221.969L206.496 221.2ZM200.196 228.55L198.977 226.965L198.951 226.985L198.926 227.005L200.196 228.55ZM164.147 248.5L164.769 250.401L164.784 250.396L164.798 250.391L164.147 248.5ZM120.746 253.15C118.022 253.15 115.338 253.082 112.694 252.946L112.488 256.941C115.203 257.08 117.955 257.15 120.746 257.15V253.15ZM96.7126 251.217C91.3223 250.307 86.1199 249.078 81.1041 247.529L79.9241 251.351C85.115 252.954 90.4897 254.223 96.0472 255.161L96.7126 251.217ZM66.1836 241.723C63.7691 240.573 61.4042 239.337 59.0888 238.014L57.1042 241.486C59.5065 242.859 61.9598 244.142 64.4641 245.334L66.1836 241.723ZM59.0986 238.019C56.9221 236.759 54.8091 235.431 52.7596 234.036L50.5088 237.343C52.6397 238.794 54.835 240.173 57.0944 241.481L59.0986 238.019ZM41.0711 224.717C37.4363 221.334 34.0572 217.672 30.9338 213.729L27.7983 216.213C31.0456 220.312 34.5617 224.123 38.3462 227.645L41.0711 224.717ZM22.5043 201.356C21.2573 199.22 20.0676 197.02 18.9353 194.756L15.3576 196.544C16.5277 198.884 17.7584 201.161 19.0501 203.373L22.5043 201.356ZM18.9353 194.756C17.6723 192.229 16.4936 189.645 15.3995 187.001L11.7035 188.531C12.8336 191.261 14.0516 193.932 15.3576 196.544L18.9353 194.756ZM9.95576 170.836C8.52722 165.461 7.3944 159.878 6.55846 154.085L2.59947 154.656C3.45649 160.595 4.6196 166.331 6.08996 171.864L9.95576 170.836ZM4.98177 137.029C4.85828 134.213 4.79648 131.353 4.79648 128.45H0.796485C0.796485 131.41 0.859489 134.328 0.985607 137.204L4.98177 137.029ZM4.79648 128.45C4.79648 125.559 4.85775 122.713 4.98017 119.912L0.98398 119.737C0.858946 122.599 0.796485 125.503 0.796485 128.45H4.79648ZM6.5468 102.939C7.37965 97.1674 8.50912 91.6123 9.93396 86.2728L6.0692 85.2415C4.60191 90.74 3.44186 96.4492 2.58781 102.368L6.5468 102.939ZM15.3823 70.2024C16.48 67.5746 17.6629 65.0082 18.9309 62.5032L15.3621 60.6968C14.0496 63.2896 12.8261 65.9443 11.6914 68.6605L15.3823 70.2024ZM18.9353 62.4944C20.0676 60.23 21.2573 58.03 22.5043 55.8943L19.0501 53.8773C17.7584 56.0894 16.5277 58.3655 15.3576 60.7056L18.9353 62.4944ZM30.9338 43.521C34.0572 39.578 37.4363 35.9158 41.0711 32.5335L38.3462 29.6052C34.5617 33.1268 31.0456 36.9379 27.7983 41.0373L30.9338 43.521ZM52.7596 23.2136C54.8091 21.8185 56.9221 20.4909 59.0986 19.2308L57.0944 15.7691C54.835 17.0772 52.6397 18.4565 50.5088 19.907L52.7596 23.2136ZM59.0888 19.2365C61.4042 17.9134 63.7691 16.677 66.1836 15.5275L64.4641 11.9159C61.9598 13.1082 59.5065 14.3908 57.1042 15.7635L59.0888 19.2365ZM81.1041 9.72099C86.1199 8.17239 91.3223 6.94283 96.7126 6.03348L96.0472 2.08922C90.4897 3.02678 85.115 4.29634 79.9241 5.89902L81.1041 9.72099ZM112.694 4.3041C115.338 4.16807 118.022 4.09998 120.746 4.09998V0.0999838C117.955 0.0999838 115.203 0.169735 112.488 0.30938L112.694 4.3041ZM120.746 4.09998C124.429 4.09998 128.056 4.23521 131.627 4.50537L131.929 0.51677C128.255 0.238812 124.527 0.0999838 120.746 0.0999838V4.09998ZM153.08 7.91405C156.613 8.78914 160.084 9.81473 163.495 10.9907L164.798 7.20925C161.275 5.99413 157.689 4.93487 154.042 4.03141L153.08 7.91405ZM163.524 11.0006C166.78 12.0671 169.944 13.2565 173.017 14.5684L174.588 10.8896C171.405 9.53108 168.132 8.30109 164.769 7.19938L163.524 11.0006ZM190.807 24.2018C193.609 26.0838 196.315 28.0981 198.926 30.2448L201.467 27.1551C198.756 24.9266 195.947 22.8353 193.038 20.8813L190.807 24.2018ZM198.977 30.2852C199.608 30.7704 200.191 31.2571 200.726 31.7448L203.419 28.7866C202.795 28.219 202.127 27.6619 201.416 27.1147L198.977 30.2852ZM203.641 35.0423C204.055 35.6561 204.399 36.2679 204.676 36.8776L208.317 35.2224C207.942 34.3959 207.486 33.5898 206.956 32.804L203.641 35.0423ZM204.676 36.8776C204.957 37.497 205.204 38.1636 205.412 38.8797L209.252 37.7594C208.994 36.8728 208.683 36.0264 208.317 35.2224L204.676 36.8776ZM206.164 43.2311C206.219 43.9548 206.246 44.711 206.246 45.5H210.246C210.246 44.618 210.216 43.7616 210.153 42.9312L206.164 43.2311ZM206.246 45.5C206.246 46.6136 206.176 47.6762 206.036 48.6892L209.999 49.2343C210.165 48.0285 210.246 46.7833 210.246 45.5H206.246ZM204.179 54.6182C203.7 55.5269 203.135 56.3874 202.485 57.2006L205.608 59.6994C206.415 58.691 207.118 57.6193 207.717 56.4852L204.179 54.6182ZM202.485 57.2006C201.904 57.927 201.305 58.5558 200.692 59.0934L203.329 62.1015C204.135 61.3946 204.894 60.5918 205.608 59.6994L202.485 57.2006ZM196.357 61.4123C195.58 61.6024 194.761 61.7 193.896 61.7V65.7C195.065 65.7 196.204 65.5676 197.307 65.2977L196.357 61.4123ZM193.896 61.7C192.758 61.7 191.606 61.5919 190.441 61.3735L189.704 65.3051C191.105 65.5676 192.503 65.7 193.896 65.7V61.7ZM183.777 58.9918C182.749 58.4557 181.709 57.8377 180.656 57.1359L178.437 60.4641C179.6 61.2393 180.763 61.9313 181.927 62.5384L183.777 58.9918ZM180.741 57.1955C178.492 55.5219 176.274 53.9617 174.088 52.5155L171.881 55.8514C174.001 57.2541 176.158 58.7716 178.352 60.4045L180.741 57.1955ZM159.843 44.5039C157.236 43.3153 154.676 42.3123 152.164 41.4975L150.929 45.3024C153.284 46.0661 155.702 47.0123 158.184 48.1436L159.843 44.5039ZM152.209 41.5131C149.879 40.6944 147.485 39.984 145.028 39.3816L144.076 43.2665C146.41 43.8388 148.679 44.5124 150.884 45.2869L152.209 41.5131ZM130.283 37.1096C127.854 36.9364 125.376 36.85 122.846 36.85V40.85C125.285 40.85 127.668 40.9333 129.998 41.0995L130.283 37.1096ZM122.846 36.85C120.154 36.85 117.528 36.9418 114.97 37.1259L115.257 41.1156C117.715 40.9387 120.245 40.85 122.846 40.85V36.85ZM99.3584 39.6097C94.0282 40.9841 89.0743 42.8746 84.5035 45.2868L86.3704 48.8244C90.647 46.5675 95.307 44.7852 100.357 43.483L99.3584 39.6097ZM71.4915 54.5142C69.5564 56.3147 67.7286 58.251 66.0081 60.322L69.0849 62.878C70.6984 60.9358 72.4089 59.1243 74.2163 57.4426L71.4915 54.5142ZM65.9964 60.3361C64.1033 62.658 62.3531 65.1381 60.7455 67.775L64.1609 69.8572C65.6769 67.3705 67.3223 65.0398 69.0965 62.8639L65.9964 60.3361ZM53.2115 84.2233C51.4074 89.6188 50 95.4472 48.9842 101.704L52.9325 102.345C53.9178 96.2761 55.277 90.6598 57.0051 85.4917L53.2115 84.2233ZM47.1946 119.517C47.0625 122.421 46.9965 125.399 46.9965 128.45H50.9965C50.9965 125.456 51.0612 122.539 51.1905 119.699L47.1946 119.517ZM46.9965 128.45C46.9965 131.516 47.0621 134.508 47.1934 137.425L51.1894 137.245C51.0608 134.391 50.9965 131.459 50.9965 128.45H46.9965ZM48.9738 155.322C49.986 161.615 51.389 167.473 53.1879 172.892L56.9842 171.632C55.2606 166.44 53.9052 160.793 52.9231 154.687L48.9738 155.322ZM60.7252 189.434C62.3383 192.088 64.0952 194.582 65.9964 196.914L69.0965 194.386C67.3156 192.202 65.6644 189.859 64.1435 187.357L60.7252 189.434ZM66.0081 196.928C67.7286 198.999 69.5564 200.935 71.4915 202.736L74.2163 199.807C72.4089 198.126 70.6984 196.314 69.0849 194.372L66.0081 196.928ZM84.5035 211.963C89.0743 214.375 94.0282 216.266 99.3584 217.64L100.357 213.767C95.307 212.465 90.647 210.683 86.3704 208.426L84.5035 211.963ZM114.97 220.124C117.528 220.308 120.154 220.4 122.846 220.4V216.4C120.245 216.4 117.715 216.311 115.257 216.134L114.97 220.124ZM122.846 220.4C125.286 220.4 127.681 220.312 130.031 220.136L129.732 216.147C127.485 216.316 125.19 216.4 122.846 216.4V220.4ZM144.26 217.85C146.62 217.25 148.926 216.544 151.176 215.731L149.817 211.969C147.692 212.736 145.511 213.404 143.275 213.973L144.26 217.85ZM151.159 215.737C153.682 214.851 156.282 213.793 158.961 212.566L157.295 208.929C154.716 210.111 152.229 211.122 149.834 211.963L151.159 215.737ZM173.667 204.62C175.951 203.217 178.283 201.713 180.664 200.109L178.429 196.791C176.091 198.367 173.806 199.84 171.573 201.212L173.667 204.62ZM180.575 200.165C181.121 199.838 181.666 199.524 182.21 199.224L180.278 195.721C179.691 196.045 179.104 196.383 178.517 196.735L180.575 200.165ZM185.568 197.54C186.142 197.281 186.716 197.036 187.289 196.807L185.804 193.093C185.176 193.344 184.548 193.611 183.922 193.894L185.568 197.54ZM187.289 196.807C187.816 196.596 188.348 196.413 188.886 196.255L187.764 192.416C187.101 192.61 186.448 192.835 185.804 193.093L187.289 196.807ZM192.2 195.627C192.757 195.576 193.323 195.55 193.896 195.55V191.55C193.203 191.55 192.515 191.581 191.834 191.644L192.2 195.627ZM193.896 195.55C194.761 195.55 195.58 195.648 196.357 195.838L197.307 191.952C196.204 191.682 195.065 191.55 193.896 191.55V195.55ZM200.692 198.157C201.305 198.694 201.904 199.323 202.485 200.049L205.608 197.551C204.894 196.658 204.135 195.855 203.329 195.149L200.692 198.157ZM202.485 200.049C203.135 200.863 203.7 201.723 204.179 202.632L207.717 200.765C207.118 199.631 206.415 198.559 205.608 197.551L202.485 200.049ZM206.036 208.561C206.176 209.574 206.246 210.636 206.246 211.75H210.246C210.246 210.467 210.165 209.221 209.999 208.016L206.036 208.561ZM206.246 211.75C206.246 212.522 206.216 213.273 206.156 214.002L210.143 214.33C210.212 213.487 210.246 212.627 210.246 211.75H206.246ZM205.374 218.365C205.168 219.078 204.927 219.767 204.65 220.431L208.343 221.969C208.679 221.161 208.971 220.329 209.218 219.473L205.374 218.365ZM204.676 220.372C204.399 220.982 204.055 221.594 203.641 222.208L206.956 224.446C207.486 223.66 207.942 222.854 208.317 222.028L204.676 220.372ZM200.726 225.505C200.191 225.993 199.608 226.48 198.977 226.965L201.416 230.135C202.127 229.588 202.795 229.031 203.419 228.463L200.726 225.505ZM198.926 227.005C196.308 229.158 193.593 231.186 190.782 233.088L193.023 236.401C195.937 234.429 198.752 232.327 201.467 230.095L198.926 227.005ZM172.981 242.897C169.91 244.25 166.748 245.487 163.495 246.609L164.798 250.391C168.154 249.234 171.419 247.956 174.594 246.558L172.981 242.897ZM163.524 246.599C160.104 247.72 156.622 248.697 153.079 249.53L153.995 253.424C157.648 252.565 161.239 251.557 164.769 250.401L163.524 246.599ZM131.618 252.766C128.05 253.022 124.426 253.15 120.746 253.15V257.15C124.519 257.15 128.238 257.019 131.904 256.756L131.618 252.766Z" fill="black"/>
</svg>
