<svg width="180" height="256" viewBox="0 0 180 256" fill="none" xmlns="http://www.w3.org/2000/svg">
<path d="M154.947 2.49999C161.481 2.49999 166.847 4.36666 171.047 8.1C175.247 11.8333 177.347 16.7333 177.347 22.8V232.1C177.347 238.4 175.364 243.417 171.397 247.15C167.431 250.883 162.181 252.75 155.647 252.75C149.114 252.75 143.864 250.883 139.897 247.15C135.931 243.417 133.947 238.4 133.947 232.1V223.35C128.814 232.917 121.347 240.383 111.547 245.75C101.981 251.117 91.0141 253.8 78.6475 253.8C63.9475 253.8 50.7641 250.067 39.0975 242.6C27.6641 235.133 18.6808 224.633 12.1475 211.1C5.84746 197.333 2.69746 181.583 2.69746 163.85C2.69746 146.117 5.84746 130.6 12.1475 117.3C18.6808 104 27.6641 93.7333 39.0975 86.5C50.5308 79.2667 63.7141 75.65 78.6475 75.65C91.0141 75.65 101.981 78.2167 111.547 83.35C121.114 88.4833 128.464 95.7167 133.597 105.05V22.1C133.597 16.2667 135.464 11.6 139.197 8.1C143.164 4.36666 148.414 2.49999 154.947 2.49999ZM90.1975 219.85C104.197 219.85 114.931 215.067 122.397 205.5C130.097 195.933 133.947 182.283 133.947 164.55C133.947 146.817 130.097 133.283 122.397 123.95C114.931 114.383 104.314 109.6 90.5475 109.6C76.5475 109.6 65.6975 114.267 57.9975 123.6C50.2975 132.933 46.4475 146.35 46.4475 163.85C46.4475 181.583 50.2975 195.35 57.9975 205.15C65.6975 214.95 76.4308 219.85 90.1975 219.85Z" fill="#F5F5F5"/>
<path d="M171.047 8.1L170.383 8.84741L170.383 8.84741L171.047 8.1ZM171.397 247.15L172.083 247.878L172.083 247.878L171.397 247.15ZM139.897 247.15L139.212 247.878L139.212 247.878L139.897 247.15ZM133.947 223.35H134.947L133.066 222.877L133.947 223.35ZM111.547 245.75L111.067 244.873L111.058 244.878L111.547 245.75ZM39.0975 242.6L38.5507 243.437L38.5584 243.442L39.0975 242.6ZM12.1475 211.1L11.2382 211.516L11.2424 211.525L11.2469 211.535L12.1475 211.1ZM12.1475 117.3L11.2499 116.859L11.2468 116.865L11.2437 116.872L12.1475 117.3ZM39.0975 86.5L38.5628 85.6549L38.5628 85.6549L39.0975 86.5ZM111.547 83.35L111.075 84.2311L111.075 84.2311L111.547 83.35ZM133.597 105.05L132.721 105.532L134.597 105.05H133.597ZM139.197 8.1L139.881 8.82954L139.883 8.8282L139.197 8.1ZM122.397 205.5L121.618 204.873L121.614 204.879L121.609 204.885L122.397 205.5ZM122.397 123.95L121.609 124.565L121.617 124.576L121.626 124.586L122.397 123.95ZM57.9975 123.6L57.2261 122.964L57.2261 122.964L57.9975 123.6ZM57.9975 205.15L58.7838 204.532L58.7838 204.532L57.9975 205.15ZM154.947 1.49999C153.413 1.49999 151.942 1.59999 150.534 1.80164L150.818 3.78144C152.124 3.59435 153.5 3.49999 154.947 3.49999V1.49999ZM142.105 4.66854C140.813 5.43274 139.615 6.33422 138.512 7.3718L139.883 8.8282C140.879 7.89087 141.959 7.07862 143.123 6.39026L142.105 4.66854ZM138.514 7.37046C137.497 8.32375 136.608 9.36221 135.85 10.4858L137.507 11.6047C138.179 10.6091 138.97 9.68409 139.881 8.82954L138.514 7.37046ZM132.911 18.0703C132.701 19.3548 132.597 20.6985 132.597 22.1H134.597C134.597 20.7973 134.694 19.5621 134.885 18.3931L132.911 18.0703ZM132.597 22.1V29.0125H134.597V22.1H132.597ZM132.597 42.8375V56.6625H134.597V42.8375H132.597ZM132.597 70.4875V84.3125H134.597V70.4875H132.597ZM132.597 98.1375V105.05H134.597V98.1375H132.597ZM134.474 104.568C133.172 102.202 131.73 99.9661 130.146 97.8621L128.548 99.0649C130.073 101.091 131.464 103.246 132.721 105.532L134.474 104.568ZM118.78 86.7015C116.661 85.1605 114.407 83.7497 112.02 82.4688L111.075 84.2311C113.385 85.4706 115.561 86.8334 117.604 88.3191L118.78 86.7015ZM112.02 82.4688C109.481 81.1065 106.846 79.9223 104.115 78.9162L103.423 80.7929C106.068 81.7672 108.619 82.9133 111.075 84.2311L112.02 82.4688ZM87.2715 75.0841C84.4732 74.7945 81.5984 74.65 78.6475 74.65V76.65C81.5331 76.65 84.3391 76.7913 87.0656 77.0735L87.2715 75.0841ZM78.6475 74.65C75.053 74.65 71.5557 74.8573 68.1559 75.2726L68.3985 77.2578C71.7138 76.8528 75.13 76.65 78.6475 76.65V74.65ZM47.8715 80.7179C44.6507 82.1207 41.5477 83.7665 38.5628 85.6549L39.6321 87.3451C42.5311 85.511 45.5437 83.9133 48.6702 82.5515L47.8715 80.7179ZM38.5628 85.6549C35.5871 87.5375 32.7745 89.623 30.1254 91.9114L31.4328 93.4249C34.0066 91.2016 36.7395 89.1751 39.6321 87.3451L38.5628 85.6549ZM16.4128 107.739C14.5488 110.606 12.828 113.647 11.2499 116.859L13.045 117.741C14.5896 114.597 16.2712 111.626 18.0896 108.83L16.4128 107.739ZM11.2437 116.872C10.3854 118.684 9.58507 120.536 8.8427 122.429L10.7046 123.159C11.4305 121.308 12.2127 119.498 13.0512 117.728L11.2437 116.872ZM5.16324 133.947C4.20102 137.762 3.4396 141.715 2.87843 145.806L4.85987 146.078C5.41151 142.056 6.15924 138.176 7.10251 134.436L5.16324 133.947ZM1.82147 157.822C1.73878 159.803 1.69746 161.812 1.69746 163.85H3.69746C3.69746 161.839 3.73823 159.858 3.81973 157.906L1.82147 157.822ZM1.69746 163.85C1.69746 165.913 1.73982 167.951 1.82459 169.962L3.82282 169.877C3.73926 167.895 3.69746 165.886 3.69746 163.85H1.69746ZM2.90069 182.144C3.46749 186.276 4.23476 190.284 5.20293 194.168L7.14355 193.684C6.19352 189.873 5.43957 185.936 4.88213 181.872L2.90069 182.144ZM8.86729 205.86C9.60116 207.781 10.3914 209.666 11.2382 211.516L13.0568 210.684C12.2281 208.873 11.4543 207.027 10.7355 205.146L8.86729 205.86ZM11.2469 211.535C12.8221 214.798 14.5395 217.889 16.3995 220.807L18.0861 219.732C16.2702 216.883 14.5907 213.861 13.048 210.665L11.2469 211.535ZM30.0988 236.985C32.7519 239.34 35.5694 241.49 38.5507 243.437L39.6443 241.763C36.7448 239.869 34.0056 237.778 31.4262 235.489L30.0988 236.985ZM38.5584 243.442C41.5542 245.36 44.6498 247.035 47.8451 248.467L48.6634 246.643C45.5595 245.251 42.5506 243.623 39.6365 241.758L38.5584 243.442ZM68.1256 254.137C71.5458 254.579 75.0533 254.8 78.6475 254.8V252.8C75.1353 252.8 71.7135 252.584 68.3819 252.154L68.1256 254.137ZM78.6475 254.8C81.6093 254.8 84.4944 254.648 87.3026 254.343L87.0868 252.355C84.3538 252.651 81.5408 252.8 78.6475 252.8V254.8ZM104.166 250.323C106.885 249.274 109.509 248.04 112.037 246.622L111.058 244.878C108.614 246.249 106.077 247.442 103.446 248.457L104.166 250.323ZM112.028 246.627C114.462 245.294 116.758 243.832 118.913 242.24L117.725 240.632C115.645 242.167 113.426 243.581 111.067 244.873L112.028 246.627ZM130.461 230.73C132.067 228.56 133.522 226.257 134.829 223.823L133.066 222.877C131.804 225.229 130.4 227.45 128.853 229.54L130.461 230.73ZM132.947 223.35V225.537H134.947V223.35H132.947ZM132.947 229.912V232.1H134.947V229.912H132.947ZM132.947 232.1C132.947 233.6 133.056 235.037 133.276 236.41L135.251 236.093C135.049 234.835 134.947 233.504 134.947 232.1H132.947ZM136.375 244.534C137.181 245.743 138.128 246.858 139.212 247.878L140.583 246.422C139.606 245.502 138.758 244.503 138.039 243.424L136.375 244.534ZM139.212 247.878C140.315 248.916 141.513 249.817 142.805 250.581L143.823 248.86C142.659 248.171 141.579 247.359 140.583 246.422L139.212 247.878ZM151.234 253.448C152.642 253.65 154.113 253.75 155.647 253.75V251.75C154.2 251.75 152.824 251.656 151.518 251.469L151.234 253.448ZM155.647 253.75C157.182 253.75 158.653 253.65 160.061 253.448L159.777 251.469C158.471 251.656 157.095 251.75 155.647 251.75V253.75ZM168.489 250.581C169.782 249.817 170.98 248.916 172.083 247.878L170.712 246.422C169.716 247.359 168.636 248.171 167.472 248.86L168.489 250.581ZM172.083 247.878C173.167 246.858 174.114 245.743 174.92 244.534L173.256 243.424C172.537 244.503 171.689 245.502 170.712 246.422L172.083 247.878ZM178.019 236.41C178.239 235.037 178.347 233.6 178.347 232.1H176.347C176.347 233.504 176.246 234.835 176.044 236.094L178.019 236.41ZM178.347 232.1V224.625H176.347V232.1H178.347ZM178.347 209.675V194.725H176.347V209.675H178.347ZM178.347 179.775V164.825H176.347V179.775H178.347ZM178.347 149.875V134.925H176.347V149.875H178.347ZM178.347 119.975V105.025H176.347V119.975H178.347ZM178.347 90.075V75.125H176.347V90.075H178.347ZM178.347 60.175V45.225H176.347V60.175H178.347ZM178.347 30.275V22.8H176.347V30.275H178.347ZM178.347 22.8C178.347 21.3106 178.226 19.8815 177.979 18.5142L176.011 18.8687C176.234 20.1099 176.347 21.4198 176.347 22.8H178.347ZM174.632 10.5575C173.796 9.40708 172.821 8.33894 171.712 7.35259L170.383 8.84741C171.391 9.74311 172.267 10.7053 173.014 11.7334L174.632 10.5575ZM171.712 7.35259C170.563 6.33179 169.33 5.44313 168.013 4.68775L167.018 6.42282C168.215 7.10889 169.336 7.91671 170.383 8.84741L171.712 7.35259ZM159.438 1.81003C158 1.60283 156.503 1.49999 154.947 1.49999V3.49999C156.415 3.49999 157.817 3.59702 159.153 3.78958L159.438 1.81003ZM90.1975 218.85C87.0415 218.85 84.0566 218.588 81.2409 218.067L80.877 220.033C83.8235 220.579 86.931 220.85 90.1975 220.85V218.85ZM65.0646 210.879C62.7855 209.075 60.6916 206.96 58.7838 204.532L57.2111 205.768C59.2104 208.312 61.4142 210.54 63.8233 212.447L65.0646 210.879ZM58.7838 204.532C56.6457 201.811 54.8075 198.771 53.2712 195.41L51.4522 196.241C53.0502 199.738 54.9692 202.914 57.2111 205.768L58.7838 204.532ZM47.9778 174.652C47.6246 171.238 47.4475 167.638 47.4475 163.85H45.4475C45.4475 167.7 45.6274 171.369 45.9884 174.857L47.9778 174.652ZM47.4475 163.85C47.4475 160.141 47.6219 156.622 47.9697 153.292L45.9806 153.084C45.6248 156.489 45.4475 160.078 45.4475 163.85H47.4475ZM53.2366 133.044C54.7766 129.774 56.6213 126.839 58.7688 124.236L57.2261 122.964C54.9657 125.703 53.0335 128.781 51.4272 132.192L53.2366 133.044ZM58.7688 124.236C60.7149 121.878 62.8634 119.829 65.2142 118.087L64.0236 116.48C61.5369 118.323 59.2712 120.485 57.2261 122.964L58.7688 124.236ZM81.5812 111.322C84.3996 110.842 87.3879 110.6 90.5475 110.6V108.6C87.2862 108.6 84.1849 108.849 81.2451 109.35L81.5812 111.322ZM90.5475 110.6C93.6697 110.6 96.6182 110.85 99.3948 111.348L99.7476 109.379C96.8436 108.859 93.7763 108.6 90.5475 108.6V110.6ZM115.411 118.318C117.674 120.09 119.741 122.171 121.609 124.565L123.186 123.335C121.222 120.819 119.042 118.62 116.644 116.743L115.411 118.318ZM121.626 124.586C123.784 127.203 125.637 130.163 127.182 133.474L128.995 132.628C127.383 129.175 125.442 126.069 123.169 123.314L121.626 124.586ZM132.43 153.904C132.775 157.26 132.947 160.808 132.947 164.55H134.947C134.947 160.747 134.772 157.13 134.419 153.7L132.43 153.904ZM132.947 164.55C132.947 168.315 132.772 171.889 132.424 175.273L134.413 175.479C134.77 172.02 134.947 168.377 134.947 164.55H132.947ZM127.153 195.868C125.612 199.204 123.767 202.204 121.618 204.873L123.176 206.127C125.434 203.322 127.364 200.181 128.969 196.706L127.153 195.868ZM121.609 204.885C119.728 207.295 117.638 209.389 115.34 211.169L116.565 212.75C119 210.863 121.207 208.651 123.186 206.115L121.609 204.885ZM99.1324 218.112C96.3305 218.603 93.3527 218.85 90.1975 218.85V220.85C93.4568 220.85 96.5508 220.595 99.4777 220.082L99.1324 218.112ZM171.047 8.1L169.719 9.59482L169.719 9.59482L171.047 8.1ZM171.397 247.15L172.768 248.606L172.768 248.606L171.397 247.15ZM139.897 247.15L138.527 248.606L138.527 248.606L139.897 247.15ZM133.947 223.35H135.947L132.185 222.404L133.947 223.35ZM111.547 245.75L110.587 243.996L110.578 244.001L110.569 244.006L111.547 245.75ZM39.0975 242.6L38.0039 244.275L38.0116 244.28L38.0194 244.285L39.0975 242.6ZM12.1475 211.1L10.3288 211.932L10.3374 211.951L10.3464 211.969L12.1475 211.1ZM12.1475 117.3L10.3524 116.418L10.3461 116.431L10.34 116.444L12.1475 117.3ZM39.0975 86.5L38.0282 84.8098L38.0282 84.8098L39.0975 86.5ZM111.547 83.35L110.602 85.1123L110.602 85.1123L111.547 83.35ZM133.597 105.05L131.845 106.014L135.597 105.05H133.597ZM139.197 8.1L140.565 9.55908L140.568 9.5564L139.197 8.1ZM122.397 205.5L120.839 204.246L120.83 204.258L120.821 204.269L122.397 205.5ZM122.397 123.95L120.821 125.181L120.837 125.202L120.855 125.223L122.397 123.95ZM57.9975 123.6L56.4547 122.327L56.4547 122.327L57.9975 123.6ZM57.9975 205.15L59.5701 203.914L59.5701 203.914L57.9975 205.15ZM154.947 0.499987C153.37 0.499987 151.851 0.602815 150.392 0.811741L150.959 4.77134C152.215 4.59153 153.543 4.49999 154.947 4.49999V0.499987ZM141.597 3.80768C140.24 4.6098 138.982 5.5559 137.827 6.6436L140.568 9.5564C141.511 8.66919 142.532 7.90156 143.632 7.25113L141.597 3.80768ZM137.83 6.64092C136.76 7.64358 135.822 8.73875 135.021 9.9263L138.336 12.1641C138.965 11.2326 139.706 10.3643 140.565 9.55907L137.83 6.64092ZM131.925 17.909C131.705 19.2512 131.597 20.6491 131.597 22.1H135.597C135.597 20.8467 135.69 19.6657 135.872 18.5544L131.925 17.909ZM131.597 22.1V29.0125H135.597V22.1H131.597ZM131.597 42.8375V56.6625H135.597V42.8375H131.597ZM131.597 70.4875V84.3125H135.597V70.4875H131.597ZM131.597 98.1375V105.05H135.597V98.1375H131.597ZM135.35 104.086C134.026 101.679 132.558 99.4036 130.945 97.2606L127.749 99.6663C129.245 101.654 130.61 103.769 131.845 106.014L135.35 104.086ZM119.368 85.8927C117.211 84.3241 114.919 82.8893 112.493 81.5877L110.602 85.1123C112.873 86.3311 115.011 87.6698 117.016 89.1279L119.368 85.8927ZM112.493 81.5877C109.913 80.2031 107.235 78.9999 104.46 77.9778L103.078 81.7313C105.68 82.6897 108.187 83.8167 110.602 85.1123L112.493 81.5877ZM87.3744 74.0894C84.5403 73.7961 81.6311 73.65 78.6475 73.65V77.65C81.5005 77.65 84.272 77.7897 86.9627 78.0682L87.3744 74.0894ZM78.6475 73.65C75.0145 73.65 71.4767 73.8595 68.0347 74.28L68.5197 78.2505C71.7928 77.8506 75.1684 77.65 78.6475 77.65V73.65ZM47.4722 79.8011C44.2043 81.2244 41.056 82.8942 38.0282 84.8098L40.1667 88.1901C43.0228 86.3833 45.9901 84.8096 49.0695 83.4683L47.4722 79.8011ZM38.0282 84.8098C35.0109 86.7187 32.1585 88.8338 29.4717 91.1547L32.0865 94.1817C34.6226 91.9909 37.3157 89.9939 40.1667 88.1901L38.0282 84.8098ZM15.5744 107.194C13.6876 110.096 11.9472 113.171 10.3524 116.418L13.9426 118.182C15.4703 115.072 17.1324 112.136 18.928 109.375L15.5744 107.194ZM10.34 116.444C9.47174 118.277 8.66236 120.15 7.91176 122.063L11.6355 123.524C12.3532 121.695 13.1264 119.905 13.9549 118.156L10.34 116.444ZM4.19361 133.702C3.22191 137.555 2.45364 141.544 1.8877 145.67L5.8506 146.214C6.39747 142.227 7.13835 138.383 8.07214 134.68L4.19361 133.702ZM0.822339 157.78C0.739055 159.775 0.697462 161.799 0.697462 163.85H4.69746C4.69746 161.853 4.73796 159.885 4.81886 157.947L0.822339 157.78ZM0.697462 163.85C0.697462 165.927 0.740106 167.978 0.825482 170.004L4.82193 169.835C4.73898 167.867 4.69746 165.872 4.69746 163.85H0.697462ZM1.90997 182.28C2.48146 186.446 3.25538 190.489 4.23262 194.41L8.11385 193.442C7.1729 189.667 6.42561 185.766 5.87285 181.736L1.90997 182.28ZM7.93317 206.217C8.6746 208.157 9.47314 210.062 10.3288 211.932L13.9661 210.268C13.1464 208.477 12.3809 206.65 11.6696 204.789L7.93317 206.217ZM10.3464 211.969C11.9378 215.266 13.6741 218.391 15.5562 221.345L18.9294 219.195C17.1356 216.38 15.4751 213.393 13.9486 210.23L10.3464 211.969ZM29.4351 237.733C32.1251 240.12 34.9816 242.301 38.0039 244.275L40.191 240.925C37.3326 239.059 34.6324 236.997 32.0899 234.741L29.4351 237.733ZM38.0194 244.285C41.056 246.228 44.195 247.927 47.436 249.38L49.0725 245.73C46.0144 244.359 43.0489 242.754 40.1756 240.915L38.0194 244.285ZM67.9974 255.129C71.462 255.577 75.0123 255.8 78.6475 255.8V251.8C75.1762 251.8 71.7974 251.587 68.51 251.162L67.9974 255.129ZM78.6475 255.8C81.6435 255.8 84.5647 255.646 87.4105 255.337L86.9789 251.361C84.2834 251.653 81.5065 251.8 78.6475 251.8V255.8ZM104.526 251.256C107.289 250.19 109.956 248.936 112.526 247.494L110.569 244.006C108.167 245.353 105.672 246.526 103.086 247.524L104.526 251.256ZM112.508 247.504C114.981 246.15 117.314 244.664 119.507 243.045L117.131 239.827C115.088 241.335 112.907 242.725 110.587 243.996L112.508 247.504ZM131.265 231.324C132.9 229.115 134.381 226.771 135.71 224.296L132.185 222.404C130.946 224.715 129.567 226.894 128.049 228.945L131.265 231.324ZM131.947 223.35V225.537H135.947V223.35H131.947ZM131.947 229.912V232.1H135.947V229.912H131.947ZM131.947 232.1C131.947 233.649 132.06 235.139 132.289 236.568L136.238 235.935C136.046 234.733 135.947 233.455 135.947 232.1H131.947ZM135.543 245.089C136.393 246.363 137.389 247.535 138.527 248.606L141.268 245.694C140.345 244.824 139.547 243.883 138.87 242.869L135.543 245.089ZM138.527 248.606C139.682 249.694 140.94 250.64 142.297 251.442L144.332 247.999C143.232 247.348 142.211 246.581 141.268 245.694L138.527 248.606ZM151.092 254.438C152.551 254.647 154.07 254.75 155.647 254.75V250.75C154.243 250.75 152.915 250.658 151.659 250.479L151.092 254.438ZM155.647 254.75C157.225 254.75 158.744 254.647 160.203 254.438L159.636 250.479C158.38 250.658 157.051 250.75 155.647 250.75V254.75ZM168.998 251.442C170.355 250.64 171.613 249.694 172.768 248.606L170.027 245.694C169.084 246.581 168.063 247.348 166.963 247.999L168.998 251.442ZM172.768 248.606C173.906 247.535 174.902 246.363 175.752 245.089L172.424 242.869C171.748 243.883 170.95 244.824 170.027 245.694L172.768 248.606ZM179.006 236.568C179.235 235.139 179.347 233.649 179.347 232.1H175.347C175.347 233.455 175.249 234.733 175.057 235.935L179.006 236.568ZM179.347 232.1V224.625H175.347V232.1H179.347ZM179.347 209.675V194.725H175.347V209.675H179.347ZM179.347 179.775V164.825H175.347V179.775H179.347ZM179.347 149.875V134.925H175.347V149.875H179.347ZM179.347 119.975V105.025H175.347V119.975H179.347ZM179.347 90.075V75.125H175.347V90.075H179.347ZM179.347 60.175V45.225H175.347V60.175H179.347ZM179.347 30.275V22.8H175.347V30.275H179.347ZM179.347 22.8C179.347 21.256 179.221 19.7673 178.963 18.3369L175.027 19.046C175.239 20.2241 175.347 21.4744 175.347 22.8H179.347ZM175.441 9.96949C174.56 8.75799 173.537 7.63686 172.376 6.60518L169.719 9.59482C170.675 10.4452 171.502 11.3544 172.205 12.3214L175.441 9.96949ZM172.376 6.60518C171.177 5.53932 169.888 4.61026 168.51 3.82022L166.52 7.29035C167.657 7.94177 168.722 8.70917 169.719 9.59482L172.376 6.60518ZM159.581 0.82026C158.092 0.605743 156.547 0.499987 154.947 0.499987V4.49999C156.371 4.49999 157.725 4.59411 159.01 4.77935L159.581 0.82026ZM90.1975 217.85C87.0968 217.85 84.1732 217.593 81.4229 217.084L80.695 221.017C83.707 221.574 86.8757 221.85 90.1975 221.85V217.85ZM65.6853 210.095C63.4712 208.342 61.4322 206.284 59.5701 203.914L56.4248 206.386C58.4698 208.988 60.7286 211.273 63.2026 213.231L65.6853 210.095ZM59.5701 203.914C57.4839 201.259 55.6862 198.288 54.1807 194.994L50.5427 196.657C52.1715 200.221 54.1309 203.466 56.4248 206.386L59.5701 203.914ZM48.9725 174.549C48.6231 171.173 48.4475 167.607 48.4475 163.85H44.4475C44.4475 167.731 44.6289 171.435 44.9937 174.96L48.9725 174.549ZM48.4475 163.85C48.4475 160.172 48.6204 156.688 48.9643 153.396L44.986 152.98C44.6263 156.423 44.4475 160.047 44.4475 163.85H48.4475ZM54.1413 133.47C55.6481 130.27 57.4491 127.407 59.5402 124.873L56.4547 122.327C54.138 125.135 52.1619 128.284 50.5225 131.766L54.1413 133.47ZM59.5402 124.873C61.4367 122.574 63.5266 120.582 65.8095 118.891L63.4283 115.677C60.8737 117.569 58.5493 119.788 56.4547 122.327L59.5402 124.873ZM81.7492 112.308C84.507 111.838 87.4387 111.6 90.5475 111.6V107.6C87.2354 107.6 84.0775 107.853 81.077 108.365L81.7492 112.308ZM90.5475 111.6C93.6164 111.6 96.5055 111.846 99.2184 112.332L99.924 108.395C96.9563 107.863 93.8296 107.6 90.5475 107.6V111.6ZM114.794 119.105C116.99 120.824 119 122.847 120.821 125.181L123.974 122.719C121.963 120.143 119.726 117.886 117.26 115.955L114.794 119.105ZM120.855 125.223C122.956 127.769 124.764 130.657 126.276 133.897L129.901 132.205C128.256 128.681 126.271 125.502 123.94 122.677L120.855 125.223ZM131.435 154.007C131.776 157.325 131.947 160.839 131.947 164.55H135.947C135.947 160.716 135.77 157.065 135.414 153.598L131.435 154.007ZM131.947 164.55C131.947 168.284 131.774 171.824 131.429 175.171L135.408 175.581C135.768 172.085 135.947 168.407 135.947 164.55H131.947ZM126.245 195.448C124.736 198.715 122.933 201.645 120.839 204.246L123.955 206.754C126.268 203.881 128.24 200.669 129.876 197.125L126.245 195.448ZM120.821 204.269C118.988 206.618 116.957 208.652 114.727 210.379L117.177 213.541C119.681 211.601 121.947 209.328 123.974 206.731L120.821 204.269ZM98.9597 217.127C96.2203 217.607 93.3007 217.85 90.1975 217.85V221.85C93.5089 221.85 96.661 221.591 99.6504 221.067L98.9597 217.127Z" fill="black"/>
</svg>
