<svg width="223" height="251" viewBox="0 0 223 251" fill="none" xmlns="http://www.w3.org/2000/svg">
<path d="M23.8664 249C17.0997 249 11.7331 247.133 7.76641 243.4C4.03307 239.667 2.16641 234.417 2.16641 227.65V23.6C2.16641 16.8333 4.03307 11.5833 7.76641 7.85C11.7331 4.11666 17.0997 2.24998 23.8664 2.24998H93.1664C133.533 2.24998 164.8 13.1 186.966 34.8C209.366 56.2667 220.566 86.4833 220.566 125.45C220.566 164.65 209.366 195.1 186.966 216.8C164.8 238.267 133.533 249 93.1664 249H23.8664ZM90.3664 212.25C147.066 212.25 175.416 183.317 175.416 125.45C175.416 67.8167 147.066 39 90.3664 39H47.3164V212.25H90.3664Z" fill="#F5F5F5"/>
<path d="M7.76641 243.4L7.0593 244.107L7.07001 244.118L7.08104 244.128L7.76641 243.4ZM7.76641 7.85L7.08104 7.1218L7.07001 7.13218L7.0593 7.14289L7.76641 7.85ZM186.966 34.8L186.267 35.5146L186.275 35.522L186.966 34.8ZM186.966 216.8L187.662 217.518L187.662 217.518L186.966 216.8ZM47.3164 39V38H46.3164V39H47.3164ZM47.3164 212.25H46.3164V213.25H47.3164V212.25ZM23.8664 248C22.3845 248 20.9779 247.908 19.6454 247.726L19.3741 249.707C20.8042 249.903 22.302 250 23.8664 250V248ZM11.764 245.137C10.5641 244.443 9.46041 243.621 8.45177 242.672L7.08104 244.128C8.20173 245.183 9.42912 246.097 10.762 246.868L11.764 245.137ZM8.47352 242.693C7.51788 241.737 6.69219 240.676 5.99554 239.509L4.27799 240.533C5.05883 241.842 5.98624 243.034 7.0593 244.107L8.47352 242.693ZM3.43309 231.796C3.25586 230.493 3.16641 229.111 3.16641 227.65H1.16641C1.16641 229.192 1.26082 230.665 1.45132 232.066L3.43309 231.796ZM3.16641 227.65V220.362H1.16641V227.65H3.16641ZM3.16641 205.787V191.212H1.16641V205.787H3.16641ZM3.16641 176.637V162.062H1.16641V176.637H3.16641ZM3.16641 147.487V132.912H1.16641V147.487H3.16641ZM3.16641 118.337V103.762H1.16641V118.337H3.16641ZM3.16641 89.1875V74.6125H1.16641V89.1875H3.16641ZM3.16641 60.0375V45.4625H1.16641V60.0375H3.16641ZM3.16641 30.8875V23.6H1.16641V30.8875H3.16641ZM3.16641 23.6C3.16641 22.1389 3.25586 20.7572 3.43309 19.4538L1.45132 19.1843C1.26082 20.5854 1.16641 22.0577 1.16641 23.6H3.16641ZM5.99554 11.7413C6.69219 10.5736 7.51788 9.51274 8.47352 8.5571L7.0593 7.14289C5.98625 8.21594 5.05883 9.40774 4.27799 10.7166L5.99554 11.7413ZM8.45177 8.5782C9.46041 7.62889 10.5641 6.80737 11.764 6.11276L10.762 4.38186C9.42912 5.15343 8.20173 6.06703 7.08104 7.1218L8.45177 8.5782ZM19.6454 3.52448C20.9779 3.34201 22.3845 3.24998 23.8664 3.24998V1.24998C22.302 1.24998 20.8042 1.34712 19.3741 1.54298L19.6454 3.52448ZM23.8664 3.24998H32.5289V1.24998H23.8664V3.24998ZM49.8539 3.24998H67.1789V1.24998H49.8539V3.24998ZM84.5039 3.24998H93.1664V1.24998H84.5039V3.24998ZM93.1664 3.24998C96.0315 3.24998 98.85 3.30489 101.622 3.41465L101.701 1.41621C98.9019 1.30538 96.0571 1.24998 93.1664 1.24998V3.24998ZM118.445 4.82852C124.205 5.58778 129.731 6.62062 135.024 7.92635L135.503 5.98456C130.134 4.66005 124.535 3.61398 118.707 2.84567L118.445 4.82852ZM151.082 13.0012C156.418 15.0955 161.468 17.5264 166.232 20.2933L167.236 18.5638C162.381 15.7439 157.239 13.2694 151.812 11.1395L151.082 13.0012ZM180.02 29.8898C182.177 31.6748 184.26 33.5497 186.267 35.5146L187.666 34.0854C185.619 32.0817 183.495 30.1695 181.295 28.3488L180.02 29.8898ZM186.275 35.522C188.26 37.4244 190.156 39.3959 191.963 41.4366L193.46 40.1107C191.616 38.0288 189.683 36.0179 187.658 34.078L186.275 35.522ZM201.774 54.5698C204.639 59.1502 207.158 64.0031 209.331 69.129L211.172 68.3483C208.959 63.1283 206.392 58.1817 203.47 53.5094L201.774 54.5698ZM214.641 84.6717C216.015 89.8186 217.102 95.1934 217.901 100.797L219.881 100.514C219.071 94.8371 217.969 89.3841 216.573 84.156L214.641 84.6717ZM219.393 117.2C219.508 119.904 219.566 122.654 219.566 125.45H221.566C221.566 122.627 221.508 119.848 221.391 117.115L219.393 117.2ZM219.566 125.45C219.566 128.264 219.508 131.031 219.393 133.753L221.391 133.838C221.508 131.087 221.566 128.291 221.566 125.45H219.566ZM217.901 150.263C217.101 155.903 216.014 161.314 214.641 166.497L216.574 167.009C217.969 161.746 219.071 156.257 219.881 150.544L217.901 150.263ZM209.333 182.154C207.16 187.32 204.642 192.214 201.779 196.835L203.479 197.888C206.399 193.176 208.965 188.189 211.177 182.929L209.333 182.154ZM191.964 210.099C190.156 212.162 188.258 214.157 186.271 216.082L187.662 217.518C189.688 215.556 191.623 213.522 193.468 211.417L191.964 210.099ZM186.271 216.082C184.257 218.032 182.168 219.892 180.003 221.663L181.269 223.211C183.478 221.405 185.609 219.507 187.662 217.518L186.271 216.082ZM166.184 231.169C161.416 233.905 156.362 236.308 151.022 238.377L151.745 240.242C157.175 238.138 162.32 235.691 167.179 232.904L166.184 231.169ZM134.97 243.387C129.682 244.676 124.162 245.694 118.409 246.443L118.667 248.427C124.488 247.669 130.08 246.637 135.443 245.331L134.97 243.387ZM101.609 247.838C98.8413 247.946 96.0271 248 93.1664 248V250C96.0524 250 98.8926 249.945 101.687 249.836L101.609 247.838ZM93.1664 248H84.5039V250H93.1664V248ZM67.1789 248H49.8539V250H67.1789V248ZM32.5289 248H23.8664V250H32.5289V248ZM90.3664 211.25H79.6039V213.25H90.3664V211.25ZM58.0789 211.25H47.3164V213.25H58.0789V211.25ZM48.3164 212.25V205.031H46.3164V212.25H48.3164ZM48.3164 190.594V176.156H46.3164V190.594H48.3164ZM48.3164 161.719V147.281H46.3164V161.719H48.3164ZM48.3164 132.844V118.406H46.3164V132.844H48.3164ZM48.3164 103.969V89.5312H46.3164V103.969H48.3164ZM48.3164 75.0937V60.6562H46.3164V75.0937H48.3164ZM48.3164 46.2187V39H46.3164V46.2187H48.3164ZM47.3164 40H58.0789V38H47.3164V40ZM79.6039 40H90.3664V38H79.6039V40ZM90.3664 40C92.7269 40 95.037 40.0502 97.2968 40.1506L97.3856 38.1526C95.095 38.0508 92.7552 38 90.3664 38V40ZM111.031 41.4709C115.783 42.1986 120.262 43.1959 124.471 44.461L125.047 42.5457C120.741 41.2513 116.17 40.2346 111.334 39.4939L111.031 41.4709ZM137.22 49.526C141.398 51.6541 145.219 54.1374 148.686 56.975L149.953 55.4273C146.37 52.495 142.428 49.9341 138.128 47.7439L137.22 49.526ZM158.201 66.7757C160.925 70.308 163.308 74.1942 165.348 78.4368L167.15 77.5701C165.053 73.2086 162.598 69.2025 159.785 65.5543L158.201 66.7757ZM170.176 91.2933C171.379 95.5206 172.326 100.014 173.018 104.774L174.997 104.487C174.294 99.6464 173.329 95.0659 172.1 90.7461L170.176 91.2933ZM174.273 118.518C174.369 120.779 174.416 123.09 174.416 125.45H176.416C176.416 123.063 176.368 120.724 176.271 118.433L174.273 118.518ZM174.416 125.45C174.416 127.815 174.369 130.131 174.274 132.397L176.272 132.481C176.368 130.186 176.416 127.842 176.416 125.45H174.416ZM173.024 146.17C172.335 150.941 171.391 155.445 170.194 159.683L172.119 160.227C173.342 155.897 174.303 151.306 175.003 146.456L173.024 146.17ZM165.384 172.579C163.351 176.838 160.975 180.74 158.26 184.288L159.848 185.503C162.652 181.84 165.099 177.818 167.189 173.441L165.384 172.579ZM148.76 194.144C145.295 197.002 141.474 199.503 137.296 201.646L138.209 203.426C142.51 201.219 146.452 198.64 150.033 195.687L148.76 194.144ZM124.535 206.752C120.32 208.027 115.832 209.033 111.072 209.767L111.377 211.743C116.222 210.997 120.801 209.971 125.114 208.666L124.535 206.752ZM97.3108 211.098C95.0466 211.199 92.7318 211.25 90.3664 211.25V213.25C92.7603 213.25 95.1049 213.199 97.4001 213.096L97.3108 211.098ZM7.76641 243.4L6.3522 244.814L6.37362 244.836L6.39568 244.856L7.76641 243.4ZM7.76641 7.85L6.39568 6.3936L6.37362 6.41436L6.3522 6.43578L7.76641 7.85ZM186.966 34.8L185.567 36.2292L185.575 36.2366L185.583 36.244L186.966 34.8ZM186.966 216.8L188.358 218.237L188.358 218.236L186.966 216.8ZM47.3164 39V37H45.3164V39H47.3164ZM47.3164 212.25H45.3164V214.25H47.3164V212.25ZM23.8664 247C22.4258 247 21.0647 246.911 19.7811 246.735L19.2384 250.698C20.7174 250.9 22.2607 251 23.8664 251V247ZM12.265 244.272C11.1315 243.616 10.0898 242.84 9.13714 241.944L6.39568 244.856C7.57239 245.964 8.86165 246.924 10.261 247.734L12.265 244.272ZM9.18062 241.986C8.2837 241.089 7.50887 240.094 6.85432 238.996L3.41921 241.046C4.24215 242.425 5.22043 243.682 6.3522 244.814L9.18062 241.986ZM4.42397 231.661C4.25339 230.407 4.16641 229.07 4.16641 227.65H0.166408C0.166408 229.233 0.263296 230.75 0.460441 232.2L4.42397 231.661ZM4.16641 227.65V220.362H0.166408V227.65H4.16641ZM4.16641 205.787V191.212H0.166408V205.787H4.16641ZM4.16641 176.637V162.062H0.166408V176.637H4.16641ZM4.16641 147.487V132.912H0.166408V147.487H4.16641ZM4.16641 118.337V103.762H0.166408V118.337H4.16641ZM4.16641 89.1875V74.6125H0.166408V89.1875H4.16641ZM4.16641 60.0375V45.4625H0.166408V60.0375H4.16641ZM4.16641 30.8875V23.6H0.166408V30.8875H4.16641ZM4.16641 23.6C4.16641 22.1796 4.25339 20.8431 4.42397 19.5885L0.460441 19.0496C0.263296 20.4995 0.166408 22.017 0.166408 23.6H4.16641ZM6.85432 12.2536C7.50887 11.1565 8.2837 10.1611 9.18062 9.26421L6.3522 6.43578C5.22043 7.56755 4.24215 8.82482 3.41921 10.2042L6.85432 12.2536ZM9.13714 9.30639C10.0898 8.40981 11.1315 7.63433 12.265 6.97821L10.261 3.51641C8.86165 4.32646 7.57239 5.2861 6.39568 6.3936L9.13714 9.30639ZM19.7811 4.51523C21.0647 4.33946 22.4258 4.24998 23.8664 4.24998V0.249985C22.2607 0.249985 20.7174 0.349677 19.2384 0.552223L19.7811 4.51523ZM23.8664 4.24998H32.5289V0.249985H23.8664V4.24998ZM49.8539 4.24998H67.1789V0.249985H49.8539V4.24998ZM84.5039 4.24998H93.1664V0.249985H84.5039V4.24998ZM93.1664 4.24998C96.0188 4.24998 98.824 4.30464 101.582 4.41386L101.74 0.416996C98.9279 0.305622 96.0698 0.249985 93.1664 0.249985V4.24998ZM118.315 5.81994C124.04 6.57468 129.529 7.6009 134.785 8.89725L135.743 5.01366C130.335 3.67976 124.7 2.62708 118.837 1.85425L118.315 5.81994ZM150.716 13.9321C156.007 16.0085 161.011 18.4176 165.73 21.158L167.739 17.699C162.837 14.8527 157.65 12.3563 152.178 10.2086L150.716 13.9321ZM179.382 30.6603C181.518 32.4275 183.58 34.2838 185.567 36.2292L188.366 33.3708C186.299 31.3477 184.154 29.4168 181.932 27.5783L179.382 30.6603ZM185.583 36.244C187.548 38.1276 189.425 40.0795 191.214 42.0995L194.209 39.4478C192.347 37.3452 190.394 35.3146 188.35 33.356L185.583 36.244ZM200.926 55.0999C203.762 59.6345 206.257 64.4404 208.41 69.5194L212.093 67.958C209.86 62.6909 207.268 57.6974 204.318 52.9792L200.926 55.0999ZM213.675 84.9296C215.038 90.0358 216.117 95.3716 216.911 100.938L220.871 100.373C220.056 94.6589 218.946 89.1668 217.54 83.8981L213.675 84.9296ZM218.394 117.243C218.509 119.932 218.566 122.668 218.566 125.45H222.566C222.566 122.613 222.508 119.82 222.39 117.072L218.394 117.243ZM218.566 125.45C218.566 128.25 218.509 131.003 218.393 133.71L222.39 133.88C222.508 131.115 222.566 128.305 222.566 125.45H218.566ZM216.911 150.123C216.116 155.726 215.037 161.098 213.674 166.241L217.541 167.266C218.946 161.961 220.056 156.434 220.871 150.684L216.911 150.123ZM208.412 181.766C206.258 186.886 203.764 191.733 200.929 196.308L204.329 198.415C207.277 193.657 209.867 188.623 212.099 183.317L208.412 181.766ZM191.212 209.44C189.422 211.483 187.543 213.457 185.575 215.364L188.358 218.236C190.403 216.255 192.357 214.202 194.22 212.076L191.212 209.44ZM185.575 215.363C183.582 217.294 181.513 219.136 179.37 220.889L181.902 223.985C184.132 222.161 186.284 220.245 188.358 218.237L185.575 215.363ZM165.686 230.302C160.964 233.011 155.956 235.393 150.661 237.445L152.106 241.175C157.582 239.052 162.773 236.585 167.677 233.771L165.686 230.302ZM134.733 242.416C129.483 243.695 123.999 244.707 118.28 245.452L118.796 249.418C124.651 248.656 130.279 247.618 135.68 246.302L134.733 242.416ZM101.57 246.838C98.8157 246.946 96.0145 247 93.1664 247V251C96.065 251 98.9183 250.945 101.726 250.835L101.57 246.838ZM93.1664 247H84.5039V251H93.1664V247ZM67.1789 247H49.8539V251H67.1789V247ZM32.5289 247H23.8664V251H32.5289V247ZM90.3664 210.25H79.6039V214.25H90.3664V210.25ZM58.0789 210.25H47.3164V214.25H58.0789V210.25ZM49.3164 212.25V205.031H45.3164V212.25H49.3164ZM49.3164 190.594V176.156H45.3164V190.594H49.3164ZM49.3164 161.719V147.281H45.3164V161.719H49.3164ZM49.3164 132.844V118.406H45.3164V132.844H49.3164ZM49.3164 103.969V89.5312H45.3164V103.969H49.3164ZM49.3164 75.0937V60.6562H45.3164V75.0937H49.3164ZM49.3164 46.2187V39H45.3164V46.2187H49.3164ZM47.3164 41H58.0789V37H47.3164V41ZM79.6039 41H90.3664V37H79.6039V41ZM90.3664 41C92.7127 41 95.008 41.0499 97.2524 41.1497L97.43 37.1536C95.124 37.0511 92.7694 37 90.3664 37V41ZM110.879 42.4593C115.589 43.1807 120.023 44.1681 124.183 45.4187L125.335 41.588C120.98 40.2791 116.363 39.2525 111.485 38.5054L110.879 42.4593ZM136.766 50.417C140.883 52.514 144.643 54.9586 148.052 57.7488L150.586 54.6535C146.946 51.6738 142.943 49.0742 138.582 46.8528L136.766 50.417ZM157.409 67.3864C160.088 70.8607 162.435 74.6871 164.447 78.8702L168.052 77.1367C165.926 72.7158 163.435 68.6498 160.576 64.9436L157.409 67.3864ZM169.214 91.5669C170.404 95.7479 171.343 100.198 172.029 104.918L175.987 104.343C175.278 99.4627 174.304 94.8386 173.062 90.4725L169.214 91.5669ZM173.274 118.56C173.369 120.806 173.416 123.103 173.416 125.45H177.416C177.416 123.049 177.368 120.696 177.27 118.391L173.274 118.56ZM173.416 125.45C173.416 127.802 173.369 130.103 173.274 132.355L177.271 132.523C177.368 130.213 177.416 127.855 177.416 125.45H173.416ZM172.034 146.027C171.351 150.758 170.416 155.219 169.232 159.411L173.081 160.499C174.317 156.123 175.287 151.488 175.993 146.598L172.034 146.027ZM164.482 172.148C162.477 176.348 160.137 180.19 157.466 183.68L160.642 186.111C163.491 182.39 165.973 178.308 168.092 173.872L164.482 172.148ZM148.124 193.372C144.716 196.182 140.956 198.644 136.84 200.756L138.666 204.315C143.027 202.078 147.03 199.459 150.669 196.458L148.124 193.372ZM124.245 205.794C120.079 207.055 115.638 208.051 110.92 208.778L111.529 212.732C116.417 211.978 121.042 210.943 125.404 209.623L124.245 205.794ZM97.2661 210.099C95.0174 210.2 92.7175 210.25 90.3664 210.25V214.25C92.7746 214.25 95.1341 214.198 97.4448 214.095L97.2661 210.099Z" fill="black"/>
</svg>
