<svg width="165" height="183" viewBox="0 0 165 183" fill="none" xmlns="http://www.w3.org/2000/svg">
<path d="M147.731 131.1C151.698 131.1 154.848 132.617 157.181 135.65C159.748 138.683 161.031 142.767 161.031 147.9C161.031 155.133 156.715 161.2 148.081 166.1C140.148 170.533 131.165 174.15 121.131 176.95C111.098 179.517 101.531 180.8 92.4312 180.8C64.8979 180.8 43.0813 172.867 26.9813 157C10.8813 141.133 2.83125 119.433 2.83125 91.9C2.83125 74.4 6.33125 58.8833 13.3313 45.35C20.3313 31.8167 30.1313 21.3167 42.7313 13.85C55.5646 6.38332 70.0313 2.64998 86.1313 2.64998C101.531 2.64998 114.948 6.03332 126.381 12.8C137.815 19.5667 146.681 29.1333 152.981 41.5C159.281 53.8667 162.431 68.45 162.431 85.25C162.431 95.2833 157.998 100.3 149.131 100.3H45.8813C47.2813 116.4 51.8313 128.3 59.5313 136C67.2313 143.467 78.4313 147.2 93.1313 147.2C100.598 147.2 107.131 146.267 112.731 144.4C118.565 142.533 125.098 139.967 132.331 136.7C139.331 132.967 144.465 131.1 147.731 131.1ZM87.1813 33.45C75.2813 33.45 65.7146 37.1833 58.4813 44.65C51.4813 52.1167 47.2813 62.85 45.8813 76.85H124.981C124.515 62.6167 121.015 51.8833 114.481 44.65C107.948 37.1833 98.8479 33.45 87.1813 33.45Z" fill="#F5F5F5"/>
<path d="M157.181 135.65L156.389 136.26L156.403 136.278L156.418 136.296L157.181 135.65ZM148.081 166.1L148.569 166.973L148.575 166.97L148.081 166.1ZM121.131 176.95L121.379 177.919L121.39 177.916L121.4 177.913L121.131 176.95ZM26.9813 157L26.2793 157.712L26.9813 157ZM13.3313 45.35L14.2195 45.8094L13.3313 45.35ZM42.7313 13.85L42.2283 12.9856L42.2215 12.9897L42.7313 13.85ZM126.381 12.8L126.891 11.9394L126.891 11.9394L126.381 12.8ZM152.981 41.5L152.09 41.9539L152.09 41.9539L152.981 41.5ZM45.8813 100.3V99.3H44.7905L44.885 100.387L45.8813 100.3ZM59.5313 136L58.8241 136.707L58.8296 136.713L58.8351 136.718L59.5313 136ZM112.731 144.4L112.426 143.448L112.415 143.451L112.731 144.4ZM132.331 136.7L132.743 137.611L132.773 137.598L132.802 137.582L132.331 136.7ZM58.4813 44.65L57.763 43.9542L57.7573 43.9601L57.7517 43.9661L58.4813 44.65ZM45.8813 76.85L44.8862 76.7505L44.7763 77.85H45.8813V76.85ZM124.981 76.85V77.85H126.015L125.981 76.8172L124.981 76.85ZM114.481 44.65L113.729 45.3085L113.734 45.3144L113.739 45.3203L114.481 44.65ZM147.731 130.1C146.478 130.1 145.028 130.346 143.398 130.808L143.943 132.732C145.468 132.3 146.725 132.1 147.731 132.1V130.1ZM135.576 133.926C134.399 134.493 133.161 135.124 131.861 135.818L132.802 137.582C134.081 136.9 135.296 136.282 136.445 135.727L135.576 133.926ZM131.92 135.789C130.282 136.528 128.681 137.232 127.116 137.899L127.9 139.739C129.479 139.066 131.093 138.356 132.743 137.611L131.92 135.789ZM117.374 141.756C115.671 142.373 114.022 142.937 112.426 143.448L113.036 145.352C114.657 144.834 116.33 144.262 118.055 143.637L117.374 141.756ZM112.415 143.451C110.922 143.949 109.359 144.38 107.724 144.743L108.158 146.695C109.856 146.318 111.486 145.869 113.047 145.349L112.415 143.451ZM98.0394 146.056C96.4531 146.152 94.8171 146.2 93.1313 146.2V148.2C94.8551 148.2 96.5315 148.151 98.1603 148.052L98.0394 146.056ZM93.1313 146.2C89.9829 146.2 87.0032 146.027 84.1914 145.682L83.9478 147.667C86.8485 148.023 89.9099 148.2 93.1313 148.2V146.2ZM67.2971 140.514C64.6711 139.051 62.3156 137.307 60.2274 135.282L58.8351 136.718C61.0526 138.868 63.5499 140.716 66.3239 142.261L67.2971 140.514ZM60.2384 135.293C58.0772 133.132 56.1657 130.624 54.506 127.764L52.7761 128.767C54.5163 131.766 56.5316 134.415 58.8241 136.707L60.2384 135.293ZM48.176 109.772C47.6043 106.777 47.1712 103.591 46.8775 100.213L44.885 100.387C45.184 103.825 45.6258 107.078 46.2114 110.147L48.176 109.772ZM45.8813 101.3H54.4854V99.3H45.8813V101.3ZM71.6938 101.3H88.9021V99.3H71.6938V101.3ZM106.11 101.3H123.319V99.3H106.11V101.3ZM140.527 101.3H149.131V99.3H140.527V101.3ZM149.131 101.3C151.367 101.3 153.373 100.994 155.132 100.358L154.452 98.4772C152.957 99.0178 151.189 99.3 149.131 99.3V101.3ZM162.804 91.1956C163.226 89.426 163.431 87.4415 163.431 85.25H161.431C161.431 87.3203 161.237 89.1449 160.859 90.732L162.804 91.1956ZM163.431 85.25C163.431 83.3247 163.39 81.4277 163.308 79.559L161.31 79.6469C161.391 81.4855 161.431 83.3532 161.431 85.25H163.431ZM162.254 68.218C161.693 64.355 160.931 60.6299 159.968 57.0432L158.036 57.562C158.978 61.0687 159.725 64.7164 160.275 68.5054L162.254 68.218ZM156.279 46.2339C155.535 44.4643 154.733 42.735 153.872 41.0461L152.09 41.9539C152.928 43.5988 153.71 45.2838 154.435 47.009L156.279 46.2339ZM153.872 41.0461C152.321 38.0009 150.615 35.121 148.753 32.407L147.104 33.5384C148.914 36.178 150.577 38.9829 152.09 41.9539L153.872 41.0461ZM135.156 17.6641C132.565 15.575 129.809 13.6668 126.891 11.9394L125.872 13.6606C128.71 15.34 131.386 17.1935 133.9 19.2211L135.156 17.6641ZM126.891 11.9394C123.844 10.1361 120.659 8.56998 117.336 7.24087L116.593 9.09783C119.822 10.3892 122.914 11.9102 125.872 13.6606L126.891 11.9394ZM96.7259 2.21179C93.3011 1.83704 89.7694 1.64998 86.1313 1.64998V3.64998C89.7009 3.64998 93.1598 3.83351 96.5084 4.19992L96.7259 2.21179ZM86.1313 1.64998C84.2007 1.64998 82.2927 1.70315 80.4074 1.80957L80.5201 3.80639C82.367 3.70214 84.2374 3.64998 86.1313 3.64998V1.64998ZM69.0299 3.14834C65.2202 3.84229 61.5143 4.77746 57.9125 5.95415L58.5336 7.85526C62.0475 6.70729 65.6656 5.79408 69.3883 5.11596L69.0299 3.14834ZM47.2864 10.2747C45.5733 11.1168 43.8872 12.0205 42.2284 12.9856L43.2341 14.7143C44.8529 13.7725 46.4977 12.891 48.1687 12.0696L47.2864 10.2747ZM42.2215 12.9897C39.0142 14.8903 35.9847 16.9858 33.1336 19.2764L34.3862 20.8356C37.1621 18.6054 40.1135 16.5636 43.2411 14.7103L42.2215 12.9897ZM18.1263 35.426C16.0623 38.4006 14.168 41.5556 12.443 44.8906L14.2195 45.8094C15.9063 42.5481 17.7565 39.4673 19.7695 36.5662L18.1263 35.426ZM12.443 44.8906C11.512 46.6905 10.6423 48.525 9.83387 50.3939L11.6695 51.188C12.4597 49.3611 13.3097 47.5682 14.2195 45.8094L12.443 44.8906ZM5.76325 61.8621C4.67911 65.6982 3.81955 69.6591 3.18409 73.7445L5.16032 74.0519C5.78384 70.0433 6.62652 66.1615 7.68787 62.406L5.76325 61.8621ZM1.97424 85.8306C1.87889 87.8273 1.83125 89.8505 1.83125 91.9H3.83125C3.83125 89.8815 3.87817 87.8901 3.97196 85.926L1.97424 85.8306ZM1.83125 91.9C1.83125 94.9661 1.93038 97.962 2.12884 100.888L4.12426 100.752C3.92899 97.8738 3.83125 94.9231 3.83125 91.9H1.83125ZM4.76496 118.681C6.20418 124.733 8.17398 130.408 10.6764 135.705L12.4847 134.85C10.0452 129.687 8.11986 124.144 6.71069 118.218L4.76496 118.681ZM20.2229 151.008C22.0988 153.347 24.1177 155.582 26.2793 157.712L27.6832 156.288C25.5763 154.211 23.6097 152.035 21.7831 149.757L20.2229 151.008ZM26.2793 157.712C28.443 159.845 30.7091 161.836 33.0777 163.686L34.3088 162.11C32.0014 160.307 29.7928 158.367 27.6832 156.288L26.2793 157.712ZM48.5085 173.086C53.8349 175.549 59.5315 177.488 65.5964 178.906L66.0516 176.958C60.1107 175.57 54.5435 173.673 49.348 171.27L48.5085 173.086ZM83.4275 181.506C86.3596 181.702 89.3609 181.8 92.4312 181.8V179.8C89.4034 179.8 86.4467 179.703 83.561 179.51L83.4275 181.506ZM92.4312 181.8C94.841 181.8 97.2821 181.711 99.7545 181.533L99.6109 179.538C97.1849 179.713 94.7917 179.8 92.4312 179.8V181.8ZM114.25 179.544C116.601 179.075 118.977 178.533 121.379 177.919L120.883 175.981C118.515 176.587 116.174 177.121 113.859 177.582L114.25 179.544ZM121.4 177.913C123.795 177.245 126.132 176.53 128.41 175.768L127.776 173.872C125.531 174.622 123.226 175.327 120.862 175.987L121.4 177.913ZM142.034 170.331C144.285 169.269 146.463 168.15 148.569 166.973L147.593 165.227C145.529 166.381 143.391 167.479 141.181 168.522L142.034 170.331ZM148.575 166.97C150.433 165.915 152.104 164.803 153.585 163.63L152.344 162.062C150.953 163.163 149.369 164.219 147.588 165.23L148.575 166.97ZM160.972 153.999C161.679 152.057 162.031 150.022 162.031 147.9H160.031C160.031 149.796 159.717 151.599 159.093 153.314L160.972 153.999ZM162.031 147.9C162.031 146.721 161.966 145.589 161.833 144.507L159.848 144.75C159.97 145.745 160.031 146.794 160.031 147.9H162.031ZM159.886 137.912C159.342 136.861 158.695 135.891 157.945 135.004L156.418 136.296C157.07 137.066 157.633 137.91 158.109 138.831L159.886 137.912ZM157.974 135.04C157.357 134.238 156.681 133.528 155.946 132.914L154.664 134.449C155.279 134.963 155.854 135.565 156.389 136.26L157.974 135.04ZM150.638 130.381C149.711 130.192 148.742 130.1 147.731 130.1V132.1C148.62 132.1 149.455 132.181 150.24 132.341L150.638 130.381ZM87.1813 32.45C84.376 32.45 81.6914 32.6539 79.1286 33.0636L79.4443 35.0386C81.8942 34.6468 84.4728 34.45 87.1813 34.45V32.45ZM64.0205 38.7649C61.7715 40.2392 59.6855 41.9696 57.763 43.9542L59.1995 45.3458C61.0225 43.464 62.9949 41.8286 65.117 40.4376L64.0205 38.7649ZM57.7517 43.9661C55.7341 46.1182 53.9464 48.5308 52.3875 51.201L54.1147 52.2094C55.6019 49.6619 57.3009 47.3711 59.2108 45.3339L57.7517 43.9661ZM46.2187 67.948C45.6387 70.7294 45.1949 73.6638 44.8862 76.7505L46.8763 76.9495C47.1786 73.9265 47.6123 71.0624 48.1766 68.3562L46.2187 67.948ZM45.8813 77.85H52.4729V75.85H45.8813V77.85ZM65.6563 77.85H78.8396V75.85H65.6563V77.85ZM92.0229 77.85H105.206V75.85H92.0229V77.85ZM118.39 77.85H124.981V75.85H118.39V77.85ZM125.981 76.8172C125.88 73.7573 125.641 70.8521 125.262 68.1025L123.281 68.3757C123.649 71.0497 123.884 73.8851 123.982 76.8828L125.981 76.8172ZM120.25 51.2928C118.837 48.5653 117.162 46.126 115.223 43.9797L113.739 45.3203C115.555 47.3312 117.134 49.6271 118.474 52.2129L120.25 51.2928ZM115.234 43.9915C113.475 41.9818 111.533 40.2312 109.407 38.7423L108.26 40.3805C110.25 41.7741 112.073 43.416 113.729 45.3085L115.234 43.9915ZM94.9324 33.047C92.4781 32.6482 89.8939 32.45 87.1813 32.45V34.45C89.7968 34.45 92.2731 34.6411 94.6117 35.0211L94.9324 33.047ZM157.181 135.65L155.596 136.869L155.624 136.906L155.654 136.942L157.181 135.65ZM148.081 166.1L149.057 167.846L149.068 167.839L148.081 166.1ZM121.131 176.95L121.627 178.888L121.648 178.882L121.669 178.876L121.131 176.95ZM26.9813 157L25.5774 158.424L26.9813 157ZM13.3313 45.35L15.1077 46.2688L13.3313 45.35ZM42.7313 13.85L41.7255 12.1213L41.7185 12.1253L41.7116 12.1294L42.7313 13.85ZM126.381 12.8L127.4 11.0788L127.4 11.0788L126.381 12.8ZM152.981 41.5L151.199 42.4078L151.199 42.4078L152.981 41.5ZM45.8813 100.3V98.3H43.6998L43.8888 100.473L45.8813 100.3ZM59.5313 136L58.117 137.414L58.1279 137.425L58.139 137.436L59.5313 136ZM112.731 144.4L112.122 142.495L112.11 142.499L112.099 142.503L112.731 144.4ZM132.331 136.7L133.154 138.523L133.214 138.496L133.272 138.465L132.331 136.7ZM58.4813 44.65L57.0448 43.2584L57.0334 43.2702L57.0222 43.2821L58.4813 44.65ZM45.8813 76.85L43.8912 76.651L43.6713 78.85H45.8813V76.85ZM124.981 76.85V78.85H127.048L126.98 76.7845L124.981 76.85ZM114.481 44.65L112.976 45.967L112.986 45.9789L112.997 45.9906L114.481 44.65ZM147.731 129.1C146.354 129.1 144.808 129.369 143.125 129.846L144.216 133.695C145.688 133.277 146.848 133.1 147.731 133.1V129.1ZM135.142 133.025C133.951 133.599 132.701 134.236 131.39 134.935L133.272 138.465C134.542 137.788 135.744 137.176 136.88 136.628L135.142 133.025ZM131.508 134.877C129.876 135.614 128.282 136.315 126.724 136.979L128.293 140.658C129.878 139.982 131.498 139.271 133.154 138.523L131.508 134.877ZM117.034 140.816C115.341 141.429 113.704 141.989 112.122 142.495L113.341 146.305C114.975 145.782 116.66 145.206 118.396 144.577L117.034 140.816ZM112.099 142.503C110.641 142.989 109.11 143.41 107.507 143.767L108.375 147.671C110.104 147.287 111.767 146.829 113.364 146.297L112.099 142.503ZM97.979 145.058C96.414 145.152 94.7981 145.2 93.1313 145.2V149.2C94.8741 149.2 96.5707 149.15 98.2207 149.05L97.979 145.058ZM93.1313 145.2C90.0194 145.2 87.0806 145.029 84.3132 144.689L83.826 148.659C86.7711 149.021 89.8735 149.2 93.1313 149.2V145.2ZM67.7837 139.64C65.2317 138.219 62.9471 136.526 60.9235 134.564L58.139 137.436C60.4211 139.649 62.9892 141.548 65.8372 143.134L67.7837 139.64ZM60.9455 134.586C58.85 132.49 56.9904 130.053 55.3709 127.262L51.9112 129.269C53.6916 132.337 55.7588 135.056 58.117 137.414L60.9455 134.586ZM49.1582 109.584C48.5936 106.626 48.1648 103.474 47.8737 100.127L43.8888 100.473C44.1904 103.942 44.6365 107.229 45.2291 110.334L49.1582 109.584ZM45.8813 102.3H54.4854V98.3H45.8813V102.3ZM71.6938 102.3H88.9021V98.3H71.6938V102.3ZM106.11 102.3H123.319V98.3H106.11V102.3ZM140.527 102.3H149.131V98.3H140.527V102.3ZM149.131 102.3C151.456 102.3 153.582 101.982 155.472 101.299L154.112 97.5368C152.749 98.0298 151.1 98.3 149.131 98.3V102.3ZM163.777 91.4274C164.22 89.5666 164.431 87.5021 164.431 85.25H160.431C160.431 87.2597 160.242 89.0043 159.886 90.5002L163.777 91.4274ZM164.431 85.25C164.431 83.3105 164.39 81.3989 164.307 79.5151L160.311 79.6908C160.391 81.5144 160.431 83.3674 160.431 85.25H164.431ZM163.244 68.0743C162.677 64.1743 161.908 60.4105 160.934 56.7838L157.071 57.8214C158.002 61.2881 158.74 64.897 159.285 68.6492L163.244 68.0743ZM157.201 45.8463C156.447 44.0545 155.635 42.3031 154.763 40.5921L151.199 42.4078C152.026 44.0307 152.797 45.6936 153.513 47.3966L157.201 45.8463ZM154.763 40.5921C153.193 37.5098 151.465 34.5925 149.578 31.8414L146.279 34.104C148.064 36.7065 149.705 39.474 151.199 42.4078L154.763 40.5921ZM135.783 16.8856C133.154 14.7658 130.359 12.8303 127.4 11.0788L125.363 14.5211C128.16 16.1766 130.796 18.0028 133.273 19.9996L135.783 16.8856ZM127.4 11.0788C124.308 9.24913 121.077 7.66034 117.707 6.31239L116.222 10.0263C119.403 11.2989 122.45 12.7972 125.363 14.5211L127.4 11.0788ZM96.8347 1.21772C93.3718 0.838797 89.8037 0.649984 86.1313 0.649984V4.64998C89.6666 4.64998 93.0892 4.83175 96.3996 5.19399L96.8347 1.21772ZM86.1313 0.649984C84.1823 0.649984 82.2556 0.70366 80.3511 0.811154L80.5765 4.8048C82.4042 4.70164 84.2558 4.64998 86.1313 4.64998V0.649984ZM68.8507 2.16453C64.9975 2.8664 61.2477 3.81254 57.602 5.00359L58.8442 8.80582C62.3141 7.6722 65.8882 6.76997 69.5675 6.09978L68.8507 2.16453ZM46.8453 9.37729C45.1111 10.2297 43.4044 11.1444 41.7255 12.1213L43.737 15.5787C45.3357 14.6486 46.9599 13.7781 48.6098 12.9671L46.8453 9.37729ZM41.7116 12.1294C38.4645 14.0537 35.396 16.1761 32.5072 18.4968L35.0125 21.6151C37.7508 19.4152 40.6632 17.4003 43.7509 15.5706L41.7116 12.1294ZM17.3048 34.8559C15.2152 37.8672 13.2988 41.0594 11.5548 44.4312L15.1077 46.2688C16.7755 43.0444 18.6036 40.0006 20.5911 37.1363L17.3048 34.8559ZM11.5548 44.4312C10.6132 46.2516 9.7336 48.1069 8.91606 49.9969L12.5873 51.585C13.3685 49.7791 14.2086 48.0071 15.1077 46.2688L11.5548 44.4312ZM4.80094 61.5901C3.70541 65.4665 2.8374 69.467 2.19597 73.5908L6.14844 74.2056C6.76599 70.2354 7.60022 66.3931 8.65018 62.678L4.80094 61.5901ZM0.975376 85.7829C0.879254 87.7959 0.831251 89.835 0.831251 91.9H4.83125C4.83125 89.897 4.87781 87.9215 4.97082 85.9737L0.975376 85.7829ZM0.831251 91.9C0.831251 94.9877 0.931076 98.0062 1.13114 100.955L5.12197 100.684C4.92829 97.8296 4.83125 94.9015 4.83125 91.9H0.831251ZM3.79209 118.912C5.24634 125.027 7.23835 130.769 9.77223 136.132L13.3889 134.423C10.9808 129.326 9.0777 123.849 7.68356 117.987L3.79209 118.912ZM19.4428 151.634C21.3434 154.004 23.3884 156.267 25.5774 158.424L28.3851 155.576C26.3056 153.526 24.3652 151.378 22.5632 149.131L19.4428 151.634ZM25.5774 158.424C27.7681 160.583 30.063 162.6 32.4621 164.474L34.9244 161.322C32.6475 159.543 30.4678 157.628 28.3851 155.576L25.5774 158.424ZM48.0888 173.993C53.4805 176.487 59.242 178.447 65.3688 179.879L66.2792 175.984C60.4002 174.61 54.8978 172.735 49.7677 170.363L48.0888 173.993ZM83.3607 182.504C86.316 182.701 89.3396 182.8 92.4312 182.8V178.8C89.4246 178.8 86.4902 178.704 83.6277 178.513L83.3607 182.504ZM92.4312 182.8C94.8656 182.8 97.3307 182.71 99.8263 182.53L99.5391 178.541C97.1363 178.714 94.767 178.8 92.4312 178.8V182.8ZM114.446 180.524C116.815 180.052 119.208 179.506 121.627 178.888L120.636 175.012C118.284 175.614 115.96 176.144 113.664 176.602L114.446 180.524ZM121.669 178.876C124.08 178.204 126.432 177.484 128.727 176.717L127.458 172.923C125.23 173.668 122.942 174.368 120.594 175.024L121.669 178.876ZM142.461 171.235C144.732 170.164 146.93 169.034 149.057 167.846L147.106 164.354C145.062 165.496 142.945 166.584 140.754 167.618L142.461 171.235ZM149.068 167.839C150.965 166.763 152.679 165.623 154.206 164.415L151.724 161.278C150.378 162.343 148.837 163.371 147.094 164.361L149.068 167.839ZM161.912 154.341C162.66 152.286 163.031 150.135 163.031 147.9H159.031C159.031 149.683 158.737 151.37 158.153 152.972L161.912 154.341ZM163.031 147.9C163.031 146.684 162.964 145.512 162.826 144.385L158.855 144.872C158.972 145.822 159.031 146.831 159.031 147.9H163.031ZM160.774 137.453C160.197 136.337 159.508 135.304 158.708 134.358L155.654 136.942C156.257 137.653 156.779 138.435 157.221 139.29L160.774 137.453ZM158.767 134.431C158.108 133.575 157.382 132.811 156.587 132.147L154.023 135.217C154.578 135.68 155.103 136.229 155.596 136.869L158.767 134.431ZM150.837 129.401C149.839 129.198 148.803 129.1 147.731 129.1V133.1C148.558 133.1 149.327 133.176 150.041 133.321L150.837 129.401ZM87.1813 31.45C84.3276 31.45 81.59 31.6574 78.9707 32.0762L79.6022 36.026C81.9957 35.6433 84.5212 35.45 87.1813 35.45V31.45ZM63.4723 37.9286C61.1597 39.4445 59.0171 41.2225 57.0448 43.2584L59.9177 46.0416C61.6909 44.2112 63.6066 42.6233 65.6652 41.2739L63.4723 37.9286ZM57.0222 43.2821C54.9507 45.4917 53.1186 47.9652 51.5239 50.6969L54.9783 52.7135C56.4297 50.2275 58.0844 47.9976 59.9403 46.0179L57.0222 43.2821ZM45.2398 67.7439C44.6519 70.5629 44.203 73.5325 43.8912 76.651L47.8713 77.049C48.1704 74.0579 48.5991 71.2288 49.1555 68.5604L45.2398 67.7439ZM45.8813 78.85H52.4729V74.85H45.8813V78.85ZM65.6563 78.85H78.8396V74.85H65.6563V78.85ZM92.0229 78.85H105.206V74.85H92.0229V78.85ZM118.39 78.85H124.981V74.85H118.39V78.85ZM126.98 76.7845C126.879 73.6934 126.637 70.7534 126.253 67.9658L122.29 68.5124C122.654 71.1484 122.885 73.949 122.982 76.9155L126.98 76.7845ZM121.138 50.8328C119.688 48.0344 117.965 45.5235 115.965 43.3094L112.997 45.9906C114.752 47.9337 116.283 50.1581 117.586 52.673L121.138 50.8328ZM115.986 43.333C114.177 41.2647 112.175 39.4597 109.981 37.9232L107.686 41.1995C109.608 42.5456 111.371 44.133 112.976 45.967L115.986 43.333ZM95.0928 32.0599C92.5806 31.6518 89.9425 31.45 87.1813 31.45V35.45C89.7482 35.45 92.1706 35.6376 94.4513 36.0081L95.0928 32.0599Z" fill="black"/>
</svg>
