<svg width="174" height="251" viewBox="0 0 174 251" fill="none" xmlns="http://www.w3.org/2000/svg">
<path d="M23.7482 249C16.9816 249 11.6149 247.133 7.64824 243.4C3.91491 239.667 2.04824 234.417 2.04824 227.65V23.6C2.04824 16.8333 3.91491 11.5833 7.64824 7.85C11.6149 4.11666 16.9816 2.24998 23.7482 2.24998H150.098C156.865 2.24998 162.115 3.76665 165.848 6.79999C169.582 9.83332 171.448 14.15 171.448 19.75C171.448 25.5833 169.582 30.1333 165.848 33.4C162.115 36.4333 156.865 37.95 150.098 37.95H46.1482V105.85H143.098C149.865 105.85 155.115 107.367 158.848 110.4C162.582 113.433 164.448 117.867 164.448 123.7C164.448 129.3 162.582 133.617 158.848 136.65C155.115 139.683 149.865 141.2 143.098 141.2H46.1482V213.3H150.098C156.865 213.3 162.115 214.933 165.848 218.2C169.582 221.233 171.448 225.667 171.448 231.5C171.448 237.1 169.582 241.417 165.848 244.45C162.115 247.483 156.865 249 150.098 249H23.7482Z" fill="#F5F5F5"/>
<path d="M7.64824 243.4L6.94114 244.107L6.95185 244.118L6.96288 244.128L7.64824 243.4ZM7.64824 7.85L6.96288 7.1218L6.95185 7.13218L6.94114 7.14289L7.64824 7.85ZM165.848 6.79999L166.479 6.02388L166.479 6.02387L165.848 6.79999ZM165.848 33.4L166.479 34.1761L166.493 34.1646L166.507 34.1526L165.848 33.4ZM46.1482 37.95V36.95H45.1482V37.95H46.1482ZM46.1482 105.85H45.1482V106.85H46.1482V105.85ZM158.848 110.4L159.479 109.624L159.479 109.624L158.848 110.4ZM158.848 136.65L159.479 137.426L159.479 137.426L158.848 136.65ZM46.1482 141.2V140.2H45.1482V141.2H46.1482ZM46.1482 213.3H45.1482V214.3H46.1482V213.3ZM165.848 218.2L165.19 218.953L165.203 218.965L165.218 218.976L165.848 218.2ZM165.848 244.45L166.479 245.226L166.479 245.226L165.848 244.45ZM23.7482 248C22.2664 248 20.8597 247.908 19.5273 247.726L19.2559 249.707C20.6861 249.903 22.1838 250 23.7482 250V248ZM11.6458 245.137C10.4459 244.443 9.34225 243.621 8.33361 242.672L6.96288 244.128C8.08357 245.183 9.31096 246.097 10.6438 246.868L11.6458 245.137ZM8.35535 242.693C7.39971 241.737 6.57403 240.676 5.87738 239.509L4.15982 240.533C4.94067 241.842 5.86808 243.034 6.94114 244.107L8.35535 242.693ZM3.31493 231.796C3.1377 230.493 3.04824 229.111 3.04824 227.65H1.04824C1.04824 229.192 1.14265 230.665 1.33316 232.066L3.31493 231.796ZM3.04824 227.65V220.362H1.04824V227.65H3.04824ZM3.04824 205.787V191.212H1.04824V205.787H3.04824ZM3.04824 176.637V162.062H1.04824V176.637H3.04824ZM3.04824 147.487V132.912H1.04824V147.487H3.04824ZM3.04824 118.337V103.762H1.04824V118.337H3.04824ZM3.04824 89.1875V74.6125H1.04824V89.1875H3.04824ZM3.04824 60.0375V45.4625H1.04824V60.0375H3.04824ZM3.04824 30.8875V23.6H1.04824V30.8875H3.04824ZM3.04824 23.6C3.04824 22.1389 3.1377 20.7572 3.31493 19.4538L1.33316 19.1843C1.14265 20.5854 1.04824 22.0577 1.04824 23.6H3.04824ZM5.87738 11.7413C6.57403 10.5736 7.39971 9.51274 8.35535 8.5571L6.94114 7.14289C5.86808 8.21594 4.94067 9.40774 4.15982 10.7166L5.87738 11.7413ZM8.33361 8.5782C9.34225 7.62889 10.4459 6.80737 11.6458 6.11276L10.6438 4.38186C9.31096 5.15343 8.08356 6.06703 6.96288 7.1218L8.33361 8.5782ZM19.5273 3.52448C20.8597 3.34201 22.2664 3.24998 23.7482 3.24998V1.24998C22.1838 1.24998 20.6861 1.34712 19.2559 1.54298L19.5273 3.52448ZM23.7482 3.24998H31.6451V1.24998H23.7482V3.24998ZM47.4389 3.24998H63.2326V1.24998H47.4389V3.24998ZM79.0264 3.24998H94.8201V1.24998H79.0264V3.24998ZM110.614 3.24998H126.408V1.24998H110.614V3.24998ZM142.201 3.24998H150.098V1.24998H142.201V3.24998ZM150.098 3.24998C151.528 3.24998 152.883 3.31919 154.164 3.45655L154.377 1.46794C153.018 1.32228 151.592 1.24998 150.098 1.24998V3.24998ZM161.886 5.49258C163.117 6.07577 164.227 6.7708 165.218 7.5761L166.479 6.02387C165.357 5.11205 164.11 4.33297 162.742 3.68505L161.886 5.49258ZM165.218 7.5761C166.126 8.31423 166.912 9.1296 167.579 10.022L169.181 8.82518C168.412 7.79532 167.51 6.86163 166.479 6.02388L165.218 7.5761ZM170.17 16.2783C170.355 17.3637 170.448 18.5204 170.448 19.75H172.448C172.448 18.4191 172.347 17.1494 172.141 15.9427L170.17 16.2783ZM170.448 19.75C170.448 21.0334 170.354 22.2446 170.169 23.385L172.143 23.7057C172.347 22.4497 172.448 21.1306 172.448 19.75H170.448ZM167.573 30.0025C166.9 30.9635 166.107 31.845 165.19 32.6474L166.507 34.1526C167.541 33.2477 168.443 32.2467 169.212 31.1499L167.573 30.0025ZM165.218 32.6239C164.227 33.4292 163.117 34.1242 161.886 34.7074L162.742 36.5149C164.11 35.867 165.357 35.0879 166.479 34.1761L165.218 32.6239ZM154.164 36.7434C152.883 36.8808 151.528 36.95 150.098 36.95V38.95C151.592 38.95 153.018 38.8777 154.377 38.732L154.164 36.7434ZM150.098 36.95H141.436V38.95H150.098V36.95ZM124.111 36.95H106.786V38.95H124.111V36.95ZM89.4607 36.95H72.1357V38.95H89.4607V36.95ZM54.8107 36.95H46.1482V38.95H54.8107V36.95ZM45.1482 37.95V46.4375H47.1482V37.95H45.1482ZM45.1482 63.4125V80.3875H47.1482V63.4125H45.1482ZM45.1482 97.3625V105.85H47.1482V97.3625H45.1482ZM46.1482 106.85H54.2274V104.85H46.1482V106.85ZM70.3857 106.85H86.5441V104.85H70.3857V106.85ZM102.702 106.85H118.861V104.85H102.702V106.85ZM135.019 106.85H143.098V104.85H135.019V106.85ZM143.098 106.85C144.528 106.85 145.883 106.919 147.164 107.057L147.377 105.068C146.018 104.922 144.592 104.85 143.098 104.85V106.85ZM154.886 109.093C156.117 109.676 157.227 110.371 158.218 111.176L159.479 109.624C158.357 108.712 157.11 107.933 155.742 107.285L154.886 109.093ZM158.218 111.176C159.14 111.925 159.936 112.762 160.609 113.688L162.227 112.511C161.448 111.441 160.531 110.479 159.479 109.624L158.218 111.176ZM163.178 120.136C163.357 121.248 163.448 122.436 163.448 123.7H165.448C165.448 122.34 165.35 121.046 165.152 119.817L163.178 120.136ZM163.448 123.7C163.448 124.93 163.355 126.086 163.17 127.172L165.141 127.507C165.347 126.301 165.448 125.031 165.448 123.7H163.448ZM160.579 133.428C159.912 134.32 159.126 135.136 158.218 135.874L159.479 137.426C160.51 136.588 161.412 135.655 162.181 134.625L160.579 133.428ZM158.218 135.874C157.227 136.679 156.117 137.374 154.886 137.957L155.742 139.765C157.11 139.117 158.357 138.338 159.479 137.426L158.218 135.874ZM147.164 139.993C145.883 140.131 144.528 140.2 143.098 140.2V142.2C144.592 142.2 146.018 142.128 147.377 141.982L147.164 139.993ZM143.098 140.2H135.019V142.2H143.098V140.2ZM118.861 140.2H102.702V142.2H118.861V140.2ZM86.5441 140.2H70.3858V142.2H86.5441V140.2ZM54.2274 140.2H46.1482V142.2H54.2274V140.2ZM45.1482 141.2V150.212H47.1482V141.2H45.1482ZM45.1482 168.237V186.262H47.1482V168.237H45.1482ZM45.1482 204.287V213.3H47.1482V204.287H45.1482ZM46.1482 214.3H54.8107V212.3H46.1482V214.3ZM72.1357 214.3H89.4607V212.3H72.1357V214.3ZM106.786 214.3H124.111V212.3H106.786V214.3ZM141.436 214.3H150.098V212.3H141.436V214.3ZM150.098 214.3C151.538 214.3 152.901 214.376 154.189 214.526L154.421 212.539C153.048 212.379 151.607 212.3 150.098 212.3V214.3ZM161.908 216.734C163.118 217.356 164.211 218.096 165.19 218.953L166.507 217.447C165.4 216.479 164.171 215.649 162.822 214.956L161.908 216.734ZM165.218 218.976C166.14 219.725 166.936 220.562 167.609 221.488L169.227 220.311C168.448 219.241 167.531 218.279 166.479 217.424L165.218 218.976ZM170.178 227.936C170.357 229.048 170.448 230.236 170.448 231.5H172.448C172.448 230.14 172.35 228.846 172.152 227.617L170.178 227.936ZM170.448 231.5C170.448 232.73 170.355 233.886 170.17 234.972L172.141 235.307C172.347 234.101 172.448 232.831 172.448 231.5H170.448ZM167.579 241.228C166.912 242.12 166.126 242.936 165.218 243.674L166.479 245.226C167.51 244.388 168.412 243.455 169.181 242.425L167.579 241.228ZM165.218 243.674C164.227 244.479 163.117 245.174 161.886 245.757L162.742 247.565C164.11 246.917 165.357 246.138 166.479 245.226L165.218 243.674ZM154.164 247.793C152.883 247.931 151.528 248 150.098 248V250C151.592 250 153.018 249.928 154.377 249.782L154.164 247.793ZM150.098 248H142.201V250H150.098V248ZM126.408 248H110.614V250H126.408V248ZM94.8201 248H79.0264V250H94.8201V248ZM63.2326 248H47.4389V250H63.2326V248ZM31.6451 248H23.7482V250H31.6451V248ZM7.64824 243.4L6.23403 244.814L6.25545 244.836L6.27752 244.856L7.64824 243.4ZM7.64824 7.85L6.27751 6.3936L6.25545 6.41436L6.23403 6.43578L7.64824 7.85ZM165.848 6.79999L167.109 5.24776L167.109 5.24776L165.848 6.79999ZM165.848 33.4L167.109 34.9522L167.138 34.9292L167.165 34.9051L165.848 33.4ZM46.1482 37.95V35.95H44.1482V37.95H46.1482ZM46.1482 105.85H44.1482V107.85H46.1482V105.85ZM158.848 110.4L160.109 108.848L160.109 108.848L158.848 110.4ZM158.848 136.65L160.109 138.202L160.109 138.202L158.848 136.65ZM46.1482 141.2V139.2H44.1482V141.2H46.1482ZM46.1482 213.3H44.1482V215.3H46.1482V213.3ZM165.848 218.2L164.531 219.705L164.559 219.729L164.587 219.752L165.848 218.2ZM165.848 244.45L167.109 246.002L167.109 246.002L165.848 244.45ZM23.7482 247C22.3076 247 20.9465 246.911 19.663 246.735L19.1202 250.698C20.5992 250.9 22.1426 251 23.7482 251V247ZM12.1468 244.272C11.0134 243.616 9.97159 242.84 9.01897 241.944L6.27752 244.856C7.45422 245.964 8.74349 246.924 10.1428 247.734L12.1468 244.272ZM9.06246 241.986C8.16553 241.089 7.39071 240.094 6.73616 238.996L3.30104 241.046C4.12399 242.425 5.10226 243.682 6.23403 244.814L9.06246 241.986ZM4.30581 231.661C4.13522 230.407 4.04824 229.07 4.04824 227.65H0.0482439C0.0482439 229.233 0.145132 230.75 0.342277 232.2L4.30581 231.661ZM4.04824 227.65V220.362H0.0482439V227.65H4.04824ZM4.04824 205.787V191.212H0.0482439V205.787H4.04824ZM4.04824 176.637V162.062H0.0482439V176.637H4.04824ZM4.04824 147.487V132.912H0.0482439V147.487H4.04824ZM4.04824 118.337V103.762H0.0482439V118.337H4.04824ZM4.04824 89.1875V74.6125H0.0482439V89.1875H4.04824ZM4.04824 60.0375V45.4625H0.0482439V60.0375H4.04824ZM4.04824 30.8875V23.6H0.0482439V30.8875H4.04824ZM4.04824 23.6C4.04824 22.1796 4.13522 20.8431 4.30581 19.5885L0.342277 19.0496C0.145132 20.4995 0.0482439 22.017 0.0482439 23.6H4.04824ZM6.73616 12.2536C7.39071 11.1565 8.16553 10.1611 9.06246 9.26421L6.23403 6.43578C5.10226 7.56755 4.12399 8.82482 3.30104 10.2042L6.73616 12.2536ZM9.01898 9.30639C9.97159 8.40981 11.0134 7.63433 12.1468 6.97821L10.1428 3.51641C8.74349 4.32646 7.45422 5.2861 6.27751 6.3936L9.01898 9.30639ZM19.663 4.51523C20.9465 4.33946 22.3076 4.24998 23.7482 4.24998V0.249985C22.1426 0.249985 20.5992 0.349677 19.1202 0.552223L19.663 4.51523ZM23.7482 4.24998H31.6451V0.249985H23.7482V4.24998ZM47.4389 4.24998H63.2326V0.249985H47.4389V4.24998ZM79.0264 4.24998H94.8201V0.249985H79.0264V4.24998ZM110.614 4.24998H126.408V0.249985H110.614V4.24998ZM142.201 4.24998H150.098V0.249985H142.201V4.24998ZM150.098 4.24998C151.496 4.24998 152.815 4.31765 154.057 4.45085L154.484 0.473641C153.086 0.323829 151.624 0.249985 150.098 0.249985V4.24998ZM161.458 6.39634C162.621 6.94717 163.661 7.60018 164.587 8.35222L167.109 5.24776C165.922 4.28267 164.606 3.46157 163.17 2.78129L161.458 6.39634ZM164.587 8.35222C165.434 9.04053 166.162 9.79674 166.777 10.6204L169.982 8.22677C169.162 7.12818 168.202 6.13533 167.109 5.24776L164.587 8.35222ZM169.184 16.4462C169.358 17.4709 169.448 18.5711 169.448 19.75H173.448C173.448 18.3684 173.343 17.0423 173.127 15.7748L169.184 16.4462ZM169.448 19.75C169.448 20.9849 169.358 22.1421 169.182 23.2246L173.13 23.8661C173.344 22.5522 173.448 21.1792 173.448 19.75H169.448ZM166.754 29.4289C166.129 30.3218 165.39 31.1437 164.531 31.8948L167.165 34.9051C168.258 33.949 169.215 32.8884 170.031 31.7236L166.754 29.4289ZM164.587 31.8478C163.661 32.5998 162.621 33.2528 161.458 33.8036L163.17 37.4187C164.606 36.7384 165.922 35.9173 167.109 34.9522L164.587 31.8478ZM154.057 35.7491C152.815 35.8823 151.496 35.95 150.098 35.95V39.95C151.624 39.95 153.086 39.8761 154.484 39.7263L154.057 35.7491ZM150.098 35.95H141.436V39.95H150.098V35.95ZM124.111 35.95H106.786V39.95H124.111V35.95ZM89.4607 35.95H72.1357V39.95H89.4607V35.95ZM54.8107 35.95H46.1482V39.95H54.8107V35.95ZM44.1482 37.95V46.4375H48.1482V37.95H44.1482ZM44.1482 63.4125V80.3875H48.1482V63.4125H44.1482ZM44.1482 97.3625V105.85H48.1482V97.3625H44.1482ZM46.1482 107.85H54.2274V103.85H46.1482V107.85ZM70.3857 107.85H86.5441V103.85H70.3857V107.85ZM102.702 107.85H118.861V103.85H102.702V107.85ZM135.019 107.85H143.098V103.85H135.019V107.85ZM143.098 107.85C144.496 107.85 145.815 107.918 147.057 108.051L147.484 104.074C146.086 103.924 144.624 103.85 143.098 103.85V107.85ZM154.458 109.996C155.621 110.547 156.661 111.2 157.587 111.952L160.109 108.848C158.922 107.883 157.606 107.062 156.17 106.381L154.458 109.996ZM157.587 111.952C158.444 112.648 159.18 113.423 159.801 114.276L163.035 111.923C162.204 110.781 161.227 109.756 160.109 108.848L157.587 111.952ZM162.191 120.295C162.361 121.35 162.448 122.484 162.448 123.7H166.448C166.448 122.292 166.347 120.944 166.139 119.658L162.191 120.295ZM162.448 123.7C162.448 124.879 162.358 125.979 162.184 127.004L166.127 127.675C166.343 126.408 166.448 125.082 166.448 123.7H162.448ZM159.777 132.83C159.162 133.653 158.434 134.409 157.587 135.098L160.109 138.202C161.202 137.315 162.162 136.322 162.982 135.223L159.777 132.83ZM157.587 135.098C156.661 135.85 155.621 136.503 154.458 137.054L156.17 140.669C157.606 139.988 158.922 139.167 160.109 138.202L157.587 135.098ZM147.057 138.999C145.815 139.132 144.496 139.2 143.098 139.2V143.2C144.624 143.2 146.086 143.126 147.484 142.976L147.057 138.999ZM143.098 139.2H135.019V143.2H143.098V139.2ZM118.861 139.2H102.702V143.2H118.861V139.2ZM86.5441 139.2H70.3858V143.2H86.5441V139.2ZM54.2274 139.2H46.1482V143.2H54.2274V139.2ZM44.1482 141.2V150.212H48.1482V141.2H44.1482ZM44.1482 168.237V186.262H48.1482V168.237H44.1482ZM44.1482 204.287V213.3H48.1482V204.287H44.1482ZM46.1482 215.3H54.8107V211.3H46.1482V215.3ZM72.1357 215.3H89.4607V211.3H72.1357V215.3ZM106.786 215.3H124.111V211.3H106.786V215.3ZM141.436 215.3H150.098V211.3H141.436V215.3ZM150.098 215.3C151.503 215.3 152.827 215.374 154.073 215.519L154.536 211.546C153.122 211.381 151.642 211.3 150.098 211.3V215.3ZM161.451 217.624C162.591 218.21 163.616 218.904 164.531 219.705L167.165 216.695C165.995 215.671 164.698 214.795 163.279 214.066L161.451 217.624ZM164.587 219.752C165.444 220.448 166.18 221.223 166.801 222.076L170.035 219.723C169.204 218.581 168.227 217.556 167.109 216.648L164.587 219.752ZM169.191 228.095C169.361 229.15 169.448 230.284 169.448 231.5H173.448C173.448 230.092 173.347 228.744 173.139 227.458L169.191 228.095ZM169.448 231.5C169.448 232.679 169.358 233.779 169.184 234.804L173.127 235.475C173.343 234.208 173.448 232.882 173.448 231.5H169.448ZM166.777 240.63C166.162 241.453 165.434 242.209 164.587 242.898L167.109 246.002C168.202 245.115 169.162 244.122 169.982 243.023L166.777 240.63ZM164.587 242.898C163.661 243.65 162.621 244.303 161.458 244.854L163.17 248.469C164.606 247.788 165.922 246.967 167.109 246.002L164.587 242.898ZM154.057 246.799C152.815 246.932 151.496 247 150.098 247V251C151.624 251 153.086 250.926 154.484 250.776L154.057 246.799ZM150.098 247H142.201V251H150.098V247ZM126.408 247H110.614V251H126.408V247ZM94.8201 247H79.0264V251H94.8201V247ZM63.2326 247H47.4389V251H63.2326V247ZM31.6451 247H23.7482V251H31.6451V247Z" fill="black"/>
</svg>
