<svg width="143" height="254" viewBox="0 0 143 254" fill="none" xmlns="http://www.w3.org/2000/svg">
<path d="M113.98 35.8C103.247 36.5 95.4303 39.7667 90.5303 45.6C85.6303 51.4333 83.1803 59.8333 83.1803 70.8V78.85H112.93C125.997 78.85 132.53 84.3333 132.53 95.3C132.53 106.267 125.997 111.75 112.93 111.75H83.1803V231.1C83.1803 237.867 81.0803 243 76.8803 246.5C72.9136 250 67.7803 251.75 61.4803 251.75C55.1803 251.75 49.9303 250 45.7303 246.5C41.5303 243 39.4303 237.867 39.4303 231.1V111.75H21.9303C8.86361 111.75 2.33027 106.267 2.33027 95.3C2.33027 84.3333 8.86361 78.85 21.9303 78.85H39.4303V76.4C39.4303 54.4667 45.1469 37.3167 56.5803 24.95C68.2469 12.35 84.5803 5.23332 105.58 3.59998L114.68 2.89999C124.014 2.19998 130.547 3.24998 134.28 6.04999C138.247 8.61665 140.23 12.7 140.23 18.3C140.23 28.3333 134.514 33.9333 123.08 35.1L113.98 35.8Z" fill="#F5F5F5"/>
<path d="M113.98 35.8L114.045 36.7979L114.057 36.797L113.98 35.8ZM90.5303 45.6L89.7646 44.9568L89.7646 44.9568L90.5303 45.6ZM83.1803 78.85H82.1803V79.85H83.1803V78.85ZM83.1803 111.75V110.75H82.1803V111.75H83.1803ZM76.8803 246.5L76.2401 245.732L76.2292 245.741L76.2187 245.75L76.8803 246.5ZM45.7303 246.5L46.3705 245.732L46.3705 245.732L45.7303 246.5ZM39.4303 111.75H40.4303V110.75H39.4303V111.75ZM39.4303 78.85V79.85H40.4303V78.85H39.4303ZM56.5803 24.95L55.8465 24.2706L55.846 24.2711L56.5803 24.95ZM105.58 3.59998L105.504 2.60293L105.503 2.60299L105.58 3.59998ZM114.68 2.89999L114.605 1.90279L114.604 1.90293L114.68 2.89999ZM134.28 6.04999L133.68 6.84999L133.708 6.87076L133.737 6.88956L134.28 6.04999ZM123.08 35.1L123.157 36.097L123.169 36.0961L123.182 36.0948L123.08 35.1ZM113.915 34.8021C111.586 34.954 109.385 35.2254 107.313 35.6177L107.685 37.5828C109.668 37.2072 111.788 36.9451 114.045 36.7979L113.915 34.8021ZM94.8333 40.4342C92.9045 41.7243 91.2136 43.2318 89.7646 44.9568L91.296 46.2432C92.6194 44.6676 94.1678 43.2855 95.9452 42.0967L94.8333 40.4342ZM89.7646 44.9568C88.3076 46.6912 87.0632 48.6386 86.0293 50.7947L87.8327 51.6594C88.7985 49.6453 89.9536 47.8413 91.296 46.2432L89.7646 44.9568ZM82.5224 64.0073C82.2939 66.1573 82.1803 68.4218 82.1803 70.8H84.1803C84.1803 68.4851 84.2909 66.2916 84.5112 64.2186L82.5224 64.0073ZM82.1803 70.8V72.8125H84.1803V70.8H82.1803ZM82.1803 76.8375V78.85H84.1803V76.8375H82.1803ZM83.1803 79.85H90.6178V77.85H83.1803V79.85ZM105.493 79.85H112.93V77.85H105.493V79.85ZM112.93 79.85C115.581 79.85 117.935 80.0807 119.997 80.533L120.425 78.5794C118.194 78.0901 115.694 77.85 112.93 77.85V79.85ZM130.382 88.488C131.138 90.399 131.53 92.6628 131.53 95.3H133.53C133.53 92.4689 133.11 89.946 132.242 87.7521L130.382 88.488ZM131.53 95.3C131.53 97.9372 131.138 100.201 130.382 102.112L132.242 102.848C133.11 100.654 133.53 98.1311 133.53 95.3H131.53ZM119.997 110.067C117.935 110.519 115.581 110.75 112.93 110.75V112.75C115.694 112.75 118.194 112.51 120.425 112.021L119.997 110.067ZM112.93 110.75H105.493V112.75H112.93V110.75ZM90.6178 110.75H83.1803V112.75H90.6178V110.75ZM82.1803 111.75V119.209H84.1803V111.75H82.1803ZM82.1803 134.128V149.047H84.1803V134.128H82.1803ZM82.1803 163.966V178.884H84.1803V163.966H82.1803ZM82.1803 193.803V208.722H84.1803V193.803H82.1803ZM82.1803 223.641V231.1H84.1803V223.641H82.1803ZM82.1803 231.1C82.1803 232.565 82.0787 233.943 81.8779 235.236L83.8542 235.543C84.0724 234.139 84.1803 232.657 84.1803 231.1H82.1803ZM78.9766 242.773C78.2065 243.866 77.2952 244.853 76.2401 245.732L77.5205 247.268C78.7071 246.279 79.7385 245.165 80.6118 243.925L78.9766 242.773ZM76.2187 245.75C75.2239 246.628 74.1528 247.389 73.0046 248.034L73.9846 249.778C75.2562 249.063 76.4422 248.22 77.5419 247.25L76.2187 245.75ZM65.4919 250.484C64.2193 250.661 62.8824 250.75 61.4803 250.75V252.75C62.9672 252.75 64.3966 252.655 65.7676 252.464L65.4919 250.484ZM61.4803 250.75C60.0577 250.75 58.6954 250.658 57.3927 250.476L57.1152 252.456C58.5163 252.653 59.9716 252.75 61.4803 252.75V250.75ZM49.7078 248.002C48.5281 247.36 47.4158 246.603 46.3705 245.732L45.0901 247.268C46.2346 248.222 47.455 249.052 48.7506 249.759L49.7078 248.002ZM46.3705 245.732C45.3154 244.853 44.4041 243.866 43.6339 242.773L41.9988 243.925C42.8721 245.165 43.9034 246.279 45.0901 247.268L46.3705 245.732ZM40.7326 235.236C40.5318 233.943 40.4303 232.565 40.4303 231.1H38.4303C38.4303 232.657 38.5382 234.139 38.7563 235.543L40.7326 235.236ZM40.4303 231.1V223.641H38.4303V231.1H40.4303ZM40.4303 208.722V193.803H38.4303V208.722H40.4303ZM40.4303 178.884V163.966H38.4303V178.884H40.4303ZM40.4303 149.047V134.128H38.4303V149.047H40.4303ZM40.4303 119.209V111.75H38.4303V119.209H40.4303ZM39.4303 110.75H35.0553V112.75H39.4303V110.75ZM26.3053 110.75H21.9303V112.75H26.3053V110.75ZM21.9303 110.75C19.2791 110.75 16.926 110.519 14.864 110.067L14.4355 112.021C16.6662 112.51 19.1668 112.75 21.9303 112.75V110.75ZM4.47841 102.112C3.72218 100.201 3.33027 97.9372 3.33027 95.3H1.33027C1.33027 98.1311 1.75057 100.654 2.61872 102.848L4.47841 102.112ZM3.33027 95.3C3.33027 92.6628 3.72218 90.399 4.47841 88.488L2.61872 87.7521C1.75057 89.946 1.33027 92.4689 1.33027 95.3H3.33027ZM14.864 80.533C16.926 80.0807 19.2791 79.85 21.9303 79.85V77.85C19.1668 77.85 16.6662 78.0901 14.4355 78.5794L14.864 80.533ZM21.9303 79.85H26.3053V77.85H21.9303V79.85ZM35.0553 79.85H39.4303V77.85H35.0553V79.85ZM40.4303 78.85V78.2375H38.4303V78.85H40.4303ZM40.4303 77.0125V76.4H38.4303V77.0125H40.4303ZM40.4303 76.4C40.4303 74.0485 40.4965 71.7538 40.6288 69.5158L38.6323 69.3978C38.4976 71.6769 38.4303 74.011 38.4303 76.4H40.4303ZM42.3895 55.9016C43.3607 51.2315 44.6917 46.8719 46.3804 42.8204L44.5343 42.0509C42.7931 46.2286 41.4263 50.7105 40.4314 55.4944L42.3895 55.9016ZM52.9995 30.9073C54.3317 29.0588 55.77 27.2994 57.3145 25.6289L55.846 24.2711C54.2463 26.0014 52.7566 27.8237 51.377 29.7379L52.9995 30.9073ZM57.314 25.6294C58.8462 23.9747 60.4598 22.4165 62.155 20.9545L60.8488 19.44C59.0966 20.9511 57.4291 22.5614 55.8465 24.2706L57.314 25.6294ZM73.2497 13.3663C77.1007 11.3088 81.2534 9.59732 85.7099 8.23348L85.1246 6.32104C80.5525 7.72028 76.2793 9.48013 72.3073 11.6023L73.2497 13.3663ZM98.9152 5.33452C101.105 5.02221 103.352 4.7763 105.658 4.59697L105.503 2.60299C103.156 2.78549 100.866 3.03596 98.6327 3.35456L98.9152 5.33452ZM105.657 4.59704L107.932 4.42204L107.779 2.42793L105.504 2.60293L105.657 4.59704ZM112.482 4.07204L114.757 3.89704L114.604 1.90293L112.329 2.07793L112.482 4.07204ZM114.755 3.89719C116.522 3.7647 118.182 3.69598 119.737 3.69036L119.73 1.69038C118.122 1.69618 116.413 1.76721 114.605 1.90279L114.755 3.89719ZM129.459 4.8304C131.181 5.34504 132.579 6.02435 133.68 6.84999L134.88 5.24999C133.551 4.25313 131.927 3.48064 130.032 2.91419L129.459 4.8304ZM133.737 6.88956C134.697 7.51053 135.524 8.22177 136.223 9.0219L137.729 7.70575C136.9 6.75761 135.93 5.92629 134.824 5.21042L133.737 6.88956ZM138.946 14.9316C139.134 15.9718 139.23 17.0939 139.23 18.3H141.23C141.23 16.9883 141.126 15.7458 140.914 14.5748L138.946 14.9316ZM139.23 18.3C139.23 20.683 138.895 22.771 138.245 24.5787L140.127 25.2554C140.869 23.1915 141.23 20.8681 141.23 18.3H139.23ZM129.334 32.7879C127.491 33.4187 125.375 33.8607 122.979 34.1052L123.182 36.0948C125.699 35.838 127.968 35.3693 129.982 34.6801L129.334 32.7879ZM123.004 34.1029L120.729 34.2779L120.882 36.272L123.157 36.097L123.004 34.1029ZM116.179 34.6279L113.904 34.8029L114.057 36.797L116.332 36.622L116.179 34.6279ZM113.98 35.8L114.11 37.7957L114.122 37.795L114.134 37.7941L113.98 35.8ZM90.5303 45.6L88.9989 44.3136L88.9989 44.3136L90.5303 45.6ZM83.1803 78.85H81.1803V80.85H83.1803V78.85ZM83.1803 111.75V109.75H81.1803V111.75H83.1803ZM76.8803 246.5L75.5999 244.964L75.5782 244.982L75.557 245L76.8803 246.5ZM45.7303 246.5L47.0106 244.964L47.0106 244.964L45.7303 246.5ZM39.4303 111.75H41.4303V109.75H39.4303V111.75ZM39.4303 78.85V80.85H41.4303V78.85H39.4303ZM56.5803 24.95L55.1128 23.5912L55.1117 23.5923L56.5803 24.95ZM105.58 3.59998L105.427 1.60587L105.425 1.606L105.58 3.59998ZM114.68 2.89999L114.531 0.905587L114.527 0.90588L114.68 2.89999ZM134.28 6.04999L133.08 7.64999L133.136 7.69153L133.194 7.72913L134.28 6.04999ZM123.08 35.1L123.234 37.0941L123.259 37.0922L123.283 37.0897L123.08 35.1ZM113.85 33.8042C111.484 33.9585 109.243 34.2345 107.127 34.6352L107.872 38.5653C109.81 38.1981 111.889 37.9406 114.11 37.7957L113.85 33.8042ZM94.2773 39.603C92.2728 40.9437 90.5106 42.5139 88.9989 44.3136L92.0617 46.8864C93.3224 45.3855 94.7995 44.066 96.5011 42.9279L94.2773 39.603ZM88.9989 44.3136C87.4847 46.1162 86.1955 48.1352 85.1276 50.3623L88.7344 52.0918C89.6662 50.1487 90.7766 48.4163 92.0617 46.8864L88.9989 44.3136ZM81.528 63.9016C81.2955 66.0902 81.1803 68.3901 81.1803 70.8H85.1803C85.1803 68.5168 85.2894 66.3587 85.5056 64.3242L81.528 63.9016ZM81.1803 70.8V72.8125H85.1803V70.8H81.1803ZM81.1803 76.8375V78.85H85.1803V76.8375H81.1803ZM83.1803 80.85H90.6178V76.85H83.1803V80.85ZM105.493 80.85H112.93V76.85H105.493V80.85ZM112.93 80.85C115.525 80.85 117.805 81.076 119.782 81.5097L120.639 77.6026C118.324 77.0948 115.75 76.85 112.93 76.85V80.85ZM129.452 88.8559C130.153 90.6256 130.53 92.7597 130.53 95.3H134.53C134.53 92.372 134.096 89.7194 133.172 87.3841L129.452 88.8559ZM130.53 95.3C130.53 97.8403 130.153 99.9744 129.452 101.744L133.172 103.216C134.096 100.881 134.53 98.228 134.53 95.3H130.53ZM119.782 109.09C117.805 109.524 115.525 109.75 112.93 109.75V113.75C115.75 113.75 118.324 113.505 120.639 112.997L119.782 109.09ZM112.93 109.75H105.493V113.75H112.93V109.75ZM90.6178 109.75H83.1803V113.75H90.6178V109.75ZM81.1803 111.75V119.209H85.1803V111.75H81.1803ZM81.1803 134.128V149.047H85.1803V134.128H81.1803ZM81.1803 163.966V178.884H85.1803V163.966H81.1803ZM81.1803 193.803V208.722H85.1803V193.803H81.1803ZM81.1803 223.641V231.1H85.1803V223.641H81.1803ZM81.1803 231.1C81.1803 232.519 81.0819 233.846 80.8898 235.082L84.8424 235.696C85.0692 234.236 85.1803 232.703 85.1803 231.1H81.1803ZM78.1591 242.197C77.4405 243.217 76.5892 244.139 75.5999 244.964L78.1606 248.036C79.4131 246.993 80.5045 245.814 81.4294 244.5L78.1591 242.197ZM75.557 245C74.6147 245.832 73.6011 246.552 72.5146 247.163L74.4747 250.65C75.808 249.9 77.0514 249.016 78.2035 248L75.557 245ZM65.354 249.493C64.1307 249.663 62.84 249.75 61.4803 249.75V253.75C63.0095 253.75 64.4852 253.653 65.9055 253.455L65.354 249.493ZM61.4803 249.75C60.1008 249.75 58.785 249.661 57.5314 249.485L56.9764 253.447C58.4267 253.65 59.9285 253.75 61.4803 253.75V249.75ZM50.1863 247.124C49.0646 246.513 48.0064 245.793 47.0106 244.964L44.4499 248.036C45.644 249.032 46.9184 249.899 48.272 250.637L50.1863 247.124ZM47.0106 244.964C46.0213 244.139 45.1701 243.217 44.4515 242.197L41.1812 244.5C42.1061 245.814 43.1975 246.993 44.4499 248.036L47.0106 244.964ZM41.7208 235.082C41.5287 233.846 41.4303 232.519 41.4303 231.1H37.4303C37.4303 232.703 37.5414 234.236 37.7682 235.696L41.7208 235.082ZM41.4303 231.1V223.641H37.4303V231.1H41.4303ZM41.4303 208.722V193.803H37.4303V208.722H41.4303ZM41.4303 178.884V163.966H37.4303V178.884H41.4303ZM41.4303 149.047V134.128H37.4303V149.047H41.4303ZM41.4303 119.209V111.75H37.4303V119.209H41.4303ZM39.4303 109.75H35.0553V113.75H39.4303V109.75ZM26.3053 109.75H21.9303V113.75H26.3053V109.75ZM21.9303 109.75C19.3353 109.75 17.0559 109.524 15.0782 109.09L14.2212 112.997C16.5363 113.505 19.1107 113.75 21.9303 113.75V109.75ZM5.40826 101.744C4.70798 99.9744 4.33027 97.8403 4.33027 95.3H0.330273C0.330273 98.228 0.764759 100.881 1.68888 103.216L5.40826 101.744ZM4.33027 95.3C4.33027 92.7597 4.70798 90.6256 5.40826 88.8559L1.68888 87.3841C0.764759 89.7194 0.330273 92.372 0.330273 95.3H4.33027ZM15.0782 81.5097C17.0559 81.076 19.3353 80.85 21.9303 80.85V76.85C19.1107 76.85 16.5363 77.0948 14.2212 77.6026L15.0782 81.5097ZM21.9303 80.85H26.3053V76.85H21.9303V80.85ZM35.0553 80.85H39.4303V76.85H35.0553V80.85ZM41.4303 78.85V78.2375H37.4303V78.85H41.4303ZM41.4303 77.0125V76.4H37.4303V77.0125H41.4303ZM41.4303 76.4C41.4303 74.0672 41.496 71.7923 41.6271 69.5748L37.634 69.3388C37.4981 71.6384 37.4303 73.9922 37.4303 76.4H41.4303ZM43.3686 56.1052C44.3279 51.4921 45.6411 47.1935 47.3034 43.2051L43.6113 41.6662C41.8438 45.9069 40.459 50.45 39.4524 55.2908L43.3686 56.1052ZM53.8108 31.492C55.1193 29.6764 56.5319 27.9485 58.0488 26.3077L55.1117 23.5923C53.4845 25.3524 51.9691 27.2061 50.5658 29.1532L53.8108 31.492ZM58.0478 26.3088C59.5547 24.6814 61.1414 23.1491 62.808 21.7118L60.1957 18.6827C58.4149 20.2184 56.7206 21.8547 55.1128 23.5912L58.0478 26.3088ZM73.721 14.2483C77.5114 12.2232 81.6039 10.5358 86.0025 9.18971L84.832 5.36481C80.202 6.78175 75.8686 8.56578 71.836 10.7203L73.721 14.2483ZM99.0564 6.3245C101.224 6.01533 103.45 5.77171 105.735 5.59396L105.425 1.606C103.058 1.79008 100.747 2.04283 98.4915 2.36458L99.0564 6.3245ZM105.734 5.59409L108.009 5.41909L107.702 1.43087L105.427 1.60587L105.734 5.59409ZM112.559 5.0691L114.834 4.8941L114.527 0.90588L112.252 1.08088L112.559 5.0691ZM114.83 4.89439C116.576 4.76345 118.212 4.69587 119.741 4.69036L119.726 0.690382C118.091 0.696285 116.359 0.768459 114.531 0.905591L114.83 4.89439ZM129.173 5.7885C130.808 6.27724 132.094 6.90997 133.08 7.64999L135.48 4.44999C134.037 3.36751 132.3 2.54844 130.318 1.95609L129.173 5.7885ZM133.194 7.72913C134.08 8.30266 134.835 8.95385 135.47 9.67998L138.482 7.04768C137.588 6.02552 136.546 5.13416 135.367 4.37085L133.194 7.72913ZM137.962 15.11C138.138 16.0848 138.23 17.1467 138.23 18.3H142.23C142.23 16.9355 142.122 15.6328 141.897 14.3963L137.962 15.11ZM138.23 18.3C138.23 20.5905 137.908 22.5607 137.304 24.2404L141.068 25.5938C141.856 23.4018 142.23 20.9607 142.23 18.3H138.23ZM129.011 31.8417C127.252 32.4434 125.213 32.872 122.877 33.1103L123.283 37.0897C125.861 36.8267 128.207 36.3446 130.306 35.6263L129.011 31.8417ZM122.927 33.1059L120.652 33.2809L120.959 37.2691L123.234 37.0941L122.927 33.1059ZM116.102 33.6309L113.827 33.8059L114.134 37.7941L116.409 37.6191L116.102 33.6309Z" fill="black"/>
</svg>
