<svg width="171" height="254" viewBox="0 0 171 254" fill="none" xmlns="http://www.w3.org/2000/svg">
<path d="M25.3789 251.1C18.6122 251.1 13.1289 249 8.92891 244.8C4.96224 240.6 2.97891 235.117 2.97891 228.35V23.6C2.97891 16.8333 4.84557 11.5833 8.57891 7.85C12.5456 4.11666 17.9122 2.24998 24.6789 2.24998H147.529C161.762 2.24998 168.879 8.31665 168.879 20.45C168.879 32.35 161.762 38.3 147.529 38.3H47.4289V105.5H140.529C154.762 105.5 161.879 111.567 161.879 123.7C161.879 135.6 154.762 141.55 140.529 141.55H47.4289V228.35C47.4289 235.117 45.4456 240.6 41.4789 244.8C37.5122 249 32.1456 251.1 25.3789 251.1Z" fill="#F5F5F5"/>
<path d="M8.92891 244.8L8.20189 245.487L8.2117 245.497L8.2218 245.507L8.92891 244.8ZM8.57891 7.85L7.89354 7.1218L7.88251 7.13218L7.8718 7.14289L8.57891 7.85ZM47.4289 38.3V37.3H46.4289V38.3H47.4289ZM47.4289 105.5H46.4289V106.5H47.4289V105.5ZM47.4289 141.55V140.55H46.4289V141.55H47.4289ZM41.4789 244.8L40.7519 244.113L40.7519 244.113L41.4789 244.8ZM25.3789 250.1C23.8546 250.1 22.4041 249.99 21.0261 249.772L20.7137 251.748C22.2031 251.983 23.7586 252.1 25.3789 252.1V250.1ZM12.9834 246.795C11.7882 246.029 10.6725 245.129 9.63601 244.093L8.2218 245.507C9.35724 246.643 10.585 247.634 11.9049 248.479L12.9834 246.795ZM9.65592 244.113C8.66575 243.065 7.80682 241.934 7.07775 240.721L5.36348 241.751C6.16791 243.09 7.1145 244.335 8.20189 245.487L9.65592 244.113ZM4.28363 232.674C4.08104 231.304 3.97891 229.863 3.97891 228.35H1.97891C1.97891 229.953 2.0871 231.492 2.30515 232.967L4.28363 232.674ZM3.97891 228.35V221.037H1.97891V228.35H3.97891ZM3.97891 206.412V191.787H1.97891V206.412H3.97891ZM3.97891 177.162V162.537H1.97891V177.162H3.97891ZM3.97891 147.912V133.287H1.97891V147.912H3.97891ZM3.97891 118.662V104.037H1.97891V118.662H3.97891ZM3.97891 89.4125V74.7875H1.97891V89.4125H3.97891ZM3.97891 60.1625V45.5375H1.97891V60.1625H3.97891ZM3.97891 30.9125V23.6H1.97891V30.9125H3.97891ZM3.97891 23.6C3.97891 22.1389 4.06836 20.7572 4.24559 19.4538L2.26382 19.1843C2.07332 20.5854 1.97891 22.0577 1.97891 23.6H3.97891ZM6.80804 11.7413C7.50469 10.5736 8.33038 9.51274 9.28602 8.5571L7.8718 7.14289C6.79875 8.21594 5.87133 9.40774 5.09049 10.7166L6.80804 11.7413ZM9.26427 8.5782C10.2729 7.62889 11.3766 6.80737 12.5765 6.11276L11.5745 4.38186C10.2416 5.15343 9.01423 6.06703 7.89354 7.1218L9.26427 8.5782ZM20.4579 3.52448C21.7904 3.34201 23.197 3.24998 24.6789 3.24998V1.24998C23.1145 1.24998 21.6167 1.34712 20.1866 1.54298L20.4579 3.52448ZM24.6789 3.24998H32.357V1.24998H24.6789V3.24998ZM47.7133 3.24998H63.0695V1.24998H47.7133V3.24998ZM78.4258 3.24998H93.782V1.24998H78.4258V3.24998ZM109.138 3.24998H124.495V1.24998H109.138V3.24998ZM139.851 3.24998H147.529V1.24998H139.851V3.24998ZM147.529 3.24998C150.442 3.24998 153.028 3.50935 155.292 4.01854L155.731 2.06727C153.294 1.51923 150.557 1.24998 147.529 1.24998V3.24998ZM166.642 12.9258C167.458 15.0448 167.879 17.5462 167.879 20.45H169.879C169.879 17.3573 169.431 14.603 168.508 12.2072L166.642 12.9258ZM167.879 20.45C167.879 23.3258 167.449 25.7973 166.617 27.8856L168.475 28.6258C169.42 26.2532 169.879 23.5209 169.879 20.45H167.879ZM155.234 36.5594C152.983 37.0501 150.417 37.3 147.529 37.3V39.3C150.528 39.3 153.241 39.0408 155.66 38.5135L155.234 36.5594ZM147.529 37.3H139.187V39.3H147.529V37.3ZM122.504 37.3H105.821V39.3H122.504V37.3ZM89.1372 37.3H72.4539V39.3H89.1372V37.3ZM55.7706 37.3H47.4289V39.3H55.7706V37.3ZM46.4289 38.3V46.7H48.4289V38.3H46.4289ZM46.4289 63.5V80.3H48.4289V63.5H46.4289ZM46.4289 97.1V105.5H48.4289V97.1H46.4289ZM47.4289 106.5H55.1872V104.5H47.4289V106.5ZM70.7039 106.5H86.2206V104.5H70.7039V106.5ZM101.737 106.5H117.254V104.5H101.737V106.5ZM132.771 106.5H140.529V104.5H132.771V106.5ZM140.529 106.5C143.442 106.5 146.028 106.759 148.292 107.269L148.731 105.317C146.294 104.769 143.557 104.5 140.529 104.5V106.5ZM159.642 116.176C160.458 118.295 160.879 120.796 160.879 123.7H162.879C162.879 120.607 162.431 117.853 161.508 115.457L159.642 116.176ZM160.879 123.7C160.879 126.576 160.449 129.047 159.617 131.136L161.475 131.876C162.42 129.503 162.879 126.771 162.879 123.7H160.879ZM148.234 139.809C145.983 140.3 143.417 140.55 140.529 140.55V142.55C143.528 142.55 146.241 142.291 148.66 141.764L148.234 139.809ZM140.529 140.55H132.771V142.55H140.529V140.55ZM117.254 140.55H101.737V142.55H117.254V140.55ZM86.2206 140.55H70.7039V142.55H86.2206V140.55ZM55.1872 140.55H47.4289V142.55H55.1872V140.55ZM46.4289 141.55V148.783H48.4289V141.55H46.4289ZM46.4289 163.25V177.717H48.4289V163.25H46.4289ZM46.4289 192.183V206.65H48.4289V192.183H46.4289ZM46.4289 221.117V228.35H48.4289V221.117H46.4289ZM46.4289 228.35C46.4289 229.863 46.3268 231.304 46.1242 232.674L48.1027 232.967C48.3207 231.492 48.4289 229.953 48.4289 228.35H46.4289ZM43.3301 240.721C42.601 241.934 41.7421 243.065 40.7519 244.113L42.2059 245.487C43.2933 244.335 44.2399 243.09 45.0443 241.751L43.3301 240.721ZM40.7519 244.113C39.7668 245.156 38.6936 246.06 37.5317 246.828L38.6338 248.497C39.9273 247.643 41.1181 246.638 42.2059 245.487L40.7519 244.113ZM29.6585 249.781C28.3097 249.993 26.8835 250.1 25.3789 250.1V252.1C26.9782 252.1 28.5088 251.986 29.9693 251.756L29.6585 249.781ZM8.92891 244.8L7.47488 246.173L7.49449 246.194L7.51469 246.214L8.92891 244.8ZM8.57891 7.85L7.20818 6.3936L7.18612 6.41436L7.1647 6.43578L8.57891 7.85ZM47.4289 38.3V36.3H45.4289V38.3H47.4289ZM47.4289 105.5H45.4289V107.5H47.4289V105.5ZM47.4289 141.55V139.55H45.4289V141.55H47.4289ZM41.4789 244.8L40.0249 243.427L40.0249 243.427L41.4789 244.8ZM25.3789 249.1C23.9027 249.1 22.5046 248.994 21.1823 248.784L20.5574 252.735C22.1026 252.98 23.7105 253.1 25.3789 253.1V249.1ZM13.5226 245.952C12.3898 245.227 11.3301 244.373 10.3431 243.386L7.51469 246.214C8.69961 247.399 9.98343 248.436 11.3657 249.321L13.5226 245.952ZM10.3829 243.427C9.44137 242.43 8.62628 241.357 7.93489 240.206L4.50635 242.266C5.34845 243.668 6.33888 244.97 7.47488 246.173L10.3829 243.427ZM5.27287 232.528C5.07801 231.21 4.97891 229.818 4.97891 228.35H0.978908C0.978908 229.998 1.09013 231.586 1.31591 233.113L5.27287 232.528ZM4.97891 228.35V221.037H0.978908V228.35H4.97891ZM4.97891 206.412V191.787H0.978908V206.412H4.97891ZM4.97891 177.162V162.537H0.978908V177.162H4.97891ZM4.97891 147.912V133.287H0.978908V147.912H4.97891ZM4.97891 118.662V104.037H0.978908V118.662H4.97891ZM4.97891 89.4125V74.7875H0.978908V89.4125H4.97891ZM4.97891 60.1625V45.5375H0.978908V60.1625H4.97891ZM4.97891 30.9125V23.6H0.978908V30.9125H4.97891ZM4.97891 23.6C4.97891 22.1796 5.06589 20.8431 5.23647 19.5885L1.27294 19.0496C1.0758 20.4995 0.978908 22.017 0.978908 23.6H4.97891ZM7.66682 12.2536C8.32137 11.1565 9.0962 10.1611 9.99312 9.26421L7.1647 6.43578C6.03293 7.56755 5.05465 8.82482 4.23171 10.2042L7.66682 12.2536ZM9.94964 9.30639C10.9023 8.40981 11.944 7.63433 13.0775 6.97821L11.0735 3.51641C9.67415 4.32646 8.38489 5.2861 7.20818 6.3936L9.94964 9.30639ZM20.5936 4.51523C21.8772 4.33946 23.2383 4.24998 24.6789 4.24998V0.249985C23.0732 0.249985 21.5299 0.349677 20.0509 0.552223L20.5936 4.51523ZM24.6789 4.24998H32.357V0.249985H24.6789V4.24998ZM47.7133 4.24998H63.0695V0.249985H47.7133V4.24998ZM78.4258 4.24998H93.782V0.249985H78.4258V4.24998ZM109.138 4.24998H124.495V0.249985H109.138V4.24998ZM139.851 4.24998H147.529V0.249985H139.851V4.24998ZM147.529 4.24998C150.385 4.24998 152.895 4.50442 155.073 4.99418L155.95 1.09163C153.427 0.524169 150.615 0.249985 147.529 0.249985V4.24998ZM165.709 13.2852C166.471 15.2656 166.879 17.6406 166.879 20.45H170.879C170.879 17.2628 170.417 14.3822 169.442 11.8479L165.709 13.2852ZM166.879 20.45C166.879 23.2283 166.463 25.5694 165.688 27.5155L169.404 28.9959C170.406 26.4812 170.879 23.6184 170.879 20.45H166.879ZM155.021 35.5824C152.854 36.0548 150.361 36.3 147.529 36.3V40.3C150.584 40.3 153.37 40.0362 155.873 39.4906L155.021 35.5824ZM147.529 36.3H139.187V40.3H147.529V36.3ZM122.504 36.3H105.821V40.3H122.504V36.3ZM89.1372 36.3H72.4539V40.3H89.1372V36.3ZM55.7706 36.3H47.4289V40.3H55.7706V36.3ZM45.4289 38.3V46.7H49.4289V38.3H45.4289ZM45.4289 63.5V80.3H49.4289V63.5H45.4289ZM45.4289 97.1V105.5H49.4289V97.1H45.4289ZM47.4289 107.5H55.1872V103.5H47.4289V107.5ZM70.7039 107.5H86.2206V103.5H70.7039V107.5ZM101.737 107.5H117.254V103.5H101.737V107.5ZM132.771 107.5H140.529V103.5H132.771V107.5ZM140.529 107.5C143.385 107.5 145.895 107.754 148.073 108.244L148.95 104.342C146.427 103.774 143.615 103.5 140.529 103.5V107.5ZM158.709 116.535C159.471 118.516 159.879 120.891 159.879 123.7H163.879C163.879 120.513 163.417 117.632 162.442 115.098L158.709 116.535ZM159.879 123.7C159.879 126.478 159.463 128.819 158.688 130.766L162.404 132.246C163.406 129.731 163.879 126.868 163.879 123.7H159.879ZM148.021 138.832C145.854 139.305 143.361 139.55 140.529 139.55V143.55C143.584 143.55 146.37 143.286 148.873 142.741L148.021 138.832ZM140.529 139.55H132.771V143.55H140.529V139.55ZM117.254 139.55H101.737V143.55H117.254V139.55ZM86.2206 139.55H70.7039V143.55H86.2206V139.55ZM55.1872 139.55H47.4289V143.55H55.1872V139.55ZM45.4289 141.55V148.783H49.4289V141.55H45.4289ZM45.4289 163.25V177.717H49.4289V163.25H45.4289ZM45.4289 192.183V206.65H49.4289V192.183H45.4289ZM45.4289 221.117V228.35H49.4289V221.117H45.4289ZM45.4289 228.35C45.4289 229.818 45.3298 231.21 45.1349 232.528L49.0919 233.113C49.3177 231.586 49.4289 229.998 49.4289 228.35H45.4289ZM42.4729 240.206C41.7815 241.357 40.9664 242.43 40.0249 243.427L42.9329 246.173C44.0689 244.97 45.0594 243.668 45.9015 242.266L42.4729 240.206ZM40.0249 243.427C39.0912 244.415 38.0767 245.269 36.9807 245.993L39.1849 249.331C40.5441 248.434 41.7937 247.38 42.9329 246.173L40.0249 243.427ZM29.5032 248.793C28.2101 248.996 26.8362 249.1 25.3789 249.1V253.1C27.0256 253.1 28.6084 252.983 30.1247 252.744L29.5032 248.793Z" fill="black"/>
</svg>
