<svg width="181" height="246" viewBox="0 0 181 246" fill="none" xmlns="http://www.w3.org/2000/svg">
<path d="M157.193 3.35C163.726 3.35 168.976 5.21666 172.943 8.95C176.91 12.6833 178.893 17.7 178.893 24V162.25C178.893 189.083 171.426 209.383 156.493 223.15C141.56 236.917 119.51 243.8 90.343 243.8C64.9096 243.8 43.6763 239.017 26.643 229.45C18.0096 224.317 13.693 218.133 13.693 210.9C13.693 205.767 14.8596 201.683 17.193 198.65C19.7596 195.617 23.0263 194.1 26.993 194.1C29.093 194.1 31.6596 194.567 34.693 195.5C37.7263 196.667 40.8763 197.95 44.143 199.35C52.543 202.85 60.0096 205.533 66.543 207.4C73.3096 209.267 81.0096 210.2 89.643 210.2C120.21 210.2 135.493 195.267 135.493 165.4V143C130.36 152.567 122.893 160.033 113.093 165.4C103.293 170.533 92.093 173.1 79.493 173.1C64.5596 173.1 51.2596 169.6 39.593 162.6C28.1596 155.367 19.1763 145.333 12.643 132.5C6.10964 119.667 2.84297 104.85 2.84297 88.05C2.84297 71.25 5.99297 56.4333 12.293 43.6C18.8263 30.5333 27.9263 20.5 39.593 13.5C51.2596 6.26665 64.5596 2.64998 79.493 2.64998C92.093 2.64998 103.293 5.33332 113.093 10.7C122.893 15.8333 130.36 23.1833 135.493 32.75V23.65C135.493 17.5833 137.476 12.6833 141.443 8.95C145.41 5.21666 150.66 3.35 157.193 3.35ZM91.043 139.15C105.043 139.15 115.893 134.6 123.593 125.5C131.526 116.4 135.493 103.917 135.493 88.05C135.493 71.95 131.526 59.35 123.593 50.25C115.893 41.15 105.043 36.6 91.043 36.6C77.2763 36.6 66.4263 41.15 58.493 50.25C50.5596 59.35 46.593 71.95 46.593 88.05C46.593 103.917 50.5596 116.4 58.493 125.5C66.4263 134.6 77.2763 139.15 91.043 139.15Z" fill="#F5F5F5"/>
<path d="M172.943 8.95L173.628 8.2218L173.628 8.2218L172.943 8.95ZM156.493 223.15L157.171 223.885L157.171 223.885L156.493 223.15ZM26.643 229.45L26.1319 230.31L26.1425 230.316L26.1533 230.322L26.643 229.45ZM17.193 198.65L16.4296 198.004L16.4145 198.022L16.4003 198.04L17.193 198.65ZM34.693 195.5L35.052 194.567L35.0199 194.554L34.9871 194.544L34.693 195.5ZM44.143 199.35L43.749 200.269L43.7584 200.273L44.143 199.35ZM66.543 207.4L66.2682 208.362L66.277 208.364L66.543 207.4ZM135.493 143H136.493L134.612 142.527L135.493 143ZM113.093 165.4L113.557 166.286L113.565 166.282L113.573 166.277L113.093 165.4ZM39.593 162.6L39.0583 163.445L39.0683 163.451L39.0785 163.457L39.593 162.6ZM12.643 132.5L13.5341 132.046L12.643 132.5ZM12.293 43.6L11.3985 43.1528L11.3953 43.1593L12.293 43.6ZM39.593 13.5L40.1075 14.3575L40.1137 14.3537L40.1199 14.3499L39.593 13.5ZM113.093 10.7L112.613 11.5771L112.621 11.5815L112.629 11.5858L113.093 10.7ZM135.493 32.75L134.612 33.2228L136.493 32.75H135.493ZM141.443 8.95L140.758 8.2218L140.758 8.2218L141.443 8.95ZM123.593 125.5L122.839 124.843L122.834 124.848L122.83 124.854L123.593 125.5ZM123.593 50.25L122.83 50.8959L122.834 50.9016L122.839 50.9071L123.593 50.25ZM58.493 50.25L59.2467 50.9071L59.2467 50.9071L58.493 50.25ZM58.493 125.5L59.2467 124.843L59.2467 124.843L58.493 125.5ZM157.193 2.35C155.659 2.35 154.187 2.45 152.779 2.65165L153.063 4.63145C154.369 4.44436 155.746 4.35 157.193 4.35V2.35ZM144.351 5.51854C143.058 6.28274 141.86 7.18422 140.758 8.2218L142.128 9.6782C143.124 8.74087 144.204 7.92862 145.369 7.24027L144.351 5.51854ZM140.758 8.2218C139.692 9.22438 138.76 10.3105 137.962 11.4802L139.615 12.6068C140.327 11.5615 141.165 10.5853 142.128 9.6782L140.758 8.2218ZM134.833 19.4172C134.605 20.7681 134.493 22.1795 134.493 23.65H136.493C136.493 22.2814 136.598 20.9815 136.805 19.7488L134.833 19.4172ZM134.493 23.65V25.925H136.493V23.65H134.493ZM134.493 30.475V32.75H136.493V30.475H134.493ZM136.374 32.2772C135.073 29.8532 133.625 27.5671 132.027 25.4195L130.422 26.6132C131.96 28.6798 133.356 30.8828 134.612 33.2228L136.374 32.2772ZM120.468 14.066C118.305 12.5116 116.001 11.0944 113.557 9.81416L112.629 11.5858C114.993 12.8242 117.217 14.1924 119.3 15.6901L120.468 14.066ZM113.573 9.8229C110.984 8.40513 108.299 7.1718 105.519 6.12295L104.813 7.99423C107.507 9.01029 110.106 10.2046 112.613 11.5771L113.573 9.8229ZM88.3144 2.10701C85.4509 1.80215 82.5103 1.64998 79.493 1.64998V3.64998C82.443 3.64998 85.3128 3.79876 88.1027 4.09577L88.3144 2.10701ZM79.493 1.64998C75.8769 1.64998 72.3527 1.85978 68.9207 2.28003L69.1638 4.2652C72.5114 3.85528 75.9544 3.64998 79.493 3.64998V1.64998ZM48.4751 7.7389C45.2298 9.13599 42.0933 10.7732 39.066 12.6501L40.1199 14.3499C43.0637 12.5247 46.1123 10.9335 49.2659 9.57591L48.4751 7.7389ZM39.0785 12.6425C36.0674 14.4491 33.2239 16.4556 30.5485 18.662L31.8209 20.205C34.4186 18.0628 37.1806 16.1136 40.1075 14.3575L39.0785 12.6425ZM16.6245 34.1374C14.7306 36.9671 12.9887 39.9724 11.3985 43.1528L13.1874 44.0472C14.7417 40.9387 16.4415 38.0065 18.2866 35.2499L16.6245 34.1374ZM11.3953 43.1593C10.5472 44.887 9.75558 46.6499 9.02052 48.448L10.8718 49.2048C11.5898 47.4485 12.3628 45.7271 13.1906 44.0407L11.3953 43.1593ZM5.34794 59.4319C4.37841 63.0871 3.61042 66.8665 3.04348 70.7697L5.02271 71.0571C5.57911 67.2265 6.33207 63.5225 7.28109 59.9446L5.34794 59.4319ZM1.96949 82.2757C1.88513 84.1745 1.84297 86.0993 1.84297 88.05H3.84297C3.84297 86.1281 3.8845 84.2329 3.96752 82.3645L1.96949 82.2757ZM1.84297 88.05C1.84297 90.0056 1.88689 91.9351 1.9748 93.8386L3.97267 93.7463C3.88622 91.8744 3.84297 89.9756 3.84297 88.05H1.84297ZM3.09345 105.369C3.68327 109.276 4.48199 113.059 5.49013 116.718L7.41826 116.186C6.43209 112.608 5.64951 108.903 5.07104 105.071L3.09345 105.369ZM9.29781 127.686C10.0577 129.477 10.8757 131.233 11.7518 132.954L13.5341 132.046C12.6792 130.367 11.8808 128.653 11.1389 126.905L9.29781 127.686ZM11.7518 132.954C13.3489 136.091 15.0919 139.065 16.9813 141.875L18.641 140.759C16.7985 138.019 15.0961 135.114 13.5341 132.046L11.7518 132.954ZM30.712 157.312C33.3346 159.54 36.1169 161.584 39.0583 163.445L40.1276 161.755C37.2642 159.943 34.5574 157.954 32.0067 155.788L30.712 157.312ZM39.0785 163.457C42.1175 165.281 45.2664 166.87 48.5246 168.226L49.2927 166.379C46.1249 165.061 43.0633 163.516 40.1075 161.743L39.0785 163.457ZM68.9535 173.494C72.3751 173.898 75.8884 174.1 79.493 174.1V172.1C75.9631 172.1 72.5282 171.902 69.1881 171.508L68.9535 173.494ZM79.493 174.1C82.4997 174.1 85.4301 173.955 88.2839 173.666L88.0819 171.676C85.2985 171.958 82.4356 172.1 79.493 172.1V174.1ZM105.469 169.837C108.261 168.831 110.957 167.648 113.557 166.286L112.629 164.514C110.111 165.833 107.499 166.98 104.791 167.955L105.469 169.837ZM113.573 166.277C116.008 164.944 118.303 163.482 120.458 161.89L119.27 160.282C117.19 161.817 114.971 163.231 112.613 164.523L113.573 166.277ZM132.007 150.38C133.612 148.21 135.068 145.907 136.374 143.473L134.612 142.527C133.35 144.879 131.946 147.1 130.399 149.19L132.007 150.38ZM134.493 143V148.6H136.493V143H134.493ZM134.493 159.8V165.4H136.493V159.8H134.493ZM134.493 165.4C134.493 168.6 134.315 171.62 133.962 174.461L135.947 174.708C136.311 171.776 136.493 168.674 136.493 165.4H134.493ZM128.599 191.499C125.556 196.724 121.331 200.786 115.905 203.695L116.85 205.457C122.596 202.377 127.095 198.056 130.327 192.505L128.599 191.499ZM98.7151 208.705C95.8658 209.035 92.8421 209.2 89.643 209.2V211.2C92.9105 211.2 96.0114 211.031 98.9447 210.692L98.7151 208.705ZM89.643 209.2C87.6656 209.2 85.7388 209.151 83.8627 209.052L83.7577 211.049C85.6705 211.15 87.6323 211.2 89.643 211.2V209.2ZM72.4112 207.725C70.4746 207.362 68.6072 206.932 66.8089 206.436L66.277 208.364C68.1321 208.876 70.0541 209.318 72.0428 209.691L72.4112 207.725ZM66.8177 206.438C65.0079 205.921 63.1243 205.341 61.1666 204.696L60.5412 206.596C62.5217 207.248 64.4308 207.837 66.2683 208.362L66.8177 206.438ZM50.0274 200.654C48.2416 199.953 46.4084 199.211 44.5276 198.427L43.7584 200.273C45.6511 201.062 47.4972 201.809 49.2965 202.516L50.0274 200.654ZM44.5369 198.431C43.7444 198.091 42.9588 197.758 42.1798 197.432L41.4077 199.277C42.1813 199.601 42.9617 199.932 43.7491 200.269L44.5369 198.431ZM37.4378 195.499C36.6348 195.18 35.8395 194.87 35.052 194.567L34.334 196.433C35.1149 196.734 35.9038 197.042 36.7005 197.358L37.4378 195.499ZM34.9871 194.544C34.3227 194.34 33.6786 194.157 33.0547 193.995L32.5537 195.932C33.146 196.085 33.761 196.26 34.3989 196.456L34.9871 194.544ZM29.0655 193.226C28.3401 193.143 27.6489 193.1 26.993 193.1V195.1C27.5631 195.1 28.1776 195.137 28.8373 195.213L29.0655 193.226ZM26.993 193.1C25.9632 193.1 24.9701 193.196 24.0156 193.391L24.4155 195.35C25.2293 195.184 26.0879 195.1 26.993 195.1V193.1ZM18.5733 195.919C17.809 196.522 17.0948 197.218 16.4296 198.004L17.9564 199.296C18.5414 198.605 19.1603 198.003 19.8123 197.489L18.5733 195.919ZM16.4003 198.04C15.7058 198.943 15.1101 199.93 14.6124 200.998L16.4253 201.843C16.8637 200.902 17.3841 200.042 17.9856 199.26L16.4003 198.04ZM12.8686 207.553C12.7512 208.621 12.693 209.737 12.693 210.9H14.693C14.693 209.803 14.7479 208.761 14.8566 207.772L12.8686 207.553ZM12.693 210.9C12.693 213.035 13.0493 215.089 13.7638 217.058L15.6438 216.376C15.0105 214.631 14.693 212.807 14.693 210.9H12.693ZM21.1359 226.846C22.613 228.054 24.2794 229.208 26.1319 230.31L27.154 228.59C25.3753 227.533 23.7923 226.435 22.4019 225.298L21.1359 226.846ZM26.1533 230.322C28.5516 231.669 31.0315 232.922 33.5927 234.08L34.417 232.258C31.9074 231.123 29.4793 229.896 27.1327 228.578L26.1533 230.322ZM49.2524 239.715C54.4148 241.148 59.8383 242.276 65.5222 243.103L65.81 241.124C60.2034 240.309 54.8627 239.196 49.7871 237.788L49.2524 239.715ZM82.0477 244.625C84.7623 244.742 87.5274 244.8 90.343 244.8V242.8C87.555 242.8 84.8186 242.742 82.1336 242.627L82.0477 244.625ZM90.343 244.8C93.3921 244.8 96.3652 244.725 99.2622 244.575L99.1589 242.578C96.2981 242.726 93.3594 242.8 90.343 242.8V244.8ZM116.999 242.549C123.19 241.403 128.94 239.82 134.246 237.796L133.533 235.927C128.352 237.904 122.72 239.456 116.635 240.582L116.999 242.549ZM150.146 229.507C152.637 227.78 154.979 225.906 157.171 223.885L155.815 222.415C153.693 224.371 151.423 226.188 149.006 227.863L150.146 229.507ZM157.171 223.885C159.26 221.959 161.206 219.907 163.008 217.728L161.467 216.453C159.723 218.562 157.839 220.549 155.815 222.415L157.171 223.885ZM171.985 203.382C174.257 198.459 176.036 193.117 177.328 187.359L175.376 186.921C174.113 192.554 172.376 197.761 170.169 202.544L171.985 203.382ZM179.637 170.667C179.808 167.935 179.893 165.129 179.893 162.25H177.893C177.893 165.089 177.809 167.854 177.641 170.543L179.637 170.667ZM179.893 162.25V155.337H177.893V162.25H179.893ZM179.893 141.512V127.687H177.893V141.512H179.893ZM179.893 113.862V100.037H177.893V113.862H179.893ZM179.893 86.2125V72.3875H177.893V86.2125H179.893ZM179.893 58.5625V44.7375H177.893V58.5625H179.893ZM179.893 30.9125V24H177.893V30.9125H179.893ZM179.893 24C179.893 22.4996 179.784 21.0626 179.564 19.6902L177.589 20.0065C177.791 21.2655 177.893 22.5962 177.893 24H179.893ZM176.466 11.5656C175.659 10.3571 174.713 9.24244 173.628 8.2218L172.258 9.6782C173.235 10.598 174.082 11.597 174.802 12.6756L176.466 11.5656ZM173.628 8.2218C172.526 7.18422 171.328 6.28274 170.035 5.51854L169.017 7.24027C170.182 7.92862 171.262 8.74087 172.258 9.6782L173.628 8.2218ZM161.606 2.65165C160.199 2.45 158.727 2.35 157.193 2.35V4.35C158.64 4.35 160.017 4.44436 161.323 4.63145L161.606 2.65165ZM91.043 138.15C87.9117 138.15 84.9415 137.911 82.131 137.435L81.797 139.407C84.7275 139.903 87.81 140.15 91.043 140.15V138.15ZM65.7943 130.819C63.4262 129.125 61.2436 127.133 59.2467 124.843L57.7392 126.157C59.834 128.56 62.131 130.657 64.6304 132.446L65.7943 130.819ZM59.2467 124.843C57.1172 122.4 55.279 119.706 53.7324 116.758L51.9614 117.688C53.5787 120.77 55.5045 123.594 57.7392 126.157L59.2467 124.843ZM48.1664 97.9491C47.7845 94.8179 47.593 91.5185 47.593 88.05H45.593C45.593 91.5918 45.7886 94.9725 46.1811 98.1912L48.1664 97.9491ZM47.593 88.05C47.593 84.5486 47.7825 81.2201 48.1603 78.0637L46.1745 77.826C45.7864 81.0685 45.593 84.4767 45.593 88.05H47.593ZM53.7054 59.0699C55.2578 56.0839 57.1051 53.3638 59.2467 50.9071L57.7392 49.5929C55.4902 52.1726 53.5542 55.0249 51.9309 58.1474L53.7054 59.0699ZM59.2467 50.9071C61.2436 48.6166 63.4262 46.6255 65.7943 44.9309L64.6304 43.3044C62.131 45.0929 59.834 47.19 57.7392 49.5929L59.2467 50.9071ZM82.131 38.3153C84.9415 37.8392 87.9117 37.6 91.043 37.6V35.6C87.81 35.6 84.7275 35.847 81.797 36.3434L82.131 38.3153ZM91.043 37.6C94.1881 37.6 97.1636 37.8332 99.9711 38.2973L100.297 36.324C97.3719 35.8405 94.2867 35.6 91.043 35.6V37.6ZM116.336 44.8665C118.707 46.5723 120.871 48.5811 122.83 50.8959L124.356 49.6041C122.296 47.169 120.012 45.0477 117.505 43.2432L116.336 44.8665ZM122.839 50.9071C124.981 53.3638 126.828 56.0839 128.381 59.0699L130.155 58.1474C128.532 55.0249 126.596 52.1726 124.347 49.5929L122.839 50.9071ZM133.926 78.0637C134.303 81.2201 134.493 84.5486 134.493 88.05H136.493C136.493 84.4767 136.3 81.0685 135.911 77.826L133.926 78.0637ZM134.493 88.05C134.493 91.5185 134.301 94.8179 133.92 97.9491L135.905 98.1912C136.297 94.9725 136.493 91.5918 136.493 88.05H134.493ZM128.353 116.758C126.807 119.706 124.969 122.4 122.839 124.843L124.347 126.157C126.581 123.594 128.507 120.77 130.125 117.688L128.353 116.758ZM122.83 124.854C120.871 127.169 118.707 129.178 116.336 130.883L117.505 132.507C120.012 130.702 122.296 128.581 124.356 126.146L122.83 124.854ZM99.9711 137.453C97.1636 137.917 94.1881 138.15 91.043 138.15V140.15C94.2867 140.15 97.3719 139.909 100.297 139.426L99.9711 137.453ZM172.943 8.95L174.314 7.4936L174.314 7.4936L172.943 8.95ZM156.493 223.15L157.849 224.62L157.849 224.62L156.493 223.15ZM26.643 229.45L25.6208 231.169L25.642 231.182L25.6636 231.194L26.643 229.45ZM17.193 198.65L15.6662 197.358L15.6361 197.394L15.6077 197.431L17.193 198.65ZM34.693 195.5L35.4109 193.633L35.3468 193.609L35.2811 193.588L34.693 195.5ZM44.143 199.35L43.3551 201.188L43.3644 201.192L43.3737 201.196L44.143 199.35ZM66.543 207.4L65.9935 209.323L66.0023 209.326L66.0111 209.328L66.543 207.4ZM135.493 143H137.493L133.731 142.054L135.493 143ZM113.093 165.4L114.021 167.172L114.037 167.163L114.054 167.154L113.093 165.4ZM39.593 162.6L38.5237 164.29L38.5437 164.303L38.564 164.315L39.593 162.6ZM12.643 132.5L14.4253 131.593L12.643 132.5ZM12.293 43.6L10.5041 42.7056L10.5009 42.7121L10.4976 42.7187L12.293 43.6ZM39.593 13.5L40.622 15.215L40.6345 15.2075L40.6469 15.1998L39.593 13.5ZM113.093 10.7L112.132 12.4542L112.149 12.4631L112.165 12.4717L113.093 10.7ZM135.493 32.75L133.731 33.6956L137.493 32.75H135.493ZM141.443 8.95L140.072 7.4936L140.072 7.4936L141.443 8.95ZM123.593 125.5L122.085 124.186L122.076 124.197L122.066 124.208L123.593 125.5ZM123.593 50.25L122.066 51.5419L122.076 51.5531L122.085 51.5643L123.593 50.25ZM58.493 50.25L60.0005 51.5643L60.0005 51.5643L58.493 50.25ZM58.493 125.5L60.0005 124.186L60.0005 124.186L58.493 125.5ZM157.193 1.35C155.616 1.35 154.096 1.45282 152.638 1.66175L153.205 5.62134C154.46 5.44153 155.789 5.35 157.193 5.35V1.35ZM143.842 4.65768C142.485 5.4598 141.228 6.4059 140.072 7.4936L142.814 10.4064C143.756 9.51919 144.777 8.75156 145.877 8.10113L143.842 4.65768ZM140.072 7.4936C138.956 8.54392 137.976 9.68495 137.136 10.9169L140.441 13.1701C141.111 12.1871 141.901 11.2658 142.814 10.4064L140.072 7.4936ZM133.846 19.2514C133.609 20.6614 133.493 22.1285 133.493 23.65H137.493C137.493 22.3324 137.594 21.0881 137.791 19.9146L133.846 19.2514ZM133.493 23.65V25.925H137.493V23.65H133.493ZM133.493 30.475V32.75H137.493V30.475H133.493ZM137.255 31.8044C135.932 29.3385 134.457 27.0107 132.829 24.8226L129.62 27.21C131.127 29.2362 132.498 31.3976 133.731 33.6956L137.255 31.8044ZM121.051 13.254C118.849 11.6712 116.505 10.2295 114.021 8.92833L112.165 12.4717C114.489 13.6891 116.672 15.0328 118.717 16.5021L121.051 13.254ZM114.054 8.9458C111.423 7.5054 108.696 6.25256 105.872 5.18731L104.46 8.92987C107.11 9.92954 109.667 11.1043 112.132 12.4542L114.054 8.9458ZM88.4203 1.11263C85.5199 0.803844 82.5439 0.649984 79.493 0.649984V4.64998C82.4094 4.64998 85.2438 4.79706 87.9968 5.09015L88.4203 1.11263ZM79.493 0.649984C75.8382 0.649984 72.2734 0.862024 68.7991 1.28744L69.2853 5.25779C72.5908 4.85303 75.9931 4.64998 79.493 4.64998V0.649984ZM48.0797 6.82039C44.7885 8.23723 41.6081 9.8974 38.5391 11.8002L40.6469 15.1998C43.5489 13.4005 46.5536 11.8323 49.6613 10.4944L48.0797 6.82039ZM38.564 11.785C35.5108 13.6169 32.6265 15.6521 29.9122 17.8905L32.4572 20.9765C35.0159 18.8663 37.7372 16.9458 40.622 15.215L38.564 11.785ZM15.7935 33.5812C13.8751 36.4474 12.1123 39.4893 10.5041 42.7056L14.0818 44.4944C15.6181 41.4218 17.297 38.5262 19.1176 35.8061L15.7935 33.5812ZM10.4976 42.7187C9.63938 44.467 8.83847 46.2506 8.09488 48.0696L11.7974 49.5832C12.5069 47.8477 13.2706 46.1471 14.0883 44.4813L10.4976 42.7187ZM4.38136 59.1755C3.40157 62.8694 2.62608 66.6864 2.05387 70.6259L6.01233 71.2009C6.56346 67.4066 7.3089 63.7402 8.24767 60.201L4.38136 59.1755ZM0.970476 82.2313C0.885437 84.1453 0.84297 86.0849 0.84297 88.05H4.84297C4.84297 86.1425 4.88419 84.2621 4.96653 82.4089L0.970476 82.2313ZM0.84297 88.05C0.84297 90.0206 0.88723 91.9655 0.975863 93.8847L4.9716 93.7002C4.88589 91.8441 4.84297 89.9607 4.84297 88.05H0.84297ZM2.10465 105.519C2.70015 109.463 3.50694 113.285 4.52607 116.983L8.38233 115.921C7.40714 112.382 6.63263 108.716 6.05984 104.922L2.10465 105.519ZM8.37724 128.076C9.1461 129.888 9.97389 131.666 10.8606 133.407L14.4253 131.593C13.581 129.934 12.7924 128.241 12.0595 126.514L8.37724 128.076ZM10.8606 133.407C12.4753 136.579 14.2387 139.588 16.1514 142.433L19.4709 140.201C17.6518 137.495 15.9697 134.626 14.4253 131.593L10.8606 133.407ZM30.0646 158.074C32.7233 160.333 35.5433 162.405 38.5237 164.29L40.6623 160.91C37.8378 159.123 35.1687 157.162 32.6541 155.026L30.0646 158.074ZM38.564 164.315C41.6447 166.163 44.8371 167.775 48.1406 169.149L49.6767 165.456C46.5542 164.157 43.5361 162.634 40.622 160.885L38.564 164.315ZM68.8361 174.487C72.2985 174.896 75.851 175.1 79.493 175.1V171.1C76.0004 171.1 72.6048 170.904 69.3055 170.515L68.8361 174.487ZM79.493 175.1C82.5318 175.1 85.4959 174.954 88.3848 174.661L87.9809 170.681C85.2326 170.96 82.4035 171.1 79.493 171.1V175.1ZM105.808 170.778C108.643 169.757 111.38 168.555 114.021 167.172L112.165 163.628C109.688 164.926 107.117 166.055 104.453 167.014L105.808 170.778ZM114.054 167.154C116.526 165.8 118.859 164.314 121.052 162.695L118.676 159.477C116.634 160.985 114.453 162.375 112.132 163.646L114.054 167.154ZM132.811 150.974C134.445 148.765 135.927 146.421 137.255 143.946L133.731 142.054C132.491 144.365 131.112 146.544 129.595 148.595L132.811 150.974ZM133.493 143V148.6H137.493V143H133.493ZM133.493 159.8V165.4H137.493V159.8H133.493ZM133.493 165.4C133.493 168.563 133.318 171.542 132.97 174.337L136.939 174.831C137.309 171.855 137.493 168.71 137.493 165.4H133.493ZM127.734 190.996C124.786 196.058 120.698 199.99 115.432 202.813L117.322 206.339C123.229 203.172 127.864 198.721 131.191 193.009L127.734 190.996ZM98.6003 207.712C95.793 208.036 92.8079 208.2 89.643 208.2V212.2C92.9447 212.2 96.0842 212.029 99.0595 211.685L98.6003 207.712ZM89.643 208.2C87.6822 208.2 85.773 208.151 83.9152 208.053L83.7052 212.048C85.6364 212.149 87.6157 212.2 89.643 212.2V208.2ZM72.5955 206.742C70.6848 206.384 68.8448 205.96 67.0748 205.472L66.0111 209.328C67.8945 209.848 69.8438 210.296 71.8586 210.673L72.5955 206.742ZM67.0924 205.477C65.2965 204.964 63.4255 204.387 61.4794 203.746L60.2285 207.546C62.2204 208.202 64.1422 208.794 65.9935 209.323L67.0924 205.477ZM50.3929 199.723C48.6139 199.025 46.787 198.285 44.9122 197.504L43.3737 201.196C45.2725 201.987 47.1249 202.737 48.9311 203.447L50.3929 199.723ZM44.9308 197.512C44.1358 197.171 43.3475 196.837 42.5659 196.51L41.0216 200.2C41.7925 200.522 42.5704 200.852 43.3551 201.188L44.9308 197.512ZM37.8065 194.569C37.0004 194.249 36.2018 193.938 35.4109 193.633L33.975 197.367C34.7526 197.666 35.5382 197.973 36.3318 198.287L37.8065 194.569ZM35.2811 193.588C34.6036 193.38 33.9448 193.193 33.3052 193.027L32.3032 196.9C32.8797 197.049 33.4802 197.219 34.1048 197.412L35.2811 193.588ZM29.1796 192.232C28.4213 192.145 27.6918 192.1 26.993 192.1V196.1C27.5203 196.1 28.0963 196.134 28.7232 196.206L29.1796 192.232ZM26.993 192.1C25.9008 192.1 24.8405 192.202 23.8157 192.411L24.6155 196.33C25.359 196.179 26.1503 196.1 26.993 196.1V192.1ZM17.9538 195.134C17.1334 195.781 16.3715 196.525 15.6662 197.358L18.7197 199.942C19.2647 199.298 19.8359 198.744 20.4318 198.274L17.9538 195.134ZM15.6077 197.431C14.8666 198.394 14.2333 199.444 13.706 200.576L17.3317 202.265C17.7405 201.388 18.2233 200.591 18.7782 199.869L15.6077 197.431ZM11.8746 207.444C11.7528 208.551 11.693 209.704 11.693 210.9H15.693C15.693 209.836 15.7462 208.831 15.8506 207.881L11.8746 207.444ZM11.693 210.9C11.693 213.148 12.0687 215.318 12.8238 217.399L16.5839 216.035C15.9912 214.401 15.693 212.694 15.693 210.9H11.693ZM20.5028 227.62C22.0234 228.864 23.7314 230.046 25.6208 231.169L27.6651 227.731C25.9233 226.695 24.382 225.625 23.0349 224.524L20.5028 227.62ZM25.6636 231.194C28.0877 232.555 30.5935 233.821 33.1806 234.991L34.8291 231.347C32.3453 230.223 29.9432 229.01 27.6224 227.706L25.6636 231.194ZM48.985 240.679C54.1908 242.123 59.6558 243.26 65.3783 244.093L65.954 240.134C60.3859 239.325 55.0866 238.221 50.0545 236.824L48.985 240.679ZM82.0048 245.624C84.7342 245.741 87.5136 245.8 90.343 245.8V241.8C87.5689 241.8 84.8468 241.743 82.1766 241.628L82.0048 245.624ZM90.343 245.8C93.4084 245.8 96.3988 245.725 99.3138 245.574L99.1073 241.579C96.2645 241.726 93.3431 241.8 90.343 241.8V245.8ZM117.181 243.532C123.425 242.377 129.234 240.778 134.603 238.73L133.177 234.993C128.058 236.946 122.486 238.483 116.453 239.599L117.181 243.532ZM150.716 230.329C153.244 228.576 155.622 226.673 157.849 224.62L155.137 221.68C153.049 223.604 150.816 225.392 148.437 227.041L150.716 230.329ZM157.849 224.62C159.971 222.664 161.948 220.579 163.779 218.366L160.697 215.816C158.981 217.89 157.128 219.844 155.137 221.68L157.849 224.62ZM172.893 203.801C175.197 198.809 176.998 193.399 178.303 187.578L174.4 186.703C173.151 192.273 171.436 197.411 169.261 202.125L172.893 203.801ZM180.635 170.73C180.807 167.975 180.893 165.149 180.893 162.25H176.893C176.893 165.07 176.809 167.813 176.643 170.48L180.635 170.73ZM180.893 162.25V155.337H176.893V162.25H180.893ZM180.893 141.512V127.687H176.893V141.512H180.893ZM180.893 113.862V100.037H176.893V113.862H180.893ZM180.893 86.2125V72.3875H176.893V86.2125H180.893ZM180.893 58.5625V44.7375H176.893V58.5625H180.893ZM180.893 30.9125V24H176.893V30.9125H180.893ZM180.893 24C180.893 22.4513 180.781 20.9612 180.552 19.5321L176.602 20.1646C176.795 21.3669 176.893 22.6445 176.893 24H180.893ZM177.297 11.0106C176.448 9.73717 175.452 8.56468 174.314 7.4936L171.572 10.4064C172.496 11.2757 173.294 12.217 173.97 13.2306L177.297 11.0106ZM174.314 7.4936C173.158 6.4059 171.901 5.4598 170.544 4.65768L168.508 8.10113C169.609 8.75156 170.63 9.51919 171.572 10.4064L174.314 7.4936ZM161.748 1.66175C160.29 1.45282 158.77 1.35 157.193 1.35V5.35C158.597 5.35 159.926 5.44153 161.181 5.62134L161.748 1.66175ZM91.043 137.15C87.9625 137.15 85.0485 136.915 82.298 136.449L81.63 140.393C84.6205 140.899 87.7591 141.15 91.043 141.15V137.15ZM66.3762 130.006C64.0737 128.358 61.9484 126.42 60.0005 124.186L56.9854 126.814C59.1292 129.273 61.4835 131.423 64.0485 133.259L66.3762 130.006ZM60.0005 124.186C57.9235 121.803 56.1292 119.174 54.618 116.294L51.0759 118.152C52.7285 121.302 54.6982 124.191 56.9854 126.814L60.0005 124.186ZM49.159 97.8281C48.7825 94.7407 48.593 91.4818 48.593 88.05H44.593C44.593 91.6285 44.7906 95.0498 45.1884 98.3123L49.159 97.8281ZM48.593 88.05C48.593 84.5845 48.7806 81.2959 49.1532 78.1826L45.1816 77.7072C44.7883 80.9927 44.593 84.4408 44.593 88.05H48.593ZM54.5927 59.5312C56.1096 56.6134 57.9125 53.9593 60.0005 51.5643L56.9854 48.9357C54.6827 51.577 52.7024 54.4955 51.0437 57.6861L54.5927 59.5312ZM60.0005 51.5643C61.9484 49.3299 64.0737 47.3917 66.3762 45.7441L64.0485 42.4912C61.4835 44.3267 59.1292 46.4767 56.9854 48.9357L60.0005 51.5643ZM82.298 39.3012C85.0485 38.8353 87.9625 38.6 91.043 38.6V34.6C87.7591 34.6 84.6205 34.8509 81.63 35.3574L82.298 39.3012ZM91.043 38.6C94.1388 38.6 97.0594 38.8296 99.808 39.2839L100.46 35.3374C97.4761 34.8442 94.336 34.6 91.043 34.6V38.6ZM115.752 45.6782C118.054 47.3346 120.158 49.2872 122.066 51.5419L125.12 48.9581C123.008 46.4629 120.665 44.2855 118.089 42.4316L115.752 45.6782ZM122.085 51.5643C124.173 53.9593 125.976 56.6134 127.493 59.5312L131.042 57.6861C129.384 54.4955 127.403 51.577 125.101 48.9357L122.085 51.5643ZM132.933 78.1826C133.305 81.2959 133.493 84.5845 133.493 88.05H137.493C137.493 84.4408 137.298 80.9927 136.904 77.7072L132.933 78.1826ZM133.493 88.05C133.493 91.4818 133.303 94.7407 132.927 97.8281L136.898 98.3123C137.295 95.0498 137.493 91.6285 137.493 88.05H133.493ZM127.468 116.294C125.957 119.174 124.162 121.803 122.085 124.186L125.101 126.814C127.388 124.191 129.357 121.302 131.01 118.152L127.468 116.294ZM122.066 124.208C120.158 126.463 118.054 128.415 115.752 130.072L118.089 133.318C120.665 131.465 123.008 129.287 125.12 126.792L122.066 124.208ZM99.808 136.466C97.0594 136.92 94.1388 137.15 91.043 137.15V141.15C94.336 141.15 97.4761 140.906 100.46 140.413L99.808 136.466Z" fill="black"/>
</svg>
