<svg width="218" height="258" viewBox="0 0 218 258" fill="none" xmlns="http://www.w3.org/2000/svg">
<path d="M197.705 118.65C203.072 118.65 207.389 120.283 210.655 123.55C213.922 126.583 215.555 130.667 215.555 135.8V211.05C215.555 221.783 214.155 229.367 211.355 233.8C208.555 238.233 202.839 241.85 194.205 244.65C184.872 247.917 174.022 250.483 161.655 252.35C149.289 254.217 137.389 255.15 125.955 255.15C100.522 255.15 78.4719 250.133 59.8053 240.1C41.1386 230.067 26.7886 215.6 16.7553 196.7C6.95527 177.567 2.05527 154.817 2.05527 128.45C2.05527 102.55 6.95527 80.15 16.7553 61.25C26.7886 42.1167 40.9053 27.5333 59.1053 17.5C77.3053 7.23332 98.7719 2.09998 123.505 2.09998C156.405 2.09998 183.355 10.9667 204.355 28.7C207.155 31.2667 209.139 33.8333 210.305 36.4C211.705 38.9667 212.405 42 212.405 45.5C212.405 50.6333 211.005 54.95 208.205 58.45C205.405 61.95 202.022 63.7 198.055 63.7C195.489 63.7 193.155 63.35 191.055 62.65C188.955 61.7167 186.505 60.3167 183.705 58.45C173.439 51.2167 163.872 46.2 155.005 43.4C146.139 40.3667 136.105 38.85 124.905 38.85C99.4719 38.85 80.2219 46.4333 67.1553 61.6C54.3219 76.5333 47.9053 98.8167 47.9053 128.45C47.9053 189.117 74.5053 219.45 127.705 219.45C143.572 219.45 159.439 217.233 175.305 212.8V150.85H135.755C130.155 150.85 125.722 149.45 122.455 146.65C119.422 143.85 117.905 139.883 117.905 134.75C117.905 129.617 119.422 125.65 122.455 122.85C125.722 120.05 130.155 118.65 135.755 118.65H197.705Z" fill="#F5F5F5"/>
<path d="M210.655 123.55L209.948 124.257L209.961 124.27L209.975 124.283L210.655 123.55ZM211.355 233.8L210.51 233.266L210.51 233.266L211.355 233.8ZM194.205 244.65L193.897 243.699L193.886 243.702L193.875 243.706L194.205 244.65ZM161.655 252.35L161.805 253.339L161.805 253.339L161.655 252.35ZM59.8053 240.1L59.3318 240.981L59.3318 240.981L59.8053 240.1ZM16.7553 196.7L15.8652 197.156L15.8686 197.162L15.872 197.169L16.7553 196.7ZM16.7553 61.25L15.8696 60.7856L15.8675 60.7897L16.7553 61.25ZM59.1053 17.5L59.5881 18.3758L59.5966 18.371L59.1053 17.5ZM204.355 28.7L205.031 27.9628L205.016 27.9491L205 27.936L204.355 28.7ZM210.305 36.4L209.395 36.8138L209.41 36.8469L209.427 36.8788L210.305 36.4ZM208.205 58.45L207.424 57.8253L207.424 57.8253L208.205 58.45ZM191.055 62.65L190.649 63.5638L190.693 63.5834L190.739 63.5987L191.055 62.65ZM183.705 58.45L183.129 59.2675L183.14 59.2749L183.151 59.282L183.705 58.45ZM155.005 43.4L154.682 44.3462L154.693 44.35L154.704 44.3536L155.005 43.4ZM67.1553 61.6L66.3977 60.9473L66.3969 60.9482L67.1553 61.6ZM175.305 212.8L175.574 213.763L176.305 213.559V212.8H175.305ZM175.305 150.85H176.305V149.85H175.305V150.85ZM122.455 146.65L121.777 147.385L121.791 147.397L121.804 147.409L122.455 146.65ZM122.455 122.85L121.804 122.091L121.791 122.103L121.777 122.115L122.455 122.85ZM197.705 117.65H189.962V119.65H197.705V117.65ZM174.474 117.65H158.987V119.65H174.474V117.65ZM143.499 117.65H135.755V119.65H143.499V117.65ZM135.755 117.65C134.476 117.65 133.25 117.721 132.079 117.864L132.322 119.849C133.406 119.717 134.55 119.65 135.755 119.65V117.65ZM124.942 119.977C123.805 120.568 122.759 121.273 121.804 122.091L123.106 123.609C123.942 122.893 124.861 122.273 125.865 121.751L124.942 119.977ZM121.777 122.115C120.904 122.921 120.146 123.819 119.505 124.808L121.183 125.896C121.732 125.049 122.382 124.279 123.134 123.585L121.777 122.115ZM117.144 131.333C116.984 132.418 116.905 133.557 116.905 134.75H118.905C118.905 133.645 118.978 132.603 119.123 131.624L117.144 131.333ZM116.905 134.75C116.905 135.943 116.984 137.082 117.144 138.167L119.123 137.876C118.978 136.897 118.905 135.855 118.905 134.75H116.905ZM119.505 144.692C120.146 145.681 120.904 146.579 121.777 147.385L123.134 145.915C122.382 145.221 121.732 144.451 121.183 143.604L119.505 144.692ZM121.804 147.409C122.759 148.227 123.805 148.932 124.942 149.523L125.865 147.749C124.861 147.227 123.942 146.607 123.106 145.891L121.804 147.409ZM132.079 151.636C133.25 151.779 134.476 151.85 135.755 151.85V149.85C134.55 149.85 133.406 149.783 132.322 149.651L132.079 151.636ZM135.755 151.85H145.643V149.85H135.755V151.85ZM165.418 151.85H175.305V149.85H165.418V151.85ZM174.305 150.85V158.594H176.305V150.85H174.305ZM174.305 174.081V189.569H176.305V174.081H174.305ZM174.305 205.056V212.8H176.305V205.056H174.305ZM175.036 211.837C173.103 212.377 171.171 212.884 169.238 213.358L169.714 215.3C171.668 214.821 173.621 214.309 175.574 213.763L175.036 211.837ZM157.511 215.827C153.555 216.523 149.6 217.081 145.646 217.5L145.856 219.489C149.857 219.065 153.857 218.501 157.857 217.797L157.511 215.827ZM133.695 218.344C131.699 218.415 129.702 218.45 127.705 218.45V220.45C129.725 220.45 131.746 220.414 133.766 220.343L133.695 218.344ZM127.705 218.45C125.352 218.45 123.053 218.39 120.807 218.271L120.701 220.268C122.984 220.389 125.318 220.45 127.705 220.45V218.45ZM107.166 216.694C102.474 215.826 98.0714 214.637 93.9567 213.13L93.2686 215.007C97.4973 216.557 102.009 217.774 106.803 218.661L107.166 216.694ZM81.69 207.169C77.7979 204.732 74.2548 201.9 71.059 198.672L69.6378 200.079C72.9431 203.417 76.6072 206.346 80.6285 208.864L81.69 207.169ZM62.6231 187.98C60.286 184.252 58.2451 180.177 56.5023 175.753L54.6415 176.486C56.426 181.016 58.5212 185.203 60.9287 189.042L62.6231 187.98ZM52.4511 162.655C51.4465 158.386 50.6545 153.868 50.0763 149.101L48.0908 149.342C48.6771 154.176 49.4813 158.766 50.5043 163.113L52.4511 162.655ZM49.0257 135.366C48.9454 133.107 48.9053 130.802 48.9053 128.45H46.9053C46.9053 130.824 46.9458 133.153 47.027 135.437L49.0257 135.366ZM48.9053 128.45C48.9053 125.428 48.9724 122.483 49.1064 119.617L47.1086 119.523C46.973 122.423 46.9053 125.398 46.9053 128.45H48.9053ZM50.9197 102.082C51.9488 95.9401 53.371 90.2601 55.1836 85.0397L53.2942 84.3837C51.4407 89.7221 49.9926 95.5123 48.9472 101.752L50.9197 102.082ZM62.7144 69.2631C64.31 66.7652 66.0432 64.4283 67.9137 62.2518L66.3969 60.9482C64.463 63.1985 62.6738 65.6115 61.0289 68.1864L62.7144 69.2631ZM67.9129 62.2527C69.644 60.2433 71.4848 58.3701 73.4351 56.6326L72.1047 55.1392C70.0877 56.9361 68.1854 58.8723 66.3977 60.9473L67.9129 62.2527ZM86.4615 47.8283C91.0008 45.5561 95.9441 43.7668 101.295 42.4635L100.821 40.5204C95.3365 41.8564 90.2503 43.6952 85.5663 46.0398L86.4615 47.8283ZM116.959 40.1124C119.534 39.9375 122.183 39.85 124.905 39.85V37.85C122.14 37.85 119.446 37.9389 116.823 38.117L116.959 40.1124ZM124.905 39.85C127.494 39.85 130.019 39.9317 132.48 40.0949L132.612 38.0993C130.105 37.933 127.536 37.85 124.905 37.85V39.85ZM147.431 42.2696C149.932 42.8557 152.349 43.548 154.682 44.3462L155.329 42.4538C152.931 41.6334 150.45 40.923 147.888 40.3224L147.431 42.2696ZM154.704 44.3536C157.148 45.1254 159.65 46.0694 162.211 47.1868L163.011 45.3537C160.391 44.2106 157.823 43.2412 155.306 42.4464L154.704 44.3536ZM176.407 54.7866C178.611 56.1697 180.852 57.6632 183.129 59.2675L184.281 57.6325C181.977 56.0091 179.706 54.4956 177.469 53.0924L176.407 54.7866ZM183.151 59.282C183.767 59.6928 184.367 60.0818 184.951 60.449L186.015 58.7555C185.447 58.3986 184.862 58.0195 184.26 57.6179L183.151 59.282ZM188.687 62.6116C189.367 62.9673 190.022 63.2849 190.649 63.5638L191.461 61.7362C190.877 61.4764 190.261 61.1776 189.613 60.839L188.687 62.6116ZM190.739 63.5987C191.324 63.7935 191.924 63.9622 192.54 64.105L192.991 62.1566C192.435 62.0276 191.895 61.8757 191.372 61.7013L190.739 63.5987ZM196.212 64.6394C196.814 64.6798 197.429 64.7 198.055 64.7V62.7C197.472 62.7 196.902 62.6812 196.346 62.6439L196.212 64.6394ZM198.055 64.7C199.148 64.7 200.207 64.5763 201.228 64.3264L200.753 62.3837C199.895 62.5937 198.996 62.7 198.055 62.7V64.7ZM206.828 61.3495C207.586 60.6849 208.305 59.9256 208.986 59.0747L207.424 57.8253C206.81 58.5932 206.172 59.2655 205.51 59.8454L206.828 61.3495ZM208.986 59.0747C209.754 58.1151 210.422 57.0962 210.991 56.0184L209.222 55.085C208.713 56.05 208.114 56.9633 207.424 57.8253L208.986 59.0747ZM213.167 49.098C213.326 47.9404 213.405 46.7409 213.405 45.5H211.405C211.405 46.656 211.332 47.7642 211.186 48.8255L213.167 49.098ZM213.405 45.5C213.405 44.6587 213.366 43.8405 213.288 43.0456L211.298 43.242C211.369 43.9679 211.405 44.7204 211.405 45.5H213.405ZM212.214 38.2059C211.924 37.411 211.58 36.6491 211.183 35.9211L209.427 36.8788C209.776 37.5172 210.078 38.1879 210.335 38.8916L212.214 38.2059ZM211.216 35.9862C210.87 35.2248 210.458 34.4679 209.982 33.7155L208.292 34.7843C208.722 35.4653 209.089 36.1418 209.395 36.8138L211.216 35.9862ZM206.829 29.7257C206.27 29.1363 205.67 28.5488 205.031 27.9628L203.68 29.4372C204.287 29.994 204.853 30.5492 205.379 31.1026L206.829 29.7257ZM205 27.936C203.132 26.3583 201.217 24.85 199.255 23.4111L198.072 25.0239C199.997 26.4356 201.876 27.9156 203.71 29.464L205 27.936ZM186.9 15.5999C182.649 13.305 178.217 11.283 173.604 9.53338L172.895 11.4034C177.427 13.1223 181.779 15.1078 185.95 17.3598L186.9 15.5999ZM159.658 5.20806C155.034 4.07099 150.254 3.17036 145.318 2.50567L145.051 4.48777C149.919 5.14336 154.629 6.03099 159.18 7.1502L159.658 5.20806ZM130.794 1.24821C128.397 1.14938 125.968 1.09998 123.505 1.09998V3.09998C125.941 3.09998 128.343 3.14884 130.712 3.24651L130.794 1.24821ZM123.505 1.09998C120.657 1.09998 117.851 1.16768 115.087 1.30315L115.185 3.30075C117.915 3.16693 120.689 3.09998 123.505 3.09998V1.09998ZM98.3345 3.03821C92.6501 3.95848 87.171 5.20678 81.8978 6.7838L82.4708 8.69994C87.6571 7.14893 93.0513 5.91956 98.6541 5.01251L98.3345 3.03821ZM66.1236 12.767C63.5623 13.9624 61.059 15.2498 58.614 16.629L59.5966 18.371C61.9967 17.0171 64.4543 15.7532 66.9695 14.5793L66.1236 12.767ZM58.6225 16.6243C56.3299 17.8881 54.101 19.2238 51.936 20.6313L53.0261 22.3081C55.15 20.9274 57.3373 19.6166 59.5881 18.3757L58.6225 16.6243ZM39.5463 30.0862C35.6785 33.5348 32.076 37.2781 28.739 41.3155L30.2806 42.5897C33.5538 38.6295 37.086 34.9594 40.8773 31.579L39.5463 30.0862ZM19.7081 54.0081C18.3684 56.2012 17.089 58.4604 15.8697 60.7856L17.6409 61.7144C18.8404 59.427 20.0984 57.2058 21.4148 55.0507L19.7081 54.0081ZM15.8675 60.7897C14.5323 63.3648 13.2874 66.0039 12.1329 68.7068L13.9722 69.4924C15.1074 66.8346 16.331 64.2406 17.643 61.7103L15.8675 60.7897ZM6.41346 85.2329C4.9221 90.7174 3.7426 96.4212 2.87428 102.344L4.85313 102.634C5.71046 96.7862 6.8741 91.161 8.34338 85.7576L6.41346 85.2329ZM1.24552 119.724C1.11867 122.588 1.05527 125.497 1.05527 128.45H3.05527C3.05527 125.525 3.11806 122.646 3.24356 119.813L1.24552 119.724ZM1.05527 128.45C1.05527 131.447 1.11827 134.398 1.24433 137.302L3.24245 137.216C3.11768 134.341 3.05527 131.419 3.05527 128.45H1.05527ZM2.86479 154.938C3.73023 160.955 4.90642 166.746 6.39404 172.31L8.32619 171.794C6.86006 166.31 5.69924 160.596 4.84441 154.654L2.86479 154.938ZM12.117 189.104C13.2753 191.855 14.5247 194.539 15.8652 197.156L17.6453 196.244C16.3278 193.672 15.0994 191.033 13.9602 188.328L12.117 189.104ZM15.872 197.169C17.1073 199.496 18.4077 201.757 19.7734 203.951L21.4715 202.895C20.1304 200.74 18.8528 198.518 17.6385 196.231L15.872 197.169ZM28.9835 216.601C32.3747 220.595 36.0464 224.302 39.9983 227.721L41.3069 226.209C37.4327 222.857 33.8332 219.223 30.5081 215.306L28.9835 216.601ZM52.5719 237.037C54.7597 238.42 57.013 239.734 59.3318 240.981L60.2787 239.219C58.0005 237.995 55.7878 236.704 53.6404 235.347L52.5719 237.037ZM59.3318 240.981C61.8576 242.338 64.4444 243.605 67.0923 244.78L67.9036 242.952C65.3013 241.797 62.7597 240.553 60.2787 239.219L59.3318 240.981ZM83.3324 250.631C88.7399 252.164 94.3599 253.378 100.192 254.272L100.495 252.295C94.7408 251.413 89.202 250.217 83.8781 248.707L83.3324 250.631ZM117.342 255.953C120.17 256.084 123.041 256.15 125.955 256.15V254.15C123.071 254.15 120.231 254.085 117.435 253.955L117.342 255.953ZM125.955 256.15C128.924 256.15 131.924 256.087 134.954 255.962L134.872 253.964C131.868 254.088 128.896 254.15 125.955 254.15V256.15ZM152.89 254.533C155.834 254.189 158.806 253.791 161.805 253.339L161.506 251.361C158.529 251.811 155.58 252.206 152.658 252.546L152.89 254.533ZM161.805 253.339C164.648 252.91 167.412 252.443 170.097 251.94L169.729 249.974C167.068 250.473 164.327 250.935 161.506 251.361L161.805 253.339ZM186.494 248.131C189.287 247.339 191.967 246.493 194.536 245.594L193.875 243.706C191.347 244.591 188.705 245.425 185.948 246.207L186.494 248.131ZM194.514 245.601C196.272 245.031 197.916 244.426 199.444 243.785L198.67 241.941C197.199 242.557 195.609 243.144 193.897 243.699L194.514 245.601ZM208.594 238.419C210.072 237.154 211.279 235.794 212.201 234.334L210.51 233.266C209.71 234.533 208.642 235.745 207.294 236.899L208.594 238.419ZM212.201 234.334C213.178 232.786 213.978 230.909 214.613 228.721L212.692 228.164C212.095 230.221 211.363 231.915 210.51 233.266L212.201 234.334ZM216.398 216.955C216.503 215.101 216.555 213.133 216.555 211.05H214.555C214.555 213.099 214.504 215.03 214.401 216.842L216.398 216.955ZM216.555 211.05V204.779H214.555V211.05H216.555ZM216.555 192.237V179.696H214.555V192.237H216.555ZM216.555 167.154V154.612H214.555V167.154H216.555ZM216.555 142.071V135.8H214.555V142.071H216.555ZM216.555 135.8C216.555 134.566 216.465 133.384 216.281 132.254L214.307 132.574C214.472 133.589 214.555 134.664 214.555 135.8H216.555ZM213.695 125.561C213.024 124.569 212.237 123.654 211.336 122.817L209.975 124.283C210.768 125.019 211.455 125.819 212.039 126.682L213.695 125.561ZM211.362 122.843C210.46 121.94 209.479 121.153 208.421 120.483L207.352 122.173C208.282 122.762 209.148 123.456 209.948 124.257L211.362 122.843ZM201.402 117.922C200.222 117.74 198.989 117.65 197.705 117.65V119.65C198.896 119.65 200.026 119.734 201.098 119.899L201.402 117.922ZM210.655 123.55L209.241 124.964L209.267 124.99L209.294 125.016L210.655 123.55ZM211.355 233.8L209.664 232.732L209.664 232.732L211.355 233.8ZM194.205 244.65L193.588 242.748L193.566 242.755L193.545 242.762L194.205 244.65ZM161.655 252.35L161.954 254.328L161.954 254.328L161.655 252.35ZM59.8053 240.1L58.8584 241.862L58.8584 241.862L59.8053 240.1ZM16.7553 196.7L14.9752 197.612L14.9819 197.625L14.9888 197.638L16.7553 196.7ZM16.7553 61.25L14.984 60.3212L14.9798 60.3294L16.7553 61.25ZM59.1053 17.5L60.0708 19.2515L60.0794 19.2468L60.0879 19.242L59.1053 17.5ZM204.355 28.7L205.707 27.2257L205.677 27.1982L205.646 27.1719L204.355 28.7ZM210.305 36.4L208.485 37.2276L208.515 37.2938L208.549 37.3577L210.305 36.4ZM208.205 58.45L206.644 57.2006L206.644 57.2006L208.205 58.45ZM191.055 62.65L190.243 64.4776L190.331 64.5168L190.423 64.5474L191.055 62.65ZM183.705 58.45L182.553 60.085L182.574 60.0998L182.596 60.1141L183.705 58.45ZM155.005 43.4L154.358 45.2923L154.38 45.3L154.403 45.3072L155.005 43.4ZM67.1553 61.6L65.6401 60.2946L65.6384 60.2965L67.1553 61.6ZM175.305 212.8L175.843 214.726L177.305 214.318V212.8H175.305ZM175.305 150.85H177.305V148.85H175.305V150.85ZM122.455 146.65L121.099 148.12L121.126 148.145L121.154 148.169L122.455 146.65ZM122.455 122.85L121.154 121.331L121.126 121.355L121.099 121.38L122.455 122.85ZM197.705 116.65H189.962V120.65H197.705V116.65ZM174.474 116.65H158.987V120.65H174.474V116.65ZM143.499 116.65H135.755V120.65H143.499V116.65ZM135.755 116.65C134.439 116.65 133.173 116.723 131.958 116.871L132.443 120.842C133.483 120.715 134.587 120.65 135.755 120.65V116.65ZM124.48 119.09C123.278 119.715 122.167 120.463 121.154 121.331L123.757 124.369C124.533 123.703 125.389 123.126 126.327 122.638L124.48 119.09ZM121.099 121.38C120.165 122.242 119.353 123.204 118.666 124.264L122.022 126.44C122.525 125.664 123.121 124.958 123.812 124.32L121.099 121.38ZM116.155 131.187C115.987 132.325 115.905 133.513 115.905 134.75H119.905C119.905 133.689 119.975 132.696 120.112 131.77L116.155 131.187ZM115.905 134.75C115.905 135.987 115.987 137.175 116.155 138.313L120.112 137.73C119.975 136.804 119.905 135.811 119.905 134.75H115.905ZM118.666 145.236C119.353 146.296 120.165 147.257 121.099 148.12L123.812 145.18C123.121 144.542 122.525 143.836 122.022 143.06L118.666 145.236ZM121.154 148.169C122.167 149.037 123.278 149.785 124.48 150.41L126.327 146.862C125.389 146.374 124.533 145.797 123.757 145.131L121.154 148.169ZM131.958 152.629C133.173 152.777 134.439 152.85 135.755 152.85V148.85C134.587 148.85 133.483 148.785 132.443 148.658L131.958 152.629ZM135.755 152.85H145.643V148.85H135.755V152.85ZM165.418 152.85H175.305V148.85H165.418V152.85ZM173.305 150.85V158.594H177.305V150.85H173.305ZM173.305 174.081V189.569H177.305V174.081H173.305ZM173.305 205.056V212.8H177.305V205.056H173.305ZM174.767 210.874C172.844 211.411 170.922 211.915 169 212.387L169.952 216.271C171.916 215.79 173.88 215.275 175.843 214.726L174.767 210.874ZM157.337 214.843C153.404 215.535 149.472 216.089 145.54 216.505L145.962 220.483C149.985 220.057 154.008 219.49 158.03 218.782L157.337 214.843ZM133.66 217.345C131.675 217.415 129.69 217.45 127.705 217.45V221.45C129.737 221.45 131.769 221.414 133.801 221.342L133.66 217.345ZM127.705 217.45C125.369 217.45 123.088 217.391 120.86 217.272L120.648 221.267C122.949 221.389 125.302 221.45 127.705 221.45V217.45ZM107.348 215.711C102.706 214.852 98.3585 213.677 94.3007 212.191L92.9245 215.946C97.2102 217.517 101.777 218.748 106.621 219.644L107.348 215.711ZM82.2207 206.321C78.3932 203.925 74.9106 201.141 71.7696 197.969L68.9272 200.783C72.2873 204.176 76.0119 207.153 80.0978 209.711L82.2207 206.321ZM63.4704 187.449C61.1684 183.777 59.1547 179.758 57.4327 175.386L53.711 176.852C55.5165 181.436 57.6388 185.678 60.0814 189.573L63.4704 187.449ZM53.4246 162.426C52.429 158.196 51.6432 153.715 51.069 148.981L47.0981 149.463C47.6884 154.329 48.4987 158.957 49.5309 163.343L53.4246 162.426ZM50.0251 135.33C49.9452 133.084 49.9053 130.79 49.9053 128.45H45.9053C45.9053 130.836 45.946 133.176 46.0276 135.472L50.0251 135.33ZM49.9053 128.45C49.9053 125.442 49.972 122.514 50.1053 119.664L46.1097 119.477C45.9733 122.392 45.9053 125.383 45.9053 128.45H49.9053ZM51.9059 102.248C52.9269 96.154 54.3362 90.5291 56.1282 85.3677L52.3495 84.0557C50.4755 89.4531 49.0145 95.2983 47.9609 101.587L51.9059 102.248ZM63.5571 69.8014C65.1281 67.3421 66.8333 65.0432 68.6721 62.9035L65.6384 60.2965C63.6729 62.5837 61.8556 65.0347 60.1862 67.6481L63.5571 69.8014ZM68.6705 62.9054C70.3734 60.9289 72.1833 59.0871 74.1003 57.3792L71.4395 54.3926C69.3892 56.2191 67.4561 58.1867 65.6401 60.2946L68.6705 62.9054ZM86.9092 48.7225C91.376 46.4866 96.2479 44.7221 101.531 43.4351L100.585 39.5488C95.0327 40.9011 89.8751 42.7647 85.1187 45.1456L86.9092 48.7225ZM117.026 41.1101C119.578 40.9369 122.205 40.85 124.905 40.85V36.85C122.119 36.85 119.402 36.9396 116.755 37.1193L117.026 41.1101ZM124.905 40.85C127.473 40.85 129.976 40.931 132.413 41.0927L132.678 37.1015C130.149 36.9337 127.557 36.85 124.905 36.85V40.85ZM147.203 43.2432C149.673 43.8221 152.057 44.5053 154.358 45.2923L155.653 41.5077C153.222 40.6761 150.709 39.9567 148.116 39.3488L147.203 43.2432ZM154.403 45.3072C156.811 46.0675 159.28 46.9989 161.811 48.1033L163.411 44.4372C160.762 43.2812 158.161 42.299 155.608 41.4928L154.403 45.3072ZM175.875 55.6338C178.064 57.0067 180.29 58.4903 182.553 60.085L184.857 56.815C182.539 55.182 180.254 53.6586 178.001 52.2453L175.875 55.6338ZM182.596 60.1141C183.219 60.5295 183.827 60.9234 184.419 61.2957L186.547 57.9088C185.988 57.557 185.41 57.1828 184.815 56.7859L182.596 60.1141ZM188.224 63.498C188.921 63.8621 189.594 64.1891 190.243 64.4776L191.868 60.8224C191.305 60.5722 190.707 60.2827 190.076 59.9527L188.224 63.498ZM190.423 64.5474C191.038 64.7524 191.668 64.9295 192.314 65.0791L193.217 61.1825C192.69 61.0603 192.18 60.9168 191.688 60.7526L190.423 64.5474ZM196.145 65.6371C196.771 65.6792 197.407 65.7 198.055 65.7V61.7C197.493 61.7 196.946 61.6819 196.413 61.6461L196.145 65.6371ZM198.055 65.7C199.224 65.7 200.363 65.5676 201.466 65.2977L200.515 61.4123C199.739 61.6024 198.92 61.7 198.055 61.7V65.7ZM207.487 62.1015C208.294 61.3946 209.053 60.5918 209.767 59.6994L206.644 57.2006C206.062 57.927 205.464 58.5558 204.851 59.0934L207.487 62.1015ZM209.767 59.6994C210.574 58.691 211.277 57.6193 211.876 56.4852L208.338 54.6182C207.858 55.5269 207.294 56.3874 206.644 57.2006L209.767 59.6994ZM214.158 49.2343C214.324 48.0285 214.405 46.7833 214.405 45.5H210.405C210.405 46.6136 210.334 47.6762 210.195 48.6892L214.158 49.2343ZM214.405 45.5C214.405 44.6279 214.365 43.7768 214.283 42.9473L210.302 43.3403C210.371 44.0316 210.405 44.7513 210.405 45.5H214.405ZM213.153 37.8631C212.846 37.0225 212.483 36.2151 212.061 35.4423L208.549 37.3577C208.873 37.9512 209.156 38.5764 209.396 39.2344L213.153 37.8631ZM212.126 35.5724C211.76 34.7663 211.326 33.9693 210.827 33.1811L207.446 35.3187C207.854 35.9639 208.199 36.6003 208.485 37.2276L212.126 35.5724ZM207.554 29.0372C206.978 28.4299 206.362 27.8261 205.707 27.2257L203.004 30.1743C203.595 30.7166 204.145 31.2556 204.653 31.7911L207.554 29.0372ZM205.646 27.1719C203.76 25.5796 201.827 24.0572 199.846 22.6047L197.481 25.8303C199.387 27.2284 201.249 28.6943 203.065 30.2281L205.646 27.1719ZM187.375 14.7199C183.085 12.4037 178.613 10.3633 173.959 8.59837L172.541 12.3384C177.032 14.042 181.343 16.0092 185.475 18.2397L187.375 14.7199ZM159.897 4.23698C155.236 3.091 150.421 2.18385 145.452 1.51462L144.918 5.47883C149.752 6.12986 154.426 7.01099 158.941 8.12127L159.897 4.23698ZM130.835 0.249057C128.424 0.149645 125.981 0.0999838 123.505 0.0999838V4.09998C125.927 4.09998 128.316 4.14857 130.671 4.24566L130.835 0.249057ZM123.505 0.0999838C120.641 0.0999838 117.819 0.168059 115.039 0.304349L115.234 4.29955C117.948 4.16655 120.705 4.09998 123.505 4.09998V0.0999838ZM98.1747 2.05106C92.4495 2.97794 86.9279 4.23571 81.6112 5.82572L82.7573 9.65802C87.9001 8.12 93.252 6.9001 98.8139 5.99965L98.1747 2.05106ZM65.7007 11.8608C63.1163 13.067 60.5902 14.3661 58.1226 15.758L60.0879 19.242C62.4655 17.9008 64.9003 16.6486 67.3924 15.4855L65.7007 11.8608ZM58.1397 15.7485C55.8262 17.0239 53.5766 18.372 51.391 19.7929L53.5712 23.1465C55.6744 21.7791 57.8409 20.4808 60.0708 19.2515L58.1397 15.7485ZM38.8808 29.3398C34.9748 32.8225 31.3372 36.6024 27.9682 40.6784L31.0514 43.2268C34.2927 39.3052 37.7897 35.6717 41.5428 32.3254L38.8808 29.3398ZM18.8547 53.4868C17.5034 55.6989 16.2132 57.9771 14.984 60.3212L18.5265 62.1788C19.7161 59.9103 20.9634 57.7081 22.2682 55.572L18.8547 53.4868ZM14.9798 60.3294C13.6329 62.9269 12.3775 65.5885 11.2133 68.314L14.8918 69.8852C16.0174 67.25 17.2304 64.6785 18.5308 62.1706L14.9798 60.3294ZM5.4485 84.9705C3.94609 90.4957 2.75866 96.2387 1.88486 102.199L5.84255 102.779C6.6944 96.9687 7.8501 91.3828 9.30834 86.02L5.4485 84.9705ZM0.246499 119.68C0.118977 122.559 0.0552739 125.483 0.0552739 128.45H4.05527C4.05527 125.54 4.11775 122.675 4.24258 119.857L0.246499 119.68ZM0.0552739 128.45C0.0552739 131.461 0.118567 134.426 0.245266 137.346L4.24151 137.172C4.11739 134.312 4.05527 131.405 4.05527 128.45H0.0552739ZM1.87498 155.081C2.74572 161.134 3.9296 166.964 5.42797 172.569L9.29227 171.536C7.83688 166.092 6.68375 160.417 5.83423 154.511L1.87498 155.081ZM11.1953 189.492C12.3632 192.265 13.6231 194.972 14.9752 197.612L18.5354 195.788C17.2294 193.239 16.0115 190.622 14.8818 187.94L11.1953 189.492ZM14.9888 197.638C16.2345 199.984 17.5464 202.265 18.9244 204.48L22.3205 202.366C20.9918 200.231 19.7255 198.03 18.5218 195.762L14.9888 197.638ZM28.2212 217.248C31.6454 221.281 35.3532 225.025 39.344 228.477L41.9611 225.452C38.1258 222.134 34.5624 218.537 31.2705 214.659L28.2212 217.248ZM52.0377 237.883C54.2457 239.278 56.5193 240.604 58.8584 241.862L60.7522 238.338C58.4943 237.125 56.3018 235.846 54.1746 234.501L52.0377 237.883ZM58.8584 241.862C61.4066 243.231 64.016 244.509 66.6866 245.694L68.3093 242.038C65.7297 240.893 63.2107 239.66 60.7522 238.338L58.8584 241.862ZM83.0595 251.593C88.5089 253.138 94.1695 254.36 100.04 255.26L100.646 251.307C94.9312 250.43 89.433 249.243 84.1509 247.745L83.0595 251.593ZM117.296 256.952C120.139 257.084 123.026 257.15 125.955 257.15V253.15C123.086 253.15 120.261 253.085 117.481 252.957L117.296 256.952ZM125.955 257.15C128.938 257.15 131.952 257.087 134.996 256.961L134.831 252.965C131.84 253.088 128.882 253.15 125.955 253.15V257.15ZM153.006 255.526C155.962 255.181 158.944 254.782 161.954 254.328L161.357 250.372C158.391 250.82 155.453 251.214 152.542 251.553L153.006 255.526ZM161.954 254.328C164.808 253.897 167.584 253.429 170.282 252.923L169.545 248.992C166.896 249.488 164.167 249.948 161.357 250.372L161.954 254.328ZM186.767 249.093C189.578 248.295 192.277 247.444 194.866 246.538L193.545 242.762C191.037 243.64 188.414 244.468 185.675 245.245L186.767 249.093ZM194.822 246.552C196.604 245.975 198.274 245.36 199.83 244.707L198.284 241.018C196.841 241.623 195.277 242.2 193.588 242.748L194.822 246.552ZM209.244 239.178C210.787 237.859 212.063 236.424 213.046 234.868L209.664 232.732C208.925 233.903 207.927 235.041 206.644 236.139L209.244 239.178ZM213.046 234.868C214.086 233.222 214.919 231.254 215.573 229L211.732 227.885C211.154 229.877 210.455 231.479 209.664 232.732L213.046 234.868ZM217.396 217.011C217.503 215.136 217.555 213.149 217.555 211.05H213.555C213.555 213.083 213.504 214.994 213.403 216.785L217.396 217.011ZM217.555 211.05V204.779H213.555V211.05H217.555ZM217.555 192.237V179.696H213.555V192.237H217.555ZM217.555 167.154V154.612H213.555V167.154H217.555ZM217.555 142.071V135.8H213.555V142.071H217.555ZM217.555 135.8C217.555 134.518 217.461 133.281 217.269 132.094L213.32 132.734C213.475 133.692 213.555 134.713 213.555 135.8H217.555ZM214.524 125.001C213.809 123.944 212.971 122.971 212.016 122.084L209.294 125.016C210.034 125.702 210.671 126.444 211.21 127.242L214.524 125.001ZM212.069 122.136C211.116 121.182 210.078 120.349 208.956 119.639L206.817 123.018C207.683 123.567 208.491 124.214 209.241 124.964L212.069 122.136ZM201.555 116.934C200.32 116.743 199.036 116.65 197.705 116.65V120.65C198.849 120.65 199.928 120.73 200.945 120.887L201.555 116.934Z" fill="black"/>
</svg>
