<svg width="166" height="256" viewBox="0 0 166 256" fill="none" xmlns="http://www.w3.org/2000/svg">
<path d="M102.982 75.65C143.115 75.65 163.182 99.1 163.182 146V232.1C163.182 238.633 161.199 243.767 157.232 247.5C153.499 251.233 148.249 253.1 141.482 253.1C134.715 253.1 129.349 251.233 125.382 247.5C121.415 243.767 119.432 238.633 119.432 232.1V146C119.432 133.633 116.865 124.65 111.732 119.05C106.832 113.217 99.0152 110.3 88.2818 110.3C75.6818 110.3 65.5318 114.267 57.8318 122.2C50.3652 130.133 46.6318 140.75 46.6318 154.05V232.1C46.6318 238.633 44.6485 243.767 40.6818 247.5C36.7152 251.233 31.3485 253.1 24.5818 253.1C17.8152 253.1 12.4485 251.233 8.48184 247.5C4.7485 243.767 2.88184 238.633 2.88184 232.1V22.8C2.88184 16.7333 4.86517 11.8333 8.83184 8.1C13.0318 4.36666 18.3985 2.49999 24.9318 2.49999C31.4652 2.49999 36.7152 4.24998 40.6818 7.74998C44.6485 11.25 46.6318 16.0333 46.6318 22.1V103.65C52.4652 94.55 60.1652 87.6667 69.7318 83C79.5318 78.1 90.6152 75.65 102.982 75.65Z" fill="#F5F5F5"/>
<path d="M157.232 247.5L156.546 246.772L156.535 246.782L156.525 246.793L157.232 247.5ZM125.382 247.5L126.067 246.772L126.067 246.772L125.382 247.5ZM111.732 119.05L110.966 119.693L110.98 119.71L110.995 119.726L111.732 119.05ZM57.8318 122.2L57.1143 121.504L57.1089 121.509L57.1036 121.515L57.8318 122.2ZM40.6818 247.5L39.9965 246.772L39.9965 246.772L40.6818 247.5ZM8.48184 247.5L7.77473 248.207L7.78544 248.218L7.79647 248.228L8.48184 247.5ZM8.83184 8.1L8.16747 7.35259L8.15684 7.36204L8.14647 7.3718L8.83184 8.1ZM40.6818 7.74998L41.3435 7.00014L41.3435 7.00014L40.6818 7.74998ZM46.6318 103.65H45.6318V107.063L47.4737 104.19L46.6318 103.65ZM69.7318 83L70.1703 83.8988L70.1791 83.8944L69.7318 83ZM102.982 74.65C100.019 74.65 97.1266 74.7891 94.305 75.0679L94.5017 77.0582C97.2549 76.7862 100.082 76.65 102.982 76.65V74.65ZM77.318 78.7267C74.5527 79.6842 71.8748 80.8105 69.2846 82.1056L70.1791 83.8944C72.6906 82.6386 75.2883 81.546 77.9724 80.6166L77.318 78.7267ZM69.2934 82.1012C66.8708 83.283 64.5644 84.6054 62.3745 86.0686L63.4857 87.7315C65.5987 86.3196 67.8267 85.042 70.1703 83.8988L69.2934 82.1012ZM50.5136 96.6892C48.8228 98.6946 47.2484 100.835 45.79 103.11L47.4737 104.19C48.8867 101.985 50.4097 99.9152 52.0427 97.9784L50.5136 96.6892ZM47.6318 103.65V96.8542H45.6318V103.65H47.6318ZM47.6318 83.2625V69.6708H45.6318V83.2625H47.6318ZM47.6318 56.0792V42.4875H45.6318V56.0792H47.6318ZM47.6318 28.8958V22.1H45.6318V28.8958H47.6318ZM47.6318 22.1C47.6318 20.6501 47.5225 19.2632 47.3014 17.9409L45.3288 18.2706C45.53 19.4745 45.6318 20.7505 45.6318 22.1H47.6318ZM44.1779 10.1455C43.3709 9.00306 42.4252 7.95463 41.3435 7.00014L40.0202 8.49982C40.9898 9.35537 41.8303 10.2886 42.5443 11.2994L44.1779 10.1455ZM41.3435 7.00014C40.2251 6.01335 39.0096 5.15874 37.6981 4.43689L36.7337 6.18901C37.9172 6.84044 39.0123 7.61051 40.0202 8.49982L41.3435 7.00014ZM29.2983 1.77708C27.905 1.59188 26.4493 1.49999 24.9318 1.49999V3.49999C26.3687 3.49999 27.7361 3.58701 29.0347 3.75964L29.2983 1.77708ZM24.9318 1.49999C23.3761 1.49999 21.879 1.60283 20.4414 1.81003L20.7267 3.78958C22.0628 3.59702 23.4642 3.49999 24.9318 3.49999V1.49999ZM11.8667 4.68775C10.5491 5.44314 9.31587 6.33179 8.16747 7.35259L9.4962 8.84741C10.5432 7.91671 11.6648 7.10889 12.8614 6.42282L11.8667 4.68775ZM8.14647 7.3718C7.08122 8.37438 6.1487 9.46048 5.35123 10.6302L7.00372 11.7568C7.71635 10.7115 8.55339 9.73531 9.5172 8.8282L8.14647 7.3718ZM2.22145 18.5672C1.99433 19.9181 1.88184 21.3295 1.88184 22.8H3.88184C3.88184 21.4314 3.98653 20.1315 4.19377 18.8988L2.22145 18.5672ZM1.88184 22.8V30.275H3.88184V22.8H1.88184ZM1.88184 45.225V60.175H3.88184V45.225H1.88184ZM1.88184 75.125V90.075H3.88184V75.125H1.88184ZM1.88184 105.025V119.975H3.88184V105.025H1.88184ZM1.88184 134.925V149.875H3.88184V134.925H1.88184ZM1.88184 164.825V179.775H3.88184V164.825H1.88184ZM1.88184 194.725V209.675H3.88184V194.725H1.88184ZM1.88184 224.625V232.1H3.88184V224.625H1.88184ZM1.88184 232.1C1.88184 233.612 1.97903 235.058 2.17516 236.437L4.15523 236.156C3.97355 234.878 3.88184 233.527 3.88184 232.1H1.88184ZM5.03107 244.721C5.8045 245.99 6.71948 247.152 7.77473 248.207L9.18894 246.793C8.24529 245.849 7.42894 244.812 6.73859 243.68L5.03107 244.721ZM7.79647 248.228C8.91716 249.283 10.1445 250.197 11.4774 250.968L12.4794 249.237C11.2795 248.543 10.1758 247.721 9.1672 246.772L7.79647 248.228ZM20.0895 253.807C21.5197 254.003 23.0174 254.1 24.5818 254.1V252.1C23.1 252.1 21.6933 252.008 20.3609 251.826L20.0895 253.807ZM24.5818 254.1C26.1463 254.1 27.644 254.003 29.0742 253.807L28.8028 251.826C27.4704 252.008 26.0637 252.1 24.5818 252.1V254.1ZM37.6863 250.968C39.0191 250.197 40.2465 249.283 41.3672 248.228L39.9965 246.772C38.9878 247.721 37.8842 248.543 36.6843 249.237L37.6863 250.968ZM41.3672 248.228C42.4706 247.19 43.4306 246.046 44.2453 244.798L42.5706 243.705C41.8442 244.818 40.9868 245.84 39.9965 246.772L41.3672 248.228ZM47.3132 236.487C47.5263 235.093 47.6318 233.63 47.6318 232.1H45.6318C45.6318 233.538 45.5326 234.9 45.3362 236.185L47.3132 236.487ZM47.6318 232.1V225.596H45.6318V232.1H47.6318ZM47.6318 212.587V199.579H45.6318V212.587H47.6318ZM47.6318 186.571V173.562H45.6318V186.571H47.6318ZM47.6318 160.554V154.05H45.6318V160.554H47.6318ZM47.6318 154.05C47.6318 151.078 47.8209 148.249 48.1973 145.56L46.2167 145.283C45.8262 148.071 45.6318 150.994 45.6318 154.05H47.6318ZM53.5215 129.618C54.9428 127.189 56.6219 124.945 58.56 122.885L57.1036 121.515C55.0627 123.683 53.2928 126.048 51.7952 128.608L53.5215 129.618ZM58.5494 122.896C60.4899 120.897 62.5872 119.159 64.8413 117.68L63.7441 116.008C61.3637 117.57 59.1537 119.402 57.1143 121.504L58.5494 122.896ZM80.0635 111.928C82.6671 111.51 85.4062 111.3 88.2818 111.3V109.3C85.3089 109.3 82.4633 109.517 79.7463 109.954L80.0635 111.928ZM88.2818 111.3C90.5259 111.3 92.6327 111.43 94.6034 111.687L94.8626 109.704C92.7963 109.434 90.6023 109.3 88.2818 109.3V111.3ZM106.346 115.65C108.111 116.778 109.649 118.126 110.966 119.693L112.498 118.407C111.048 116.681 109.355 115.2 107.423 113.965L106.346 115.65ZM110.995 119.726C112.46 121.325 113.716 123.224 114.756 125.433L116.565 124.582C115.449 122.21 114.085 120.137 112.469 118.374L110.995 119.726ZM118.115 138.938C118.326 141.147 118.432 143.501 118.432 146H120.432C120.432 143.445 120.324 141.027 120.106 138.748L118.115 138.938ZM118.432 146V153.175H120.432V146H118.432ZM118.432 167.525V181.875H120.432V167.525H118.432ZM118.432 196.225V210.575H120.432V196.225H118.432ZM118.432 224.925V232.1H120.432V224.925H118.432ZM118.432 232.1C118.432 233.63 118.537 235.093 118.75 236.487L120.727 236.185C120.531 234.9 120.432 233.538 120.432 232.1H118.432ZM121.818 244.798C122.633 246.046 123.593 247.19 124.696 248.228L126.067 246.772C125.077 245.84 124.219 244.818 123.493 243.705L121.818 244.798ZM124.696 248.228C125.817 249.283 127.045 250.197 128.377 250.968L129.379 249.237C128.179 248.543 127.076 247.721 126.067 246.772L124.696 248.228ZM136.99 253.807C138.42 254.003 139.917 254.1 141.482 254.1V252.1C140 252.1 138.593 252.008 137.261 251.826L136.99 253.807ZM141.482 254.1C143.024 254.1 144.496 254.006 145.898 253.815L145.628 251.833C144.325 252.011 142.943 252.1 141.482 252.1V254.1ZM154.365 250.988C155.674 250.208 156.866 249.28 157.939 248.207L156.525 246.793C155.569 247.749 154.508 248.574 153.341 249.271L154.365 250.988ZM157.917 248.228C159.021 247.19 159.981 246.046 160.795 244.798L159.121 243.705C158.394 244.818 157.537 245.84 156.546 246.772L157.917 248.228ZM163.863 236.487C164.076 235.093 164.182 233.63 164.182 232.1H162.182C162.182 233.538 162.083 234.9 161.886 236.185L163.863 236.487ZM164.182 232.1V224.925H162.182V232.1H164.182ZM164.182 210.575V196.225H162.182V210.575H164.182ZM164.182 181.875V167.525H162.182V181.875H164.182ZM164.182 153.175V146H162.182V153.175H164.182ZM164.182 146C164.182 143.717 164.135 141.487 164.04 139.312L162.042 139.399C162.135 141.544 162.182 143.744 162.182 146H164.182ZM162.769 126.021C162.05 121.353 161.056 116.996 159.783 112.954L157.875 113.554C159.114 117.489 160.087 121.746 160.793 126.326L162.769 126.021ZM154.487 100.6C152.187 96.546 149.476 92.9593 146.351 89.8452L144.939 91.2619C147.928 94.2406 150.531 97.6807 152.747 101.587L154.487 100.6ZM135.508 81.8038C131.691 79.7409 127.501 78.1272 122.944 76.9588L122.448 78.8961C126.861 80.0276 130.896 81.5846 134.558 83.5633L135.508 81.8038ZM109.685 74.8786C107.514 74.7261 105.279 74.65 102.982 74.65V76.65C105.235 76.65 107.423 76.7246 109.545 76.8737L109.685 74.8786ZM157.232 247.5L155.861 246.044L155.839 246.064L155.818 246.086L157.232 247.5ZM125.382 247.5L126.753 246.044L126.753 246.044L125.382 247.5ZM111.732 119.05L110.2 120.336L110.228 120.37L110.258 120.401L111.732 119.05ZM57.8318 122.2L56.3967 120.807L56.386 120.818L56.3754 120.829L57.8318 122.2ZM40.6818 247.5L39.3111 246.044L39.3111 246.044L40.6818 247.5ZM8.48184 247.5L7.06762 248.914L7.08904 248.936L7.11111 248.956L8.48184 247.5ZM8.83184 8.1L7.50311 6.60518L7.48183 6.62409L7.46111 6.6436L8.83184 8.1ZM40.6818 7.74998L42.0051 6.25031L42.0051 6.25031L40.6818 7.74998ZM46.6318 103.65H44.6318V110.476L48.3156 104.729L46.6318 103.65ZM69.7318 83L70.6087 84.7975L70.6175 84.7932L70.6263 84.7888L69.7318 83ZM102.982 73.65C99.9876 73.65 97.0624 73.7906 94.2067 74.0727L94.6 78.0533C97.3191 77.7847 100.113 77.65 102.982 77.65V73.65ZM76.9908 77.7818C74.1849 78.7533 71.4668 79.8964 68.8374 81.2111L70.6263 84.7888C73.0985 83.5527 75.6561 82.4769 78.2996 81.5616L76.9908 77.7818ZM68.855 81.2025C66.3929 82.4035 64.0472 83.7482 61.819 85.2371L64.0413 88.563C66.1159 87.1767 68.3047 85.9214 70.6087 84.7975L68.855 81.2025ZM49.749 96.0446C48.0294 98.0843 46.4292 100.26 44.9481 102.571L48.3156 104.729C49.7058 102.561 51.2032 100.525 52.8072 98.6229L49.749 96.0446ZM48.6318 103.65V96.8542H44.6318V103.65H48.6318ZM48.6318 83.2625V69.6708H44.6318V83.2625H48.6318ZM48.6318 56.0792V42.4875H44.6318V56.0792H48.6318ZM48.6318 28.8958V22.1H44.6318V28.8958H48.6318ZM48.6318 22.1C48.6318 20.5998 48.5187 19.1576 48.2877 17.776L44.3425 18.4355C44.5338 19.5801 44.6318 20.8007 44.6318 22.1H48.6318ZM44.9946 9.56857C44.1412 8.36031 43.1429 7.25426 42.0051 6.25031L39.3586 9.24966C40.2721 10.0557 41.06 10.9313 41.7275 11.8763L44.9946 9.56857ZM42.0051 6.25031C40.8315 5.21478 39.5557 4.31789 38.1803 3.56082L36.2515 7.06507C37.3711 7.68129 38.4059 8.40909 39.3586 9.24966L42.0051 6.25031ZM29.43 0.785799C27.9895 0.59431 26.4895 0.499987 24.9318 0.499987V4.49999C26.3285 4.49999 27.6516 4.58458 28.9029 4.75092L29.43 0.785799ZM24.9318 0.499987C23.3321 0.499987 21.7871 0.605743 20.2988 0.82026L20.8694 4.77935C22.1546 4.59411 23.5082 4.49999 24.9318 4.49999V0.499987ZM11.3693 3.82022C9.99131 4.61026 8.70219 5.53932 7.50311 6.60518L10.1606 9.59482C11.1569 8.70917 12.2226 7.94177 13.3588 7.29035L11.3693 3.82022ZM7.46111 6.6436C6.34514 7.69392 5.36487 8.83495 4.52498 10.0669L7.82996 12.3201C8.50017 11.3371 9.28948 10.4158 10.2026 9.5564L7.46111 6.6436ZM1.23529 18.4014C0.99823 19.8114 0.881838 21.2785 0.881838 22.8H4.88184C4.88184 21.4824 4.98263 20.2381 5.17993 19.0646L1.23529 18.4014ZM0.881838 22.8V30.275H4.88184V22.8H0.881838ZM0.881838 45.225V60.175H4.88184V45.225H0.881838ZM0.881838 75.125V90.075H4.88184V75.125H0.881838ZM0.881838 105.025V119.975H4.88184V105.025H0.881838ZM0.881838 134.925V149.875H4.88184V134.925H0.881838ZM0.881838 164.825V179.775H4.88184V164.825H0.881838ZM0.881838 194.725V209.675H4.88184V194.725H0.881838ZM0.881838 224.625V232.1H4.88184V224.625H0.881838ZM0.881838 232.1C0.881838 233.655 0.981762 235.148 1.18513 236.578L5.14526 236.015C4.97082 234.788 4.88184 233.484 4.88184 232.1H0.881838ZM4.17731 245.242C4.99228 246.578 5.95658 247.803 7.06762 248.914L9.89605 246.086C9.00819 245.198 8.24116 244.223 7.59236 243.159L4.17731 245.242ZM7.11111 248.956C8.28782 250.064 9.57708 251.024 10.9764 251.834L12.9804 248.372C11.847 247.716 10.8052 246.94 9.85257 246.044L7.11111 248.956ZM19.9538 254.798C21.4328 255 22.9761 255.1 24.5818 255.1V251.1C23.1412 251.1 21.7801 251.011 20.4965 250.835L19.9538 254.798ZM24.5818 255.1C26.1875 255.1 27.7308 255 29.2098 254.798L28.6671 250.835C27.3836 251.011 26.0225 251.1 24.5818 251.1V255.1ZM38.1873 251.834C39.5866 251.024 40.8759 250.064 42.0526 248.956L39.3111 246.044C38.3585 246.94 37.3167 247.716 36.1833 248.372L38.1873 251.834ZM42.0526 248.956C43.2125 247.865 44.2238 246.661 45.0827 245.345L41.7333 243.158C41.051 244.203 40.2449 245.165 39.3111 246.044L42.0526 248.956ZM48.3018 236.638C48.5232 235.19 48.6318 233.676 48.6318 232.1H44.6318C44.6318 233.493 44.5358 234.803 44.3477 236.034L48.3018 236.638ZM48.6318 232.1V225.596H44.6318V232.1H48.6318ZM48.6318 212.587V199.579H44.6318V212.587H48.6318ZM48.6318 186.571V173.562H44.6318V186.571H48.6318ZM48.6318 160.554V154.05H44.6318V160.554H48.6318ZM48.6318 154.05C48.6318 151.121 48.8182 148.338 49.1877 145.699L45.2263 145.144C44.8289 147.982 44.6318 150.951 44.6318 154.05H48.6318ZM54.3847 130.123C55.7677 127.759 57.4015 125.575 59.2882 123.571L56.3754 120.829C54.283 123.052 52.4679 125.478 50.932 128.103L54.3847 130.123ZM59.267 123.593C61.1581 121.645 63.1989 119.954 65.3899 118.516L63.1955 115.172C60.752 116.775 58.4856 118.655 56.3967 120.807L59.267 123.593ZM80.2221 112.916C82.7691 112.507 85.4549 112.3 88.2818 112.3V108.3C85.2602 108.3 82.3614 108.521 79.5877 108.966L80.2221 112.916ZM88.2818 112.3C90.4877 112.3 92.5508 112.427 94.4739 112.679L94.9921 108.712C92.8781 108.436 90.6405 108.3 88.2818 108.3V112.3ZM105.807 116.492C107.488 117.567 108.95 118.848 110.2 120.336L113.263 117.764C111.747 115.959 109.978 114.411 107.962 113.122L105.807 116.492ZM110.258 120.401C111.648 121.918 112.849 123.731 113.851 125.859L117.47 124.156C116.315 121.702 114.897 119.544 113.206 117.699L110.258 120.401ZM117.119 139.033C117.327 141.207 117.432 143.529 117.432 146H121.432C121.432 143.417 121.322 140.967 121.101 138.653L117.119 139.033ZM117.432 146V153.175H121.432V146H117.432ZM117.432 167.525V181.875H121.432V167.525H117.432ZM117.432 196.225V210.575H121.432V196.225H117.432ZM117.432 224.925V232.1H121.432V224.925H117.432ZM117.432 232.1C117.432 233.676 117.541 235.19 117.762 236.638L121.716 236.034C121.528 234.803 121.432 233.493 121.432 232.1H117.432ZM120.981 245.345C121.84 246.661 122.851 247.865 124.011 248.956L126.753 246.044C125.819 245.165 125.013 244.203 124.33 243.158L120.981 245.345ZM124.011 248.956C125.188 250.064 126.477 251.024 127.876 251.834L129.88 248.372C128.747 247.716 127.705 246.94 126.753 246.044L124.011 248.956ZM136.854 254.798C138.333 255 139.876 255.1 141.482 255.1V251.1C140.041 251.1 138.68 251.011 137.397 250.835L136.854 254.798ZM141.482 255.1C143.065 255.1 144.582 255.003 146.032 254.806L145.493 250.842C144.239 251.013 142.902 251.1 141.482 251.1V255.1ZM154.878 251.847C156.257 251.024 157.514 250.046 158.646 248.914L155.818 246.086C154.921 246.983 153.925 247.758 152.828 248.412L154.878 251.847ZM158.603 248.956C159.762 247.865 160.774 246.661 161.633 245.345L158.283 243.158C157.601 244.203 156.795 245.165 155.861 246.044L158.603 248.956ZM164.852 236.638C165.073 235.19 165.182 233.676 165.182 232.1H161.182C161.182 233.493 161.086 234.803 160.898 236.034L164.852 236.638ZM165.182 232.1V224.925H161.182V232.1H165.182ZM165.182 210.575V196.225H161.182V210.575H165.182ZM165.182 181.875V167.525H161.182V181.875H165.182ZM165.182 153.175V146H161.182V153.175H165.182ZM165.182 146C165.182 143.703 165.134 141.459 165.039 139.269L161.043 139.443C161.135 141.572 161.182 143.758 161.182 146H165.182ZM163.758 125.869C163.032 121.156 162.026 116.75 160.737 112.653L156.922 113.854C158.143 117.736 159.106 121.943 159.804 126.478L163.758 125.869ZM155.357 100.107C153.015 95.9787 150.25 92.3186 147.057 89.1369L144.233 91.9702C147.154 94.8813 149.704 98.2481 151.877 102.081L155.357 100.107ZM135.984 80.924C132.088 78.8191 127.822 77.177 123.193 75.9901L122.199 79.8648C126.54 80.9778 130.498 82.5064 134.082 84.4431L135.984 80.924ZM109.755 73.881C107.559 73.7268 105.301 73.65 102.982 73.65V77.65C105.213 77.65 107.377 77.7239 109.475 77.8712L109.755 73.881Z" fill="black"/>
</svg>
