<svg width="220" height="256" viewBox="0 0 220 256" fill="none" xmlns="http://www.w3.org/2000/svg">
<path d="M194.966 2.49999C201.732 2.49999 207.099 4.59999 211.066 8.79999C215.032 12.7667 217.016 18.1333 217.016 24.9V230.35C217.016 237.117 214.916 242.6 210.716 246.8C206.749 251 201.499 253.1 194.966 253.1C188.199 253.1 182.832 251 178.866 246.8C174.899 242.6 172.916 237.117 172.916 230.35V143.9H46.5656V230.35C46.5656 237.117 44.4656 242.6 40.2656 246.8C36.299 251 30.9323 253.1 24.1656 253.1C17.6323 253.1 12.2656 251 8.06563 246.8C4.09896 242.6 2.11563 237.117 2.11563 230.35V24.9C2.11563 18.1333 4.09896 12.7667 8.06563 8.79999C12.0323 4.59999 17.399 2.49999 24.1656 2.49999C30.9323 2.49999 36.299 4.59999 40.2656 8.79999C44.4656 12.7667 46.5656 18.1333 46.5656 24.9V107.5H172.916V24.9C172.916 18.1333 174.899 12.7667 178.866 8.79999C182.832 4.59999 188.199 2.49999 194.966 2.49999Z" fill="#F5F5F5"/>
<path d="M211.066 8.79999L210.339 9.48661L210.348 9.497L210.359 9.5071L211.066 8.79999ZM210.716 246.8L210.009 246.093L209.998 246.103L209.989 246.113L210.716 246.8ZM178.866 246.8L178.139 247.487L178.139 247.487L178.866 246.8ZM172.916 143.9H173.916V142.9H172.916V143.9ZM46.5656 143.9V142.9H45.5656V143.9H46.5656ZM40.2656 246.8L39.5585 246.093L39.5484 246.103L39.5386 246.113L40.2656 246.8ZM8.06563 246.8L7.33861 247.487L7.34842 247.497L7.35852 247.507L8.06563 246.8ZM8.06563 8.79999L8.77273 9.5071L8.78283 9.497L8.79264 9.48661L8.06563 8.79999ZM40.2656 8.79999L39.5386 9.48661L39.5582 9.50738L39.579 9.527L40.2656 8.79999ZM46.5656 107.5H45.5656V108.5H46.5656V107.5ZM172.916 107.5V108.5H173.916V107.5H172.916ZM178.866 8.79999L179.573 9.5071L179.583 9.497L179.593 9.48661L178.866 8.79999ZM194.966 1.49999C193.366 1.49999 191.836 1.61382 190.375 1.84354L190.686 3.81925C192.035 3.60709 193.461 3.49999 194.966 3.49999V1.49999ZM181.711 5.10336C180.417 5.95749 179.226 6.96152 178.139 8.11337L179.593 9.48661C180.578 8.4436 181.651 7.53953 182.813 6.7723L181.711 5.10336ZM178.159 8.09288C177.054 9.1972 176.095 10.4064 175.281 11.7197L176.981 12.7728C177.713 11.5922 178.576 10.5039 179.573 9.5071L178.159 8.09288ZM172.233 20.3594C172.021 21.8045 171.916 23.3184 171.916 24.9H173.916C173.916 23.407 174.015 21.9908 174.212 20.6503L172.233 20.3594ZM171.916 24.9V31.7833H173.916V24.9H171.916ZM171.916 45.55V59.3167H173.916V45.55H171.916ZM171.916 73.0833V86.85H173.916V73.0833H171.916ZM171.916 100.617V107.5H173.916V100.617H171.916ZM172.916 106.5H165.019V108.5H172.916V106.5ZM149.225 106.5H133.431V108.5H149.225V106.5ZM117.638 106.5H101.844V108.5H117.638V106.5ZM86.05 106.5H70.2563V108.5H86.05V106.5ZM54.4625 106.5H46.5656V108.5H54.4625V106.5ZM47.5656 107.5V100.617H45.5656V107.5H47.5656ZM47.5656 86.85V73.0833H45.5656V86.85H47.5656ZM47.5656 59.3167V45.55H45.5656V59.3167H47.5656ZM47.5656 31.7833V24.9H45.5656V31.7833H47.5656ZM47.5656 24.9C47.5656 23.3006 47.4518 21.7701 47.2221 20.3096L45.2464 20.6204C45.4585 21.9692 45.5656 23.3954 45.5656 24.9H47.5656ZM43.9623 11.6451C43.1081 10.3516 42.1041 9.16083 40.9522 8.07298L39.579 9.527C40.622 10.5121 41.5261 11.5853 42.2933 12.7472L43.9623 11.6451ZM40.9926 8.11337C39.9048 6.96152 38.714 5.95749 37.4205 5.10336L36.3184 6.7723C37.4803 7.53953 38.5535 8.4436 39.5386 9.48661L40.9926 8.11337ZM28.756 1.84354C27.2955 1.61382 25.765 1.49999 24.1656 1.49999V3.49999C25.6703 3.49999 27.0964 3.60709 28.4453 3.81925L28.756 1.84354ZM24.1656 1.49999C22.5663 1.49999 21.0357 1.61382 19.5752 1.84354L19.886 3.81925C21.2349 3.60709 22.661 3.49999 24.1656 3.49999V1.49999ZM10.9107 5.10336C9.61728 5.95749 8.42647 6.96152 7.33861 8.11337L8.79264 9.48661C9.7777 8.4436 10.851 7.53953 12.0128 6.7723L10.9107 5.10336ZM7.35852 8.09288C6.2542 9.19721 5.29458 10.4064 4.48117 11.7197L6.18146 12.7728C6.91269 11.5922 7.77594 10.5039 8.77273 9.5071L7.35852 8.09288ZM1.43336 20.3594C1.22094 21.8045 1.11563 23.3184 1.11563 24.9H3.11563C3.11563 23.407 3.21505 21.9908 3.4121 20.6503L1.43336 20.3594ZM1.11563 24.9V32.2375H3.11563V24.9H1.11563ZM1.11563 46.9125V61.5875H3.11563V46.9125H1.11563ZM1.11563 76.2625V90.9375H3.11563V76.2625H1.11563ZM1.11563 105.612V120.287H3.11563V105.612H1.11563ZM1.11563 134.963V149.638H3.11563V134.963H1.11563ZM1.11563 164.313V178.988H3.11563V164.313H1.11563ZM1.11563 193.663V208.338H3.11563V193.663H1.11563ZM1.11563 223.013V230.35H3.11563V223.013H1.11563ZM1.11563 230.35C1.11563 231.953 1.22382 233.492 1.44187 234.967L3.42035 234.674C3.21776 233.304 3.11563 231.863 3.11563 230.35H1.11563ZM4.5002 243.751C5.30463 245.09 6.25122 246.335 7.33861 247.487L8.79264 246.113C7.80247 245.065 6.94354 243.934 6.21447 242.721L4.5002 243.751ZM7.35852 247.507C8.47566 248.624 9.67498 249.602 10.9565 250.439L12.0498 248.764C10.8882 248.006 9.79582 247.116 8.77273 246.093L7.35852 247.507ZM19.5783 253.737C21.0461 253.98 22.5756 254.1 24.1656 254.1V252.1C22.6766 252.1 21.2567 251.987 19.9047 251.764L19.5783 253.737ZM24.1656 254.1C25.765 254.1 27.2955 253.986 28.756 253.756L28.4453 251.781C27.0964 251.993 25.6703 252.1 24.1656 252.1V254.1ZM37.4205 250.497C38.714 249.643 39.9048 248.638 40.9926 247.487L39.5386 246.113C38.5535 247.156 37.4803 248.06 36.3184 248.828L37.4205 250.497ZM40.9727 247.507C42.1082 246.372 43.0994 245.144 43.9445 243.824L42.2601 242.746C41.4949 243.941 40.595 245.056 39.5585 246.093L40.9727 247.507ZM47.2132 235.015C47.4488 233.526 47.5656 231.97 47.5656 230.35H45.5656C45.5656 231.874 45.4557 233.325 45.2378 234.703L47.2132 235.015ZM47.5656 230.35V223.146H45.5656V230.35H47.5656ZM47.5656 208.737V194.329H45.5656V208.737H47.5656ZM47.5656 179.921V165.512H45.5656V179.921H47.5656ZM47.5656 151.104V143.9H45.5656V151.104H47.5656ZM46.5656 144.9H54.4625V142.9H46.5656V144.9ZM70.2563 144.9H86.05V142.9H70.2563V144.9ZM101.844 144.9H117.638V142.9H101.844V144.9ZM133.431 144.9H149.225V142.9H133.431V144.9ZM165.019 144.9H172.916V142.9H165.019V144.9ZM171.916 143.9V151.104H173.916V143.9H171.916ZM171.916 165.512V179.921H173.916V165.512H171.916ZM171.916 194.329V208.737H173.916V194.329H171.916ZM171.916 223.146V230.35H173.916V223.146H171.916ZM171.916 230.35C171.916 231.953 172.024 233.492 172.242 234.967L174.22 234.674C174.018 233.304 173.916 231.863 173.916 230.35H171.916ZM175.3 243.751C176.105 245.09 177.051 246.335 178.139 247.487L179.593 246.113C178.602 245.065 177.744 243.934 177.014 242.721L175.3 243.751ZM178.139 247.487C179.226 248.638 180.417 249.643 181.711 250.497L182.813 248.828C181.651 248.06 180.578 247.156 179.593 246.113L178.139 247.487ZM190.375 253.756C191.836 253.986 193.366 254.1 194.966 254.1V252.1C193.461 252.1 192.035 251.993 190.686 251.781L190.375 253.756ZM194.966 254.1C196.535 254.1 198.04 253.983 199.478 253.746L199.154 251.772C197.831 251.99 196.435 252.1 194.966 252.1V254.1ZM207.956 250.455C209.21 249.61 210.373 248.62 211.443 247.487L209.989 246.113C209.016 247.143 207.966 248.037 206.838 248.797L207.956 250.455ZM211.423 247.507C212.558 246.372 213.549 245.144 214.394 243.824L212.71 242.746C211.945 243.941 211.045 245.056 210.009 246.093L211.423 247.507ZM217.663 235.015C217.899 233.526 218.016 231.97 218.016 230.35H216.016C216.016 231.874 215.906 233.325 215.688 234.703L217.663 235.015ZM218.016 230.35V223.012H216.016V230.35H218.016ZM218.016 208.337V193.662H216.016V208.337H218.016ZM218.016 178.987V164.312H216.016V178.987H218.016ZM218.016 149.637V134.962H216.016V149.637H218.016ZM218.016 120.287V105.612H216.016V120.287H218.016ZM218.016 90.9375V76.2625H216.016V90.9375H218.016ZM218.016 61.5875V46.9125H216.016V61.5875H218.016ZM218.016 32.2375V24.9H216.016V32.2375H218.016ZM218.016 24.9C218.016 23.3184 217.91 21.8045 217.698 20.3594L215.719 20.6503C215.916 21.9908 216.016 23.407 216.016 24.9H218.016ZM214.65 11.7197C213.837 10.4064 212.877 9.1972 211.773 8.09288L210.359 9.5071C211.355 10.5039 212.219 11.5922 212.95 12.7728L214.65 11.7197ZM211.793 8.11337C210.705 6.96152 209.514 5.95749 208.221 5.10336L207.118 6.7723C208.28 7.53953 209.354 8.4436 210.339 9.48661L211.793 8.11337ZM199.556 1.84354C198.096 1.61382 196.565 1.49999 194.966 1.49999V3.49999C196.47 3.49999 197.896 3.60709 199.245 3.81925L199.556 1.84354ZM211.066 8.79999L209.612 10.1732L209.631 10.194L209.651 10.2142L211.066 8.79999ZM210.716 246.8L209.301 245.386L209.281 245.406L209.262 245.427L210.716 246.8ZM178.866 246.8L177.412 248.173L177.412 248.173L178.866 246.8ZM172.916 143.9H174.916V141.9H172.916V143.9ZM46.5656 143.9V141.9H44.5656V143.9H46.5656ZM40.2656 246.8L38.8514 245.386L38.8312 245.406L38.8116 245.427L40.2656 246.8ZM8.06563 246.8L6.6116 248.173L6.63121 248.194L6.65141 248.214L8.06563 246.8ZM8.06563 8.79999L9.47984 10.2142L9.50004 10.194L9.51965 10.1732L8.06563 8.79999ZM40.2656 8.79999L38.8116 10.1732L38.8508 10.2148L38.8924 10.254L40.2656 8.79999ZM46.5656 107.5H44.5656V109.5H46.5656V107.5ZM172.916 107.5V109.5H174.916V107.5H172.916ZM178.866 8.79999L180.28 10.2142L180.3 10.194L180.32 10.1732L178.866 8.79999ZM194.966 0.499987C193.319 0.499987 191.736 0.617189 190.22 0.855686L190.841 4.80711C192.134 4.60372 193.508 4.49999 194.966 4.49999V0.499987ZM181.16 4.26889C179.8 5.16647 178.551 6.22048 177.412 7.42674L180.32 10.1732C181.253 9.18465 182.268 8.33055 183.364 7.60677L181.16 4.26889ZM177.451 7.38578C176.293 8.54386 175.286 9.81352 174.431 11.1932L177.832 13.2994C178.522 12.1851 179.337 11.1572 180.28 10.2142L177.451 7.38578ZM171.244 20.214C171.024 21.7114 170.916 23.2741 170.916 24.9H174.916C174.916 23.4512 175.012 22.0839 175.201 20.7957L171.244 20.214ZM170.916 24.9V31.7833H174.916V24.9H170.916ZM170.916 45.55V59.3167H174.916V45.55H170.916ZM170.916 73.0833V86.85H174.916V73.0833H170.916ZM170.916 100.617V107.5H174.916V100.617H170.916ZM172.916 105.5H165.019V109.5H172.916V105.5ZM149.225 105.5H133.431V109.5H149.225V105.5ZM117.638 105.5H101.844V109.5H117.638V105.5ZM86.05 105.5H70.2563V109.5H86.05V105.5ZM54.4625 105.5H46.5656V109.5H54.4625V105.5ZM48.5656 107.5V100.617H44.5656V107.5H48.5656ZM48.5656 86.85V73.0833H44.5656V86.85H48.5656ZM48.5656 59.3167V45.55H44.5656V59.3167H48.5656ZM48.5656 31.7833V24.9H44.5656V31.7833H48.5656ZM48.5656 24.9C48.5656 23.2533 48.4484 21.6705 48.2099 20.1542L44.2585 20.7757C44.4619 22.0688 44.5656 23.4427 44.5656 24.9H48.5656ZM44.7967 11.094C43.8991 9.73479 42.8451 8.48522 41.6389 7.34596L38.8924 10.254C39.881 11.1877 40.7351 12.2022 41.4588 13.2982L44.7967 11.094ZM41.7197 7.42674C40.5804 6.22048 39.3308 5.16647 37.9716 4.26889L35.7674 7.60677C36.8634 8.33055 37.8779 9.18464 38.8116 10.1732L41.7197 7.42674ZM28.9114 0.855686C27.3951 0.617188 25.8123 0.499987 24.1656 0.499987V4.49999C25.6229 4.49999 26.9968 4.60372 28.2899 4.80711L28.9114 0.855686ZM24.1656 0.499987C22.5189 0.499987 20.9362 0.617189 19.4199 0.855686L20.0414 4.80711C21.3344 4.60372 22.7084 4.49999 24.1656 4.49999V0.499987ZM10.3597 4.26889C9.00043 5.16647 7.75085 6.22048 6.6116 7.42674L9.51965 10.1732C10.4533 9.18464 11.4678 8.33055 12.5639 7.60677L10.3597 4.26889ZM6.65141 7.38578C5.49332 8.54387 4.48552 9.81352 3.63102 11.1932L7.0316 13.2994C7.72174 12.1851 8.53682 11.1572 9.47984 10.2142L6.65141 7.38578ZM0.443994 20.214C0.223878 21.7114 0.115627 23.2741 0.115627 24.9H4.11563C4.11563 23.4512 4.21211 22.0839 4.40147 20.7957L0.443994 20.214ZM0.115627 24.9V32.2375H4.11563V24.9H0.115627ZM0.115627 46.9125V61.5875H4.11563V46.9125H0.115627ZM0.115627 76.2625V90.9375H4.11563V76.2625H0.115627ZM0.115627 105.612V120.287H4.11563V105.612H0.115627ZM0.115627 134.963V149.638H4.11563V134.963H0.115627ZM0.115627 164.313V178.988H4.11563V164.313H0.115627ZM0.115627 193.663V208.338H4.11563V193.663H0.115627ZM0.115627 223.013V230.35H4.11563V223.013H0.115627ZM0.115627 230.35C0.115627 231.998 0.226846 233.586 0.452633 235.113L4.40959 234.528C4.21473 233.21 4.11563 231.818 4.11563 230.35H0.115627ZM3.64306 244.266C4.48517 245.668 5.4756 246.97 6.6116 248.173L9.51965 245.427C8.57809 244.43 7.763 243.357 7.07161 242.206L3.64306 244.266ZM6.65141 248.214C7.81557 249.378 9.06838 250.4 10.4099 251.276L12.5965 247.927C11.4948 247.207 10.4559 246.362 9.47984 245.386L6.65141 248.214ZM19.4151 254.723C20.9409 254.976 22.5251 255.1 24.1656 255.1V251.1C22.7272 251.1 21.362 250.991 20.0679 250.777L19.4151 254.723ZM24.1656 255.1C25.8123 255.1 27.3951 254.983 28.9114 254.744L28.2899 250.793C26.9968 250.996 25.6229 251.1 24.1656 251.1V255.1ZM37.9716 251.331C39.3308 250.434 40.5804 249.38 41.7197 248.173L38.8116 245.427C37.8779 246.415 36.8634 247.269 35.7674 247.993L37.9716 251.331ZM41.6798 248.214C42.8648 247.029 43.9016 245.745 44.7866 244.363L41.418 242.206C40.6927 243.339 39.8384 244.399 38.8514 245.386L41.6798 248.214ZM48.2009 235.171C48.4453 233.626 48.5656 232.018 48.5656 230.35H44.5656C44.5656 231.826 44.4592 233.224 44.25 234.547L48.2009 235.171ZM48.5656 230.35V223.146H44.5656V230.35H48.5656ZM48.5656 208.737V194.329H44.5656V208.737H48.5656ZM48.5656 179.921V165.512H44.5656V179.921H48.5656ZM48.5656 151.104V143.9H44.5656V151.104H48.5656ZM46.5656 145.9H54.4625V141.9H46.5656V145.9ZM70.2563 145.9H86.05V141.9H70.2563V145.9ZM101.844 145.9H117.638V141.9H101.844V145.9ZM133.431 145.9H149.225V141.9H133.431V145.9ZM165.019 145.9H172.916V141.9H165.019V145.9ZM170.916 143.9V151.104H174.916V143.9H170.916ZM170.916 165.512V179.921H174.916V165.512H170.916ZM170.916 194.329V208.737H174.916V194.329H170.916ZM170.916 223.146V230.35H174.916V223.146H170.916ZM170.916 230.35C170.916 231.998 171.027 233.586 171.253 235.113L175.21 234.528C175.015 233.21 174.916 231.818 174.916 230.35H170.916ZM174.443 244.266C175.285 245.668 176.276 246.97 177.412 248.173L180.32 245.427C179.378 244.43 178.563 243.357 177.872 242.206L174.443 244.266ZM177.412 248.173C178.551 249.38 179.8 250.434 181.16 251.331L183.364 247.993C182.268 247.269 181.253 246.415 180.32 245.427L177.412 248.173ZM190.22 254.744C191.736 254.983 193.319 255.1 194.966 255.1V251.1C193.508 251.1 192.134 250.996 190.841 250.793L190.22 254.744ZM194.966 255.1C196.585 255.1 198.144 254.979 199.641 254.733L198.991 250.786C197.727 250.994 196.386 251.1 194.966 251.1V255.1ZM208.515 251.285C209.832 250.397 211.051 249.358 212.17 248.173L209.262 245.427C208.338 246.405 207.344 247.25 206.279 247.968L208.515 251.285ZM212.13 248.214C213.315 247.029 214.352 245.745 215.237 244.363L211.868 242.206C211.143 243.339 210.288 244.399 209.301 245.386L212.13 248.214ZM218.651 235.171C218.895 233.626 219.016 232.018 219.016 230.35H215.016C215.016 231.826 214.909 233.224 214.7 234.547L218.651 235.171ZM219.016 230.35V223.012H215.016V230.35H219.016ZM219.016 208.337V193.662H215.016V208.337H219.016ZM219.016 178.987V164.312H215.016V178.987H219.016ZM219.016 149.637V134.962H215.016V149.637H219.016ZM219.016 120.287V105.612H215.016V120.287H219.016ZM219.016 90.9375V76.2625H215.016V90.9375H219.016ZM219.016 61.5875V46.9125H215.016V61.5875H219.016ZM219.016 32.2375V24.9H215.016V32.2375H219.016ZM219.016 24.9C219.016 23.2741 218.907 21.7114 218.687 20.214L214.73 20.7957C214.919 22.0839 215.016 23.4512 215.016 24.9H219.016ZM215.5 11.1932C214.646 9.81352 213.638 8.54386 212.48 7.38578L209.651 10.2142C210.594 11.1572 211.41 12.1851 212.1 13.2994L215.5 11.1932ZM212.52 7.42674C211.38 6.22048 210.131 5.16647 208.772 4.26889L206.567 7.60677C207.663 8.33055 208.678 9.18465 209.612 10.1732L212.52 7.42674ZM199.711 0.855687C198.195 0.617189 196.612 0.499987 194.966 0.499987V4.49999C196.423 4.49999 197.797 4.60372 199.09 4.80711L199.711 0.855687Z" fill="black"/>
</svg>
