<svg width="57" height="260" viewBox="0 0 57 260" fill="none" xmlns="http://www.w3.org/2000/svg">
<path d="M28.5164 257.1C22.2164 257.1 16.9664 255.35 12.7664 251.85C8.79974 248.117 6.81641 242.867 6.81641 236.1V101C6.81641 94.2333 8.79974 89.1 12.7664 85.6C16.9664 82.1 22.2164 80.35 28.5164 80.35C34.8164 80.35 40.0664 82.1 44.2664 85.6C48.4664 89.1 50.5664 94.2333 50.5664 101V236.1C50.5664 242.867 48.4664 248.117 44.2664 251.85C40.0664 255.35 34.8164 257.1 28.5164 257.1ZM28.5164 49.2C20.5831 49.2 14.2831 47.1 9.61641 42.9C4.94974 38.4667 2.61641 32.75 2.61641 25.75C2.61641 18.75 4.94974 13.15 9.61641 8.95C14.2831 4.75 20.5831 2.64999 28.5164 2.64999C36.2164 2.64999 42.3997 4.75 47.0664 8.95C51.9664 13.15 54.4164 18.75 54.4164 25.75C54.4164 32.75 52.0831 38.4667 47.4164 42.9C42.7497 47.1 36.4497 49.2 28.5164 49.2Z" fill="#F5F5F5"/>
<path d="M12.7664 251.85L12.081 252.578L12.103 252.599L12.1262 252.618L12.7664 251.85ZM12.7664 85.6L12.1262 84.8318L12.1154 84.8408L12.1048 84.8502L12.7664 85.6ZM44.2664 85.6L44.9066 84.8318L44.9066 84.8318L44.2664 85.6ZM44.2664 251.85L44.9066 252.618L44.9188 252.608L44.9308 252.597L44.2664 251.85ZM9.61641 42.9L8.92766 43.625L8.93743 43.6343L8.94744 43.6433L9.61641 42.9ZM9.61641 8.95L10.2854 9.69329L10.2854 9.69329L9.61641 8.95ZM47.0664 8.95L46.3974 9.69329L46.4064 9.70138L46.4156 9.70925L47.0664 8.95ZM47.4164 42.9L48.0854 43.6433L48.0954 43.6343L48.1052 43.625L47.4164 42.9ZM28.5164 256.1C27.0938 256.1 25.7316 256.008 24.4288 255.826L24.1513 257.806C25.5524 258.003 27.0077 258.1 28.5164 258.1V256.1ZM16.7439 253.352C15.5642 252.71 14.4519 251.953 13.4066 251.082L12.1262 252.618C13.2708 253.572 14.4911 254.402 15.7867 255.109L16.7439 253.352ZM13.4518 251.122C12.4487 250.178 11.5814 249.132 10.8484 247.985L9.16293 249.062C9.98572 250.35 10.959 251.522 12.081 252.578L13.4518 251.122ZM8.10471 240.276C7.91315 238.964 7.81641 237.573 7.81641 236.1H5.81641C5.81641 237.66 5.91886 239.149 6.1257 240.565L8.10471 240.276ZM7.81641 236.1V229.345H5.81641V236.1H7.81641ZM7.81641 215.835V202.325H5.81641V215.835H7.81641ZM7.81641 188.815V175.305H5.81641V188.815H7.81641ZM7.81641 161.795V148.285H5.81641V161.795H7.81641ZM7.81641 134.775V121.265H5.81641V134.775H7.81641ZM7.81641 107.755V101H5.81641V107.755H7.81641ZM7.81641 101C7.81641 99.5476 7.9105 98.1803 8.09663 96.8967L6.11734 96.6097C5.91604 97.9978 5.81641 99.4617 5.81641 101H7.81641ZM10.8136 89.3554C11.5482 88.2415 12.419 87.2401 13.428 86.3498L12.1048 84.8502C10.9642 85.8566 9.97661 86.9918 9.14402 88.2543L10.8136 89.3554ZM13.4066 86.3682C14.4519 85.4971 15.5642 84.7405 16.7439 84.0975L15.7867 82.3414C14.4911 83.0476 13.2708 83.878 12.1262 84.8318L13.4066 86.3682ZM24.4288 81.6245C25.7316 81.4419 27.0938 81.35 28.5164 81.35V79.35C27.0077 79.35 25.5524 79.4475 24.1513 79.6438L24.4288 81.6245ZM28.5164 81.35C29.939 81.35 31.3012 81.4419 32.604 81.6245L32.8815 79.6438C31.4804 79.4475 30.0251 79.35 28.5164 79.35V81.35ZM40.2889 84.0975C41.4686 84.7405 42.5809 85.4971 43.6262 86.3682L44.9066 84.8318C43.7621 83.878 42.5417 83.0476 41.2461 82.3414L40.2889 84.0975ZM43.6262 86.3682C44.6813 87.2475 45.5926 88.2335 46.3628 89.327L47.9979 88.1754C47.1246 86.9354 46.0933 85.8207 44.9066 84.8318L43.6262 86.3682ZM49.2641 96.8644C49.4648 98.1568 49.5664 99.5348 49.5664 101H51.5664C51.5664 99.4428 51.4585 97.9615 51.2403 96.5573L49.2641 96.8644ZM49.5664 101V107.755H51.5664V101H49.5664ZM49.5664 121.265V134.775H51.5664V121.265H49.5664ZM49.5664 148.285V161.795H51.5664V148.285H49.5664ZM49.5664 175.305V188.815H51.5664V175.305H49.5664ZM49.5664 202.325V215.835H51.5664V202.325H49.5664ZM49.5664 229.345V236.1H51.5664V229.345H49.5664ZM49.5664 236.1C49.5664 237.585 49.4621 238.987 49.2557 240.307L51.2316 240.616C51.4556 239.184 51.5664 237.678 51.5664 236.1H49.5664ZM46.3281 248.012C45.5592 249.14 44.6513 250.17 43.602 251.103L44.9308 252.597C46.0997 251.558 47.1171 250.405 47.9806 249.138L46.3281 248.012ZM43.6262 251.082C42.5809 251.953 41.4686 252.71 40.2889 253.352L41.2461 255.109C42.5417 254.402 43.7621 253.572 44.9066 252.618L43.6262 251.082ZM32.604 255.826C31.3012 256.008 29.939 256.1 28.5164 256.1V258.1C30.0251 258.1 31.4804 258.003 32.8815 257.806L32.604 255.826ZM28.5164 48.2C26.7789 48.2 25.1274 48.097 23.5611 47.8924L23.302 49.8755C24.9617 50.0923 26.7001 50.2 28.5164 50.2V48.2ZM14.2451 44.9718C12.8099 44.1795 11.4905 43.2413 10.2854 42.1567L8.94744 43.6433C10.267 44.8309 11.7112 45.8575 13.2786 46.7227L14.2451 44.9718ZM10.3052 42.175C9.17182 41.0983 8.18571 39.9463 7.34449 38.7192L5.69488 39.85C6.6188 41.1978 7.69718 42.456 8.92766 43.625L10.3052 42.175ZM3.9928 30.3278C3.74258 28.8772 3.61641 27.3517 3.61641 25.75H1.61641C1.61641 27.4568 1.75087 29.0965 2.02191 30.6678L3.9928 30.3278ZM3.61641 25.75C3.61641 24.1672 3.73962 22.6657 3.98372 21.2442L2.01257 20.9057C1.74769 22.4482 1.61641 24.0634 1.61641 25.75H3.61641ZM7.31189 13.0222C8.15512 11.829 9.14541 10.7193 10.2854 9.69329L8.94744 8.2067C7.70172 9.32785 6.61121 10.5482 5.67856 11.868L7.31189 13.0222ZM10.2854 9.69329C11.4905 8.6087 12.8099 7.67048 14.2451 6.87818L13.2786 5.12725C11.7112 5.9925 10.267 7.01913 8.94744 8.2067L10.2854 9.69329ZM23.5611 3.95762C25.1274 3.75302 26.7789 3.64999 28.5164 3.64999V1.64999C26.7001 1.64999 24.9617 1.75767 23.302 1.97446L23.5611 3.95762ZM28.5164 3.64999C30.2198 3.64999 31.8413 3.75525 33.3818 3.96427L33.6507 1.98243C32.0137 1.76031 30.3019 1.64999 28.5164 1.64999V3.64999ZM42.5115 6.90522C43.9106 7.69144 45.2055 8.62055 46.3974 9.69329L47.7354 8.2067C46.4338 7.03531 45.0188 6.02004 43.4913 5.16167L42.5115 6.90522ZM46.4156 9.70925C47.5991 10.7236 48.6283 11.819 49.5063 12.9949L51.1088 11.7983C50.1381 10.4982 49.0065 9.29585 47.7172 8.19074L46.4156 9.70925ZM53.0241 21.2119C53.2848 22.6426 53.4164 24.1547 53.4164 25.75H55.4164C55.4164 24.0447 55.2757 22.412 54.9917 20.8534L53.0241 21.2119ZM53.4164 25.75C53.4164 27.3517 53.2902 28.8772 53.04 30.3278L55.0109 30.6678C55.2819 29.0965 55.4164 27.4568 55.4164 25.75H53.4164ZM49.6883 38.7192C48.8471 39.9463 47.861 41.0983 46.7277 42.175L48.1052 43.625C49.3356 42.456 50.414 41.1978 51.3379 39.85L49.6883 38.7192ZM46.7474 42.1567C45.5423 43.2413 44.2229 44.1795 42.7877 44.9718L43.7542 46.7227C45.3216 45.8575 46.7659 44.8309 48.0854 43.6433L46.7474 42.1567ZM33.4717 47.8924C31.9054 48.097 30.2539 48.2 28.5164 48.2V50.2C30.3327 50.2 32.0711 50.0923 33.7308 49.8755L33.4717 47.8924ZM12.7664 251.85L11.3957 253.306L11.4396 253.348L11.486 253.386L12.7664 251.85ZM12.7664 85.6L11.486 84.0635L11.4643 84.0816L11.4432 84.1003L12.7664 85.6ZM44.2664 85.6L45.5468 84.0635L45.5468 84.0635L44.2664 85.6ZM44.2664 251.85L45.5468 253.386L45.5713 253.366L45.5951 253.345L44.2664 251.85ZM9.61641 42.9L8.23891 44.35L8.25845 44.3686L8.27848 44.3866L9.61641 42.9ZM9.61641 8.95L10.9543 10.4366L10.9543 10.4366L9.61641 8.95ZM47.0664 8.95L45.7285 10.4366L45.7465 10.4528L45.7648 10.4685L47.0664 8.95ZM47.4164 42.9L48.7543 44.3866L48.7744 44.3686L48.7939 44.35L47.4164 42.9ZM28.5164 255.1C27.1369 255.1 25.8211 255.011 24.5675 254.835L24.0125 258.797C25.4629 259 26.9647 259.1 28.5164 259.1V255.1ZM17.2225 252.474C16.1007 251.863 15.0425 251.143 14.0468 250.314L11.486 253.386C12.6802 254.382 13.9546 255.249 15.3082 255.987L17.2225 252.474ZM14.1371 250.394C13.1935 249.506 12.3793 248.524 11.6911 247.447L8.32021 249.6C9.18786 250.958 10.2141 252.194 11.3957 253.306L14.1371 250.394ZM9.09421 240.132C8.9103 238.872 8.81641 237.529 8.81641 236.1H4.81641C4.81641 237.704 4.92172 239.241 5.1362 240.71L9.09421 240.132ZM8.81641 236.1V229.345H4.81641V236.1H8.81641ZM8.81641 215.835V202.325H4.81641V215.835H8.81641ZM8.81641 188.815V175.305H4.81641V188.815H8.81641ZM8.81641 161.795V148.285H4.81641V161.795H8.81641ZM8.81641 134.775V121.265H4.81641V134.775H8.81641ZM8.81641 107.755V101H4.81641V107.755H8.81641ZM8.81641 101C8.81641 99.5906 8.90773 98.2715 9.08628 97.0402L5.12769 96.4662C4.91881 97.9066 4.81641 99.4187 4.81641 101H8.81641ZM11.6485 89.9059C12.334 88.8663 13.1465 87.9319 14.0897 87.0997L11.4432 84.1003C10.2367 85.1648 9.19081 86.3669 8.3092 87.7038L11.6485 89.9059ZM14.0468 87.1364C15.0425 86.3066 16.1007 85.5869 17.2225 84.9756L15.3082 81.4634C13.9546 82.2011 12.6802 83.0684 11.486 84.0635L14.0468 87.1364ZM24.5675 82.6148C25.8211 82.4391 27.1369 82.35 28.5164 82.35V78.35C26.9647 78.35 25.4629 78.4503 24.0125 78.6535L24.5675 82.6148ZM28.5164 82.35C29.8959 82.35 31.2117 82.4391 32.4653 82.6148L33.0203 78.6535C31.5699 78.4503 30.0681 78.35 28.5164 78.35V82.35ZM39.8104 84.9756C40.9321 85.5869 41.9903 86.3066 42.986 87.1364L45.5468 84.0635C44.3526 83.0684 43.0782 82.2011 41.7246 81.4634L39.8104 84.9756ZM42.986 87.1364C43.9754 87.9609 44.8266 88.8826 45.5452 89.9028L48.8155 87.5995C47.8906 86.2863 46.7992 85.1072 45.5468 84.0635L42.986 87.1364ZM48.2759 97.0179C48.468 98.2544 48.5664 99.5808 48.5664 101H52.5664C52.5664 99.3968 52.4553 97.8638 52.2285 96.4038L48.2759 97.0179ZM48.5664 101V107.755H52.5664V101H48.5664ZM48.5664 121.265V134.775H52.5664V121.265H48.5664ZM48.5664 148.285V161.795H52.5664V148.285H48.5664ZM48.5664 175.305V188.815H52.5664V175.305H48.5664ZM48.5664 202.325V215.835H52.5664V202.325H48.5664ZM48.5664 229.345V236.1H52.5664V229.345H48.5664ZM48.5664 236.1C48.5664 237.538 48.4654 238.888 48.2677 240.153L52.2196 240.771C52.4523 239.283 52.5664 237.725 52.5664 236.1H48.5664ZM45.5018 247.449C44.7802 248.507 43.9271 249.476 42.9377 250.355L45.5951 253.345C46.8239 252.253 47.8961 251.038 48.8069 249.702L45.5018 247.449ZM42.986 250.314C41.9903 251.143 40.9321 251.863 39.8104 252.474L41.7246 255.987C43.0782 255.249 44.3526 254.382 45.5468 253.386L42.986 250.314ZM32.4653 254.835C31.2117 255.011 29.8959 255.1 28.5164 255.1V259.1C30.0681 259.1 31.5699 259 33.0203 258.797L32.4653 254.835ZM28.5164 47.2C26.8183 47.2 25.2103 47.0993 23.6906 46.9008L23.1725 50.8671C24.8788 51.09 26.6607 51.2 28.5164 51.2V47.2ZM14.7284 44.0964C13.3592 43.3405 12.1022 42.4465 10.9543 41.4134L8.27848 44.3866C9.65521 45.6256 11.1618 46.6965 12.7953 47.5982L14.7284 44.0964ZM10.9939 41.45C9.90913 40.4195 8.96916 39.3206 8.16929 38.1538L4.87008 40.4154C5.83535 41.8235 6.95986 43.1349 8.23891 44.35L10.9939 41.45ZM4.97824 30.1578C4.73844 28.7676 4.61641 27.2992 4.61641 25.75H0.616407C0.616407 27.5093 0.755009 29.2061 1.03646 30.8378L4.97824 30.1578ZM4.61641 25.75C4.61641 24.219 4.73558 22.7745 4.96929 21.4135L1.027 20.7365C0.751728 22.3395 0.616407 24.0116 0.616407 25.75H4.61641ZM8.12855 13.5993C8.92707 12.4694 9.86725 11.415 10.9543 10.4366L8.27848 7.46341C6.97987 8.63215 5.83926 9.90782 4.8619 11.2909L8.12855 13.5993ZM10.9543 10.4366C12.1022 9.40348 13.3592 8.50947 14.7284 7.75364L12.7953 4.25178C11.1618 5.15351 9.65521 6.22435 8.27848 7.46341L10.9543 10.4366ZM23.6906 4.94919C25.2103 4.75069 26.8183 4.64999 28.5164 4.64999V0.649994C26.6607 0.649994 24.8788 0.76 23.1725 0.982888L23.6906 4.94919ZM28.5164 4.64999C30.1787 4.64999 31.7551 4.75271 33.2473 4.95519L33.7851 0.991509C32.0999 0.762845 30.343 0.649994 28.5164 0.649994V4.64999ZM42.0216 7.77699C43.3565 8.52714 44.5913 9.41317 45.7285 10.4366L48.4043 7.46341C47.048 6.24269 45.5729 5.18434 43.9812 4.2899L42.0216 7.77699ZM45.7648 10.4685C46.8953 11.4375 47.8734 12.4795 48.705 13.5932L51.9101 11.2C50.8929 9.83777 49.7102 8.58196 48.368 7.43148L45.7648 10.4685ZM52.0403 21.3911C52.2893 22.7579 52.4164 24.2097 52.4164 25.75H56.4164C56.4164 23.9897 56.2712 22.2967 55.9755 20.6741L52.0403 21.3911ZM52.4164 25.75C52.4164 27.2992 52.2944 28.7676 52.0546 30.1578L55.9964 30.8378C56.2778 29.2061 56.4164 27.5093 56.4164 25.75H52.4164ZM48.8635 38.1538C48.0637 39.3206 47.1237 40.4195 46.0389 41.45L48.7939 44.35C50.073 43.1349 51.1975 41.8235 52.1627 40.4154L48.8635 38.1538ZM46.0785 41.4134C44.9306 42.4465 43.6736 43.3405 42.3044 44.0964L44.2375 47.5982C45.871 46.6965 47.3776 45.6256 48.7543 44.3866L46.0785 41.4134ZM33.3422 46.9008C31.8225 47.0993 30.2145 47.2 28.5164 47.2V51.2C30.3721 51.2 32.154 51.09 33.8603 50.8671L33.3422 46.9008Z" fill="black"/>
</svg>
