<svg width="51" height="256" viewBox="0 0 51 256" fill="none" xmlns="http://www.w3.org/2000/svg">
<path d="M25.2813 253.1C18.5146 253.1 13.0313 251 8.83125 246.8C4.86458 242.6 2.88125 237.117 2.88125 230.35V24.9C2.88125 18.1333 4.86458 12.7667 8.83125 8.79999C13.0313 4.59999 18.5146 2.49999 25.2813 2.49999C32.2813 2.49999 37.7646 4.59999 41.7313 8.79999C45.9313 12.7667 48.0313 18.1333 48.0313 24.9V230.35C48.0313 237.117 45.9313 242.6 41.7313 246.8C37.7646 251 32.2813 253.1 25.2813 253.1Z" fill="#F5F5F5"/>
<path d="M8.83125 246.8L8.10424 247.487L8.11404 247.497L8.12414 247.507L8.83125 246.8ZM8.83125 8.79999L8.12414 8.09288L8.12414 8.09288L8.83125 8.79999ZM41.7313 8.79999L41.0042 9.48661L41.0239 9.50738L41.0446 9.527L41.7313 8.79999ZM41.7313 246.8L41.0241 246.093L41.014 246.103L41.0042 246.113L41.7313 246.8ZM25.2813 252.1C23.757 252.1 22.3064 251.99 20.9284 251.772L20.616 253.748C22.1055 253.983 23.6609 254.1 25.2813 254.1V252.1ZM12.8857 248.795C11.6905 248.029 10.5748 247.129 9.53836 246.093L8.12414 247.507C9.25958 248.643 10.4874 249.634 11.8073 250.479L12.8857 248.795ZM9.55826 246.113C8.56809 245.065 7.70917 243.934 6.9801 242.721L5.26583 243.751C6.07025 245.09 7.01685 246.335 8.10424 247.487L9.55826 246.113ZM4.18597 234.674C3.98338 233.304 3.88125 231.863 3.88125 230.35H1.88125C1.88125 231.953 1.98944 233.492 2.2075 234.967L4.18597 234.674ZM3.88125 230.35V223.012H1.88125V230.35H3.88125ZM3.88125 208.337V193.662H1.88125V208.337H3.88125ZM3.88125 178.987V164.312H1.88125V178.987H3.88125ZM3.88125 149.637V134.962H1.88125V149.637H3.88125ZM3.88125 120.287V105.612H1.88125V120.287H3.88125ZM3.88125 90.9375V76.2625H1.88125V90.9375H3.88125ZM3.88125 61.5875V46.9125H1.88125V61.5875H3.88125ZM3.88125 32.2375V24.9H1.88125V32.2375H3.88125ZM3.88125 24.9C3.88125 23.407 3.98068 21.9908 4.17772 20.6503L2.19899 20.3594C1.98656 21.8045 1.88125 23.3184 1.88125 24.9H3.88125ZM6.94708 12.7728C7.67831 11.5922 8.54157 10.5039 9.53836 9.5071L8.12414 8.09288C7.01982 9.19721 6.0602 10.4064 5.24679 11.7197L6.94708 12.7728ZM9.53836 9.5071C10.5748 8.47062 11.6905 7.57071 12.8857 6.80547L11.8073 5.12114C10.4874 5.96624 9.25958 6.95745 8.12414 8.09288L9.53836 9.5071ZM20.9284 3.82785C22.3064 3.6099 23.757 3.49999 25.2813 3.49999V1.49999C23.6609 1.49999 22.1055 1.61683 20.616 1.85241L20.9284 3.82785ZM25.2813 3.49999C26.8203 3.49999 28.2768 3.60449 29.6519 3.81151L29.9497 1.8338C28.4671 1.6106 26.9106 1.49999 25.2813 1.49999V3.49999ZM37.7139 6.7423C38.9103 7.51632 40.0068 8.43048 41.0042 9.48661L42.4583 8.11337C41.3528 6.94287 40.1333 5.9255 38.8004 5.06312L37.7139 6.7423ZM41.0446 9.527C42.0876 10.5121 42.9917 11.5853 43.7589 12.7472L45.4279 11.6451C44.5738 10.3516 43.5697 9.16083 42.4179 8.07298L41.0446 9.527ZM46.712 20.6204C46.9242 21.9692 47.0313 23.3954 47.0313 24.9H49.0313C49.0313 23.3006 48.9174 21.7701 48.6877 20.3096L46.712 20.6204ZM47.0313 24.9V32.2375H49.0313V24.9H47.0313ZM47.0313 46.9125V61.5875H49.0313V46.9125H47.0313ZM47.0313 76.2625V90.9375H49.0313V76.2625H47.0313ZM47.0313 105.612V120.287H49.0313V105.612H47.0313ZM47.0313 134.963V149.638H49.0313V134.963H47.0313ZM47.0313 164.313V178.988H49.0313V164.313H47.0313ZM47.0313 193.663V208.338H49.0313V193.663H47.0313ZM47.0313 223.013V230.35H49.0313V223.013H47.0313ZM47.0313 230.35C47.0313 231.874 46.9213 233.325 46.7034 234.703L48.6788 235.015C48.9144 233.526 49.0313 231.97 49.0313 230.35H47.0313ZM43.7258 242.746C42.9605 243.941 42.0606 245.056 41.0241 246.093L42.4384 247.507C43.5738 246.372 44.565 245.144 45.4101 243.824L43.7258 242.746ZM41.0042 246.113C40.0068 247.17 38.9103 248.084 37.7139 248.858L38.8004 250.537C40.1333 249.674 41.3528 248.657 42.4583 247.487L41.0042 246.113ZM29.6519 251.788C28.2768 251.995 26.8203 252.1 25.2813 252.1V254.1C26.9106 254.1 28.4671 253.989 29.9497 253.766L29.6519 251.788ZM8.83125 246.8L7.37722 248.173L7.39684 248.194L7.41704 248.214L8.83125 246.8ZM8.83125 8.79999L7.41704 7.38578L7.41704 7.38578L8.83125 8.79999ZM41.7313 8.79999L40.2772 10.1732L40.3165 10.2148L40.358 10.254L41.7313 8.79999ZM41.7313 246.8L40.317 245.386L40.2968 245.406L40.2772 245.427L41.7313 246.8ZM25.2813 251.1C23.805 251.1 22.4069 250.994 21.0847 250.784L20.4598 254.735C22.005 254.98 23.6129 255.1 25.2813 255.1V251.1ZM13.4249 247.952C12.2921 247.227 11.2325 246.373 10.2455 245.386L7.41704 248.214C8.60195 249.399 9.88578 250.436 11.2681 251.321L13.4249 247.952ZM10.2853 245.427C9.34372 244.43 8.52862 243.357 7.83723 242.206L4.40869 244.266C5.25079 245.668 6.24122 246.97 7.37722 248.173L10.2853 245.427ZM5.17521 234.528C4.98035 233.21 4.88125 231.818 4.88125 230.35H0.881252C0.881252 231.998 0.992471 233.586 1.21826 235.113L5.17521 234.528ZM4.88125 230.35V223.012H0.881252V230.35H4.88125ZM4.88125 208.337V193.662H0.881252V208.337H4.88125ZM4.88125 178.987V164.312H0.881252V178.987H4.88125ZM4.88125 149.637V134.962H0.881252V149.637H4.88125ZM4.88125 120.287V105.612H0.881252V120.287H4.88125ZM4.88125 90.9375V76.2625H0.881252V90.9375H4.88125ZM4.88125 61.5875V46.9125H0.881252V61.5875H4.88125ZM4.88125 32.2375V24.9H0.881252V32.2375H4.88125ZM4.88125 24.9C4.88125 23.4512 4.97774 22.0839 5.16709 20.7957L1.20962 20.214C0.989503 21.7114 0.881252 23.2741 0.881252 24.9H4.88125ZM7.79723 13.2994C8.48737 12.1851 9.30244 11.1572 10.2455 10.2142L7.41704 7.38578C6.25895 8.54387 5.25115 9.81352 4.39665 11.1932L7.79723 13.2994ZM10.2455 10.2142C11.2325 9.22721 12.2921 8.37294 13.4249 7.64764L11.2681 4.27897C9.88578 5.16401 8.60195 6.20086 7.41704 7.38578L10.2455 10.2142ZM21.0847 4.81557C22.4069 4.60644 23.805 4.49999 25.2813 4.49999V0.499987C23.6129 0.499987 22.005 0.620292 20.4598 0.864684L21.0847 4.81557ZM25.2813 4.49999C26.7752 4.49999 28.1816 4.60143 29.503 4.80037L30.0985 0.844944C28.5622 0.613655 26.9557 0.499987 25.2813 0.499987V4.49999ZM37.1707 7.58189C38.2988 8.31174 39.3338 9.17428 40.2772 10.1732L43.1853 7.42674C42.0258 6.19907 40.7448 5.13009 39.3436 4.22353L37.1707 7.58189ZM40.358 10.254C41.3466 11.1877 42.2007 12.2022 42.9245 13.2982L46.2624 11.094C45.3648 9.73479 44.3108 8.48522 43.1045 7.34596L40.358 10.254ZM45.7241 20.7757C45.9275 22.0688 46.0313 23.4427 46.0313 24.9H50.0313C50.0313 23.2533 49.9141 21.6705 49.6756 20.1542L45.7241 20.7757ZM46.0313 24.9V32.2375H50.0313V24.9H46.0313ZM46.0313 46.9125V61.5875H50.0313V46.9125H46.0313ZM46.0313 76.2625V90.9375H50.0313V76.2625H46.0313ZM46.0313 105.612V120.287H50.0313V105.612H46.0313ZM46.0313 134.963V149.638H50.0313V134.963H46.0313ZM46.0313 164.313V178.988H50.0313V164.313H46.0313ZM46.0313 193.663V208.338H50.0313V193.663H46.0313ZM46.0313 223.013V230.35H50.0313V223.013H46.0313ZM46.0313 230.35C46.0313 231.826 45.9248 233.224 45.7157 234.547L49.6666 235.171C49.9109 233.626 50.0313 232.018 50.0313 230.35H46.0313ZM42.8836 242.206C42.1583 243.339 41.304 244.399 40.317 245.386L43.1455 248.214C44.3304 247.029 45.3672 245.745 46.2523 244.363L42.8836 242.206ZM40.2772 245.427C39.3338 246.426 38.2988 247.288 37.1707 248.018L39.3436 251.376C40.7448 250.47 42.0258 249.401 43.1853 248.173L40.2772 245.427ZM29.503 250.8C28.1816 250.999 26.7752 251.1 25.2813 251.1V255.1C26.9557 255.1 28.5622 254.986 30.0985 254.755L29.503 250.8Z" fill="black"/>
</svg>
