<svg width="103" height="321" viewBox="0 0 103 321" fill="none" xmlns="http://www.w3.org/2000/svg">
<path d="M28.3164 318.7C19.9164 319.167 13.4997 318 9.06641 315.2C4.39974 312.4 2.0664 308.083 2.0664 302.25C2.0664 292.683 7.89974 287.433 19.5664 286.5L29.0164 285.8C36.9497 285.333 42.8997 282.883 46.8664 278.45C50.8331 274.017 52.8164 267.25 52.8164 258.15V101C52.8164 94.2333 54.7997 89.1 58.7664 85.6C62.9664 82.1 68.2164 80.35 74.5164 80.35C80.8164 80.35 86.0664 82.1 90.2664 85.6C94.4664 89.1 96.5664 94.2333 96.5664 101V255C96.5664 294.2 76.9664 315.2 37.7664 318L28.3164 318.7ZM74.1664 49.2C66.2331 49.2 59.9331 47.1 55.2664 42.9C50.5997 38.4667 48.2664 32.75 48.2664 25.75C48.2664 18.75 50.5997 13.15 55.2664 8.95C59.9331 4.75 66.2331 2.64999 74.1664 2.64999C81.8664 2.64999 88.0497 4.75 92.7164 8.95C97.6164 13.15 100.066 18.75 100.066 25.75C100.066 32.75 97.7331 38.4667 93.0664 42.9C88.3997 47.1 82.0997 49.2 74.1664 49.2Z" fill="#F5F5F5"/>
<path d="M28.3164 318.7L28.3719 319.698L28.3811 319.698L28.3903 319.697L28.3164 318.7ZM9.06641 315.2L9.6004 314.355L9.59072 314.348L9.5809 314.343L9.06641 315.2ZM19.5664 286.5L19.4925 285.503L19.4867 285.503L19.5664 286.5ZM29.0164 285.8L28.9577 284.802L28.9501 284.802L28.9425 284.803L29.0164 285.8ZM46.8664 278.45L46.1212 277.783L46.1212 277.783L46.8664 278.45ZM58.7664 85.6L58.1262 84.8318L58.1154 84.8408L58.1048 84.8502L58.7664 85.6ZM90.2664 85.6L90.9066 84.8318L90.9066 84.8318L90.2664 85.6ZM37.7664 318L37.6952 317.003L37.6925 317.003L37.7664 318ZM55.2664 42.9L54.5777 43.625L54.5874 43.6343L54.5974 43.6433L55.2664 42.9ZM55.2664 8.95L55.9354 9.69329L55.9354 9.69329L55.2664 8.95ZM92.7164 8.95L92.0474 9.69329L92.0564 9.70138L92.0656 9.70925L92.7164 8.95ZM93.0664 42.9L93.7354 43.6433L93.7454 43.6343L93.7552 43.625L93.0664 42.9ZM28.2609 317.702C26.5452 317.797 24.9177 317.823 23.378 317.78L23.3226 319.779C24.9233 319.824 26.6066 319.797 28.3719 319.698L28.2609 317.702ZM13.875 316.32C12.2677 315.797 10.8451 315.141 9.6004 314.355L8.53241 316.045C9.93411 316.931 11.5111 317.654 13.257 318.222L13.875 316.32ZM9.5809 314.343C8.48719 313.686 7.53954 312.948 6.73224 312.13L5.30881 313.535C6.24411 314.483 7.32704 315.323 8.55191 316.057L9.5809 314.343ZM3.42706 305.884C3.18812 304.762 3.0664 303.552 3.0664 302.25H1.0664C1.0664 303.676 1.19974 305.027 1.47091 306.301L3.42706 305.884ZM3.0664 302.25C3.0664 299.911 3.43049 297.881 4.13371 296.143L2.27962 295.393C1.4625 297.413 1.0664 299.705 1.0664 302.25H3.0664ZM13.3356 288.599C15.1767 288.056 17.2781 287.686 19.6462 287.497L19.4867 285.503C17.0091 285.701 14.768 286.091 12.7699 286.681L13.3356 288.599ZM19.6403 287.497L22.0028 287.322L21.855 285.328L19.4925 285.503L19.6403 287.497ZM26.7278 286.972L29.0903 286.797L28.9425 284.803L26.58 284.978L26.7278 286.972ZM29.0751 286.798C30.8468 286.694 32.5282 286.493 34.1183 286.193L33.7475 284.227C32.2493 284.51 30.653 284.702 28.9577 284.802L29.0751 286.798ZM43.6711 282.508C45.1419 281.539 46.4562 280.408 47.6116 279.117L46.1212 277.783C45.0829 278.944 43.9003 279.962 42.5707 280.838L43.6711 282.508ZM47.6116 279.117C48.8398 277.744 49.8816 276.167 50.74 274.393L48.9397 273.522C48.1557 275.142 47.2151 276.561 46.1212 277.783L47.6116 279.117ZM53.5515 263.65C53.7285 261.915 53.8164 260.082 53.8164 258.15H51.8164C51.8164 260.021 51.7312 261.787 51.5618 263.447L53.5515 263.65ZM53.8164 258.15V250.292H51.8164V258.15H53.8164ZM53.8164 234.577V218.862H51.8164V234.577H53.8164ZM53.8164 203.147V187.432H51.8164V203.147H53.8164ZM53.8164 171.717V156.002H51.8164V171.717H53.8164ZM53.8164 140.287V124.572H51.8164V140.287H53.8164ZM53.8164 108.857V101H51.8164V108.857H53.8164ZM53.8164 101C53.8164 99.5476 53.9105 98.1803 54.0966 96.8967L52.1173 96.6097C51.916 97.9978 51.8164 99.4617 51.8164 101H53.8164ZM56.8136 89.3554C57.5482 88.2415 58.419 87.2401 59.428 86.3498L58.1048 84.8502C56.9642 85.8566 55.9766 86.9918 55.144 88.2543L56.8136 89.3554ZM59.4066 86.3682C60.4519 85.4971 61.5642 84.7405 62.7439 84.0975L61.7867 82.3414C60.4911 83.0476 59.2708 83.878 58.1262 84.8318L59.4066 86.3682ZM70.4288 81.6245C71.7316 81.4419 73.0938 81.35 74.5164 81.35V79.35C73.0077 79.35 71.5524 79.4475 70.1513 79.6438L70.4288 81.6245ZM74.5164 81.35C75.939 81.35 77.3012 81.4419 78.604 81.6245L78.8815 79.6438C77.4804 79.4475 76.0251 79.35 74.5164 79.35V81.35ZM86.2889 84.0975C87.4686 84.7405 88.5809 85.4971 89.6262 86.3682L90.9066 84.8318C89.7621 83.878 88.5417 83.0476 87.2461 82.3414L86.2889 84.0975ZM89.6262 86.3682C90.6813 87.2475 91.5926 88.2335 92.3628 89.327L93.9979 88.1754C93.1246 86.9354 92.0933 85.8207 90.9066 84.8318L89.6262 86.3682ZM95.2641 96.8644C95.4648 98.1568 95.5664 99.5348 95.5664 101H97.5664C97.5664 99.4428 97.4585 97.9615 97.2403 96.5573L95.2641 96.8644ZM95.5664 101V108.7H97.5664V101H95.5664ZM95.5664 124.1V139.5H97.5664V124.1H95.5664ZM95.5664 154.9V170.3H97.5664V154.9H95.5664ZM95.5664 185.7V201.1H97.5664V185.7H95.5664ZM95.5664 216.5V231.9H97.5664V216.5H95.5664ZM95.5664 247.3V255H97.5664V247.3H95.5664ZM95.5664 255C95.5664 257.774 95.4674 260.454 95.2697 263.04L97.2639 263.192C97.4657 260.553 97.5664 257.822 97.5664 255H95.5664ZM92.5214 278.792C90.9503 284.193 88.7743 289.011 85.9993 293.256L87.6733 294.351C90.567 289.924 92.8211 284.922 94.4418 279.351L92.5214 278.792ZM75.2063 304.8C71.1606 307.852 66.5005 310.352 61.2178 312.293L61.9077 314.17C67.3558 312.168 72.1929 309.579 76.4109 306.396L75.2063 304.8ZM45.6942 316.136C43.1287 316.516 40.4624 316.805 37.6952 317.003L37.8377 318.997C40.6519 318.796 43.3685 318.502 45.9871 318.114L45.6942 316.136ZM37.6925 317.003L35.33 317.178L35.4778 319.172L37.8403 318.997L37.6925 317.003ZM30.605 317.528L28.2425 317.703L28.3903 319.697L30.7528 319.522L30.605 317.528ZM74.1664 48.2C72.4289 48.2 70.7774 48.097 69.2111 47.8924L68.952 49.8755C70.6117 50.0923 72.3501 50.2 74.1664 50.2V48.2ZM59.8951 44.9718C58.4599 44.1795 57.1405 43.2413 55.9354 42.1567L54.5974 43.6433C55.917 44.8309 57.3612 45.8575 58.9286 46.7227L59.8951 44.9718ZM55.9552 42.175C54.8218 41.0983 53.8357 39.9463 52.9945 38.7192L51.3449 39.85C52.2688 41.1978 53.3472 42.456 54.5777 43.625L55.9552 42.175ZM49.6428 30.3278C49.3926 28.8772 49.2664 27.3517 49.2664 25.75H47.2664C47.2664 27.4568 47.4009 29.0965 47.6719 30.6678L49.6428 30.3278ZM49.2664 25.75C49.2664 24.1672 49.3896 22.6657 49.6337 21.2442L47.6626 20.9057C47.3977 22.4482 47.2664 24.0634 47.2664 25.75H49.2664ZM52.9619 13.0222C53.8051 11.829 54.7954 10.7193 55.9354 9.69329L54.5974 8.2067C53.3517 9.32785 52.2612 10.5482 51.3286 11.868L52.9619 13.0222ZM55.9354 9.69329C57.1405 8.6087 58.4599 7.67048 59.8951 6.87818L58.9286 5.12725C57.3612 5.9925 55.917 7.01913 54.5974 8.2067L55.9354 9.69329ZM69.2111 3.95762C70.7774 3.75302 72.4289 3.64999 74.1664 3.64999V1.64999C72.3501 1.64999 70.6117 1.75767 68.952 1.97446L69.2111 3.95762ZM74.1664 3.64999C75.8698 3.64999 77.4913 3.75525 79.0318 3.96427L79.3007 1.98243C77.6637 1.76031 75.9519 1.64999 74.1664 1.64999V3.64999ZM88.1615 6.90522C89.5606 7.69144 90.8555 8.62055 92.0474 9.69329L93.3854 8.2067C92.0838 7.03531 90.6688 6.02004 89.1413 5.16167L88.1615 6.90522ZM92.0656 9.70925C93.2491 10.7236 94.2783 11.819 95.1563 12.9949L96.7588 11.7983C95.7881 10.4982 94.6565 9.29585 93.3672 8.19074L92.0656 9.70925ZM98.6741 21.2119C98.9348 22.6426 99.0664 24.1547 99.0664 25.75H101.066C101.066 24.0447 100.926 22.412 100.642 20.8534L98.6741 21.2119ZM99.0664 25.75C99.0664 27.3517 98.9402 28.8772 98.69 30.3278L100.661 30.6678C100.932 29.0965 101.066 27.4568 101.066 25.75H99.0664ZM95.3383 38.7192C94.4971 39.9463 93.511 41.0983 92.3777 42.175L93.7552 43.625C94.9856 42.456 96.064 41.1978 96.9879 39.85L95.3383 38.7192ZM92.3974 42.1567C91.1923 43.2413 89.8729 44.1795 88.4377 44.9718L89.4042 46.7227C90.9716 45.8575 92.4159 44.8309 93.7354 43.6433L92.3974 42.1567ZM79.1217 47.8924C77.5554 48.097 75.9039 48.2 74.1664 48.2V50.2C75.9827 50.2 77.7211 50.0923 79.3808 49.8755L79.1217 47.8924ZM28.3164 318.7L28.4273 320.697L28.4458 320.696L28.4641 320.695L28.3164 318.7ZM9.06641 315.2L10.1344 313.509L10.115 313.497L10.0954 313.485L9.06641 315.2ZM19.5664 286.5L19.4187 284.505L19.4069 284.506L19.5664 286.5ZM29.0164 285.8L28.899 283.803L28.8838 283.804L28.8687 283.805L29.0164 285.8ZM46.8664 278.45L45.3759 277.116L45.3759 277.116L46.8664 278.45ZM58.7664 85.6L57.486 84.0635L57.4643 84.0816L57.4432 84.1003L58.7664 85.6ZM90.2664 85.6L91.5468 84.0635L91.5468 84.0635L90.2664 85.6ZM37.7664 318L37.6239 316.005L37.6187 316.005L37.7664 318ZM55.2664 42.9L53.8889 44.35L53.9084 44.3686L53.9285 44.3866L55.2664 42.9ZM55.2664 8.95L56.6043 10.4366L56.6043 10.4366L55.2664 8.95ZM92.7164 8.95L91.3785 10.4366L91.3965 10.4528L91.4148 10.4685L92.7164 8.95ZM93.0664 42.9L94.4043 44.3866L94.4244 44.3686L94.4439 44.35L93.0664 42.9ZM28.2055 316.703C26.5144 316.797 24.9149 316.822 23.4057 316.78L23.2948 320.779C24.9262 320.824 26.6373 320.796 28.4273 320.697L28.2055 316.703ZM14.184 315.368C12.646 314.869 11.3005 314.246 10.1344 313.509L7.99842 316.891C9.47864 317.826 11.1328 318.583 12.948 319.173L14.184 315.368ZM10.0954 313.485C9.06726 312.868 8.18725 312.181 7.44395 311.428L4.5971 314.237C5.5964 315.25 6.74697 316.141 8.03741 316.915L10.0954 313.485ZM4.40514 305.676C4.18231 304.629 4.0664 303.489 4.0664 302.25H0.0664043C0.0664043 303.738 0.205557 305.16 0.492831 306.509L4.40514 305.676ZM4.0664 302.25C4.0664 300.014 4.41448 298.116 5.06075 296.518L1.35258 295.018C0.478502 297.179 0.0664043 299.602 0.0664043 302.25H4.0664ZM13.6185 289.558C15.3811 289.038 17.4126 288.679 19.7259 288.494L19.4069 284.506C16.8746 284.709 14.5637 285.109 12.487 285.722L13.6185 289.558ZM19.7141 288.495L22.0766 288.32L21.7812 284.33L19.4187 284.505L19.7141 288.495ZM26.8016 287.97L29.1641 287.795L28.8687 283.805L26.5062 283.98L26.8016 287.97ZM29.1339 287.797C30.9437 287.69 32.6677 287.484 34.3037 287.175L33.562 283.245C32.1098 283.519 30.5562 283.706 28.899 283.803L29.1339 287.797ZM44.2213 283.343C45.7627 282.327 47.1428 281.14 48.3569 279.784L45.3759 277.116C44.3963 278.211 43.2795 279.173 42.0205 280.003L44.2213 283.343ZM48.3569 279.784C49.6522 278.336 50.7445 276.68 51.6402 274.828L48.0395 273.086C47.2928 274.63 46.4028 275.969 45.3759 277.116L48.3569 279.784ZM54.5463 263.752C54.7271 261.979 54.8164 260.112 54.8164 258.15H50.8164C50.8164 259.991 50.7325 261.723 50.567 263.346L54.5463 263.752ZM54.8164 258.15V250.292H50.8164V258.15H54.8164ZM54.8164 234.577V218.862H50.8164V234.577H54.8164ZM54.8164 203.147V187.432H50.8164V203.147H54.8164ZM54.8164 171.717V156.002H50.8164V171.717H54.8164ZM54.8164 140.287V124.572H50.8164V140.287H54.8164ZM54.8164 108.857V101H50.8164V108.857H54.8164ZM54.8164 101C54.8164 99.5906 54.9077 98.2715 55.0863 97.0402L51.1277 96.4662C50.9188 97.9066 50.8164 99.4187 50.8164 101H54.8164ZM57.6485 89.9059C58.334 88.8663 59.1465 87.9319 60.0897 87.0997L57.4432 84.1003C56.2367 85.1648 55.1908 86.3669 54.3092 87.7038L57.6485 89.9059ZM60.0468 87.1364C61.0425 86.3066 62.1007 85.5869 63.2225 84.9756L61.3082 81.4634C59.9546 82.2011 58.6802 83.0684 57.486 84.0635L60.0468 87.1364ZM70.5675 82.6148C71.8211 82.4391 73.1369 82.35 74.5164 82.35V78.35C72.9647 78.35 71.4629 78.4503 70.0125 78.6535L70.5675 82.6148ZM74.5164 82.35C75.8959 82.35 77.2117 82.4391 78.4653 82.6148L79.0203 78.6535C77.5699 78.4503 76.0681 78.35 74.5164 78.35V82.35ZM85.8104 84.9756C86.9321 85.5869 87.9903 86.3066 88.986 87.1364L91.5468 84.0635C90.3526 83.0684 89.0782 82.2011 87.7246 81.4634L85.8104 84.9756ZM88.986 87.1364C89.9754 87.9609 90.8266 88.8826 91.5452 89.9028L94.8155 87.5995C93.8906 86.2863 92.7992 85.1072 91.5468 84.0635L88.986 87.1364ZM94.2759 97.0179C94.468 98.2544 94.5664 99.5808 94.5664 101H98.5664C98.5664 99.3968 98.4553 97.8638 98.2285 96.4038L94.2759 97.0179ZM94.5664 101V108.7H98.5664V101H94.5664ZM94.5664 124.1V139.5H98.5664V124.1H94.5664ZM94.5664 154.9V170.3H98.5664V154.9H94.5664ZM94.5664 185.7V201.1H98.5664V185.7H94.5664ZM94.5664 216.5V231.9H98.5664V216.5H94.5664ZM94.5664 247.3V255H98.5664V247.3H94.5664ZM94.5664 255C94.5664 257.751 94.4682 260.405 94.2726 262.964L98.261 263.268C98.4649 260.602 98.5664 257.846 98.5664 255H94.5664ZM91.5613 278.513C90.0149 283.828 87.878 288.555 85.1623 292.709L88.5103 294.898C91.4633 290.381 93.7566 285.286 95.402 279.63L91.5613 278.513ZM74.604 304.001C70.6445 306.989 66.0729 309.443 60.8728 311.354L62.2526 315.109C67.7834 313.076 72.7091 310.442 77.0132 307.194L74.604 304.001ZM45.5477 315.147C43.0088 315.523 40.3677 315.809 37.6239 316.005L37.9089 319.995C40.7466 319.792 43.4884 319.495 46.1336 319.104L45.5477 315.147ZM37.6187 316.005L35.2562 316.18L35.5517 320.17L37.9142 319.995L37.6187 316.005ZM30.5312 316.53L28.1687 316.705L28.4641 320.695L30.8266 320.52L30.5312 316.53ZM74.1664 47.2C72.4683 47.2 70.8603 47.0993 69.3406 46.9008L68.8225 50.8671C70.5288 51.09 72.3107 51.2 74.1664 51.2V47.2ZM60.3784 44.0964C59.0092 43.3405 57.7522 42.4465 56.6043 41.4134L53.9285 44.3866C55.3052 45.6256 56.8118 46.6965 58.4453 47.5982L60.3784 44.0964ZM56.6439 41.45C55.5591 40.4195 54.6192 39.3206 53.8193 38.1538L50.5201 40.4154C51.4853 41.8235 52.6099 43.1349 53.8889 44.35L56.6439 41.45ZM50.6282 30.1578C50.3884 28.7676 50.2664 27.2992 50.2664 25.75H46.2664C46.2664 27.5093 46.405 29.2061 46.6865 30.8378L50.6282 30.1578ZM50.2664 25.75C50.2664 24.219 50.3856 22.7745 50.6193 21.4135L46.677 20.7365C46.4017 22.3395 46.2664 24.0116 46.2664 25.75H50.2664ZM53.7785 13.5993C54.5771 12.4694 55.5173 11.415 56.6043 10.4366L53.9285 7.46341C52.6299 8.63215 51.4893 9.90782 50.5119 11.2909L53.7785 13.5993ZM56.6043 10.4366C57.7522 9.40348 59.0092 8.50947 60.3784 7.75364L58.4453 4.25178C56.8118 5.15351 55.3052 6.22435 53.9285 7.46341L56.6043 10.4366ZM69.3406 4.94919C70.8603 4.75069 72.4683 4.64999 74.1664 4.64999V0.649994C72.3107 0.649994 70.5288 0.76 68.8225 0.982888L69.3406 4.94919ZM74.1664 4.64999C75.8287 4.64999 77.4051 4.75271 78.8973 4.95519L79.4351 0.991509C77.7499 0.762845 75.993 0.649994 74.1664 0.649994V4.64999ZM87.6716 7.77699C89.0065 8.52714 90.2413 9.41317 91.3785 10.4366L94.0543 7.46341C92.698 6.24269 91.2229 5.18434 89.6312 4.2899L87.6716 7.77699ZM91.4148 10.4685C92.5453 11.4375 93.5234 12.4795 94.355 13.5932L97.5601 11.2C96.5429 9.83777 95.3602 8.58196 94.018 7.43148L91.4148 10.4685ZM97.6903 21.3911C97.9393 22.7579 98.0664 24.2097 98.0664 25.75H102.066C102.066 23.9897 101.921 22.2967 101.626 20.6741L97.6903 21.3911ZM98.0664 25.75C98.0664 27.2992 97.9444 28.7676 97.7046 30.1578L101.646 30.8378C101.928 29.2061 102.066 27.5093 102.066 25.75H98.0664ZM94.5135 38.1538C93.7137 39.3206 92.7737 40.4195 91.6889 41.45L94.4439 44.35C95.723 43.1349 96.8475 41.8235 97.8127 40.4154L94.5135 38.1538ZM91.7285 41.4134C90.5806 42.4465 89.3236 43.3405 87.9544 44.0964L89.8875 47.5982C91.521 46.6965 93.0276 45.6256 94.4043 44.3866L91.7285 41.4134ZM78.9922 46.9008C77.4725 47.0993 75.8645 47.2 74.1664 47.2V51.2C76.0221 51.2 77.804 51.09 79.5103 50.8671L78.9922 46.9008Z" fill="black"/>
</svg>
