<svg width="109" height="256" viewBox="0 0 109 256" fill="none" xmlns="http://www.w3.org/2000/svg">
<path d="M29.8303 253.1C11.8636 253.8 2.88027 247.617 2.88027 234.55C2.88027 228.95 4.39694 224.75 7.43027 221.95C10.2303 218.917 14.7803 217.167 21.0803 216.7L32.2803 216C41.8469 215.533 49.0803 212.5 53.9803 206.9C58.8803 201.3 61.3303 192.783 61.3303 181.35V24.9C61.3303 18.1333 63.3136 12.7667 67.2803 8.79999C71.4803 4.59999 76.9636 2.49999 83.7303 2.49999C90.7303 2.49999 96.2136 4.59999 100.18 8.79999C104.38 12.7667 106.48 18.1333 106.48 24.9V181.35C106.48 225.45 84.6636 249.133 41.0303 252.4L29.8303 253.1Z" fill="#F5F5F5"/>
<path d="M29.8303 253.1L29.8692 254.099L29.8809 254.099L29.8927 254.098L29.8303 253.1ZM7.43027 221.95L8.10855 222.685L8.13795 222.658L8.16508 222.628L7.43027 221.95ZM21.0803 216.7L21.0179 215.702L21.0064 215.703L21.0803 216.7ZM32.2803 216L32.2315 215.001L32.2179 215.002L32.2803 216ZM53.9803 206.9L53.2277 206.241L53.2277 206.241L53.9803 206.9ZM67.2803 8.79999L66.5732 8.09288L66.5732 8.09288L67.2803 8.79999ZM100.18 8.79999L99.4533 9.48661L99.4729 9.50738L99.4936 9.527L100.18 8.79999ZM41.0303 252.4L41.0927 253.398L41.1049 253.397L41.0303 252.4ZM29.7913 252.101C26.3754 252.234 23.3068 252.114 20.5807 251.747L20.314 253.729C23.1766 254.115 26.3631 254.236 29.8692 254.099L29.7913 252.101ZM5.74197 243.186C4.51552 240.831 3.88027 237.964 3.88027 234.55H1.88027C1.88027 238.21 2.56152 241.409 3.96805 244.11L5.74197 243.186ZM3.88027 234.55C3.88027 233.376 3.94911 232.273 4.08503 231.24L2.10211 230.979C1.95364 232.108 1.88027 233.299 1.88027 234.55H3.88027ZM6.10482 225.132C6.66637 224.215 7.33404 223.4 8.10855 222.685L6.75199 221.215C5.83975 222.057 5.05514 223.016 4.39891 224.088L6.10482 225.132ZM8.16508 222.628C8.91466 221.816 9.80775 221.098 10.8513 220.475L9.82649 218.757C8.63107 219.471 7.58508 220.308 6.69547 221.272L8.16508 222.628ZM17.5438 218.144C18.6677 217.941 19.8708 217.792 21.1541 217.697L21.0064 215.703C19.6617 215.802 18.3892 215.959 17.1897 216.175L17.5438 218.144ZM21.1427 217.698L23.9427 217.523L23.8179 215.527L21.0179 215.702L21.1427 217.698ZM29.5427 217.173L32.3427 216.998L32.2179 215.002L29.4179 215.177L29.5427 217.173ZM32.329 216.999C34.4866 216.894 36.5347 216.66 38.4721 216.296L38.103 214.33C36.2639 214.676 34.3072 214.9 32.2316 215.001L32.329 216.999ZM50.026 211.727C51.7743 210.536 53.3438 209.146 54.7328 207.559L53.2277 206.241C51.9506 207.701 50.5086 208.978 48.8999 210.074L50.026 211.727ZM54.7328 207.559C56.2356 205.841 57.5111 203.869 58.5628 201.649L56.7553 200.793C55.7759 202.86 54.5988 204.674 53.2277 206.241L54.7328 207.559ZM62.0048 188.23C62.2221 186.061 62.3303 183.767 62.3303 181.35H60.3303C60.3303 183.708 60.2248 185.934 60.0148 188.031L62.0048 188.23ZM62.3303 181.35V173.527H60.3303V181.35H62.3303ZM62.3303 157.882V142.237H60.3303V157.882H62.3303ZM62.3303 126.592V110.947H60.3303V126.592H62.3303ZM62.3303 95.3025V79.6575H60.3303V95.3025H62.3303ZM62.3303 64.0125V48.3675H60.3303V64.0125H62.3303ZM62.3303 32.7225V24.9H60.3303V32.7225H62.3303ZM62.3303 24.9C62.3303 23.407 62.4297 21.9908 62.6267 20.6503L60.648 20.3594C60.4356 21.8045 60.3303 23.3184 60.3303 24.9H62.3303ZM65.3961 12.7728C66.1273 11.5922 66.9906 10.5039 67.9874 9.5071L66.5732 8.09288C65.4688 9.19721 64.5092 10.4064 63.6958 11.7197L65.3961 12.7728ZM67.9874 9.5071C69.0239 8.47062 70.1396 7.57071 71.3347 6.80547L70.2563 5.12114C68.9364 5.96624 67.7086 6.95745 66.5732 8.09288L67.9874 9.5071ZM79.3775 3.82785C80.7555 3.6099 82.206 3.49999 83.7303 3.49999V1.49999C82.1099 1.49999 80.5545 1.61683 79.065 1.85241L79.3775 3.82785ZM83.7303 3.49999C85.2693 3.49999 86.7258 3.60449 88.1009 3.81151L88.3987 1.8338C86.9161 1.6106 85.3596 1.49999 83.7303 1.49999V3.49999ZM96.163 6.7423C97.3593 7.51632 98.4558 8.43047 99.4533 9.48661L100.907 8.11337C99.8018 6.94287 98.5823 5.9255 97.2494 5.06312L96.163 6.7423ZM99.4936 9.527C100.537 10.5121 101.441 11.5853 102.208 12.7472L103.877 11.6451C103.023 10.3516 102.019 9.16083 100.867 8.07298L99.4936 9.527ZM105.161 20.6204C105.373 21.9692 105.48 23.3954 105.48 24.9H107.48C107.48 23.3006 107.366 21.7701 107.137 20.3096L105.161 20.6204ZM105.48 24.9V32.7225H107.48V24.9H105.48ZM105.48 48.3675V64.0125H107.48V48.3675H105.48ZM105.48 79.6575V95.3025H107.48V79.6575H105.48ZM105.48 110.947V126.592H107.48V110.947H105.48ZM105.48 142.237V157.882H107.48V142.237H105.48ZM105.48 173.527V181.35H107.48V173.527H105.48ZM105.48 181.35C105.48 183.665 105.42 185.921 105.299 188.12L107.296 188.23C107.419 185.993 107.48 183.7 107.48 181.35H105.48ZM103.681 201.506C102.779 206.132 101.539 210.432 99.9635 214.407L101.823 215.144C103.448 211.044 104.721 206.624 105.644 201.889L103.681 201.506ZM93.6632 226.193C91.0844 229.867 88.083 233.143 84.6574 236.024L85.9446 237.555C89.5032 234.562 92.6221 231.157 95.3002 227.342L93.6632 226.193ZM73.4586 243.306C69.6268 245.21 65.4441 246.795 60.9078 248.061L61.4452 249.987C66.0915 248.691 70.3935 247.062 74.3484 245.097L73.4586 243.306ZM47.6911 250.712C45.5088 251 43.2637 251.23 40.9556 251.403L41.1049 253.397C43.4485 253.222 45.7311 252.988 47.9524 252.695L47.6911 250.712ZM40.9679 251.402L38.1679 251.577L38.2927 253.573L41.0927 253.398L40.9679 251.402ZM32.5679 251.927L29.7679 252.102L29.8927 254.098L32.6927 253.923L32.5679 251.927ZM29.8303 253.1L29.9081 255.098L29.9316 255.098L29.955 255.096L29.8303 253.1ZM7.43027 221.95L8.78683 223.42L8.84562 223.365L8.89988 223.307L7.43027 221.95ZM21.0803 216.7L20.9555 214.704L20.944 214.705L20.9325 214.705L21.0803 216.7ZM32.2803 216L32.1828 214.002L32.1692 214.003L32.1555 214.004L32.2803 216ZM53.9803 206.9L52.4751 205.583L52.4751 205.583L53.9803 206.9ZM67.2803 8.79999L65.8661 7.38578L65.8661 7.38578L67.2803 8.79999ZM100.18 8.79999L98.7262 10.1732L98.7655 10.2148L98.807 10.254L100.18 8.79999ZM41.0303 252.4L41.155 254.396L41.1673 254.395L41.1796 254.394L41.0303 252.4ZM29.7524 251.102C26.3816 251.233 23.3719 251.114 20.7141 250.756L20.1807 254.72C23.1115 255.115 26.357 255.237 29.9081 255.098L29.7524 251.102ZM6.62893 242.724C5.49252 240.542 4.88027 237.842 4.88027 234.55H0.880273C0.880273 238.333 1.58452 241.698 3.08109 244.572L6.62893 242.724ZM4.88027 234.55C4.88027 233.415 4.94684 232.356 5.0765 231.37L1.11065 230.849C0.955901 232.025 0.880273 233.26 0.880273 234.55H4.88027ZM6.95778 225.654C7.47198 224.814 8.08118 224.071 8.78683 223.42L6.07371 220.48C5.0926 221.386 4.24953 222.417 3.54596 223.566L6.95778 225.654ZM8.89988 223.307C9.57946 222.57 10.3961 221.911 11.3637 221.334L9.31409 217.899C8.04273 218.657 6.92029 219.554 5.96067 220.593L8.89988 223.307ZM17.7208 219.128C18.8069 218.932 19.9754 218.787 21.228 218.695L20.9325 214.705C19.5572 214.807 18.2499 214.968 17.0126 215.191L17.7208 219.128ZM21.205 218.696L24.005 218.521L23.7555 214.529L20.9555 214.704L21.205 218.696ZM29.605 218.171L32.405 217.996L32.1555 214.004L29.3555 214.179L29.605 218.171ZM32.3777 217.998C34.5763 217.89 36.6701 217.652 38.6566 217.279L37.9184 213.348C36.1286 213.684 34.2175 213.903 32.1828 214.002L32.3777 217.998ZM50.589 212.553C52.4071 211.315 54.0404 209.868 55.4854 208.217L52.4751 205.583C51.254 206.979 49.8757 208.199 48.3368 209.248L50.589 212.553ZM55.4854 208.217C57.054 206.424 58.3788 204.373 59.4665 202.077L55.8516 200.365C54.9082 202.356 53.7804 204.091 52.4751 205.583L55.4854 208.217ZM62.9999 188.33C63.2208 186.124 63.3303 183.797 63.3303 181.35H59.3303C59.3303 183.678 59.2261 185.871 59.0198 187.931L62.9999 188.33ZM63.3303 181.35V173.527H59.3303V181.35H63.3303ZM63.3303 157.882V142.237H59.3303V157.882H63.3303ZM63.3303 126.592V110.947H59.3303V126.592H63.3303ZM63.3303 95.3025V79.6575H59.3303V95.3025H63.3303ZM63.3303 64.0125V48.3675H59.3303V64.0125H63.3303ZM63.3303 32.7225V24.9H59.3303V32.7225H63.3303ZM63.3303 24.9C63.3303 23.4512 63.4268 22.0839 63.6161 20.7957L59.6586 20.214C59.4385 21.7114 59.3303 23.2741 59.3303 24.9H63.3303ZM66.2463 13.2994C66.9364 12.1851 67.7515 11.1572 68.6945 10.2142L65.8661 7.38578C64.708 8.54387 63.7002 9.81352 62.8457 11.1932L66.2463 13.2994ZM68.6945 10.2142C69.6815 9.22721 70.7412 8.37294 71.874 7.64764L69.7171 4.27897C68.3348 5.16401 67.051 6.20086 65.8661 7.38578L68.6945 10.2142ZM79.5337 4.81557C80.8559 4.60644 82.254 4.49999 83.7303 4.49999V0.499987C82.0619 0.499987 80.454 0.620292 78.9088 0.864684L79.5337 4.81557ZM83.7303 4.49999C85.2242 4.49999 86.6307 4.60143 87.9521 4.80037L88.5476 0.844944C87.0113 0.613655 85.4047 0.499987 83.7303 0.499987V4.49999ZM95.6197 7.58189C96.7478 8.31174 97.7828 9.17428 98.7262 10.1732L101.634 7.42674C100.475 6.19907 99.1938 5.13009 97.7926 4.22353L95.6197 7.58189ZM98.807 10.254C99.7956 11.1877 100.65 12.2022 101.373 13.2982L104.711 11.094C103.814 9.73479 102.76 8.48522 101.554 7.34596L98.807 10.254ZM104.173 20.7757C104.377 22.0688 104.48 23.4427 104.48 24.9H108.48C108.48 23.2533 108.363 21.6705 108.125 20.1542L104.173 20.7757ZM104.48 24.9V32.7225H108.48V24.9H104.48ZM104.48 48.3675V64.0125H108.48V48.3675H104.48ZM104.48 79.6575V95.3025H108.48V79.6575H104.48ZM104.48 110.947V126.592H108.48V110.947H104.48ZM104.48 142.237V157.882H108.48V142.237H104.48ZM104.48 173.527V181.35H108.48V173.527H104.48ZM104.48 181.35C104.48 183.647 104.42 185.886 104.3 188.065L108.294 188.285C108.418 186.029 108.48 183.717 108.48 181.35H104.48ZM102.699 201.314C101.808 205.886 100.584 210.126 99.0338 214.039L102.752 215.513C104.402 211.35 105.691 206.871 106.626 202.08L102.699 201.314ZM92.8447 225.619C90.3156 229.222 87.3729 232.434 84.0138 235.258L86.5882 238.32C90.2133 235.272 93.391 231.803 96.1187 227.917L92.8447 225.619ZM73.0137 242.411C69.2435 244.284 65.1204 245.848 60.639 247.098L61.7139 250.951C66.4152 249.639 70.7768 247.988 74.7933 245.993L73.0137 242.411ZM47.5605 249.721C45.3977 250.006 43.1712 250.234 40.881 250.406L41.1796 254.394C43.541 254.218 45.8422 253.982 48.0831 253.686L47.5605 249.721ZM40.9055 250.404L38.1055 250.579L38.355 254.571L41.155 254.396L40.9055 250.404ZM32.5055 250.929L29.7055 251.104L29.955 255.096L32.755 254.921L32.5055 250.929Z" fill="black"/>
</svg>
