<svg width="164" height="255" viewBox="0 0 164 255" fill="none" xmlns="http://www.w3.org/2000/svg">
<path d="M154.677 217.05C159.343 221.483 161.677 226.5 161.677 232.1C161.677 237.467 159.693 242.25 155.727 246.45C151.993 250.65 147.56 252.75 142.427 252.75C137.293 252.75 132.51 250.65 128.077 246.45L46.1768 172.25V232.1C46.1768 238.867 44.0768 244 39.8768 247.5C35.6768 251 30.4268 252.75 24.1268 252.75C17.8268 252.75 12.5768 251 8.37676 247.5C4.41009 244 2.42676 238.867 2.42676 232.1V23.15C2.42676 16.3833 4.41009 11.25 8.37676 7.74998C12.5768 4.24998 17.8268 2.49999 24.1268 2.49999C30.4268 2.49999 35.6768 4.24998 39.8768 7.74998C44.0768 11.25 46.1768 16.3833 46.1768 23.15V154.75L121.077 83C125.277 78.8 130.06 76.7 135.427 76.7C140.793 76.7 145.46 78.6833 149.427 82.65C153.393 86.6167 155.377 91.2833 155.377 96.65C155.377 102.017 153.16 106.917 148.727 111.35L93.7768 162.45L154.677 217.05Z" fill="#F5F5F5"/>
<path d="M154.677 217.05L155.366 216.325L155.355 216.315L155.344 216.305L154.677 217.05ZM155.727 246.45L155 245.763L154.989 245.774L154.979 245.786L155.727 246.45ZM128.077 246.45L128.765 245.724L128.756 245.716L128.748 245.709L128.077 246.45ZM46.1768 172.25L46.8482 171.509L45.1768 169.995V172.25H46.1768ZM39.8768 247.5L39.2366 246.732L39.2366 246.732L39.8768 247.5ZM8.37676 247.5L7.71514 248.25L7.72573 248.259L7.73657 248.268L8.37676 247.5ZM8.37676 7.74998L7.73657 6.98176L7.72573 6.9908L7.71514 7.00014L8.37676 7.74998ZM39.8768 7.74998L40.5169 6.98176L40.5169 6.98176L39.8768 7.74998ZM46.1768 154.75H45.1768V157.093L46.8685 155.472L46.1768 154.75ZM121.077 83L121.769 83.7221L121.776 83.7147L121.784 83.7071L121.077 83ZM148.727 111.35L149.408 112.082L149.421 112.07L149.434 112.057L148.727 111.35ZM93.7768 162.45L93.0958 161.718L92.2938 162.463L93.1092 163.195L93.7768 162.45ZM155.344 216.305L150.269 211.755L148.934 213.245L154.009 217.795L155.344 216.305ZM140.119 202.655L129.969 193.555L128.634 195.045L138.784 204.145L140.119 202.655ZM119.819 184.455L109.669 175.355L108.334 176.845L118.484 185.945L119.819 184.455ZM99.5193 166.255L94.4443 161.705L93.1092 163.195L98.1842 167.745L99.5193 166.255ZM94.4577 163.182L99.0369 158.924L97.6749 157.459L93.0958 161.718L94.4577 163.182ZM108.195 150.407L117.354 141.891L115.992 140.426L106.833 148.943L108.195 150.407ZM126.512 133.374L135.67 124.857L134.308 123.393L125.15 131.909L126.512 133.374ZM144.829 116.341L149.408 112.082L148.046 110.618L143.467 114.876L144.829 116.341ZM149.434 112.057C150.487 111.004 151.423 109.922 152.241 108.808L150.629 107.624C149.876 108.649 149.007 109.656 148.02 110.643L149.434 112.057ZM155.898 100.982C156.218 99.5694 156.377 98.1249 156.377 96.65H154.377C154.377 97.9798 154.233 99.2762 153.947 100.541L155.898 100.982ZM156.377 96.65C156.377 95.2496 156.248 93.8896 155.988 92.5713L154.025 92.9582C154.259 94.143 154.377 95.3731 154.377 96.65H156.377ZM152.764 85.0603C152.004 83.9744 151.126 82.9354 150.134 81.9429L148.72 83.3571C149.635 84.2728 150.437 85.223 151.126 86.2073L152.764 85.0603ZM150.134 81.9429C149.141 80.9503 148.102 80.0729 147.016 79.3127L145.869 80.9511C146.854 81.6401 147.804 82.4414 148.72 83.3571L150.134 81.9429ZM139.505 76.0891C138.187 75.8291 136.827 75.7 135.427 75.7V77.7C136.704 77.7 137.934 77.8177 139.119 78.0513L139.505 76.0891ZM135.427 75.7C133.989 75.7 132.586 75.8438 131.221 76.1328L131.635 78.0894C132.86 77.8303 134.123 77.7 135.427 77.7V75.7ZM123.552 79.5741C122.453 80.3633 121.392 81.2703 120.37 82.2929L121.784 83.7071C122.736 82.7553 123.714 81.9199 124.718 81.1987L123.552 79.5741ZM120.385 82.2779L114.143 88.257L115.527 89.7013L121.769 83.7221L120.385 82.2779ZM101.66 100.215L89.1767 112.174L90.5602 113.618L103.044 101.66L101.66 100.215ZM76.6933 124.132L64.21 136.09L65.5935 137.535L78.0769 125.576L76.6933 124.132ZM51.7267 148.049L45.485 154.028L46.8685 155.472L53.1102 149.493L51.7267 148.049ZM47.1768 154.75V146.525H45.1768V154.75H47.1768ZM47.1768 130.075V113.625H45.1768V130.075H47.1768ZM47.1768 97.175V80.725H45.1768V97.175H47.1768ZM47.1768 64.275V47.825H45.1768V64.275H47.1768ZM47.1768 31.375V23.15H45.1768V31.375H47.1768ZM47.1768 23.15C47.1768 21.5928 47.0689 20.1115 46.8507 18.7073L44.8744 19.0144C45.0752 20.3068 45.1768 21.6848 45.1768 23.15H47.1768ZM43.6083 10.3253C42.7349 9.0854 41.7036 7.97065 40.5169 6.98176L39.2366 8.5182C40.2917 9.39745 41.2029 10.3835 41.9731 11.477L43.6083 10.3253ZM40.5169 6.98176C39.3724 6.02798 38.1521 5.19756 36.8564 4.49139L35.8993 6.24749C37.079 6.89047 38.1912 7.64708 39.2366 8.5182L40.5169 6.98176ZM28.4919 1.79379C27.0907 1.59748 25.6354 1.49999 24.1268 1.49999V3.49999C25.5493 3.49999 26.9116 3.59192 28.2144 3.77444L28.4919 1.79379ZM24.1268 1.49999C22.6181 1.49999 21.1628 1.59748 19.7616 1.79379L20.0391 3.77444C21.3419 3.59192 22.7042 3.49999 24.1268 3.49999V1.49999ZM11.3971 4.4914C10.1015 5.19756 8.88111 6.02798 7.73657 6.98176L9.01694 8.5182C10.0623 7.64708 11.1745 6.89047 12.3542 6.24749L11.3971 4.4914ZM7.71514 7.00014C6.57452 8.00658 5.58696 9.14177 4.75437 10.4043L6.424 11.5054C7.15856 10.3915 8.02939 9.39011 9.03838 8.49982L7.71514 7.00014ZM1.72769 18.7597C1.52639 20.1478 1.42676 21.6117 1.42676 23.15H3.42676C3.42676 21.6976 3.52085 20.3303 3.70698 19.0467L1.72769 18.7597ZM1.42676 23.15V30.6125H3.42676V23.15H1.42676ZM1.42676 45.5375V60.4625H3.42676V45.5375H1.42676ZM1.42676 75.3875V90.3125H3.42676V75.3875H1.42676ZM1.42676 105.237V120.162H3.42676V105.237H1.42676ZM1.42676 135.088V150.013H3.42676V135.088H1.42676ZM1.42676 164.938V179.863H3.42676V164.938H1.42676ZM1.42676 194.788V209.713H3.42676V194.788H1.42676ZM1.42676 224.638V232.1H3.42676V224.638H1.42676ZM1.42676 232.1C1.42676 233.638 1.52639 235.102 1.72769 236.49L3.70698 236.203C3.52085 234.92 3.42676 233.552 3.42676 232.1H1.42676ZM4.75437 244.846C5.58696 246.108 6.57452 247.243 7.71514 248.25L9.03838 246.75C8.02938 245.86 7.15856 244.859 6.42399 243.745L4.75437 244.846ZM7.73657 248.268C8.88111 249.222 10.1015 250.052 11.3971 250.759L12.3542 249.002C11.1745 248.36 10.0623 247.603 9.01694 246.732L7.73657 248.268ZM19.7616 253.456C21.1628 253.653 22.6181 253.75 24.1268 253.75V251.75C22.7042 251.75 21.3419 251.658 20.0391 251.476L19.7616 253.456ZM24.1268 253.75C25.6354 253.75 27.0907 253.653 28.4919 253.456L28.2144 251.476C26.9116 251.658 25.5493 251.75 24.1268 251.75V253.75ZM36.8564 250.759C38.1521 250.052 39.3724 249.222 40.5169 248.268L39.2366 246.732C38.1912 247.603 37.079 248.36 35.8993 249.002L36.8564 250.759ZM40.5169 248.268C41.7036 247.279 42.7349 246.165 43.6083 244.925L41.9731 243.773C41.203 244.866 40.2917 245.853 39.2366 246.732L40.5169 248.268ZM46.8507 236.543C47.0689 235.139 47.1768 233.657 47.1768 232.1H45.1768C45.1768 233.565 45.0752 234.943 44.8744 236.236L46.8507 236.543ZM47.1768 232.1V224.619H45.1768V232.1H47.1768ZM47.1768 209.656V194.694H45.1768V209.656H47.1768ZM47.1768 179.731V172.25H45.1768V179.731H47.1768ZM45.5054 172.991L50.6241 177.629L51.9669 176.146L46.8482 171.509L45.5054 172.991ZM60.8616 186.904L71.0991 196.179L72.4419 194.696L62.2044 185.421L60.8616 186.904ZM81.3366 205.454L91.5741 214.729L92.9169 213.246L82.6794 203.971L81.3366 205.454ZM101.812 224.004L112.049 233.279L113.392 231.796L103.154 222.521L101.812 224.004ZM122.287 242.554L127.405 247.191L128.748 245.709L123.629 241.071L122.287 242.554ZM127.389 247.176C128.436 248.167 129.505 249.05 130.599 249.821L131.752 248.186C130.743 247.475 129.747 246.655 128.765 245.724L127.389 247.176ZM138.222 253.288C139.599 253.596 141.001 253.75 142.427 253.75V251.75C141.146 251.75 139.891 251.612 138.659 251.336L138.222 253.288ZM142.427 253.75C143.798 253.75 145.128 253.608 146.414 253.321L145.979 251.369C144.842 251.622 143.659 251.75 142.427 251.75V253.75ZM153.597 249.849C154.602 249.055 155.561 248.142 156.474 247.114L154.979 245.786C154.137 246.733 153.262 247.564 152.357 248.28L153.597 249.849ZM156.454 247.137C157.433 246.1 158.3 245.024 159.052 243.91L157.394 242.791C156.707 243.809 155.909 244.8 155 245.763L156.454 247.137ZM162.277 236.253C162.544 234.904 162.677 233.52 162.677 232.1H160.677C160.677 233.394 160.556 234.649 160.315 235.865L162.277 236.253ZM162.677 232.1C162.677 230.576 162.512 229.088 162.181 227.64L160.231 228.085C160.528 229.383 160.677 230.721 160.677 232.1H162.677ZM158.334 219.611C157.469 218.478 156.479 217.383 155.366 216.325L153.988 217.775C155.031 218.766 155.949 219.783 156.744 220.824L158.334 219.611ZM154.677 217.05L156.054 215.6L156.033 215.58L156.012 215.561L154.677 217.05ZM155.727 246.45L154.273 245.077L154.252 245.099L154.232 245.121L155.727 246.45ZM128.077 246.45L129.452 244.998L129.436 244.983L129.42 244.968L128.077 246.45ZM46.1768 172.25L47.5196 170.768L44.1768 167.739V172.25H46.1768ZM39.8768 247.5L38.5964 245.964L38.5964 245.964L39.8768 247.5ZM8.37676 247.5L7.05352 249L7.07469 249.018L7.09639 249.036L8.37676 247.5ZM8.37676 7.74998L7.09639 6.21354L7.07469 6.23162L7.05351 6.25031L8.37676 7.74998ZM39.8768 7.74998L41.1571 6.21354L41.1571 6.21354L39.8768 7.74998ZM46.1768 154.75H44.1768V159.435L47.5603 156.194L46.1768 154.75ZM121.077 83L122.46 84.4443L122.476 84.4294L122.491 84.4142L121.077 83ZM148.727 111.35L150.089 112.815L150.115 112.79L150.141 112.764L148.727 111.35ZM93.7768 162.45L92.4148 160.985L90.8108 162.477L92.4417 163.939L93.7768 162.45ZM156.012 215.561L150.937 211.011L148.267 213.989L153.342 218.539L156.012 215.561ZM140.787 201.911L130.637 192.811L127.967 195.789L138.117 204.889L140.787 201.911ZM120.487 183.711L110.337 174.611L107.667 177.589L117.817 186.689L120.487 183.711ZM100.187 165.511L95.1118 160.961L92.4417 163.939L97.5167 168.489L100.187 165.511ZM95.1387 163.915L99.7179 159.656L96.994 156.727L92.4148 160.985L95.1387 163.915ZM108.876 151.14L118.035 142.623L115.311 139.694L106.152 148.21L108.876 151.14ZM127.193 134.106L136.351 125.59L133.627 122.66L124.469 131.177L127.193 134.106ZM145.51 117.073L150.089 112.815L147.365 109.885L142.786 114.144L145.51 117.073ZM150.141 112.764C151.226 111.679 152.196 110.558 153.047 109.4L149.823 107.032C149.102 108.013 148.267 108.981 147.313 109.936L150.141 112.764ZM156.873 101.203C157.21 99.7161 157.377 98.1975 157.377 96.65H153.377C153.377 97.9072 153.241 99.1296 152.972 100.32L156.873 101.203ZM157.377 96.65C157.377 95.1878 157.242 93.7629 156.969 92.3778L153.044 93.1517C153.265 94.2697 153.377 95.4349 153.377 96.65H157.377ZM153.583 84.4869C152.788 83.3501 151.872 82.2667 150.841 81.2358L148.013 84.0642C148.89 84.9415 149.653 85.8473 150.306 86.7808L153.583 84.4869ZM150.841 81.2358C149.81 80.2048 148.727 79.2892 147.59 78.4935L145.296 81.7703C146.229 82.4238 147.135 83.1869 148.013 84.0642L150.841 81.2358ZM139.699 75.108C138.314 74.8348 136.889 74.7 135.427 74.7V78.7C136.642 78.7 137.807 78.8119 138.925 79.0324L139.699 75.108ZM135.427 74.7C133.922 74.7 132.45 74.8505 131.014 75.1544L131.842 79.0677C132.996 78.8235 134.19 78.7 135.427 78.7V74.7ZM122.969 78.7619C121.822 79.585 120.721 80.5278 119.663 81.5858L122.491 84.4142C123.407 83.4978 124.345 82.6982 125.302 82.011L122.969 78.7619ZM119.693 81.5557L113.452 87.5349L116.219 90.4234L122.46 84.4443L119.693 81.5557ZM100.968 99.4932L88.4849 111.452L91.2519 114.34L103.735 102.382L100.968 99.4932ZM76.0016 123.41L63.5182 135.368L66.2853 138.257L78.7686 126.298L76.0016 123.41ZM51.0349 147.327L44.7932 153.306L47.5603 156.194L53.8019 150.215L51.0349 147.327ZM48.1768 154.75V146.525H44.1768V154.75H48.1768ZM48.1768 130.075V113.625H44.1768V130.075H48.1768ZM48.1768 97.175V80.725H44.1768V97.175H48.1768ZM48.1768 64.275V47.825H44.1768V64.275H48.1768ZM48.1768 31.375V23.15H44.1768V31.375H48.1768ZM48.1768 23.15C48.1768 21.5468 48.0657 20.0138 47.8388 18.5538L43.8863 19.1679C44.0784 20.4044 44.1768 21.7308 44.1768 23.15H48.1768ZM44.4258 9.74952C43.5009 8.43634 42.4096 7.25724 41.1571 6.21354L38.5964 9.28642C39.5857 10.1109 40.437 11.0325 41.1555 12.0528L44.4258 9.74952ZM41.1571 6.21354C39.963 5.21843 38.6886 4.35111 37.335 3.61335L35.4207 7.12554C36.5424 7.73693 37.6006 8.45663 38.5964 9.28642L41.1571 6.21354ZM28.6306 0.803463C27.1803 0.60026 25.6785 0.499987 24.1268 0.499987V4.49999C25.5063 4.49999 26.822 4.58913 28.0756 4.76477L28.6306 0.803463ZM24.1268 0.499987C22.575 0.499987 21.0732 0.60026 19.6229 0.803463L20.1779 4.76477C21.4315 4.58913 22.7473 4.49999 24.1268 4.49999V0.499987ZM10.9185 3.61335C9.56493 4.35111 8.29052 5.21843 7.09639 6.21354L9.65713 9.28642C10.6529 8.45663 11.7111 7.73693 12.8328 7.12554L10.9185 3.61335ZM7.05351 6.25031C5.84708 7.31481 4.80116 8.51691 3.91956 9.85375L7.25881 12.0559C7.94436 11.0163 8.75682 10.0819 9.7 9.24966L7.05351 6.25031ZM0.73804 18.6162C0.529158 20.0566 0.42676 21.5687 0.42676 23.15H4.42676C4.42676 21.7406 4.51808 20.4215 4.69663 19.1902L0.73804 18.6162ZM0.42676 23.15V30.6125H4.42676V23.15H0.42676ZM0.42676 45.5375V60.4625H4.42676V45.5375H0.42676ZM0.42676 75.3875V90.3125H4.42676V75.3875H0.42676ZM0.42676 105.237V120.162H4.42676V105.237H0.42676ZM0.42676 135.088V150.013H4.42676V135.088H0.42676ZM0.42676 164.938V179.863H4.42676V164.938H0.42676ZM0.42676 194.788V209.713H4.42676V194.788H0.42676ZM0.42676 224.638V232.1H4.42676V224.638H0.42676ZM0.42676 232.1C0.42676 233.681 0.529158 235.193 0.73804 236.634L4.69663 236.06C4.51808 234.828 4.42676 233.509 4.42676 232.1H0.42676ZM3.91955 245.396C4.80116 246.733 5.84709 247.935 7.05352 249L9.7 246C8.75682 245.168 7.94436 244.234 7.25881 243.194L3.91955 245.396ZM7.09639 249.036C8.29052 250.032 9.56493 250.899 10.9185 251.637L12.8328 248.124C11.7111 247.513 10.6529 246.793 9.65713 245.964L7.09639 249.036ZM19.6229 254.447C21.0732 254.65 22.575 254.75 24.1268 254.75V250.75C22.7473 250.75 21.4315 250.661 20.1779 250.485L19.6229 254.447ZM24.1268 254.75C25.6785 254.75 27.1803 254.65 28.6306 254.447L28.0756 250.485C26.822 250.661 25.5063 250.75 24.1268 250.75V254.75ZM37.335 251.637C38.6886 250.899 39.963 250.032 41.1571 249.036L38.5964 245.964C37.6006 246.793 36.5424 247.513 35.4207 248.124L37.335 251.637ZM41.1571 249.036C42.4096 247.993 43.5009 246.814 44.4258 245.5L41.1556 243.197C40.437 244.217 39.5857 245.139 38.5964 245.964L41.1571 249.036ZM47.8388 236.696C48.0657 235.236 48.1768 233.703 48.1768 232.1H44.1768C44.1768 233.519 44.0784 234.846 43.8863 236.082L47.8388 236.696ZM48.1768 232.1V224.619H44.1768V232.1H48.1768ZM48.1768 209.656V194.694H44.1768V209.656H48.1768ZM48.1768 179.731V172.25H44.1768V179.731H48.1768ZM44.8339 173.732L49.9527 178.37L52.6383 175.405L47.5196 170.768L44.8339 173.732ZM60.1902 187.645L70.4277 196.92L73.1133 193.955L62.8758 184.68L60.1902 187.645ZM80.6652 206.195L90.9027 215.47L93.5883 212.505L83.3508 203.23L80.6652 206.195ZM101.14 224.745L111.378 234.02L114.063 231.055L103.826 221.78L101.14 224.745ZM121.615 243.295L126.734 247.932L129.42 244.968L124.301 240.33L121.615 243.295ZM126.701 247.902C127.78 248.924 128.887 249.837 130.023 250.638L132.328 247.369C131.362 246.688 130.403 245.899 129.452 244.998L126.701 247.902ZM138.004 254.264C139.454 254.588 140.929 254.75 142.427 254.75V250.75C141.219 250.75 140.037 250.62 138.877 250.361L138.004 254.264ZM142.427 254.75C143.868 254.75 145.27 254.6 146.631 254.297L145.761 250.393C144.699 250.63 143.589 250.75 142.427 250.75V254.75ZM154.217 250.634C155.272 249.8 156.273 248.846 157.222 247.779L154.232 245.121C153.425 246.029 152.593 246.819 151.736 247.496L154.217 250.634ZM157.181 247.823C158.195 246.75 159.096 245.632 159.881 244.47L156.565 242.232C155.91 243.202 155.148 244.15 154.273 245.077L157.181 247.823ZM163.258 236.447C163.538 235.032 163.677 233.582 163.677 232.1H159.677C159.677 233.332 159.562 234.521 159.334 235.671L163.258 236.447ZM163.677 232.1C163.677 230.503 163.504 228.941 163.156 227.417L159.257 228.308C159.536 229.53 159.677 230.793 159.677 232.1H163.677ZM159.129 219.004C158.23 217.826 157.203 216.692 156.054 215.6L153.299 218.5C154.307 219.458 155.189 220.435 155.949 221.431L159.129 219.004Z" fill="black"/>
</svg>
