<svg width="204" height="256" viewBox="0 0 204 256" fill="none" xmlns="http://www.w3.org/2000/svg">
<path d="M194.023 217.05C198.689 221.483 201.023 226.5 201.023 232.1C201.023 237.467 198.923 242.25 194.723 246.45C190.756 250.417 185.973 252.4 180.373 252.4C174.539 252.4 169.173 249.95 164.273 245.05L47.7227 135.85V230.35C47.7227 237.117 45.6227 242.6 41.4227 246.8C37.456 251 31.9727 253.1 24.9727 253.1C18.206 253.1 12.7227 251 8.52266 246.8C4.55599 242.6 2.57266 237.117 2.57266 230.35V24.9C2.57266 18.1333 4.55599 12.7667 8.52266 8.79999C12.7227 4.59999 18.206 2.49999 24.9727 2.49999C31.9727 2.49999 37.456 4.59999 41.4227 8.79999C45.6227 12.7667 47.7227 18.1333 47.7227 24.9V114.85L160.423 9.14998C164.623 4.94998 169.406 2.84998 174.773 2.84998C180.139 2.84998 184.806 4.94998 188.773 9.14998C192.973 13.1167 195.073 17.7833 195.073 23.15C195.073 28.5167 192.739 33.4167 188.073 37.85L93.9227 123.95L194.023 217.05Z" fill="#F5F5F5"/>
<path d="M194.023 217.05L194.711 216.325L194.704 216.318L194.023 217.05ZM194.723 246.45L194.016 245.743L194.016 245.743L194.723 246.45ZM164.273 245.05L164.98 244.343L164.968 244.331L164.956 244.32L164.273 245.05ZM47.7227 135.85L48.4064 135.12L46.7227 133.543V135.85H47.7227ZM41.4227 246.8L40.7156 246.093L40.7055 246.103L40.6956 246.113L41.4227 246.8ZM8.52266 246.8L7.79564 247.487L7.80545 247.497L7.81555 247.507L8.52266 246.8ZM8.52266 8.79999L7.81555 8.09288L7.81555 8.09288L8.52266 8.79999ZM41.4227 8.79999L40.6956 9.48661L40.7153 9.50738L40.736 9.527L41.4227 8.79999ZM47.7227 114.85H46.7227V117.159L48.4068 115.579L47.7227 114.85ZM160.423 9.14998L161.107 9.87938L161.118 9.86842L161.13 9.85709L160.423 9.14998ZM188.773 9.14998L188.046 9.83661L188.065 9.85738L188.086 9.877L188.773 9.14998ZM188.073 37.85L188.748 38.5879L188.755 38.5815L188.761 38.575L188.073 37.85ZM93.9227 123.95L93.2478 123.212L92.4476 123.944L93.2416 124.682L93.9227 123.95ZM194.704 216.318L189.699 211.663L188.337 213.127L193.342 217.782L194.704 216.318ZM179.689 202.353L169.679 193.043L168.317 194.507L178.327 203.817L179.689 202.353ZM159.669 183.733L149.659 174.423L148.297 175.887L158.307 185.197L159.669 183.733ZM139.649 165.113L129.639 155.803L128.277 157.267L138.287 166.577L139.649 165.113ZM119.629 146.493L109.619 137.183L108.257 138.647L118.267 147.957L119.629 146.493ZM99.6087 127.873L94.6037 123.218L93.2416 124.682L98.2466 129.337L99.6087 127.873ZM94.5975 124.688L100.482 119.307L99.1322 117.831L93.2478 123.212L94.5975 124.688ZM112.251 108.544L124.019 97.7817L122.67 96.3058L110.901 107.068L112.251 108.544ZM135.788 87.0192L147.557 76.2567L146.207 74.7808L134.438 85.5433L135.788 87.0192ZM159.326 65.4942L171.094 54.7317L169.745 53.2558L157.976 64.0183L159.326 65.4942ZM182.863 43.9692L188.748 38.5879L187.398 37.112L181.513 42.4933L182.863 43.9692ZM188.761 38.575C189.855 37.536 190.83 36.4672 191.683 35.3682L190.103 34.1418C189.317 35.1543 188.411 36.1489 187.384 37.125L188.761 38.575ZM195.557 27.5361C195.901 26.1065 196.073 24.6439 196.073 23.15H194.073C194.073 24.4893 193.919 25.7948 193.613 27.0683L195.557 27.5361ZM196.073 23.15C196.073 21.7306 195.933 20.3525 195.651 19.0173L193.694 19.4306C193.946 20.6237 194.073 21.863 194.073 23.15H196.073ZM192.209 11.494C191.412 10.4243 190.495 9.40079 189.459 8.42297L188.086 9.877C189.044 10.7814 189.883 11.719 190.606 12.6891L192.209 11.494ZM189.5 8.46336C188.522 7.42802 187.498 6.51053 186.429 5.71334L185.234 7.31702C186.204 8.03994 187.141 8.87899 188.046 9.83661L189.5 8.46336ZM178.905 2.27211C177.57 1.99007 176.192 1.84998 174.773 1.84998V3.84998C176.06 3.84998 177.299 3.97692 178.492 4.22894L178.905 2.27211ZM174.773 1.84998C173.335 1.84998 171.932 1.99377 170.567 2.28276L170.981 4.23941C172.206 3.98026 173.469 3.84998 174.773 3.84998V1.84998ZM162.898 5.72412C161.799 6.51328 160.738 7.42026 159.716 8.44288L161.13 9.85709C162.082 8.90527 163.06 8.06986 164.064 7.34868L162.898 5.72412ZM159.739 8.42059L154.104 13.7056L155.472 15.1644L161.107 9.87938L159.739 8.42059ZM142.834 24.2756L131.564 34.8456L132.932 36.3044L144.202 25.7344L142.834 24.2756ZM120.294 45.4156L109.024 55.9856L110.392 57.4444L121.662 46.8744L120.294 45.4156ZM97.7536 66.5556L86.4836 77.1256L87.8518 78.5844L99.1218 68.0144L97.7536 66.5556ZM75.2136 87.6956L63.9436 98.2656L65.3117 99.7244L76.5818 89.1544L75.2136 87.6956ZM52.6736 108.836L47.0386 114.121L48.4068 115.579L54.0418 110.294L52.6736 108.836ZM48.7227 114.85V107.354H46.7227V114.85H48.7227ZM48.7227 92.3625V77.3708H46.7227V92.3625H48.7227ZM48.7227 62.3792V47.3875H46.7227V62.3792H48.7227ZM48.7227 32.3958V24.9H46.7227V32.3958H48.7227ZM48.7227 24.9C48.7227 23.3006 48.6088 21.7701 48.3791 20.3096L46.4034 20.6204C46.6156 21.9692 46.7227 23.3954 46.7227 24.9H48.7227ZM45.1193 11.6451C44.2652 10.3516 43.2611 9.16083 42.1093 8.07298L40.736 9.527C41.779 10.5121 42.6831 11.5853 43.4503 12.7472L45.1193 11.6451ZM42.1497 8.11337C41.0442 6.94287 39.8247 5.9255 38.4918 5.06312L37.4053 6.7423C38.6017 7.51632 39.6982 8.43047 40.6956 9.48661L42.1497 8.11337ZM29.6411 1.8338C28.1585 1.6106 26.602 1.49999 24.9727 1.49999V3.49999C26.5117 3.49999 27.9682 3.60449 29.3433 3.81151L29.6411 1.8338ZM24.9727 1.49999C23.3523 1.49999 21.7969 1.61683 20.3074 1.85241L20.6199 3.82785C21.9978 3.6099 23.4484 3.49999 24.9727 3.49999V1.49999ZM11.4987 5.12114C10.1788 5.96624 8.95099 6.95745 7.81555 8.09288L9.22976 9.5071C10.2662 8.47062 11.3819 7.57071 12.5771 6.80547L11.4987 5.12114ZM7.81555 8.09288C6.71123 9.19721 5.75161 10.4064 4.9382 11.7197L6.63849 12.7728C7.36972 11.5922 8.23298 10.5039 9.22976 9.5071L7.81555 8.09288ZM1.89039 20.3594C1.67797 21.8045 1.57266 23.3184 1.57266 24.9H3.57266C3.57266 23.407 3.67208 21.9908 3.86913 20.6503L1.89039 20.3594ZM1.57266 24.9V32.2375H3.57266V24.9H1.57266ZM1.57266 46.9125V61.5875H3.57266V46.9125H1.57266ZM1.57266 76.2625V90.9375H3.57266V76.2625H1.57266ZM1.57266 105.612V120.287H3.57266V105.612H1.57266ZM1.57266 134.963V149.638H3.57266V134.963H1.57266ZM1.57266 164.313V178.988H3.57266V164.313H1.57266ZM1.57266 193.663V208.338H3.57266V193.663H1.57266ZM1.57266 223.013V230.35H3.57266V223.013H1.57266ZM1.57266 230.35C1.57266 231.953 1.68085 233.492 1.8989 234.967L3.87738 234.674C3.67479 233.304 3.57266 231.863 3.57266 230.35H1.57266ZM4.95723 243.751C5.76166 245.09 6.70825 246.335 7.79564 247.487L9.24967 246.113C8.2595 245.065 7.40057 243.934 6.6715 242.721L4.95723 243.751ZM7.81555 247.507C8.95099 248.643 10.1788 249.634 11.4987 250.479L12.5771 248.795C11.3819 248.029 10.2662 247.129 9.22976 246.093L7.81555 247.507ZM20.3074 253.748C21.7969 253.983 23.3523 254.1 24.9727 254.1V252.1C23.4484 252.1 21.9978 251.99 20.6199 251.772L20.3074 253.748ZM24.9727 254.1C26.602 254.1 28.1585 253.989 29.6411 253.766L29.3433 251.788C27.9682 251.995 26.5117 252.1 24.9727 252.1V254.1ZM38.4918 250.537C39.8247 249.674 41.0442 248.657 42.1497 247.487L40.6956 246.113C39.6982 247.17 38.6017 248.084 37.4053 248.858L38.4918 250.537ZM42.1298 247.507C43.2652 246.372 44.2564 245.144 45.1015 243.824L43.4172 242.746C42.6519 243.941 41.752 245.056 40.7156 246.093L42.1298 247.507ZM48.3702 235.015C48.6058 233.526 48.7227 231.97 48.7227 230.35H46.7227C46.7227 231.874 46.6127 233.325 46.3948 234.703L48.3702 235.015ZM48.7227 230.35V222.475H46.7227V230.35H48.7227ZM48.7227 206.725V190.975H46.7227V206.725H48.7227ZM48.7227 175.225V159.475H46.7227V175.225H48.7227ZM48.7227 143.725V135.85H46.7227V143.725H48.7227ZM47.0389 136.58L52.8664 142.04L54.2339 140.58L48.4064 135.12L47.0389 136.58ZM64.5214 152.96L76.1764 163.88L77.5439 162.42L65.8889 151.5L64.5214 152.96ZM87.8314 174.8L99.4864 185.72L100.854 184.26L89.1989 173.34L87.8314 174.8ZM111.141 196.64L122.796 207.56L124.164 206.1L112.509 195.18L111.141 196.64ZM134.451 218.48L146.106 229.4L147.474 227.94L135.819 217.02L134.451 218.48ZM157.761 240.32L163.589 245.78L164.956 244.32L159.129 238.86L157.761 240.32ZM163.566 245.757C164.717 246.909 165.899 247.934 167.111 248.83L168.3 247.222C167.175 246.39 166.068 245.431 164.98 244.343L163.566 245.757ZM175.64 252.865C177.185 253.222 178.763 253.4 180.373 253.4V251.4C178.912 251.4 177.485 251.239 176.089 250.917L175.64 252.865ZM180.373 253.4C181.803 253.4 183.188 253.276 184.527 253.026L184.159 251.06C182.949 251.286 181.687 251.4 180.373 251.4V253.4ZM192.229 249.831C193.351 249.061 194.418 248.169 195.43 247.157L194.016 245.743C193.086 246.673 192.113 247.485 191.098 248.182L192.229 249.831ZM195.43 247.157C196.452 246.134 197.359 245.074 198.149 243.975L196.524 242.808C195.803 243.813 194.967 244.791 194.016 245.743L195.43 247.157ZM201.59 236.306C201.879 234.94 202.023 233.538 202.023 232.1H200.023C200.023 233.404 199.892 234.667 199.633 235.891L201.59 236.306ZM202.023 232.1C202.023 230.576 201.858 229.088 201.527 227.64L199.577 228.085C199.874 229.383 200.023 230.721 200.023 232.1H202.023ZM197.68 219.611C196.815 218.478 195.825 217.383 194.711 216.325L193.334 217.775C194.377 218.766 195.295 219.783 196.089 220.824L197.68 219.611ZM194.023 217.05L195.4 215.6L195.392 215.593L195.385 215.586L194.023 217.05ZM194.723 246.45L193.308 245.036L193.308 245.036L194.723 246.45ZM164.273 245.05L165.687 243.636L165.664 243.613L165.64 243.591L164.273 245.05ZM47.7227 135.85L49.0901 134.391L45.7227 131.235V135.85H47.7227ZM41.4227 246.8L40.0084 245.386L39.9882 245.406L39.9686 245.427L41.4227 246.8ZM8.52266 246.8L7.06863 248.173L7.08824 248.194L7.10844 248.214L8.52266 246.8ZM8.52266 8.79999L7.10844 7.38578L7.10844 7.38578L8.52266 8.79999ZM41.4227 8.79999L39.9686 10.1732L40.0079 10.2148L40.0494 10.254L41.4227 8.79999ZM47.7227 114.85H45.7227V119.468L49.0908 116.309L47.7227 114.85ZM160.423 9.14998L161.791 10.6088L161.814 10.5869L161.837 10.5642L160.423 9.14998ZM188.773 9.14998L187.319 10.5232L187.358 10.5648L187.399 10.604L188.773 9.14998ZM188.073 37.85L189.422 39.3259L189.436 39.3131L189.45 39.3L188.073 37.85ZM93.9227 123.95L92.573 122.474L90.9726 123.938L92.5606 125.414L93.9227 123.95ZM195.385 215.586L190.38 210.931L187.656 213.859L192.661 218.514L195.385 215.586ZM180.37 201.621L170.36 192.311L167.636 195.239L177.646 204.549L180.37 201.621ZM160.35 183.001L150.34 173.691L147.616 176.619L157.626 185.929L160.35 183.001ZM140.33 164.381L130.32 155.071L127.596 157.999L137.606 167.309L140.33 164.381ZM120.31 145.761L110.3 136.451L107.576 139.379L117.586 148.689L120.31 145.761ZM100.29 127.141L95.2847 122.486L92.5606 125.414L97.5656 130.069L100.29 127.141ZM95.2724 125.426L101.157 120.045L98.4573 117.093L92.573 122.474L95.2724 125.426ZM112.925 109.282L124.694 98.5196L121.995 95.5678L110.226 106.33L112.925 109.282ZM136.463 87.7571L148.232 76.9946L145.532 74.0428L133.764 84.8053L136.463 87.7571ZM160 66.2321L171.769 55.4696L169.07 52.5178L157.301 63.2803L160 66.2321ZM183.538 44.7071L189.422 39.3259L186.723 36.3741L180.839 41.7553L183.538 44.7071ZM189.45 39.3C190.577 38.2295 191.586 37.1237 192.473 35.9814L189.313 33.5286C188.561 34.4978 187.69 35.4553 186.695 36.4L189.45 39.3ZM196.529 27.77C196.892 26.2624 197.073 24.7211 197.073 23.15H193.073C193.073 24.412 192.928 25.639 192.64 26.8344L196.529 27.77ZM197.073 23.15C197.073 21.6644 196.926 20.217 196.629 18.8106L192.715 19.6373C192.952 20.7593 193.073 21.9292 193.073 23.15H197.073ZM193.011 10.8965C192.177 9.77689 191.22 8.71048 190.146 7.69596L187.399 10.604C188.318 11.4717 189.118 12.3664 189.804 13.2866L193.011 10.8965ZM190.227 7.77674C189.212 6.70254 188.146 5.74583 187.026 4.9115L184.636 8.11886C185.556 8.80465 186.451 9.60448 187.319 10.5232L190.227 7.77674ZM179.112 1.2937C177.706 0.996645 176.258 0.849982 174.773 0.849982V4.84998C175.993 4.84998 177.163 4.97035 178.285 5.20735L179.112 1.2937ZM174.773 0.849982C173.268 0.849982 171.796 1.00053 170.36 1.30444L171.188 5.21773C172.342 4.9735 173.536 4.84998 174.773 4.84998V0.849982ZM162.314 4.91184C161.168 5.735 160.066 6.67776 159.008 7.73577L161.837 10.5642C162.753 9.64778 163.691 8.84815 164.648 8.16096L162.314 4.91184ZM159.054 7.69119L153.419 12.9762L156.156 15.8938L161.791 10.6088L159.054 7.69119ZM142.149 23.5462L130.879 34.1162L133.616 37.0338L144.886 26.4638L142.149 23.5462ZM119.609 44.6862L108.339 55.2562L111.076 58.1738L122.346 47.6038L119.609 44.6862ZM97.0695 65.8262L85.7995 76.3962L88.5358 79.3138L99.8058 68.7438L97.0695 65.8262ZM74.5295 86.9662L63.2595 97.5362L65.9958 100.454L77.2658 89.8838L74.5295 86.9662ZM51.9895 108.106L46.3545 113.391L49.0908 116.309L54.7258 111.024L51.9895 108.106ZM49.7227 114.85V107.354H45.7227V114.85H49.7227ZM49.7227 92.3625V77.3708H45.7227V92.3625H49.7227ZM49.7227 62.3792V47.3875H45.7227V62.3792H49.7227ZM49.7227 32.3958V24.9H45.7227V32.3958H49.7227ZM49.7227 24.9C49.7227 23.2533 49.6055 21.6705 49.367 20.1542L45.4155 20.7757C45.6189 22.0688 45.7227 23.4427 45.7227 24.9H49.7227ZM45.9538 11.094C45.0562 9.73479 44.0022 8.48522 42.7959 7.34596L40.0494 10.254C41.038 11.1877 41.8921 12.2022 42.6159 13.2982L45.9538 11.094ZM42.8767 7.42674C41.7172 6.19907 40.4362 5.13009 39.035 4.22353L36.8621 7.58189C37.9902 8.31174 39.0252 9.17428 39.9686 10.1732L42.8767 7.42674ZM29.7899 0.844944C28.2537 0.613655 26.6471 0.499987 24.9727 0.499987V4.49999C26.4666 4.49999 27.8731 4.60143 29.1944 4.80037L29.7899 0.844944ZM24.9727 0.499987C23.3043 0.499987 21.6964 0.620292 20.1512 0.864684L20.7761 4.81557C22.0983 4.60644 23.4964 4.49999 24.9727 4.49999V0.499987ZM10.9595 4.27897C9.57718 5.16401 8.29336 6.20086 7.10844 7.38578L9.93687 10.2142C10.9239 9.22721 11.9835 8.37294 13.1163 7.64764L10.9595 4.27897ZM7.10844 7.38578C5.95035 8.54387 4.94255 9.81352 4.08805 11.1932L7.48863 13.2994C8.17878 12.1851 8.99385 11.1572 9.93687 10.2142L7.10844 7.38578ZM0.901025 20.214C0.68091 21.7114 0.572658 23.2741 0.572658 24.9H4.57266C4.57266 23.4512 4.66914 22.0839 4.8585 20.7957L0.901025 20.214ZM0.572658 24.9V32.2375H4.57266V24.9H0.572658ZM0.572658 46.9125V61.5875H4.57266V46.9125H0.572658ZM0.572658 76.2625V90.9375H4.57266V76.2625H0.572658ZM0.572658 105.612V120.287H4.57266V105.612H0.572658ZM0.572658 134.963V149.638H4.57266V134.963H0.572658ZM0.572658 164.313V178.988H4.57266V164.313H0.572658ZM0.572658 193.663V208.338H4.57266V193.663H0.572658ZM0.572658 223.013V230.35H4.57266V223.013H0.572658ZM0.572658 230.35C0.572658 231.998 0.683878 233.586 0.909664 235.113L4.86662 234.528C4.67176 233.21 4.57266 231.818 4.57266 230.35H0.572658ZM4.1001 244.266C4.9422 245.668 5.93263 246.97 7.06863 248.173L9.97668 245.427C9.03512 244.43 8.22003 243.357 7.52864 242.206L4.1001 244.266ZM7.10844 248.214C8.29336 249.399 9.57718 250.436 10.9595 251.321L13.1163 247.952C11.9835 247.227 10.9239 246.373 9.93687 245.386L7.10844 248.214ZM20.1512 254.735C21.6964 254.98 23.3043 255.1 24.9727 255.1V251.1C23.4964 251.1 22.0983 250.994 20.7761 250.784L20.1512 254.735ZM24.9727 255.1C26.6471 255.1 28.2537 254.986 29.7899 254.755L29.1944 250.8C27.8731 250.999 26.4666 251.1 24.9727 251.1V255.1ZM39.035 251.376C40.4362 250.47 41.7172 249.401 42.8767 248.173L39.9686 245.427C39.0252 246.426 37.9902 247.288 36.8621 248.018L39.035 251.376ZM42.8369 248.214C44.0218 247.029 45.0586 245.745 45.9437 244.363L42.575 242.206C41.8497 243.339 40.9954 244.399 40.0084 245.386L42.8369 248.214ZM49.358 235.171C49.6024 233.626 49.7227 232.018 49.7227 230.35H45.7227C45.7227 231.826 45.6162 233.224 45.4071 234.547L49.358 235.171ZM49.7227 230.35V222.475H45.7227V230.35H49.7227ZM49.7227 206.725V190.975H45.7227V206.725H49.7227ZM49.7227 175.225V159.475H45.7227V175.225H49.7227ZM49.7227 143.725V135.85H45.7227V143.725H49.7227ZM46.3552 137.309L52.1827 142.769L54.9176 139.851L49.0901 134.391L46.3552 137.309ZM63.8377 153.689L75.4927 164.609L78.2276 161.691L66.5726 150.771L63.8377 153.689ZM87.1477 175.529L98.8027 186.449L101.538 183.531L89.8826 172.611L87.1477 175.529ZM110.458 197.369L122.113 208.289L124.848 205.371L113.193 194.451L110.458 197.369ZM133.768 219.209L145.423 230.129L148.158 227.211L136.503 216.291L133.768 219.209ZM157.078 241.049L162.905 246.509L165.64 243.591L159.813 238.131L157.078 241.049ZM162.858 246.464C164.042 247.648 165.261 248.706 166.517 249.634L168.894 246.418C167.812 245.618 166.743 244.692 165.687 243.636L162.858 246.464ZM175.415 253.84C177.035 254.214 178.689 254.4 180.373 254.4V250.4C178.986 250.4 177.635 250.247 176.314 249.942L175.415 253.84ZM180.373 254.4C181.861 254.4 183.308 254.271 184.711 254.009L183.976 250.077C182.829 250.291 181.629 250.4 180.373 250.4V254.4ZM192.795 250.655C193.971 249.849 195.084 248.917 196.137 247.864L193.308 245.036C192.419 245.925 191.494 246.697 190.532 247.357L192.795 250.655ZM196.137 247.864C197.195 246.806 198.138 245.705 198.961 244.558L195.712 242.225C195.024 243.182 194.225 244.119 193.308 245.036L196.137 247.864ZM202.568 236.513C202.872 235.077 203.023 233.605 203.023 232.1H199.023C199.023 233.337 198.899 234.531 198.655 235.684L202.568 236.513ZM203.023 232.1C203.023 230.503 202.85 228.941 202.502 227.417L198.602 228.308C198.882 229.53 199.023 230.793 199.023 232.1H203.023ZM198.475 219.004C197.575 217.826 196.549 216.692 195.4 215.6L192.645 218.5C193.653 219.458 194.535 220.435 195.294 221.431L198.475 219.004Z" fill="black"/>
</svg>
