<svg width="49" height="256" viewBox="0 0 49 256" fill="none" xmlns="http://www.w3.org/2000/svg">
<path d="M24.5164 253.1C18.2164 253.1 12.9664 251.35 8.76641 247.85C4.79974 244.117 2.81641 238.867 2.81641 232.1V23.15C2.81641 16.3833 4.79974 11.25 8.76641 7.74998C12.9664 4.24998 18.2164 2.49999 24.5164 2.49999C30.8164 2.49999 36.0664 4.24998 40.2664 7.74998C44.4664 11.25 46.5664 16.3833 46.5664 23.15V232.1C46.5664 238.867 44.4664 244.117 40.2664 247.85C36.0664 251.35 30.8164 253.1 24.5164 253.1Z" fill="#F5F5F5"/>
<path d="M8.76641 247.85L8.08104 248.578L8.10303 248.599L8.12622 248.618L8.76641 247.85ZM8.76641 7.74998L8.12622 6.98176L8.11537 6.9908L8.10478 7.00014L8.76641 7.74998ZM40.2664 7.74998L40.9066 6.98176L40.9066 6.98176L40.2664 7.74998ZM40.2664 247.85L40.9066 248.618L40.9188 248.608L40.9308 248.597L40.2664 247.85ZM24.5164 252.1C23.0938 252.1 21.7316 252.008 20.4288 251.826L20.1513 253.806C21.5524 254.003 23.0077 254.1 24.5164 254.1V252.1ZM12.7439 249.352C11.5642 248.71 10.4519 247.953 9.40659 247.082L8.12622 248.618C9.27076 249.572 10.4911 250.402 11.7867 251.109L12.7439 249.352ZM9.45177 247.122C8.44868 246.178 7.58144 245.132 6.84836 243.985L5.16293 245.062C5.98572 246.35 6.95898 247.522 8.08104 248.578L9.45177 247.122ZM4.10471 236.276C3.91315 234.964 3.81641 233.573 3.81641 232.1H1.81641C1.81641 233.66 1.91886 235.149 2.1257 236.565L4.10471 236.276ZM3.81641 232.1V224.637H1.81641V232.1H3.81641ZM3.81641 209.712V194.788H1.81641V209.712H3.81641ZM3.81641 179.862V164.937H1.81641V179.862H3.81641ZM3.81641 150.012V135.087H1.81641V150.012H3.81641ZM3.81641 120.162V105.237H1.81641V120.162H3.81641ZM3.81641 90.3125V75.3875H1.81641V90.3125H3.81641ZM3.81641 60.4625V45.5375H1.81641V60.4625H3.81641ZM3.81641 30.6125V23.15H1.81641V30.6125H3.81641ZM3.81641 23.15C3.81641 21.6976 3.9105 20.3303 4.09663 19.0467L2.11734 18.7597C1.91604 20.1478 1.81641 21.6117 1.81641 23.15H3.81641ZM6.81364 11.5054C7.54821 10.3915 8.41903 9.39011 9.42803 8.49982L8.10478 7.00014C6.96417 8.00658 5.97661 9.14177 5.14402 10.4043L6.81364 11.5054ZM9.40659 8.5182C10.4519 7.64708 11.5642 6.89048 12.7439 6.24749L11.7867 4.4914C10.4911 5.19756 9.27076 6.02798 8.12622 6.98176L9.40659 8.5182ZM20.4288 3.77444C21.7316 3.59192 23.0938 3.49999 24.5164 3.49999V1.49999C23.0077 1.49999 21.5524 1.59748 20.1513 1.79379L20.4288 3.77444ZM24.5164 3.49999C25.939 3.49999 27.3012 3.59192 28.604 3.77444L28.8815 1.79379C27.4804 1.59748 26.0251 1.49999 24.5164 1.49999V3.49999ZM36.2889 6.24749C37.4686 6.89047 38.5809 7.64708 39.6262 8.5182L40.9066 6.98176C39.7621 6.02798 38.5417 5.19756 37.2461 4.49139L36.2889 6.24749ZM39.6262 8.5182C40.6813 9.39745 41.5926 10.3835 42.3628 11.477L43.9979 10.3253C43.1246 9.0854 42.0933 7.97065 40.9066 6.98176L39.6262 8.5182ZM45.2641 19.0144C45.4648 20.3068 45.5664 21.6848 45.5664 23.15H47.5664C47.5664 21.5928 47.4585 20.1115 47.2403 18.7073L45.2641 19.0144ZM45.5664 23.15V30.6125H47.5664V23.15H45.5664ZM45.5664 45.5375V60.4625H47.5664V45.5375H45.5664ZM45.5664 75.3875V90.3125H47.5664V75.3875H45.5664ZM45.5664 105.237V120.162H47.5664V105.237H45.5664ZM45.5664 135.088V150.013H47.5664V135.088H45.5664ZM45.5664 164.938V179.863H47.5664V164.938H45.5664ZM45.5664 194.788V209.713H47.5664V194.788H45.5664ZM45.5664 224.638V232.1H47.5664V224.638H45.5664ZM45.5664 232.1C45.5664 233.585 45.4621 234.987 45.2557 236.307L47.2316 236.616C47.4556 235.184 47.5664 233.678 47.5664 232.1H45.5664ZM42.3281 244.012C41.5592 245.14 40.6513 246.17 39.602 247.103L40.9308 248.597C42.0997 247.558 43.1171 246.405 43.9806 245.138L42.3281 244.012ZM39.6262 247.082C38.5809 247.953 37.4686 248.71 36.2889 249.352L37.2461 251.109C38.5417 250.402 39.7621 249.572 40.9066 248.618L39.6262 247.082ZM28.604 251.826C27.3012 252.008 25.939 252.1 24.5164 252.1V254.1C26.0251 254.1 27.4804 254.003 28.8815 253.806L28.604 251.826ZM8.76641 247.85L7.39568 249.306L7.43965 249.348L7.48604 249.386L8.76641 247.85ZM8.76641 7.74998L7.48604 6.21354L7.46434 6.23162L7.44316 6.25031L8.76641 7.74998ZM40.2664 7.74998L41.5468 6.21354L41.5468 6.21354L40.2664 7.74998ZM40.2664 247.85L41.5468 249.386L41.5713 249.366L41.5951 249.345L40.2664 247.85ZM24.5164 251.1C23.1369 251.1 21.8211 251.011 20.5675 250.835L20.0125 254.797C21.4629 255 22.9647 255.1 24.5164 255.1V251.1ZM13.2225 248.474C12.1007 247.863 11.0425 247.143 10.0468 246.314L7.48604 249.386C8.68017 250.382 9.95458 251.249 11.3082 251.987L13.2225 248.474ZM10.1371 246.394C9.19354 245.506 8.3793 244.524 7.69107 243.447L4.32021 245.6C5.18786 246.958 6.21413 248.194 7.39568 249.306L10.1371 246.394ZM5.09421 236.132C4.9103 234.872 4.81641 233.529 4.81641 232.1H0.816408C0.816408 233.704 0.921718 235.241 1.1362 236.71L5.09421 236.132ZM4.81641 232.1V224.637H0.816408V232.1H4.81641ZM4.81641 209.712V194.788H0.816408V209.712H4.81641ZM4.81641 179.862V164.937H0.816408V179.862H4.81641ZM4.81641 150.012V135.087H0.816408V150.012H4.81641ZM4.81641 120.162V105.237H0.816408V120.162H4.81641ZM4.81641 90.3125V75.3875H0.816408V90.3125H4.81641ZM4.81641 60.4625V45.5375H0.816408V60.4625H4.81641ZM4.81641 30.6125V23.15H0.816408V30.6125H4.81641ZM4.81641 23.15C4.81641 21.7406 4.90773 20.4215 5.08628 19.1902L1.12769 18.6162C0.918806 20.0566 0.816408 21.5687 0.816408 23.15H4.81641ZM7.64846 12.0559C8.33401 11.0163 9.14647 10.0819 10.0897 9.24966L7.44316 6.25031C6.23673 7.31481 5.19081 8.51691 4.3092 9.85376L7.64846 12.0559ZM10.0468 9.28642C11.0425 8.45663 12.1007 7.73693 13.2225 7.12554L11.3082 3.61335C9.95458 4.35111 8.68017 5.21843 7.48604 6.21354L10.0468 9.28642ZM20.5675 4.76477C21.8211 4.58913 23.1369 4.49999 24.5164 4.49999V0.499987C22.9647 0.499987 21.4629 0.60026 20.0125 0.803463L20.5675 4.76477ZM24.5164 4.49999C25.8959 4.49999 27.2117 4.58913 28.4653 4.76477L29.0203 0.803463C27.5699 0.60026 26.0681 0.499987 24.5164 0.499987V4.49999ZM35.8104 7.12554C36.9321 7.73693 37.9903 8.45663 38.986 9.28642L41.5468 6.21354C40.3526 5.21843 39.0782 4.35111 37.7246 3.61334L35.8104 7.12554ZM38.986 9.28642C39.9754 10.1109 40.8266 11.0325 41.5452 12.0528L44.8155 9.74952C43.8906 8.43634 42.7992 7.25724 41.5468 6.21354L38.986 9.28642ZM44.2759 19.1679C44.468 20.4044 44.5664 21.7308 44.5664 23.15H48.5664C48.5664 21.5468 48.4553 20.0138 48.2285 18.5538L44.2759 19.1679ZM44.5664 23.15V30.6125H48.5664V23.15H44.5664ZM44.5664 45.5375V60.4625H48.5664V45.5375H44.5664ZM44.5664 75.3875V90.3125H48.5664V75.3875H44.5664ZM44.5664 105.237V120.162H48.5664V105.237H44.5664ZM44.5664 135.088V150.013H48.5664V135.088H44.5664ZM44.5664 164.938V179.863H48.5664V164.938H44.5664ZM44.5664 194.788V209.713H48.5664V194.788H44.5664ZM44.5664 224.638V232.1H48.5664V224.638H44.5664ZM44.5664 232.1C44.5664 233.538 44.4654 234.888 44.2677 236.153L48.2196 236.771C48.4523 235.283 48.5664 233.725 48.5664 232.1H44.5664ZM41.5018 243.449C40.7802 244.507 39.9271 245.476 38.9377 246.355L41.5951 249.345C42.8239 248.253 43.8961 247.038 44.8069 245.702L41.5018 243.449ZM38.986 246.314C37.9903 247.143 36.9321 247.863 35.8104 248.474L37.7246 251.987C39.0782 251.249 40.3526 250.382 41.5468 249.386L38.986 246.314ZM28.4653 250.835C27.2117 251.011 25.8959 251.1 24.5164 251.1V255.1C26.0681 255.1 27.5699 255 29.0203 254.797L28.4653 250.835Z" fill="black"/>
</svg>
