<svg width="169" height="253" viewBox="0 0 169 253" fill="none" xmlns="http://www.w3.org/2000/svg">
<path d="M23.3797 251C16.613 251 11.363 249.133 7.62969 245.4C3.89636 241.667 2.02969 236.533 2.02969 230V24.9C2.02969 18.1333 4.01302 12.7667 7.97969 8.79999C12.1797 4.59999 17.663 2.49999 24.4297 2.49999C31.4297 2.49999 36.913 4.59999 40.8797 8.79999C45.0797 12.7667 47.1797 18.1333 47.1797 24.9V213.9H145.53C159.53 213.9 166.53 220.083 166.53 232.45C166.53 244.817 159.53 251 145.53 251H23.3797Z" fill="#F5F5F5"/>
<path d="M7.62969 245.4L8.3368 244.693L8.3368 244.693L7.62969 245.4ZM7.97969 8.79999L7.27258 8.09288L7.27258 8.09288L7.97969 8.79999ZM40.8797 8.79999L40.1527 9.48661L40.1723 9.50738L40.1931 9.527L40.8797 8.79999ZM47.1797 213.9H46.1797V214.9H47.1797V213.9ZM23.3797 250C21.9187 250 20.5369 249.911 19.2335 249.733L18.964 251.715C20.3651 251.906 21.8374 252 23.3797 252V250ZM11.521 247.171C10.3533 246.474 9.29243 245.649 8.3368 244.693L6.92258 246.107C7.99564 247.18 9.18743 248.108 10.4963 248.888L11.521 247.171ZM8.3368 244.693C7.39314 243.749 6.57679 242.712 5.88645 241.58L4.17892 242.621C4.95235 243.89 5.86734 245.052 6.92258 246.107L8.3368 244.693ZM3.30308 234.056C3.1214 232.778 3.02969 231.427 3.02969 230H1.02969C1.02969 231.512 1.12688 232.958 1.32301 234.337L3.30308 234.056ZM3.02969 230V222.675H1.02969V230H3.02969ZM3.02969 208.025V193.375H1.02969V208.025H3.02969ZM3.02969 178.725V164.075H1.02969V178.725H3.02969ZM3.02969 149.425V134.775H1.02969V149.425H3.02969ZM3.02969 120.125V105.475H1.02969V120.125H3.02969ZM3.02969 90.825V76.175H1.02969V90.825H3.02969ZM3.02969 61.525V46.875H1.02969V61.525H3.02969ZM3.02969 32.225V24.9H1.02969V32.225H3.02969ZM3.02969 24.9C3.02969 23.407 3.12911 21.9908 3.32616 20.6503L1.34742 20.3594C1.135 21.8045 1.02969 23.3184 1.02969 24.9H3.02969ZM6.09552 12.7728C6.82675 11.5922 7.69001 10.5039 8.6868 9.5071L7.27258 8.09288C6.16826 9.19721 5.20864 10.4064 4.39523 11.7197L6.09552 12.7728ZM8.6868 9.5071C9.72327 8.47062 10.839 7.57071 12.0341 6.80547L10.9557 5.12114C9.6358 5.96624 8.40802 6.95745 7.27258 8.09288L8.6868 9.5071ZM20.0769 3.82785C21.4549 3.6099 22.9054 3.49999 24.4297 3.49999V1.49999C22.8094 1.49999 21.2539 1.61683 19.7644 1.85241L20.0769 3.82785ZM24.4297 3.49999C25.9687 3.49999 27.4252 3.60449 28.8003 3.81151L29.0981 1.8338C27.6155 1.6106 26.059 1.49999 24.4297 1.49999V3.49999ZM36.8624 6.7423C38.0587 7.51632 39.1552 8.43048 40.1527 9.48661L41.6067 8.11337C40.5012 6.94287 39.2817 5.9255 37.9488 5.06312L36.8624 6.7423ZM40.1931 9.527C41.2361 10.5121 42.1402 11.5853 42.9074 12.7472L44.5763 11.6451C43.7222 10.3516 42.7182 9.16083 41.5663 8.07298L40.1931 9.527ZM45.8604 20.6204C46.0726 21.9692 46.1797 23.3954 46.1797 24.9H48.1797C48.1797 23.3006 48.0659 21.7701 47.8361 20.3096L45.8604 20.6204ZM46.1797 24.9V32.775H48.1797V24.9H46.1797ZM46.1797 48.525V64.275H48.1797V48.525H46.1797ZM46.1797 80.025V95.775H48.1797V80.025H46.1797ZM46.1797 111.525V127.275H48.1797V111.525H46.1797ZM46.1797 143.025V158.775H48.1797V143.025H46.1797ZM46.1797 174.525V190.275H48.1797V174.525H46.1797ZM46.1797 206.025V213.9H48.1797V206.025H46.1797ZM47.1797 214.9H55.3755V212.9H47.1797V214.9ZM71.7672 214.9H88.1589V212.9H71.7672V214.9ZM104.551 214.9H120.942V212.9H104.551V214.9ZM137.334 214.9H145.53V212.9H137.334V214.9ZM145.53 214.9C148.442 214.9 151.019 215.173 153.269 215.709L153.733 213.764C151.3 213.184 148.563 212.9 145.53 212.9V214.9ZM164.358 224.893C165.131 227.031 165.53 229.544 165.53 232.45H167.53C167.53 229.366 167.107 226.614 166.238 224.213L164.358 224.893ZM165.53 232.45C165.53 235.356 165.131 237.869 164.358 240.007L166.238 240.687C167.107 238.286 167.53 235.534 167.53 232.45H165.53ZM153.269 249.191C151.019 249.727 148.442 250 145.53 250V252C148.563 252 151.3 251.716 153.733 251.136L153.269 249.191ZM145.53 250H137.895V252H145.53V250ZM122.627 250H107.358V252H122.627V250ZM92.0891 250H76.8203V252H92.0891V250ZM61.5516 250H46.2828V252H61.5516V250ZM31.0141 250H23.3797V252H31.0141V250ZM7.62969 245.4L9.0439 243.986L9.0439 243.986L7.62969 245.4ZM7.97969 8.79999L6.56547 7.38578L6.56547 7.38578L7.97969 8.79999ZM40.8797 8.79999L39.4257 10.1732L39.4649 10.2148L39.5064 10.254L40.8797 8.79999ZM47.1797 213.9H45.1797V215.9H47.1797V213.9ZM23.3797 249C21.9593 249 20.6228 248.913 19.3682 248.742L18.8293 252.706C20.2792 252.903 21.7967 253 23.3797 253V249ZM12.0333 246.312C10.9362 245.658 9.94083 244.883 9.0439 243.986L6.21548 246.814C7.34724 247.946 8.60452 248.924 9.98393 249.747L12.0333 246.312ZM9.0439 243.986C8.15605 243.098 7.38901 242.123 6.74021 241.059L3.32516 243.142C4.14014 244.478 5.10443 245.703 6.21548 246.814L9.0439 243.986ZM4.29311 233.915C4.11867 232.688 4.02969 231.384 4.02969 230H0.0296893C0.0296893 231.555 0.129613 233.048 0.332977 234.478L4.29311 233.915ZM4.02969 230V222.675H0.0296893V230H4.02969ZM4.02969 208.025V193.375H0.0296893V208.025H4.02969ZM4.02969 178.725V164.075H0.0296893V178.725H4.02969ZM4.02969 149.425V134.775H0.0296893V149.425H4.02969ZM4.02969 120.125V105.475H0.0296893V120.125H4.02969ZM4.02969 90.825V76.175H0.0296893V90.825H4.02969ZM4.02969 61.525V46.875H0.0296893V61.525H4.02969ZM4.02969 32.225V24.9H0.0296893V32.225H4.02969ZM4.02969 24.9C4.02969 23.4512 4.12617 22.0839 4.31553 20.7957L0.358057 20.214C0.137941 21.7114 0.0296893 23.2741 0.0296893 24.9H4.02969ZM6.94567 13.2994C7.63581 12.1851 8.45088 11.1572 9.3939 10.2142L6.56547 7.38578C5.40739 8.54387 4.39958 9.81352 3.54509 11.1932L6.94567 13.2994ZM9.3939 10.2142C10.3809 9.22721 11.4406 8.37294 12.5734 7.64764L10.4165 4.27897C9.03421 5.16401 7.75039 6.20086 6.56547 7.38578L9.3939 10.2142ZM20.2331 4.81557C21.5554 4.60644 22.9535 4.49999 24.4297 4.49999V0.499987C22.7613 0.499987 21.1534 0.620292 19.6082 0.864684L20.2331 4.81557ZM24.4297 4.49999C25.9236 4.49999 27.3301 4.60143 28.6515 4.80037L29.247 0.844944C27.7107 0.613655 26.1041 0.499987 24.4297 0.499987V4.49999ZM36.3191 7.58189C37.4472 8.31174 38.4822 9.17428 39.4257 10.1732L42.3337 7.42674C41.1742 6.19907 39.8932 5.13009 38.492 4.22353L36.3191 7.58189ZM39.5064 10.254C40.495 11.1877 41.3491 12.2022 42.0729 13.2982L45.4108 11.094C44.5132 9.73479 43.4592 8.48522 42.2529 7.34596L39.5064 10.254ZM44.8726 20.7757C45.076 22.0688 45.1797 23.4427 45.1797 24.9H49.1797C49.1797 23.2533 49.0625 21.6705 48.824 20.1542L44.8726 20.7757ZM45.1797 24.9V32.775H49.1797V24.9H45.1797ZM45.1797 48.525V64.275H49.1797V48.525H45.1797ZM45.1797 80.025V95.775H49.1797V80.025H45.1797ZM45.1797 111.525V127.275H49.1797V111.525H45.1797ZM45.1797 143.025V158.775H49.1797V143.025H45.1797ZM45.1797 174.525V190.275H49.1797V174.525H45.1797ZM45.1797 206.025V213.9H49.1797V206.025H45.1797ZM47.1797 215.9H55.3755V211.9H47.1797V215.9ZM71.7672 215.9H88.1589V211.9H71.7672V215.9ZM104.551 215.9H120.942V211.9H104.551V215.9ZM137.334 215.9H145.53V211.9H137.334V215.9ZM145.53 215.9C148.381 215.9 150.878 216.168 153.038 216.682L153.964 212.791C151.44 212.19 148.623 211.9 145.53 211.9V215.9ZM163.417 225.233C164.143 227.239 164.53 229.633 164.53 232.45H168.53C168.53 229.277 168.095 226.406 167.179 223.872L163.417 225.233ZM164.53 232.45C164.53 235.267 164.143 237.661 163.417 239.667L167.179 241.028C168.095 238.494 168.53 235.623 168.53 232.45H164.53ZM153.038 248.218C150.878 248.732 148.381 249 145.53 249V253C148.623 253 151.44 252.71 153.964 252.109L153.038 248.218ZM145.53 249H137.895V253H145.53V249ZM122.627 249H107.358V253H122.627V249ZM92.0891 249H76.8203V253H92.0891V249ZM61.5516 249H46.2828V253H61.5516V249ZM31.0141 249H23.3797V253H31.0141V249Z" fill="black"/>
</svg>
