<svg width="266" height="183" viewBox="0 0 266 183" fill="none" xmlns="http://www.w3.org/2000/svg">
<path d="M205.817 2.64998C224.483 2.64998 238.717 8.24999 248.517 19.45C258.55 30.4167 263.567 48.2667 263.567 73V159.1C263.567 165.867 261.467 171.117 257.267 174.85C253.3 178.35 248.05 180.1 241.517 180.1C235.217 180.1 229.967 178.35 225.767 174.85C221.8 171.117 219.817 165.867 219.817 159.1V73C219.817 60.1667 217.483 51.0667 212.817 45.7C208.383 40.1 201.5 37.3 192.167 37.3C180.733 37.3 171.633 41.2667 164.867 49.2C158.1 56.9 154.717 67.5167 154.717 81.05V159.1C154.717 165.867 152.617 171.117 148.417 174.85C144.45 178.35 139.317 180.1 133.017 180.1C126.717 180.1 121.467 178.35 117.267 174.85C113.067 171.117 110.967 165.867 110.967 159.1V73C110.967 60.1667 108.633 51.0667 103.967 45.7C99.5335 40.1 92.6501 37.3 83.3168 37.3C71.8835 37.3 62.7835 41.2667 56.0168 49.2C49.4835 56.9 46.2168 67.5167 46.2168 81.05V159.1C46.2168 165.867 44.1168 171.117 39.9168 174.85C35.7168 178.35 30.4668 180.1 24.1668 180.1C17.8668 180.1 12.6168 178.35 8.4168 174.85C4.45013 171.117 2.4668 165.867 2.4668 159.1V23.65C2.4668 17.1167 4.5668 12.1 8.7668 8.59999C12.9668 5.09999 18.2168 3.35 24.5168 3.35C30.5835 3.35 35.4835 5.09999 39.2168 8.59999C43.1835 11.8667 45.1668 16.65 45.1668 22.95V31.35C50.5335 22.0167 57.6501 14.9 66.5168 9.99999C75.6168 5.09999 86.0001 2.64998 97.6668 2.64998C123.333 2.64998 140.483 13.3833 149.117 34.85C154.25 25.05 161.833 17.2333 171.867 11.4C181.9 5.56665 193.217 2.64998 205.817 2.64998Z" fill="#F5F5F5"/>
<path d="M248.517 19.45L247.764 20.1085L247.772 20.1168L247.779 20.125L248.517 19.45ZM257.267 174.85L257.928 175.6L257.931 175.597L257.267 174.85ZM225.767 174.85L225.081 175.578L225.103 175.599L225.127 175.618L225.767 174.85ZM212.817 45.7L212.033 46.3207L212.047 46.3388L212.062 46.3562L212.817 45.7ZM164.867 49.2L165.618 49.8601L165.623 49.8546L165.628 49.8489L164.867 49.2ZM148.417 174.85L149.078 175.6L149.081 175.597L148.417 174.85ZM117.267 174.85L116.602 175.597L116.614 175.608L116.627 175.618L117.267 174.85ZM103.967 45.7L103.183 46.3207L103.197 46.3388L103.212 46.3562L103.967 45.7ZM56.0168 49.2L55.256 48.551L55.2543 48.553L56.0168 49.2ZM39.9168 174.85L40.557 175.618L40.5692 175.608L40.5812 175.597L39.9168 174.85ZM8.4168 174.85L7.73143 175.578L7.75342 175.599L7.77661 175.618L8.4168 174.85ZM8.7668 8.59999L8.12661 7.83177L8.12661 7.83177L8.7668 8.59999ZM39.2168 8.59999L38.5329 9.32953L38.5563 9.3515L38.5811 9.37192L39.2168 8.59999ZM45.1668 31.35H44.1668V35.0953L46.0337 31.8485L45.1668 31.35ZM66.5168 9.99999L66.0427 9.11947L66.0331 9.12475L66.5168 9.99999ZM149.117 34.85L148.189 35.2231L148.997 37.2331L150.003 35.314L149.117 34.85ZM171.867 11.4L172.369 12.2645L172.369 12.2645L171.867 11.4ZM205.817 1.64998C202.756 1.64998 199.766 1.82007 196.85 2.16081L197.082 4.1473C199.918 3.81595 202.83 3.64998 205.817 3.64998V1.64998ZM179.446 6.56796C176.666 7.69655 173.972 9.01915 171.364 10.5355L172.369 12.2645C174.897 10.7951 177.506 9.51406 180.198 8.42104L179.446 6.56796ZM171.364 10.5355C168.892 11.973 166.564 13.5305 164.38 15.2085L165.599 16.7942C167.712 15.1706 169.968 13.6606 172.369 12.2645L171.364 10.5355ZM152.658 27.2277C151.023 29.4865 149.547 31.8728 148.231 34.386L150.003 35.314C151.275 32.8843 152.701 30.5799 154.278 28.4004L152.658 27.2277ZM150.045 34.4769C148.984 31.8393 147.795 29.3572 146.476 27.0316L144.736 28.018C146.008 30.2612 147.159 32.6626 148.189 35.2231L150.045 34.4769ZM136.124 14.1696C132.005 10.5674 127.276 7.74434 121.943 5.69845L121.227 7.56574C126.35 9.53129 130.874 12.235 134.807 15.675L136.124 14.1696ZM105.885 2.04041C103.245 1.7799 100.506 1.64998 97.6668 1.64998V3.64998C100.445 3.64998 103.119 3.77712 105.689 4.03074L105.885 2.04041ZM97.6668 1.64998C94.8712 1.64998 92.1459 1.78899 89.4911 2.06751L89.6997 4.0566C92.282 3.78569 94.9375 3.64998 97.6668 3.64998V1.64998ZM73.5304 5.73612C70.9467 6.69509 68.4507 7.82289 66.0427 9.11952L66.9909 10.8805C69.3169 9.62799 71.7286 8.53821 74.2263 7.61113L73.5304 5.73612ZM66.0331 9.12475C63.7434 10.3901 61.5673 11.8013 59.5053 13.3581L60.7104 14.9543C62.6959 13.4552 64.7925 12.0955 67.0005 10.8752L66.0331 9.12475ZM48.5681 24.3666C47.0399 26.3985 45.6173 28.5603 44.2999 30.8515L46.0337 31.8485C47.3119 29.6255 48.6896 27.5324 50.1665 25.5687L48.5681 24.3666ZM46.1668 31.35V29.25H44.1668V31.35H46.1668ZM46.1668 25.05V22.95H44.1668V25.05H46.1668ZM46.1668 22.95C46.1668 21.4916 46.0639 20.1037 45.8558 18.7876L43.8804 19.1C44.0705 20.3024 44.1668 21.5853 44.1668 22.95H46.1668ZM42.7722 10.9436C41.9462 9.78869 40.972 8.75002 39.8525 7.82806L38.5811 9.37192C39.5696 10.186 40.4234 11.0976 41.1454 12.107L42.7722 10.9436ZM39.9007 7.87045C38.8657 6.90006 37.7439 6.05607 36.5362 5.33975L35.5159 7.05992C36.5971 7.70118 37.6025 8.4573 38.5329 9.32953L39.9007 7.87045ZM28.6486 2.63624C27.3291 2.44487 25.9515 2.35 24.5168 2.35V4.35C25.8635 4.35 27.1448 4.43905 28.3615 4.61553L28.6486 2.63624ZM24.5168 2.35C23.0081 2.35 21.5528 2.44749 20.1517 2.6438L20.4292 4.62445C21.732 4.44192 23.0942 4.35 24.5168 4.35V2.35ZM11.7871 5.3414C10.4915 6.04757 9.27115 6.87799 8.12661 7.83177L9.40698 9.36821C10.4523 8.49709 11.5646 7.74048 12.7443 7.0975L11.7871 5.3414ZM8.12661 7.83177C6.96015 8.80382 5.94321 9.8899 5.07872 11.0898L6.70144 12.2589C7.46457 11.1997 8.36544 10.2362 9.40698 9.36821L8.12661 7.83177ZM1.80285 19.2842C1.578 20.6664 1.4668 22.1221 1.4668 23.65H3.4668C3.4668 22.2188 3.57098 20.8711 3.7769 19.6054L1.80285 19.2842ZM1.4668 23.65V30.4225H3.4668V23.65H1.4668ZM1.4668 43.9675V57.5125H3.4668V43.9675H1.4668ZM1.4668 71.0575V84.6025H3.4668V71.0575H1.4668ZM1.4668 98.1475V111.692H3.4668V98.1475H1.4668ZM1.4668 125.237V138.782H3.4668V125.237H1.4668ZM1.4668 152.327V159.1H3.4668V152.327H1.4668ZM1.4668 159.1C1.4668 160.66 1.56925 162.149 1.77609 163.565L3.7551 163.276C3.56354 161.964 3.4668 160.573 3.4668 159.1H1.4668ZM4.81332 172.062C5.63611 173.35 6.60937 174.522 7.73143 175.578L9.10216 174.122C8.09907 173.178 7.23183 172.132 6.49875 170.985L4.81332 172.062ZM7.77661 175.618C8.92115 176.572 10.1415 177.402 11.4371 178.109L12.3943 176.352C11.2146 175.71 10.1023 174.953 9.05698 174.082L7.77661 175.618ZM19.8017 180.806C21.2028 181.003 22.6581 181.1 24.1668 181.1V179.1C22.7442 179.1 21.382 179.008 20.0792 178.826L19.8017 180.806ZM24.1668 181.1C25.6755 181.1 27.1308 181.003 28.5319 180.806L28.2544 178.826C26.9516 179.008 25.5894 179.1 24.1668 179.1V181.1ZM36.8965 178.109C38.1921 177.402 39.4124 176.572 40.557 175.618L39.2766 174.082C38.2313 174.953 37.119 175.71 35.9393 176.352L36.8965 178.109ZM40.5812 175.597C41.7501 174.558 42.7675 173.405 43.631 172.138L41.9785 171.012C41.2096 172.14 40.3017 173.17 39.2524 174.103L40.5812 175.597ZM46.882 163.616C47.1059 162.184 47.2168 160.678 47.2168 159.1H45.2168C45.2168 160.585 45.1125 161.987 44.906 163.307L46.882 163.616ZM47.2168 159.1V152.596H45.2168V159.1H47.2168ZM47.2168 139.587V126.579H45.2168V139.587H47.2168ZM47.2168 113.571V100.562H45.2168V113.571H47.2168ZM47.2168 87.5542V81.05H45.2168V87.5542H47.2168ZM47.2168 81.05C47.2168 78.1144 47.3724 75.3232 47.6822 72.6756L45.6958 72.4431C45.3761 75.1749 45.2168 78.0441 45.2168 81.05H47.2168ZM52.2264 56.7323C53.5017 54.2152 55.0196 51.921 56.7793 49.847L55.2543 48.553C53.3898 50.7505 51.786 53.1764 50.4423 55.8283L52.2264 56.7323ZM56.7776 49.8489C58.4466 47.8922 60.2573 46.1882 62.2091 44.7341L61.0143 43.1302C58.9364 44.6783 57.0171 46.4863 55.256 48.551L56.7776 49.8489ZM75.8304 38.9395C78.1931 38.514 80.688 38.3 83.3168 38.3V36.3C80.5795 36.3 77.9654 36.5229 75.476 36.9711L75.8304 38.9395ZM83.3168 38.3C85.3096 38.3 87.1798 38.4304 88.9291 38.689L89.2216 36.7105C87.365 36.4361 85.3963 36.3 83.3168 36.3V38.3ZM99.2115 42.5566C100.708 43.6123 102.031 44.8661 103.183 46.3207L104.751 45.0793C103.482 43.4762 102.019 42.0897 100.364 40.9224L99.2115 42.5566ZM103.212 46.3562C104.59 47.9407 105.768 49.888 106.737 52.2138L108.583 51.4448C107.546 48.9544 106.262 46.8155 104.721 45.0438L103.212 46.3562ZM109.696 65.8993C109.876 68.1169 109.967 70.4836 109.967 73H111.967C111.967 70.4361 111.875 68.0149 111.689 65.7372L109.696 65.8993ZM109.967 73V80.175H111.967V73H109.967ZM109.967 94.525V108.875H111.967V94.525H109.967ZM109.967 123.225V137.575H111.967V123.225H109.967ZM109.967 151.925V159.1H111.967V151.925H109.967ZM109.967 159.1C109.967 160.678 110.078 162.184 110.302 163.616L112.278 163.307C112.071 161.987 111.967 160.585 111.967 159.1H109.967ZM113.553 172.138C114.416 173.405 115.434 174.558 116.602 175.597L117.931 174.103C116.882 173.17 115.974 172.14 115.205 171.012L113.553 172.138ZM116.627 175.618C117.771 176.572 118.992 177.402 120.287 178.109L121.244 176.352C120.065 175.71 118.952 174.953 117.907 174.082L116.627 175.618ZM128.652 180.806C130.053 181.003 131.508 181.1 133.017 181.1V179.1C131.594 179.1 130.232 179.008 128.929 178.826L128.652 180.806ZM133.017 181.1C134.504 181.1 135.933 181.005 137.304 180.814L137.028 178.834C135.756 179.011 134.419 179.1 133.017 179.1V181.1ZM145.521 178.128C146.793 177.413 147.979 176.57 149.078 175.6L147.755 174.1C146.76 174.978 145.689 175.739 144.541 176.384L145.521 178.128ZM149.081 175.597C150.25 174.558 151.267 173.405 152.131 172.138L150.478 171.012C149.71 172.14 148.802 173.17 147.752 174.103L149.081 175.597ZM155.382 163.616C155.606 162.184 155.717 160.678 155.717 159.1H153.717C153.717 160.585 153.612 161.987 153.406 163.307L155.382 163.616ZM155.717 159.1V152.596H153.717V159.1H155.717ZM155.717 139.587V126.579H153.717V139.587H155.717ZM155.717 113.571V100.562H153.717V113.571H155.717ZM155.717 87.5542V81.05H153.717V87.5542H155.717ZM155.717 81.05C155.717 78.1028 155.879 75.3013 156.203 72.6448L154.218 72.403C153.883 75.147 153.717 78.0296 153.717 81.05H155.717ZM160.929 56.6955C162.244 54.1988 163.807 51.9211 165.618 49.8601L164.116 48.5399C162.198 50.7223 160.546 53.131 159.159 55.7635L160.929 56.6955ZM165.628 49.8489C167.297 47.8922 169.107 46.1882 171.059 44.7341L169.864 43.1302C167.786 44.6783 165.867 46.4863 164.106 48.551L165.628 49.8489ZM184.68 38.9395C187.043 38.514 189.538 38.3 192.167 38.3V36.3C189.43 36.3 186.815 36.5229 184.326 36.9711L184.68 38.9395ZM192.167 38.3C194.16 38.3 196.03 38.4304 197.779 38.689L198.072 36.7105C196.215 36.4361 194.246 36.3 192.167 36.3V38.3ZM208.061 42.5566C209.558 43.6123 210.881 44.8661 212.033 46.3207L213.601 45.0793C212.332 43.4762 210.869 42.0897 209.214 40.9224L208.061 42.5566ZM212.062 46.3562C213.44 47.9407 214.618 49.888 215.587 52.2138L217.433 51.4448C216.396 48.9544 215.112 46.8155 213.571 45.0438L212.062 46.3562ZM218.546 65.8993C218.726 68.1169 218.817 70.4836 218.817 73H220.817C220.817 70.4361 220.725 68.0149 220.539 65.7372L218.546 65.8993ZM218.817 73V80.175H220.817V73H218.817ZM218.817 94.525V108.875H220.817V94.525H218.817ZM218.817 123.225V137.575H220.817V123.225H218.817ZM218.817 151.925V159.1H220.817V151.925H218.817ZM218.817 159.1C218.817 160.66 218.919 162.149 219.126 163.565L221.105 163.276C220.914 161.964 220.817 160.573 220.817 159.1H218.817ZM222.163 172.062C222.986 173.35 223.959 174.522 225.081 175.578L226.452 174.122C225.449 173.178 224.582 172.132 223.849 170.985L222.163 172.062ZM225.127 175.618C226.271 176.572 227.492 177.402 228.787 178.109L229.744 176.352C228.565 175.71 227.452 174.953 226.407 174.082L225.127 175.618ZM237.152 180.806C238.553 181.003 240.008 181.1 241.517 181.1V179.1C240.094 179.1 238.732 179.008 237.429 178.826L237.152 180.806ZM241.517 181.1C243.034 181.1 244.49 181.008 245.883 180.823L245.62 178.84C244.321 179.013 242.954 179.1 241.517 179.1V181.1ZM254.283 178.163C255.595 177.441 256.81 176.587 257.928 175.6L256.605 174.1C255.597 174.989 254.502 175.76 253.319 176.411L254.283 178.163ZM257.931 175.597C259.1 174.558 260.118 173.405 260.981 172.138L259.328 171.012C258.56 172.14 257.652 173.17 256.602 174.103L257.931 175.597ZM264.232 163.616C264.456 162.184 264.567 160.678 264.567 159.1H262.567C262.567 160.585 262.462 161.987 262.256 163.307L264.232 163.616ZM264.567 159.1V151.925H262.567V159.1H264.567ZM264.567 137.575V123.225H262.567V137.575H264.567ZM264.567 108.875V94.525H262.567V108.875H264.567ZM264.567 80.175V73H262.567V80.175H264.567ZM264.567 73C264.567 70.5505 264.518 68.1669 264.42 65.8494L262.422 65.9339C262.518 68.2217 262.567 70.5771 262.567 73H264.567ZM263.073 51.5955C262.29 46.5231 261.199 41.8598 259.796 37.6087L257.897 38.2356C259.261 42.3672 260.328 46.9212 261.096 51.9004L263.073 51.5955ZM253.683 24.537C252.334 22.4487 250.858 20.5275 249.255 18.775L247.779 20.125C249.303 21.7911 250.711 23.623 252.003 25.6222L253.683 24.537ZM249.269 18.7915C247.93 17.2604 246.508 15.8309 245.005 14.5035L243.681 16.0027C245.119 17.2725 246.48 18.641 247.764 20.1085L249.269 18.7915ZM234.993 7.76166C231.507 6.01503 227.732 4.645 223.672 3.64877L223.195 5.59115C227.121 6.55448 230.754 7.87496 234.097 9.54978L234.993 7.76166ZM211.807 1.85024C209.861 1.71666 207.865 1.64998 205.817 1.64998V3.64998C207.821 3.64998 209.772 3.71525 211.67 3.84555L211.807 1.85024ZM248.517 19.45L247.012 20.767L247.026 20.7837L247.041 20.8L248.517 19.45ZM257.267 174.85L258.59 176.35L258.596 176.345L257.267 174.85ZM225.767 174.85L224.396 176.306L224.44 176.348L224.486 176.386L225.767 174.85ZM212.817 45.7L211.249 46.9414L211.277 46.9776L211.308 47.0124L212.817 45.7ZM164.867 49.2L166.369 50.5202L166.379 50.5091L166.388 50.4979L164.867 49.2ZM148.417 174.85L149.74 176.35L149.746 176.345L148.417 174.85ZM117.267 174.85L115.938 176.345L115.962 176.366L115.986 176.386L117.267 174.85ZM103.967 45.7L102.399 46.9414L102.427 46.9776L102.458 47.0124L103.967 45.7ZM56.0168 49.2L54.4951 47.9021L54.4918 47.906L56.0168 49.2ZM39.9168 174.85L41.1972 176.386L41.2217 176.366L41.2455 176.345L39.9168 174.85ZM8.4168 174.85L7.04607 176.306L7.09004 176.348L7.13643 176.386L8.4168 174.85ZM8.7668 8.59999L7.48643 7.06355L7.48643 7.06355L8.7668 8.59999ZM39.2168 8.59999L37.8489 10.0591L37.8958 10.103L37.9454 10.1439L39.2168 8.59999ZM45.1668 31.35H43.1668V38.8405L46.9006 32.3469L45.1668 31.35ZM66.5168 9.99999L65.5686 8.23905L65.559 8.24423L65.5494 8.24951L66.5168 9.99999ZM149.117 34.85L147.261 35.5963L148.878 39.6162L150.888 35.778L149.117 34.85ZM171.867 11.4L172.872 13.129L172.872 13.129L171.867 11.4ZM205.817 0.649984C202.718 0.649984 199.691 0.822133 196.734 1.16757L197.198 5.14055C199.994 4.81388 202.867 4.64998 205.817 4.64998V0.649984ZM179.07 5.64142C176.246 6.7878 173.51 8.13116 170.862 9.67098L172.872 13.129C175.359 11.6831 177.926 10.4228 180.574 9.34758L179.07 5.64142ZM170.862 9.67098C168.353 11.1292 165.989 12.7105 163.771 14.4156L166.208 17.5871C168.286 15.9907 170.506 14.5044 172.872 13.129L170.862 9.67098ZM151.848 26.6414C150.184 28.9398 148.683 31.367 147.345 33.922L150.888 35.778C152.139 33.3901 153.539 31.1266 155.088 28.9867L151.848 26.6414ZM150.972 34.1037C149.896 31.4276 148.688 28.9052 147.346 26.5385L143.867 28.5111C145.115 30.7132 146.247 33.0742 147.261 35.5963L150.972 34.1037ZM136.782 13.4169C132.571 9.73358 127.739 6.85086 122.302 4.76481L120.869 8.49939C125.887 10.4248 130.309 13.0688 134.149 16.4277L136.782 13.4169ZM105.983 1.04524C103.309 0.781292 100.536 0.649984 97.6668 0.649984V4.64998C100.415 4.64998 103.056 4.77573 105.59 5.0259L105.983 1.04524ZM97.6668 0.649984C94.8381 0.649984 92.0779 0.790639 89.3867 1.07297L89.8041 5.05114C92.35 4.78404 94.9707 4.64998 97.6668 4.64998V0.649984ZM73.1824 4.79862C70.5558 5.77354 68.0176 6.92034 65.5686 8.23905L67.465 11.7609C69.75 10.5305 72.1195 9.45977 74.5743 8.54864L73.1824 4.79862ZM65.5494 8.24951C63.2188 9.53747 61.003 10.9743 58.9027 12.5601L61.313 15.7523C63.2602 14.2821 65.317 12.9481 67.4842 11.7505L65.5494 8.24951ZM47.7689 23.7655C46.2151 25.8315 44.77 28.0278 43.433 30.353L46.9006 32.3469C48.1592 30.158 49.5145 28.0994 50.9657 26.1698L47.7689 23.7655ZM47.1668 31.35V29.25H43.1668V31.35H47.1668ZM47.1668 25.05V22.95H43.1668V25.05H47.1668ZM47.1668 22.95C47.1668 21.4448 47.0607 20.0043 46.8436 18.6314L42.8927 19.2562C43.0738 20.4018 43.1668 21.6321 43.1668 22.95H47.1668ZM43.5856 10.3619C42.7076 9.13426 41.6732 8.03201 40.4882 7.05613L37.9454 10.1439C38.8684 10.904 39.6621 11.752 40.332 12.6888L43.5856 10.3619ZM40.5847 7.14092C39.4972 6.12144 38.3173 5.23352 37.0464 4.47966L35.0058 7.92001C36.0236 8.52374 36.9709 9.23592 37.8489 10.0591L40.5847 7.14092ZM28.7921 1.6466C27.4213 1.44777 25.9955 1.35 24.5168 1.35V5.35C25.8195 5.35 27.0526 5.43615 28.218 5.60518L28.7921 1.6466ZM24.5168 1.35C22.9651 1.35 21.4633 1.45027 20.0129 1.65347L20.5679 5.61478C21.8215 5.43914 23.1373 5.35 24.5168 5.35V1.35ZM11.3086 4.46335C9.95497 5.20112 8.68056 6.06844 7.48643 7.06355L10.0472 10.1364C11.0429 9.30664 12.1011 8.58694 13.2229 7.97555L11.3086 4.46335ZM7.48643 7.06355C6.2575 8.08765 5.18252 9.23502 4.26735 10.5053L7.51281 12.8435C8.22525 11.8546 9.06809 10.9523 10.0472 10.1364L7.48643 7.06355ZM0.815828 19.1237C0.581511 20.564 0.466799 22.0738 0.466799 23.65H4.4668C4.4668 22.2672 4.56747 20.9735 4.76392 19.7659L0.815828 19.1237ZM0.466799 23.65V30.4225H4.4668V23.65H0.466799ZM0.466799 43.9675V57.5125H4.4668V43.9675H0.466799ZM0.466799 71.0575V84.6025H4.4668V71.0575H0.466799ZM0.466799 98.1475V111.692H4.4668V98.1475H0.466799ZM0.466799 125.237V138.782H4.4668V125.237H0.466799ZM0.466799 152.327V159.1H4.4668V152.327H0.466799ZM0.466799 159.1C0.466799 160.704 0.572108 162.241 0.786587 163.71L4.7446 163.132C4.56069 161.872 4.4668 160.529 4.4668 159.1H0.466799ZM3.9706 172.6C4.83825 173.958 5.86452 175.194 7.04607 176.306L9.78753 173.394C8.84393 172.506 8.02969 171.524 7.34146 170.447L3.9706 172.6ZM7.13643 176.386C8.33056 177.382 9.60497 178.249 10.9586 178.987L12.8728 175.474C11.7511 174.863 10.6929 174.143 9.69717 173.314L7.13643 176.386ZM19.6629 181.797C21.1133 182 22.6151 182.1 24.1668 182.1V178.1C22.7873 178.1 21.4715 178.011 20.2179 177.835L19.6629 181.797ZM24.1668 182.1C25.7185 182.1 27.2203 182 28.6707 181.797L28.1157 177.835C26.8621 178.011 25.5463 178.1 24.1668 178.1V182.1ZM37.375 178.987C38.7286 178.249 40.003 177.382 41.1972 176.386L38.6364 173.314C37.6407 174.143 36.5825 174.863 35.4607 175.474L37.375 178.987ZM41.2455 176.345C42.4743 175.253 43.5465 174.038 44.4573 172.702L41.1522 170.449C40.4306 171.507 39.5775 172.476 38.5881 173.355L41.2455 176.345ZM47.87 163.771C48.1027 162.283 48.2168 160.725 48.2168 159.1H44.2168C44.2168 160.538 44.1158 161.888 43.918 163.153L47.87 163.771ZM48.2168 159.1V152.596H44.2168V159.1H48.2168ZM48.2168 139.587V126.579H44.2168V139.587H48.2168ZM48.2168 113.571V100.562H44.2168V113.571H48.2168ZM48.2168 87.5542V81.05H44.2168V87.5542H48.2168ZM48.2168 81.05C48.2168 78.1496 48.3705 75.3974 48.6755 72.7919L44.7026 72.3269C44.3779 75.1007 44.2168 78.0089 44.2168 81.05H48.2168ZM53.1184 57.1842C54.3596 54.7346 55.8345 52.5062 57.5418 50.4939L54.4918 47.906C52.5749 50.1652 50.9281 52.657 49.5503 55.3763L53.1184 57.1842ZM57.5385 50.4979C59.1614 48.5951 60.9178 46.9432 62.8066 45.536L60.4168 42.3283C58.2759 43.9234 56.3023 45.7833 54.4951 47.9021L57.5385 50.4979ZM76.0076 39.9237C78.307 39.5096 80.7423 39.3 83.3168 39.3V35.3C80.5252 35.3 77.8515 35.5273 75.2987 35.987L76.0076 39.9237ZM83.3168 39.3C85.2662 39.3 87.0873 39.4276 88.7829 39.6783L89.3678 35.7213C87.4576 35.4389 85.4396 35.3 83.3168 35.3V39.3ZM98.6351 43.3738C100.052 44.3736 101.306 45.561 102.399 46.9414L105.535 44.4586C104.207 42.7813 102.675 41.3284 100.941 40.1052L98.6351 43.3738ZM102.458 47.0124C103.754 48.5033 104.879 50.3547 105.814 52.5982L109.506 51.0604C108.435 48.4876 107.098 46.2529 105.476 44.3876L102.458 47.0124ZM108.699 65.9804C108.877 68.1679 108.967 70.5073 108.967 73H112.967C112.967 70.4123 112.874 67.9639 112.686 65.6561L108.699 65.9804ZM108.967 73V80.175H112.967V73H108.967ZM108.967 94.525V108.875H112.967V94.525H108.967ZM108.967 123.225V137.575H112.967V123.225H108.967ZM108.967 151.925V159.1H112.967V151.925H108.967ZM108.967 159.1C108.967 160.725 109.081 162.283 109.314 163.771L113.266 163.153C113.068 161.888 112.967 160.538 112.967 159.1H108.967ZM112.726 172.702C113.637 174.038 114.709 175.253 115.938 176.345L118.596 173.355C117.606 172.476 116.753 171.507 116.031 170.449L112.726 172.702ZM115.986 176.386C117.181 177.382 118.455 178.249 119.809 178.987L121.723 175.474C120.601 174.863 119.543 174.143 118.547 173.314L115.986 176.386ZM128.513 181.797C129.963 182 131.465 182.1 133.017 182.1V178.1C131.637 178.1 130.322 178.011 129.068 177.835L128.513 181.797ZM133.017 182.1C134.546 182.1 136.022 182.003 137.442 181.805L136.891 177.843C135.667 178.013 134.377 178.1 133.017 178.1V182.1ZM146.011 179C147.344 178.25 148.588 177.366 149.74 176.35L147.094 173.35C146.151 174.182 145.138 174.902 144.051 175.513L146.011 179ZM149.746 176.345C150.974 175.253 152.046 174.038 152.957 172.702L149.652 170.449C148.931 171.507 148.077 172.476 147.088 173.355L149.746 176.345ZM156.37 163.771C156.603 162.283 156.717 160.725 156.717 159.1H152.717C152.717 160.538 152.616 161.888 152.418 163.153L156.37 163.771ZM156.717 159.1V152.596H152.717V159.1H156.717ZM156.717 139.587V126.579H152.717V139.587H156.717ZM156.717 113.571V100.562H152.717V113.571H156.717ZM156.717 87.5542V81.05H152.717V87.5542H156.717ZM156.717 81.05C156.717 78.1394 156.877 75.3785 157.196 72.7658L153.225 72.2821C152.885 75.0698 152.717 77.993 152.717 81.05H156.717ZM161.813 57.1615C163.093 54.7327 164.611 52.5204 166.369 50.5202L163.364 47.8798C161.393 50.123 159.697 52.597 158.274 55.2975L161.813 57.1615ZM166.388 50.4979C168.011 48.5951 169.768 46.9432 171.657 45.536L169.267 42.3283C167.126 43.9234 165.152 45.7833 163.345 47.9021L166.388 50.4979ZM184.858 39.9237C187.157 39.5096 189.592 39.3 192.167 39.3V35.3C189.375 35.3 186.702 35.5273 184.149 35.987L184.858 39.9237ZM192.167 39.3C194.116 39.3 195.937 39.4276 197.633 39.6783L198.218 35.7213C196.308 35.4389 194.29 35.3 192.167 35.3V39.3ZM207.485 43.3738C208.902 44.3736 210.156 45.561 211.249 46.9414L214.385 44.4586C213.057 42.7813 211.525 41.3284 209.791 40.1052L207.485 43.3738ZM211.308 47.0124C212.604 48.5033 213.729 50.3547 214.664 52.5982L218.356 51.0604C217.285 48.4876 215.948 46.2529 214.326 44.3876L211.308 47.0124ZM217.549 65.9804C217.727 68.1679 217.817 70.5073 217.817 73H221.817C221.817 70.4123 221.724 67.9639 221.536 65.6561L217.549 65.9804ZM217.817 73V80.175H221.817V73H217.817ZM217.817 94.525V108.875H221.817V94.525H217.817ZM217.817 123.225V137.575H221.817V123.225H217.817ZM217.817 151.925V159.1H221.817V151.925H217.817ZM217.817 159.1C217.817 160.704 217.922 162.241 218.137 163.71L222.095 163.132C221.911 161.872 221.817 160.529 221.817 159.1H217.817ZM221.321 172.6C222.188 173.958 223.215 175.194 224.396 176.306L227.138 173.394C226.194 172.506 225.38 171.524 224.691 170.447L221.321 172.6ZM224.486 176.386C225.681 177.382 226.955 178.249 228.309 178.987L230.223 175.474C229.101 174.863 228.043 174.143 227.047 173.314L224.486 176.386ZM237.013 181.797C238.463 182 239.965 182.1 241.517 182.1V178.1C240.137 178.1 238.822 178.011 237.568 177.835L237.013 181.797ZM241.517 182.1C243.074 182.1 244.574 182.006 246.015 181.814L245.488 177.849C244.237 178.015 242.913 178.1 241.517 178.1V182.1ZM254.765 179.039C256.141 178.282 257.416 177.385 258.59 176.35L255.944 173.35C254.991 174.191 253.956 174.919 252.836 175.535L254.765 179.039ZM258.596 176.345C259.824 175.253 260.896 174.038 261.807 172.702L258.502 170.449C257.781 171.507 256.927 172.476 255.938 173.355L258.596 176.345ZM265.22 163.771C265.453 162.283 265.567 160.725 265.567 159.1H261.567C261.567 160.538 261.466 161.888 261.268 163.153L265.22 163.771ZM265.567 159.1V151.925H261.567V159.1H265.567ZM265.567 137.575V123.225H261.567V137.575H265.567ZM265.567 108.875V94.525H261.567V108.875H265.567ZM265.567 80.175V73H261.567V80.175H265.567ZM265.567 73C265.567 70.5372 265.518 68.1395 265.419 65.8072L261.423 65.9762C261.519 68.2491 261.567 70.5904 261.567 73H265.567ZM264.061 51.4431C263.272 46.324 262.169 41.606 260.746 37.2953L256.947 38.549C258.291 42.621 259.347 47.1202 260.108 52.0529L264.061 51.4431ZM254.523 23.9944C253.145 21.8615 251.635 19.8957 249.992 18.1L247.041 20.8C248.526 22.4229 249.9 24.2102 251.163 26.1647L254.523 23.9944ZM250.022 18.133C248.654 16.5701 247.203 15.1101 245.666 13.7538L243.019 16.7523C244.425 17.9933 245.755 19.3313 247.012 20.767L250.022 18.133ZM235.441 6.86761C231.883 5.08507 228.037 3.69026 223.91 2.67758L222.957 6.56234C226.816 7.50922 230.378 8.80492 233.649 10.4438L235.441 6.86761ZM211.875 0.852593C209.906 0.717364 207.886 0.649984 205.817 0.649984V4.64998C207.799 4.64998 209.728 4.71454 211.601 4.8432L211.875 0.852593Z" fill="black"/>
</svg>
