<svg width="245" height="256" viewBox="0 0 245 256" fill="none" xmlns="http://www.w3.org/2000/svg">
<path d="M221.056 2.49999C227.59 2.49999 232.84 4.59999 236.806 8.79999C240.773 12.7667 242.756 18.1333 242.756 24.9V232.1C242.756 238.633 240.89 243.767 237.156 247.5C233.423 251.233 228.523 253.1 222.456 253.1C216.39 253.1 211.606 251.233 208.106 247.5C204.606 243.767 202.856 238.633 202.856 232.1V87.9L143.356 200.6C140.556 205.733 137.523 209.583 134.256 212.15C130.99 214.483 127.14 215.65 122.706 215.65C118.273 215.65 114.423 214.483 111.156 212.15C107.89 209.817 104.856 205.967 102.056 200.6L42.2065 89.65V232.1C42.2065 238.4 40.3398 243.533 36.6064 247.5C33.1064 251.233 28.3231 253.1 22.2564 253.1C16.1898 253.1 11.4064 251.233 7.90645 247.5C4.40645 243.767 2.65645 238.633 2.65645 232.1V24.9C2.65645 18.1333 4.52311 12.7667 8.25645 8.79999C12.2231 4.59999 17.4731 2.49999 24.0065 2.49999C33.1064 2.49999 40.2231 7.51665 45.3564 17.55L123.056 165.6L200.406 17.55C205.54 7.51665 212.423 2.49999 221.056 2.49999Z" fill="#F5F5F5"/>
<path d="M236.806 8.79999L236.079 9.48661L236.089 9.497L236.099 9.5071L236.806 8.79999ZM237.156 247.5L236.449 246.793L236.449 246.793L237.156 247.5ZM208.106 247.5L208.836 246.816L208.836 246.816L208.106 247.5ZM202.856 87.9H203.856L201.972 87.4331L202.856 87.9ZM143.356 200.6L144.234 201.079L144.241 201.067L143.356 200.6ZM134.256 212.15L134.838 212.964L134.856 212.95L134.874 212.936L134.256 212.15ZM111.156 212.15L111.738 211.336L111.738 211.336L111.156 212.15ZM102.056 200.6L102.943 200.137L102.937 200.125L102.056 200.6ZM42.2065 89.65L43.0866 89.1752L41.2065 89.65H42.2065ZM36.6064 247.5L35.8782 246.815L35.8769 246.816L36.6064 247.5ZM7.90645 247.5L8.63598 246.816L8.63598 246.816L7.90645 247.5ZM8.25645 8.79999L7.52943 8.11336L7.52825 8.11462L8.25645 8.79999ZM45.3564 17.55L44.4662 18.0055L44.471 18.0147L45.3564 17.55ZM123.056 165.6L122.171 166.065L123.058 167.756L123.943 166.063L123.056 165.6ZM200.406 17.55L201.293 18.0131L201.297 18.0055L200.406 17.55ZM221.056 1.49999C218.611 1.49999 216.287 1.88528 214.092 2.66161L214.759 4.54717C216.728 3.85096 218.825 3.49999 221.056 3.49999V1.49999ZM203.138 11.2033C201.843 12.941 200.636 14.906 199.516 17.0945L201.297 18.0055C202.373 15.9025 203.522 14.035 204.742 12.3989L203.138 11.2033ZM199.52 17.0869L196.297 23.2557L198.07 24.1818L201.293 18.013L199.52 17.0869ZM189.851 35.5932L183.406 47.9307L185.178 48.8568L191.624 36.5193L189.851 35.5932ZM176.96 60.2682L170.514 72.6057L172.287 73.5318L178.732 61.1943L176.96 60.2682ZM164.068 84.9432L157.622 97.2807L159.395 98.2068L165.841 85.8693L164.068 84.9432ZM151.176 109.618L144.731 121.956L146.503 122.882L152.949 110.544L151.176 109.618ZM138.285 134.293L131.839 146.631L133.612 147.557L140.057 135.219L138.285 134.293ZM125.393 158.968L122.17 165.137L123.943 166.063L127.166 159.894L125.393 158.968ZM123.942 165.135L120.704 158.967L118.933 159.896L122.171 166.065L123.942 165.135ZM114.229 146.629L107.754 134.292L105.983 135.221L112.458 147.558L114.229 146.629ZM101.279 121.954L94.8044 109.617L93.0335 110.546L99.5085 122.883L101.279 121.954ZM88.3294 97.279L81.8544 84.9415L80.0835 85.8709L86.5585 98.2084L88.3294 97.279ZM75.3794 72.604L68.9044 60.2665L67.1335 61.1959L73.6085 73.5334L75.3794 72.604ZM62.4294 47.929L55.9544 35.5915L54.1835 36.5209L60.6585 48.8584L62.4294 47.929ZM49.4794 23.254L46.2419 17.0853L44.471 18.0147L47.7085 24.1834L49.4794 23.254ZM46.2467 17.0945C45.1017 14.8566 43.8545 12.8522 42.5027 11.0853L40.9143 12.3007C42.1837 13.9597 43.3685 15.8599 44.4662 18.0055L46.2467 17.0945ZM31.1189 2.60145C28.8828 1.865 26.51 1.49999 24.0065 1.49999V3.49999C26.3131 3.49999 28.4734 3.83583 30.4933 4.50108L31.1189 2.60145ZM24.0065 1.49999C22.4371 1.49999 20.9324 1.61731 19.4937 1.85406L19.8184 3.82752C21.1411 3.60987 22.5367 3.49999 24.0065 3.49999V1.49999ZM11.0163 5.14451C9.76175 5.99003 8.59945 6.9804 7.52943 8.11337L8.98346 9.48661C9.95582 8.45705 11.006 7.56327 12.1341 6.803L11.0163 5.14451ZM7.52825 8.11462C6.47348 9.23531 5.55988 10.4627 4.78831 11.7955L6.51921 12.7975C7.21382 11.5976 8.03534 10.494 8.98465 9.48535L7.52825 8.11462ZM1.94944 20.4077C1.75358 21.8378 1.65645 23.3356 1.65645 24.9H3.65645C3.65645 23.4181 3.74847 22.0114 3.93094 20.679L1.94944 20.4077ZM1.65645 24.9V32.3H3.65645V24.9H1.65645ZM1.65645 47.1V61.9H3.65645V47.1H1.65645ZM1.65645 76.7V91.5H3.65645V76.7H1.65645ZM1.65645 106.3V121.1H3.65645V106.3H1.65645ZM1.65645 135.9V150.7H3.65645V135.9H1.65645ZM1.65645 165.5V180.3H3.65645V165.5H1.65645ZM1.65645 195.1V209.9H3.65645V195.1H1.65645ZM1.65645 224.7V232.1H3.65645V224.7H1.65645ZM1.65645 232.1C1.65645 233.595 1.74566 235.025 1.9256 236.389L3.90842 236.127C3.74094 234.858 3.65645 233.516 3.65645 232.1H1.65645ZM4.57289 244.643C5.30382 245.931 6.17201 247.112 7.17691 248.184L8.63598 246.816C7.74033 245.861 6.96598 244.808 6.31237 243.656L4.57289 244.643ZM7.17691 248.184C8.14826 249.22 9.21562 250.123 10.3785 250.89L11.4797 249.22C10.4505 248.541 9.50277 247.741 8.63598 246.816L7.17691 248.184ZM18.15 253.796C19.4561 254 20.8253 254.1 22.2564 254.1V252.1C20.9187 252.1 19.6527 252.006 18.4572 251.82L18.15 253.796ZM22.2564 254.1C23.6876 254.1 25.0568 254 26.3629 253.796L26.0557 251.82C24.8602 252.006 23.5942 252.1 22.2564 252.1V254.1ZM34.1343 250.89C35.2973 250.123 36.3646 249.22 37.336 248.184L35.8769 246.816C35.0101 247.741 34.0624 248.541 33.0332 249.22L34.1343 250.89ZM37.3346 248.185C38.3548 247.101 39.2438 245.933 40.0003 244.679L38.288 243.646C37.606 244.776 36.8033 245.832 35.8782 246.815L37.3346 248.185ZM42.8954 236.435C43.1033 235.049 43.2065 233.604 43.2065 232.1H41.2065C41.2065 233.512 41.1096 234.858 40.9176 236.138L42.8954 236.435ZM43.2065 232.1V224.977H41.2065V232.1H43.2065ZM43.2065 210.732V196.487H41.2065V210.732H43.2065ZM43.2065 182.242V167.997H41.2065V182.242H43.2065ZM43.2065 153.752V139.507H41.2065V153.752H43.2065ZM43.2065 125.262V111.017H41.2065V125.262H43.2065ZM43.2065 96.7725V89.65H41.2065V96.7725H43.2065ZM41.3263 90.1248L45.067 97.0591L46.8272 96.1096L43.0866 89.1752L41.3263 90.1248ZM52.5482 110.928L60.0295 124.797L61.7897 123.847L54.3084 109.978L52.5482 110.928ZM67.5107 138.665L74.992 152.534L76.7522 151.585L69.2709 137.716L67.5107 138.665ZM82.4732 166.403L89.9545 180.272L91.7147 179.322L84.2334 165.453L82.4732 166.403ZM97.4357 194.14L101.176 201.075L102.937 200.125L99.1959 193.191L97.4357 194.14ZM101.17 201.063C101.777 202.227 102.397 203.323 103.029 204.352L104.733 203.305C104.127 202.32 103.531 201.264 102.943 200.137L101.17 201.063ZM107.643 210.42C108.592 211.396 109.569 212.245 110.575 212.964L111.738 211.336C110.839 210.695 109.952 209.926 109.076 209.026L107.643 210.42ZM110.575 212.964C111.459 213.595 112.385 214.146 113.352 214.617L114.227 212.818C113.362 212.397 112.532 211.904 111.738 211.336L110.575 212.964ZM119.515 216.444C120.548 216.582 121.612 216.65 122.706 216.65V214.65C121.695 214.65 120.72 214.587 119.779 214.461L119.515 216.444ZM122.706 216.65C123.801 216.65 124.865 216.582 125.898 216.444L125.634 214.461C124.693 214.587 123.718 214.65 122.706 214.65V216.65ZM132.061 214.617C133.028 214.146 133.954 213.595 134.838 212.964L133.675 211.336C132.881 211.904 132.051 212.397 131.186 212.818L132.061 214.617ZM134.874 212.936C135.843 212.175 136.788 211.31 137.708 210.342L136.258 208.964C135.399 209.868 134.525 210.667 133.639 211.364L134.874 212.936ZM142.326 204.326C142.975 203.304 143.611 202.222 144.234 201.079L142.479 200.121C141.875 201.228 141.261 202.272 140.638 203.254L142.326 204.326ZM144.241 201.067L147.96 194.023L146.191 193.089L142.472 200.133L144.241 201.067ZM155.397 179.936L162.835 165.848L161.066 164.914L153.628 179.002L155.397 179.936ZM170.272 151.761L177.71 137.673L175.941 136.739L168.503 150.827L170.272 151.761ZM185.147 123.586L192.585 109.498L190.816 108.564L183.378 122.652L185.147 123.586ZM200.022 95.4106L203.741 88.3669L201.972 87.4331L198.253 94.4769L200.022 95.4106ZM201.856 87.9V95.11H203.856V87.9H201.856ZM201.856 109.53V123.95H203.856V109.53H201.856ZM201.856 138.37V152.79H203.856V138.37H201.856ZM201.856 167.21V181.63H203.856V167.21H201.856ZM201.856 196.05V210.47H203.856V196.05H201.856ZM201.856 224.89V232.1H203.856V224.89H201.856ZM201.856 232.1C201.856 233.595 201.946 235.025 202.126 236.389L204.108 236.127C203.941 234.858 203.856 233.516 203.856 232.1H201.856ZM204.773 244.643C205.504 245.931 206.372 247.112 207.377 248.184L208.836 246.816C207.94 245.861 207.166 244.808 206.512 243.656L204.773 244.643ZM207.377 248.184C208.348 249.22 209.416 250.123 210.579 250.89L211.68 249.22C210.651 248.541 209.703 247.741 208.836 246.816L207.377 248.184ZM218.35 253.796C219.656 254 221.025 254.1 222.456 254.1V252.1C221.119 252.1 219.853 252.006 218.657 251.82L218.35 253.796ZM222.456 254.1C223.909 254.1 225.303 253.997 226.638 253.788L226.329 251.812C225.104 252.003 223.814 252.1 222.456 252.1V254.1ZM234.552 250.873C235.741 250.115 236.845 249.226 237.864 248.207L236.449 246.793C235.531 247.712 234.54 248.509 233.477 249.186L234.552 250.873ZM237.864 248.207C238.919 247.152 239.834 245.99 240.607 244.721L238.9 243.68C238.209 244.812 237.393 245.849 236.449 246.793L237.864 248.207ZM243.463 236.437C243.659 235.058 243.756 233.612 243.756 232.1H241.756C241.756 233.527 241.665 234.878 241.483 236.156L243.463 236.437ZM243.756 232.1V224.7H241.756V232.1H243.756ZM243.756 209.9V195.1H241.756V209.9H243.756ZM243.756 180.3V165.5H241.756V180.3H243.756ZM243.756 150.7V135.9H241.756V150.7H243.756ZM243.756 121.1V106.3H241.756V121.1H243.756ZM243.756 91.5V76.7H241.756V91.5H243.756ZM243.756 61.9V47.1H241.756V61.9H243.756ZM243.756 32.3V24.9H241.756V32.3H243.756ZM243.756 24.9C243.756 23.3184 243.651 21.8045 243.439 20.3594L241.46 20.6503C241.657 21.9908 241.756 23.407 241.756 24.9H243.756ZM240.391 11.7197C239.578 10.4064 238.618 9.1972 237.514 8.09288L236.099 9.5071C237.096 10.5039 237.959 11.5922 238.691 12.7728L240.391 11.7197ZM237.533 8.11337C236.463 6.9804 235.301 5.99003 234.047 5.14451L232.929 6.803C234.057 7.56327 235.107 8.45705 236.079 9.48661L237.533 8.11337ZM225.569 1.85406C224.13 1.61731 222.626 1.49999 221.056 1.49999V3.49999C222.526 3.49999 223.922 3.60987 225.244 3.82752L225.569 1.85406ZM236.806 8.79999L235.352 10.1732L235.372 10.194L235.392 10.2142L236.806 8.79999ZM237.156 247.5L235.742 246.086L235.742 246.086L237.156 247.5ZM208.106 247.5L209.566 246.132L209.566 246.132L208.106 247.5ZM202.856 87.9H204.856L201.088 86.9662L202.856 87.9ZM143.356 200.6L145.112 201.558L145.119 201.546L145.125 201.534L143.356 200.6ZM134.256 212.15L135.419 213.777L135.456 213.751L135.492 213.723L134.256 212.15ZM111.156 212.15L112.319 210.523L112.319 210.523L111.156 212.15ZM102.056 200.6L103.83 199.675L103.823 199.663L103.817 199.65L102.056 200.6ZM42.2065 89.65L43.9667 88.7005L40.2065 89.65H42.2065ZM36.6064 247.5L35.15 246.129L35.1474 246.132L36.6064 247.5ZM7.90645 247.5L9.36552 246.132L9.36552 246.132L7.90645 247.5ZM8.25645 8.79999L6.80242 7.42674L6.80005 7.42926L8.25645 8.79999ZM45.3564 17.55L43.576 18.4609L43.5807 18.4702L43.5855 18.4794L45.3564 17.55ZM123.056 165.6L121.286 166.529L123.06 169.911L124.829 166.526L123.056 165.6ZM200.406 17.55L202.179 18.4761L202.183 18.4685L202.187 18.4609L200.406 17.55ZM221.056 0.499987C218.504 0.499987 216.067 0.902444 213.759 1.71883L215.092 5.48994C216.948 4.8338 218.931 4.49999 221.056 4.49999V0.499987ZM202.337 10.6055C201.003 12.3939 199.768 14.4077 198.626 16.639L202.187 18.4609C203.241 16.4008 204.361 14.582 205.543 12.9967L202.337 10.6055ZM198.634 16.6238L195.411 22.7926L198.956 24.6449L202.179 18.4761L198.634 16.6238ZM188.965 35.1301L182.519 47.4676L186.065 49.3199L192.51 36.9824L188.965 35.1301ZM176.073 59.8051L169.628 72.1426L173.173 73.9949L179.619 61.6574L176.073 59.8051ZM163.182 84.4801L156.736 96.8176L160.281 98.6699L166.727 86.3324L163.182 84.4801ZM150.29 109.155L143.844 121.493L147.39 123.345L153.835 111.007L150.29 109.155ZM137.398 133.83L130.953 146.168L134.498 148.02L140.944 135.682L137.398 133.83ZM124.507 158.505L121.284 164.674L124.829 166.526L128.052 160.357L124.507 158.505ZM124.827 164.671L121.59 158.502L118.048 160.361L121.286 166.529L124.827 164.671ZM115.115 146.164L108.64 133.827L105.098 135.686L111.573 148.023L115.115 146.164ZM102.165 121.489L95.6899 109.152L92.148 111.011L98.623 123.348L102.165 121.489ZM89.2149 96.8143L82.7399 84.4768L79.198 86.3357L85.673 98.6732L89.2149 96.8143ZM76.2649 72.1393L69.7899 59.8018L66.248 61.6607L72.723 73.9982L76.2649 72.1393ZM63.3149 47.4643L56.8399 35.1268L53.298 36.9857L59.773 49.3232L63.3149 47.4643ZM50.3649 22.7893L47.1274 16.6206L43.5855 18.4794L46.823 24.6482L50.3649 22.7893ZM47.1369 16.639C45.9684 14.355 44.69 12.2984 43.2969 10.4777L40.1201 12.9083C41.3483 14.5135 42.5018 16.3616 43.576 18.4609L47.1369 16.639ZM31.4317 1.65164C29.0875 0.879577 26.6085 0.499987 24.0065 0.499987V4.49999C26.2146 4.49999 28.2687 4.82125 30.1805 5.45089L31.4317 1.65164ZM24.0065 0.499987C22.3873 0.499987 20.8281 0.621032 19.3313 0.867332L19.9808 4.81425C21.2454 4.60614 22.5865 4.49999 24.0065 4.49999V0.499987ZM10.4574 4.31526C9.13962 5.20341 7.92127 6.24208 6.80242 7.42674L9.71047 10.1732C10.634 9.19538 11.6281 8.34989 12.693 7.63224L10.4574 4.31526ZM6.80005 7.42926C5.69256 8.60597 4.73291 9.89524 3.92287 11.2946L7.38466 13.2985C8.04079 12.1651 8.81627 11.1233 9.71285 10.1707L6.80005 7.42926ZM0.958684 20.272C0.756138 21.751 0.656446 23.2943 0.656446 24.9H4.65645C4.65645 23.4594 4.74592 22.0983 4.92169 20.8147L0.958684 20.272ZM0.656446 24.9V32.3H4.65645V24.9H0.656446ZM0.656446 47.1V61.9H4.65645V47.1H0.656446ZM0.656446 76.7V91.5H4.65645V76.7H0.656446ZM0.656446 106.3V121.1H4.65645V106.3H0.656446ZM0.656446 135.9V150.7H4.65645V135.9H0.656446ZM0.656446 165.5V180.3H4.65645V165.5H0.656446ZM0.656446 195.1V209.9H4.65645V195.1H0.656446ZM0.656446 224.7V232.1H4.65645V224.7H0.656446ZM0.656446 232.1C0.656446 233.635 0.748013 235.109 0.934195 236.52L4.89982 235.996C4.73859 234.774 4.65645 233.476 4.65645 232.1H0.656446ZM3.70315 245.137C4.47274 246.493 5.38785 247.738 6.44737 248.868L9.36552 246.132C8.52449 245.235 7.79706 244.246 7.18212 243.163L3.70315 245.137ZM6.44737 248.868C7.471 249.96 8.59817 250.913 9.82796 251.724L12.0303 248.385C11.068 247.751 10.18 247.001 9.36552 246.132L6.44737 248.868ZM17.9964 254.785C19.3578 254.996 20.7786 255.1 22.2564 255.1V251.1C20.9654 251.1 19.751 251.009 18.6108 250.832L17.9964 254.785ZM22.2564 255.1C23.7343 255.1 25.1551 254.996 26.5165 254.785L25.9021 250.832C24.7619 251.009 23.5475 251.1 22.2564 251.1V255.1ZM34.6849 251.724C35.9147 250.913 37.0419 249.96 38.0655 248.868L35.1474 246.132C34.3329 247.001 33.4449 247.751 32.4826 248.385L34.6849 251.724ZM38.0628 248.871C39.1305 247.736 40.0627 246.511 40.8565 245.196L37.4318 243.129C36.7872 244.197 36.0275 245.197 35.15 246.129L38.0628 248.871ZM43.8844 236.583C44.1002 235.145 44.2065 233.649 44.2065 232.1H40.2065C40.2065 233.467 40.1127 234.763 39.9286 235.99L43.8844 236.583ZM44.2065 232.1V224.977H40.2065V232.1H44.2065ZM44.2065 210.732V196.487H40.2065V210.732H44.2065ZM44.2065 182.242V167.997H40.2065V182.242H44.2065ZM44.2065 153.752V139.507H40.2065V153.752H44.2065ZM44.2065 125.262V111.017H40.2065V125.262H44.2065ZM44.2065 96.7725V89.65H40.2065V96.7725H44.2065ZM40.4462 90.5995L44.1868 97.5339L47.7073 95.6348L43.9667 88.7005L40.4462 90.5995ZM51.6681 111.403L59.1493 125.271L62.6698 123.372L55.1886 109.504L51.6681 111.403ZM66.6306 139.14L74.1118 153.009L77.6323 151.11L70.1511 137.241L66.6306 139.14ZM81.5931 166.878L89.0743 180.746L92.5948 178.847L85.1136 164.979L81.5931 166.878ZM96.5556 194.615L100.296 201.55L103.817 199.65L100.076 192.716L96.5556 194.615ZM100.283 201.525C100.9 202.708 101.532 203.825 102.177 204.876L105.585 202.782C104.993 201.818 104.408 200.782 103.83 199.675L100.283 201.525ZM106.926 211.118C107.912 212.131 108.934 213.02 109.994 213.777L112.319 210.523C111.474 209.919 110.632 209.191 109.793 208.328L106.926 211.118ZM109.994 213.777C110.923 214.441 111.897 215.021 112.915 215.516L114.664 211.919C113.85 211.523 113.068 211.058 112.319 210.523L109.994 213.777ZM119.383 217.435C120.462 217.579 121.57 217.65 122.706 217.65V213.65C121.737 213.65 120.806 213.589 119.911 213.47L119.383 217.435ZM122.706 217.65C123.843 217.65 124.951 217.579 126.03 217.435L125.502 213.47C124.607 213.589 123.676 213.65 122.706 213.65V217.65ZM132.498 215.516C133.516 215.021 134.49 214.441 135.419 213.777L133.094 210.523C132.345 211.058 131.563 211.523 130.749 211.919L132.498 215.516ZM135.492 213.723C136.502 212.929 137.482 212.03 138.432 211.031L135.534 208.275C134.704 209.147 133.866 209.913 133.021 210.577L135.492 213.723ZM143.17 204.862C143.832 203.82 144.479 202.719 145.112 201.558L141.601 199.642C141.007 200.731 140.404 201.756 139.794 202.718L143.17 204.862ZM145.125 201.534L148.844 194.49L145.307 192.622L141.588 199.666L145.125 201.534ZM156.281 180.403L163.719 166.315L160.182 164.447L152.744 178.535L156.281 180.403ZM171.156 152.227L178.594 138.14L175.057 136.272L167.619 150.36L171.156 152.227ZM186.031 124.052L193.469 109.965L189.932 108.097L182.494 122.185L186.031 124.052ZM200.906 95.8775L204.625 88.8337L201.088 86.9662L197.369 94.01L200.906 95.8775ZM200.856 87.9V95.11H204.856V87.9H200.856ZM200.856 109.53V123.95H204.856V109.53H200.856ZM200.856 138.37V152.79H204.856V138.37H200.856ZM200.856 167.21V181.63H204.856V167.21H200.856ZM200.856 196.05V210.47H204.856V196.05H200.856ZM200.856 224.89V232.1H204.856V224.89H200.856ZM200.856 232.1C200.856 233.635 200.948 235.109 201.134 236.52L205.1 235.996C204.939 234.774 204.856 233.476 204.856 232.1H200.856ZM203.903 245.137C204.673 246.493 205.588 247.738 206.647 248.868L209.566 246.132C208.725 245.235 207.997 244.246 207.382 243.163L203.903 245.137ZM206.647 248.868C207.671 249.96 208.798 250.913 210.028 251.724L212.23 248.385C211.268 247.751 210.38 247.001 209.566 246.132L206.647 248.868ZM218.196 254.785C219.558 254.996 220.979 255.1 222.456 255.1V251.1C221.165 251.1 219.951 251.009 218.811 250.832L218.196 254.785ZM222.456 255.1C223.956 255.1 225.402 254.993 226.792 254.776L226.174 250.824C225.005 251.007 223.766 251.1 222.456 251.1V255.1ZM235.089 251.716C236.341 250.918 237.502 249.983 238.571 248.914L235.742 246.086C234.874 246.954 233.94 247.705 232.94 248.343L235.089 251.716ZM238.571 248.914C239.682 247.803 240.646 246.578 241.461 245.242L238.046 243.159C237.397 244.223 236.63 245.198 235.742 246.086L238.571 248.914ZM244.453 236.578C244.657 235.148 244.756 233.655 244.756 232.1H240.756C240.756 233.484 240.667 234.788 240.493 236.015L244.453 236.578ZM244.756 232.1V224.7H240.756V232.1H244.756ZM244.756 209.9V195.1H240.756V209.9H244.756ZM244.756 180.3V165.5H240.756V180.3H244.756ZM244.756 150.7V135.9H240.756V150.7H244.756ZM244.756 121.1V106.3H240.756V121.1H244.756ZM244.756 91.5V76.7H240.756V91.5H244.756ZM244.756 61.9V47.1H240.756V61.9H244.756ZM244.756 32.3V24.9H240.756V32.3H244.756ZM244.756 24.9C244.756 23.2741 244.648 21.7114 244.428 20.214L240.471 20.7957C240.66 22.0839 240.756 23.4512 240.756 24.9H244.756ZM241.241 11.1932C240.387 9.81352 239.379 8.54386 238.221 7.38578L235.392 10.2142C236.335 11.1572 237.15 12.1851 237.84 13.2994L241.241 11.1932ZM238.26 7.42674C237.142 6.24208 235.923 5.20341 234.605 4.31526L232.37 7.63224C233.435 8.34989 234.429 9.19538 235.352 10.1732L238.26 7.42674ZM225.732 0.867332C224.235 0.621032 222.676 0.499987 221.056 0.499987V4.49999C222.476 4.49999 223.817 4.60614 225.082 4.81425L225.732 0.867332Z" fill="black"/>
</svg>
