<svg width="166" height="183" viewBox="0 0 166 183" fill="none" xmlns="http://www.w3.org/2000/svg">
<path d="M102.282 2.64998C122.815 2.64998 138.099 8.48332 148.132 20.15C158.165 31.8167 163.182 49.4333 163.182 73V159.1C163.182 165.633 161.199 170.767 157.232 174.5C153.499 178.233 148.249 180.1 141.482 180.1C134.715 180.1 129.349 178.233 125.382 174.5C121.415 170.767 119.432 165.633 119.432 159.1V75.45C119.432 62.15 116.865 52.4667 111.732 46.4C106.832 40.3333 99.0152 37.3 88.2818 37.3C75.6818 37.3 65.5318 41.2667 57.8318 49.2C50.3652 57.1333 46.6318 67.75 46.6318 81.05V159.1C46.6318 165.633 44.6485 170.767 40.6818 174.5C36.7152 178.233 31.3485 180.1 24.5818 180.1C17.8152 180.1 12.4485 178.233 8.48184 174.5C4.7485 170.767 2.88184 165.633 2.88184 159.1V23.65C2.88184 17.5833 4.86517 12.6833 8.83184 8.95C12.7985 5.21666 18.1652 3.35 24.9318 3.35C30.9985 3.35 35.8985 5.21666 39.6318 8.95C43.5985 12.45 45.5818 17.1167 45.5818 22.95V32.4C51.4152 22.8333 59.2318 15.4833 69.0318 10.35C78.8318 5.21665 89.9152 2.64998 102.282 2.64998Z" fill="#F5F5F5"/>
<path d="M148.132 20.15L148.89 19.4979L148.89 19.4979L148.132 20.15ZM157.232 174.5L156.546 173.772L156.535 173.782L156.525 173.793L157.232 174.5ZM125.382 174.5L126.067 173.772L126.067 173.772L125.382 174.5ZM111.732 46.4L110.954 47.0283L110.961 47.0372L110.968 47.0459L111.732 46.4ZM57.8318 49.2L57.1143 48.5035L57.1089 48.509L57.1036 48.5146L57.8318 49.2ZM40.6818 174.5L39.9965 173.772L39.9965 173.772L40.6818 174.5ZM8.48184 174.5L7.77473 175.207L7.78544 175.218L7.79647 175.228L8.48184 174.5ZM8.83184 8.95L8.14647 8.2218L8.14647 8.2218L8.83184 8.95ZM39.6318 8.95L38.9247 9.6571L38.9468 9.67918L38.9702 9.69983L39.6318 8.95ZM45.5818 32.4H44.5818V35.9608L46.4356 32.9206L45.5818 32.4ZM69.0318 10.35L69.4958 11.2358L69.0318 10.35ZM102.282 1.64998C99.3086 1.64998 96.4064 1.7967 93.5753 2.09061L93.7818 4.07992C96.5412 3.79345 99.3744 3.64998 102.282 3.64998V1.64998ZM76.5691 5.93589C73.8149 6.9367 71.1477 8.11279 68.5678 9.46416L69.4958 11.2358C71.9961 9.92618 74.5814 8.78612 77.2522 7.81563L76.5691 5.93589ZM68.5678 9.46416C66.0902 10.762 63.7358 12.2001 61.5052 13.7787L62.6605 15.4112C64.8168 13.8852 67.0951 12.4934 69.4958 11.2358L68.5678 9.46416ZM49.4762 25.1049C47.77 27.2278 46.1873 29.4862 44.728 31.8794L46.4356 32.9206C47.8513 30.5988 49.3846 28.4114 51.0351 26.3578L49.4762 25.1049ZM46.5818 32.4V30.0375H44.5818V32.4H46.5818ZM46.5818 25.3125V22.95H44.5818V25.3125H46.5818ZM46.5818 22.95C46.5818 21.5295 46.4686 20.168 46.2398 18.8669L44.27 19.2134C44.4771 20.3907 44.5818 21.6357 44.5818 22.95H46.5818ZM43.0837 11.2606C42.2861 10.1569 41.3551 9.13687 40.2935 8.20016L38.9702 9.69983C39.926 10.5431 40.7558 11.454 41.4626 12.4321L43.0837 11.2606ZM40.3389 8.24289C39.3201 7.22401 38.2161 6.33491 37.0272 5.5774L35.9525 7.26411C37.0154 7.94138 38.0061 8.73843 38.9247 9.6571L40.3389 8.24289ZM29.1133 2.66231C27.7783 2.45347 26.3841 2.35 24.9318 2.35V4.35C26.2892 4.35 27.5796 4.44672 28.8042 4.63828L29.1133 2.66231ZM24.9318 2.35C23.3674 2.35 21.8697 2.44713 20.4395 2.64299L20.7109 4.62449C22.0433 4.44202 23.45 4.35 24.9318 4.35V2.35ZM11.8274 5.48186C10.4945 6.25343 9.26716 7.16703 8.14647 8.2218L9.5172 9.6782C10.5258 8.72889 11.6295 7.90737 12.8294 7.21276L11.8274 5.48186ZM8.14647 8.2218C7.08122 9.22438 6.1487 10.3105 5.35123 11.4802L7.00372 12.6068C7.71635 11.5615 8.5534 10.5853 9.5172 9.6782L8.14647 8.2218ZM2.22145 19.4172C1.99433 20.7681 1.88184 22.1795 1.88184 23.65H3.88184C3.88184 22.2814 3.98653 20.9815 4.19377 19.7488L2.22145 19.4172ZM1.88184 23.65V30.4225H3.88184V23.65H1.88184ZM1.88184 43.9675V57.5125H3.88184V43.9675H1.88184ZM1.88184 71.0575V84.6025H3.88184V71.0575H1.88184ZM1.88184 98.1475V111.692H3.88184V98.1475H1.88184ZM1.88184 125.237V138.782H3.88184V125.237H1.88184ZM1.88184 152.327V159.1H3.88184V152.327H1.88184ZM1.88184 159.1C1.88184 160.612 1.97903 162.058 2.17516 163.437L4.15523 163.156C3.97355 161.878 3.88184 160.527 3.88184 159.1H1.88184ZM5.03107 171.721C5.8045 172.99 6.71948 174.152 7.77473 175.207L9.18894 173.793C8.24529 172.849 7.42894 171.812 6.73859 170.68L5.03107 171.721ZM7.79647 175.228C8.91716 176.283 10.1445 177.197 11.4774 177.968L12.4794 176.237C11.2795 175.543 10.1758 174.721 9.1672 173.772L7.79647 175.228ZM20.0895 180.807C21.5197 181.003 23.0174 181.1 24.5818 181.1V179.1C23.1 179.1 21.6933 179.008 20.3609 178.826L20.0895 180.807ZM24.5818 181.1C26.1463 181.1 27.644 181.003 29.0742 180.807L28.8028 178.826C27.4704 179.008 26.0637 179.1 24.5818 179.1V181.1ZM37.6863 177.968C39.0191 177.197 40.2465 176.283 41.3672 175.228L39.9965 173.772C38.9878 174.721 37.8842 175.543 36.6843 176.237L37.6863 177.968ZM41.3672 175.228C42.4706 174.19 43.4306 173.046 44.2453 171.798L42.5706 170.705C41.8442 171.818 40.9868 172.84 39.9965 173.772L41.3672 175.228ZM47.3132 163.487C47.5263 162.093 47.6318 160.63 47.6318 159.1H45.6318C45.6318 160.538 45.5326 161.9 45.3362 163.185L47.3132 163.487ZM47.6318 159.1V152.596H45.6318V159.1H47.6318ZM47.6318 139.587V126.579H45.6318V139.587H47.6318ZM47.6318 113.571V100.562H45.6318V113.571H47.6318ZM47.6318 87.5542V81.05H45.6318V87.5542H47.6318ZM47.6318 81.05C47.6318 78.0784 47.8209 75.2488 48.1973 72.5603L46.2167 72.2829C45.8262 75.0711 45.6318 77.9938 45.6318 81.05H47.6318ZM53.5215 56.6182C54.9428 54.1886 56.6219 51.9446 58.56 49.8854L57.1036 48.5146C55.0627 50.6832 53.2928 53.0481 51.7952 55.6083L53.5215 56.6182ZM58.5494 49.8965C60.4899 47.8971 62.5872 46.159 64.8413 44.68L63.7441 43.0079C61.3637 44.5697 59.1537 46.4023 57.1143 48.5035L58.5494 49.8965ZM80.0635 38.9283C82.6671 38.5101 85.4062 38.3 88.2818 38.3V36.3C85.3089 36.3 82.4633 36.5172 79.7463 36.9536L80.0635 38.9283ZM88.2818 38.3C90.5399 38.3 92.6586 38.4366 94.6392 38.7079L94.9106 36.7264C92.83 36.4415 90.6199 36.3 88.2818 36.3V38.3ZM106.386 42.857C108.127 44.0227 109.649 45.4126 110.954 47.0283L112.51 45.7717C111.077 43.9981 109.406 42.472 107.499 41.1952L106.386 42.857ZM110.968 47.0459C112.455 48.8031 113.727 50.891 114.779 53.3202L116.614 52.5259C115.495 49.9401 114.124 47.6794 112.495 45.7541L110.968 47.0459ZM118.118 67.8822C118.327 70.2525 118.432 72.7749 118.432 75.45H120.432C120.432 72.7231 120.325 70.1417 120.11 67.7066L118.118 67.8822ZM118.432 75.45V82.4208H120.432V75.45H118.432ZM118.432 96.3625V110.304H120.432V96.3625H118.432ZM118.432 124.246V138.187H120.432V124.246H118.432ZM118.432 152.129V159.1H120.432V152.129H118.432ZM118.432 159.1C118.432 160.63 118.537 162.093 118.75 163.487L120.727 163.185C120.531 161.9 120.432 160.538 120.432 159.1H118.432ZM121.818 171.798C122.633 173.046 123.593 174.19 124.696 175.228L126.067 173.772C125.077 172.84 124.219 171.818 123.493 170.705L121.818 171.798ZM124.696 175.228C125.817 176.283 127.045 177.197 128.377 177.968L129.379 176.237C128.179 175.543 127.076 174.721 126.067 173.772L124.696 175.228ZM136.99 180.807C138.42 181.003 139.917 181.1 141.482 181.1V179.1C140 179.1 138.593 179.008 137.261 178.826L136.99 180.807ZM141.482 181.1C143.024 181.1 144.496 181.006 145.898 180.815L145.628 178.833C144.325 179.011 142.943 179.1 141.482 179.1V181.1ZM154.365 177.988C155.674 177.208 156.866 176.28 157.939 175.207L156.525 173.793C155.569 174.749 154.508 175.574 153.341 176.271L154.365 177.988ZM157.917 175.228C159.021 174.19 159.981 173.046 160.795 171.798L159.121 170.705C158.394 171.818 157.537 172.84 156.546 173.772L157.917 175.228ZM163.863 163.487C164.076 162.093 164.182 160.63 164.182 159.1H162.182C162.182 160.538 162.083 161.9 161.886 163.185L163.863 163.487ZM164.182 159.1V151.925H162.182V159.1H164.182ZM164.182 137.575V123.225H162.182V137.575H164.182ZM164.182 108.875V94.525H162.182V108.875H164.182ZM164.182 80.175V73H162.182V80.175H164.182ZM164.182 73C164.182 70.586 164.13 68.2329 164.025 65.9407L162.027 66.032C162.13 68.2922 162.182 70.6149 162.182 73H164.182ZM162.601 51.8779C161.788 46.9279 160.661 42.3386 159.216 38.1128L157.324 38.7597C158.728 42.868 159.83 47.3479 160.627 52.2019L162.601 51.8779ZM153.141 25.2476C151.84 23.1973 150.423 21.2805 148.89 19.4979L147.374 20.802C148.842 22.5089 150.201 24.3477 151.452 26.3192L153.141 25.2476ZM148.89 19.4979C147.474 17.8519 145.956 16.3189 144.335 14.8994L143.018 16.404C144.567 17.761 146.019 19.2269 147.374 20.802L148.89 19.4979ZM133.543 7.82424C129.823 6.04187 125.766 4.64818 121.376 3.63962L120.928 5.58885C125.188 6.56756 129.104 7.91508 132.678 9.62786L133.543 7.82424ZM108.681 1.84756C106.606 1.71577 104.472 1.64998 102.282 1.64998V3.64998C104.432 3.64998 106.523 3.71457 108.554 3.84354L108.681 1.84756ZM148.132 20.15L149.648 18.8459L149.648 18.8459L148.132 20.15ZM157.232 174.5L155.861 173.044L155.839 173.064L155.818 173.086L157.232 174.5ZM125.382 174.5L126.753 173.044L126.753 173.044L125.382 174.5ZM111.732 46.4L110.176 47.6567L110.19 47.6744L110.205 47.6919L111.732 46.4ZM57.8318 49.2L56.3967 47.807L56.386 47.8181L56.3754 47.8293L57.8318 49.2ZM40.6818 174.5L39.3111 173.044L39.3111 173.044L40.6818 174.5ZM8.48184 174.5L7.06762 175.914L7.08904 175.936L7.11111 175.956L8.48184 174.5ZM8.83184 8.95L7.46111 7.4936L7.46111 7.4936L8.83184 8.95ZM39.6318 8.95L38.2176 10.3642L38.2618 10.4084L38.3086 10.4497L39.6318 8.95ZM45.5818 32.4H43.5818V39.5217L47.2894 33.4412L45.5818 32.4ZM69.0318 10.35L69.9599 12.1217L69.0318 10.35ZM102.282 0.649984C99.2757 0.649984 96.3389 0.798327 93.472 1.09596L93.8851 5.07457C96.6086 4.79183 99.4074 4.64998 102.282 4.64998V0.649984ZM76.2276 4.99601C73.4317 6.01198 70.7235 7.2061 68.1038 8.57833L69.9599 12.1217C72.4202 10.8329 74.9646 9.71084 77.5937 8.7555L76.2276 4.99601ZM68.1038 8.57833C65.5878 9.89625 63.1953 11.3575 60.9275 12.9624L63.2382 16.2275C65.3573 14.7278 67.5975 13.3591 69.9599 12.1217L68.1038 8.57833ZM48.6968 24.4784C46.9627 26.636 45.3553 28.9298 43.8742 31.3588L47.2894 33.4412C48.6834 31.1552 50.1919 29.0032 51.8146 26.9843L48.6968 24.4784ZM47.5818 32.4V30.0375H43.5818V32.4H47.5818ZM47.5818 25.3125V22.95H43.5818V25.3125H47.5818ZM47.5818 22.95C47.5818 21.4764 47.4644 20.0566 47.2247 18.6937L43.2851 19.3866C43.4813 20.502 43.5818 21.6888 43.5818 22.95H47.5818ZM43.8942 10.6749C43.0512 9.50837 42.0696 8.43374 40.9551 7.45032L38.3086 10.4497C39.2114 11.2463 39.9907 12.1026 40.6521 13.0178L43.8942 10.6749ZM41.0461 7.53578C39.9771 6.4668 38.8164 5.53167 37.5646 4.73405L35.4151 8.10747C36.4151 8.74461 37.3491 9.49564 38.2176 10.3642L41.0461 7.53578ZM29.2678 1.67432C27.8777 1.45685 26.4316 1.35 24.9318 1.35V5.35C26.2418 5.35 27.4803 5.44334 28.6496 5.62626L29.2678 1.67432ZM24.9318 1.35C23.3261 1.35 21.7828 1.44969 20.3038 1.65223L20.8465 5.61524C22.1301 5.43947 23.4912 5.35 24.9318 5.35V1.35ZM11.3264 4.61641C9.92708 5.42646 8.63782 6.38611 7.46111 7.4936L10.2026 10.4064C11.1552 9.50982 12.197 8.73434 13.3304 8.07821L11.3264 4.61641ZM7.46111 7.4936C6.34514 8.54392 5.36487 9.68495 4.52498 10.9169L7.82997 13.1701C8.50017 12.1871 9.28948 11.2658 10.2026 10.4064L7.46111 7.4936ZM1.23529 19.2514C0.998231 20.6614 0.881838 22.1285 0.881838 23.65H4.88184C4.88184 22.3324 4.98263 21.0881 5.17993 19.9146L1.23529 19.2514ZM0.881838 23.65V30.4225H4.88184V23.65H0.881838ZM0.881838 43.9675V57.5125H4.88184V43.9675H0.881838ZM0.881838 71.0575V84.6025H4.88184V71.0575H0.881838ZM0.881838 98.1475V111.692H4.88184V98.1475H0.881838ZM0.881838 125.237V138.782H4.88184V125.237H0.881838ZM0.881838 152.327V159.1H4.88184V152.327H0.881838ZM0.881838 159.1C0.881838 160.655 0.981762 162.148 1.18513 163.578L5.14526 163.015C4.97082 161.788 4.88184 160.484 4.88184 159.1H0.881838ZM4.17731 172.242C4.99228 173.578 5.95658 174.803 7.06762 175.914L9.89605 173.086C9.00819 172.198 8.24116 171.223 7.59236 170.159L4.17731 172.242ZM7.11111 175.956C8.28782 177.064 9.57708 178.024 10.9764 178.834L12.9804 175.372C11.847 174.716 10.8052 173.94 9.85257 173.044L7.11111 175.956ZM19.9538 181.798C21.4328 182 22.9761 182.1 24.5818 182.1V178.1C23.1412 178.1 21.7801 178.011 20.4965 177.835L19.9538 181.798ZM24.5818 182.1C26.1875 182.1 27.7308 182 29.2098 181.798L28.6671 177.835C27.3836 178.011 26.0225 178.1 24.5818 178.1V182.1ZM38.1873 178.834C39.5866 178.024 40.8759 177.064 42.0526 175.956L39.3111 173.044C38.3585 173.94 37.3167 174.716 36.1833 175.372L38.1873 178.834ZM42.0526 175.956C43.2125 174.865 44.2238 173.661 45.0827 172.345L41.7333 170.158C41.051 171.203 40.2449 172.165 39.3111 173.044L42.0526 175.956ZM48.3018 163.638C48.5232 162.19 48.6318 160.676 48.6318 159.1H44.6318C44.6318 160.493 44.5358 161.803 44.3477 163.034L48.3018 163.638ZM48.6318 159.1V152.596H44.6318V159.1H48.6318ZM48.6318 139.587V126.579H44.6318V139.587H48.6318ZM48.6318 113.571V100.562H44.6318V113.571H48.6318ZM48.6318 87.5542V81.05H44.6318V87.5542H48.6318ZM48.6318 81.05C48.6318 78.1207 48.8182 75.3376 49.1877 72.6989L45.2263 72.1442C44.8289 74.9822 44.6318 77.9515 44.6318 81.05H48.6318ZM54.3847 57.1231C55.7677 54.7588 57.4015 52.5754 59.2882 50.5707L56.3754 47.8293C54.283 50.0524 52.4679 52.4778 50.932 55.1034L54.3847 57.1231ZM59.267 50.5929C61.1581 48.6446 63.1989 46.9537 65.3899 45.5161L63.1955 42.1718C60.752 43.775 58.4856 45.6548 56.3967 47.807L59.267 50.5929ZM80.2221 39.9157C82.7691 39.5066 85.4549 39.3 88.2818 39.3V35.3C85.2602 35.3 82.3614 35.5208 79.5877 35.9663L80.2221 39.9157ZM88.2818 39.3C90.4998 39.3 92.5729 39.4342 94.5036 39.6987L95.0463 35.7356C92.9157 35.4439 90.66 35.3 88.2818 35.3V39.3ZM105.83 43.688C107.488 44.7981 108.935 46.1198 110.176 47.6567L113.288 45.1433C111.792 43.2909 110.045 41.6966 108.056 40.3642L105.83 43.688ZM110.205 47.6919C111.621 49.3649 112.844 51.3665 113.861 53.7174L117.532 52.1288C116.379 49.4647 114.959 47.1175 113.259 45.1081L110.205 47.6919ZM117.122 67.9699C117.328 70.3078 117.432 72.8007 117.432 75.45H121.432C121.432 72.6972 121.324 70.0863 121.107 67.6188L117.122 67.9699ZM117.432 75.45V82.4208H121.432V75.45H117.432ZM117.432 96.3625V110.304H121.432V96.3625H117.432ZM117.432 124.246V138.187H121.432V124.246H117.432ZM117.432 152.129V159.1H121.432V152.129H117.432ZM117.432 159.1C117.432 160.676 117.541 162.19 117.762 163.638L121.716 163.034C121.528 161.803 121.432 160.493 121.432 159.1H117.432ZM120.981 172.345C121.84 173.661 122.851 174.865 124.011 175.956L126.753 173.044C125.819 172.165 125.013 171.203 124.33 170.158L120.981 172.345ZM124.011 175.956C125.188 177.064 126.477 178.024 127.876 178.834L129.88 175.372C128.747 174.716 127.705 173.94 126.753 173.044L124.011 175.956ZM136.854 181.798C138.333 182 139.876 182.1 141.482 182.1V178.1C140.041 178.1 138.68 178.011 137.397 177.835L136.854 181.798ZM141.482 182.1C143.065 182.1 144.582 182.003 146.032 181.806L145.493 177.842C144.239 178.013 142.902 178.1 141.482 178.1V182.1ZM154.878 178.847C156.257 178.024 157.514 177.046 158.646 175.914L155.818 173.086C154.921 173.983 153.925 174.758 152.828 175.412L154.878 178.847ZM158.603 175.956C159.762 174.865 160.774 173.661 161.633 172.345L158.283 170.158C157.601 171.203 156.795 172.165 155.861 173.044L158.603 175.956ZM164.852 163.638C165.073 162.19 165.182 160.676 165.182 159.1H161.182C161.182 160.493 161.086 161.803 160.898 163.034L164.852 163.638ZM165.182 159.1V151.925H161.182V159.1H165.182ZM165.182 137.575V123.225H161.182V137.575H165.182ZM165.182 108.875V94.525H161.182V108.875H165.182ZM165.182 80.175V73H161.182V80.175H165.182ZM165.182 73C165.182 70.5716 165.129 68.2032 165.024 65.895L161.028 66.0776C161.13 68.3219 161.182 70.6293 161.182 73H165.182ZM163.588 51.7159C162.767 46.7179 161.627 42.074 160.163 37.7893L156.378 39.0831C157.762 43.1327 158.851 47.5579 159.64 52.3639L163.588 51.7159ZM153.985 24.7117C152.659 22.6222 151.214 20.6664 149.648 18.8459L146.615 21.4541C148.051 23.1231 149.382 24.9228 150.608 26.855L153.985 24.7117ZM149.648 18.8459C148.202 17.1645 146.651 15.5979 144.994 14.1471L142.359 17.1563C143.872 18.482 145.291 19.9143 146.615 21.4541L149.648 18.8459ZM133.975 6.92243C130.183 5.10526 126.055 3.68849 121.599 2.665L120.704 6.56347C124.9 7.52724 128.745 8.85168 132.246 10.5297L133.975 6.92243ZM108.744 0.849565C106.647 0.71637 104.492 0.649984 102.282 0.649984V4.64998C104.412 4.64998 106.482 4.71397 108.491 4.84153L108.744 0.849565Z" fill="black"/>
</svg>
