<svg width="213" height="256" viewBox="0 0 213 256" fill="none" xmlns="http://www.w3.org/2000/svg">
<path d="M189.263 2.49999C195.796 2.49999 200.929 4.59999 204.663 8.79999C208.629 12.7667 210.613 18.1333 210.613 24.9V230.35C210.613 237.117 208.629 242.6 204.663 246.8C200.696 251 195.563 253.1 189.263 253.1C181.796 253.1 176.079 250.417 172.113 245.05L44.3627 78.8V230.35C44.3627 237.117 42.496 242.6 38.7627 246.8C35.0294 251 29.896 253.1 23.3627 253.1C16.8294 253.1 11.696 251 7.9627 246.8C4.22936 242.6 2.3627 237.117 2.3627 230.35V24.9C2.3627 18.1333 4.34603 12.7667 8.3127 8.79999C12.2794 4.59999 17.5294 2.49999 24.0627 2.49999C31.296 2.49999 36.896 5.18332 40.8627 10.55L168.263 176.1V24.9C168.263 18.1333 170.129 12.7667 173.863 8.79999C177.829 4.59999 182.963 2.49999 189.263 2.49999Z" fill="#F5F5F5"/>
<path d="M204.663 8.79999L203.915 9.46435L203.935 9.48632L203.956 9.50709L204.663 8.79999ZM204.663 246.8L205.39 247.487L205.39 247.487L204.663 246.8ZM172.113 245.05L172.917 244.456L172.911 244.448L172.906 244.441L172.113 245.05ZM44.3627 78.8L45.1556 78.1907L43.3627 75.8574V78.8H44.3627ZM38.7627 246.8L39.5101 247.464L39.5101 247.464L38.7627 246.8ZM7.9627 246.8L8.71011 246.136L8.71011 246.136L7.9627 246.8ZM8.3127 8.79999L9.0198 9.5071L9.0299 9.497L9.03971 9.48661L8.3127 8.79999ZM40.8627 10.55L40.0585 11.1444L40.0643 11.1522L40.0702 11.1599L40.8627 10.55ZM168.263 176.1L167.47 176.71L169.263 179.039V176.1H168.263ZM173.863 8.79999L173.136 8.11337L173.135 8.11462L173.863 8.79999ZM189.263 1.49999C187.723 1.49999 186.244 1.62109 184.827 1.86545L185.167 3.83637C186.463 3.61283 187.828 3.49999 189.263 3.49999V1.49999ZM176.538 5.18658C175.322 6.02314 174.188 6.99953 173.136 8.11337L174.59 9.48661C175.549 8.47083 176.576 7.58756 177.671 6.83442L176.538 5.18658ZM173.135 8.11462C172.08 9.23531 171.166 10.4627 170.395 11.7955L172.125 12.7975C172.82 11.5976 173.642 10.494 174.591 9.48535L173.135 8.11462ZM167.556 20.4077C167.36 21.8378 167.263 23.3356 167.263 24.9H169.263C169.263 23.4181 169.355 22.0114 169.537 20.679L167.556 20.4077ZM167.263 24.9V32.46H169.263V24.9H167.263ZM167.263 47.58V62.7H169.263V47.58H167.263ZM167.263 77.82V92.94H169.263V77.82H167.263ZM167.263 108.06V123.18H169.263V108.06H167.263ZM167.263 138.3V153.42H169.263V138.3H167.263ZM167.263 168.54V176.1H169.263V168.54H167.263ZM169.055 175.49L164.505 169.578L162.92 170.797L167.47 176.71L169.055 175.49ZM155.405 157.753L146.305 145.928L144.72 147.147L153.82 158.972L155.405 157.753ZM137.205 134.103L128.105 122.278L126.52 123.497L135.62 135.322L137.205 134.103ZM119.005 110.453L109.905 98.6276L108.32 99.8474L117.42 111.672L119.005 110.453ZM100.805 86.8026L91.7052 74.9776L90.1202 76.1974L99.2202 88.0224L100.805 86.8026ZM82.6052 63.1526L73.5052 51.3276L71.9202 52.5474L81.0202 64.3723L82.6052 63.1526ZM64.4052 39.5026L55.3052 27.6776L53.7202 28.8974L62.8202 40.7224L64.4052 39.5026ZM46.2052 15.8526L41.6552 9.94011L40.0702 11.1599L44.6202 17.0724L46.2052 15.8526ZM41.6669 9.9556C40.6267 8.54837 39.4739 7.311 38.207 6.24759L36.9212 7.77944C38.0595 8.735 39.1057 9.85529 40.0585 11.1444L41.6669 9.9556ZM29.074 1.96129C27.4884 1.65266 25.8173 1.49999 24.0627 1.49999V3.49999C25.7014 3.49999 27.2438 3.64257 28.6919 3.92445L29.074 1.96129ZM24.0627 1.49999C22.4933 1.49999 20.9887 1.61731 19.5499 1.85406L19.8747 3.82752C21.1974 3.60987 22.5929 3.49999 24.0627 3.49999V1.49999ZM11.0725 5.14451C9.818 5.99003 8.6557 6.9804 7.58568 8.11337L9.03971 9.48661C10.0121 8.45705 11.0623 7.56327 12.1903 6.803L11.0725 5.14451ZM7.60559 8.09288C6.50127 9.19721 5.54165 10.4064 4.72824 11.7197L6.42853 12.7728C7.15976 11.5922 8.02301 10.5039 9.0198 9.5071L7.60559 8.09288ZM1.68043 20.3594C1.46801 21.8045 1.3627 23.3184 1.3627 24.9H3.3627C3.3627 23.407 3.46212 21.9908 3.65917 20.6503L1.68043 20.3594ZM1.3627 24.9V32.2375H3.3627V24.9H1.3627ZM1.3627 46.9125V61.5875H3.3627V46.9125H1.3627ZM1.3627 76.2625V90.9375H3.3627V76.2625H1.3627ZM1.3627 105.612V120.287H3.3627V105.612H1.3627ZM1.3627 134.963V149.638H3.3627V134.963H1.3627ZM1.3627 164.313V178.988H3.3627V164.313H1.3627ZM1.3627 193.663V208.338H3.3627V193.663H1.3627ZM1.3627 223.013V230.35H3.3627V223.013H1.3627ZM1.3627 230.35C1.3627 231.936 1.46258 233.46 1.66382 234.92L3.64508 234.646C3.45732 233.284 3.3627 231.853 3.3627 230.35H1.3627ZM4.51469 243.678C5.27738 245.035 6.17787 246.297 7.21529 247.464L8.71011 246.136C7.76746 245.075 6.95043 243.93 6.25815 242.698L4.51469 243.678ZM7.21529 247.464C8.23699 248.614 9.36156 249.617 10.5889 250.472L11.7319 248.831C10.638 248.069 9.63076 247.171 8.71011 246.136L7.21529 247.464ZM18.9238 253.755C20.334 253.986 21.8141 254.1 23.3627 254.1V252.1C21.9122 252.1 20.5407 251.993 19.2468 251.781L18.9238 253.755ZM23.3627 254.1C24.9113 254.1 26.3914 253.986 27.8016 253.755L27.4786 251.781C26.1847 251.993 24.8132 252.1 23.3627 252.1V254.1ZM36.1365 250.472C37.3638 249.617 38.4884 248.614 39.5101 247.464L38.0153 246.136C37.0946 247.171 36.0874 248.069 34.9934 248.831L36.1365 250.472ZM39.5101 247.464C40.5475 246.297 41.448 245.035 42.2107 243.678L40.4672 242.698C39.775 243.93 38.9579 245.075 38.0153 246.136L39.5101 247.464ZM45.0616 234.92C45.2628 233.46 45.3627 231.936 45.3627 230.35H43.3627C43.3627 231.853 43.2681 233.284 43.0803 234.646L45.0616 234.92ZM45.3627 230.35V222.772H43.3627V230.35H45.3627ZM45.3627 207.617V192.462H43.3627V207.617H45.3627ZM45.3627 177.307V162.152H43.3627V177.307H45.3627ZM45.3627 146.997V131.843H43.3627V146.997H45.3627ZM45.3627 116.687V101.532H43.3627V116.687H45.3627ZM45.3627 86.3775V78.8H43.3627V86.3775H45.3627ZM43.5698 79.4093L48.1323 85.3468L49.7181 84.1282L45.1556 78.1907L43.5698 79.4093ZM57.2573 97.2218L66.3823 109.097L67.9681 107.878L58.8431 96.0032L57.2573 97.2218ZM75.5073 120.972L84.6323 132.847L86.2181 131.628L77.0931 119.753L75.5073 120.972ZM93.7573 144.722L102.882 156.597L104.468 155.378L95.3431 143.503L93.7573 144.722ZM112.007 168.472L121.132 180.347L122.718 179.128L113.593 167.253L112.007 168.472ZM130.257 192.222L139.382 204.097L140.968 202.878L131.843 191.003L130.257 192.222ZM148.507 215.972L157.632 227.847L159.218 226.628L150.093 214.753L148.507 215.972ZM166.757 239.722L171.32 245.659L172.906 244.441L168.343 238.503L166.757 239.722ZM171.309 245.644C172.365 247.073 173.544 248.327 174.849 249.401L176.12 247.857C174.95 246.893 173.881 245.761 172.917 244.456L171.309 245.644ZM184.175 253.652C185.782 253.952 187.479 254.1 189.263 254.1V252.1C187.59 252.1 186.017 251.961 184.542 251.686L184.175 253.652ZM189.263 254.1C190.802 254.1 192.281 253.979 193.698 253.735L193.359 251.764C192.062 251.987 190.697 252.1 189.263 252.1V254.1ZM201.987 250.413C203.204 249.577 204.338 248.6 205.39 247.487L203.936 246.113C202.976 247.129 201.949 248.012 200.854 248.766L201.987 250.413ZM205.39 247.487C206.477 246.335 207.424 245.09 208.228 243.751L206.514 242.721C205.785 243.934 204.926 245.065 203.936 246.113L205.39 247.487ZM211.286 234.967C211.505 233.492 211.613 231.953 211.613 230.35H209.613C209.613 231.863 209.511 233.304 209.308 234.674L211.286 234.967ZM211.613 230.35V223.012H209.613V230.35H211.613ZM211.613 208.337V193.662H209.613V208.337H211.613ZM211.613 178.987V164.312H209.613V178.987H211.613ZM211.613 149.637V134.962H209.613V149.637H211.613ZM211.613 120.287V105.612H209.613V120.287H211.613ZM211.613 90.9375V76.2625H209.613V90.9375H211.613ZM211.613 61.5875V46.9125H209.613V61.5875H211.613ZM211.613 32.2375V24.9H209.613V32.2375H211.613ZM211.613 24.9C211.613 23.3184 211.507 21.8045 211.295 20.3594L209.316 20.6503C209.513 21.9908 209.613 23.407 209.613 24.9H211.613ZM208.247 11.7197C207.434 10.4064 206.474 9.19721 205.37 8.09288L203.956 9.50709C204.952 10.5039 205.816 11.5922 206.547 12.7728L208.247 11.7197ZM205.41 8.13562C204.388 6.98621 203.264 5.98282 202.036 5.12801L200.893 6.7692C201.987 7.53109 202.995 8.42862 203.915 9.46435L205.41 8.13562ZM193.702 1.84501C192.291 1.61423 190.811 1.49999 189.263 1.49999V3.49999C190.713 3.49999 192.085 3.607 193.379 3.81875L193.702 1.84501ZM204.663 8.79999L203.168 10.1287L203.207 10.1726L203.248 10.2142L204.663 8.79999ZM204.663 246.8L206.117 248.173L206.117 248.173L204.663 246.8ZM172.113 245.05L173.721 243.861L173.71 243.846L173.699 243.831L172.113 245.05ZM44.3627 78.8L45.9486 77.5814L42.3627 72.9148V78.8H44.3627ZM38.7627 246.8L40.2575 248.129L40.2575 248.129L38.7627 246.8ZM7.9627 246.8L9.45752 245.471L9.45752 245.471L7.9627 246.8ZM8.3127 8.79999L9.72691 10.2142L9.74711 10.194L9.76672 10.1732L8.3127 8.79999ZM40.8627 10.55L39.2543 11.7388L39.2659 11.7544L39.2777 11.7697L40.8627 10.55ZM168.263 176.1L166.678 177.32L170.263 181.978V176.1H168.263ZM173.863 8.79999L172.409 7.42674L172.406 7.42926L173.863 8.79999ZM189.263 0.499987C187.671 0.499987 186.135 0.625225 184.657 0.879992L185.337 4.82183C186.573 4.6087 187.881 4.49999 189.263 4.49999V0.499987ZM175.971 4.36265C174.694 5.24092 173.507 6.26387 172.409 7.42674L175.317 10.1732C176.23 9.20649 177.204 8.36978 178.238 7.65834L175.971 4.36265ZM172.406 7.42926C171.299 8.60597 170.339 9.89523 169.529 11.2945L172.991 13.2985C173.647 12.1651 174.423 11.1233 175.319 10.1707L172.406 7.42926ZM166.565 20.272C166.362 21.751 166.263 23.2943 166.263 24.9H170.263C170.263 23.4594 170.352 22.0982 170.528 20.8147L166.565 20.272ZM166.263 24.9V32.46H170.263V24.9H166.263ZM166.263 47.58V62.7H170.263V47.58H166.263ZM166.263 77.82V92.94H170.263V77.82H166.263ZM166.263 108.06V123.18H170.263V108.06H166.263ZM166.263 138.3V153.42H170.263V138.3H166.263ZM166.263 168.54V176.1H170.263V168.54H166.263ZM169.848 174.88L165.298 168.968L162.128 171.407L166.678 177.32L169.848 174.88ZM156.198 157.143L147.098 145.318L143.928 147.757L153.028 159.582L156.198 157.143ZM137.998 133.493L128.898 121.668L125.728 124.107L134.828 135.932L137.998 133.493ZM119.798 109.843L110.698 98.0177L107.528 100.457L116.628 112.282L119.798 109.843ZM101.598 86.1927L92.4977 74.3677L89.3277 76.8072L98.4277 88.6322L101.598 86.1927ZM83.3977 62.5427L74.2977 50.7177L71.1277 53.1572L80.2277 64.9822L83.3977 62.5427ZM65.1977 38.8927L56.0977 27.0677L52.9277 29.5072L62.0277 41.3322L65.1977 38.8927ZM46.9977 15.2427L42.4477 9.33024L39.2777 11.7697L43.8277 17.6822L46.9977 15.2427ZM42.471 9.36121C41.3873 7.89491 40.181 6.599 38.8499 5.48166L36.2782 8.54537C37.3524 9.44701 38.3452 10.5087 39.2543 11.7388L42.471 9.36121ZM29.2651 0.979713C27.6108 0.657704 25.8752 0.499987 24.0627 0.499987V4.49999C25.6434 4.49999 27.1214 4.63753 28.5009 4.90603L29.2651 0.979713ZM24.0627 0.499987C22.4435 0.499987 20.8843 0.621032 19.3876 0.867332L20.037 4.81425C21.3017 4.60614 22.6427 4.49999 24.0627 4.49999V0.499987ZM10.5137 4.31526C9.19587 5.20341 7.97752 6.24208 6.85867 7.42674L9.76672 10.1732C10.6903 9.19538 11.6844 8.34989 12.7492 7.63224L10.5137 4.31526ZM6.89848 7.38578C5.74039 8.54387 4.73259 9.81352 3.87809 11.1932L7.27867 13.2994C7.96881 12.1851 8.78389 11.1572 9.72691 10.2142L6.89848 7.38578ZM0.691064 20.214C0.470949 21.7114 0.362697 23.2741 0.362697 24.9H4.3627C4.3627 23.4512 4.45918 22.0839 4.64854 20.7957L0.691064 20.214ZM0.362697 24.9V32.2375H4.3627V24.9H0.362697ZM0.362697 46.9125V61.5875H4.3627V46.9125H0.362697ZM0.362697 76.2625V90.9375H4.3627V76.2625H0.362697ZM0.362697 105.612V120.287H4.3627V105.612H0.362697ZM0.362697 134.963V149.638H4.3627V134.963H0.362697ZM0.362697 164.313V178.988H4.3627V164.313H0.362697ZM0.362697 193.663V208.338H4.3627V193.663H0.362697ZM0.362697 223.013V230.35H4.3627V223.013H0.362697ZM0.362697 230.35C0.362697 231.978 0.465215 233.548 0.673193 235.056L4.63571 234.51C4.45468 233.197 4.3627 231.811 4.3627 230.35H0.362697ZM3.64295 244.168C4.44086 245.587 5.38307 246.908 6.46788 248.129L9.45752 245.471C8.56226 244.464 7.78695 243.377 7.12989 242.208L3.64295 244.168ZM6.46788 248.129C7.5401 249.335 8.72334 250.391 10.0174 251.293L12.3035 248.01C11.2762 247.295 10.3276 246.45 9.45752 245.471L6.46788 248.129ZM18.7623 254.742C20.2306 254.982 21.765 255.1 23.3627 255.1V251.1C21.9613 251.1 20.6441 250.997 19.4083 250.794L18.7623 254.742ZM23.3627 255.1C24.9604 255.1 26.4948 254.982 27.9631 254.742L27.3171 250.794C26.0813 250.997 24.7641 251.1 23.3627 251.1V255.1ZM36.708 251.293C38.0021 250.391 39.1853 249.335 40.2575 248.129L37.2679 245.471C36.3978 246.45 35.4492 247.295 34.4219 248.01L36.708 251.293ZM40.2575 248.129C41.3423 246.908 42.2845 245.587 43.0824 244.168L39.5955 242.208C38.9384 243.377 38.1631 244.464 37.2679 245.471L40.2575 248.129ZM46.0522 235.056C46.2602 233.548 46.3627 231.978 46.3627 230.35H42.3627C42.3627 231.811 42.2707 233.197 42.0897 234.51L46.0522 235.056ZM46.3627 230.35V222.772H42.3627V230.35H46.3627ZM46.3627 207.617V192.462H42.3627V207.617H46.3627ZM46.3627 177.307V162.152H42.3627V177.307H46.3627ZM46.3627 146.997V131.843H42.3627V146.997H46.3627ZM46.3627 116.687V101.532H42.3627V116.687H46.3627ZM46.3627 86.3775V78.8H42.3627V86.3775H46.3627ZM42.7768 80.0186L47.3393 85.9561L50.5111 83.5189L45.9486 77.5814L42.7768 80.0186ZM56.4643 97.8311L65.5893 109.706L68.7611 107.269L59.6361 95.3939L56.4643 97.8311ZM74.7143 121.581L83.8393 133.456L87.0111 131.019L77.8861 119.144L74.7143 121.581ZM92.9643 145.331L102.089 157.206L105.261 154.769L96.1361 142.894L92.9643 145.331ZM111.214 169.081L120.339 180.956L123.511 178.519L114.386 166.644L111.214 169.081ZM129.464 192.831L138.589 204.706L141.761 202.269L132.636 190.394L129.464 192.831ZM147.714 216.581L156.839 228.456L160.011 226.019L150.886 214.144L147.714 216.581ZM165.964 240.331L170.527 246.269L173.699 243.831L169.136 237.894L165.964 240.331ZM170.504 246.239C171.606 247.73 172.842 249.044 174.213 250.173L176.756 247.085C175.652 246.176 174.64 245.104 173.721 243.861L170.504 246.239ZM183.992 254.635C185.665 254.947 187.424 255.1 189.263 255.1V251.1C187.645 251.1 186.134 250.965 184.726 250.703L183.992 254.635ZM189.263 255.1C190.855 255.1 192.391 254.975 193.868 254.72L193.189 250.778C191.952 250.991 190.645 251.1 189.263 251.1V255.1ZM202.554 251.237C203.831 250.359 205.018 249.336 206.117 248.173L203.209 245.427C202.296 246.393 201.322 247.23 200.287 247.942L202.554 251.237ZM206.117 248.173C207.253 246.97 208.243 245.668 209.085 244.266L205.657 242.206C204.965 243.357 204.15 244.43 203.209 245.427L206.117 248.173ZM212.276 235.113C212.501 233.586 212.613 231.998 212.613 230.35H208.613C208.613 231.818 208.514 233.21 208.319 234.528L212.276 235.113ZM212.613 230.35V223.012H208.613V230.35H212.613ZM212.613 208.337V193.662H208.613V208.337H212.613ZM212.613 178.987V164.312H208.613V178.987H212.613ZM212.613 149.637V134.962H208.613V149.637H212.613ZM212.613 120.287V105.612H208.613V120.287H212.613ZM212.613 90.9375V76.2625H208.613V90.9375H212.613ZM212.613 61.5875V46.9125H208.613V61.5875H212.613ZM212.613 32.2375V24.9H208.613V32.2375H212.613ZM212.613 24.9C212.613 23.2741 212.504 21.7114 212.284 20.214L208.327 20.7957C208.516 22.0839 208.613 23.4512 208.613 24.9H212.613ZM209.097 11.1932C208.243 9.81353 207.235 8.54387 206.077 7.38578L203.248 10.2142C204.192 11.1572 205.007 12.1851 205.697 13.2994L209.097 11.1932ZM206.158 7.47126C205.085 6.26501 203.902 5.20869 202.608 4.30742L200.322 7.58979C201.349 8.30522 202.298 9.14983 203.168 10.1287L206.158 7.47126ZM193.863 0.858135C192.395 0.617849 190.86 0.499987 189.263 0.499987V4.49999C190.664 4.49999 191.981 4.60339 193.217 4.80562L193.863 0.858135Z" fill="black"/>
</svg>
