<svg width="179" height="183" viewBox="0 0 179 183" fill="none" xmlns="http://www.w3.org/2000/svg">
<path d="M89.6408 180.8C72.1408 180.8 56.7408 177.183 43.4408 169.95C30.3742 162.717 20.2242 152.333 12.9908 138.8C5.75749 125.267 2.14082 109.517 2.14082 91.55C2.14082 73.5833 5.75749 57.95 12.9908 44.65C20.2242 31.1167 30.3742 20.7333 43.4408 13.5C56.7408 6.26665 72.1408 2.64998 89.6408 2.64998C107.141 2.64998 122.424 6.26665 135.491 13.5C148.791 20.7333 158.941 31.1167 165.941 44.65C173.174 57.95 176.791 73.5833 176.791 91.55C176.791 109.517 173.174 125.267 165.941 138.8C158.941 152.333 148.791 162.717 135.491 169.95C122.424 177.183 107.141 180.8 89.6408 180.8ZM89.2908 146.85C103.524 146.85 114.374 142.183 121.841 132.85C129.307 123.517 133.041 109.75 133.041 91.55C133.041 73.5833 129.307 59.9333 121.841 50.6C114.374 41.0333 103.641 36.25 89.6408 36.25C75.6408 36.25 64.7908 41.0333 57.0908 50.6C49.6242 59.9333 45.8908 73.5833 45.8908 91.55C45.8908 109.75 49.6242 123.517 57.0908 132.85C64.5575 142.183 75.2908 146.85 89.2908 146.85Z" fill="#F5F5F5"/>
<path d="M43.4408 169.95L42.9565 170.825L42.963 170.828L43.4408 169.95ZM12.9908 138.8L13.8728 138.329L13.8728 138.329L12.9908 138.8ZM12.9908 44.65L13.8693 45.1278L13.8728 45.1214L12.9908 44.65ZM43.4408 13.5L42.963 12.6215L42.9565 12.6251L43.4408 13.5ZM135.491 13.5L135.007 14.3749L135.013 14.3785L135.491 13.5ZM165.941 44.65L165.053 45.1094L165.057 45.1186L165.062 45.1278L165.941 44.65ZM165.941 138.8L165.059 138.329L165.053 138.341L165.941 138.8ZM135.491 169.95L135.013 169.071L135.007 169.075L135.491 169.95ZM121.841 132.85L121.06 132.225L121.841 132.85ZM121.841 50.6L121.052 51.2153L121.06 51.2247L121.841 50.6ZM57.0908 50.6L56.3118 49.973L56.31 49.9753L57.0908 50.6ZM89.6408 179.8C87.6307 179.8 85.6492 179.752 83.6962 179.656L83.5979 181.653C85.5845 181.751 87.5988 181.8 89.6408 181.8V179.8ZM71.886 178.434C67.8968 177.791 64.042 176.922 60.3211 175.827L59.7564 177.745C63.5614 178.865 67.4987 179.753 71.5679 180.409L71.886 178.434ZM49.2194 171.71C47.4163 170.892 45.6494 170.013 43.9186 169.072L42.963 170.828C44.7365 171.793 46.5467 172.694 48.3936 173.531L49.2194 171.71ZM43.9251 169.075C40.6992 167.289 37.655 165.31 34.792 163.138L33.583 164.731C36.5242 166.963 39.6489 168.994 42.9565 170.825L43.9251 169.075ZM19.6363 147.585C17.5439 144.688 15.6226 141.603 13.8728 138.329L12.1089 139.271C13.8995 142.622 15.8681 145.783 18.015 148.756L19.6363 147.585ZM13.8728 138.329C12.9253 136.556 12.0405 134.745 11.2184 132.894L9.39073 133.706C10.2324 135.601 11.1384 137.456 12.1089 139.271L13.8728 138.329ZM7.09454 121.523C6.00258 117.721 5.13634 113.778 4.4964 109.693L2.5205 110.003C3.17271 114.166 4.05644 118.19 5.17226 122.075L7.09454 121.523ZM3.28368 97.6235C3.18846 95.6288 3.14082 93.6044 3.14082 91.55H1.14082C1.14082 93.6353 1.18918 95.6916 1.28596 97.7189L3.28368 97.6235ZM3.14082 91.55C3.14082 89.5081 3.18789 87.4972 3.28195 85.5174L1.28421 85.4225C1.1886 87.4348 1.14082 89.4774 1.14082 91.55H3.14082ZM4.48399 73.5298C5.12075 69.4654 5.98359 65.5503 7.07188 61.7838L5.15047 61.2286C4.03781 65.0795 3.15723 69.0769 2.50809 73.2203L4.48399 73.5298ZM11.2015 50.5066C12.0274 48.6724 12.9166 46.8794 13.8693 45.1278L12.1123 44.1722C11.1356 45.9682 10.2241 47.806 9.37782 49.6855L11.2015 50.5066ZM13.8728 45.1214C15.6226 41.8474 17.5439 38.7623 19.6363 35.8653L18.015 34.6943C15.8681 37.6667 13.8995 40.8284 12.1089 44.1786L13.8728 45.1214ZM34.792 20.3124C37.655 18.1399 40.6992 16.1607 43.9251 14.3749L42.9565 12.6251C39.6489 14.4561 36.5242 16.4874 33.583 18.7191L34.792 20.3124ZM43.9186 14.3785C45.6494 13.4372 47.4163 12.5578 49.2194 11.7403L48.3936 9.9188C46.5467 10.7561 44.7365 11.657 42.963 12.6215L43.9186 14.3785ZM60.3211 7.62336C64.042 6.52801 67.8968 5.65868 71.886 5.01593L71.5679 3.04139C67.4987 3.69703 63.5614 4.58464 59.7564 5.70477L60.3211 7.62336ZM83.6962 3.79421C85.6492 3.69808 87.6307 3.64998 89.6408 3.64998V1.64998C87.5988 1.64998 85.5845 1.69884 83.5979 1.79663L83.6962 3.79421ZM89.6408 3.64998C91.6386 3.64998 93.6065 3.69749 95.5447 3.79243L95.6425 1.79483C93.6708 1.69824 91.6703 1.64998 89.6408 1.64998V3.64998ZM107.273 5.00327C111.242 5.64282 115.068 6.50874 118.754 7.60043L119.322 5.6828C115.551 4.56577 111.64 3.68129 107.591 3.02875L107.273 5.00327ZM129.761 11.7233C131.548 12.5445 133.297 13.4284 135.007 14.3749L135.975 12.6251C134.221 11.6543 132.429 10.7479 130.596 9.90601L129.761 11.7233ZM135.013 14.3785C138.267 16.1483 141.328 18.108 144.197 20.2571L145.396 18.6564C142.448 16.4476 139.305 14.436 135.969 12.6215L135.013 14.3785ZM159.376 35.7964C161.456 38.7098 163.348 41.8139 165.053 45.1094L166.829 44.1906C165.082 40.8135 163.14 37.6278 161.003 34.6343L159.376 35.7964ZM165.062 45.1278C166.015 46.8794 166.904 48.6724 167.73 50.5066L169.554 49.6855C168.708 47.806 167.796 45.9682 166.819 44.1722L165.062 45.1278ZM171.86 61.7838C172.948 65.5503 173.811 69.4654 174.448 73.5298L176.424 73.2203C175.774 69.0769 174.894 65.0795 173.781 61.2286L171.86 61.7838ZM175.65 85.5174C175.744 87.4972 175.791 89.5081 175.791 91.55H177.791C177.791 89.4774 177.743 87.4348 177.647 85.4225L175.65 85.5174ZM175.791 91.55C175.791 93.6044 175.743 95.6288 175.648 97.6235L177.646 97.7189C177.742 95.6916 177.791 93.6353 177.791 91.55H175.791ZM174.435 109.693C173.795 113.778 172.929 117.721 171.837 121.523L173.759 122.075C174.875 118.19 175.759 114.166 176.411 110.003L174.435 109.693ZM167.713 132.894C166.891 134.745 166.006 136.556 165.059 138.329L166.823 139.271C167.793 137.456 168.699 135.601 169.541 133.706L167.713 132.894ZM165.053 138.341C163.348 141.636 161.456 144.74 159.376 147.654L161.003 148.816C163.14 145.822 165.082 142.637 166.829 139.259L165.053 138.341ZM144.197 163.193C141.328 165.342 138.267 167.302 135.013 169.072L135.969 170.828C139.305 169.014 142.448 167.002 145.396 164.794L144.197 163.193ZM135.007 169.075C133.297 170.022 131.548 170.905 129.761 171.727L130.596 173.544C132.429 172.702 134.221 171.796 135.975 170.825L135.007 169.075ZM118.754 175.85C115.068 176.941 111.242 177.807 107.273 178.447L107.591 180.421C111.64 179.769 115.551 178.884 119.322 177.767L118.754 175.85ZM95.5447 179.658C93.6065 179.752 91.6386 179.8 89.6408 179.8V181.8C91.6703 181.8 93.6708 181.752 95.6425 181.655L95.5447 179.658ZM89.2908 145.85C86.1506 145.85 83.1859 145.611 80.3952 145.137L80.06 147.109C82.9721 147.604 86.0496 147.85 89.2908 147.85V145.85ZM64.1886 138.392C61.8713 136.647 59.7656 134.593 57.8717 132.225L56.31 133.475C58.304 135.967 60.5291 138.14 62.9855 139.99L64.1886 138.392ZM57.8717 132.225C55.7478 129.57 53.9277 126.539 52.4149 123.125L50.5864 123.935C52.1626 127.492 54.0693 130.674 56.31 133.475L57.8717 132.225ZM47.3808 102.341C47.0545 98.9427 46.8908 95.346 46.8908 91.55H44.8908C44.8908 95.4031 45.0569 99.064 45.39 102.532L47.3808 102.341ZM46.8908 91.55C46.8908 87.7865 47.0559 84.219 47.3851 80.8466L45.3946 80.6523C45.0584 84.0957 44.8908 87.7284 44.8908 91.55H46.8908ZM52.4376 60.2443C53.9456 56.8716 55.758 53.8668 57.8717 51.2247L56.31 49.9753C54.0816 52.7607 52.1832 55.9133 50.6118 59.4279L52.4376 60.2443ZM57.8698 51.227C59.8033 48.8248 61.9361 46.7368 64.2679 44.9596L63.0555 43.369C60.5894 45.2486 58.3417 47.4511 56.3118 49.973L57.8698 51.227ZM80.6358 37.9972C83.4654 37.5 86.4665 37.25 89.6408 37.25V35.25C86.3617 35.25 83.2441 35.5082 80.2896 36.0274L80.6358 37.9972ZM89.6408 37.25C92.7961 37.25 95.7738 37.497 98.5758 37.9881L98.9211 36.0182C95.9942 35.5051 92.9002 35.25 89.6408 35.25V37.25ZM114.783 44.9306C117.081 46.711 119.171 48.8047 121.053 51.2153L122.629 49.9847C120.65 47.4494 118.444 45.2365 116.008 43.3496L114.783 44.9306ZM121.06 51.2247C123.174 53.8668 124.986 56.8716 126.494 60.2443L128.32 59.4279C126.748 55.9133 124.85 52.7607 122.622 49.9753L121.06 51.2247ZM131.547 80.8467C131.876 84.219 132.041 87.7865 132.041 91.55H134.041C134.041 87.7284 133.873 84.0957 133.537 80.6523L131.547 80.8467ZM132.041 91.55C132.041 95.346 131.877 98.9427 131.551 102.341L133.542 102.532C133.875 99.064 134.041 95.4031 134.041 91.55H132.041ZM126.517 123.125C125.004 126.539 123.184 129.57 121.06 132.225L122.622 133.475C124.862 130.674 126.769 127.492 128.345 123.935L126.517 123.125ZM121.06 132.225C119.153 134.609 117.024 136.675 114.671 138.428L115.866 140.032C118.361 138.173 120.612 135.986 122.622 133.475L121.06 132.225ZM98.2738 145.146C95.4577 145.614 92.464 145.85 89.2908 145.85V147.85C92.5626 147.85 95.6668 147.607 98.602 147.119L98.2738 145.146ZM43.4408 169.95L42.4722 171.7L42.4787 171.703L42.4853 171.707L43.4408 169.95ZM12.9908 138.8L14.7547 137.857L14.7547 137.857L12.9908 138.8ZM12.9908 44.65L14.7478 45.6055L14.7513 45.5992L14.7547 45.5928L12.9908 44.65ZM43.4408 13.5L42.4853 11.743L42.4787 11.7466L42.4722 11.7502L43.4408 13.5ZM135.491 13.5L134.522 15.2498L134.529 15.2534L134.535 15.257L135.491 13.5ZM165.941 44.65L164.164 45.5688L164.174 45.5873L164.184 45.6055L165.941 44.65ZM165.941 138.8L164.177 137.857L164.171 137.869L164.164 137.881L165.941 138.8ZM135.491 169.95L134.535 168.193L134.529 168.197L134.522 168.2L135.491 169.95ZM121.841 132.85L120.279 131.601L121.841 132.85ZM121.841 50.6L120.264 51.8305L120.272 51.84L120.279 51.8494L121.841 50.6ZM57.0908 50.6L55.5328 49.346L55.5291 49.3506L57.0908 50.6ZM89.6408 178.8C87.6467 178.8 85.6815 178.752 83.7454 178.657L83.5487 182.652C85.5521 182.751 87.5829 182.8 89.6408 182.8V178.8ZM72.0451 177.447C68.0959 176.81 64.2823 175.95 60.6035 174.867L59.474 178.705C63.321 179.837 67.2996 180.734 71.4088 181.396L72.0451 177.447ZM49.6323 170.799C47.8511 169.991 46.1058 169.123 44.3964 168.193L42.4853 171.707C44.28 172.683 46.1119 173.595 47.9807 174.442L49.6323 170.799ZM44.4095 168.2C41.2244 166.437 38.2205 164.484 35.3964 162.341L32.9785 165.527C35.9588 167.789 39.1238 169.846 42.4722 171.7L44.4095 168.2ZM20.447 146.999C18.3818 144.14 16.4842 141.093 14.7547 137.857L11.227 139.743C13.038 143.131 15.0302 146.331 17.2043 149.341L20.447 146.999ZM14.7547 137.857C13.8187 136.106 12.9446 134.316 12.1323 132.488L8.47688 134.113C9.32828 136.029 10.245 137.905 11.227 139.743L14.7547 137.857ZM8.05569 121.247C6.97565 117.487 6.11816 113.584 5.48435 109.539L1.53255 110.158C2.1909 114.36 3.08337 118.425 4.21111 122.351L8.05569 121.247ZM4.28254 97.5758C4.1881 95.5975 4.14082 93.5889 4.14082 91.55H0.140821C0.140821 93.6507 0.189537 95.7229 0.287094 97.7665L4.28254 97.5758ZM4.14082 91.55C4.14082 89.5234 4.18753 87.5284 4.28083 85.5648L0.285335 85.375C0.188949 87.4036 0.140821 89.462 0.140821 91.55H4.14082ZM5.47194 73.6846C6.10251 69.6597 6.95648 65.7857 8.03258 62.0614L4.18977 60.951C3.06491 64.8441 2.17547 68.8826 1.52015 73.0655L5.47194 73.6846ZM12.1133 50.9172C12.929 49.1055 13.8072 47.3351 14.7478 45.6055L11.2339 43.6945C10.245 45.5126 9.32241 47.3728 8.46599 49.2749L12.1133 50.9172ZM14.7547 45.5928C16.4842 42.3569 18.3818 39.3101 20.447 36.4508L17.2043 34.1087C15.0302 37.1189 13.038 40.3189 11.227 43.7072L14.7547 45.5928ZM35.3964 21.109C38.2205 18.9662 41.2244 17.0129 44.4095 15.2498L42.4722 11.7502C39.1238 13.6038 35.9588 15.6611 32.9785 17.9225L35.3964 21.109ZM44.3964 15.257C46.1058 14.3272 47.8511 13.4586 49.6323 12.6511L47.9807 9.00802C46.1119 9.85525 44.28 10.7669 42.4853 11.743L44.3964 15.257ZM60.6035 8.58266C64.2823 7.49969 68.0959 6.63951 72.0451 6.0032L71.4088 2.05413C67.2996 2.71621 63.321 3.61296 59.474 4.74547L60.6035 8.58266ZM83.7454 4.793C85.6815 4.6977 87.6467 4.64998 89.6408 4.64998V0.649984C87.5829 0.649984 85.5521 0.699225 83.5487 0.797836L83.7454 4.793ZM89.6408 4.64998C91.6227 4.64998 93.5743 4.69711 95.4957 4.79124L95.6914 0.796027C93.703 0.69862 91.6861 0.649984 89.6408 0.649984V4.64998ZM107.114 5.99054C111.042 6.62358 114.827 7.48022 118.47 8.55925L119.606 4.72398C115.792 3.59429 111.84 2.70053 107.75 2.04148L107.114 5.99054ZM129.344 12.632C131.108 13.4428 132.834 14.3155 134.522 15.2498L136.459 11.7502C134.684 10.7673 132.869 9.84965 131.014 8.99736L129.344 12.632ZM134.535 15.257C137.748 17.0045 140.769 18.9382 143.598 21.0574L145.996 17.8561C143.008 15.6174 139.824 13.5799 136.446 11.743L134.535 15.257ZM158.562 36.3775C160.613 39.2508 162.481 42.3141 164.164 45.5688L167.717 43.7311C165.949 40.3133 163.983 37.0868 161.817 34.0533L158.562 36.3775ZM164.184 45.6055C165.124 47.3351 166.003 49.1055 166.818 50.9172L170.466 49.2749C169.609 47.3728 168.687 45.5126 167.698 43.6945L164.184 45.6055ZM170.899 62.0614C171.975 65.7857 172.829 69.6597 173.46 73.6846L177.411 73.0655C176.756 68.8826 175.867 64.8441 174.742 60.951L170.899 62.0614ZM174.651 85.5648C174.744 87.5284 174.791 89.5234 174.791 91.55H178.791C178.791 89.462 178.743 87.4036 178.646 85.375L174.651 85.5648ZM174.791 91.55C174.791 93.5889 174.744 95.5975 174.649 97.5758L178.645 97.7665C178.742 95.7229 178.791 93.6507 178.791 91.55H174.791ZM173.447 109.539C172.813 113.584 171.956 117.487 170.876 121.247L174.721 122.351C175.848 118.425 176.741 114.36 177.399 110.158L173.447 109.539ZM166.799 132.488C165.987 134.316 165.113 136.106 164.177 137.857L167.705 139.743C168.687 137.905 169.603 136.029 170.455 134.113L166.799 132.488ZM164.164 137.881C162.481 141.136 160.613 144.199 158.562 147.073L161.817 149.397C163.983 146.363 165.949 143.137 167.717 139.719L164.164 137.881ZM143.598 162.393C140.769 164.512 137.748 166.446 134.535 168.193L136.446 171.707C139.824 169.87 143.007 167.833 145.996 165.594L143.598 162.393ZM134.522 168.2C132.834 169.135 131.108 170.007 129.344 170.818L131.014 174.453C132.869 173.6 134.684 172.683 136.459 171.7L134.522 168.2ZM118.47 174.891C114.827 175.97 111.042 176.826 107.114 177.459L107.75 181.409C111.84 180.749 115.792 179.856 119.606 178.726L118.47 174.891ZM95.4957 178.659C93.5743 178.753 91.6227 178.8 89.6408 178.8V182.8C91.6861 182.8 93.703 182.751 95.6914 182.654L95.4957 178.659ZM89.2908 144.85C86.201 144.85 83.2928 144.615 80.5628 144.151L79.8923 148.094C82.8651 148.6 85.9991 148.85 89.2908 148.85V144.85ZM64.7902 137.593C62.5424 135.901 60.4964 133.905 58.6526 131.601L55.5291 134.099C57.5732 136.655 59.8581 138.887 62.384 140.789L64.7902 137.593ZM58.6526 131.601C56.587 129.019 54.8103 126.062 53.3292 122.72L49.6722 124.341C51.28 127.969 53.2301 131.226 55.5291 134.099L58.6526 131.601ZM48.3762 102.245C48.0532 98.8821 47.8908 95.3175 47.8908 91.55H43.8908C43.8908 95.4316 44.0581 99.1246 44.3946 102.628L48.3762 102.245ZM47.8908 91.55C47.8908 87.8156 48.0546 84.2806 48.3804 80.9438L44.3993 80.5552C44.0597 84.034 43.8908 87.6994 43.8908 91.55H47.8908ZM53.3505 60.6524C54.8268 57.3507 56.5962 54.4198 58.6526 51.8494L55.5291 49.3506C53.2434 52.2077 51.3021 55.4342 49.6989 59.0197L53.3505 60.6524ZM58.6488 51.854C60.5341 49.5117 62.6095 47.4809 64.8741 45.7549L62.4493 42.5736C59.916 44.5045 57.6108 46.7642 55.5328 49.346L58.6488 51.854ZM80.8088 38.9821C83.576 38.4958 86.5189 38.25 89.6408 38.25V34.25C86.3093 34.25 83.1335 34.5123 80.1166 35.0424L80.8088 38.9821ZM89.6408 38.25C92.7441 38.25 95.6637 38.4929 98.4031 38.9731L99.0937 35.0332C96.1043 34.5092 92.9522 34.25 89.6408 34.25V38.25ZM114.171 45.7211C116.4 47.4482 118.431 49.4823 120.264 51.8305L123.417 49.3695C121.39 46.7718 119.125 44.4993 116.621 42.5591L114.171 45.7211ZM120.279 51.8494C122.335 54.4198 124.105 57.3507 125.581 60.6525L129.233 59.0197C127.63 55.4342 125.688 52.2077 123.403 49.3506L120.279 51.8494ZM130.551 80.9438C130.877 84.2806 131.041 87.8156 131.041 91.55H135.041C135.041 87.6994 134.872 84.034 134.532 80.5552L130.551 80.9438ZM131.041 91.55C131.041 95.3175 130.878 98.8821 130.555 102.245L134.537 102.628C134.874 99.1246 135.041 95.4316 135.041 91.55H131.041ZM125.602 122.72C124.121 126.062 122.345 129.019 120.279 131.601L123.403 134.099C125.702 131.226 127.652 127.969 129.259 124.341L125.602 122.72ZM120.279 131.601C118.424 133.92 116.355 135.926 114.074 137.626L116.464 140.833C119.029 138.922 121.342 136.675 123.403 134.099L120.279 131.601ZM98.1097 144.16C95.3532 144.618 92.4146 144.85 89.2908 144.85V148.85C92.6119 148.85 95.7714 148.603 98.7661 148.105L98.1097 144.16Z" fill="black"/>
</svg>
