<svg width="239" height="258" viewBox="0 0 239 258" fill="none" xmlns="http://www.w3.org/2000/svg">
<path d="M119.623 255.15C95.5897 255.15 74.7064 250.017 56.9731 239.75C39.473 229.483 25.9397 214.783 16.373 195.65C6.80638 176.517 2.02305 154.117 2.02305 128.45C2.02305 102.783 6.68971 80.5 16.023 61.6C25.5897 42.4667 39.2397 27.7667 56.9731 17.5C74.7064 7.23332 95.5897 2.09998 119.623 2.09998C143.656 2.09998 164.423 7.23332 181.923 17.5C199.656 27.7667 213.19 42.4667 222.523 61.6C232.09 80.5 236.873 102.783 236.873 128.45C236.873 154.117 232.09 176.517 222.523 195.65C212.956 214.783 199.306 229.483 181.573 239.75C164.073 250.017 143.423 255.15 119.623 255.15ZM119.623 219.1C142.256 219.1 159.873 211.283 172.473 195.65C185.306 180.017 191.723 157.617 191.723 128.45C191.723 99.2833 185.306 77 172.473 61.6C159.873 45.9667 142.256 38.15 119.623 38.15C96.7564 38.15 78.9064 45.9667 66.0731 61.6C53.4731 77 47.1731 99.2833 47.1731 128.45C47.1731 157.617 53.4731 180.017 66.0731 195.65C78.9064 211.283 96.7564 219.1 119.623 219.1Z" fill="#F5F5F5"/>
<path d="M56.9731 239.75L56.467 240.613L56.472 240.615L56.9731 239.75ZM16.373 195.65L17.2675 195.203L17.2675 195.203L16.373 195.65ZM16.023 61.6L15.1286 61.1528L15.1264 61.1572L16.023 61.6ZM56.9731 17.5L57.4741 18.3654L57.4741 18.3654L56.9731 17.5ZM181.923 17.5L181.417 18.3625L181.422 18.3654L181.923 17.5ZM222.523 61.6L221.624 62.0384L221.628 62.045L221.631 62.0516L222.523 61.6ZM222.523 195.65L221.629 195.203L221.629 195.203L222.523 195.65ZM181.573 239.75L181.072 238.885L181.067 238.887L181.573 239.75ZM172.473 195.65L171.7 195.015L171.694 195.022L172.473 195.65ZM172.473 61.6L171.694 62.2275L171.7 62.2339L171.705 62.2402L172.473 61.6ZM66.0731 61.6L65.3001 60.9655L65.2991 60.9668L66.0731 61.6ZM66.0731 195.65L65.2944 196.278L65.3001 196.284L66.0731 195.65ZM119.623 254.15C116.879 254.15 114.176 254.083 111.516 253.948L111.415 255.945C114.11 256.082 116.846 256.15 119.623 256.15V254.15ZM95.4127 252.228C89.9633 251.318 84.7152 250.085 79.668 248.53L79.0792 250.442C84.2152 252.024 89.5501 253.277 95.0833 254.2L95.4127 252.228ZM64.6183 242.658C62.182 241.489 59.8006 240.232 57.4741 238.885L56.472 240.615C58.8435 241.988 61.2706 243.27 63.7533 244.461L64.6183 242.658ZM57.4791 238.887C55.3003 237.609 53.184 236.262 51.1302 234.845L49.9947 236.492C52.0892 237.936 54.2467 239.31 56.467 240.613L57.4791 238.887ZM39.4302 225.401C35.7983 221.982 32.4175 218.281 29.2879 214.298L27.7152 215.533C30.9056 219.594 34.3537 223.369 38.0594 226.857L39.4302 225.401ZM20.8479 201.835C19.5983 199.688 18.4048 197.477 17.2675 195.203L15.4786 196.097C16.6344 198.409 17.848 200.657 19.1194 202.841L20.8479 201.835ZM17.2675 195.203C15.9937 192.655 14.8052 190.049 13.7021 187.383L11.8541 188.148C12.9751 190.857 14.1833 193.507 15.4786 196.097L17.2675 195.203ZM8.21588 171.093C6.77688 165.679 5.63648 160.057 4.79528 154.228L2.81578 154.513C3.66753 160.416 4.82307 166.114 6.28297 171.607L8.21588 171.093ZM3.20929 137.073C3.08515 134.242 3.02305 131.367 3.02305 128.45H1.02305C1.02305 131.396 1.08575 134.299 1.21121 137.161L3.20929 137.073ZM3.02305 128.45C3.02305 125.549 3.08294 122.692 3.20267 119.88L1.20448 119.794C1.08351 122.636 1.02305 125.522 1.02305 128.45H3.02305ZM4.73622 102.826C5.55244 97.0195 6.66004 91.4275 8.05839 86.0496L6.12276 85.5463C4.70415 91.0021 3.582 96.6694 2.75569 102.548L4.73622 102.826ZM13.4186 69.8308C14.5012 67.1729 15.6682 64.5769 16.9197 62.0428L15.1264 61.1572C13.8534 63.735 12.6668 66.3747 11.5663 69.0763L13.4186 69.8308ZM16.9175 62.0472C18.0591 59.7639 19.2591 57.5449 20.5173 55.3901L18.7902 54.3816C17.5097 56.5745 16.2892 58.8316 15.1286 61.1528L16.9175 62.0472ZM29.0265 42.9001C32.1809 38.918 35.5942 35.2186 39.2664 31.8014L37.904 30.3373C34.1569 33.8241 30.6751 37.5979 27.4587 41.6582L29.0265 42.9001ZM51.0735 22.387C53.1434 20.978 55.2769 19.6375 57.4741 18.3654L56.472 16.6346C54.2333 17.9307 52.0586 19.297 49.9481 20.7336L51.0735 22.387ZM57.4741 18.3654C59.8006 17.0185 62.182 15.7607 64.6183 14.592L63.7533 12.7887C61.2706 13.9797 58.8435 15.2616 56.472 16.6346L57.4741 18.3654ZM79.668 8.71949C84.7152 7.16477 89.9633 5.93211 95.4127 5.02218L95.0833 3.04949C89.5501 3.97341 84.2152 5.22607 79.0792 6.80812L79.668 8.71949ZM111.516 3.30193C114.176 3.16732 116.879 3.09998 119.623 3.09998V1.09998C116.846 1.09998 114.11 1.16813 111.415 1.30449L111.516 3.30193ZM119.623 3.09998C122.355 3.09998 125.044 3.16672 127.69 3.30011L127.79 1.30265C125.11 1.16751 122.388 1.09998 119.623 1.09998V3.09998ZM143.711 5.00912C149.141 5.91573 154.361 7.14487 159.373 8.69584L159.964 6.78522C154.862 5.20648 149.554 3.95713 144.041 3.03644L143.711 5.00912ZM174.329 14.5748C176.749 15.7475 179.112 17.0101 181.417 18.3625L182.429 16.6375C180.078 15.2581 177.669 13.9706 175.201 12.775L174.329 14.5748ZM181.422 18.3654C183.613 19.6338 185.738 20.9701 187.799 22.3745L188.925 20.7218C186.824 19.2895 184.657 17.9271 182.424 16.6346L181.422 18.3654ZM199.549 31.7727C203.202 35.1895 206.588 38.8888 209.707 42.871L211.281 41.6376C208.099 37.5753 204.644 33.8 200.915 30.3121L199.549 31.7727ZM218.098 55.3732C219.334 57.5305 220.509 59.7522 221.624 62.0384L223.422 61.1616C222.288 58.8365 221.092 56.5757 219.834 54.3793L218.098 55.3732ZM221.631 62.0516C222.91 64.5786 224.103 67.167 225.21 69.8169L227.055 69.046C225.93 66.3519 224.717 63.7193 223.415 61.1484L221.631 62.0516ZM230.702 86.015C232.137 91.3942 233.274 96.9878 234.112 102.796L236.092 102.511C235.243 96.6287 234.091 90.9581 232.634 85.4993L230.702 86.015ZM235.688 119.868C235.811 122.685 235.873 125.545 235.873 128.45H237.873C237.873 125.517 237.811 122.627 237.687 119.781L235.688 119.868ZM235.873 128.45C235.873 131.367 235.811 134.242 235.687 137.073L237.685 137.161C237.81 134.299 237.873 131.396 237.873 128.45H235.873ZM234.101 154.228C233.26 160.057 232.119 165.679 230.68 171.093L232.613 171.607C234.073 166.114 235.229 160.416 236.08 154.513L234.101 154.228ZM225.194 187.383C224.091 190.049 222.902 192.655 221.629 195.203L223.417 196.097C224.713 193.507 225.921 190.857 227.042 188.148L225.194 187.383ZM221.629 195.203C220.487 197.486 219.287 199.705 218.029 201.86L219.756 202.868C221.036 200.675 222.257 198.418 223.417 196.097L221.629 195.203ZM209.52 214.35C206.365 218.332 202.952 222.031 199.28 225.449L200.642 226.913C204.389 223.426 207.871 219.652 211.087 215.592L209.52 214.35ZM187.473 234.863C185.403 236.272 183.269 237.612 181.072 238.885L182.074 240.615C184.313 239.319 186.487 237.953 188.598 236.516L187.473 234.863ZM181.067 238.887C178.772 240.234 176.422 241.491 174.018 242.659L174.892 244.458C177.343 243.267 179.739 241.985 182.079 240.613L181.067 238.887ZM159.15 248.532C154.161 250.086 148.971 251.319 143.579 252.229L143.912 254.201C149.388 253.277 154.666 252.024 159.745 250.441L159.15 248.532ZM127.646 253.948C125.014 254.083 122.339 254.15 119.623 254.15V256.15C122.372 256.15 125.081 256.082 127.748 255.946L127.646 253.948ZM119.623 218.1C117.063 218.1 114.569 218.001 112.14 217.803L111.977 219.797C114.463 219.999 117.012 220.1 119.623 220.1V218.1ZM97.4558 215.187C92.555 213.779 87.9879 211.862 83.7518 209.437L82.758 211.172C87.1391 213.681 91.8552 215.659 96.9036 217.11L97.4558 215.187ZM71.8906 200.5C70.1309 198.797 68.4493 196.969 66.846 195.016L65.3001 196.284C66.9504 198.295 68.6835 200.179 70.4997 201.937L71.8906 200.5ZM66.8516 195.022C65.0422 192.777 63.3636 190.389 61.8161 187.858L60.1097 188.901C61.7011 191.504 63.4292 193.963 65.2945 196.278L66.8516 195.022ZM54.444 171.95C52.6438 166.68 51.2294 160.985 50.2031 154.863L48.2306 155.194C49.273 161.412 50.7124 167.213 52.5513 172.597L54.444 171.95ZM48.3771 137.298C48.2411 134.423 48.1731 131.474 48.1731 128.45H46.1731C46.1731 131.504 46.2418 134.484 46.3793 137.393L48.3771 137.298ZM48.1731 128.45C48.1731 125.439 48.2405 122.503 48.3754 119.641L46.3776 119.547C46.2412 122.441 46.1731 125.409 46.1731 128.45H48.1731ZM50.1897 102.154C51.212 96.0515 52.6218 90.383 54.4166 85.1464L52.5247 84.4979C50.6905 89.8491 49.2555 95.6251 48.2172 101.824L50.1897 102.154ZM61.794 69.3334C63.3463 66.8197 65.0307 64.4531 66.847 62.2332L65.2991 60.9668C63.4253 63.257 61.6897 65.6958 60.0923 68.2826L61.794 69.3334ZM66.846 62.2345C68.4493 60.2814 70.1309 58.4535 71.8906 56.7503L70.4997 55.3131C68.6835 57.0709 66.9504 58.9552 65.3001 60.9655L66.846 62.2345ZM83.7518 47.8134C87.9879 45.3879 92.555 43.4705 97.4558 42.0627L96.9036 40.1404C91.8552 41.5907 87.1391 43.5693 82.758 46.0777L83.7518 47.8134ZM112.14 39.4465C114.569 39.249 117.063 39.15 119.623 39.15V37.15C117.012 37.15 114.463 37.2509 111.977 37.4531L112.14 39.4465ZM119.623 39.15C122.157 39.15 124.626 39.249 127.029 39.4466L127.193 37.4534C124.732 37.251 122.209 37.15 119.623 37.15V39.15ZM141.552 42.0657C146.396 43.4752 150.905 45.3948 155.082 47.8232L156.088 46.0941C151.764 43.5808 147.104 41.5984 142.111 40.1454L141.552 42.0657ZM166.75 56.7563C168.476 58.4557 170.124 60.2793 171.694 62.2275L173.252 60.9725C171.635 58.9665 169.936 57.086 168.154 55.3312L166.75 56.7563ZM171.705 62.2402C173.547 64.4509 175.256 66.8068 176.831 69.3086L178.524 68.2429C176.902 65.6681 175.142 63.2403 173.241 60.9598L171.705 62.2402ZM184.344 85.0928C186.177 90.3315 187.617 96.0032 188.661 102.11L190.633 101.773C189.572 95.5683 188.106 89.7873 186.232 84.4323L184.344 85.0928ZM190.516 119.625C190.654 122.491 190.723 125.433 190.723 128.45H192.723C192.723 125.403 192.653 122.429 192.514 119.529L190.516 119.625ZM190.723 128.45C190.723 131.479 190.653 134.434 190.514 137.314L192.512 137.411C192.653 134.497 192.723 131.51 192.723 128.45H190.723ZM188.648 154.907C187.599 161.033 186.155 166.731 184.317 172.003L186.205 172.662C188.083 167.274 189.554 161.468 190.619 155.244L188.648 154.907ZM176.809 187.882C175.239 190.402 173.536 192.78 171.7 195.016L173.246 196.284C175.138 193.98 176.891 191.532 178.507 188.94L176.809 187.882ZM171.694 195.022C170.124 196.971 168.476 198.794 166.75 200.494L168.154 201.919C169.936 200.164 171.635 198.283 173.252 196.278L171.694 195.022ZM155.082 209.427C150.905 211.855 146.396 213.775 141.552 215.184L142.111 217.105C147.104 215.652 151.764 213.669 156.088 211.156L155.082 209.427ZM127.029 217.803C124.626 218.001 122.157 218.1 119.623 218.1V220.1C122.209 220.1 124.732 219.999 127.193 219.797L127.029 217.803ZM56.9731 239.75L55.961 241.475L55.971 241.481L56.9731 239.75ZM16.373 195.65L18.1619 194.756L18.1619 194.756L16.373 195.65ZM16.023 61.6L14.2342 60.7056L14.2298 60.7144L16.023 61.6ZM56.9731 17.5L57.9751 19.2308L57.9751 19.2308L56.9731 17.5ZM181.923 17.5L180.911 19.2251L180.921 19.2308L181.923 17.5ZM222.523 61.6L220.726 62.4768L220.732 62.4901L220.739 62.5032L222.523 61.6ZM222.523 195.65L220.734 194.756L220.734 194.756L222.523 195.65ZM181.573 239.75L180.571 238.019L180.561 238.025L181.573 239.75ZM172.473 195.65L170.927 194.381L170.921 194.388L170.916 194.395L172.473 195.65ZM172.473 61.6L170.916 62.855L170.926 62.8678L170.937 62.8804L172.473 61.6ZM66.0731 61.6L64.5272 60.331L64.5251 60.3335L66.0731 61.6ZM66.0731 195.65L64.5159 196.905L64.5215 196.912L64.5272 196.919L66.0731 195.65ZM119.623 253.15C116.895 253.15 114.209 253.083 111.566 252.949L111.364 256.944C114.076 257.081 116.829 257.15 119.623 257.15V253.15ZM95.5774 251.241C90.1699 250.339 84.9653 249.116 79.9624 247.575L78.7848 251.398C83.9651 252.993 89.3435 254.256 94.9186 255.187L95.5774 251.241ZM65.0508 241.756C62.6377 240.599 60.2792 239.353 57.9751 238.019L55.971 241.481C58.3649 242.867 60.8149 244.161 63.3208 245.363L65.0508 241.756ZM57.9851 238.025C55.8271 236.759 53.7314 235.425 51.6979 234.022L49.427 237.315C51.5418 238.774 53.7199 240.16 55.961 241.475L57.9851 238.025ZM40.1156 224.672C36.5206 221.288 33.1735 217.625 30.0743 213.68L26.9289 216.151C30.1496 220.25 33.6313 224.062 37.374 227.585L40.1156 224.672ZM21.7122 201.332C20.4734 199.204 19.29 197.012 18.1619 194.756L14.5842 196.544C15.7492 198.875 16.9728 201.141 18.2551 203.344L21.7122 201.332ZM18.1619 194.756C16.8988 192.229 15.7202 189.645 14.6261 187.001L10.9301 188.531C12.0601 191.261 13.2781 193.932 14.5842 196.544L18.1619 194.756ZM9.18233 170.836C7.75379 165.461 6.62096 159.878 5.78502 154.085L1.82603 154.656C2.68305 160.595 3.84616 166.331 5.31652 171.864L9.18233 170.836ZM4.20833 137.029C4.08484 134.213 4.02305 131.353 4.02305 128.45H0.0230474C0.0230474 131.41 0.0860519 134.328 0.212169 137.204L4.20833 137.029ZM4.02305 128.45C4.02305 125.563 4.08266 122.72 4.20177 119.922L0.205389 119.752C0.0837927 122.608 0.0230474 125.508 0.0230474 128.45H4.02305ZM5.72648 102.965C6.53767 97.1946 7.63799 91.6402 9.02621 86.3013L5.15494 85.2947C3.7262 90.7894 2.59677 96.4944 1.76542 102.409L5.72648 102.965ZM14.3447 70.208C15.4184 67.572 16.5756 64.9979 17.8163 62.4856L14.2298 60.7144C12.946 63.314 11.7495 65.9756 10.6402 68.6991L14.3447 70.208ZM17.8119 62.4944C18.9441 60.23 20.1338 58.03 21.3809 55.8943L17.9267 53.8773C16.635 56.0894 15.4042 58.3655 14.2342 60.7056L17.8119 62.4944ZM29.8103 43.521C32.9338 39.578 36.3128 35.9158 39.9476 32.5335L37.2227 29.6052C33.4382 33.1268 29.9222 36.9379 26.6749 41.0373L29.8103 43.521ZM51.6362 23.2136C53.6857 21.8185 55.7986 20.4909 57.9751 19.2308L55.971 15.7691C53.7115 17.0772 51.5163 18.4565 49.3854 19.907L51.6362 23.2136ZM57.9751 19.2308C60.2792 17.8969 62.6377 16.6512 65.0508 15.4936L63.3208 11.8871C60.8149 13.0892 58.3649 14.3832 55.971 15.7691L57.9751 19.2308ZM79.9624 9.67518C84.9653 8.13412 90.1699 6.91145 95.5774 6.00852L94.9186 2.06314C89.3435 2.99406 83.9651 4.25672 78.7848 5.85243L79.9624 9.67518ZM111.566 4.30065C114.209 4.16692 116.895 4.09998 119.623 4.09998V0.0999838C116.829 0.0999838 114.076 0.168528 111.364 0.305765L111.566 4.30065ZM119.623 4.09998C122.339 4.09998 125.011 4.16632 127.639 4.29885L127.841 0.30392C125.143 0.167912 122.404 0.0999838 119.623 0.0999838V4.09998ZM143.547 5.99546C148.934 6.89503 154.11 8.11407 159.077 9.65115L160.26 5.82992C155.113 4.23729 149.761 2.97783 144.205 2.05009L143.547 5.99546ZM173.893 15.4748C176.289 16.636 178.629 17.8861 180.911 19.225L182.935 15.7749C180.561 14.3821 178.128 13.0822 175.637 11.8751L173.893 15.4748ZM180.921 19.2308C183.091 20.4871 185.196 21.8104 187.236 23.2008L189.488 19.8955C187.366 18.4492 185.179 17.0737 182.925 15.7691L180.921 19.2308ZM198.866 32.503C202.48 35.8843 205.832 39.5455 208.92 43.4876L212.069 41.0209C208.855 36.9186 205.365 33.1052 201.598 29.5818L198.866 32.503ZM217.23 55.8701C218.455 58.0078 219.62 60.21 220.726 62.4768L224.321 60.7231C223.177 58.3787 221.971 56.0984 220.702 53.8823L217.23 55.8701ZM220.739 62.5032C222.007 65.0082 223.189 67.5746 224.287 70.2024L227.978 68.6605C226.843 65.9443 225.62 63.2896 224.307 60.6968L220.739 62.5032ZM229.736 86.2728C231.16 91.6123 232.29 97.1674 233.123 102.939L237.082 102.368C236.228 96.4492 235.068 90.74 233.6 85.2415L229.736 86.2728ZM234.689 119.912C234.812 122.713 234.873 125.559 234.873 128.45H238.873C238.873 125.503 238.811 122.599 238.686 119.737L234.689 119.912ZM234.873 128.45C234.873 131.353 234.811 134.213 234.688 137.029L238.684 137.204C238.81 134.328 238.873 131.41 238.873 128.45H234.873ZM233.111 154.085C232.275 159.878 231.142 165.461 229.714 170.836L233.58 171.864C235.05 166.331 236.213 160.595 237.07 154.656L233.111 154.085ZM224.27 187.001C223.176 189.645 221.997 192.229 220.734 194.756L224.312 196.544C225.618 193.932 226.836 191.261 227.966 188.531L224.27 187.001ZM220.734 194.756C219.602 197.02 218.412 199.22 217.165 201.356L220.619 203.373C221.911 201.161 223.142 198.884 224.312 196.544L220.734 194.756ZM208.736 213.729C205.612 217.672 202.233 221.334 198.598 224.717L201.323 227.645C205.108 224.123 208.624 220.312 211.871 216.213L208.736 213.729ZM186.91 234.036C184.86 235.431 182.747 236.759 180.571 238.019L182.575 241.481C184.835 240.173 187.03 238.794 189.161 237.343L186.91 234.036ZM180.561 238.025C178.289 239.358 175.962 240.603 173.581 241.76L175.329 245.358C177.803 244.155 180.222 242.861 182.585 241.475L180.561 238.025ZM158.853 247.577C153.908 249.118 148.762 250.34 143.413 251.243L144.078 255.187C149.597 254.256 154.919 252.992 160.043 251.396L158.853 247.577ZM127.595 252.95C124.98 253.083 122.323 253.15 119.623 253.15V257.15C122.389 257.15 125.114 257.081 127.799 256.944L127.595 252.95ZM119.623 217.1C117.089 217.1 114.622 217.002 112.221 216.807L111.896 220.794C114.41 220.998 116.986 221.1 119.623 221.1V217.1ZM97.7319 214.226C92.9049 212.84 88.4123 210.953 84.2487 208.569L82.2611 212.04C86.7147 214.59 91.5053 216.599 96.6275 218.071L97.7319 214.226ZM72.5861 199.781C70.8546 198.105 69.1987 196.306 67.6189 194.381L64.5272 196.919C66.2009 198.958 67.9598 200.87 69.8043 202.655L72.5861 199.781ZM67.6302 194.395C65.8487 192.184 64.1949 189.832 62.6694 187.336L59.2565 189.422C60.8698 192.062 62.6228 194.556 64.5159 196.905L67.6302 194.395ZM55.3903 171.627C53.6095 166.414 52.2076 160.772 51.1893 154.698L47.2444 155.359C48.2947 161.625 49.7467 167.48 51.605 172.92L55.3903 171.627ZM49.376 137.251C49.2408 134.392 49.1731 131.459 49.1731 128.45H45.1731C45.1731 131.519 45.2421 134.515 45.3804 137.44L49.376 137.251ZM49.1731 128.45C49.1731 125.454 49.2402 122.533 49.3743 119.688L45.3787 119.5C45.2415 122.411 45.1731 125.394 45.1731 128.45H49.1731ZM51.176 102.319C52.1902 96.2647 53.5874 90.6499 55.3626 85.4706L51.5787 84.1737C49.7249 89.5822 48.2773 95.4119 47.231 101.659L51.176 102.319ZM62.6448 69.8588C64.1746 67.3816 65.8335 65.0512 67.621 62.8665L64.5251 60.3335C62.6225 62.6589 60.8615 65.1338 59.2415 67.7571L62.6448 69.8588ZM67.6189 62.869C69.1987 60.9445 70.8546 59.1447 72.5861 57.4688L69.8043 54.5946C67.9598 56.3797 66.2009 58.2921 64.5272 60.331L67.6189 62.869ZM84.2487 48.6812C88.4123 46.2973 92.9049 44.4105 97.7319 43.0238L96.6275 39.1793C91.5053 40.6508 86.7147 42.66 82.2611 45.2099L84.2487 48.6812ZM112.221 40.4433C114.622 40.248 117.089 40.15 119.623 40.15V36.15C116.986 36.15 114.41 36.2519 111.896 36.4564L112.221 40.4433ZM119.623 40.15C122.131 40.15 124.572 40.248 126.947 40.4433L127.275 36.4567C124.786 36.252 122.235 36.15 119.623 36.15V40.15ZM141.273 43.0259C146.042 44.4136 150.475 46.3019 154.58 48.6877L156.59 45.2295C152.193 42.6737 147.458 40.6599 142.391 39.1852L141.273 43.0259ZM166.049 57.4689C167.746 59.1406 169.369 60.9357 170.916 62.855L174.03 60.3449C172.39 58.3101 170.665 56.4011 168.855 54.6187L166.049 57.4689ZM170.937 62.8804C172.75 65.0562 174.433 67.3762 175.985 69.8415L179.37 67.71C177.726 65.0988 175.939 62.6349 174.009 60.3196L170.937 62.8804ZM183.4 85.423C185.213 90.6037 186.64 96.2207 187.676 102.279L191.618 101.604C190.549 95.3508 189.07 89.5152 187.176 84.102L183.4 85.423ZM189.517 119.673C189.654 122.523 189.723 125.448 189.723 128.45H193.723C193.723 125.387 193.653 122.398 193.513 119.481L189.517 119.673ZM189.723 128.45C189.723 131.464 189.654 134.403 189.516 137.266L193.511 137.459C193.652 134.528 193.723 131.525 193.723 128.45H189.723ZM187.662 154.738C186.622 160.816 185.19 166.46 183.372 171.674L187.149 172.991C189.048 167.546 190.531 161.685 191.605 155.413L187.662 154.738ZM175.961 187.353C174.412 189.837 172.734 192.179 170.927 194.381L174.019 196.919C175.939 194.58 177.718 192.096 179.355 189.469L175.961 187.353ZM170.916 194.395C169.369 196.314 167.746 198.109 166.049 199.781L168.855 202.631C170.665 200.849 172.39 198.94 174.03 196.905L170.916 194.395ZM154.58 208.562C150.475 210.948 146.042 212.836 141.273 214.224L142.391 218.065C147.458 216.59 152.193 214.576 156.59 212.02L154.58 208.562ZM126.947 216.807C124.572 217.002 122.131 217.1 119.623 217.1V221.1C122.235 221.1 124.786 220.998 127.275 220.793L126.947 216.807Z" fill="black"/>
</svg>
