<svg width="179" height="245" viewBox="0 0 179 245" fill="none" xmlns="http://www.w3.org/2000/svg">
<path d="M100.497 2.64998C115.197 2.64998 128.264 6.38332 139.697 13.85C151.364 21.3167 160.347 31.9333 166.647 45.7C173.181 59.2333 176.447 74.8667 176.447 92.6C176.447 110.333 173.181 125.85 166.647 139.15C160.347 152.45 151.481 162.717 140.047 169.95C128.614 177.183 115.431 180.8 100.497 180.8C88.3641 180.8 77.5141 178.233 67.9475 173.1C58.3808 167.967 51.0308 160.85 45.8975 151.75V223.15C45.8975 229.217 43.9141 234 39.9475 237.5C35.9808 241 30.7308 242.75 24.1975 242.75C17.6641 242.75 12.2975 240.883 8.09746 237.15C4.1308 233.417 2.14746 228.517 2.14746 222.45V24C2.14746 17.7 4.01413 12.6833 7.74746 8.95C11.7141 5.21666 16.9641 3.35 23.4975 3.35C30.0308 3.35 35.2808 5.21666 39.2475 8.95C43.2141 12.6833 45.1975 17.7 45.1975 24V32.75C50.3308 23.1833 57.6808 15.8333 67.2475 10.7C77.0475 5.33332 88.1308 2.64998 100.497 2.64998ZM88.9475 146.85C102.714 146.85 113.447 142.183 121.147 132.85C128.847 123.283 132.697 109.867 132.697 92.6C132.697 74.8667 128.847 61.1 121.147 51.3C113.447 41.5 102.714 36.6 88.9475 36.6C74.9475 36.6 64.0975 41.3833 56.3975 50.95C48.9308 60.5167 45.1975 74.1667 45.1975 91.9C45.1975 109.4 48.9308 122.933 56.3975 132.5C64.0975 142.067 74.9475 146.85 88.9475 146.85Z" fill="#F5F5F5"/>
<path d="M139.697 13.85L139.151 14.6873L139.158 14.6923L139.697 13.85ZM166.647 45.7L165.738 46.1161L165.742 46.1255L165.747 46.1347L166.647 45.7ZM166.647 139.15L165.75 138.709L165.747 138.715L165.744 138.722L166.647 139.15ZM140.047 169.95L139.513 169.105L139.513 169.105L140.047 169.95ZM67.9475 173.1L68.4203 172.219L68.4203 172.219L67.9475 173.1ZM45.8975 151.75L46.7684 151.259L44.8975 147.942V151.75H45.8975ZM39.9475 237.5L39.2858 236.75L39.9475 237.5ZM8.09746 237.15L7.4121 237.878L7.42246 237.888L7.4331 237.897L8.09746 237.15ZM7.74746 8.95L7.0621 8.2218L7.05107 8.23218L7.04035 8.24289L7.74746 8.95ZM39.2475 8.95L38.5621 9.6782L38.5621 9.6782L39.2475 8.95ZM45.1975 32.75H44.1975L46.0786 33.2228L45.1975 32.75ZM67.2475 10.7L67.7203 11.5812L67.7278 11.5771L67.2475 10.7ZM121.147 132.85L121.919 133.486L121.926 133.477L121.147 132.85ZM121.147 51.3L121.934 50.6822L121.934 50.6822L121.147 51.3ZM56.3975 50.95L55.6185 50.323L55.6138 50.3288L55.6092 50.3347L56.3975 50.95ZM56.3975 132.5L55.6092 133.115L55.6138 133.121L55.6185 133.127L56.3975 132.5ZM100.497 1.64998C97.5136 1.64998 94.6011 1.80439 91.7602 2.11373L91.9767 4.10197C94.7425 3.80082 97.5827 3.64998 100.497 3.64998V1.64998ZM74.735 6.14674C71.9924 7.19053 69.3364 8.41595 66.7672 9.8229L67.7278 11.5771C70.2165 10.2142 72.7893 9.02721 75.4464 8.01595L74.735 6.14674ZM66.7746 9.81883C64.3691 11.1096 62.0992 12.5393 59.9657 14.1084L61.1506 15.7196C63.2056 14.2083 65.3953 12.8287 67.7203 11.5812L66.7746 9.81883ZM48.6058 25.4683C47.0368 27.6018 45.6071 29.8717 44.3163 32.2772L46.0786 33.2228C47.3262 30.8978 48.7058 28.7082 50.2171 26.6532L48.6058 25.4683ZM46.1975 32.75V30.5625H44.1975V32.75H46.1975ZM46.1975 26.1875V24H44.1975V26.1875H46.1975ZM46.1975 24C46.1975 22.4996 46.0886 21.0626 45.8688 19.6902L43.894 20.0065C44.0956 21.2655 44.1975 22.5962 44.1975 24H46.1975ZM42.77 11.5656C41.9637 10.3571 41.0173 9.24244 39.9328 8.2218L38.5621 9.6782C39.5393 10.598 40.3867 11.597 41.1063 12.6756L42.77 11.5656ZM39.9328 8.2218C38.8304 7.18422 37.6323 6.28274 36.3395 5.51854L35.3218 7.24027C36.4863 7.92862 37.5662 8.74087 38.5621 9.6782L39.9328 8.2218ZM27.911 2.65165C26.5031 2.45 25.0316 2.35 23.4975 2.35V4.35C24.9448 4.35 26.3211 4.44436 27.6274 4.63145L27.911 2.65165ZM23.4975 2.35C21.9634 2.35 20.4919 2.45 19.0839 2.65165L19.3675 4.63145C20.6738 4.44436 22.0501 4.35 23.4975 4.35V2.35ZM10.6555 5.51854C9.36258 6.28274 8.16452 7.18422 7.0621 8.2218L8.43283 9.6782C9.42874 8.74087 10.5086 7.92862 11.6731 7.24027L10.6555 5.51854ZM7.04035 8.24289C6.00317 9.28008 5.10095 10.4131 4.3353 11.6414L6.03254 12.6994C6.71642 11.6023 7.52324 10.5884 8.45457 9.6571L7.04035 8.24289ZM1.44989 19.7409C1.24766 21.0976 1.14746 22.5177 1.14746 24H3.14746C3.14746 22.6076 3.24159 21.2866 3.42803 20.0358L1.44989 19.7409ZM1.14746 24V31.0875H3.14746V24H1.14746ZM1.14746 45.2625V59.4375H3.14746V45.2625H1.14746ZM1.14746 73.6125V87.7875H3.14746V73.6125H1.14746ZM1.14746 101.962V116.138H3.14746V101.962H1.14746ZM1.14746 130.313V144.488H3.14746V130.313H1.14746ZM1.14746 158.663V172.838H3.14746V158.663H1.14746ZM1.14746 187.013V201.188H3.14746V187.013H1.14746ZM1.14746 215.363V222.45H3.14746V215.363H1.14746ZM1.14746 222.45C1.14746 223.921 1.25995 225.332 1.48708 226.683L3.4594 226.351C3.25215 225.119 3.14746 223.819 3.14746 222.45H1.14746ZM4.61685 234.62C5.41432 235.79 6.34685 236.876 7.4121 237.878L8.78283 236.422C7.81902 235.515 6.98197 234.538 6.26935 233.493L4.61685 234.62ZM7.4331 237.897C8.5815 238.918 9.81476 239.807 11.1323 240.562L12.1271 238.827C10.9304 238.141 9.80886 237.333 8.76183 236.403L7.4331 237.897ZM19.7071 243.44C21.1446 243.647 22.6417 243.75 24.1975 243.75V241.75C22.7298 241.75 21.3284 241.653 19.9924 241.46L19.7071 243.44ZM24.1975 243.75C25.7149 243.75 27.1706 243.658 28.5639 243.473L28.3003 241.49C27.0017 241.663 25.6343 241.75 24.1975 241.75V243.75ZM36.9637 240.813C38.2752 240.091 39.4907 239.237 40.6091 238.25L39.2858 236.75C38.278 237.639 37.1829 238.41 35.9993 239.061L36.9637 240.813ZM40.6091 238.25C41.6908 237.295 42.6365 236.247 43.4435 235.104L41.8099 233.951C41.0959 234.961 40.2555 235.895 39.2858 236.75L40.6091 238.25ZM46.567 227.309C46.7881 225.987 46.8975 224.6 46.8975 223.15H44.8975C44.8975 224.5 44.7957 225.776 44.5944 226.979L46.567 227.309ZM46.8975 223.15V214.225H44.8975V223.15H46.8975ZM46.8975 196.375V178.525H44.8975V196.375H46.8975ZM46.8975 160.675V151.75H44.8975V160.675H46.8975ZM45.0265 152.241C46.339 154.568 47.7948 156.769 49.3939 158.843L50.9778 157.622C49.4382 155.625 48.0351 153.504 46.7684 151.259L45.0265 152.241ZM60.7632 169.805C62.8685 171.318 65.1058 172.71 67.4747 173.981L68.4203 172.219C66.1254 170.987 63.9624 169.641 61.9306 168.181L60.7632 169.805ZM67.4747 173.981C69.9937 175.333 72.6002 176.509 75.2937 177.511L75.9905 175.636C73.3819 174.666 70.8586 173.527 68.4203 172.219L67.4747 173.981ZM91.9577 181.359C94.7332 181.653 97.5799 181.8 100.497 181.8V179.8C97.647 179.8 94.8707 179.657 92.1683 179.371L91.9577 181.359ZM100.497 181.8C104.092 181.8 107.589 181.593 110.989 181.177L110.746 179.192C107.431 179.597 104.015 179.8 100.497 179.8V181.8ZM131.273 175.732C134.494 174.329 137.597 172.683 140.582 170.795L139.513 169.105C136.614 170.939 133.601 172.537 130.475 173.898L131.273 175.732ZM140.582 170.795C143.549 168.918 146.346 166.839 148.974 164.558L147.663 163.048C145.112 165.262 142.396 167.281 139.513 169.105L140.582 170.795ZM162.524 148.719C164.35 145.846 166.026 142.798 167.551 139.578L165.744 138.722C164.252 141.871 162.616 144.846 160.836 147.647L162.524 148.719ZM167.545 139.591C168.432 137.785 169.259 135.94 170.027 134.055L168.174 133.301C167.424 135.143 166.616 136.946 165.75 138.709L167.545 139.591ZM173.842 122.552C174.842 118.734 175.634 114.777 176.218 110.682L174.238 110.4C173.664 114.423 172.887 118.304 171.907 122.045L173.842 122.552ZM177.318 98.6416C177.404 96.6563 177.447 94.6425 177.447 92.6H175.447C175.447 94.6144 175.405 96.5993 175.32 98.5549L177.318 98.6416ZM177.447 92.6C177.447 90.5448 177.404 88.517 177.317 86.5167L175.319 86.6038C175.404 88.5743 175.447 90.573 175.447 92.6H177.447ZM176.206 74.3936C175.62 70.2785 174.825 66.2945 173.821 62.4419L171.886 62.946C172.87 66.7223 173.65 70.6322 174.226 74.6758L176.206 74.3936ZM170.014 50.8517C169.251 48.9521 168.429 47.09 167.548 45.2652L165.747 46.1347C166.608 47.9184 167.412 49.7392 168.158 51.5973L170.014 50.8517ZM167.557 45.2839C166.035 41.9585 164.357 38.8121 162.522 35.8454L160.821 36.8973C162.61 39.7899 164.249 42.8626 165.738 46.1161L167.557 45.2839ZM148.799 19.4605C146.123 17.0993 143.269 14.9484 140.237 13.0077L139.158 14.6923C142.105 16.5782 144.877 18.6674 147.476 20.9602L148.799 19.4605ZM140.244 13.0127C137.291 11.084 134.229 9.40009 131.059 7.9616L130.232 9.78288C133.309 11.1787 136.281 12.8134 139.151 14.6873L140.244 13.0127ZM110.939 2.30486C107.551 1.86803 104.07 1.64998 100.497 1.64998V3.64998C103.989 3.64998 107.384 3.86305 110.683 4.28844L110.939 2.30486ZM88.9475 145.85C85.7732 145.85 82.772 145.6 79.9424 145.103L79.5963 147.073C82.5508 147.592 85.6684 147.85 88.9475 147.85V145.85ZM63.5745 138.14C61.2428 136.363 59.1099 134.275 57.1765 131.873L55.6185 133.127C57.6483 135.649 59.896 137.851 62.3621 139.731L63.5745 138.14ZM57.1858 131.885C55.103 129.216 53.3135 126.225 51.8194 122.909L49.9959 123.73C51.551 127.183 53.4214 130.312 55.6092 133.115L57.1858 131.885ZM46.7071 102.507C46.3676 99.1565 46.1975 95.6211 46.1975 91.9H44.1975C44.1975 95.6817 44.3704 99.2847 44.7172 102.708L46.7071 102.507ZM46.1975 91.9C46.1975 88.1461 46.3661 84.5815 46.7024 81.2057L44.7123 81.0075C44.3688 84.4555 44.1975 88.0865 44.1975 91.9H46.1975ZM51.7963 60.6216C53.2952 57.2646 55.0925 54.2472 57.1858 51.5653L55.6092 50.3347C53.409 53.1536 51.5301 56.3122 49.9701 59.8062L51.7963 60.6216ZM57.1765 51.577C59.1099 49.1748 61.2428 47.0868 63.5745 45.3096L62.3621 43.719C59.896 45.5986 57.6483 47.8011 55.6185 50.323L57.1765 51.577ZM79.9424 38.3472C82.772 37.85 85.7732 37.6 88.9475 37.6V35.6C85.6684 35.6 82.5508 35.8582 79.5963 36.3774L79.9424 38.3472ZM88.9475 37.6C92.1034 37.6 95.0883 37.862 97.904 38.3831L98.268 36.4165C95.3214 35.8712 92.214 35.6 88.9475 35.6V37.6ZM114.08 45.5712C116.359 47.3753 118.453 49.4896 120.361 51.9178L121.934 50.6822C119.935 48.1376 117.731 45.91 115.322 44.003L114.08 45.5712ZM120.361 51.9178C122.499 54.639 124.337 57.6786 125.874 61.0402L127.693 60.2089C126.095 56.7124 124.176 53.5356 121.934 50.6822L120.361 51.9178ZM131.167 81.7984C131.52 85.2119 131.697 88.8122 131.697 92.6H133.697C133.697 88.7502 133.517 85.0809 133.157 81.5926L131.167 81.7984ZM131.697 92.6C131.697 96.2993 131.519 99.8151 131.164 103.148L133.152 103.36C133.516 99.9502 133.697 96.3632 133.697 92.6H131.697ZM125.855 123.377C124.324 126.634 122.495 129.581 120.368 132.223L121.926 133.477C124.158 130.704 126.071 127.62 127.665 124.228L125.855 123.377ZM120.376 132.214C118.443 134.556 116.319 136.593 114.002 138.327L115.201 139.928C117.65 138.095 119.889 135.946 121.919 133.486L120.376 132.214ZM97.8261 145.119C95.0329 145.605 92.0739 145.85 88.9475 145.85V147.85C92.178 147.85 95.2525 147.597 98.1694 147.089L97.8261 145.119ZM139.697 13.85L138.604 15.5245L138.612 15.5296L138.619 15.5345L139.697 13.85ZM166.647 45.7L164.829 46.5322L164.837 46.551L164.846 46.5695L166.647 45.7ZM166.647 139.15L164.852 138.268L164.846 138.281L164.84 138.294L166.647 139.15ZM140.047 169.95L138.978 168.26L138.978 168.26L140.047 169.95ZM67.9475 173.1L68.8931 171.338L68.8931 171.338L67.9475 173.1ZM45.8975 151.75L47.6394 150.767L43.8975 144.134V151.75H45.8975ZM39.9475 237.5L38.6242 236L39.9475 237.5ZM8.09746 237.15L6.72673 238.606L6.74746 238.626L6.76873 238.645L8.09746 237.15ZM7.74746 8.95L6.37673 7.4936L6.35467 7.51436L6.33325 7.53578L7.74746 8.95ZM39.2475 8.95L37.8767 10.4064L37.8767 10.4064L39.2475 8.95ZM45.1975 32.75H43.1975L46.9598 33.6956L45.1975 32.75ZM67.2475 10.7L68.1931 12.4623L68.2006 12.4583L68.2081 12.4542L67.2475 10.7ZM121.147 132.85L122.69 134.123L122.698 134.113L122.705 134.104L121.147 132.85ZM121.147 51.3L122.72 50.0644L122.72 50.0643L121.147 51.3ZM56.3975 50.95L54.8394 49.696L54.8301 49.7076L54.8208 49.7195L56.3975 50.95ZM56.3975 132.5L54.8208 133.731L54.8301 133.742L54.8394 133.754L56.3975 132.5ZM100.497 0.649984C97.4791 0.649984 94.5304 0.806181 91.652 1.1196L92.0849 5.0961C94.8132 4.79903 97.6172 4.64998 100.497 4.64998V0.649984ZM74.3794 5.21214C71.594 6.27218 68.8963 7.51681 66.2868 8.9458L68.2081 12.4542C70.6566 11.1134 73.1877 9.94555 75.8021 8.95055L74.3794 5.21214ZM66.3018 8.93767C63.856 10.25 61.5461 11.7049 59.3733 13.3028L61.7431 16.5252C63.7588 15.0428 65.9084 13.6883 68.1931 12.4623L66.3018 8.93767ZM47.8002 24.8758C46.2023 27.0486 44.7475 29.3586 43.4351 31.8044L46.9598 33.6956C48.1857 31.4109 49.5402 29.2614 51.0227 27.2456L47.8002 24.8758ZM47.1975 32.75V30.5625H43.1975V32.75H47.1975ZM47.1975 26.1875V24H43.1975V26.1875H47.1975ZM47.1975 24C47.1975 22.4513 47.0851 20.9612 46.8562 19.5321L42.9065 20.1646C43.0991 21.3669 43.1975 22.6445 43.1975 24H47.1975ZM43.6019 11.0106C42.7522 9.73716 41.7562 8.56468 40.6182 7.4936L37.8767 10.4064C38.8004 11.2757 39.5982 12.217 40.2744 13.2306L43.6019 11.0106ZM40.6182 7.4936C39.4625 6.4059 38.2053 5.4598 36.8483 4.65768L34.8129 8.10113C35.9134 8.75156 36.9341 9.51919 37.8767 10.4064L40.6182 7.4936ZM28.0528 1.66175C26.594 1.45282 25.0749 1.35 23.4975 1.35V5.35C24.9015 5.35 26.2302 5.44153 27.4857 5.62134L28.0528 1.66175ZM23.4975 1.35C21.92 1.35 20.4009 1.45282 18.9422 1.66175L19.5093 5.62134C20.7647 5.44153 22.0935 5.35 23.4975 5.35V1.35ZM10.1466 4.65768C8.78958 5.4598 7.53241 6.4059 6.37673 7.4936L9.11819 10.4064C10.0608 9.51919 11.0816 8.75156 12.182 8.10113L10.1466 4.65768ZM6.33325 7.53578C5.24313 8.6259 4.29322 9.81854 3.48668 11.1124L6.88116 13.2284C7.52416 12.1969 8.28327 11.2426 9.16167 10.3642L6.33325 7.53578ZM0.460815 19.5935C0.250697 21.0031 0.147463 22.4727 0.147463 24H4.14746C4.14746 22.6526 4.23856 21.381 4.41711 20.1832L0.460815 19.5935ZM0.147463 24V31.0875H4.14746V24H0.147463ZM0.147463 45.2625V59.4375H4.14746V45.2625H0.147463ZM0.147463 73.6125V87.7875H4.14746V73.6125H0.147463ZM0.147463 101.962V116.138H4.14746V101.962H0.147463ZM0.147463 130.313V144.488H4.14746V130.313H0.147463ZM0.147463 158.663V172.838H4.14746V158.663H0.147463ZM0.147463 187.013V201.188H4.14746V187.013H0.147463ZM0.147463 215.363V222.45H4.14746V215.363H0.147463ZM0.147463 222.45C0.147463 223.972 0.263856 225.439 0.500918 226.849L4.44556 226.185C4.24825 225.012 4.14746 223.768 4.14746 222.45H0.147463ZM3.79061 235.183C4.6305 236.415 5.61076 237.556 6.72673 238.606L9.46819 235.694C8.55511 234.834 7.7658 233.913 7.09559 232.93L3.79061 235.183ZM6.76873 238.645C7.96782 239.711 9.25693 240.64 10.6349 241.43L12.6244 237.96C11.4882 237.308 10.4225 236.541 9.42619 235.655L6.76873 238.645ZM19.5644 244.43C21.0527 244.644 22.5977 244.75 24.1975 244.75V240.75C22.7738 240.75 21.4203 240.656 20.135 240.471L19.5644 244.43ZM24.1975 244.75C25.7551 244.75 27.2551 244.656 28.6956 244.464L28.1686 240.499C26.9172 240.665 25.5941 240.75 24.1975 240.75V244.75ZM37.4459 241.689C38.8214 240.932 40.0971 240.035 41.2707 239L38.6242 236C37.6716 236.841 36.6367 237.569 35.5171 238.185L37.4459 241.689ZM41.2707 239C42.4085 237.996 43.4068 236.89 44.2603 235.681L40.9931 233.374C40.3256 234.319 39.5378 235.194 38.6242 236L41.2707 239ZM47.5533 227.474C47.7843 226.092 47.8975 224.65 47.8975 223.15H43.8975C43.8975 224.449 43.7994 225.67 43.6081 226.814L47.5533 227.474ZM47.8975 223.15V214.225H43.8975V223.15H47.8975ZM47.8975 196.375V178.525H43.8975V196.375H47.8975ZM47.8975 160.675V151.75H43.8975V160.675H47.8975ZM44.1555 152.733C45.491 155.1 46.973 157.341 48.6019 159.454L51.7698 157.012C50.26 155.053 48.8831 152.972 47.6394 150.767L44.1555 152.733ZM60.1796 170.617C62.3215 172.156 64.5961 173.571 67.0018 174.862L68.8931 171.338C66.6351 170.126 64.5093 168.803 62.5143 167.369L60.1796 170.617ZM67.0018 174.862C69.5613 176.236 72.2093 177.431 74.9452 178.448L76.3389 174.699C73.7728 173.745 71.2911 172.624 68.8931 171.338L67.0018 174.862ZM91.8524 182.354C94.6645 182.652 97.5464 182.8 100.497 182.8V178.8C97.6805 178.8 94.9394 178.658 92.2736 178.376L91.8524 182.354ZM100.497 182.8C104.13 182.8 107.668 182.59 111.11 182.17L110.625 178.2C107.352 178.599 103.977 178.8 100.497 178.8V182.8ZM131.673 176.649C134.941 175.226 138.089 173.556 141.117 171.64L138.978 168.26C136.122 170.067 133.155 171.64 130.075 172.982L131.673 176.649ZM141.117 171.64C144.126 169.736 146.964 167.628 149.629 165.314L147.007 162.293C144.495 164.474 141.819 166.463 138.978 168.26L141.117 171.64ZM163.368 149.256C165.217 146.346 166.913 143.262 168.455 140.006L164.84 138.294C163.365 141.408 161.749 144.346 159.992 147.11L163.368 149.256ZM168.443 140.032C169.34 138.205 170.177 136.338 170.953 134.432L167.248 132.923C166.507 134.745 165.708 136.526 164.852 138.268L168.443 140.032ZM174.809 122.805C175.82 118.948 176.619 114.954 177.208 110.823L173.248 110.259C172.679 114.245 171.91 118.089 170.94 121.791L174.809 122.805ZM178.317 98.6849C178.404 96.6848 178.447 94.6565 178.447 92.6H174.447C174.447 94.6003 174.405 96.5708 174.321 98.5116L178.317 98.6849ZM178.447 92.6C178.447 90.5306 178.404 88.4883 178.316 86.4731L174.32 86.6473C174.405 88.603 174.447 90.5872 174.447 92.6H178.447ZM177.196 74.2525C176.605 70.1017 175.802 66.0806 174.789 62.1898L170.918 63.198C171.892 66.9363 172.665 70.809 173.236 74.817L177.196 74.2525ZM170.942 50.4789C170.171 48.5586 169.339 46.6758 168.449 44.8305L164.846 46.5695C165.698 48.3326 166.492 50.1328 167.23 51.9701L170.942 50.4789ZM168.466 44.8677C166.928 41.5065 165.231 38.3233 163.373 35.3194L159.971 37.4232C161.737 40.2788 163.356 43.3147 164.829 46.5322L168.466 44.8677ZM149.461 18.7107C146.746 16.3153 143.851 14.1335 140.776 12.1655L138.619 15.5345C141.523 17.3931 144.255 19.4515 146.814 21.71L149.461 18.7107ZM140.791 12.1755C137.796 10.2193 134.689 8.51076 131.472 7.05096L129.819 10.6935C132.848 12.0681 135.776 13.6781 138.604 15.5245L140.791 12.1755ZM111.067 1.31307C107.635 0.870517 104.111 0.649984 100.497 0.649984V4.64998C103.948 4.64998 107.301 4.86056 110.555 5.28023L111.067 1.31307ZM88.9475 144.85C85.8255 144.85 82.8827 144.604 80.1155 144.118L79.4232 148.058C82.4401 148.588 85.616 148.85 88.9475 148.85V144.85ZM64.1807 137.345C61.9161 135.619 59.8408 133.588 57.9555 131.246L54.8394 133.754C56.9175 136.336 59.2227 138.596 61.756 140.526L64.1807 137.345ZM57.9741 131.269C55.9438 128.668 54.1947 125.747 52.7311 122.498L49.0841 124.141C50.6698 127.661 52.5806 130.86 54.8208 133.731L57.9741 131.269ZM47.702 102.406C47.3663 99.0923 47.1975 95.5908 47.1975 91.9H43.1975C43.1975 95.7121 43.3718 99.3488 43.7223 102.809L47.702 102.406ZM47.1975 91.9C47.1975 88.1758 47.3648 84.6446 47.6975 81.3049L43.7172 80.9083C43.3701 84.3925 43.1975 88.0568 43.1975 91.9H47.1975ZM52.7094 61.0293C54.1778 57.7408 55.9343 54.794 57.9741 52.1805L54.8208 49.7195C52.5673 52.6068 50.6476 55.836 49.057 59.3985L52.7094 61.0293ZM57.9555 52.204C59.8408 49.8617 61.9161 47.8309 64.1807 46.1049L61.756 42.9236C59.2227 44.8545 56.9175 47.1142 54.8394 49.696L57.9555 52.204ZM80.1155 39.3321C82.8827 38.8458 85.8255 38.6 88.9475 38.6V34.6C85.616 34.6 82.4401 34.8623 79.4232 35.3925L80.1155 39.3321ZM88.9475 38.6C92.0481 38.6 94.9717 38.8574 97.722 39.3664L98.4499 35.4332C95.438 34.8758 92.2693 34.6 88.9475 34.6V38.6ZM113.46 46.3553C115.674 48.1079 117.713 50.1656 119.575 52.5356L122.72 50.0643C120.675 47.4616 118.416 45.1774 115.942 43.219L113.46 46.3553ZM119.575 52.5356C121.661 55.1908 123.459 58.1618 124.964 61.4559L128.602 59.7933C126.973 56.2292 125.014 52.9838 122.72 50.0644L119.575 52.5356ZM130.172 81.9013C130.522 85.2774 130.697 88.8432 130.697 92.6H134.697C134.697 88.7192 134.516 85.0153 134.151 81.4896L130.172 81.9013ZM130.697 92.6C130.697 96.2673 130.521 99.7476 130.169 103.042L134.147 103.466C134.515 100.018 134.697 96.3951 134.697 92.6H130.697ZM124.95 122.952C123.451 126.14 121.663 129.019 119.589 131.596L122.705 134.104C124.99 131.266 126.944 128.113 128.57 124.653L124.95 122.952ZM119.605 131.577C117.72 133.862 115.653 135.842 113.403 137.526L115.8 140.729C118.316 138.845 120.612 136.641 122.69 134.123L119.605 131.577ZM97.6544 144.133C94.923 144.609 92.0218 144.85 88.9475 144.85V148.85C92.2301 148.85 95.3624 148.593 98.3411 148.074L97.6544 144.133Z" fill="black"/>
</svg>
