<svg width="197" height="254" viewBox="0 0 197 254" fill="none" xmlns="http://www.w3.org/2000/svg">
<path d="M24.9727 251.1C18.206 251.1 12.7227 249.117 8.52266 245.15C4.55599 240.95 2.57266 235.35 2.57266 228.35V23.6C2.57266 16.8333 4.43932 11.5833 8.17266 7.85C12.1393 4.11666 17.506 2.24998 24.2727 2.24998H110.373C136.739 2.24998 157.273 8.89999 171.973 22.2C186.673 35.2667 194.023 53.7 194.023 77.5C194.023 101.3 186.673 119.85 171.973 133.15C157.273 146.45 136.739 153.1 110.373 153.1H47.7227V228.35C47.7227 235.35 45.6227 240.95 41.4227 245.15C37.456 249.117 31.9727 251.1 24.9727 251.1ZM104.773 118.45C135.806 118.45 151.323 104.917 151.323 77.85C151.323 50.7833 135.806 37.25 104.773 37.25H47.7227V118.45H104.773Z" fill="#F5F5F5"/>
<path d="M8.52266 245.15L7.79564 245.837L7.81526 245.857L7.83603 245.877L8.52266 245.15ZM8.17266 7.85L7.48729 7.1218L7.47626 7.13218L7.46555 7.14289L8.17266 7.85ZM171.973 22.2L171.302 22.9416L171.308 22.9474L171.973 22.2ZM171.973 133.15L171.302 132.408L171.302 132.408L171.973 133.15ZM47.7227 153.1V152.1H46.7227V153.1H47.7227ZM41.4227 245.15L40.7156 244.443L40.7156 244.443L41.4227 245.15ZM47.7227 37.25V36.25H46.7227V37.25H47.7227ZM47.7227 118.45H46.7227V119.45H47.7227V118.45ZM24.9727 250.1C23.4595 250.1 22.0185 249.998 20.6487 249.795L20.3561 251.774C21.8304 251.992 23.3696 252.1 24.9727 252.1V250.1ZM12.6014 247.001C11.3882 246.272 10.2577 245.413 9.20928 244.423L7.83603 245.877C8.98739 246.964 10.2326 247.911 11.5713 248.715L12.6014 247.001ZM9.24967 244.463C8.24714 243.402 7.37869 242.247 6.64321 240.999L4.92011 242.015C5.73212 243.393 6.69101 244.667 7.79564 245.837L9.24967 244.463ZM3.87003 232.765C3.67233 231.369 3.57266 229.898 3.57266 228.35H1.57266C1.57266 229.984 1.67783 231.549 1.8898 233.045L3.87003 232.765ZM3.57266 228.35V221.037H1.57266V228.35H3.57266ZM3.57266 206.412V191.787H1.57266V206.412H3.57266ZM3.57266 177.162V162.537H1.57266V177.162H3.57266ZM3.57266 147.912V133.287H1.57266V147.912H3.57266ZM3.57266 118.662V104.037H1.57266V118.662H3.57266ZM3.57266 89.4125V74.7875H1.57266V89.4125H3.57266ZM3.57266 60.1625V45.5375H1.57266V60.1625H3.57266ZM3.57266 30.9125V23.6H1.57266V30.9125H3.57266ZM3.57266 23.6C3.57266 22.1389 3.66211 20.7572 3.83934 19.4538L1.85757 19.1843C1.66707 20.5854 1.57266 22.0577 1.57266 23.6H3.57266ZM6.40179 11.7413C7.09844 10.5736 7.92413 9.51274 8.87977 8.5571L7.46555 7.14289C6.3925 8.21594 5.46508 9.40774 4.68424 10.7166L6.40179 11.7413ZM8.85802 8.5782C9.86666 7.62889 10.9703 6.80737 12.1702 6.11276L11.1682 4.38186C9.83537 5.15343 8.60798 6.06703 7.48729 7.1218L8.85802 8.5782ZM20.0517 3.52448C21.3841 3.34201 22.7908 3.24998 24.2727 3.24998V1.24998C22.7082 1.24998 21.2105 1.34712 19.7803 1.54298L20.0517 3.52448ZM24.2727 3.24998H31.4477V1.24998H24.2727V3.24998ZM45.7977 3.24998H60.1477V1.24998H45.7977V3.24998ZM74.4977 3.24998H88.8477V1.24998H74.4977V3.24998ZM103.198 3.24998H110.373V1.24998H103.198V3.24998ZM110.373 3.24998C113.183 3.24998 115.925 3.32601 118.599 3.47791L118.713 1.48113C115.999 1.32698 113.219 1.24998 110.373 1.24998V3.24998ZM134.885 5.50401C140.491 6.62627 145.721 8.16647 150.576 10.1222L151.324 8.26704C146.343 6.26123 140.994 4.68732 135.277 3.54292L134.885 5.50401ZM164.928 17.8561C167.164 19.4248 169.288 21.1199 171.302 22.9415L172.644 21.4585C170.569 19.5812 168.38 17.8346 166.076 16.2188L164.928 17.8561ZM171.308 22.9474C173.213 24.6402 174.991 26.4236 176.643 28.2976L178.143 26.9749C176.436 25.039 174.601 23.1982 172.637 21.4526L171.308 22.9474ZM185.118 40.7614C187.35 45.1265 189.112 49.8434 190.4 54.9147L192.338 54.4223C191.016 49.2154 189.203 44.3572 186.899 39.8507L185.118 40.7614ZM192.757 69.8931C192.934 72.3624 193.023 74.8979 193.023 77.5H195.023C195.023 74.8526 194.933 72.2692 194.752 69.7501L192.757 69.8931ZM193.023 77.5C193.023 80.1133 192.933 82.661 192.755 85.1432L194.75 85.2867C194.932 82.7545 195.023 80.1588 195.023 77.5H193.023ZM190.383 100.194C189.091 105.283 187.325 110.026 185.088 114.424L186.871 115.331C189.179 110.793 190.995 105.91 192.321 100.687L190.383 100.194ZM176.623 126.99C174.974 128.884 173.201 130.69 171.302 132.408L172.644 133.892C174.6 132.121 176.43 130.258 178.132 128.302L176.623 126.99ZM171.302 132.408C169.288 134.23 167.164 135.925 164.928 137.494L166.076 139.131C168.38 137.515 170.569 135.769 172.644 133.892L171.302 132.408ZM150.576 145.228C145.721 147.184 140.491 148.724 134.885 149.846L135.277 151.807C140.994 150.663 146.343 149.089 151.324 147.083L150.576 145.228ZM118.599 151.872C115.925 152.024 113.183 152.1 110.373 152.1V154.1C113.219 154.1 115.999 154.023 118.713 153.869L118.599 151.872ZM110.373 152.1H102.541V154.1H110.373V152.1ZM86.8789 152.1H71.2164V154.1H86.8789V152.1ZM55.5539 152.1H47.7227V154.1H55.5539V152.1ZM46.7227 153.1V159.371H48.7227V153.1H46.7227ZM46.7227 171.912V184.454H48.7227V171.912H46.7227ZM46.7227 196.996V209.537H48.7227V196.996H46.7227ZM46.7227 222.079V228.35H48.7227V222.079H46.7227ZM46.7227 228.35C46.7227 229.909 46.6154 231.39 46.4028 232.794L48.3802 233.094C48.6091 231.582 48.7227 230.001 48.7227 228.35H46.7227ZM43.447 241.025C42.675 242.254 41.7651 243.393 40.7156 244.443L42.1298 245.857C43.2833 244.704 44.2875 243.447 45.1408 242.088L43.447 241.025ZM40.7156 244.443C39.7064 245.452 38.5944 246.325 37.3786 247.063L38.416 248.773C39.7693 247.951 41.0076 246.979 42.1298 245.857L40.7156 244.443ZM29.3131 249.811C27.9464 250.003 26.5 250.1 24.9727 250.1V252.1C26.5844 252.1 28.1244 251.998 29.5918 251.791L29.3131 249.811ZM104.773 117.45H97.6414V119.45H104.773V117.45ZM83.3789 117.45H69.1164V119.45H83.3789V117.45ZM54.8539 117.45H47.7227V119.45H54.8539V117.45ZM48.7227 118.45V111.683H46.7227V118.45H48.7227ZM48.7227 98.15V84.6167H46.7227V98.15H48.7227ZM48.7227 71.0833V57.55H46.7227V71.0833H48.7227ZM48.7227 44.0167V37.25H46.7227V44.0167H48.7227ZM47.7227 38.25H54.8539V36.25H47.7227V38.25ZM69.1164 38.25H83.3789V36.25H69.1164V38.25ZM97.6414 38.25H104.773V36.25H97.6414V38.25ZM104.773 38.25C107.847 38.25 110.762 38.384 113.519 38.6512L113.712 36.6605C110.884 36.3865 107.904 36.25 104.773 36.25V38.25ZM130.34 42.7243C135.986 45.2058 140.407 48.7106 143.64 53.2299L145.266 52.0664C141.805 47.2261 137.086 43.5046 131.145 40.8934L130.34 42.7243ZM149.714 69.1714C150.119 71.8792 150.323 74.7715 150.323 77.85H152.323C152.323 74.6839 152.113 71.692 151.692 68.8756L149.714 69.1714ZM150.323 77.85C150.323 80.9284 150.119 83.8208 149.714 86.5286L151.692 86.8243C152.113 84.008 152.323 81.016 152.323 77.85H150.323ZM143.64 102.47C140.407 106.989 135.986 110.494 130.34 112.976L131.145 114.807C137.086 112.195 141.805 108.474 145.266 103.634L143.64 102.47ZM113.519 117.049C110.762 117.316 107.847 117.45 104.773 117.45V119.45C107.904 119.45 110.884 119.313 113.712 119.039L113.519 117.049ZM8.52266 245.15L7.06863 246.523L7.10787 246.565L7.14941 246.604L8.52266 245.15ZM8.17266 7.85L6.80193 6.3936L6.77987 6.41436L6.75845 6.43578L8.17266 7.85ZM171.973 22.2L170.631 23.6831L170.637 23.689L170.644 23.6948L171.973 22.2ZM171.973 133.15L170.631 131.667L170.631 131.667L171.973 133.15ZM47.7227 153.1V151.1H45.7227V153.1H47.7227ZM41.4227 245.15L40.0084 243.736L40.0084 243.736L41.4227 245.15ZM47.7227 37.25V35.25H45.7227V37.25H47.7227ZM47.7227 118.45H45.7227V120.45H47.7227V118.45ZM24.9727 249.1C23.5044 249.1 22.1125 249.001 20.795 248.806L20.2098 252.763C21.7364 252.989 23.3247 253.1 24.9727 253.1V249.1ZM13.1165 246.144C11.966 245.453 10.8928 244.638 9.8959 243.696L7.14941 246.604C8.35223 247.74 9.65486 248.73 11.0562 249.573L13.1165 246.144ZM9.97668 243.777C9.0252 242.769 8.20198 241.675 7.50477 240.492L4.05856 242.522C4.90883 243.965 5.91294 245.3 7.06863 246.523L9.97668 243.777ZM4.86015 232.625C4.66957 231.279 4.57266 229.855 4.57266 228.35H0.572658C0.572658 230.026 0.680579 231.639 0.89968 233.186L4.86015 232.625ZM4.57266 228.35V221.037H0.572658V228.35H4.57266ZM4.57266 206.412V191.787H0.572658V206.412H4.57266ZM4.57266 177.162V162.537H0.572658V177.162H4.57266ZM4.57266 147.912V133.287H0.572658V147.912H4.57266ZM4.57266 118.662V104.037H0.572658V118.662H4.57266ZM4.57266 89.4125V74.7875H0.572658V89.4125H4.57266ZM4.57266 60.1625V45.5375H0.572658V60.1625H4.57266ZM4.57266 30.9125V23.6H0.572658V30.9125H4.57266ZM4.57266 23.6C4.57266 22.1796 4.65964 20.8431 4.83022 19.5885L0.866691 19.0496C0.669546 20.4995 0.572658 22.017 0.572658 23.6H4.57266ZM7.26057 12.2536C7.91512 11.1565 8.68995 10.1611 9.58687 9.26421L6.75845 6.43578C5.62668 7.56755 4.6484 8.82482 3.82546 10.2042L7.26057 12.2536ZM9.54339 9.30639C10.496 8.40981 11.5378 7.63433 12.6712 6.97821L10.6672 3.51641C9.2679 4.32646 7.97864 5.2861 6.80193 6.3936L9.54339 9.30639ZM20.1874 4.51523C21.4709 4.33946 22.832 4.24998 24.2727 4.24998V0.249985C22.667 0.249985 21.1237 0.349677 19.6446 0.552223L20.1874 4.51523ZM24.2727 4.24998H31.4477V0.249985H24.2727V4.24998ZM45.7977 4.24998H60.1477V0.249985H45.7977V4.24998ZM74.4977 4.24998H88.8477V0.249985H74.4977V4.24998ZM103.198 4.24998H110.373V0.249985H103.198V4.24998ZM110.373 4.24998C113.165 4.24998 115.888 4.32552 118.542 4.4763L118.769 0.482736C116.036 0.32747 113.237 0.249985 110.373 0.249985V4.24998ZM134.688 6.48456C140.239 7.59575 145.409 9.1191 150.203 11.0498L151.697 7.33944C146.655 5.3086 141.245 3.71785 135.473 2.56238L134.688 6.48456ZM164.353 18.6748C166.556 20.2199 168.648 21.8893 170.631 23.6831L173.314 20.7169C171.209 18.8118 168.987 17.0396 166.651 15.4002L164.353 18.6748ZM170.644 23.6948C172.519 25.3612 174.268 27.1159 175.893 28.959L178.893 26.3136C177.159 24.3467 175.295 22.4772 173.301 20.7052L170.644 23.6948ZM184.228 41.2167C186.424 45.5112 188.16 50.1574 189.431 55.1609L193.308 54.1761C191.968 48.9013 190.13 43.9725 187.789 39.3954L184.228 41.2167ZM191.76 69.9646C191.935 72.4089 192.023 74.9206 192.023 77.5H196.023C196.023 74.8299 195.932 72.2227 195.749 69.6786L191.76 69.9646ZM192.023 77.5C192.023 80.0905 191.934 82.6142 191.757 85.0715L195.747 85.3585C195.931 82.8012 196.023 80.1816 196.023 77.5H192.023ZM189.414 99.9483C188.139 104.97 186.398 109.642 184.197 113.971L187.762 115.784C190.106 111.176 191.947 106.224 193.291 100.933L189.414 99.9483ZM175.869 126.333C174.247 128.197 172.501 129.975 170.631 131.667L173.314 134.633C175.3 132.836 177.158 130.945 178.886 128.959L175.869 126.333ZM170.631 131.667C168.648 133.461 166.556 135.13 164.353 136.675L166.651 139.95C168.987 138.31 171.209 136.538 173.314 134.633L170.631 131.667ZM150.203 144.3C145.409 146.231 140.239 147.754 134.688 148.865L135.473 152.788C141.245 151.632 146.655 150.041 151.697 148.011L150.203 144.3ZM118.542 150.874C115.888 151.024 113.165 151.1 110.373 151.1V155.1C113.237 155.1 116.036 155.023 118.769 154.867L118.542 150.874ZM110.373 151.1H102.541V155.1H110.373V151.1ZM86.8789 151.1H71.2164V155.1H86.8789V151.1ZM55.5539 151.1H47.7227V155.1H55.5539V151.1ZM45.7227 153.1V159.371H49.7227V153.1H45.7227ZM45.7227 171.912V184.454H49.7227V171.912H45.7227ZM45.7227 196.996V209.537H49.7227V196.996H45.7227ZM45.7227 222.079V228.35H49.7227V222.079H45.7227ZM45.7227 228.35C45.7227 229.863 45.6186 231.294 45.4141 232.644L49.369 233.243C49.606 231.678 49.7227 230.046 49.7227 228.35H45.7227ZM42.6001 240.493C41.8688 241.658 41.006 242.738 40.0084 243.736L42.8369 246.564C44.0424 245.359 45.0937 244.044 45.9876 242.62L42.6001 240.493ZM40.0084 243.736C39.0557 244.688 38.007 245.512 36.8599 246.208L38.9347 249.627C40.3567 248.765 41.6582 247.743 42.8369 246.564L40.0084 243.736ZM29.1737 248.82C27.8574 249.006 26.4578 249.1 24.9727 249.1V253.1C26.6266 253.1 28.2134 252.995 29.7311 252.781L29.1737 248.82ZM104.773 116.45H97.6414V120.45H104.773V116.45ZM83.3789 116.45H69.1164V120.45H83.3789V116.45ZM54.8539 116.45H47.7227V120.45H54.8539V116.45ZM49.7227 118.45V111.683H45.7227V118.45H49.7227ZM49.7227 98.15V84.6167H45.7227V98.15H49.7227ZM49.7227 71.0833V57.55H45.7227V71.0833H49.7227ZM49.7227 44.0167V37.25H45.7227V44.0167H49.7227ZM47.7227 39.25H54.8539V35.25H47.7227V39.25ZM69.1164 39.25H83.3789V35.25H69.1164V39.25ZM97.6414 39.25H104.773V35.25H97.6414V39.25ZM104.773 39.25C107.818 39.25 110.701 39.3828 113.423 39.6465L113.808 35.6652C110.945 35.3878 107.933 35.25 104.773 35.25V39.25ZM129.938 43.6398C135.436 46.0564 139.709 49.4528 142.826 53.8116L146.08 51.4847C142.503 46.4839 137.636 42.654 131.548 39.9779L129.938 43.6398ZM148.725 69.3192C149.122 71.9728 149.323 74.8154 149.323 77.85H153.323C153.323 74.6401 153.11 71.5984 152.681 68.7278L148.725 69.3192ZM149.323 77.85C149.323 80.8846 149.122 83.7272 148.725 86.3808L152.681 86.9722C153.11 84.1016 153.323 81.0598 153.323 77.85H149.323ZM142.826 101.888C139.709 106.247 135.436 109.644 129.938 112.06L131.548 115.722C137.636 113.046 142.503 109.216 146.08 104.215L142.826 101.888ZM113.423 116.053C110.701 116.317 107.818 116.45 104.773 116.45V120.45C107.933 120.45 110.945 120.312 113.808 120.035L113.423 116.053Z" fill="black"/>
</svg>
