<svg width="180" height="245" viewBox="0 0 180 245" fill="none" xmlns="http://www.w3.org/2000/svg">
<path d="M155.647 3.35C162.181 3.35 167.431 5.21666 171.397 8.95C175.364 12.6833 177.347 17.7 177.347 24V222.45C177.347 228.517 175.247 233.417 171.047 237.15C166.847 240.883 161.481 242.75 154.947 242.75C148.414 242.75 143.164 240.883 139.197 237.15C135.464 233.65 133.597 228.983 133.597 223.15V151.05C128.464 160.383 120.997 167.733 111.197 173.1C101.631 178.233 90.7808 180.8 78.6475 180.8C63.7141 180.8 50.5308 177.183 39.0975 169.95C27.6641 162.717 18.6808 152.45 12.1475 139.15C5.84746 125.85 2.69746 110.333 2.69746 92.6C2.69746 74.8667 5.84746 59.2333 12.1475 45.7C18.6808 31.9333 27.6641 21.3167 39.0975 13.85C50.7641 6.38332 63.9475 2.64998 78.6475 2.64998C91.0141 2.64998 101.981 5.33332 111.547 10.7C121.347 15.8333 128.814 23.1833 133.947 32.75V24C133.947 17.7 135.931 12.6833 139.897 8.95C143.864 5.21666 149.114 3.35 155.647 3.35ZM90.5475 146.85C104.314 146.85 114.931 142.067 122.397 132.5C130.097 122.933 133.947 109.4 133.947 91.9C133.947 74.1667 130.097 60.5167 122.397 50.95C114.931 41.3833 104.197 36.6 90.1975 36.6C76.4308 36.6 65.6975 41.5 57.9975 51.3C50.2975 61.1 46.4475 74.8667 46.4475 92.6C46.4475 109.867 50.2975 123.283 57.9975 132.85C65.6975 142.183 76.5475 146.85 90.5475 146.85Z" fill="#F5F5F5"/>
<path d="M171.397 8.95L172.083 8.2218L172.083 8.2218L171.397 8.95ZM171.047 237.15L171.712 237.897L171.712 237.897L171.047 237.15ZM139.197 237.15L139.883 236.422L139.881 236.42L139.197 237.15ZM133.597 151.05H134.597L132.721 150.568L133.597 151.05ZM111.197 173.1L111.67 173.981L111.678 173.977L111.197 173.1ZM39.0975 169.95L38.5628 170.795L38.5628 170.795L39.0975 169.95ZM12.1475 139.15L11.2437 139.578L11.2468 139.585L11.2499 139.591L12.1475 139.15ZM12.1475 45.7L11.244 45.2712L11.2409 45.278L12.1475 45.7ZM39.0975 13.85L38.5584 13.0077L38.5507 13.0127L39.0975 13.85ZM111.547 10.7L111.058 11.5721L111.071 11.5792L111.083 11.5858L111.547 10.7ZM133.947 32.75L133.066 33.2228L134.947 32.75H133.947ZM139.897 8.95L139.212 8.2218L139.212 8.2218L139.897 8.95ZM122.397 132.5L121.618 131.873L121.614 131.879L121.609 131.885L122.397 132.5ZM122.397 50.95L121.609 51.5653L121.614 51.5712L121.618 51.577L122.397 50.95ZM57.9975 51.3L57.2111 50.6822L57.9975 51.3ZM57.9975 132.85L57.2184 133.477L57.2261 133.486L57.9975 132.85ZM155.647 2.35C154.113 2.35 152.642 2.45 151.234 2.65165L151.518 4.63145C152.824 4.44436 154.2 4.35 155.647 4.35V2.35ZM142.805 5.51854C141.513 6.28274 140.315 7.18422 139.212 8.2218L140.583 9.6782C141.579 8.74087 142.659 7.92862 143.823 7.24027L142.805 5.51854ZM139.212 8.2218C138.128 9.24244 137.181 10.3571 136.375 11.5656L138.039 12.6756C138.758 11.597 139.606 10.598 140.583 9.6782L139.212 8.2218ZM133.276 19.6902C133.056 21.0626 132.947 22.4996 132.947 24H134.947C134.947 22.5962 135.049 21.2655 135.251 20.0065L133.276 19.6902ZM132.947 24V26.1875H134.947V24H132.947ZM132.947 30.5625V32.75H134.947V30.5625H132.947ZM134.829 32.2772C133.528 29.8532 132.079 27.5671 130.481 25.4195L128.877 26.6132C130.414 28.6798 131.811 30.8828 133.066 33.2228L134.829 32.2772ZM118.922 14.066C116.759 12.5116 114.456 11.0944 112.011 9.81416L111.083 11.5858C113.448 12.8242 115.671 14.1924 117.755 15.6901L118.922 14.066ZM112.037 9.82785C109.509 8.40975 106.885 7.17604 104.166 6.12676L103.446 7.99268C106.077 9.00783 108.614 10.201 111.058 11.5721L112.037 9.82785ZM87.3026 2.10695C84.4944 1.80212 81.6093 1.64998 78.6475 1.64998V3.64998C81.5408 3.64998 84.3538 3.7986 87.0868 4.09527L87.3026 2.10695ZM78.6475 1.64998C75.0533 1.64998 71.5458 1.87063 68.1256 2.3126L68.3819 4.29611C71.7135 3.86559 75.1353 3.64998 78.6475 3.64998V1.64998ZM47.8451 7.98249C44.6498 9.41516 41.5542 11.0904 38.5584 13.0077L39.6365 14.6923C42.5506 12.8272 45.5595 11.1991 48.6634 9.80744L47.8451 7.98249ZM38.5507 13.0127C35.5524 14.9708 32.72 17.1426 30.0538 19.5279L31.3874 21.0184C33.9782 18.7005 36.7304 16.5902 39.6443 14.6873L38.5507 13.0127ZM16.3648 35.9011C14.5169 38.8476 12.8101 41.9713 11.244 45.2712L13.0509 46.1287C14.5853 42.8956 16.2548 39.8408 18.0592 36.9637L16.3648 35.9011ZM11.2409 45.278C10.3884 47.1091 9.59319 48.978 8.8551 50.8844L10.7202 51.6065C11.4425 49.7408 12.2205 47.9126 13.054 46.122L11.2409 45.278ZM5.18321 62.4896C4.21797 66.339 3.45359 70.3196 2.88958 74.4309L4.87102 74.7028C5.42559 70.6603 6.17646 66.7515 7.12315 62.976L5.18321 62.4896ZM1.82303 86.5303C1.7393 88.5262 1.69746 90.5494 1.69746 92.6H3.69746C3.69746 90.5766 3.73875 88.5813 3.82127 86.6141L1.82303 86.5303ZM1.69746 92.6C1.69746 94.6378 1.73878 96.6471 1.82147 98.6279L3.81973 98.5444C3.73823 96.5922 3.69746 94.6107 3.69746 92.6H1.69746ZM2.87843 110.644C3.4396 114.735 4.20102 118.688 5.16324 122.503L7.10251 122.014C6.15924 118.274 5.41152 114.394 4.85987 110.372L2.87843 110.644ZM8.8427 134.021C9.58507 135.914 10.3854 137.766 11.2437 139.578L13.0512 138.722C12.2127 136.952 11.4305 135.141 10.7046 133.291L8.8427 134.021ZM11.2499 139.591C12.828 142.803 14.5488 145.844 16.4128 148.711L18.0896 147.62C16.2712 144.824 14.5896 141.853 13.045 138.709L11.2499 139.591ZM30.1254 164.539C32.7745 166.827 35.5871 168.912 38.5628 170.795L39.6321 169.105C36.7395 167.275 34.0066 165.248 31.4328 163.025L30.1254 164.539ZM38.5628 170.795C41.5477 172.683 44.6507 174.329 47.8715 175.732L48.6702 173.898C45.5437 172.537 42.5311 170.939 39.6321 169.105L38.5628 170.795ZM68.1559 181.177C71.5557 181.593 75.053 181.8 78.6475 181.8V179.8C75.13 179.8 71.7138 179.597 68.3985 179.192L68.1559 181.177ZM78.6475 181.8C81.565 181.8 84.4117 181.653 87.1872 181.359L86.9767 179.371C84.2742 179.657 81.4979 179.8 78.6475 179.8V181.8ZM103.851 177.511C106.545 176.509 109.151 175.333 111.67 173.981L110.725 172.219C108.286 173.527 105.763 174.666 103.154 175.636L103.851 177.511ZM111.678 173.977C114.094 172.654 116.373 171.211 118.514 169.647L117.334 168.032C115.266 169.542 113.061 170.94 110.717 172.223L111.678 173.977ZM130.067 158.335C131.688 156.195 133.157 153.927 134.474 151.532L132.721 150.568C131.45 152.88 130.034 155.066 128.472 157.128L130.067 158.335ZM132.597 151.05V160.062H134.597V151.05H132.597ZM132.597 178.087V196.113H134.597V178.087H132.597ZM132.597 214.138V223.15H134.597V214.138H132.597ZM132.597 223.15C132.597 224.552 132.701 225.895 132.911 227.18L134.885 226.857C134.694 225.688 134.597 224.453 134.597 223.15H132.597ZM135.85 234.764C136.608 235.888 137.497 236.926 138.514 237.88L139.881 236.42C138.97 235.566 138.179 234.641 137.507 233.645L135.85 234.764ZM138.512 237.878C139.615 238.916 140.813 239.817 142.105 240.581L143.123 238.86C141.959 238.171 140.879 237.359 139.883 236.422L138.512 237.878ZM150.534 243.448C151.942 243.65 153.413 243.75 154.947 243.75V241.75C153.5 241.75 152.124 241.656 150.818 241.469L150.534 243.448ZM154.947 243.75C156.503 243.75 158 243.647 159.438 243.44L159.153 241.46C157.817 241.653 156.415 241.75 154.947 241.75V243.75ZM168.013 240.562C169.33 239.807 170.563 238.918 171.712 237.897L170.383 236.403C169.336 237.333 168.215 238.141 167.018 238.827L168.013 240.562ZM171.712 237.897C172.821 236.911 173.796 235.843 174.632 234.693L173.014 233.517C172.267 234.545 171.391 235.507 170.383 236.403L171.712 237.897ZM177.979 226.736C178.226 225.368 178.347 223.939 178.347 222.45H176.347C176.347 223.83 176.234 225.14 176.011 226.381L177.979 226.736ZM178.347 222.45V215.363H176.347V222.45H178.347ZM178.347 201.188V187.013H176.347V201.188H178.347ZM178.347 172.837V158.662H176.347V172.837H178.347ZM178.347 144.487V130.312H176.347V144.487H178.347ZM178.347 116.137V101.962H176.347V116.137H178.347ZM178.347 87.7875V73.6125H176.347V87.7875H178.347ZM178.347 59.4375V45.2625H176.347V59.4375H178.347ZM178.347 31.0875V24H176.347V31.0875H178.347ZM178.347 24C178.347 22.4996 178.239 21.0626 178.019 19.6902L176.044 20.0065C176.246 21.2655 176.347 22.5962 176.347 24H178.347ZM174.92 11.5656C174.114 10.3571 173.167 9.24244 172.083 8.2218L170.712 9.6782C171.689 10.598 172.537 11.597 173.256 12.6756L174.92 11.5656ZM172.083 8.2218C170.98 7.18422 169.782 6.28274 168.489 5.51854L167.472 7.24027C168.636 7.92862 169.716 8.74087 170.712 9.6782L172.083 8.2218ZM160.061 2.65165C158.653 2.45 157.182 2.35 155.647 2.35V4.35C157.095 4.35 158.471 4.44436 159.777 4.63145L160.061 2.65165ZM90.5475 145.85C87.3879 145.85 84.3996 145.608 81.5812 145.128L81.2451 147.1C84.1849 147.601 87.2862 147.85 90.5475 147.85V145.85ZM65.2142 138.363C62.8634 136.621 60.7149 134.572 58.7688 132.214L57.2261 133.486C59.2712 135.965 61.5369 138.127 64.0236 139.97L65.2142 138.363ZM58.7765 132.223C56.6499 129.581 54.8206 126.634 53.2901 123.377L51.4801 124.228C53.0744 127.62 54.9867 130.704 57.2185 133.477L58.7765 132.223ZM47.9812 103.148C47.6257 99.8151 47.4475 96.2993 47.4475 92.6H45.4475C45.4475 96.3632 45.6288 99.9502 45.9924 103.36L47.9812 103.148ZM47.4475 92.6C47.4475 88.8122 47.6246 85.2119 47.9778 81.7984L45.9884 81.5926C45.6274 85.0809 45.4475 88.7502 45.4475 92.6H47.4475ZM53.2712 61.0402C54.8075 57.6786 56.6457 54.639 58.7838 51.9178L57.2111 50.6822C54.9692 53.5356 53.0502 56.7124 51.4522 60.2089L53.2712 61.0402ZM58.7838 51.9178C60.6916 49.4896 62.7855 47.3753 65.0646 45.5712L63.8233 44.003C61.4142 45.91 59.2104 48.1376 57.2111 50.6822L58.7838 51.9178ZM81.2409 38.3831C84.0566 37.862 87.0415 37.6 90.1975 37.6V35.6C86.931 35.6 83.8235 35.8712 80.877 36.4165L81.2409 38.3831ZM90.1975 37.6C93.3527 37.6 96.3305 37.847 99.1324 38.3381L99.4777 36.3682C96.5508 35.8551 93.4568 35.6 90.1975 35.6V37.6ZM115.34 45.2806C117.638 47.061 119.728 49.1547 121.609 51.5653L123.186 50.3347C121.207 47.7995 119 45.5865 116.565 43.6996L115.34 45.2806ZM121.618 51.577C123.767 54.246 125.612 57.2464 127.153 60.5824L128.969 59.7438C127.364 56.2693 125.434 53.1277 123.176 50.323L121.618 51.577ZM132.424 81.1766C132.772 84.5608 132.947 88.1351 132.947 91.9H134.947C134.947 88.0735 134.77 84.4304 134.413 80.9715L132.424 81.1766ZM132.947 91.9C132.947 95.6321 132.771 99.1772 132.419 102.536L134.408 102.744C134.768 99.3099 134.947 95.6949 134.947 91.9H132.947ZM127.129 122.948C125.593 126.244 123.756 129.217 121.618 131.873L123.176 133.127C125.421 130.338 127.342 127.225 128.942 123.792L127.129 122.948ZM121.609 131.885C119.741 134.279 117.674 136.36 115.411 138.132L116.644 139.707C119.042 137.83 121.222 135.631 123.186 133.115L121.609 131.885ZM99.3948 145.102C96.6182 145.6 93.6697 145.85 90.5475 145.85V147.85C93.7763 147.85 96.8436 147.591 99.7476 147.071L99.3948 145.102ZM171.397 8.95L172.768 7.4936L172.768 7.4936L171.397 8.95ZM171.047 237.15L172.376 238.645L172.376 238.645L171.047 237.15ZM139.197 237.15L140.568 235.694L140.565 235.691L139.197 237.15ZM133.597 151.05H135.597L131.845 150.086L133.597 151.05ZM111.197 173.1L112.143 174.862L112.151 174.858L112.158 174.854L111.197 173.1ZM39.0975 169.95L38.0282 171.64L38.0282 171.64L39.0975 169.95ZM12.1475 139.15L10.34 140.006L10.3461 140.019L10.3524 140.032L12.1475 139.15ZM12.1475 45.7L10.3406 44.8425L10.3374 44.8492L10.3343 44.8559L12.1475 45.7ZM39.0975 13.85L38.0194 12.1655L38.0116 12.1704L38.0039 12.1755L39.0975 13.85ZM111.547 10.7L110.569 12.4443L110.594 12.4583L110.619 12.4717L111.547 10.7ZM133.947 32.75L132.185 33.6956L135.947 32.75H133.947ZM139.897 8.95L138.527 7.4936L138.527 7.4936L139.897 8.95ZM122.397 132.5L120.839 131.246L120.83 131.258L120.821 131.269L122.397 132.5ZM122.397 50.95L120.821 52.1805L120.83 52.1923L120.839 52.204L122.397 50.95ZM57.9975 51.3L56.4248 50.0644L57.9975 51.3ZM57.9975 132.85L56.4394 134.104L56.447 134.113L56.4547 134.123L57.9975 132.85ZM155.647 1.35C154.07 1.35 152.551 1.45282 151.092 1.66175L151.659 5.62134C152.915 5.44153 154.243 5.35 155.647 5.35V1.35ZM142.297 4.65768C140.94 5.4598 139.682 6.4059 138.527 7.4936L141.268 10.4064C142.211 9.51919 143.232 8.75156 144.332 8.10113L142.297 4.65768ZM138.527 7.4936C137.389 8.56468 136.393 9.73716 135.543 11.0106L138.87 13.2306C139.547 12.217 140.345 11.2757 141.268 10.4064L138.527 7.4936ZM132.289 19.5321C132.06 20.9612 131.947 22.4513 131.947 24H135.947C135.947 22.6445 136.046 21.3669 136.238 20.1646L132.289 19.5321ZM131.947 24V26.1875H135.947V24H131.947ZM131.947 30.5625V32.75H135.947V30.5625H131.947ZM135.71 31.8044C134.387 29.3385 132.911 27.0107 131.284 24.8226L128.074 27.21C129.582 29.2362 130.952 31.3976 132.185 33.6956L135.71 31.8044ZM119.506 13.254C117.304 11.6711 114.96 10.2295 112.475 8.92833L110.619 12.4717C112.944 13.6891 115.127 15.0328 117.171 16.5021L119.506 13.254ZM112.526 8.95571C109.956 7.51414 107.289 6.26014 104.526 5.1938L103.086 8.92564C105.672 9.92373 108.167 11.0966 110.569 12.4443L112.526 8.95571ZM87.4105 1.11279C84.5647 0.803878 81.6435 0.649984 78.6475 0.649984V4.64998C81.5065 4.64998 84.2834 4.79684 86.9789 5.08943L87.4105 1.11279ZM78.6475 0.649984C75.0123 0.649984 71.462 0.873148 67.9974 1.32084L68.51 5.28786C71.7974 4.86307 75.1762 4.64998 78.6475 4.64998V0.649984ZM47.436 7.07001C44.195 8.52318 41.056 10.222 38.0194 12.1655L40.1756 15.5345C43.0489 13.6956 46.0144 12.0911 49.0725 10.7199L47.436 7.07001ZM38.0039 12.1755C34.9634 14.1611 32.0909 16.3636 29.3871 18.7826L32.0541 21.7637C34.6073 19.4795 37.3194 17.3999 40.191 15.5245L38.0039 12.1755ZM15.5176 35.3698C13.6479 38.3511 11.9226 41.5091 10.3406 44.8425L13.9543 46.5575C15.4728 43.3578 17.1238 40.3374 18.9063 37.495L15.5176 35.3698ZM10.3343 44.8559C9.47241 46.7074 8.66851 48.5966 7.92255 50.5234L11.6528 51.9676C12.3672 50.1222 13.1365 48.3144 13.9606 46.5441L10.3343 44.8559ZM4.21324 62.2463C3.23873 66.1328 2.4676 70.1492 1.89886 74.295L5.86175 74.8387C6.41158 70.8306 7.1557 66.9577 8.09312 63.2192L4.21324 62.2463ZM0.823907 86.4884C0.739579 88.4986 0.697462 90.5358 0.697462 92.6H4.69746C4.69746 90.5902 4.73847 88.6089 4.82039 86.656L0.823907 86.4884ZM0.697462 92.6C0.697462 94.6513 0.739055 96.6745 0.822339 98.6696L4.81886 98.5027C4.73796 96.5648 4.69746 94.5972 4.69746 92.6H0.697462ZM1.88771 110.78C2.45364 114.906 3.22191 118.895 4.19361 122.748L8.07214 121.77C7.13835 118.067 6.39747 114.223 5.8506 110.236L1.88771 110.78ZM7.91176 134.387C8.66236 136.3 9.47174 138.173 10.34 140.006L13.9549 138.294C13.1264 136.545 12.3532 134.755 11.6355 132.926L7.91176 134.387ZM10.3524 140.032C11.9472 143.279 13.6876 146.354 15.5744 149.256L18.928 147.075C17.1324 144.314 15.4703 141.378 13.9426 138.268L10.3524 140.032ZM29.4717 165.295C32.1585 167.616 35.0109 169.731 38.0282 171.64L40.1667 168.26C37.3157 166.456 34.6226 164.459 32.0865 162.268L29.4717 165.295ZM38.0282 171.64C41.056 173.556 44.2043 175.226 47.4722 176.649L49.0695 172.982C45.9901 171.64 43.0228 170.067 40.1667 168.26L38.0282 171.64ZM68.0347 182.17C71.4767 182.59 75.0145 182.8 78.6475 182.8V178.8C75.1684 178.8 71.7928 178.599 68.5197 178.2L68.0347 182.17ZM78.6475 182.8C81.5985 182.8 84.4804 182.652 87.2925 182.354L86.8714 178.376C84.2055 178.658 81.4644 178.8 78.6475 178.8V182.8ZM104.2 178.448C106.936 177.431 109.584 176.236 112.143 174.862L110.252 171.338C107.854 172.624 105.372 173.745 102.806 174.699L104.2 178.448ZM112.158 174.854C114.611 173.511 116.926 172.045 119.104 170.455L116.744 167.224C114.713 168.708 112.544 170.082 110.237 171.346L112.158 174.854ZM130.864 158.939C132.515 156.759 134.01 154.45 135.35 152.014L131.845 150.086C130.597 152.356 129.207 154.502 127.675 156.524L130.864 158.939ZM131.597 151.05V160.062H135.597V151.05H131.597ZM131.597 178.087V196.113H135.597V178.087H131.597ZM131.597 214.138V223.15H135.597V214.138H131.597ZM131.597 223.15C131.597 224.601 131.705 225.999 131.925 227.341L135.872 226.696C135.69 225.584 135.597 224.403 135.597 223.15H131.597ZM135.021 235.324C135.822 236.511 136.76 237.606 137.83 238.609L140.565 235.691C139.706 234.886 138.965 234.017 138.336 233.086L135.021 235.324ZM137.827 238.606C138.982 239.694 140.24 240.64 141.597 241.442L143.632 237.999C142.532 237.348 141.511 236.581 140.568 235.694L137.827 238.606ZM150.392 244.438C151.851 244.647 153.37 244.75 154.947 244.75V240.75C153.543 240.75 152.215 240.658 150.959 240.479L150.392 244.438ZM154.947 244.75C156.547 244.75 158.092 244.644 159.581 244.43L159.01 240.471C157.725 240.656 156.371 240.75 154.947 240.75V244.75ZM168.51 241.43C169.888 240.64 171.177 239.711 172.376 238.645L169.719 235.655C168.722 236.541 167.657 237.308 166.52 237.96L168.51 241.43ZM172.376 238.645C173.537 237.613 174.56 236.492 175.441 235.281L172.205 232.929C171.502 233.896 170.675 234.805 169.719 235.655L172.376 238.645ZM178.963 226.913C179.221 225.483 179.347 223.994 179.347 222.45H175.347C175.347 223.776 175.239 225.026 175.027 226.204L178.963 226.913ZM179.347 222.45V215.363H175.347V222.45H179.347ZM179.347 201.188V187.013H175.347V201.188H179.347ZM179.347 172.837V158.662H175.347V172.837H179.347ZM179.347 144.487V130.312H175.347V144.487H179.347ZM179.347 116.137V101.962H175.347V116.137H179.347ZM179.347 87.7875V73.6125H175.347V87.7875H179.347ZM179.347 59.4375V45.2625H175.347V59.4375H179.347ZM179.347 31.0875V24H175.347V31.0875H179.347ZM179.347 24C179.347 22.4513 179.235 20.9612 179.006 19.5321L175.057 20.1646C175.249 21.3669 175.347 22.6445 175.347 24H179.347ZM175.752 11.0106C174.902 9.73717 173.906 8.56468 172.768 7.4936L170.027 10.4064C170.95 11.2757 171.748 12.217 172.424 13.2306L175.752 11.0106ZM172.768 7.4936C171.613 6.4059 170.355 5.4598 168.998 4.65768L166.963 8.10113C168.063 8.75156 169.084 9.51919 170.027 10.4064L172.768 7.4936ZM160.203 1.66175C158.744 1.45282 157.225 1.35 155.647 1.35V5.35C157.051 5.35 158.38 5.44153 159.636 5.62134L160.203 1.66175ZM90.5475 144.85C87.4387 144.85 84.507 144.612 81.7492 144.142L81.077 148.085C84.0775 148.597 87.2354 148.85 90.5475 148.85V144.85ZM65.8095 137.559C63.5266 135.868 61.4367 133.876 59.5402 131.577L56.4547 134.123C58.5493 136.662 60.8737 138.881 63.4283 140.773L65.8095 137.559ZM59.5555 131.596C57.4816 129.019 55.6937 126.14 54.1951 122.952L50.5751 124.653C52.2013 128.113 54.1551 131.266 56.4394 134.104L59.5555 131.596ZM48.9755 103.042C48.6242 99.7476 48.4475 96.2673 48.4475 92.6H44.4475C44.4475 96.3951 44.6303 100.018 44.9981 103.466L48.9755 103.042ZM48.4475 92.6C48.4475 88.8432 48.6231 85.2774 48.9725 81.9013L44.9937 81.4896C44.6289 85.0153 44.4475 88.7192 44.4475 92.6H48.4475ZM54.1807 61.4559C55.6862 58.1618 57.4839 55.1908 59.5701 52.5356L56.4248 50.0644C54.1309 52.9838 52.1715 56.2292 50.5427 59.7933L54.1807 61.4559ZM59.5701 52.5356C61.4322 50.1656 63.4712 48.1079 65.6853 46.3553L63.2026 43.219C60.7286 45.1774 58.4698 47.4616 56.4248 50.0644L59.5701 52.5356ZM81.4229 39.3664C84.1732 38.8574 87.0968 38.6 90.1975 38.6V34.6C86.8757 34.6 83.707 34.8758 80.695 35.4332L81.4229 39.3664ZM90.1975 38.6C93.3007 38.6 96.2203 38.8429 98.9597 39.3231L99.6504 35.3832C96.661 34.8592 93.5089 34.6 90.1975 34.6V38.6ZM114.727 46.0711C116.957 47.7983 118.988 49.8323 120.821 52.1805L123.974 49.7195C121.947 47.1218 119.681 44.8493 117.177 42.9091L114.727 46.0711ZM120.839 52.204C122.933 54.8051 124.736 57.7349 126.245 61.0016L129.876 59.3245C128.24 55.7808 126.268 52.5685 123.955 49.696L120.839 52.204ZM131.429 81.2791C131.774 84.626 131.947 88.1658 131.947 91.9H135.947C135.947 88.0427 135.768 84.3652 135.408 80.8689L131.429 81.2791ZM131.947 91.9C131.947 95.6008 131.772 99.1109 131.424 102.432L135.402 102.849C135.766 99.3763 135.947 95.7262 135.947 91.9H131.947ZM126.223 122.525C124.719 125.753 122.923 128.657 120.839 131.246L123.955 133.754C126.254 130.899 128.217 127.716 129.848 124.215L126.223 122.525ZM120.821 131.269C119 133.603 116.99 135.626 114.794 137.345L117.26 140.495C119.726 138.564 121.963 136.307 123.974 133.731L120.821 131.269ZM99.2184 144.118C96.5055 144.604 93.6164 144.85 90.5475 144.85V148.85C93.8296 148.85 96.9563 148.587 99.924 148.055L99.2184 144.118Z" fill="black"/>
</svg>
