<svg width="239" height="319" viewBox="0 0 239 319" fill="none" xmlns="http://www.w3.org/2000/svg">
<path d="M211.673 286.3C214.24 290.5 215.523 294.583 215.523 298.55C215.523 303.917 213.423 308.233 209.223 311.5C205.023 315 200.123 316.75 194.523 316.75C190.323 316.75 186.356 315.7 182.623 313.6C178.89 311.733 175.856 308.817 173.523 304.85L152.873 270.9C149.606 265.533 145.29 261.567 139.923 259C134.79 256.433 128.023 255.15 119.623 255.15C95.5897 255.15 74.7064 250.017 56.9731 239.75C39.473 229.483 25.9397 214.783 16.373 195.65C6.80638 176.517 2.02305 154.117 2.02305 128.45C2.02305 102.783 6.80638 80.5 16.373 61.6C25.9397 42.4667 39.473 27.7667 56.9731 17.5C74.7064 7.23332 95.5897 2.09998 119.623 2.09998C143.423 2.09998 164.073 7.23332 181.573 17.5C199.306 27.7667 212.956 42.4667 222.523 61.6C232.09 80.5 236.873 102.783 236.873 128.45C236.873 156.217 231.273 180.133 220.073 200.2C209.106 220.033 193.356 234.5 172.823 243.6C183.556 247.333 192.423 255.033 199.423 266.7L211.673 286.3ZM119.623 219.1C142.256 219.1 159.873 211.283 172.473 195.65C185.306 180.017 191.723 157.617 191.723 128.45C191.723 99.2833 185.306 77 172.473 61.6C159.873 45.9667 142.256 38.15 119.623 38.15C96.7564 38.15 78.9064 45.9667 66.0731 61.6C53.4731 77 47.1731 99.2833 47.1731 128.45C47.1731 157.617 53.4731 180.017 66.0731 195.65C78.9064 211.283 96.7564 219.1 119.623 219.1Z" fill="#F5F5F5"/>
<path d="M211.673 286.3L212.526 285.779L212.521 285.77L211.673 286.3ZM209.223 311.5L208.609 310.711L208.596 310.721L208.583 310.732L209.223 311.5ZM182.623 313.6L183.113 312.728L183.092 312.716L183.07 312.706L182.623 313.6ZM173.523 304.85L174.385 304.343L174.381 304.337L174.377 304.33L173.523 304.85ZM152.873 270.9L153.727 270.38L153.727 270.38L152.873 270.9ZM139.923 259L139.476 259.894L139.484 259.898L139.492 259.902L139.923 259ZM56.9731 239.75L56.467 240.613L56.472 240.615L56.9731 239.75ZM16.373 195.65L17.2675 195.203L17.2675 195.203L16.373 195.65ZM16.373 61.6L17.2653 62.0516L17.2675 62.0472L16.373 61.6ZM56.9731 17.5L56.472 16.6346L56.467 16.6375L56.9731 17.5ZM181.573 17.5L181.067 18.3625L181.072 18.3654L181.573 17.5ZM222.523 61.6L221.629 62.0472L221.631 62.0516L222.523 61.6ZM220.073 200.2L219.2 199.713L219.198 199.716L220.073 200.2ZM172.823 243.6L172.418 242.686L170.102 243.712L172.495 244.544L172.823 243.6ZM199.423 266.7L198.566 267.214L198.57 267.222L198.575 267.23L199.423 266.7ZM172.473 195.65L171.7 195.015L171.694 195.022L172.473 195.65ZM172.473 61.6L171.694 62.2275L171.7 62.2339L171.705 62.2402L172.473 61.6ZM66.0731 61.6L65.3001 60.9655L65.2991 60.9668L66.0731 61.6ZM66.0731 195.65L65.2944 196.278L65.3001 196.284L66.0731 195.65ZM212.521 285.77L209.459 280.87L207.763 281.93L210.825 286.83L212.521 285.77ZM203.334 271.07L200.271 266.17L198.575 267.23L201.638 272.13L203.334 271.07ZM200.281 266.186C198.655 263.476 196.928 260.974 195.097 258.679L193.534 259.926C195.305 262.147 196.982 264.575 198.566 267.214L200.281 266.186ZM181.471 246.543C178.832 244.962 176.058 243.667 173.152 242.656L172.495 244.544C175.272 245.511 177.922 246.749 180.444 248.259L181.471 246.543ZM173.228 244.514C175.768 243.389 178.236 242.181 180.633 240.892L179.685 239.131C177.335 240.395 174.912 241.58 172.418 242.686L173.228 244.514ZM194.465 231.93C198.822 228.56 202.867 224.839 206.598 220.768L205.124 219.416C201.469 223.404 197.508 227.047 193.241 230.348L194.465 231.93ZM216.697 207.744C218.186 205.47 219.603 203.117 220.948 200.684L219.198 199.716C217.876 202.106 216.485 204.417 215.024 206.649L216.697 207.744ZM220.946 200.687C222.465 197.967 223.881 195.176 225.195 192.316L223.378 191.481C222.085 194.294 220.693 197.038 219.2 199.713L220.946 200.687ZM231.731 174.736C233.441 168.879 234.793 162.78 235.788 156.44L233.812 156.13C232.83 162.39 231.496 168.405 229.811 174.176L231.731 174.736ZM237.655 137.809C237.8 134.739 237.873 131.619 237.873 128.45H235.873C235.873 131.588 235.801 134.677 235.657 137.715L237.655 137.809ZM237.873 128.45C237.873 125.517 237.811 122.627 237.687 119.781L235.688 119.868C235.811 122.685 235.873 125.545 235.873 128.45H237.873ZM236.092 102.511C235.243 96.6287 234.091 90.9581 232.634 85.4993L230.702 86.015C232.137 91.3942 233.274 96.9878 234.112 102.796L236.092 102.511ZM227.055 69.046C225.93 66.3519 224.717 63.7193 223.415 61.1484L221.631 62.0516C222.91 64.5786 224.103 67.167 225.21 69.8169L227.055 69.046ZM223.417 61.1528C222.257 58.8316 221.036 56.5745 219.756 54.3816L218.029 55.3901C219.287 57.5449 220.487 59.7639 221.629 62.0472L223.417 61.1528ZM211.087 41.6582C207.871 37.5979 204.389 33.8241 200.642 30.3373L199.28 31.8014C202.952 35.2186 206.365 38.918 209.52 42.9001L211.087 41.6582ZM188.598 20.7336C186.487 19.297 184.313 17.9307 182.074 16.6346L181.072 18.3654C183.269 19.6375 185.403 20.978 187.473 22.387L188.598 20.7336ZM182.079 16.6375C179.739 15.2646 177.343 13.9827 174.892 12.7917L174.018 14.5907C176.422 15.7589 178.772 17.0162 181.067 18.3625L182.079 16.6375ZM159.745 6.80896C154.666 5.22625 149.388 3.97318 143.912 3.04906L143.579 5.02118C148.971 5.931 154.161 7.16363 159.15 8.71839L159.745 6.80896ZM127.748 1.30434C125.081 1.16808 122.372 1.09998 119.623 1.09998V3.09998C122.339 3.09998 125.014 3.16726 127.646 3.30173L127.748 1.30434ZM119.623 1.09998C116.846 1.09998 114.11 1.16813 111.415 1.30449L111.516 3.30193C114.176 3.16732 116.879 3.09998 119.623 3.09998V1.09998ZM95.0833 3.04949C89.5501 3.97341 84.2152 5.22607 79.0792 6.80812L79.668 8.71949C84.7152 7.16477 89.9633 5.93211 95.4127 5.02218L95.0833 3.04949ZM63.7533 12.7887C61.2706 13.9797 58.8435 15.2616 56.472 16.6346L57.4741 18.3654C59.8006 17.0185 62.182 15.7607 64.6183 14.592L63.7533 12.7887ZM56.467 16.6375C54.2467 17.9401 52.0892 19.3136 49.9947 20.7581L51.1302 22.4045C53.184 20.9881 55.3003 19.6407 57.4791 18.3625L56.467 16.6375ZM38.0594 30.3931C34.3537 33.8813 30.9056 37.6561 27.7152 41.7169L29.2879 42.9525C32.4175 38.969 35.7983 35.2681 39.4302 31.8495L38.0594 30.3931ZM19.1194 54.4087C17.848 56.5931 16.6344 58.8412 15.4786 61.1528L17.2675 62.0472C18.4048 59.7726 19.5983 57.5618 20.8479 55.4147L19.1194 54.4087ZM15.4808 61.1484C14.1795 63.7193 12.9661 66.3519 11.8407 69.046L13.6862 69.8169C14.7931 67.167 15.9862 64.5786 17.2653 62.0516L15.4808 61.1484ZM6.26195 85.4993C4.80527 90.9581 3.65287 96.6287 2.80412 102.511L4.78362 102.796C5.62177 96.9878 6.75888 91.3942 8.19433 86.015L6.26195 85.4993ZM1.20959 119.781C1.08521 122.627 1.02305 125.517 1.02305 128.45H3.02305C3.02305 125.545 3.08461 122.685 3.20768 119.868L1.20959 119.781ZM1.02305 128.45C1.02305 131.396 1.08575 134.299 1.21121 137.161L3.20929 137.073C3.08515 134.242 3.02305 131.367 3.02305 128.45H1.02305ZM2.81578 154.513C3.66753 160.416 4.82307 166.114 6.28297 171.607L8.21588 171.093C6.77688 165.679 5.63649 160.057 4.79528 154.228L2.81578 154.513ZM11.8541 188.148C12.9751 190.857 14.1833 193.507 15.4786 196.097L17.2675 195.203C15.9937 192.655 14.8052 190.049 13.7021 187.383L11.8541 188.148ZM15.4786 196.097C16.6344 198.409 17.848 200.657 19.1194 202.841L20.8479 201.835C19.5983 199.688 18.4048 197.477 17.2675 195.203L15.4786 196.097ZM27.7152 215.533C30.9056 219.594 34.3537 223.369 38.0594 226.857L39.4302 225.401C35.7983 221.982 32.4175 218.281 29.2879 214.298L27.7152 215.533ZM49.9947 236.492C52.0892 237.936 54.2467 239.31 56.467 240.613L57.4791 238.887C55.3003 237.609 53.184 236.262 51.1302 234.845L49.9947 236.492ZM56.472 240.615C58.8435 241.988 61.2706 243.27 63.7533 244.461L64.6183 242.658C62.182 241.489 59.8006 240.232 57.4741 238.885L56.472 240.615ZM79.0792 250.442C84.2152 252.024 89.5501 253.277 95.0833 254.2L95.4127 252.228C89.9633 251.318 84.7152 250.085 79.668 248.53L79.0792 250.442ZM111.415 255.945C114.11 256.082 116.846 256.15 119.623 256.15V254.15C116.879 254.15 114.176 254.083 111.516 253.948L111.415 255.945ZM119.623 256.15C121.413 256.15 123.124 256.209 124.758 256.326L124.902 254.332C123.216 254.21 121.456 254.15 119.623 254.15V256.15ZM134.79 258.058C136.492 258.57 138.053 259.183 139.476 259.894L140.37 258.106C138.835 257.338 137.166 256.684 135.366 256.143L134.79 258.058ZM139.492 259.902C140.804 260.53 142.05 261.243 143.23 262.042L144.351 260.386C143.087 259.53 141.755 258.768 140.355 258.098L139.492 259.902ZM149.537 267.876C150.422 268.975 151.25 270.156 152.019 271.42L153.727 270.38C152.915 269.045 152.037 267.792 151.095 266.621L149.537 267.876ZM152.019 271.42L157.181 279.907L158.89 278.868L153.727 270.38L152.019 271.42ZM167.506 296.882L172.669 305.37L174.377 304.33L169.215 295.843L167.506 296.882ZM172.661 305.357C173.237 306.335 173.855 307.255 174.516 308.115L176.101 306.895C175.493 306.104 174.921 305.254 174.385 304.343L172.661 305.357ZM179.302 312.766C180.212 313.415 181.17 313.991 182.176 314.494L183.07 312.706C182.157 312.249 181.288 311.726 180.463 311.138L179.302 312.766ZM182.133 314.472C183.086 315.008 184.055 315.479 185.04 315.884L185.801 314.034C184.893 313.661 183.997 313.226 183.113 312.728L182.133 314.472ZM191.292 317.545C192.355 317.682 193.432 317.75 194.523 317.75V315.75C193.516 315.75 192.524 315.687 191.547 315.562L191.292 317.545ZM194.523 317.75C195.939 317.75 197.316 317.642 198.653 317.425L198.333 315.451C197.107 315.65 195.837 315.75 194.523 315.75V317.75ZM206.463 314.65C207.645 313.967 208.778 313.173 209.863 312.268L208.583 310.732C207.581 311.567 206.541 312.295 205.462 312.919L206.463 314.65ZM209.837 312.289C210.913 311.453 211.864 310.545 212.687 309.565L211.156 308.279C210.43 309.143 209.582 309.954 208.609 310.711L209.837 312.289ZM216.132 302.469C216.394 301.22 216.523 299.913 216.523 298.55H214.523C214.523 299.786 214.406 300.956 214.175 302.059L216.132 302.469ZM216.523 298.55C216.523 297.422 216.425 296.287 216.229 295.146L214.257 295.484C214.435 296.517 214.523 297.539 214.523 298.55H216.523ZM214.131 288.723C213.663 287.745 213.128 286.763 212.526 285.779L210.82 286.821C211.388 287.752 211.89 288.673 212.326 289.585L214.131 288.723ZM119.623 218.1C117.063 218.1 114.569 218.001 112.14 217.803L111.977 219.797C114.463 219.999 117.012 220.1 119.623 220.1V218.1ZM97.4558 215.187C92.555 213.779 87.9879 211.862 83.7518 209.437L82.758 211.172C87.1391 213.681 91.8552 215.659 96.9036 217.11L97.4558 215.187ZM71.8906 200.5C70.1309 198.797 68.4493 196.969 66.846 195.016L65.3001 196.284C66.9504 198.295 68.6835 200.179 70.4997 201.937L71.8906 200.5ZM66.8516 195.022C65.0422 192.777 63.3636 190.389 61.8161 187.858L60.1097 188.901C61.7011 191.504 63.4292 193.963 65.2945 196.278L66.8516 195.022ZM54.444 171.95C52.6438 166.68 51.2294 160.985 50.2031 154.863L48.2306 155.194C49.273 161.412 50.7124 167.213 52.5513 172.597L54.444 171.95ZM48.3771 137.298C48.2411 134.423 48.1731 131.474 48.1731 128.45H46.1731C46.1731 131.504 46.2418 134.484 46.3793 137.393L48.3771 137.298ZM48.1731 128.45C48.1731 125.439 48.2405 122.503 48.3754 119.641L46.3776 119.547C46.2412 122.441 46.1731 125.409 46.1731 128.45H48.1731ZM50.1897 102.154C51.212 96.0515 52.6218 90.383 54.4166 85.1464L52.5247 84.4979C50.6905 89.8491 49.2555 95.6251 48.2172 101.824L50.1897 102.154ZM61.794 69.3334C63.3463 66.8197 65.0307 64.4531 66.847 62.2332L65.2991 60.9668C63.4253 63.257 61.6897 65.6958 60.0923 68.2826L61.794 69.3334ZM66.846 62.2345C68.4493 60.2814 70.1309 58.4535 71.8906 56.7503L70.4997 55.3131C68.6835 57.0709 66.9504 58.9552 65.3001 60.9655L66.846 62.2345ZM83.7518 47.8134C87.9879 45.3879 92.555 43.4705 97.4558 42.0627L96.9036 40.1404C91.8552 41.5907 87.1391 43.5693 82.758 46.0777L83.7518 47.8134ZM112.14 39.4465C114.569 39.249 117.063 39.15 119.623 39.15V37.15C117.012 37.15 114.463 37.2509 111.977 37.4531L112.14 39.4465ZM119.623 39.15C122.157 39.15 124.626 39.249 127.029 39.4466L127.193 37.4534C124.732 37.251 122.209 37.15 119.623 37.15V39.15ZM141.552 42.0657C146.396 43.4752 150.905 45.3948 155.082 47.8232L156.088 46.0941C151.764 43.5808 147.104 41.5984 142.111 40.1454L141.552 42.0657ZM166.75 56.7563C168.476 58.4557 170.124 60.2793 171.694 62.2275L173.252 60.9725C171.635 58.9665 169.936 57.086 168.154 55.3312L166.75 56.7563ZM171.705 62.2402C173.547 64.4509 175.256 66.8068 176.831 69.3086L178.524 68.2429C176.902 65.6681 175.142 63.2403 173.241 60.9598L171.705 62.2402ZM184.344 85.0928C186.177 90.3315 187.617 96.0032 188.661 102.11L190.633 101.773C189.572 95.5683 188.106 89.7873 186.232 84.4323L184.344 85.0928ZM190.516 119.625C190.654 122.491 190.723 125.433 190.723 128.45H192.723C192.723 125.403 192.653 122.429 192.514 119.529L190.516 119.625ZM190.723 128.45C190.723 131.479 190.653 134.434 190.514 137.314L192.512 137.411C192.653 134.497 192.723 131.51 192.723 128.45H190.723ZM188.648 154.907C187.599 161.033 186.155 166.731 184.317 172.003L186.205 172.662C188.083 167.274 189.554 161.468 190.619 155.244L188.648 154.907ZM176.809 187.882C175.239 190.402 173.536 192.78 171.7 195.016L173.246 196.284C175.138 193.98 176.891 191.532 178.507 188.94L176.809 187.882ZM171.694 195.022C170.124 196.971 168.476 198.794 166.75 200.494L168.154 201.919C169.936 200.164 171.635 198.283 173.252 196.278L171.694 195.022ZM155.082 209.427C150.905 211.855 146.396 213.775 141.552 215.184L142.111 217.105C147.104 215.652 151.764 213.669 156.088 211.156L155.082 209.427ZM127.029 217.803C124.626 218.001 122.157 218.1 119.623 218.1V220.1C122.209 220.1 124.732 219.999 127.193 219.797L127.029 217.803ZM211.673 286.3L213.38 285.257L213.374 285.249L213.369 285.24L211.673 286.3ZM209.223 311.5L207.995 309.921L207.969 309.942L207.943 309.964L209.223 311.5ZM182.623 313.6L183.604 311.857L183.561 311.833L183.517 311.811L182.623 313.6ZM173.523 304.85L175.247 303.836L175.239 303.823L175.232 303.811L173.523 304.85ZM152.873 270.9L154.582 269.861L154.581 269.86L152.873 270.9ZM139.923 259L139.029 260.789L139.044 260.797L139.06 260.804L139.923 259ZM56.9731 239.75L55.961 241.475L55.971 241.481L56.9731 239.75ZM16.373 195.65L18.1619 194.756L18.1619 194.756L16.373 195.65ZM16.373 61.6L18.1575 62.5032L18.1619 62.4944L16.373 61.6ZM56.9731 17.5L55.971 15.7691L55.961 15.7749L56.9731 17.5ZM181.573 17.5L180.561 19.2251L180.571 19.2308L181.573 17.5ZM222.523 61.6L220.734 62.4944L220.739 62.5032L222.523 61.6ZM220.073 200.2L218.327 199.225L218.323 199.232L220.073 200.2ZM172.823 243.6L172.013 241.772L167.38 243.824L172.166 245.489L172.823 243.6ZM199.423 266.7L197.708 267.729L197.717 267.745L197.727 267.76L199.423 266.7ZM172.473 195.65L170.927 194.381L170.921 194.388L170.916 194.395L172.473 195.65ZM172.473 61.6L170.916 62.855L170.926 62.8678L170.937 62.8804L172.473 61.6ZM66.0731 61.6L64.5272 60.331L64.5251 60.3335L66.0731 61.6ZM66.0731 195.65L64.5159 196.905L64.5215 196.912L64.5272 196.919L66.0731 195.65ZM213.369 285.24L210.307 280.34L206.915 282.46L209.977 287.36L213.369 285.24ZM204.182 270.54L201.119 265.64L197.727 267.76L200.79 272.66L204.182 270.54ZM201.138 265.671C199.492 262.927 197.739 260.388 195.879 258.056L192.752 260.55C194.493 262.733 196.146 265.125 197.708 267.729L201.138 265.671ZM181.985 245.685C179.287 244.069 176.451 242.745 173.48 241.711L172.166 245.489C174.879 246.433 177.467 247.642 179.93 249.116L181.985 245.685ZM173.633 245.428C176.196 244.293 178.687 243.074 181.106 241.773L179.211 238.25C176.884 239.502 174.484 240.676 172.013 241.772L173.633 245.428ZM195.077 232.721C199.479 229.316 203.566 225.556 207.336 221.443L204.387 218.741C200.77 222.686 196.851 226.291 192.63 229.557L195.077 232.721ZM217.534 208.292C219.037 205.997 220.466 203.622 221.823 201.168L218.323 199.232C217.013 201.601 215.634 203.891 214.187 206.101L217.534 208.292ZM221.819 201.175C223.351 198.431 224.779 195.617 226.104 192.733L222.469 191.063C221.187 193.853 219.807 196.574 218.327 199.225L221.819 201.175ZM232.691 175.017C234.413 169.116 235.774 162.976 236.776 156.595L232.824 155.975C231.848 162.195 230.523 168.168 228.852 173.896L232.691 175.017ZM238.654 137.856C238.8 134.77 238.873 131.634 238.873 128.45H234.873C234.873 131.573 234.802 134.646 234.659 137.667L238.654 137.856ZM238.873 128.45C238.873 125.503 238.811 122.599 238.686 119.737L234.689 119.912C234.812 122.713 234.873 125.559 234.873 128.45H238.873ZM237.082 102.368C236.228 96.4491 235.068 90.74 233.6 85.2415L229.736 86.2728C231.16 91.6123 232.29 97.1674 233.123 102.939L237.082 102.368ZM227.978 68.6605C226.843 65.9443 225.62 63.2896 224.307 60.6968L220.739 62.5032C222.007 65.0082 223.189 67.5746 224.287 70.2024L227.978 68.6605ZM224.312 60.7056C223.142 58.3655 221.911 56.0894 220.619 53.8773L217.165 55.8943C218.412 58.03 219.602 60.23 220.734 62.4944L224.312 60.7056ZM211.871 41.0373C208.624 36.9379 205.108 33.1268 201.323 29.6052L198.598 32.5335C202.233 35.9158 205.612 39.578 208.736 43.521L211.871 41.0373ZM189.161 19.907C187.03 18.4565 184.835 17.0772 182.575 15.7691L180.571 19.2308C182.747 20.4909 184.86 21.8185 186.91 23.2136L189.161 19.907ZM182.585 15.7749C180.222 14.3888 177.803 13.0945 175.329 11.8923L173.581 15.4902C175.962 16.647 178.289 17.892 180.561 19.225L182.585 15.7749ZM160.043 5.85424C154.919 4.25756 149.597 2.99427 144.078 2.063L143.413 6.00723C148.762 6.9099 153.908 8.13232 158.853 9.67311L160.043 5.85424ZM127.799 0.30564C125.114 0.168485 122.389 0.0999838 119.623 0.0999838V4.09998C122.323 4.09998 124.98 4.16685 127.595 4.30043L127.799 0.30564ZM119.623 0.0999838C116.829 0.0999838 114.076 0.168528 111.364 0.305765L111.566 4.30065C114.209 4.16692 116.895 4.09998 119.623 4.09998V0.0999838ZM94.9186 2.06314C89.3435 2.99406 83.9651 4.25672 78.7848 5.85243L79.9624 9.67518C84.9653 8.13412 90.1699 6.91145 95.5774 6.00852L94.9186 2.06314ZM63.3208 11.8871C60.8149 13.0892 58.3649 14.3832 55.971 15.7691L57.9751 19.2308C60.2792 17.8969 62.6377 16.6512 65.0508 15.4936L63.3208 11.8871ZM55.961 15.7749C53.7199 17.0897 51.5418 18.4764 49.427 19.9349L51.6979 23.2277C53.7314 21.8253 55.8271 20.491 57.9851 19.225L55.961 15.7749ZM37.374 29.665C33.6314 33.1879 30.1496 36.9996 26.9289 41.0991L30.0743 43.5702C33.1735 39.6254 36.5206 35.9616 40.1156 32.5776L37.374 29.665ZM18.2551 53.9056C16.9728 56.1088 15.7492 58.3755 14.5842 60.7056L18.1619 62.4944C19.29 60.2383 20.4734 58.0461 21.7122 55.9177L18.2551 53.9056ZM14.5886 60.6968C13.2762 63.2896 12.0527 65.9443 10.918 68.6605L14.6089 70.2024C15.7066 67.5746 16.8895 65.0082 18.1575 62.5032L14.5886 60.6968ZM5.29576 85.2415C3.82847 90.74 2.66842 96.4492 1.81437 102.368L5.77336 102.939C6.60622 97.1674 7.73569 91.6123 9.16052 86.2728L5.29576 85.2415ZM0.210543 119.737C0.0855088 122.599 0.0230474 125.503 0.0230474 128.45H4.02305C4.02305 125.559 4.08431 122.713 4.20673 119.912L0.210543 119.737ZM0.0230474 128.45C0.0230474 131.41 0.086052 134.328 0.21217 137.204L4.20833 137.029C4.08484 134.213 4.02305 131.353 4.02305 128.45H0.0230474ZM1.82604 154.656C2.68305 160.595 3.84616 166.331 5.31652 171.864L9.18233 170.836C7.75379 165.461 6.62096 159.878 5.78502 154.085L1.82604 154.656ZM10.9301 188.531C12.0601 191.261 13.2781 193.932 14.5842 196.544L18.1619 194.756C16.8988 192.229 15.7202 189.645 14.6261 187.001L10.9301 188.531ZM14.5842 196.544C15.7492 198.875 16.9728 201.141 18.2551 203.344L21.7122 201.332C20.4734 199.204 19.29 197.012 18.1619 194.756L14.5842 196.544ZM26.9289 216.151C30.1496 220.25 33.6314 224.062 37.374 227.585L40.1156 224.672C36.5206 221.288 33.1735 217.625 30.0743 213.68L26.9289 216.151ZM49.427 237.315C51.5418 238.774 53.7199 240.16 55.961 241.475L57.9851 238.025C55.8271 236.759 53.7314 235.425 51.6979 234.022L49.427 237.315ZM55.971 241.481C58.3649 242.867 60.8149 244.161 63.3208 245.363L65.0508 241.756C62.6377 240.599 60.2792 239.353 57.9751 238.019L55.971 241.481ZM78.7848 251.398C83.9651 252.993 89.3435 254.256 94.9186 255.187L95.5774 251.241C90.1699 250.339 84.9653 249.116 79.9624 247.575L78.7848 251.398ZM111.364 256.944C114.076 257.081 116.829 257.15 119.623 257.15V253.15C116.895 253.15 114.209 253.083 111.566 252.949L111.364 256.944ZM119.623 257.15C121.391 257.15 123.078 257.208 124.686 257.324L124.973 253.334C123.262 253.211 121.478 253.15 119.623 253.15V257.15ZM134.502 259.016C136.155 259.513 137.662 260.105 139.029 260.789L140.817 257.211C139.226 256.415 137.503 255.742 135.654 255.186L134.502 259.016ZM139.06 260.804C140.328 261.411 141.531 262.1 142.669 262.87L144.912 259.558C143.606 258.674 142.23 257.886 140.786 257.196L139.06 260.804ZM148.758 268.503C149.615 269.567 150.417 270.712 151.165 271.94L154.581 269.86C153.747 268.489 152.845 267.2 151.874 265.994L148.758 268.503ZM151.164 271.939L156.327 280.427L159.744 278.348L154.582 269.861L151.164 271.939ZM166.652 297.402L171.814 305.889L175.232 303.811L170.069 295.323L166.652 297.402ZM171.799 305.864C172.395 306.876 173.036 307.83 173.724 308.724L176.894 306.285C176.312 305.529 175.763 304.713 175.247 303.836L171.799 305.864ZM178.721 313.58C179.673 314.26 180.676 314.863 181.729 315.389L183.517 311.811C182.65 311.377 181.826 310.882 181.044 310.324L178.721 313.58ZM181.643 315.343C182.63 315.899 183.636 316.387 184.66 316.809L186.182 313.11C185.313 312.752 184.453 312.335 183.604 311.857L181.643 315.343ZM191.164 318.537C192.271 318.679 193.39 318.75 194.523 318.75V314.75C193.557 314.75 192.608 314.69 191.674 314.57L191.164 318.537ZM194.523 318.75C195.99 318.75 197.42 318.638 198.813 318.412L198.172 314.464C197.002 314.654 195.786 314.75 194.523 314.75V318.75ZM206.964 315.516C208.196 314.803 209.376 313.976 210.503 313.036L207.943 309.964C206.983 310.763 205.989 311.459 204.961 312.053L206.964 315.516ZM210.451 313.079C211.578 312.202 212.581 311.246 213.453 310.209L210.391 307.635C209.713 308.441 208.917 309.204 207.995 309.921L210.451 313.079ZM217.111 302.674C217.388 301.353 217.523 299.976 217.523 298.55H213.523C213.523 299.723 213.412 300.823 213.196 301.855L217.111 302.674ZM217.523 298.55C217.523 297.363 217.419 296.172 217.214 294.976L213.272 295.654C213.44 296.632 213.523 297.597 213.523 298.55H217.523ZM215.033 288.292C214.55 287.28 213.998 286.269 213.38 285.257L209.967 287.343C210.518 288.246 211.004 289.137 211.424 290.016L215.033 288.292ZM119.623 217.1C117.089 217.1 114.622 217.002 112.221 216.807L111.896 220.794C114.41 220.998 116.986 221.1 119.623 221.1V217.1ZM97.7319 214.226C92.9049 212.84 88.4123 210.953 84.2487 208.569L82.2611 212.04C86.7147 214.59 91.5053 216.599 96.6275 218.071L97.7319 214.226ZM72.5861 199.781C70.8546 198.105 69.1987 196.306 67.6189 194.381L64.5272 196.919C66.2009 198.958 67.9598 200.87 69.8043 202.655L72.5861 199.781ZM67.6302 194.395C65.8487 192.184 64.1949 189.832 62.6694 187.336L59.2565 189.422C60.8698 192.062 62.6228 194.556 64.5159 196.905L67.6302 194.395ZM55.3903 171.627C53.6095 166.414 52.2076 160.772 51.1893 154.698L47.2444 155.359C48.2947 161.625 49.7467 167.48 51.605 172.92L55.3903 171.627ZM49.376 137.251C49.2408 134.392 49.1731 131.459 49.1731 128.45H45.1731C45.1731 131.519 45.2421 134.515 45.3804 137.44L49.376 137.251ZM49.1731 128.45C49.1731 125.454 49.2402 122.533 49.3743 119.688L45.3787 119.5C45.2415 122.411 45.1731 125.394 45.1731 128.45H49.1731ZM51.176 102.319C52.1902 96.2647 53.5874 90.6499 55.3626 85.4706L51.5787 84.1737C49.7249 89.5822 48.2773 95.4119 47.231 101.659L51.176 102.319ZM62.6448 69.8588C64.1746 67.3816 65.8335 65.0512 67.621 62.8665L64.5251 60.3335C62.6225 62.6589 60.8615 65.1338 59.2415 67.7571L62.6448 69.8588ZM67.6189 62.869C69.1987 60.9445 70.8546 59.1447 72.5861 57.4688L69.8043 54.5946C67.9598 56.3797 66.2009 58.2921 64.5272 60.331L67.6189 62.869ZM84.2487 48.6812C88.4123 46.2973 92.9049 44.4105 97.7319 43.0238L96.6275 39.1793C91.5053 40.6508 86.7147 42.66 82.2611 45.2099L84.2487 48.6812ZM112.221 40.4433C114.622 40.248 117.089 40.15 119.623 40.15V36.15C116.986 36.15 114.41 36.2519 111.896 36.4564L112.221 40.4433ZM119.623 40.15C122.131 40.15 124.572 40.248 126.947 40.4433L127.275 36.4567C124.786 36.252 122.235 36.15 119.623 36.15V40.15ZM141.273 43.0259C146.042 44.4136 150.475 46.3019 154.58 48.6877L156.59 45.2295C152.193 42.6737 147.458 40.6599 142.391 39.1852L141.273 43.0259ZM166.049 57.4689C167.746 59.1406 169.369 60.9357 170.916 62.855L174.03 60.3449C172.39 58.3101 170.665 56.4011 168.855 54.6187L166.049 57.4689ZM170.937 62.8804C172.75 65.0562 174.433 67.3762 175.985 69.8415L179.37 67.71C177.726 65.0988 175.939 62.6349 174.009 60.3196L170.937 62.8804ZM183.4 85.423C185.213 90.6037 186.64 96.2207 187.676 102.279L191.618 101.604C190.549 95.3508 189.07 89.5152 187.176 84.102L183.4 85.423ZM189.517 119.673C189.654 122.523 189.723 125.448 189.723 128.45H193.723C193.723 125.387 193.653 122.398 193.513 119.481L189.517 119.673ZM189.723 128.45C189.723 131.464 189.654 134.403 189.516 137.266L193.511 137.459C193.652 134.528 193.723 131.525 193.723 128.45H189.723ZM187.662 154.738C186.622 160.816 185.19 166.46 183.372 171.674L187.149 172.991C189.048 167.546 190.531 161.685 191.605 155.413L187.662 154.738ZM175.961 187.353C174.412 189.837 172.734 192.179 170.927 194.381L174.019 196.919C175.939 194.58 177.718 192.096 179.355 189.469L175.961 187.353ZM170.916 194.395C169.369 196.314 167.746 198.109 166.049 199.781L168.855 202.631C170.665 200.849 172.39 198.94 174.03 196.905L170.916 194.395ZM154.58 208.562C150.475 210.948 146.042 212.836 141.273 214.224L142.391 218.065C147.458 216.59 152.193 214.576 156.59 212.02L154.58 208.562ZM126.947 216.807C124.572 217.002 122.131 217.1 119.623 217.1V221.1C122.235 221.1 124.786 220.998 127.275 220.793L126.947 216.807Z" fill="black"/>
</svg>
