<svg width="120" height="182" viewBox="0 0 120 182" fill="none" xmlns="http://www.w3.org/2000/svg">
<path d="M97.8078 2.35C103.874 1.88332 108.658 3.16665 112.158 6.19999C115.658 9.23332 117.408 13.7833 117.408 19.85C117.408 26.15 115.891 30.8167 112.858 33.85C109.824 36.8833 104.341 38.8667 96.4078 39.8L85.9078 40.85C72.1411 42.25 61.9911 46.9167 55.4578 54.85C49.1578 62.7833 46.0078 72.7 46.0078 84.6V158.1C46.0078 164.867 43.9078 170.117 39.7078 173.85C35.5078 177.35 30.2578 179.1 23.9578 179.1C17.6578 179.1 12.4078 177.35 8.20781 173.85C4.24115 170.117 2.25781 164.867 2.25781 158.1V22.65C2.25781 16.1167 4.24115 11.1 8.20781 7.59999C12.4078 4.09999 17.5411 2.35 23.6078 2.35C29.6745 2.35 34.5745 4.09999 38.3078 7.59999C42.0412 10.8667 43.9078 15.65 43.9078 21.95V35.95C48.3411 25.6833 54.8745 17.75 63.5078 12.15C72.3745 6.54999 82.1745 3.39999 92.9078 2.69999L97.8078 2.35Z" fill="#F5F5F5"/>
<path d="M97.8078 2.35L97.8791 3.34747L97.8845 3.34705L97.8078 2.35ZM112.158 6.19999L111.503 6.95568L111.503 6.95568L112.158 6.19999ZM96.4078 39.8L96.5073 40.795L96.516 40.7942L96.5247 40.7931L96.4078 39.8ZM85.9078 40.85L85.8083 39.855L85.8066 39.8551L85.9078 40.85ZM55.4578 54.85L54.6859 54.2143L54.6802 54.2212L54.6747 54.2281L55.4578 54.85ZM39.7078 173.85L40.348 174.618L40.3603 174.608L40.3722 174.597L39.7078 173.85ZM8.20781 173.85L7.52245 174.578L7.54443 174.599L7.56763 174.618L8.20781 173.85ZM8.20781 7.59999L7.56763 6.83177L7.55678 6.84081L7.54619 6.85015L8.20781 7.59999ZM38.3078 7.59999L37.6239 8.32953L37.6364 8.34127L37.6493 8.35257L38.3078 7.59999ZM43.9078 35.95H42.9078L44.8259 36.3464L43.9078 35.95ZM63.5078 12.15L62.9738 11.3044L62.9636 11.311L63.5078 12.15ZM92.9078 2.69999L92.9729 3.69789L92.9791 3.69745L92.9078 2.69999ZM97.7366 1.35254L96.5116 1.44004L96.6541 3.43495L97.8791 3.34745L97.7366 1.35254ZM94.0616 1.61503L92.8366 1.70253L92.9791 3.69745L94.2041 3.60995L94.0616 1.61503ZM92.8427 1.70211C90.1686 1.87651 87.5497 2.20095 84.9864 2.67579L85.3507 4.64233C87.8344 4.18224 90.375 3.8673 92.9729 3.69787L92.8427 1.70211ZM69.9221 7.49749C67.5456 8.61077 65.2294 9.8799 62.9738 11.3045L64.0418 12.9955C66.2281 11.6147 68.4709 10.3859 70.7705 9.30862L69.9221 7.49749ZM62.9636 11.311C60.7143 12.77 58.6038 14.3851 56.6327 16.156L57.9694 17.6438C59.8619 15.9434 61.8892 14.3919 64.052 12.989L62.9636 11.311ZM46.5918 28.4692C45.2673 30.6975 44.0668 33.0592 42.9898 35.5536L44.8259 36.3464C45.8707 33.9269 47.0326 31.6421 48.311 29.4911L46.5918 28.4692ZM44.9078 35.95V32.45H42.9078V35.95H44.9078ZM44.9078 25.45V21.95H42.9078V25.45H44.9078ZM44.9078 21.95C44.9078 20.5108 44.8134 19.1407 44.6224 17.841L42.6436 18.1317C42.8191 19.3256 42.9078 20.5979 42.9078 21.95H44.9078ZM41.7562 10.0239C40.9709 8.84635 40.0402 7.7871 38.9663 6.84741L37.6493 8.35257C38.592 9.17746 39.4057 10.104 40.0923 11.1336L41.7562 10.0239ZM38.9918 6.87045C37.9567 5.90006 36.8349 5.05607 35.6272 4.33975L34.607 6.05992C35.6881 6.70118 36.6935 7.4573 37.6239 8.32953L38.9918 6.87045ZM27.7396 1.63624C26.4201 1.44487 25.0425 1.35 23.6078 1.35V3.35C24.9545 3.35 26.2358 3.43905 27.4525 3.61553L27.7396 1.63624ZM23.6078 1.35C22.1301 1.35 20.7011 1.45064 19.3216 1.65325L19.6123 3.63202C20.8893 3.44445 22.2209 3.35 23.6078 3.35V1.35ZM11.1408 4.3766C9.88391 5.07541 8.69275 5.89417 7.56763 6.83177L8.848 8.36821C9.87915 7.50892 10.9673 6.76141 12.1127 6.12459L11.1408 4.3766ZM7.54619 6.85015C6.42494 7.83949 5.45098 8.9455 4.62653 10.1674L6.28442 11.286C7.01228 10.2073 7.8732 9.22886 8.86944 8.34983L7.54619 6.85015ZM1.56778 18.3372C1.36042 19.7031 1.25781 21.1411 1.25781 22.65H3.25781C3.25781 21.2315 3.3543 19.8944 3.54513 18.6374L1.56778 18.3372ZM1.25781 22.65V29.4225H3.25781V22.65H1.25781ZM1.25781 42.9675V56.5125H3.25781V42.9675H1.25781ZM1.25781 70.0575V83.6025H3.25781V70.0575H1.25781ZM1.25781 97.1475V110.692H3.25781V97.1475H1.25781ZM1.25781 124.237V137.782H3.25781V124.237H1.25781ZM1.25781 151.327V158.1H3.25781V151.327H1.25781ZM1.25781 158.1C1.25781 159.66 1.36027 161.149 1.56711 162.565L3.54612 162.276C3.35456 160.964 3.25781 159.573 3.25781 158.1H1.25781ZM4.60433 171.062C5.42712 172.35 6.40039 173.522 7.52245 174.578L8.89318 173.122C7.89009 172.178 7.02284 171.132 6.28976 169.985L4.60433 171.062ZM7.56763 174.618C8.71216 175.572 9.93252 176.402 11.2282 177.109L12.1853 175.352C11.0056 174.71 9.89334 173.953 8.848 173.082L7.56763 174.618ZM19.5927 179.806C20.9938 180.003 22.4491 180.1 23.9578 180.1V178.1C22.5353 178.1 21.173 178.008 19.8702 177.826L19.5927 179.806ZM23.9578 180.1C25.4665 180.1 26.9218 180.003 28.3229 179.806L28.0454 177.826C26.7427 178.008 25.3804 178.1 23.9578 178.1V180.1ZM36.6875 177.109C37.9831 176.402 39.2035 175.572 40.348 174.618L39.0676 173.082C38.0223 173.953 36.91 174.71 35.7303 175.352L36.6875 177.109ZM40.3722 174.597C41.5411 173.558 42.5585 172.405 43.422 171.138L41.7695 170.012C41.0006 171.14 40.0927 172.17 39.0435 173.103L40.3722 174.597ZM46.6731 162.616C46.897 161.184 47.0078 159.678 47.0078 158.1H45.0078C45.0078 159.585 44.9035 160.987 44.6971 162.307L46.6731 162.616ZM47.0078 158.1V148.912H45.0078V158.1H47.0078ZM47.0078 130.537V112.163H45.0078V130.537H47.0078ZM47.0078 93.7875V84.6H45.0078V93.7875H47.0078ZM47.0078 84.6C47.0078 81.8891 47.1737 79.2876 47.5044 76.7947L45.5218 76.5317C45.1787 79.1179 45.0078 81.8076 45.0078 84.6H47.0078ZM52.0295 61.9795C53.2207 59.6765 54.6243 57.5076 56.2409 55.4719L54.6747 54.2281C52.9779 56.3648 51.5038 58.6425 50.253 61.0606L52.0295 61.9795ZM56.2297 55.4857C57.986 53.3531 60.013 51.4627 62.3134 49.814L61.1484 48.1884C58.71 49.9359 56.5549 51.9447 54.6859 54.2143L56.2297 55.4857ZM77.6493 43.2047C80.2606 42.5999 83.0468 42.1461 86.009 41.8449L85.8066 39.8551C82.7693 40.164 79.8994 40.6306 77.198 41.2563L77.6493 43.2047ZM86.0073 41.845L88.6323 41.5825L88.4333 39.5925L85.8083 39.855L86.0073 41.845ZM93.8823 41.0575L96.5073 40.795L96.3083 38.805L93.6833 39.0675L93.8823 41.0575ZM96.5247 40.7931C98.1066 40.607 99.5968 40.3792 100.995 40.1092L100.615 38.1455C99.2712 38.4052 97.83 38.6258 96.291 38.8068L96.5247 40.7931ZM109.704 37.3013C111.227 36.514 112.52 35.6023 113.565 34.5571L112.151 33.1429C111.277 34.0164 110.161 34.8134 108.785 35.5246L109.704 37.3013ZM113.565 34.5571C114.509 33.613 115.313 32.5269 115.978 31.3042L114.221 30.3487C113.642 31.412 112.952 32.3417 112.151 33.1429L113.565 34.5571ZM118.199 23.7337C118.339 22.508 118.408 21.2131 118.408 19.85H116.408C116.408 21.1459 116.342 22.3646 116.212 23.507L118.199 23.7337ZM118.408 19.85C118.408 18.4807 118.321 17.1787 118.147 15.9452L116.166 16.2259C116.327 17.3568 116.408 18.5644 116.408 19.85H118.408ZM115.473 8.48143C114.727 7.3474 113.84 6.3344 112.813 5.4443L111.503 6.95568C112.392 7.72582 113.158 8.60023 113.803 9.58079L115.473 8.48143ZM112.813 5.4443C111.787 4.55494 110.657 3.80688 109.427 3.2006L108.543 4.99451C109.622 5.52611 110.607 6.17966 111.503 6.95568L112.813 5.4443ZM101.676 1.29737C100.419 1.22826 99.1036 1.24737 97.7311 1.35294L97.8845 3.34705C99.1783 3.24753 100.405 3.23054 101.566 3.29435L101.676 1.29737ZM97.8078 2.35L97.9503 4.34494L97.9612 4.3441L97.8078 2.35ZM112.158 6.19999L110.848 7.71136L110.848 7.71137L112.158 6.19999ZM96.4078 39.8L96.6068 41.7901L96.6242 41.7883L96.6415 41.7863L96.4078 39.8ZM85.9078 40.85L85.7088 38.8599L85.7055 38.8603L85.9078 40.85ZM55.4578 54.85L53.914 53.5786L53.9027 53.5923L53.8916 53.6062L55.4578 54.85ZM39.7078 173.85L40.9882 175.386L41.0127 175.366L41.0365 175.345L39.7078 173.85ZM8.20781 173.85L6.83708 175.306L6.88106 175.348L6.92744 175.386L8.20781 173.85ZM8.20781 7.59999L6.92745 6.06355L6.90575 6.08163L6.88457 6.10032L8.20781 7.59999ZM38.3078 7.59999L36.9399 9.05907L36.965 9.08254L36.9908 9.10514L38.3078 7.59999ZM43.9078 35.95H41.9078L45.7439 36.7429L43.9078 35.95ZM63.5078 12.15L62.4398 10.459L62.4296 10.4655L62.4194 10.4721L63.5078 12.15ZM92.9078 2.69999L93.038 4.69579L93.0503 4.69491L92.9078 2.69999ZM97.6653 0.355078L96.4403 0.442577L96.7253 4.43241L97.9503 4.34491L97.6653 0.355078ZM93.9903 0.617575L92.7653 0.705073L93.0503 4.69491L94.2753 4.60741L93.9903 0.617575ZM92.7777 0.704231C90.0654 0.88112 87.4074 1.2103 84.8043 1.69252L85.5329 5.62561C87.9767 5.17289 90.4782 4.86269 93.038 4.69575L92.7777 0.704231ZM69.4979 6.59193C67.0829 7.72323 64.7301 9.0125 62.4398 10.459L64.5758 13.841C66.7274 12.4821 68.9336 11.2734 71.1947 10.2142L69.4979 6.59193ZM62.4194 10.4721C60.1269 11.9591 57.9748 13.6059 55.9644 15.4122L58.6377 18.3876C60.4909 16.7226 62.4767 15.2028 64.5962 13.8279L62.4194 10.4721ZM45.7322 27.9583C44.3847 30.2253 43.1649 32.6254 42.0717 35.1571L45.7439 36.7429C46.7726 34.3608 47.9152 32.1143 49.1707 30.002L45.7322 27.9583ZM45.9078 35.95V32.45H41.9078V35.95H45.9078ZM45.9078 25.45V21.95H41.9078V25.45H45.9078ZM45.9078 21.95C45.9078 20.4673 45.8105 19.0482 45.6117 17.6956L41.6542 18.2771C41.8219 19.418 41.9078 20.6414 41.9078 21.95H45.9078ZM42.5882 9.46906C41.7535 8.2175 40.7643 7.09191 39.6248 6.09484L36.9908 9.10514C37.8679 9.87264 38.6231 10.7329 39.2604 11.6885L42.5882 9.46906ZM39.6757 6.14092C38.5883 5.12144 37.4084 4.23352 36.1374 3.47966L34.0968 6.92001C35.1147 7.52374 36.0619 8.23592 36.9399 9.05907L39.6757 6.14092ZM27.8831 0.646599C26.5123 0.447771 25.0865 0.349995 23.6078 0.349995V4.35C24.9105 4.35 26.1436 4.43615 27.309 4.60518L27.8831 0.646599ZM23.6078 0.349995C22.0847 0.349995 20.607 0.453734 19.1763 0.663866L19.7576 4.62141C20.9835 4.44135 22.2663 4.35 23.6078 4.35V0.349995ZM10.6549 3.5026C9.34222 4.23241 8.09955 5.0868 6.92745 6.06355L9.48818 9.13643C10.4724 8.31629 11.509 7.60441 12.5986 6.99859L10.6549 3.5026ZM6.88457 6.10032C5.70081 7.14481 4.67033 8.31459 3.79759 9.60802L7.11336 11.8453C7.79292 10.8382 8.59733 9.92354 9.53106 9.09967L6.88457 6.10032ZM0.57911 18.1871C0.363481 19.6075 0.257814 21.096 0.257814 22.65H4.25781C4.25781 21.2766 4.35124 19.99 4.5338 18.7875L0.57911 18.1871ZM0.257814 22.65V29.4225H4.25781V22.65H0.257814ZM0.257814 42.9675V56.5125H4.25781V42.9675H0.257814ZM0.257814 70.0575V83.6025H4.25781V70.0575H0.257814ZM0.257814 97.1475V110.692H4.25781V97.1475H0.257814ZM0.257814 124.237V137.782H4.25781V124.237H0.257814ZM0.257814 151.327V158.1H4.25781V151.327H0.257814ZM0.257814 158.1C0.257814 159.704 0.363124 161.241 0.577602 162.71L4.53562 162.132C4.3517 160.872 4.25781 159.529 4.25781 158.1H0.257814ZM3.76162 171.6C4.62926 172.958 5.65554 174.194 6.83708 175.306L9.57854 172.394C8.63494 171.506 7.8207 170.524 7.13248 169.447L3.76162 171.6ZM6.92744 175.386C8.12158 176.382 9.39599 177.249 10.7496 177.987L12.6639 174.474C11.5421 173.863 10.4839 173.143 9.48818 172.314L6.92744 175.386ZM19.4539 180.797C20.9043 181 22.4061 181.1 23.9578 181.1V177.1C22.5783 177.1 21.2625 177.011 20.009 176.835L19.4539 180.797ZM23.9578 181.1C25.5095 181.1 27.0114 181 28.4617 180.797L27.9067 176.835C26.6531 177.011 25.3373 177.1 23.9578 177.1V181.1ZM37.166 177.987C38.5196 177.249 39.7941 176.382 40.9882 175.386L38.4274 172.314C37.4317 173.143 36.3735 173.863 35.2518 174.474L37.166 177.987ZM41.0365 175.345C42.2653 174.253 43.3375 173.038 44.2483 171.702L40.9432 169.449C40.2216 170.507 39.3685 171.476 38.3791 172.355L41.0365 175.345ZM47.661 162.771C47.8937 161.283 48.0078 159.725 48.0078 158.1H44.0078C44.0078 159.538 43.9068 160.888 43.7091 162.153L47.661 162.771ZM48.0078 158.1V148.912H44.0078V158.1H48.0078ZM48.0078 130.537V112.163H44.0078V130.537H48.0078ZM48.0078 93.7875V84.6H44.0078V93.7875H48.0078ZM48.0078 84.6C48.0078 81.9299 48.1713 79.3724 48.4957 76.9262L44.5305 76.4002C44.1812 79.0331 44.0078 81.7668 44.0078 84.6H48.0078ZM52.9177 62.4389C54.0791 60.1935 55.4476 58.079 57.024 56.0938L53.8916 53.6062C52.1547 55.7934 50.6454 58.1255 49.3648 60.6011L52.9177 62.4389ZM57.0017 56.1214C58.7015 54.0573 60.6645 52.2261 62.896 50.6268L60.5658 47.3756C58.0585 49.1726 55.8394 51.2405 53.914 53.5786L57.0017 56.1214ZM77.875 44.1789C80.4412 43.5845 83.1855 43.1372 86.1102 42.8397L85.7055 38.8603C82.6306 39.173 79.7188 39.6459 76.9723 40.2821L77.875 44.1789ZM86.1068 42.8401L88.7318 42.5776L88.3338 38.5974L85.7088 38.8599L86.1068 42.8401ZM93.9818 42.0526L96.6068 41.7901L96.2088 37.8099L93.5838 38.0724L93.9818 42.0526ZM96.6415 41.7863C98.2449 41.5977 99.7595 41.3663 101.184 41.0911L100.426 37.1637C99.1084 37.4181 97.6917 37.6352 96.1741 37.8137L96.6415 41.7863ZM110.163 38.1896C111.76 37.3643 113.141 36.3952 114.272 35.2642L111.444 32.4358C110.656 33.2235 109.629 33.9631 108.326 34.6363L110.163 38.1896ZM114.272 35.2642C115.288 34.2487 116.148 33.0844 116.856 31.7819L113.342 29.8709C112.807 30.8546 112.173 31.706 111.444 32.4358L114.272 35.2642ZM119.192 23.8471C119.337 22.5798 119.408 21.2468 119.408 19.85H115.408C115.408 21.1123 115.344 22.2929 115.218 23.3937L119.192 23.8471ZM119.408 19.85C119.408 18.4389 119.319 17.0897 119.137 15.8049L115.176 16.3662C115.329 17.4458 115.408 18.6062 115.408 19.85H119.408ZM116.309 7.93175C115.512 6.72099 114.564 5.63869 113.468 4.68861L110.848 7.71137C111.667 8.42152 112.373 9.22664 112.967 10.1305L116.309 7.93175ZM113.468 4.68861C112.376 3.74258 111.175 2.94726 109.87 2.30365L108.101 5.89146C109.104 6.38572 110.018 6.99202 110.848 7.71136L113.468 4.68861ZM101.731 0.298874C100.426 0.227129 99.0662 0.247286 97.6544 0.355887L97.9612 4.3441C99.2157 4.2476 100.399 4.23167 101.512 4.29285L101.731 0.298874Z" fill="black"/>
</svg>
