<svg width="207" height="254" viewBox="0 0 207 254" fill="none" xmlns="http://www.w3.org/2000/svg">
<path d="M199.82 220.65C202.62 224.85 204.02 228.933 204.02 232.9C204.02 238.267 201.804 242.7 197.37 246.2C193.17 249.7 188.154 251.45 182.32 251.45C178.587 251.45 174.97 250.633 171.47 249C168.204 247.133 165.404 244.45 163.07 240.95L116.52 170.25C111.854 162.783 106.837 157.533 101.47 154.5C96.337 151.467 89.5703 149.95 81.1703 149.95H46.8703V228.35C46.8703 235.35 44.887 240.95 40.9203 245.15C36.9536 249.117 31.587 251.1 24.8203 251.1C18.0536 251.1 12.5703 249.117 8.37031 245.15C4.40365 240.95 2.42031 235.35 2.42031 228.35V23.6C2.42031 16.8333 4.28698 11.5833 8.02032 7.85C11.987 4.11666 17.3536 2.24998 24.1203 2.24998H111.62C139.62 2.24998 160.854 8.54999 175.32 21.15C190.02 33.5167 197.37 51.4833 197.37 75.05C197.37 94.1833 191.887 109.933 180.92 122.3C170.187 134.433 154.904 142.25 135.07 145.75C141.837 147.383 147.787 150.3 152.92 154.5C158.054 158.7 163.07 164.533 167.97 172L199.82 220.65ZM105.32 115.3C122.354 115.3 134.837 112.15 142.77 105.85C150.704 99.3167 154.67 89.4 154.67 76.1C154.67 62.5667 150.704 52.7667 142.77 46.7C134.837 40.4 122.354 37.25 105.32 37.25H46.5203V115.3H105.32Z" fill="#F5F5F5"/>
<path d="M199.82 220.65L198.984 221.198L198.988 221.205L199.82 220.65ZM197.37 246.2L196.751 245.415L196.74 245.423L196.73 245.432L197.37 246.2ZM171.47 249L170.974 249.868L171.01 249.889L171.047 249.906L171.47 249ZM163.07 240.95L162.235 241.5L162.238 241.505L163.07 240.95ZM116.52 170.25L115.672 170.78L115.679 170.79L115.685 170.8L116.52 170.25ZM101.47 154.5L100.962 155.361L100.97 155.366L100.978 155.371L101.47 154.5ZM46.8703 149.95V148.95H45.8703V149.95H46.8703ZM40.9203 245.15L41.6274 245.857L41.6375 245.847L41.6473 245.837L40.9203 245.15ZM8.37031 245.15L7.6433 245.837L7.66292 245.857L7.68369 245.877L8.37031 245.15ZM8.02032 7.85L7.33495 7.1218L7.32392 7.13218L7.31321 7.14289L8.02032 7.85ZM175.32 21.15L174.664 21.9041L174.67 21.9097L174.677 21.9152L175.32 21.15ZM180.92 122.3L180.172 121.637L180.171 121.637L180.92 122.3ZM135.07 145.75L134.897 144.765L134.836 146.722L135.07 145.75ZM152.92 154.5L153.554 153.726L153.554 153.726L152.92 154.5ZM167.97 172L168.807 171.452L168.806 171.451L167.97 172ZM142.77 105.85L143.392 106.633L143.399 106.628L143.406 106.622L142.77 105.85ZM142.77 46.7L142.148 47.4831L142.156 47.4888L142.163 47.4944L142.77 46.7ZM46.5203 37.25V36.25H45.5203V37.25H46.5203ZM46.5203 115.3H45.5203V116.3H46.5203V115.3ZM200.657 220.102L196.676 214.021L195.002 215.116L198.984 221.198L200.657 220.102ZM188.713 201.859L180.751 189.696L179.077 190.791L187.04 202.954L188.713 201.859ZM172.788 177.534L168.807 171.452L167.134 172.548L171.115 178.629L172.788 177.534ZM168.806 171.451C167.703 169.77 166.592 168.169 165.475 166.649L163.863 167.833C164.958 169.323 166.049 170.895 167.134 172.549L168.806 171.451ZM157.906 157.699C156.468 156.248 155.017 154.923 153.554 153.726L152.287 155.274C153.692 156.424 155.092 157.701 156.486 159.107L157.906 157.699ZM153.554 153.726C152.225 152.639 150.842 151.635 149.405 150.715L148.327 152.4C149.698 153.277 151.018 154.235 152.287 155.274L153.554 153.726ZM140.209 146.231C138.622 145.668 136.988 145.184 135.305 144.778L134.836 146.722C136.453 147.112 138.021 147.577 139.54 148.116L140.209 146.231ZM135.244 146.735C137.462 146.343 139.624 145.898 141.731 145.399L141.27 143.453C139.202 143.943 137.078 144.38 134.897 144.765L135.244 146.735ZM154.396 141.495C158.664 139.835 162.644 137.893 166.332 135.669L165.3 133.956C161.715 136.117 157.839 138.009 153.671 139.631L154.396 141.495ZM176.998 127.717C178.64 126.212 180.197 124.627 181.669 122.963L180.171 121.637C178.745 123.25 177.237 124.785 175.647 126.243L176.998 127.717ZM181.669 122.963C183.116 121.331 184.47 119.64 185.73 117.891L184.107 116.722C182.887 118.416 181.575 120.054 180.172 121.637L181.669 122.963ZM192.191 106.631C193.917 102.747 195.281 98.6444 196.283 94.3237L194.335 93.8719C193.36 98.0744 192.036 102.056 190.363 105.819L192.191 106.631ZM198.155 81.5148C198.299 79.4028 198.37 77.2478 198.37 75.05H196.37C196.37 77.2044 196.3 79.3141 196.16 81.3793L198.155 81.5148ZM198.37 75.05C198.37 72.4512 198.282 69.918 198.104 67.4507L196.109 67.5942C196.283 70.0114 196.37 72.4966 196.37 75.05H198.37ZM195.718 52.4227C194.401 47.3038 192.593 42.5492 190.291 38.1622L188.52 39.0916C190.746 43.3325 192.5 47.9412 193.781 52.9209L195.718 52.4227ZM181.499 25.6691C179.784 23.8073 177.939 22.0459 175.964 20.3848L174.677 21.9152C176.588 23.5229 178.371 25.226 180.028 27.0243L181.499 25.6691ZM175.977 20.3959C173.831 18.5271 171.541 16.7957 169.105 15.2013L168.01 16.8747C170.371 18.4202 172.588 20.0967 174.664 21.9041L175.977 20.3959ZM153.708 7.61571C148.604 5.77502 143.081 4.33562 137.141 3.29479L136.796 5.26477C142.635 6.28796 148.045 7.69965 153.03 9.49711L153.708 7.61571ZM120.156 1.45413C117.382 1.31799 114.537 1.24998 111.62 1.24998V3.24998C114.506 3.24998 117.319 3.31727 120.058 3.45172L120.156 1.45413ZM111.62 1.24998H104.329V3.24998H111.62V1.24998ZM89.7453 1.24998H75.162V3.24998H89.7453V1.24998ZM60.5787 1.24998H45.9953V3.24998H60.5787V1.24998ZM31.412 1.24998H24.1203V3.24998H31.412V1.24998ZM24.1203 1.24998C22.5559 1.24998 21.0581 1.34712 19.628 1.54298L19.8993 3.52448C21.2318 3.34201 22.6384 3.24998 24.1203 3.24998V1.24998ZM11.0159 4.38186C9.68303 5.15343 8.45564 6.06703 7.33495 7.1218L8.70568 8.5782C9.71432 7.62889 10.818 6.80737 12.0179 6.11276L11.0159 4.38186ZM7.31321 7.14289C6.24015 8.21594 5.31274 9.40774 4.53189 10.7166L6.24945 11.7413C6.9461 10.5736 7.77178 9.51274 8.72742 8.5571L7.31321 7.14289ZM1.70523 19.1843C1.51472 20.5854 1.42031 22.0577 1.42031 23.6H3.42031C3.42031 22.1389 3.50977 20.7572 3.687 19.4538L1.70523 19.1843ZM1.42031 23.6V30.9125H3.42031V23.6H1.42031ZM1.42031 45.5375V60.1625H3.42031V45.5375H1.42031ZM1.42031 74.7875V89.4125H3.42031V74.7875H1.42031ZM1.42031 104.037V118.662H3.42031V104.037H1.42031ZM1.42031 133.287V147.912H3.42031V133.287H1.42031ZM1.42031 162.537V177.162H3.42031V162.537H1.42031ZM1.42031 191.788V206.412H3.42031V191.788H1.42031ZM1.42031 221.038V228.35H3.42031V221.038H1.42031ZM1.42031 228.35C1.42031 229.984 1.52548 231.549 1.73745 233.045L3.71769 232.765C3.51998 231.369 3.42031 229.898 3.42031 228.35H1.42031ZM4.76777 242.015C5.57977 243.393 6.53866 244.667 7.6433 245.837L9.09733 244.463C8.09479 243.402 7.22635 242.247 6.49087 240.999L4.76777 242.015ZM7.68369 245.877C8.83504 246.964 10.0803 247.911 11.4189 248.715L12.4491 247.001C11.2359 246.272 10.1054 245.413 9.05694 244.423L7.68369 245.877ZM20.2037 251.774C21.6781 251.992 23.2172 252.1 24.8203 252.1V250.1C23.3071 250.1 21.8661 249.998 20.4964 249.795L20.2037 251.774ZM24.8203 252.1C26.4019 252.1 27.9158 251.995 29.3609 251.782L29.07 249.804C27.7295 250.001 26.3133 250.1 24.8203 250.1V252.1ZM38.0006 248.734C39.3139 247.921 40.5231 246.961 41.6274 245.857L40.2132 244.443C39.2164 245.44 38.1281 246.303 36.9475 247.034L38.0006 248.734ZM41.6473 245.837C42.752 244.667 43.7109 243.393 44.5229 242.015L42.7998 240.999C42.0643 242.247 41.1958 243.402 40.1933 244.463L41.6473 245.837ZM47.5532 233.045C47.7651 231.549 47.8703 229.984 47.8703 228.35H45.8703C45.8703 229.898 45.7706 231.369 45.5729 232.765L47.5532 233.045ZM47.8703 228.35V221.817H45.8703V228.35H47.8703ZM47.8703 208.75V195.683H45.8703V208.75H47.8703ZM47.8703 182.617V169.55H45.8703V182.617H47.8703ZM47.8703 156.483V149.95H45.8703V156.483H47.8703ZM46.8703 150.95H55.4453V148.95H46.8703V150.95ZM72.5953 150.95H81.1703V148.95H72.5953V150.95ZM81.1703 150.95C82.9738 150.95 84.6973 151.021 86.341 151.162L86.5123 149.17C84.8068 149.023 83.026 148.95 81.1703 148.95V150.95ZM96.3687 153.226C98.0334 153.822 99.5636 154.535 100.962 155.361L101.979 153.639C100.464 152.744 98.818 151.979 97.0436 151.343L96.3687 153.226ZM100.978 155.371C102.453 156.204 103.907 157.215 105.34 158.407L106.619 156.87C105.102 155.608 103.55 154.527 101.962 153.629L100.978 155.371ZM112.627 166.295C113.657 167.684 114.672 169.179 115.672 170.78L117.368 169.72C116.342 168.078 115.298 166.539 114.234 165.104L112.627 166.295ZM115.685 170.8L119.564 176.692L121.235 175.592L117.356 169.7L115.685 170.8ZM127.323 188.475L135.081 200.258L136.751 199.158L128.993 187.375L127.323 188.475ZM142.839 212.042L150.598 223.825L152.268 222.725L144.51 210.942L142.839 212.042ZM158.356 235.608L162.235 241.5L163.906 240.4L160.026 234.508L158.356 235.608ZM162.238 241.505C162.811 242.364 163.412 243.177 164.042 243.944L165.588 242.675C165.002 241.961 164.44 241.202 163.902 240.395L162.238 241.505ZM168.419 248.18C169.238 248.8 170.089 249.363 170.974 249.868L171.966 248.132C171.157 247.669 170.377 247.154 169.627 246.586L168.419 248.18ZM171.047 249.906C171.936 250.321 172.833 250.685 173.739 250.999L174.394 249.11C173.555 248.819 172.721 248.48 171.893 248.094L171.047 249.906ZM179.411 252.288C180.374 252.396 181.344 252.45 182.32 252.45V250.45C181.417 250.45 180.522 250.4 179.634 250.301L179.411 252.288ZM182.32 252.45C183.767 252.45 185.17 252.346 186.528 252.136L186.223 250.16C184.972 250.353 183.671 250.45 182.32 250.45V252.45ZM194.524 249.387C195.743 248.696 196.905 247.889 198.011 246.968L196.73 245.432C195.714 246.279 194.649 247.017 193.538 247.648L194.524 249.387ZM197.99 246.985C199.092 246.115 200.069 245.185 200.919 244.193L199.4 242.892C198.641 243.777 197.759 244.619 196.751 245.415L197.99 246.985ZM204.585 236.948C204.876 235.652 205.02 234.303 205.02 232.9H203.02C203.02 234.165 202.891 235.367 202.634 236.509L204.585 236.948ZM205.02 232.9C205.02 231.756 204.91 230.605 204.692 229.449L202.726 229.82C202.923 230.858 203.02 231.885 203.02 232.9H205.02ZM202.386 223.009C201.88 222.04 201.302 221.069 200.652 220.095L198.988 221.205C199.601 222.124 200.143 223.034 200.614 223.935L202.386 223.009ZM105.32 114.3H97.9703V116.3H105.32V114.3ZM83.2703 114.3H68.5703V116.3H83.2703V114.3ZM53.8703 114.3H46.5203V116.3H53.8703V114.3ZM47.5203 115.3V108.796H45.5203V115.3H47.5203ZM47.5203 95.7875V82.7792H45.5203V95.7875H47.5203ZM47.5203 69.7708V56.7625H45.5203V69.7708H47.5203ZM47.5203 43.7542V37.25H45.5203V43.7542H47.5203ZM46.5203 38.25H53.8703V36.25H46.5203V38.25ZM68.5703 38.25H83.2703V36.25H68.5703V38.25ZM97.9703 38.25H105.32V36.25H97.9703V38.25ZM105.32 38.25C108.757 38.25 112.003 38.3792 115.058 38.6368L115.226 36.6439C112.109 36.381 108.807 36.25 105.32 36.25V38.25ZM133.894 42.7527C137.072 44.055 139.82 45.6339 142.148 47.4831L143.392 45.9169C140.897 43.9353 137.98 42.2659 134.652 40.902L133.894 42.7527ZM142.163 47.4944C144.282 49.1149 146.106 51.0103 147.637 53.1829L149.272 52.0309C147.623 49.6916 145.658 47.6491 143.378 45.9056L142.163 47.4944ZM153.131 68.0363C153.49 70.5469 153.67 73.2343 153.67 76.1H155.67C155.67 73.151 155.485 70.3683 155.111 67.7534L153.131 68.0363ZM153.67 76.1C153.67 78.974 153.482 81.6795 153.108 84.218L155.087 84.5094C155.477 81.8643 155.67 79.0607 155.67 76.1H153.67ZM147.541 99.1994C146.023 101.4 144.222 103.359 142.135 105.078L143.406 106.622C145.635 104.786 147.563 102.69 149.187 100.335L147.541 99.1994ZM142.148 105.067C139.82 106.916 137.072 108.495 133.894 109.797L134.652 111.648C137.98 110.284 140.897 108.615 143.392 106.633L142.148 105.067ZM115.058 113.913C112.003 114.171 108.757 114.3 105.32 114.3V116.3C108.807 116.3 112.109 116.169 115.226 115.906L115.058 113.913ZM199.82 220.65L198.147 221.745L198.152 221.752L198.156 221.759L199.82 220.65ZM197.37 246.2L196.131 244.63L196.11 244.647L196.09 244.664L197.37 246.2ZM171.47 249L170.478 250.736L170.55 250.777L170.625 250.812L171.47 249ZM163.07 240.95L161.4 242.05L161.406 242.059L163.07 240.95ZM116.52 170.25L114.824 171.31L114.837 171.33L114.85 171.35L116.52 170.25ZM101.47 154.5L100.453 156.222L100.469 156.232L100.486 156.241L101.47 154.5ZM46.8703 149.95V147.95H44.8703V149.95H46.8703ZM40.9203 245.15L42.3345 246.564L42.3547 246.544L42.3743 246.523L40.9203 245.15ZM8.37031 245.15L6.91629 246.523L6.95552 246.565L6.99707 246.604L8.37031 245.15ZM8.02032 7.85L6.64958 6.3936L6.62752 6.41436L6.6061 6.43578L8.02032 7.85ZM175.32 21.15L174.007 22.6582L174.02 22.6694L174.033 22.6804L175.32 21.15ZM180.92 122.3L179.424 120.973L179.422 120.975L180.92 122.3ZM135.07 145.75L134.723 143.78L134.601 147.694L135.07 145.75ZM152.92 154.5L154.187 152.952L154.187 152.952L152.92 154.5ZM167.97 172L169.644 170.905L169.642 170.903L167.97 172ZM142.77 105.85L144.014 107.416L144.028 107.405L144.042 107.394L142.77 105.85ZM142.77 46.7L141.527 48.2662L141.541 48.2776L141.555 48.2887L142.77 46.7ZM46.5203 37.25V35.25H44.5203V37.25H46.5203ZM46.5203 115.3H44.5203V117.3H46.5203V115.3ZM201.494 219.555L197.512 213.473L194.166 215.664L198.147 221.745L201.494 219.555ZM189.55 201.311L181.587 189.148L178.241 191.339L186.203 203.502L189.55 201.311ZM173.625 176.986L169.644 170.905L166.297 173.095L170.278 179.177L173.625 176.986ZM169.642 170.903C168.53 169.207 167.409 167.592 166.281 166.056L163.058 168.425C164.142 169.9 165.222 171.457 166.298 173.097L169.642 170.903ZM158.616 156.995C157.156 155.522 155.679 154.173 154.187 152.952L151.654 156.048C153.03 157.174 154.404 158.428 155.776 159.811L158.616 156.995ZM154.187 152.952C152.828 151.84 151.414 150.814 149.944 149.873L147.787 153.242C149.126 154.099 150.414 155.034 151.654 156.048L154.187 152.952ZM140.543 145.289C138.923 144.714 137.255 144.22 135.54 143.806L134.601 147.694C136.186 148.077 137.72 148.532 139.206 149.059L140.543 145.289ZM135.418 147.72C137.654 147.325 139.835 146.876 141.961 146.373L141.04 142.48C138.991 142.965 136.886 143.399 134.723 143.78L135.418 147.72ZM154.758 142.427C159.077 140.747 163.108 138.781 166.849 136.525L164.783 133.1C161.251 135.23 157.427 137.097 153.308 138.699L154.758 142.427ZM177.674 128.454C179.341 126.926 180.922 125.316 182.418 123.625L179.422 120.975C178.019 122.561 176.535 124.071 174.971 125.506L177.674 128.454ZM182.417 123.627C183.886 121.97 185.261 120.252 186.542 118.475L183.296 116.137C182.096 117.804 180.805 119.415 179.424 120.973L182.417 123.627ZM193.105 107.037C194.858 103.093 196.241 98.9294 197.257 94.5497L193.361 93.6459C192.399 97.7894 191.095 101.711 189.45 105.412L193.105 107.037ZM199.153 81.5825C199.298 79.4471 199.37 77.2695 199.37 75.05H195.37C195.37 77.1827 195.301 79.2698 195.162 81.3115L199.153 81.5825ZM199.37 75.05C199.37 72.4285 199.281 69.8714 199.102 67.379L195.112 67.6659C195.284 70.058 195.37 72.5193 195.37 75.05H199.37ZM196.686 52.1736C195.352 46.9851 193.517 42.1575 191.177 37.6976L187.635 39.5563C189.822 43.7242 191.55 48.2599 192.812 53.17L196.686 52.1736ZM182.234 24.9915C180.49 23.098 178.614 21.3073 176.608 19.6195L174.033 22.6804C175.912 24.2615 177.665 25.9353 179.293 27.7018L182.234 24.9915ZM176.634 19.6418C174.453 17.7424 172.126 15.9834 169.653 14.3647L167.462 17.7114C169.786 19.2325 171.967 20.8815 174.007 22.6582L176.634 19.6418ZM154.047 6.67501C148.883 4.81271 143.304 3.35945 137.313 2.30979L136.623 6.24976C142.412 7.26413 147.766 8.66196 152.69 10.4378L154.047 6.67501ZM120.205 0.455331C117.414 0.318355 114.553 0.249985 111.62 0.249985V4.24998C114.491 4.24998 117.287 4.31691 120.009 4.45052L120.205 0.455331ZM111.62 0.249985H104.329V4.24998H111.62V0.249985ZM89.7453 0.249985H75.162V4.24998H89.7453V0.249985ZM60.5787 0.249985H45.9953V4.24998H60.5787V0.249985ZM31.412 0.249985H24.1203V4.24998H31.412V0.249985ZM24.1203 0.249985C22.5146 0.249985 20.9713 0.349677 19.4923 0.552223L20.035 4.51523C21.3186 4.33946 22.6797 4.24998 24.1203 4.24998V0.249985ZM10.5149 3.51641C9.11556 4.32646 7.82629 5.2861 6.64958 6.3936L9.39105 9.30639C10.3437 8.40981 11.3854 7.63433 12.5189 6.97821L10.5149 3.51641ZM6.6061 6.43578C5.47433 7.56755 4.49606 8.82482 3.67311 10.2042L7.10823 12.2536C7.76278 11.1565 8.5376 10.1611 9.43453 9.26421L6.6061 6.43578ZM0.714347 19.0496C0.517203 20.4995 0.420314 22.017 0.420314 23.6H4.42031C4.42031 22.1796 4.50729 20.8431 4.67788 19.5885L0.714347 19.0496ZM0.420314 23.6V30.9125H4.42031V23.6H0.420314ZM0.420314 45.5375V60.1625H4.42031V45.5375H0.420314ZM0.420314 74.7875V89.4125H4.42031V74.7875H0.420314ZM0.420314 104.037V118.662H4.42031V104.037H0.420314ZM0.420314 133.287V147.912H4.42031V133.287H0.420314ZM0.420314 162.537V177.162H4.42031V162.537H0.420314ZM0.420314 191.788V206.412H4.42031V191.788H0.420314ZM0.420314 221.038V228.35H4.42031V221.038H0.420314ZM0.420314 228.35C0.420314 230.026 0.528235 231.639 0.747336 233.186L4.7078 232.625C4.51723 231.279 4.42031 229.855 4.42031 228.35H0.420314ZM3.90621 242.522C4.75649 243.965 5.7606 245.3 6.91629 246.523L9.82434 243.777C8.87286 242.769 8.04964 241.675 7.35242 240.492L3.90621 242.522ZM6.99707 246.604C8.19989 247.74 9.50251 248.73 10.9038 249.573L12.9642 246.144C11.8137 245.453 10.7405 244.638 9.74356 243.696L6.99707 246.604ZM20.0574 252.763C21.584 252.989 23.1723 253.1 24.8203 253.1V249.1C23.352 249.1 21.9602 249.001 20.6427 248.806L20.0574 252.763ZM24.8203 253.1C26.4462 253.1 28.0089 252.992 29.5063 252.772L28.9246 248.814C27.6364 249.004 26.2691 249.1 24.8203 249.1V253.1ZM38.5271 249.585C39.9068 248.73 41.1764 247.722 42.3345 246.564L39.5061 243.736C38.5631 244.679 37.5352 245.494 36.4209 246.184L38.5271 249.585ZM42.3743 246.523C43.53 245.3 44.5341 243.965 45.3844 242.522L41.9382 240.492C41.241 241.675 40.4178 242.769 39.4663 243.777L42.3743 246.523ZM48.5433 233.186C48.7624 231.639 48.8703 230.026 48.8703 228.35H44.8703C44.8703 229.855 44.7734 231.279 44.5828 232.625L48.5433 233.186ZM48.8703 228.35V221.817H44.8703V228.35H48.8703ZM48.8703 208.75V195.683H44.8703V208.75H48.8703ZM48.8703 182.617V169.55H44.8703V182.617H48.8703ZM48.8703 156.483V149.95H44.8703V156.483H48.8703ZM46.8703 151.95H55.4453V147.95H46.8703V151.95ZM72.5953 151.95H81.1703V147.95H72.5953V151.95ZM81.1703 151.95C82.9477 151.95 84.6425 152.02 86.2554 152.159L86.5979 148.173C84.8616 148.024 83.0521 147.95 81.1703 147.95V151.95ZM96.0312 154.167C97.6411 154.744 99.1134 155.43 100.453 156.222L102.488 152.778C100.914 151.848 99.2103 151.057 97.3811 150.402L96.0312 154.167ZM100.486 156.241C101.905 157.043 103.31 158.019 104.7 159.176L107.258 156.101C105.7 154.805 104.099 153.688 102.454 152.759L100.486 156.241ZM111.824 166.89C112.836 168.257 113.836 169.729 114.824 171.31L118.216 169.19C117.177 167.528 116.118 165.967 115.038 164.509L111.824 166.89ZM114.85 171.35L118.729 177.242L122.07 175.042L118.191 169.15L114.85 171.35ZM126.487 189.025L134.246 200.808L137.587 198.608L129.828 186.825L126.487 189.025ZM142.004 212.592L149.762 224.375L153.103 222.175L145.345 210.392L142.004 212.592ZM157.521 236.158L161.4 242.05L164.741 239.85L160.862 233.958L157.521 236.158ZM161.406 242.059C161.997 242.945 162.617 243.785 163.269 244.579L166.36 242.04C165.797 241.353 165.254 240.62 164.734 239.841L161.406 242.059ZM167.816 248.977C168.668 249.623 169.556 250.209 170.478 250.736L172.463 247.264C171.691 246.822 170.947 246.331 170.23 245.789L167.816 248.977ZM170.625 250.812C171.544 251.241 172.473 251.619 173.412 251.944L174.722 248.165C173.916 247.885 173.114 247.56 172.316 247.188L170.625 250.812ZM179.3 253.282C180.3 253.394 181.307 253.45 182.32 253.45V249.45C181.454 249.45 180.596 249.402 179.745 249.307L179.3 253.282ZM182.32 253.45C183.815 253.45 185.269 253.342 186.68 253.125L186.071 249.172C184.873 249.356 183.623 249.45 182.32 249.45V253.45ZM195.018 250.257C196.29 249.536 197.501 248.695 198.651 247.736L196.09 244.664C195.118 245.474 194.103 246.178 193.044 246.778L195.018 250.257ZM198.61 247.77C199.758 246.863 200.783 245.889 201.678 244.843L198.64 242.241C197.927 243.073 197.093 243.871 196.131 244.63L198.61 247.77ZM205.561 237.167C205.869 235.795 206.02 234.371 206.02 232.9H202.02C202.02 234.096 201.898 235.225 201.658 236.29L205.561 237.167ZM206.02 232.9C206.02 231.691 205.904 230.478 205.674 229.263L201.744 230.006C201.929 230.985 202.02 231.949 202.02 232.9H206.02ZM203.272 222.545C202.748 221.543 202.152 220.542 201.484 219.541L198.156 221.759C198.751 222.652 199.274 223.531 199.728 224.399L203.272 222.545ZM105.32 113.3H97.9703V117.3H105.32V113.3ZM83.2703 113.3H68.5703V117.3H83.2703V113.3ZM53.8703 113.3H46.5203V117.3H53.8703V113.3ZM48.5203 115.3V108.796H44.5203V115.3H48.5203ZM48.5203 95.7875V82.7792H44.5203V95.7875H48.5203ZM48.5203 69.7708V56.7625H44.5203V69.7708H48.5203ZM48.5203 43.7542V37.25H44.5203V43.7542H48.5203ZM46.5203 39.25H53.8703V35.25H46.5203V39.25ZM68.5703 39.25H83.2703V35.25H68.5703V39.25ZM97.9703 39.25H105.32V35.25H97.9703V39.25ZM105.32 39.25C108.733 39.25 111.95 39.3783 114.974 39.6333L115.31 35.6474C112.162 35.382 108.832 35.25 105.32 35.25V39.25ZM133.514 43.678C136.617 44.9495 139.281 46.4832 141.527 48.2662L144.014 45.1338C141.435 43.086 138.434 41.3713 135.031 39.9767L133.514 43.678ZM141.555 48.2887C143.594 49.8477 145.347 51.6696 146.819 53.7589L150.089 51.4548C148.382 49.0323 146.346 46.9162 143.985 45.1113L141.555 48.2887ZM152.141 68.1777C152.492 70.6362 152.67 73.276 152.67 76.1H156.67C156.67 73.1093 156.482 70.279 156.101 67.612L152.141 68.1777ZM152.67 76.1C152.67 78.9306 152.485 81.5872 152.119 84.0723L156.076 84.6551C156.474 81.9567 156.67 79.1041 156.67 76.1H152.67ZM146.718 98.6317C145.253 100.755 143.515 102.646 141.499 104.306L144.042 107.394C146.342 105.5 148.333 103.335 150.01 100.903L146.718 98.6317ZM141.527 104.284C139.281 106.067 136.617 107.6 133.514 108.872L135.031 112.573C138.434 111.179 141.435 109.464 144.014 107.416L141.527 104.284ZM114.974 112.917C111.95 113.172 108.733 113.3 105.32 113.3V117.3C108.832 117.3 112.162 117.168 115.31 116.903L114.974 112.917Z" fill="black"/>
</svg>
