<svg width="150" height="183" viewBox="0 0 150 183" fill="none" xmlns="http://www.w3.org/2000/svg">
<path d="M75.2635 180.8C49.8301 180.8 29.2968 175.783 13.6635 165.75C6.19681 161.317 2.46348 155.017 2.46348 146.85C2.46348 142.183 3.74681 138.45 6.31348 135.65C8.88014 132.617 12.0301 131.1 15.7635 131.1C19.7301 131.1 25.2135 132.967 32.2135 136.7C39.6801 140.2 46.4468 142.883 52.5135 144.75C58.8135 146.617 66.7468 147.55 76.3135 147.55C86.1135 147.55 93.6968 145.917 99.0635 142.65C104.663 139.383 107.463 134.833 107.463 129C107.463 125.033 106.297 121.883 103.963 119.55C101.863 117.217 97.8968 115.117 92.0635 113.25C86.4635 111.15 77.8301 108.817 66.1635 106.25C45.3968 102.05 30.4635 96.1 21.3635 88.4C12.4968 80.7 8.06348 70.0833 8.06348 56.55C8.06348 46.2833 11.0968 37.0667 17.1635 28.9C23.2301 20.5 31.5135 14.0833 42.0135 9.64999C52.7468 4.98332 64.8801 2.64998 78.4135 2.64998C88.2135 2.64998 97.6635 3.93332 106.763 6.5C115.863 8.83333 124.03 12.3333 131.263 17C138.73 21.6667 142.463 27.85 142.463 35.55C142.463 40.2167 141.18 44.1833 138.613 47.45C136.047 50.4833 132.897 52 129.163 52C126.597 52 124.03 51.5333 121.463 50.6C119.13 49.4333 116.097 47.8 112.363 45.7C105.597 42.2 99.7635 39.6333 94.8635 38C89.9635 36.1333 83.8968 35.2 76.6635 35.2C68.0301 35.2 61.1468 36.95 56.0135 40.45C51.1135 43.95 48.6635 48.7333 48.6635 54.8C48.6635 60.6333 51.2301 65.0667 56.3635 68.1C61.4968 71.1333 71.4135 74.1667 86.1135 77.2C101.747 80.4667 113.997 84.2 122.863 88.4C131.73 92.6 138.03 97.85 141.763 104.15C145.73 110.45 147.713 118.5 147.713 128.3C147.713 144.167 141.063 156.883 127.763 166.45C114.697 176.017 97.1968 180.8 75.2635 180.8Z" fill="#F5F5F5"/>
<path d="M13.6635 165.75L14.2036 164.908L14.189 164.899L14.174 164.89L13.6635 165.75ZM6.31348 135.65L7.05063 136.326L7.06404 136.311L7.07686 136.296L6.31348 135.65ZM32.2135 136.7L31.7429 137.582L31.7657 137.594L31.789 137.605L32.2135 136.7ZM52.5135 144.75L52.2194 145.706L52.2294 145.709L52.5135 144.75ZM99.0635 142.65L98.5596 141.786L98.5515 141.791L98.5435 141.796L99.0635 142.65ZM103.963 119.55L103.22 120.219L103.238 120.239L103.256 120.257L103.963 119.55ZM92.0635 113.25L91.7124 114.186L91.7353 114.195L91.7587 114.202L92.0635 113.25ZM66.1635 106.25L66.3783 105.273L66.37 105.272L66.3617 105.27L66.1635 106.25ZM21.3635 88.4L20.7077 89.1551L20.7175 89.1634L21.3635 88.4ZM17.1635 28.9L17.9663 29.4964L17.9742 29.4855L17.1635 28.9ZM42.0135 9.64999L42.4025 10.5713L42.4122 10.5671L42.0135 9.64999ZM106.763 6.5L106.492 7.46245L106.504 7.46569L106.515 7.46866L106.763 6.5ZM131.263 17L130.721 17.8403L130.727 17.8442L130.733 17.848L131.263 17ZM138.613 47.45L139.377 48.0959L139.389 48.0821L139.4 48.0678L138.613 47.45ZM121.463 50.6L121.016 51.4944L121.068 51.5201L121.122 51.5398L121.463 50.6ZM112.363 45.7L112.854 44.8284L112.838 44.8198L112.823 44.8118L112.363 45.7ZM94.8635 38L94.5075 38.9345L94.5272 38.942L94.5473 38.9487L94.8635 38ZM56.0135 40.45L55.4501 39.6238L55.4411 39.6299L55.4322 39.6363L56.0135 40.45ZM56.3635 68.1L55.8547 68.9609L55.8548 68.9609L56.3635 68.1ZM86.1135 77.2L86.318 76.2211L86.3156 76.2206L86.1135 77.2ZM122.863 88.4L123.292 87.4963L123.292 87.4963L122.863 88.4ZM141.763 104.15L140.903 104.66L140.91 104.671L140.917 104.683L141.763 104.15ZM127.763 166.45L127.18 165.638L127.173 165.643L127.763 166.45ZM75.2635 179.8C72.5425 179.8 69.8787 179.742 67.2723 179.627L67.1838 181.625C69.821 181.742 72.5142 181.8 75.2635 181.8V179.8ZM51.3918 178.105C45.9023 177.268 40.7226 176.12 35.8514 174.663L35.2785 176.58C40.246 178.065 45.5169 179.232 51.0901 180.083L51.3918 178.105ZM21.0885 168.837C18.6943 167.627 16.3994 166.318 14.2036 164.908L13.1234 166.592C15.3783 168.039 17.7328 169.382 20.1865 170.622L21.0885 168.837ZM14.174 164.89C12.4774 163.883 10.9901 162.782 9.70719 161.591L8.34611 163.056C9.74389 164.354 11.3478 165.538 13.1529 166.61L14.174 164.89ZM4.11825 152.322C3.68346 150.618 3.46348 148.795 3.46348 146.85H1.46348C1.46348 148.947 1.7007 150.937 2.18031 152.817L4.11825 152.322ZM3.46348 146.85C3.46348 145.835 3.52661 144.873 3.65134 143.961L1.6698 143.69C1.53174 144.699 1.46348 145.753 1.46348 146.85H3.46348ZM5.39921 138.59C5.86487 137.774 6.41507 137.019 7.05063 136.326L5.57632 134.974C4.83986 135.778 4.20138 136.653 3.66172 137.6L5.39921 138.59ZM7.07686 136.296C7.64971 135.619 8.24834 135.028 8.8718 134.521L7.60982 132.97C6.8826 133.561 6.19634 134.24 5.55009 135.004L7.07686 136.296ZM13.2861 132.361C14.0724 132.188 14.8975 132.1 15.7635 132.1V130.1C14.7612 130.1 13.7912 130.202 12.8554 130.408L13.2861 132.361ZM15.7635 132.1C16.9492 132.1 18.3112 132.281 19.857 132.659L20.3316 130.716C18.672 130.31 17.1469 130.1 15.7635 130.1V132.1ZM27.873 135.637C29.1036 136.214 30.3935 136.863 31.7429 137.582L32.6841 135.818C31.308 135.084 29.9874 134.42 28.7224 133.826L27.873 135.637ZM31.789 137.605C33.4912 138.403 35.1578 139.159 36.7887 139.873L37.5907 138.041C35.9763 137.334 34.3254 136.586 32.6379 135.795L31.789 137.605ZM46.9942 143.96C48.788 144.604 50.5297 145.186 52.2194 145.706L52.8076 143.794C51.1496 143.284 49.4372 142.712 47.6702 142.077L46.9942 143.96ZM52.2294 145.709C54.0808 146.257 56.0646 146.725 58.1797 147.114L58.5408 145.146C56.4874 144.769 54.5733 144.317 52.7976 143.791L52.2294 145.709ZM70.2585 148.417C72.2008 148.506 74.2191 148.55 76.3135 148.55V146.55C74.2473 146.55 72.2595 146.506 70.3501 146.419L70.2585 148.417ZM76.3135 148.55C78.3958 148.55 80.3829 148.477 82.2744 148.331L82.1201 146.337C80.2848 146.479 78.3494 146.55 76.3135 146.55V148.55ZM94.0565 146.062C96.0869 145.361 97.9308 144.51 99.5834 143.504L98.5435 141.796C97.0273 142.719 95.3158 143.512 93.4044 144.171L94.0565 146.062ZM99.5673 143.514C100.906 142.733 102.102 141.875 103.149 140.938L101.816 139.448C100.88 140.285 99.796 141.065 98.5596 141.786L99.5673 143.514ZM107.894 133.433C108.275 132.032 108.463 130.553 108.463 129H106.463C106.463 130.39 106.295 131.691 105.964 132.907L107.894 133.433ZM108.463 129C108.463 128.053 108.4 127.144 108.272 126.274L106.293 126.566C106.406 127.331 106.463 128.142 106.463 129H108.463ZM106.42 121.045C105.925 120.248 105.341 119.513 104.671 118.843L103.256 120.257C103.82 120.821 104.307 121.435 104.72 122.1L106.42 121.045ZM104.707 118.881C103.963 118.055 103.027 117.277 101.915 116.54L100.811 118.208C101.817 118.874 102.615 119.546 103.22 120.219L104.707 118.881ZM95.6322 113.439C94.614 113.048 93.5258 112.668 92.3683 112.298L91.7587 114.202C92.8845 114.563 93.9367 114.931 94.9157 115.306L95.6322 113.439ZM92.4146 112.314C90.5801 111.626 88.434 110.916 85.9791 110.185L85.4083 112.102C87.8319 112.824 89.9322 113.519 91.7124 114.186L92.4146 112.314ZM72.9398 106.768C70.87 106.278 68.6829 105.78 66.3783 105.273L65.9486 107.227C68.2441 107.732 70.4211 108.227 72.4798 108.714L72.9398 106.768ZM66.3617 105.27C64.3307 104.859 62.3565 104.432 60.439 103.988L59.9877 105.936C61.9244 106.385 63.9169 106.816 65.9652 107.23L66.3617 105.27ZM48.7533 100.861C44.6267 99.587 40.8481 98.2129 37.4158 96.7398L36.627 98.5777C40.133 100.082 43.979 101.48 48.1632 102.772L48.7533 100.861ZM26.7999 91.1721C25.0475 90.0353 23.4512 88.8566 22.0094 87.6366L20.7175 89.1634C22.2298 90.443 23.895 91.6716 25.7114 92.85L26.7999 91.1721ZM22.0192 87.645C19.7797 85.7002 17.8343 83.5681 16.18 81.2488L14.5517 82.4102C16.3009 84.8626 18.3539 87.1109 20.7078 89.155L22.0192 87.645ZM9.75416 65.265C9.2945 62.5189 9.06348 59.6144 9.06348 56.55H7.06348C7.06348 59.7147 7.30206 62.7302 7.78161 65.5952L9.75416 65.265ZM9.06348 56.55C9.06348 54.075 9.24321 51.6654 9.60181 49.3207L7.62479 49.0183C7.25029 51.4671 7.06348 53.9778 7.06348 56.55H9.06348ZM14.1003 35.6244C15.2056 33.521 16.4939 31.4783 17.9662 29.4963L16.3607 28.3037C14.8289 30.3657 13.485 32.4958 12.3299 34.6941L14.1003 35.6244ZM17.9742 29.4855C19.5051 27.3657 21.1796 25.375 22.9978 23.513L21.5668 22.1157C19.6794 24.0486 17.9413 26.115 16.3528 28.3145L17.9742 29.4855ZM35.3705 14.0314C37.5877 12.7681 39.9315 11.6145 42.4024 10.5712L41.6245 8.72874C39.0843 9.80126 36.6694 10.9894 34.3803 12.2937L35.3705 14.0314ZM42.4122 10.5671C45.1985 9.35561 48.0816 8.303 51.0618 7.40944L50.4874 5.4937C47.433 6.40949 44.4754 7.48916 41.6148 8.73292L42.4122 10.5671ZM69.1759 4.03409C72.1763 3.77813 75.2554 3.64998 78.4135 3.64998V1.64998C75.2014 1.64998 72.0654 1.78032 69.0059 2.04133L69.1759 4.03409ZM78.4135 3.64998C80.8033 3.64998 83.1715 3.72698 85.5183 3.88092L85.6492 1.88521C83.2582 1.72837 80.8463 1.64998 78.4135 1.64998V3.64998ZM99.5918 5.77862C101.914 6.25869 104.214 6.81997 106.492 7.46245L107.035 5.53755C104.711 4.88218 102.365 4.30968 99.9967 3.82003L99.5918 5.77862ZM106.515 7.46866C108.686 8.02541 110.803 8.64901 112.865 9.33932L113.5 7.44278C111.391 6.73677 109.228 6.09966 107.012 5.53133L106.515 7.46866ZM125.02 14.5098C126.982 15.5438 128.883 16.654 130.721 17.8403L131.806 16.1597C129.917 14.9412 127.966 13.8015 125.953 12.7405L125.02 14.5098ZM130.733 17.848C132.387 18.8815 133.843 19.9857 135.105 21.1585L136.466 19.6934C135.101 18.4248 133.542 17.245 131.793 16.152L130.733 17.848ZM140.765 30.2C141.229 31.8799 141.463 33.662 141.463 35.55H143.463C143.463 33.495 143.208 31.533 142.693 29.6677L140.765 30.2ZM141.463 35.55C141.463 36.6051 141.395 37.6184 141.26 38.5905L143.241 38.8664C143.39 37.7971 143.463 36.6914 143.463 35.55H141.463ZM139.46 44.3143C138.997 45.1966 138.453 46.0358 137.827 46.8322L139.4 48.0678C140.1 47.1769 140.71 46.2354 141.231 45.2436L139.46 44.3143ZM137.85 46.804C137.277 47.481 136.679 48.0716 136.055 48.5787L137.317 50.1303C138.044 49.5388 138.731 48.8597 139.377 48.0959L137.85 46.804ZM131.641 50.7386C130.855 50.912 130.029 51 129.163 51V53C130.166 53 131.136 52.8981 132.072 52.6917L131.641 50.7386ZM129.163 51C128.54 51 127.916 50.9711 127.292 50.9132L127.107 52.9047C127.793 52.9682 128.478 53 129.163 53V51ZM123.602 50.2341C123.004 50.0695 122.405 49.8783 121.805 49.6602L121.122 51.5398C121.771 51.7757 122.42 51.9833 123.071 52.1624L123.602 50.2341ZM121.911 49.7056C121.215 49.3578 120.455 48.9674 119.631 48.5341L118.7 50.3045C119.535 50.743 120.307 51.1396 121.016 51.4944L121.911 49.7056ZM115.105 46.0849C114.385 45.6867 113.635 45.2679 112.854 44.8284L111.873 46.5716C112.658 47.013 113.412 47.4341 114.136 47.8347L115.105 46.0849ZM112.823 44.8118C111.347 44.0484 109.915 43.3288 108.526 42.6531L107.651 44.4516C109.024 45.1196 110.442 45.8318 111.904 46.5882L112.823 44.8118ZM99.723 38.7239C98.1329 38.0886 96.6184 37.5309 95.1797 37.0513L94.5473 38.9487C95.9445 39.4144 97.4223 39.9584 98.9809 40.5811L99.723 38.7239ZM95.2195 37.0655C93.7951 36.5229 92.2803 36.0587 90.6759 35.6718L90.207 37.616C91.7361 37.9848 93.1692 38.4247 94.5075 38.9345L95.2195 37.0655ZM81.3507 34.3387C79.8439 34.2461 78.2814 34.2 76.6635 34.2V36.2C78.2435 36.2 79.765 36.2451 81.2281 36.3349L81.3507 34.3387ZM76.6635 34.2C74.7513 34.2 72.9193 34.2845 71.168 34.4544L71.3611 36.445C73.0426 36.2819 74.8099 36.2 76.6635 36.2V34.2ZM60.3936 36.9816C58.6075 37.715 56.9588 38.5951 55.4501 39.6238L56.5768 41.2762C57.9632 40.331 59.4878 39.5156 61.1533 38.8317L60.3936 36.9816ZM55.4322 39.6363C54.1866 40.526 53.0845 41.5008 52.1301 42.5621L53.6173 43.8994C54.4664 42.9551 55.4575 42.076 56.5947 41.2637L55.4322 39.6363ZM48.1153 50.4151C47.8129 51.8066 47.6635 53.2691 47.6635 54.8H49.6635C49.6635 53.3994 49.8001 52.0802 50.0697 50.8399L48.1153 50.4151ZM47.6635 54.8C47.6635 56.2897 47.8229 57.7048 48.1467 59.0418L50.0905 58.571C49.8075 57.4026 49.6635 56.1467 49.6635 54.8H47.6635ZM52.4411 66.4169C53.4332 67.3563 54.5728 68.2034 55.8547 68.9609L56.8722 67.2391C55.7056 66.5497 54.6886 65.7907 53.8161 64.9646L52.4411 66.4169ZM55.8548 68.9609C57.7195 70.0628 60.1557 71.1454 63.1422 72.215L63.8166 70.3321C60.8956 69.286 58.5879 68.2529 56.8722 67.2391L55.8548 68.9609ZM78.2613 76.5003C80.6506 77.0603 83.2007 77.62 85.9114 78.1794L86.3156 76.2206C83.6201 75.6644 81.0876 75.1086 78.7177 74.5531L78.2613 76.5003ZM85.9089 78.1789C89.1784 78.862 92.298 79.5654 95.268 80.2888L95.7413 78.3457C92.7482 77.6166 89.6071 76.9084 86.318 76.2211L85.9089 78.1789ZM113.627 85.6854C116.873 86.8528 119.808 88.0592 122.435 89.3037L123.292 87.4963C120.596 86.2196 117.6 84.989 114.304 83.8034L113.627 85.6854ZM122.435 89.3037C124.368 90.2191 126.173 91.1832 127.851 92.1957L128.884 90.4831C127.144 89.4333 125.279 88.4379 123.292 87.4963L122.435 89.3037ZM137.314 99.8111C138.706 101.353 139.901 102.969 140.903 104.66L142.624 103.64C141.551 101.829 140.275 100.106 138.799 98.471L137.314 99.8111ZM140.917 104.683C141.978 106.367 142.894 108.184 143.665 110.136L145.525 109.401C144.711 107.34 143.739 105.411 142.61 103.617L140.917 104.683ZM146.423 122.106C146.616 124.081 146.713 126.146 146.713 128.3H148.713C148.713 126.086 148.614 123.956 148.413 121.91L146.423 122.106ZM146.713 128.3C146.713 132.131 146.319 135.765 145.533 139.206L147.483 139.651C148.305 136.053 148.713 132.269 148.713 128.3H146.713ZM135.426 158.371C133.057 160.964 130.309 163.387 127.18 165.638L128.347 167.262C131.579 164.937 134.432 162.424 136.903 159.72L135.426 158.371ZM127.173 165.643C125.359 166.971 123.457 168.206 121.467 169.348L122.463 171.083C124.515 169.905 126.479 168.63 128.354 167.257L127.173 165.643ZM109.029 174.893C104.889 176.286 100.468 177.383 95.7641 178.184L96.0997 180.155C100.897 179.339 105.42 178.217 109.666 176.789L109.029 174.893ZM82.1333 179.635C79.8953 179.745 77.6054 179.8 75.2635 179.8V181.8C77.6366 181.8 79.9592 181.744 82.2312 181.633L82.1333 179.635ZM13.6635 165.75L14.7437 164.067L14.7145 164.048L14.6846 164.03L13.6635 165.75ZM6.31348 135.65L7.78779 137.001L7.81461 136.972L7.84025 136.942L6.31348 135.65ZM32.2135 136.7L31.2723 138.465L31.3179 138.489L31.3646 138.511L32.2135 136.7ZM52.5135 144.75L51.9253 146.662L51.9353 146.665L51.9453 146.668L52.5135 144.75ZM99.0635 142.65L98.0557 140.922L98.0396 140.932L98.0236 140.942L99.0635 142.65ZM103.963 119.55L102.477 120.888L102.512 120.927L102.549 120.964L103.963 119.55ZM92.0635 113.25L91.3612 115.123L91.4072 115.14L91.4539 115.155L92.0635 113.25ZM66.1635 106.25L66.5932 104.297L66.5766 104.293L66.5599 104.29L66.1635 106.25ZM21.3635 88.4L20.0521 89.9101L20.0618 89.9185L20.0716 89.9268L21.3635 88.4ZM17.1635 28.9L18.769 30.0926L18.777 30.0819L18.7848 30.071L17.1635 28.9ZM42.0135 9.64999L42.7914 11.4925L42.8012 11.4884L42.8109 11.4841L42.0135 9.64999ZM106.763 6.5L106.221 8.4249L106.244 8.43139L106.267 8.43732L106.763 6.5ZM131.263 17L130.179 18.6806L130.191 18.6884L130.203 18.696L131.263 17ZM138.613 47.45L140.14 48.7419L140.164 48.7142L140.186 48.6856L138.613 47.45ZM121.463 50.6L120.569 52.3888L120.672 52.4403L120.78 52.4796L121.463 50.6ZM112.363 45.7L113.344 43.9568L113.313 43.9397L113.282 43.9236L112.363 45.7ZM94.8635 38L94.1515 39.869L94.191 39.884L94.231 39.8974L94.8635 38ZM56.0135 40.45L54.8868 38.7975L54.8688 38.8098L54.851 38.8225L56.0135 40.45ZM56.3635 68.1L55.346 69.8218L55.346 69.8219L56.3635 68.1ZM86.1135 77.2L86.5226 75.2423L86.5177 75.2413L86.1135 77.2ZM122.863 88.4L123.72 86.5925L123.72 86.5925L122.863 88.4ZM141.763 104.15L140.043 105.17L140.057 105.193L140.071 105.216L141.763 104.15ZM127.763 166.45L126.596 164.826L126.589 164.831L126.582 164.836L127.763 166.45ZM75.2635 178.8C72.5566 178.8 69.9076 178.743 67.3165 178.628L67.1396 182.624C69.7921 182.741 72.5001 182.8 75.2635 182.8V178.8ZM51.5427 177.117C46.095 176.285 40.9608 175.147 36.1379 173.705L34.9921 177.538C40.0078 179.037 45.3243 180.214 50.9392 181.071L51.5427 177.117ZM21.5396 167.945C19.175 166.75 16.91 165.457 14.7437 164.067L12.5832 167.433C14.8678 168.899 17.252 170.26 19.7355 171.515L21.5396 167.945ZM14.6846 164.03C13.0422 163.055 11.6131 161.996 10.3877 160.858L7.66557 163.789C9.12082 165.14 10.783 166.366 12.6424 167.47L14.6846 164.03ZM5.08722 152.075C4.67484 150.459 4.46348 148.719 4.46348 146.85H0.463477C0.463477 149.022 0.709321 151.096 1.21134 153.064L5.08722 152.075ZM4.46348 146.85C4.46348 145.877 4.52404 144.96 4.64211 144.097L0.679036 143.555C0.534312 144.612 0.463477 145.711 0.463477 146.85H4.46348ZM6.26796 139.086C6.69662 138.334 7.20267 137.64 7.78779 137.001L4.83917 134.299C4.05225 135.157 3.36963 136.093 2.79297 137.105L6.26796 139.086ZM7.84025 136.942C8.37639 136.308 8.93121 135.762 9.50279 135.297L6.97883 132.194C6.19972 132.828 5.46965 133.551 4.7867 134.358L7.84025 136.942ZM13.5014 133.338C14.2129 133.181 14.9657 133.1 15.7635 133.1V129.1C14.6931 129.1 13.6506 129.209 12.64 129.432L13.5014 133.338ZM15.7635 133.1C16.8504 133.1 18.1308 133.266 19.6197 133.63L20.5689 129.744C18.8524 129.325 17.2457 129.1 15.7635 129.1V133.1ZM27.4483 136.543C28.6617 137.112 29.9362 137.752 31.2723 138.465L33.1547 134.935C31.7652 134.194 30.4292 133.523 29.147 132.921L27.4483 136.543ZM31.3646 138.511C33.0741 139.312 34.7485 140.072 36.3878 140.789L37.9917 137.125C36.3856 136.422 34.7425 135.677 33.0623 134.889L31.3646 138.511ZM46.6563 144.901C48.4634 145.55 50.2198 146.137 51.9253 146.662L53.1016 142.838C51.4596 142.333 49.7618 141.766 48.0082 141.136L46.6563 144.901ZM51.9453 146.668C53.8345 147.227 55.8531 147.703 57.9991 148.097L58.7214 144.163C56.6988 143.792 54.8196 143.347 53.0817 142.832L51.9453 146.668ZM70.2128 149.416C72.1714 149.505 74.205 149.55 76.3135 149.55V145.55C74.2614 145.55 72.2889 145.506 70.3959 145.42L70.2128 149.416ZM76.3135 149.55C78.419 149.55 80.432 149.476 82.3516 149.328L82.0429 145.34C80.2357 145.48 78.3262 145.55 76.3135 145.55V149.55ZM94.3825 147.007C96.4724 146.286 98.3826 145.406 100.103 144.358L98.0236 140.942C96.5755 141.823 94.9303 142.587 93.0784 143.226L94.3825 147.007ZM100.071 144.378C101.461 143.567 102.713 142.67 103.816 141.684L101.149 138.702C100.269 139.489 99.2409 140.231 98.0557 140.922L100.071 144.378ZM108.859 133.696C109.265 132.202 109.463 130.634 109.463 129H105.463C105.463 130.309 105.305 131.521 104.999 132.644L108.859 133.696ZM109.463 129C109.463 128.009 109.397 127.05 109.261 126.127L105.304 126.712C105.409 127.425 105.463 128.187 105.463 129H109.463ZM107.269 120.518C106.733 119.654 106.102 118.86 105.378 118.136L102.549 120.964C103.059 121.474 103.499 122.028 103.871 122.627L107.269 120.518ZM105.45 118.212C104.638 117.309 103.632 116.478 102.467 115.706L100.259 119.042C101.212 119.673 101.94 120.292 102.477 120.888L105.45 118.212ZM95.9905 112.506C94.9526 112.107 93.8465 111.721 92.673 111.345L91.4539 115.155C92.5638 115.51 93.598 115.872 94.5575 116.24L95.9905 112.506ZM92.7657 111.377C90.904 110.679 88.735 109.963 86.2645 109.227L85.123 113.061C87.5308 113.778 89.6083 114.465 91.3612 115.123L92.7657 111.377ZM73.1698 105.794C71.0945 105.304 68.9022 104.805 66.5932 104.297L65.7338 108.203C68.0247 108.707 70.1967 109.202 72.2498 109.687L73.1698 105.794ZM66.5599 104.29C64.5377 103.881 62.5726 103.455 60.6646 103.013L59.7621 106.91C61.7083 107.361 63.71 107.794 65.767 108.21L66.5599 104.29ZM49.0483 99.9057C44.9505 98.6404 41.2056 97.2781 37.8102 95.8209L36.2326 99.4966C39.7755 101.017 43.6552 102.427 47.8682 103.728L49.0483 99.9057ZM27.3441 90.3332C25.6237 89.2172 24.0619 88.0634 22.6554 86.8732L20.0716 89.9268C21.6191 91.2362 23.3187 92.4898 25.1671 93.6889L27.3441 90.3332ZM22.6749 86.8899C20.4927 84.9949 18.6009 82.9209 16.9941 80.6681L13.7376 82.9909C15.5343 85.5099 17.641 87.8162 20.0521 89.9101L22.6749 86.8899ZM10.7404 65.1C10.2907 62.4132 10.0635 59.5642 10.0635 56.55H6.06348C6.06348 59.7648 6.30583 62.8359 6.79533 65.7603L10.7404 65.1ZM10.0635 56.55C10.0635 54.1235 10.2397 51.7646 10.5903 49.4719L6.63629 48.8672C6.25383 51.3679 6.06348 53.9293 6.06348 56.55H10.0635ZM14.9855 36.0895C16.0659 34.0336 17.3263 32.0347 18.769 30.0926L15.558 27.7073C13.9965 29.8094 12.6247 31.9832 11.4446 34.2289L14.9855 36.0895ZM18.7848 30.071C20.287 27.991 21.9297 26.0381 23.7132 24.2116L20.8513 21.4171C18.9293 23.3855 17.1594 25.4897 15.5421 27.729L18.7848 30.071ZM35.8655 14.9003C38.0468 13.6574 40.3551 12.5212 42.7914 11.4925L41.2355 7.80749C38.6607 8.89463 36.2103 10.1001 33.8853 11.4248L35.8655 14.9003ZM42.8109 11.4841C45.5601 10.2888 48.4059 9.24975 51.349 8.36731L50.2002 4.53583C47.1088 5.46274 44.1138 6.55593 41.216 7.81585L42.8109 11.4841ZM69.2609 5.03048C72.2317 4.77703 75.2825 4.64998 78.4135 4.64998V0.649984C75.1743 0.649984 72.01 0.781421 68.9209 1.04495L69.2609 5.03048ZM78.4135 4.64998C80.7818 4.64998 83.1282 4.72629 85.4529 4.87878L85.7147 0.887355C83.3015 0.729064 80.8678 0.649984 78.4135 0.649984V4.64998ZM99.3893 6.75792C101.688 7.2332 103.966 7.78886 106.221 8.4249L107.306 4.5751C104.96 3.91329 102.591 3.33517 100.199 2.84074L99.3893 6.75792ZM106.267 8.43732C108.415 8.98829 110.509 9.60513 112.548 10.2876L113.817 6.49451C111.685 5.78065 109.499 5.13679 107.26 4.56267L106.267 8.43732ZM124.554 15.3945C126.49 16.415 128.365 17.5104 130.179 18.6806L132.348 15.3194C130.434 14.0848 128.458 12.9303 126.419 11.8558L124.554 15.3945ZM130.203 18.696C131.81 19.6998 133.214 20.7661 134.424 21.891L137.147 18.9609C135.73 17.6443 134.12 16.4267 132.323 15.304L130.203 18.696ZM139.801 30.4662C140.24 32.0534 140.463 33.7455 140.463 35.55H144.463C144.463 33.4115 144.198 31.3595 143.657 29.4015L139.801 30.4662ZM140.463 35.55C140.463 36.5619 140.398 37.529 140.269 38.4526L144.231 39.0043C144.387 37.8865 144.463 36.7346 144.463 35.55H140.463ZM138.574 43.8497C138.14 44.6773 137.629 45.4652 137.041 46.2143L140.186 48.6856C140.923 47.7475 141.567 46.7547 142.116 45.7083L138.574 43.8497ZM137.087 46.1581C136.551 46.7917 135.996 47.338 135.424 47.8029L137.948 50.9061C138.727 50.2724 139.457 49.549 140.14 48.7419L137.087 46.1581ZM131.426 49.7621C130.714 49.919 129.961 50 129.163 50V54C130.234 54 131.276 53.8911 132.287 53.6682L131.426 49.7621ZM129.163 50C128.571 50 127.978 49.9725 127.384 49.9175L127.015 53.9004C127.731 53.9668 128.447 54 129.163 54V50ZM123.867 49.2699C123.296 49.1127 122.722 48.9296 122.147 48.7204L120.78 52.4796C121.453 52.7244 122.129 52.9402 122.806 53.1265L123.867 49.2699ZM122.358 48.8111C121.669 48.4669 120.916 48.0796 120.096 47.6489L118.235 51.1897C119.074 51.6307 119.852 52.0306 120.569 52.3888L122.358 48.8111ZM115.589 45.21C114.872 44.813 114.123 44.3953 113.344 43.9568L111.383 47.4431C112.17 47.8856 112.926 48.3078 113.652 48.7096L115.589 45.21ZM113.282 43.9236C111.8 43.1567 110.36 42.4334 108.963 41.7539L107.213 45.3508C108.579 46.015 109.989 46.7235 111.445 47.4764L113.282 43.9236ZM100.094 37.7952C98.4882 37.1537 96.9553 36.5891 95.4959 36.1026L94.231 39.8974C95.6076 40.3562 97.067 40.8933 98.6099 41.5097L100.094 37.7952ZM95.5755 36.131C94.1081 35.572 92.5523 35.0956 90.9104 34.6996L89.9725 38.5881C91.464 38.9479 92.8563 39.3756 94.1515 39.869L95.5755 36.131ZM81.412 33.3406C79.8833 33.2467 78.3004 33.2 76.6635 33.2V37.2C78.2246 37.2 79.7255 37.2445 81.1668 37.3331L81.412 33.3406ZM76.6635 33.2C74.7219 33.2 72.8576 33.2858 71.0715 33.4591L71.4576 37.4404C73.1043 37.2806 74.8393 37.2 76.6635 37.2V33.2ZM60.0138 36.0565C58.1674 36.8147 56.4566 37.7272 54.8868 38.7975L57.1402 42.1025C58.4654 41.1989 59.9279 40.4159 61.5331 39.7567L60.0138 36.0565ZM54.851 38.8225C53.5511 39.751 52.3935 40.7736 51.3865 41.8934L54.3608 44.568C55.1573 43.6823 56.0929 42.851 57.176 42.0775L54.851 38.8225ZM47.1382 50.2027C46.8193 51.6698 46.6635 53.2039 46.6635 54.8H50.6635C50.6635 53.4646 50.7937 52.217 51.0469 51.0523L47.1382 50.2027ZM46.6635 54.8C46.6635 56.3612 46.8305 57.8558 47.1748 59.2772L51.0624 58.3356C50.7998 57.2516 50.6635 56.0753 50.6635 54.8H46.6635ZM51.7536 67.1431C52.8055 68.1391 54.0065 69.0303 55.346 69.8218L57.3809 66.3781C56.2719 65.7228 55.3163 65.0079 54.5037 64.2385L51.7536 67.1431ZM55.346 69.8219C57.2853 70.9678 59.7857 72.0751 62.8051 73.1564L64.1538 69.3907C61.2656 68.3563 59.0221 67.3479 57.3809 66.3781L55.346 69.8219ZM78.0331 77.4739C80.4321 78.0362 82.9909 78.5978 85.7093 79.1587L86.5177 75.2413C83.8299 74.6866 81.3061 74.1327 78.9459 73.5794L78.0331 77.4739ZM85.7044 79.1577C88.9641 79.8388 92.0729 80.5398 95.0313 81.2604L95.978 77.3741C92.9733 76.6421 89.8214 75.9316 86.5226 75.2423L85.7044 79.1577ZM113.289 86.6264C116.509 87.7847 119.414 88.979 122.007 90.2075L123.72 86.5925C120.991 85.2998 117.964 84.0571 114.643 82.8625L113.289 86.6264ZM122.007 90.2075C123.912 91.1097 125.687 92.0582 127.335 93.0519L129.401 89.6269C127.629 88.5584 125.735 87.5472 123.72 86.5925L122.007 90.2075ZM136.572 100.481C137.921 101.976 139.077 103.539 140.043 105.17L143.484 103.13C142.375 101.26 141.059 99.4832 139.541 97.8009L136.572 100.481ZM140.071 105.216C141.097 106.845 141.986 108.607 142.735 110.503L146.455 109.033C145.619 106.918 144.62 104.934 143.456 103.084L140.071 105.216ZM145.427 122.203C145.618 124.144 145.713 126.176 145.713 128.3H149.713C149.713 126.056 149.612 123.893 149.408 121.813L145.427 122.203ZM145.713 128.3C145.713 132.062 145.326 135.621 144.558 138.984L148.458 139.874C149.297 136.197 149.713 132.338 149.713 128.3H145.713ZM134.688 157.697C132.369 160.234 129.674 162.612 126.596 164.826L128.931 168.074C132.214 165.712 135.12 163.154 137.641 160.395L134.688 157.697ZM126.582 164.836C124.798 166.142 122.928 167.357 120.969 168.481L122.96 171.95C125.044 170.754 127.04 169.459 128.945 168.064L126.582 164.836ZM108.71 173.946C104.624 175.32 100.254 176.405 95.5963 177.198L96.2675 181.141C101.112 180.317 105.685 179.183 109.985 177.737L108.71 173.946ZM82.0844 178.637C79.8633 178.745 77.5897 178.8 75.2635 178.8V182.8C77.6522 182.8 79.9911 182.744 82.2802 182.632L82.0844 178.637Z" fill="black"/>
</svg>
