<svg width="200" height="258" viewBox="0 0 200 258" fill="none" xmlns="http://www.w3.org/2000/svg">
<path d="M100.903 255.15C82.9367 255.15 65.9033 252.817 49.8033 248.15C33.9367 243.25 20.9867 236.717 10.9533 228.55C5.58665 224.583 2.90332 218.983 2.90332 211.75C2.90332 206.85 4.30332 202.65 7.10332 199.15C10.1367 195.417 13.6367 193.55 17.6033 193.55C21.8033 193.55 26.5867 195.183 31.9533 198.45C41.9867 205.683 52.4867 210.933 63.4533 214.2C74.42 217.467 86.5533 219.1 99.8533 219.1C116.887 219.1 129.953 216.183 139.053 210.35C148.153 204.283 152.703 195.533 152.703 184.1C152.703 175.233 148.387 168.467 139.753 163.8C131.353 158.9 117.237 154.233 97.4033 149.8C76.87 145.367 60.1867 140.233 47.3533 134.4C34.52 128.567 24.8367 121.1 18.3033 112C11.77 102.9 8.50332 91.35 8.50332 77.35C8.50332 62.8833 12.5867 49.9333 20.7533 38.5C28.92 27.0667 40.2367 18.2 54.7033 11.9C69.4033 5.36665 85.8533 2.09998 104.053 2.09998C137.42 2.09998 164.603 10.9667 185.603 28.7C188.637 31.2667 190.737 33.8333 191.903 36.4C193.303 38.7333 194.003 41.7667 194.003 45.5C194.003 50.4 192.487 54.7167 189.453 58.45C186.653 61.95 183.27 63.7 179.303 63.7C176.97 63.7 174.753 63.35 172.653 62.65C170.787 61.95 168.22 60.6667 164.953 58.8C155.387 51.8 146.053 46.6667 136.953 43.4C128.087 39.9 117.12 38.15 104.053 38.15C88.1867 38.15 75.5867 41.4167 66.2533 47.95C57.1533 54.25 52.6033 63.1167 52.6033 74.55C52.6033 84.1167 56.6867 91.4667 64.8533 96.6C73.02 101.733 86.9033 106.517 106.503 110.95C127.27 115.617 144.07 120.867 156.903 126.7C169.97 132.3 179.887 139.533 186.653 148.4C193.653 157.267 197.153 168.35 197.153 181.65C197.153 196.117 193.07 208.95 184.903 220.15C176.97 231.117 165.653 239.75 150.953 246.05C136.487 252.117 119.803 255.15 100.903 255.15Z" fill="#F5F5F5"/>
<path d="M49.8033 248.15L49.5083 249.105L49.5166 249.108L49.5249 249.11L49.8033 248.15ZM10.9533 228.55L11.5846 227.774L11.5665 227.76L11.5477 227.746L10.9533 228.55ZM7.10332 199.15L6.32718 198.519L6.32245 198.525L7.10332 199.15ZM31.9533 198.45L32.5381 197.639L32.5065 197.616L32.4733 197.596L31.9533 198.45ZM63.4533 214.2L63.1678 215.158L63.1678 215.158L63.4533 214.2ZM139.053 210.35L139.593 211.192L139.601 211.187L139.608 211.182L139.053 210.35ZM139.753 163.8L139.249 164.664L139.264 164.672L139.278 164.68L139.753 163.8ZM97.4033 149.8L97.6215 148.824L97.6144 148.823L97.4033 149.8ZM18.3033 112L17.491 112.583L17.491 112.583L18.3033 112ZM20.7533 38.5L21.5671 39.0812L21.5671 39.0812L20.7533 38.5ZM54.7033 11.9L55.1026 12.8168L55.1095 12.8138L54.7033 11.9ZM185.603 28.7L186.249 27.9366L186.249 27.936L185.603 28.7ZM191.903 36.4L190.993 36.8138L191.017 36.8656L191.046 36.9145L191.903 36.4ZM189.453 58.45L188.677 57.8194L188.672 57.8253L189.453 58.45ZM172.653 62.65L172.302 63.5863L172.32 63.5928L172.337 63.5987L172.653 62.65ZM164.953 58.8L164.363 59.607L164.408 59.6403L164.457 59.6682L164.953 58.8ZM136.953 43.4L136.586 44.3301L136.601 44.3359L136.615 44.3412L136.953 43.4ZM66.2533 47.95L66.8225 48.7722L66.8268 48.7692L66.2533 47.95ZM64.8533 96.6L65.3855 95.7534L65.3855 95.7534L64.8533 96.6ZM106.503 110.95L106.283 111.925L106.284 111.926L106.503 110.95ZM156.903 126.7L156.49 127.61L156.499 127.615L156.509 127.619L156.903 126.7ZM186.653 148.4L185.858 149.007L185.863 149.013L185.868 149.02L186.653 148.4ZM184.903 220.15L184.095 219.561L184.093 219.564L184.903 220.15ZM150.953 246.05L151.34 246.972L151.347 246.969L150.953 246.05ZM100.903 254.15C98.7442 254.15 96.5988 254.116 94.4671 254.048L94.4036 256.047C96.5567 256.116 98.7233 256.15 100.903 256.15V254.15ZM81.6259 253.215C77.3174 252.789 73.0679 252.216 68.8772 251.499L68.5396 253.47C72.7777 254.196 77.0742 254.774 81.429 255.205L81.6259 253.215ZM56.2907 248.861C54.2057 248.342 52.136 247.785 50.0817 247.19L49.5249 249.11C51.6037 249.713 53.698 250.277 55.8075 250.802L56.2907 248.861ZM50.0984 247.195C46.5227 246.09 43.0982 244.903 39.8245 243.634L39.1013 245.498C42.4215 246.786 45.8906 247.988 49.5083 249.105L50.0984 247.195ZM20.3906 234.049C17.2355 232.077 14.3005 229.985 11.5846 227.774L10.322 229.326C13.1061 231.592 16.1092 233.731 19.3305 235.745L20.3906 234.049ZM11.5477 227.746C10.2586 226.793 9.13834 225.747 8.18278 224.608L6.65092 225.894C7.71434 227.161 8.9517 228.314 10.3589 229.354L11.5477 227.746ZM4.32778 216.379C4.0459 214.931 3.90332 213.389 3.90332 211.75H1.90332C1.90332 213.505 2.05599 215.176 2.36463 216.761L4.32778 216.379ZM3.90332 211.75C3.90332 210.63 3.97937 209.553 4.13026 208.518L2.15117 208.23C1.98553 209.366 1.90332 210.54 1.90332 211.75H3.90332ZM6.11202 202.443C6.61537 201.512 7.20575 200.623 7.88419 199.775L6.32245 198.525C5.57099 199.465 4.91403 200.454 4.35259 201.492L6.11202 202.443ZM7.87943 199.781C8.53151 198.978 9.20086 198.272 9.88652 197.661L8.55501 196.168C7.78183 196.858 7.03955 197.643 6.32721 198.519L7.87943 199.781ZM14.8114 194.908C15.7087 194.67 16.6385 194.55 17.6033 194.55V192.55C16.4706 192.55 15.3682 192.691 14.2984 192.975L14.8114 194.908ZM17.6033 194.55C18.7478 194.55 19.9482 194.679 21.2062 194.942L21.6154 192.985C20.2366 192.696 18.8987 192.55 17.6033 192.55V194.55ZM28.1524 197.477C29.2168 198.012 30.3105 198.621 31.4334 199.304L32.4733 197.596C31.3084 196.887 30.1673 196.251 29.05 195.69L28.1524 197.477ZM31.3685 199.261C33.8153 201.025 36.2905 202.673 38.7942 204.204L39.8376 202.498C37.3783 200.994 34.9451 199.374 32.5381 197.639L31.3685 199.261ZM54.7308 212.222C57.5117 213.332 60.3241 214.311 63.1678 215.158L63.7388 213.242C60.9534 212.412 58.1981 211.453 55.4727 210.364L54.7308 212.222ZM63.1678 215.158C66.0921 216.029 69.0971 216.785 72.1829 217.425L72.5893 215.467C69.5571 214.838 66.607 214.096 63.7388 213.242L63.1678 215.158ZM90.5835 219.826C93.6094 220.009 96.6994 220.1 99.8533 220.1V218.1C96.7379 218.1 93.6882 218.01 90.704 217.83L90.5835 219.826ZM99.8533 220.1C103.439 220.1 106.854 219.972 110.097 219.714L109.939 217.721C106.753 217.973 103.391 218.1 99.8533 218.1V220.1ZM130.254 215.71C133.71 214.471 136.825 212.966 139.593 211.192L138.514 209.508C135.887 211.192 132.911 212.633 129.579 213.827L130.254 215.71ZM139.608 211.182C141.911 209.647 143.939 207.938 145.687 206.054L144.221 204.694C142.588 206.454 140.682 208.062 138.499 209.518L139.608 211.182ZM152.913 191.992C153.441 189.507 153.703 186.875 153.703 184.1H151.703C151.703 186.75 151.453 189.241 150.957 191.577L152.913 191.992ZM153.703 184.1C153.703 181.79 153.421 179.604 152.849 177.547L150.922 178.082C151.441 179.95 151.703 181.954 151.703 184.1H153.703ZM145.664 166.584C144.078 165.241 142.264 164.021 140.229 162.92L139.278 164.68C141.207 165.722 142.903 166.867 144.372 168.11L145.664 166.584ZM140.257 162.936C137.444 161.295 134.023 159.691 130.003 158.121L129.275 159.984C133.229 161.528 136.55 163.089 139.249 164.664L140.257 162.936ZM108.535 151.434C105.111 150.555 101.473 149.685 97.6215 148.824L97.1852 150.776C101.018 151.633 104.636 152.498 108.038 153.371L108.535 151.434ZM97.6144 148.823C95.4422 148.354 93.3135 147.877 91.2282 147.392L90.7756 149.34C92.8714 149.827 95.0103 150.306 97.1923 150.777L97.6144 148.823ZM78.546 144.204C74.1376 143.004 69.9635 141.762 66.0235 140.479L65.4041 142.38C69.3782 143.675 73.5837 144.926 78.0206 146.134L78.546 144.204ZM53.7549 136.047C51.6717 135.21 49.6758 134.357 47.7671 133.49L46.9395 135.31C48.8769 136.191 50.9001 137.055 53.0088 137.903L53.7549 136.047ZM47.7671 133.49C44.8803 132.177 42.1574 130.783 39.598 129.307L38.5989 131.04C41.2179 132.55 43.9983 133.973 46.9395 135.31L47.7671 133.49ZM25.0239 118.339C22.8244 116.148 20.8554 113.84 19.1156 111.417L17.491 112.583C19.2972 115.099 21.338 117.49 23.6123 119.756L25.0239 118.339ZM19.1156 111.417C17.3899 109.013 15.8961 106.433 14.6345 103.676L12.8158 104.508C14.1299 107.38 15.6882 110.072 17.491 112.583L19.1156 111.417ZM9.99943 86.3707C9.66901 83.4922 9.50332 80.4854 9.50332 77.35H7.50332C7.50332 80.5557 7.67272 83.6389 8.01247 86.5988L9.99943 86.3707ZM9.50332 77.35C9.50332 73.8653 9.74337 70.473 10.2226 67.1725L8.24338 66.8851C7.74973 70.2847 7.50332 73.7732 7.50332 77.35H9.50332ZM16.2915 47.8003C17.7981 44.8027 19.5563 41.8963 21.5671 39.0812L19.9396 37.9188C17.8707 40.8152 16.0587 43.8098 14.5045 46.9022L16.2915 47.8003ZM21.5671 39.0812C23.6553 36.1577 25.9523 33.4044 28.4584 30.8209L27.0229 29.4284C24.4473 32.0835 22.0861 34.9137 19.9396 37.9188L21.5671 39.0812ZM45.4574 17.6726C48.4951 15.913 51.71 14.2942 55.1026 12.8168L54.3041 10.9831C50.8452 12.4894 47.562 14.1422 44.4549 15.9419L45.4574 17.6726ZM55.1095 12.8138C57.0156 11.9666 58.9515 11.1749 60.9174 10.4385L60.2158 8.56557C58.2128 9.31586 56.24 10.1227 54.2972 10.9862L55.1095 12.8138ZM72.9052 6.72619C76.9054 5.73242 81.0168 4.94265 85.2395 4.35719L84.9649 2.37614C80.6746 2.97096 76.4939 3.77387 72.423 4.78519L72.9052 6.72619ZM97.7616 3.234C99.8344 3.14467 101.932 3.09998 104.053 3.09998V1.09998C101.904 1.09998 99.7776 1.14526 97.6755 1.23586L97.7616 3.234ZM104.053 3.09998C106.509 3.09998 108.93 3.14826 111.317 3.24477L111.398 1.2464C108.983 1.14877 106.535 1.09998 104.053 1.09998V3.09998ZM125.772 4.47303C130.686 5.12305 135.435 6.00364 140.021 7.1143L140.492 5.17049C135.834 4.04239 131.015 3.14916 126.035 2.49031L125.772 4.47303ZM153.861 11.3481C158.442 13.0648 162.835 15.0493 167.04 17.3011L167.984 15.5381C163.699 13.2433 159.225 11.2224 154.563 9.47524L153.861 11.3481ZM179.274 24.9941C181.217 26.4148 183.112 27.9047 184.958 29.464L186.249 27.936C184.367 26.3467 182.435 24.828 180.455 23.3796L179.274 24.9941ZM184.957 29.4634C185.604 30.0105 186.205 30.5559 186.761 31.0992L188.159 29.6692C187.566 29.0897 186.93 28.5122 186.249 27.9366L184.957 29.4634ZM189.849 34.7644C190.305 35.4535 190.685 36.1367 190.993 36.8138L192.814 35.9862C192.459 35.2052 192.026 34.4303 191.517 33.6614L189.849 34.7644ZM191.046 36.9145C191.405 37.5128 191.716 38.1664 191.979 38.8774L193.855 38.1845C193.552 37.3645 193.188 36.5975 192.761 35.8855L191.046 36.9145ZM192.906 43.2291C192.971 43.95 193.003 44.7068 193.003 45.5H195.003C195.003 44.652 194.968 43.8353 194.898 43.0502L192.906 43.2291ZM193.003 45.5C193.003 46.647 192.917 47.7566 192.744 48.8295L194.719 49.1468C194.909 47.964 195.003 46.7481 195.003 45.5H193.003ZM190.561 55.0709C190.023 56.0185 189.396 56.9347 188.677 57.8194L190.229 59.0806C191.015 58.1131 191.706 57.1054 192.301 56.0574L190.561 55.0709ZM188.672 57.8253C188.058 58.5932 187.42 59.2655 186.758 59.8454L188.076 61.3495C188.835 60.6849 189.553 59.9256 190.234 59.0747L188.672 57.8253ZM182.001 62.3837C181.143 62.5937 180.244 62.7 179.303 62.7V64.7C180.396 64.7 181.455 64.5763 182.476 64.3264L182.001 62.3837ZM179.303 62.7C178.758 62.7 178.22 62.68 177.689 62.6401L177.54 64.6345C178.121 64.6782 178.709 64.7 179.303 64.7V62.7ZM174.513 62.144C173.991 62.0179 173.477 61.8703 172.97 61.7013L172.337 63.5987C172.898 63.7856 173.466 63.9487 174.043 64.088L174.513 62.144ZM173.004 61.7137C172.442 61.5029 171.805 61.2332 171.091 60.9025L170.25 62.7175C170.998 63.0637 171.683 63.354 172.302 63.5863L173.004 61.7137ZM167.313 58.975C166.721 58.6509 166.1 58.3032 165.449 57.9317L164.457 59.6682C165.117 60.0453 165.749 60.3991 166.354 60.7298L167.313 58.975ZM165.544 57.993C163.318 56.3645 161.104 54.8356 158.901 53.4064L157.813 55.0842C159.983 56.492 162.166 57.9995 164.363 59.607L165.544 57.993ZM144.784 45.5414C142.271 44.3776 139.774 43.3499 137.291 42.4588L136.615 44.3412C139.039 45.2113 141.482 46.2161 143.943 47.3562L144.784 45.5414ZM137.32 42.4698C134.784 41.4684 132.083 40.6097 129.219 39.8926L128.733 41.8327C131.519 42.5305 134.137 43.3633 136.586 44.3301L137.32 42.4698ZM112.489 37.4095C109.779 37.2364 106.967 37.15 104.053 37.15V39.15C106.927 39.15 109.697 39.2352 112.362 39.4055L112.489 37.4095ZM104.053 37.15C100.568 37.15 97.2354 37.3062 94.0546 37.6195L94.2507 39.6099C97.3606 39.3036 100.628 39.15 104.053 39.15V37.15ZM74.5481 42.2774C71.3326 43.6265 68.3756 45.2438 65.6799 47.1308L66.8268 48.7692C69.3986 46.9689 72.2294 45.4192 75.3219 44.1216L74.5481 42.2774ZM65.6841 47.1278C63.3924 48.7144 61.3738 50.4654 59.6328 52.3826L61.1134 53.7271C62.744 51.9316 64.6455 50.2793 66.8225 48.7722L65.6841 47.1278ZM52.4035 66.5906C51.8688 69.1026 51.6033 71.7565 51.6033 74.55H53.6033C53.6033 71.8833 53.8567 69.3698 54.3597 67.007L52.4035 66.5906ZM51.6033 74.55C51.6033 76.9359 51.85 79.1994 52.3479 81.3375L54.2958 80.8838C53.8357 78.9081 53.6033 76.7978 53.6033 74.55H51.6033ZM58.9636 93.2199C60.513 94.7683 62.3004 96.1765 64.3212 97.4466L65.3855 95.7534C63.4789 94.5549 61.8111 93.2381 60.3774 91.8053L58.9636 93.2199ZM64.3212 97.4466C67.0598 99.168 70.4058 100.838 74.3485 102.461L75.1097 100.611C71.2396 99.0185 68.0018 97.3979 65.3855 95.7534L64.3212 97.4466ZM95.5035 109.302C98.8833 110.19 102.476 111.064 106.283 111.925L106.724 109.975C102.938 109.118 99.3669 108.249 96.0119 107.367L95.5035 109.302ZM106.284 111.926C108.471 112.417 110.614 112.915 112.712 113.419L113.179 111.475C111.071 110.968 108.919 110.468 106.723 109.974L106.284 111.926ZM125.479 116.719C129.924 117.955 134.127 119.227 138.09 120.532L138.716 118.633C134.72 117.316 130.487 116.036 126.016 114.792L125.479 116.719ZM150.452 125.028C152.556 125.876 154.568 126.737 156.49 127.61L157.317 125.79C155.368 124.904 153.329 124.031 151.2 123.173L150.452 125.028ZM156.509 127.619C159.437 128.874 162.202 130.21 164.804 131.627L165.761 129.87C163.099 128.421 160.278 127.058 157.297 125.781L156.509 127.619ZM179.728 142.237C182.004 144.377 184.047 146.633 185.858 149.007L187.448 147.793C185.568 145.329 183.45 142.991 181.097 140.78L179.728 142.237ZM185.868 149.02C187.671 151.303 189.236 153.736 190.564 156.32L192.343 155.406C190.956 152.707 189.321 150.165 187.438 147.78L185.868 149.02ZM195.601 172.916C195.969 175.706 196.153 178.617 196.153 181.65H198.153C198.153 178.536 197.964 175.538 197.584 172.655L195.601 172.916ZM196.153 181.65C196.153 185.115 195.916 188.481 195.442 191.749L197.422 192.036C197.91 188.668 198.153 185.206 198.153 181.65H196.153ZM189.391 210.953C187.88 213.922 186.115 216.791 184.095 219.561L185.711 220.739C187.792 217.886 189.613 214.926 191.173 211.86L189.391 210.953ZM184.093 219.564C182.026 222.422 179.725 225.119 177.189 227.657L178.604 229.071C181.213 226.459 183.583 223.681 185.714 220.736L184.093 219.564ZM160.159 240.411C157.143 242.107 153.943 243.681 150.559 245.131L151.347 246.969C154.793 245.493 158.057 243.888 161.139 242.154L160.159 240.411ZM150.567 245.128C148.634 245.938 146.662 246.694 144.649 247.395L145.307 249.284C147.358 248.569 149.369 247.799 151.34 246.972L150.567 245.128ZM132.452 250.866C128.421 251.775 124.251 252.495 119.939 253.027L120.184 255.012C124.558 254.473 128.794 253.741 132.892 252.818L132.452 250.866ZM107.266 254.032C105.175 254.111 103.054 254.15 100.903 254.15V256.15C103.078 256.15 105.224 256.11 107.342 256.03L107.266 254.032ZM49.8033 248.15L49.2132 250.061L49.2298 250.066L49.2465 250.071L49.8033 248.15ZM10.9533 228.55L12.2159 226.999L12.1797 226.969L12.1421 226.942L10.9533 228.55ZM7.10332 199.15L5.55109 197.889L5.54632 197.895L5.54158 197.901L7.10332 199.15ZM31.9533 198.45L33.1229 196.828L33.0597 196.782L32.9932 196.742L31.9533 198.45ZM63.4533 214.2L62.8824 216.117L62.8824 216.117L63.4533 214.2ZM139.053 210.35L140.133 212.034L140.148 212.024L140.163 212.014L139.053 210.35ZM139.753 163.8L138.746 165.528L138.774 165.544L138.802 165.559L139.753 163.8ZM97.4033 149.8L97.8396 147.848L97.8325 147.847L97.8254 147.845L97.4033 149.8ZM18.3033 112L16.6787 113.166L16.6787 113.166L18.3033 112ZM20.7533 38.5L22.3808 39.6625L22.3808 39.6625L20.7533 38.5ZM54.7033 11.9L55.5019 13.7337L55.5087 13.7307L55.5156 13.7276L54.7033 11.9ZM185.603 28.7L186.895 27.1732L186.894 27.1719L185.603 28.7ZM191.903 36.4L190.083 37.2276L190.13 37.3313L190.188 37.429L191.903 36.4ZM189.453 58.45L187.901 57.1888L187.896 57.1947L187.892 57.2006L189.453 58.45ZM172.653 62.65L171.951 64.5227L171.986 64.5357L172.021 64.5474L172.653 62.65ZM164.953 58.8L163.772 60.414L163.863 60.4806L163.961 60.5365L164.953 58.8ZM136.953 43.4L136.219 45.2603L136.248 45.2718L136.278 45.2824L136.953 43.4ZM66.2533 47.95L67.3918 49.5944L67.4003 49.5885L66.2533 47.95ZM64.8533 96.6L65.9177 94.9067L65.9177 94.9067L64.8533 96.6ZM106.503 110.95L106.062 112.901L106.065 112.901L106.503 110.95ZM156.903 126.7L156.076 128.521L156.096 128.53L156.115 128.538L156.903 126.7ZM186.653 148.4L185.063 149.613L185.073 149.626L185.084 149.639L186.653 148.4ZM184.903 220.15L183.287 218.972L183.283 218.978L184.903 220.15ZM150.953 246.05L151.727 247.894L151.734 247.891L151.741 247.888L150.953 246.05ZM100.903 253.15C98.7547 253.15 96.6198 253.116 94.4989 253.049L94.3719 257.047C96.5357 257.116 98.7128 257.15 100.903 257.15V253.15ZM81.7244 252.22C77.439 251.796 73.2129 251.227 69.0461 250.513L68.3708 254.456C72.6327 255.186 76.9526 255.767 81.3305 256.2L81.7244 252.22ZM56.5323 247.891C54.4595 247.375 52.4021 246.821 50.3601 246.229L49.2465 250.071C51.3376 250.677 53.4441 251.244 55.566 251.772L56.5323 247.891ZM50.3935 246.239C46.8388 245.141 43.4365 243.962 40.186 242.701L38.7397 246.431C42.0831 247.727 45.5745 248.937 49.2132 250.061L50.3935 246.239ZM20.9206 233.201C17.7987 231.249 14.8977 229.182 12.2159 226.999L9.69078 230.101C12.5089 232.395 15.546 234.559 18.8004 236.593L20.9206 233.201ZM12.1421 226.942C10.9121 226.033 9.85034 225.04 8.9487 223.966L5.885 226.537C7.00234 227.868 8.29824 229.075 9.76454 230.158L12.1421 226.942ZM5.30936 216.188C5.04086 214.809 4.90332 213.331 4.90332 211.75H0.903321C0.903321 213.563 1.06104 215.298 1.38305 216.952L5.30936 216.188ZM4.90332 211.75C4.90332 210.676 4.97629 209.647 5.1198 208.662L1.16162 208.085C0.988616 209.272 0.903321 210.494 0.903321 211.75H4.90332ZM6.99173 202.919C7.46603 202.041 8.02313 201.202 8.66506 200.399L5.54158 197.901C4.75361 198.886 4.06337 199.925 3.47288 201.017L6.99173 202.919ZM8.65555 200.411C9.27749 199.646 9.91037 198.979 10.5523 198.407L7.88926 195.422C7.07232 196.151 6.29357 196.975 5.55109 197.889L8.65555 200.411ZM15.0678 195.875C15.8789 195.659 16.7224 195.55 17.6033 195.55V191.55C16.3867 191.55 15.1979 191.702 14.0419 192.008L15.0678 195.875ZM17.6033 195.55C18.6724 195.55 19.804 195.671 21.0015 195.921L21.82 192.006C20.3808 191.705 18.9741 191.55 17.6033 191.55V195.55ZM27.7036 198.371C28.7416 198.892 29.8115 199.488 30.9134 200.158L32.9932 196.742C31.8074 196.02 30.6425 195.371 29.4988 194.797L27.7036 198.371ZM30.7837 200.072C33.2504 201.851 35.7467 203.512 38.2725 205.057L40.3593 201.644C37.9221 200.154 35.51 198.549 33.1229 196.828L30.7837 200.072ZM54.3599 213.15C57.1685 214.272 60.0094 215.261 62.8824 216.117L64.0243 212.283C61.2681 211.462 58.5412 210.513 55.8436 209.436L54.3599 213.15ZM62.8824 216.117C65.8346 216.996 68.8672 217.759 71.9797 218.405L72.7925 214.488C69.7871 213.864 66.8645 213.129 64.0243 212.283L62.8824 216.117ZM90.5232 220.824C93.57 221.008 96.6801 221.1 99.8533 221.1V217.1C96.7572 217.1 93.7276 217.01 90.7643 216.831L90.5232 220.824ZM99.8533 221.1C103.463 221.1 106.904 220.971 110.177 220.711L109.86 216.724C106.703 216.974 103.368 217.1 99.8533 217.1V221.1ZM130.591 216.651C134.11 215.39 137.294 213.853 140.133 212.034L137.974 208.666C135.418 210.304 132.511 211.714 129.242 212.885L130.591 216.651ZM140.163 212.014C142.525 210.439 144.614 208.68 146.42 206.735L143.488 204.014C141.912 205.711 140.068 207.27 137.944 208.686L140.163 212.014ZM153.891 192.2C154.435 189.64 154.703 186.938 154.703 184.1H150.703C150.703 186.687 150.459 189.108 149.979 191.369L153.891 192.2ZM154.703 184.1C154.703 181.708 154.411 179.432 153.813 177.279L149.959 178.35C150.451 180.122 150.703 182.036 150.703 184.1H154.703ZM146.31 165.82C144.665 164.428 142.793 163.17 140.704 162.041L138.802 165.559C140.678 166.573 142.316 167.68 143.725 168.873L146.31 165.82ZM140.761 162.072C137.891 160.398 134.42 158.773 130.367 157.189L128.911 160.915C132.832 162.447 136.104 163.986 138.746 165.528L140.761 162.072ZM108.784 150.466C105.348 149.584 101.7 148.711 97.8396 147.848L96.967 151.752C100.791 152.607 104.398 153.469 107.789 154.34L108.784 150.466ZM97.8254 147.845C95.6582 147.377 93.5346 146.901 91.4546 146.418L90.5492 150.314C92.6503 150.803 94.7943 151.283 96.9812 151.755L97.8254 147.845ZM78.8087 143.239C74.4145 142.043 70.2562 140.805 66.3332 139.528L65.0945 143.331C69.0855 144.631 73.3068 145.887 77.7579 147.098L78.8087 143.239ZM54.1279 135.12C52.0575 134.287 50.0753 133.44 48.1809 132.579L46.5257 136.221C48.4775 137.108 50.5142 137.978 52.6358 138.831L54.1279 135.12ZM48.1809 132.579C45.3213 131.279 42.6272 129.9 40.0975 128.441L38.0994 131.906C40.7481 133.434 43.5572 134.871 46.5257 136.221L48.1809 132.579ZM25.7298 117.631C23.5676 115.476 21.6345 113.211 19.928 110.834L16.6787 113.166C18.5181 115.728 20.5948 118.161 22.9064 120.464L25.7298 117.631ZM19.928 110.834C18.2408 108.484 16.7792 105.96 15.5439 103.26L11.9065 104.924C13.2468 107.853 14.8374 110.602 16.6787 113.166L19.928 110.834ZM10.9929 86.2567C10.6672 83.4188 10.5033 80.4503 10.5033 77.35H6.50332C6.50332 80.5909 6.67457 83.7122 7.019 86.7128L10.9929 86.2567ZM10.5033 77.35C10.5033 73.9113 10.7402 70.5671 11.2122 67.3162L7.25376 66.7414C6.75291 70.1906 6.50332 73.7272 6.50332 77.35H10.5033ZM17.185 48.2493C18.6677 45.2991 20.3991 42.4369 22.3808 39.6625L19.1259 37.3375C17.0279 40.2747 15.189 43.3133 13.611 46.4532L17.185 48.2493ZM22.3808 39.6625C24.4399 36.7797 26.7049 34.0648 29.1762 31.5172L26.3051 28.7321C23.6947 31.423 21.3015 34.2917 19.1259 37.3375L22.3808 39.6625ZM45.9586 18.5379C48.9617 16.7983 52.1424 15.1966 55.5019 13.7337L53.9048 10.0663C50.4128 11.587 47.0954 13.2568 43.9537 15.0766L45.9586 18.5379ZM55.5156 13.7276C57.4034 12.8886 59.3209 12.1044 61.2682 11.3749L59.865 7.62912C57.8435 8.38635 55.8521 9.20076 53.891 10.0724L55.5156 13.7276ZM73.1463 7.6967C77.1112 6.7117 81.1879 5.92849 85.3769 5.34772L84.8276 1.38562C80.5035 1.98511 76.2881 2.79459 72.1819 3.81469L73.1463 7.6967ZM97.8047 4.23308C99.8628 4.14437 101.946 4.09998 104.053 4.09998V0.0999838C101.89 0.0999838 99.7492 0.145557 97.6324 0.236785L97.8047 4.23308ZM104.053 4.09998C106.496 4.09998 108.904 4.148 111.277 4.24395L111.438 0.247214C109.01 0.149031 106.548 0.0999838 104.053 0.0999838V4.09998ZM125.641 5.4644C130.521 6.11 135.236 6.98426 139.786 8.08621L140.727 4.19859C136.033 3.06176 131.179 2.16221 126.166 1.49895L125.641 5.4644ZM153.51 12.2845C158.051 13.9861 162.403 15.9523 166.567 18.1827L168.456 14.6566C164.131 12.3403 159.617 10.3012 154.914 8.53882L153.51 12.2845ZM178.684 25.8013C180.608 27.2082 182.484 28.6837 184.313 30.2281L186.894 27.1719C184.994 25.5677 183.044 24.0346 181.045 22.5724L178.684 25.8013ZM184.311 30.2268C184.941 30.7597 185.524 31.2889 186.062 31.8142L188.858 28.9541C188.247 28.3566 187.592 27.7631 186.895 27.1732L184.311 30.2268ZM189.015 35.3158C189.444 35.9651 189.798 36.6024 190.083 37.2276L193.724 35.5724C193.345 34.7395 192.886 33.9187 192.352 33.1099L189.015 35.3158ZM190.188 37.429C190.513 37.9704 190.798 38.5673 191.041 39.2239L194.793 37.8381C194.47 36.9636 194.08 36.1399 193.618 35.371L190.188 37.429ZM191.91 43.3186C191.972 44.0073 192.003 44.7341 192.003 45.5H196.003C196.003 44.6247 195.967 43.778 195.894 42.9607L191.91 43.3186ZM192.003 45.5C192.003 46.5964 191.92 47.6529 191.757 48.6709L195.706 49.3054C195.905 48.0677 196.003 46.7987 196.003 45.5H192.003ZM189.691 54.5777C189.182 55.4751 188.586 56.3455 187.901 57.1888L191.006 59.7112C191.825 58.7024 192.548 57.6489 193.17 56.5506L189.691 54.5777ZM187.892 57.2006C187.311 57.927 186.712 58.5558 186.099 59.0934L188.735 62.1015C189.542 61.3946 190.301 60.5918 191.015 59.6994L187.892 57.2006ZM181.763 61.4123C180.987 61.6024 180.168 61.7 179.303 61.7V65.7C180.472 65.7 181.611 65.5676 182.714 65.2977L181.763 61.4123ZM179.303 61.7C178.782 61.7 178.269 61.6809 177.764 61.643L177.465 65.6317C178.072 65.6773 178.685 65.7 179.303 65.7V61.7ZM174.748 61.172C174.253 61.0525 173.766 60.9127 173.286 60.7526L172.021 64.5474C172.608 64.7432 173.204 64.9141 173.808 65.06L174.748 61.172ZM173.356 60.7773C172.822 60.5773 172.208 60.3179 171.511 59.995L169.83 63.625C170.595 63.9789 171.303 64.2796 171.951 64.5227L173.356 60.7773ZM167.793 58.0976C167.207 57.7768 166.591 57.4322 165.946 57.0635L163.961 60.5365C164.626 60.9163 165.263 61.2732 165.874 61.6072L167.793 58.0976ZM166.134 57.1859C163.894 55.547 161.665 54.0074 159.446 52.5675L157.268 55.9231C159.422 57.3202 161.59 58.8171 163.772 60.414L166.134 57.1859ZM145.204 44.634C142.666 43.4584 140.141 42.4193 137.629 41.5176L136.278 45.2824C138.672 46.1419 141.087 47.1353 143.523 48.2636L145.204 44.634ZM137.688 41.5397C135.107 40.521 132.364 39.6493 129.462 38.9226L128.49 42.8028C131.238 43.4908 133.813 44.3108 136.219 45.2603L137.688 41.5397ZM112.553 36.4116C109.82 36.237 106.987 36.15 104.053 36.15V40.15C106.908 40.15 109.656 40.2347 112.298 40.4034L112.553 36.4116ZM104.053 36.15C100.539 36.15 97.1728 36.3076 93.9566 36.6243L94.3487 40.6051C97.4232 40.3022 100.658 40.15 104.053 40.15V36.15ZM74.1612 41.3552C70.8842 42.7302 67.864 44.3812 65.1064 46.3115L67.4003 49.5885C69.9102 47.8315 72.6778 46.3155 75.7088 45.0437L74.1612 41.3552ZM65.1149 46.3056C62.7658 47.9319 60.6887 49.7323 58.8925 51.7103L61.8537 54.3994C63.4291 52.6646 65.2721 51.0618 67.3917 49.5944L65.1149 46.3056ZM51.4254 66.3824C50.8748 68.969 50.6033 71.6931 50.6033 74.55H54.6033C54.6033 71.9467 54.8507 69.5034 55.3378 67.2152L51.4254 66.3824ZM50.6033 74.55C50.6033 77.005 50.8572 79.3451 51.374 81.5643L55.2697 80.657C54.8285 78.7625 54.6033 76.7288 54.6033 74.55H50.6033ZM58.2567 93.9272C59.8639 95.5334 61.7112 96.9872 63.789 98.2933L65.9177 94.9067C64.0681 93.7441 62.4602 92.473 61.0843 91.0979L58.2567 93.9272ZM63.789 98.2933C66.5887 100.053 69.9888 101.748 73.9679 103.386L75.4903 99.6866C71.6566 98.1087 68.4728 96.5128 65.9177 94.9067L63.789 98.2933ZM95.2494 110.269C98.6414 111.16 102.246 112.038 106.062 112.901L106.945 108.999C103.168 108.145 99.6088 107.279 96.266 106.4L95.2494 110.269ZM106.065 112.901C108.247 113.392 110.385 113.889 112.478 114.392L113.413 110.502C111.3 109.994 109.143 109.493 106.942 108.999L106.065 112.901ZM125.211 117.682C129.642 118.915 133.83 120.182 137.777 121.482L139.029 117.683C135.017 116.361 130.768 115.077 126.284 113.828L125.211 117.682ZM150.078 125.955C152.169 126.799 154.168 127.654 156.076 128.521L157.731 124.879C155.767 123.987 153.715 123.109 151.574 122.246L150.078 125.955ZM156.115 128.538C159.016 129.781 161.753 131.104 164.326 132.505L166.239 128.992C163.548 127.527 160.699 126.151 157.691 124.862L156.115 128.538ZM179.043 142.966C181.281 145.07 183.287 147.286 185.063 149.613L188.243 147.187C186.328 144.677 184.173 142.299 181.782 140.051L179.043 142.966ZM185.084 149.639C186.846 151.872 188.376 154.251 189.675 156.777L193.232 154.948C191.816 152.192 190.146 149.596 188.223 147.161L185.084 149.639ZM194.61 173.047C194.971 175.79 195.153 178.658 195.153 181.65H199.153C199.153 178.496 198.962 175.453 198.576 172.524L194.61 173.047ZM195.153 181.65C195.153 185.069 194.919 188.387 194.453 191.606L198.411 192.18C198.907 188.762 199.153 185.252 199.153 181.65H195.153ZM188.499 210.499C187.013 213.419 185.277 216.244 183.287 218.972L186.519 221.328C188.63 218.433 190.479 215.428 192.064 212.313L188.499 210.499ZM183.283 218.978C181.247 221.792 178.98 224.449 176.482 226.95L179.311 229.778C181.957 227.129 184.362 224.311 186.524 221.322L183.283 218.978ZM159.669 239.539C156.685 241.217 153.518 242.775 150.165 244.212L151.741 247.888C155.217 246.398 158.514 244.778 161.63 243.025L159.669 239.539ZM150.18 244.206C148.267 245.008 146.314 245.756 144.32 246.451L145.636 250.228C147.706 249.507 149.737 248.729 151.727 247.894L150.18 244.206ZM132.232 249.891C128.235 250.792 124.097 251.507 119.817 252.035L120.307 256.004C124.711 255.461 128.98 254.724 133.111 253.793L132.232 249.891ZM107.229 253.032C105.15 253.111 103.041 253.15 100.903 253.15V257.15C103.09 257.15 105.249 257.11 107.38 257.029L107.229 253.032Z" fill="black"/>
</svg>
