<svg width="137" height="230" viewBox="0 0 137 230" fill="none" xmlns="http://www.w3.org/2000/svg">
<path d="M116.55 195.55C128.217 196.25 134.05 201.5 134.05 211.3C134.05 216.9 131.717 221.217 127.05 224.25C122.617 227.05 116.2 228.217 107.8 227.75L98.3504 227.05C59.1504 224.25 39.5504 203.25 39.5504 164.05V87.75H22.0504C15.7504 87.75 10.8504 86.35 7.35039 83.55C4.08372 80.75 2.45039 76.6667 2.45039 71.3C2.45039 65.9333 4.08372 61.85 7.35039 59.05C10.8504 56.25 15.7504 54.85 22.0504 54.85H39.5504V22.65C39.5504 16.35 41.5337 11.3333 45.5004 7.6C49.4671 3.86665 54.8337 1.99998 61.6004 1.99998C68.1337 1.99998 73.3837 3.86665 77.3504 7.6C81.3171 11.3333 83.3004 16.35 83.3004 22.65V54.85H113.05C119.35 54.85 124.134 56.25 127.4 59.05C130.9 61.85 132.65 65.9333 132.65 71.3C132.65 76.6667 130.9 80.75 127.4 83.55C124.134 86.35 119.35 87.75 113.05 87.75H83.3004V167.2C83.3004 184.467 91.2337 193.683 107.1 194.85L116.55 195.55Z" fill="#F5F5F5"/>
<path d="M116.55 195.55L116.477 196.547L116.491 196.548L116.55 195.55ZM127.05 224.25L127.584 225.096L127.595 225.088L127.05 224.25ZM107.8 227.75L107.727 228.747L107.736 228.748L107.745 228.748L107.8 227.75ZM98.3504 227.05L98.4243 226.053L98.4216 226.053L98.3504 227.05ZM39.5504 87.75H40.5504V86.75H39.5504V87.75ZM7.35039 83.55L6.6996 84.3093L6.71246 84.3203L6.7257 84.3309L7.35039 83.55ZM7.35039 59.05L6.7257 58.2691L6.71246 58.2797L6.6996 58.2907L7.35039 59.05ZM39.5504 54.85V55.85H40.5504V54.85H39.5504ZM45.5004 7.6L46.1858 8.3282L46.1858 8.32819L45.5004 7.6ZM77.3504 7.6L76.665 8.32819L76.665 8.3282L77.3504 7.6ZM83.3004 54.85H82.3004V55.85H83.3004V54.85ZM127.4 59.05L126.75 59.8092L126.762 59.8203L126.776 59.8309L127.4 59.05ZM127.4 83.55L126.776 82.7691L126.762 82.7797L126.75 82.7907L127.4 83.55ZM83.3004 87.75V86.75H82.3004V87.75H83.3004ZM107.1 194.85L107.174 193.853L107.174 193.853L107.1 194.85ZM116.624 194.553L114.262 194.378L114.114 196.372L116.477 196.547L116.624 194.553ZM109.537 194.028L107.174 193.853L107.027 195.847L109.389 196.022L109.537 194.028ZM107.174 193.853C103.468 193.58 100.238 192.861 97.4707 191.712L96.7039 193.559C99.7063 194.806 103.152 195.562 107.027 195.847L107.174 193.853ZM85.4162 177.16C84.6761 174.241 84.3004 170.924 84.3004 167.2H82.3004C82.3004 171.055 82.689 174.542 83.4775 177.651L85.4162 177.16ZM84.3004 167.2V160.579H82.3004V167.2H84.3004ZM84.3004 147.337V134.096H82.3004V147.337H84.3004ZM84.3004 120.854V107.613H82.3004V120.854H84.3004ZM84.3004 94.3708V87.75H82.3004V94.3708H84.3004ZM83.3004 88.75H90.7379V86.75H83.3004V88.75ZM105.613 88.75H113.05V86.75H105.613V88.75ZM113.05 88.75C114.421 88.75 115.726 88.6853 116.966 88.5548L116.757 86.5658C115.593 86.6882 114.358 86.75 113.05 86.75V88.75ZM124.64 86.5193C125.903 85.9105 127.042 85.1746 128.051 84.3093L126.75 82.7907C125.88 83.536 124.889 84.179 123.771 84.7176L124.64 86.5193ZM128.025 84.3309C129.01 83.5431 129.869 82.6569 130.6 81.6722L128.995 80.4799C128.37 81.3218 127.631 82.0849 126.776 82.7691L128.025 84.3309ZM133.369 74.9036C133.557 73.763 133.65 72.5613 133.65 71.3H131.65C131.65 72.4634 131.565 73.5555 131.396 74.5776L133.369 74.9036ZM133.65 71.3C133.65 70.0387 133.557 68.837 133.369 67.6964L131.396 68.0223C131.565 69.0445 131.65 70.1365 131.65 71.3H133.65ZM130.6 60.9278C129.869 59.9431 129.01 59.0569 128.025 58.2691L126.776 59.8309C127.631 60.5151 128.37 61.2782 128.995 62.1201L130.6 60.9278ZM128.051 58.2907C127.042 57.4254 125.903 56.6894 124.64 56.0807L123.771 57.8824C124.889 58.421 125.88 59.064 126.75 59.8092L128.051 58.2907ZM116.966 54.0452C115.726 53.9147 114.421 53.85 113.05 53.85V55.85C114.358 55.85 115.593 55.9118 116.757 56.0342L116.966 54.0452ZM113.05 53.85H105.613V55.85H113.05V53.85ZM90.7379 53.85H83.3004V55.85H90.7379V53.85ZM84.3004 54.85V46.8H82.3004V54.85H84.3004ZM84.3004 30.7V22.65H82.3004V30.7H84.3004ZM84.3004 22.65C84.3004 21.1496 84.1915 19.7126 83.9717 18.3402L81.9969 18.6565C82.1985 19.9155 82.3004 21.2462 82.3004 22.65H84.3004ZM80.8729 10.2156C80.0666 9.00712 79.1202 7.89244 78.0358 6.8718L76.665 8.3282C77.6423 9.24796 78.4896 10.247 79.2092 11.3256L80.8729 10.2156ZM78.0358 6.8718C76.9333 5.83422 75.7353 4.93274 74.4424 4.16854L73.4247 5.89026C74.5893 6.57862 75.6691 7.39086 76.665 8.32819L78.0358 6.8718ZM66.0139 1.30164C64.606 1.09999 63.1345 0.999984 61.6004 0.999984V2.99998C63.0478 2.99998 64.4241 3.09435 65.7304 3.28143L66.0139 1.30164ZM61.6004 0.999984C60.036 0.999984 58.5382 1.09712 57.1081 1.29298L57.3794 3.27448C58.7118 3.09201 60.1185 2.99998 61.6004 2.99998V0.999984ZM48.4959 4.13186C47.1631 4.90343 45.9357 5.81703 44.815 6.8718L46.1858 8.32819C47.1944 7.37889 48.298 6.55737 49.4979 5.86276L48.4959 4.13186ZM44.815 6.87179C43.7306 7.89244 42.7841 9.00711 41.9779 10.2156L43.6416 11.3256C44.3612 10.247 45.2085 9.24796 46.1858 8.3282L44.815 6.87179ZM38.8791 18.3402C38.6593 19.7126 38.5504 21.1496 38.5504 22.65H40.5504C40.5504 21.2462 40.6523 19.9155 40.8539 18.6565L38.8791 18.3402ZM38.5504 22.65V30.7H40.5504V22.65H38.5504ZM38.5504 46.8V54.85H40.5504V46.8H38.5504ZM39.5504 53.85H35.1754V55.85H39.5504V53.85ZM26.4254 53.85H22.0504V55.85H26.4254V53.85ZM22.0504 53.85C20.6567 53.85 19.3249 53.9169 18.0555 54.0518L18.2669 56.0406C19.4595 55.9139 20.7204 55.85 22.0504 55.85V53.85ZM10.2343 56.1035C8.95206 56.7032 7.78138 57.4246 6.7257 58.2691L7.97509 59.8309C8.90027 59.0907 9.93467 58.4516 11.0817 57.9151L10.2343 56.1035ZM6.6996 58.2907C5.75941 59.0966 4.94269 60.0037 4.25183 61.0113L5.9013 62.1423C6.49186 61.2811 7.19102 60.5037 8.00118 59.8092L6.6996 58.2907ZM1.70519 67.7524C1.53458 68.8757 1.45039 70.0587 1.45039 71.3H3.45039C3.45039 70.1488 3.5285 69.0668 3.68251 68.0527L1.70519 67.7524ZM1.45039 71.3C1.45039 72.5413 1.53458 73.7242 1.70519 74.8476L3.68251 74.5473C3.5285 73.5332 3.45039 72.4512 3.45039 71.3H1.45039ZM4.25183 81.5887C4.94269 82.5962 5.75941 83.5034 6.6996 84.3093L8.00118 82.7907C7.19102 82.0963 6.49186 81.3189 5.9013 80.4577L4.25183 81.5887ZM6.7257 84.3309C7.78138 85.1754 8.95206 85.8968 10.2343 86.4965L11.0817 84.6849C9.93467 84.1484 8.90027 83.5093 7.97509 82.7691L6.7257 84.3309ZM18.0555 88.5481C19.3249 88.6831 20.6567 88.75 22.0504 88.75V86.75C20.7204 86.75 19.4595 86.6861 18.2669 86.5593L18.0555 88.5481ZM22.0504 88.75H26.4254V86.75H22.0504V88.75ZM35.1754 88.75H39.5504V86.75H35.1754V88.75ZM38.5504 87.75V94.1083H40.5504V87.75H38.5504ZM38.5504 106.825V119.542H40.5504V106.825H38.5504ZM38.5504 132.258V144.975H40.5504V132.258H38.5504ZM38.5504 157.692V164.05H40.5504V157.692H38.5504ZM38.5504 164.05C38.5504 166.872 38.6511 169.603 38.8529 172.242L40.8471 172.09C40.6494 169.504 40.5504 166.824 40.5504 164.05H38.5504ZM41.675 188.401C43.2957 193.972 45.5498 198.974 48.4435 203.401L50.1175 202.306C47.3425 198.061 45.1665 193.243 43.5954 187.842L41.675 188.401ZM59.7059 215.446C63.9239 218.629 68.761 221.218 74.2091 223.22L74.8991 221.343C69.6163 219.402 64.9562 216.902 60.9105 213.85L59.7059 215.446ZM90.1297 227.164C92.7483 227.552 95.4649 227.846 98.2792 228.047L98.4216 226.053C95.6544 225.855 92.9881 225.566 90.4227 225.186L90.1297 227.164ZM98.2765 228.047L100.639 228.222L100.787 226.228L98.4243 226.053L98.2765 228.047ZM105.364 228.572L107.727 228.747L107.874 226.753L105.512 226.578L105.364 228.572ZM107.745 228.748C109.51 228.847 111.193 228.874 112.794 228.829L112.739 226.83C111.199 226.873 109.572 226.847 107.856 226.752L107.745 228.748ZM122.86 227.272C124.606 226.704 126.183 225.981 127.584 225.095L126.516 223.405C125.272 224.191 123.849 224.847 122.242 225.37L122.86 227.272ZM127.595 225.088C128.783 224.316 129.836 223.459 130.75 222.515L129.312 221.124C128.513 221.951 127.579 222.714 126.505 223.412L127.595 225.088ZM134.619 215.345C134.908 214.066 135.05 212.716 135.05 211.3H133.05C133.05 212.582 132.922 213.783 132.669 214.904L134.619 215.345ZM135.05 211.3C135.05 208.741 134.668 206.44 133.879 204.415L132.015 205.141C132.697 206.891 133.05 208.937 133.05 211.3H135.05ZM123.383 195.626C121.37 195.057 119.11 194.702 116.61 194.552L116.491 196.548C118.876 196.691 120.99 197.028 122.839 197.55L123.383 195.626ZM116.55 195.55L116.403 197.545L116.417 197.546L116.431 197.546L116.55 195.55ZM127.05 224.25L128.118 225.941L128.129 225.934L128.14 225.927L127.05 224.25ZM107.8 227.75L107.653 229.745L107.671 229.746L107.689 229.747L107.8 227.75ZM98.3504 227.05L98.4981 225.055L98.4929 225.055L98.3504 227.05ZM39.5504 87.75H41.5504V85.75H39.5504V87.75ZM7.35039 83.55L6.04881 85.0685L6.07454 85.0906L6.101 85.1117L7.35039 83.55ZM7.35039 59.05L6.101 57.4883L6.07454 57.5094L6.04881 57.5315L7.35039 59.05ZM39.5504 54.85V56.85H41.5504V54.85H39.5504ZM45.5004 7.6L46.8711 9.0564L46.8711 9.05639L45.5004 7.6ZM77.3504 7.6L75.9797 9.05639L75.9797 9.0564L77.3504 7.6ZM83.3004 54.85H81.3004V56.85H83.3004V54.85ZM127.4 59.05L126.099 60.5685L126.125 60.5906L126.151 60.6117L127.4 59.05ZM127.4 83.55L126.151 81.9883L126.125 82.0094L126.099 82.0315L127.4 83.55ZM83.3004 87.75V85.75H81.3004V87.75H83.3004ZM107.1 194.85L107.248 192.855L107.247 192.855L107.1 194.85ZM116.698 193.555L114.336 193.38L114.04 197.37L116.403 197.545L116.698 193.555ZM109.611 193.03L107.248 192.855L106.953 196.845L109.315 197.02L109.611 193.03ZM107.247 192.855C103.625 192.589 100.504 191.888 97.854 190.788L96.3205 194.483C99.4404 195.778 102.995 196.554 106.954 196.845L107.247 192.855ZM86.3855 176.914C85.6697 174.091 85.3004 170.859 85.3004 167.2H81.3004C81.3004 171.121 81.6954 174.692 82.5082 177.897L86.3855 176.914ZM85.3004 167.2V160.579H81.3004V167.2H85.3004ZM85.3004 147.337V134.096H81.3004V147.337H85.3004ZM85.3004 120.854V107.613H81.3004V120.854H85.3004ZM85.3004 94.3708V87.75H81.3004V94.3708H85.3004ZM83.3004 89.75H90.7379V85.75H83.3004V89.75ZM105.613 89.75H113.05V85.75H105.613V89.75ZM113.05 89.75C114.452 89.75 115.793 89.6838 117.071 89.5493L116.652 85.5713C115.527 85.6897 114.327 85.75 113.05 85.75V89.75ZM125.074 87.4201C126.41 86.7763 127.622 85.9939 128.702 85.0685L126.099 82.0315C125.299 82.7166 124.382 83.3132 123.337 83.8168L125.074 87.4201ZM128.65 85.1117C129.699 84.2723 130.619 83.3244 131.403 82.2683L128.192 79.8837C127.62 80.6543 126.942 81.3558 126.151 81.9883L128.65 85.1117ZM134.356 75.0666C134.554 73.8668 134.65 72.6102 134.65 71.3H130.65C130.65 72.4145 130.568 73.4517 130.409 74.4147L134.356 75.0666ZM134.65 71.3C134.65 69.9898 134.554 68.7332 134.356 67.5334L130.409 68.1853C130.568 69.1483 130.65 70.1855 130.65 71.3H134.65ZM131.403 60.3316C130.619 59.2755 129.699 58.3277 128.65 57.4883L126.151 60.6117C126.942 61.2442 127.62 61.9457 128.192 62.7163L131.403 60.3316ZM128.702 57.5315C127.622 56.6061 126.41 55.8237 125.074 55.1799L123.337 58.7832C124.382 59.2868 125.299 59.8834 126.099 60.5685L128.702 57.5315ZM117.071 53.0507C115.793 52.9162 114.452 52.85 113.05 52.85V56.85C114.327 56.85 115.527 56.9103 116.652 57.0287L117.071 53.0507ZM113.05 52.85H105.613V56.85H113.05V52.85ZM90.7379 52.85H83.3004V56.85H90.7379V52.85ZM85.3004 54.85V46.8H81.3004V54.85H85.3004ZM85.3004 30.7V22.65H81.3004V30.7H85.3004ZM85.3004 22.65C85.3004 21.1013 85.188 19.6112 84.9591 18.1821L81.0095 18.8146C81.202 20.0169 81.3004 21.2945 81.3004 22.65H85.3004ZM81.7048 9.66062C80.8552 8.38716 79.8592 7.21468 78.7211 6.14359L75.9797 9.0564C76.9033 9.92572 77.7011 10.867 78.3774 11.8806L81.7048 9.66062ZM78.7211 6.1436C77.5655 5.0559 76.3083 4.1098 74.9512 3.30768L72.9159 6.75112C74.0163 7.40155 75.037 8.16918 75.9797 9.05639L78.7211 6.1436ZM66.1557 0.311739C64.6969 0.102813 63.1779 -1.58548e-05 61.6004 -1.58548e-05V3.99998C63.0044 3.99998 64.3331 4.09152 65.5886 4.27133L66.1557 0.311739ZM61.6004 -1.58548e-05C59.9947 -1.58548e-05 58.4514 0.099676 56.9724 0.302223L57.5151 4.26523C58.7987 4.08945 60.1598 3.99998 61.6004 3.99998V-1.58548e-05ZM47.9949 3.26641C46.5956 4.07646 45.3064 5.0361 44.1297 6.1436L46.8711 9.05639C47.8237 8.15981 48.8655 7.38433 49.9989 6.72821L47.9949 3.26641ZM44.1297 6.14359C42.9916 7.21468 41.9956 8.38716 41.146 9.66062L44.4734 11.8806C45.1497 10.867 45.9475 9.92572 46.8711 9.0564L44.1297 6.14359ZM37.8916 18.1821C37.6628 19.6112 37.5504 21.1013 37.5504 22.65H41.5504C41.5504 21.2945 41.6488 20.0169 41.8413 18.8146L37.8916 18.1821ZM37.5504 22.65V30.7H41.5504V22.65H37.5504ZM37.5504 46.8V54.85H41.5504V46.8H37.5504ZM39.5504 52.85H35.1754V56.85H39.5504V52.85ZM26.4254 52.85H22.0504V56.85H26.4254V52.85ZM22.0504 52.85C20.6249 52.85 19.2575 52.9185 17.9498 53.0574L18.3726 57.035C19.5268 56.9124 20.7523 56.85 22.0504 56.85V52.85ZM9.81066 55.1977C8.46076 55.829 7.22194 56.5915 6.101 57.4883L8.59978 60.6117C9.45971 59.9238 10.426 59.3258 11.5054 58.8209L9.81066 55.1977ZM6.04881 57.5315C5.04361 58.3931 4.1681 59.3651 3.4271 60.4457L6.72603 62.7078C7.26644 61.9197 7.90682 61.2072 8.65197 60.5685L6.04881 57.5315ZM0.716522 67.6023C0.537627 68.7802 0.450391 70.0137 0.450391 71.3H4.45039C4.45039 70.1938 4.52546 69.1623 4.67118 68.2028L0.716522 67.6023ZM0.450391 71.3C0.450391 72.5863 0.537627 73.8198 0.716522 74.9977L4.67118 74.3971C4.52546 73.4376 4.45039 72.4062 4.45039 71.3H0.450391ZM3.4271 82.1542C4.1681 83.2349 5.0436 84.2069 6.04881 85.0685L8.65197 82.0315C7.90682 81.3928 7.26644 80.6803 6.72603 79.8922L3.4271 82.1542ZM6.101 85.1117C7.22194 86.0085 8.46076 86.7709 9.81066 87.4023L11.5054 83.7791C10.426 83.2742 9.45971 82.6762 8.59978 81.9883L6.101 85.1117ZM17.9498 89.5425C19.2575 89.6815 20.6249 89.75 22.0504 89.75V85.75C20.7523 85.75 19.5268 85.6876 18.3726 85.5649L17.9498 89.5425ZM22.0504 89.75H26.4254V85.75H22.0504V89.75ZM35.1754 89.75H39.5504V85.75H35.1754V89.75ZM37.5504 87.75V94.1083H41.5504V87.75H37.5504ZM37.5504 106.825V119.542H41.5504V106.825H37.5504ZM37.5504 132.258V144.975H41.5504V132.258H37.5504ZM37.5504 157.692V164.05H41.5504V157.692H37.5504ZM37.5504 164.05C37.5504 166.896 37.6519 169.652 37.8558 172.318L41.8442 172.014C41.6486 169.455 41.5504 166.801 41.5504 164.05H37.5504ZM40.7148 188.68C42.3603 194.336 44.6535 199.431 47.6065 203.948L50.9545 201.759C48.2388 197.605 46.1019 192.878 44.5556 187.563L40.7148 188.68ZM59.1036 216.244C63.4077 219.492 68.3334 222.126 73.8642 224.159L75.244 220.404C70.0439 218.493 65.4723 216.039 61.5128 213.051L59.1036 216.244ZM89.9832 228.154C92.6284 228.545 95.3702 228.842 98.2079 229.045L98.4929 225.055C95.7491 224.859 93.1081 224.573 90.5691 224.197L89.9832 228.154ZM98.2027 229.045L100.565 229.22L100.861 225.23L98.4981 225.055L98.2027 229.045ZM105.29 229.57L107.653 229.745L107.948 225.755L105.586 225.58L105.29 229.57ZM107.689 229.747C109.479 229.846 111.191 229.874 112.822 229.829L112.711 225.83C111.202 225.872 109.602 225.847 107.911 225.753L107.689 229.747ZM123.169 228.223C124.984 227.633 126.638 226.876 128.118 225.941L125.982 222.559C124.816 223.296 123.471 223.919 121.933 224.418L123.169 228.223ZM128.14 225.927C129.385 225.118 130.498 224.214 131.468 223.21L128.594 220.429C127.851 221.197 126.976 221.913 125.96 222.573L128.14 225.927ZM135.595 215.565C135.901 214.207 136.05 212.783 136.05 211.3H132.05C132.05 212.515 131.928 213.641 131.693 214.684L135.595 215.565ZM136.05 211.3C136.05 208.642 135.653 206.214 134.81 204.051L131.083 205.504C131.712 207.116 132.05 209.036 132.05 211.3H136.05ZM123.655 194.663C121.559 194.071 119.226 193.707 116.67 193.554L116.431 197.546C118.76 197.686 120.801 198.014 122.568 198.513L123.655 194.663Z" fill="black"/>
</svg>
