<svg width="219" height="253" viewBox="0 0 219 253" fill="none" xmlns="http://www.w3.org/2000/svg">
<path d="M109.626 250.75C102.626 250.75 97.0258 248.767 92.8258 244.8C88.8591 240.6 86.8758 235.117 86.8758 228.35V39.35H23.1758C9.17578 39.35 2.17578 33.1667 2.17578 20.8C2.17578 8.43332 9.17578 2.24998 23.1758 2.24998H195.726C209.726 2.24998 216.726 8.43332 216.726 20.8C216.726 33.1667 209.726 39.35 195.726 39.35H132.026V228.35C132.026 235.117 129.926 240.6 125.726 244.8C121.759 248.767 116.392 250.75 109.626 250.75Z" fill="#F5F5F5"/>
<path d="M92.8258 244.8L92.0988 245.487L92.1184 245.507L92.1392 245.527L92.8258 244.8ZM86.8758 39.35H87.8758V38.35H86.8758V39.35ZM132.026 39.35V38.35H131.026V39.35H132.026ZM125.726 244.8L125.019 244.093L125.019 244.093L125.726 244.8ZM109.626 249.75C108.078 249.75 106.607 249.65 105.211 249.453L104.93 251.433C106.427 251.645 107.992 251.75 109.626 251.75V249.75ZM96.9764 246.679C95.7283 245.944 94.5739 245.076 93.5124 244.073L92.1392 245.527C93.3088 246.632 94.5831 247.591 95.9611 248.403L96.9764 246.679ZM93.5528 244.113C92.5626 243.065 91.7037 241.934 90.9746 240.721L89.2604 241.751C90.0648 243.09 91.0114 244.335 92.0988 245.487L93.5528 244.113ZM88.1805 232.674C87.9779 231.304 87.8758 229.863 87.8758 228.35H85.8758C85.8758 229.953 85.984 231.492 86.202 232.967L88.1805 232.674ZM87.8758 228.35V220.475H85.8758V228.35H87.8758ZM87.8758 204.725V188.975H85.8758V204.725H87.8758ZM87.8758 173.225V157.475H85.8758V173.225H87.8758ZM87.8758 141.725V125.975H85.8758V141.725H87.8758ZM87.8758 110.225V94.475H85.8758V110.225H87.8758ZM87.8758 78.725V62.975H85.8758V78.725H87.8758ZM87.8758 47.225V39.35H85.8758V47.225H87.8758ZM86.8758 38.35H78.9133V40.35H86.8758V38.35ZM62.9883 38.35H47.0633V40.35H62.9883V38.35ZM31.1383 38.35H23.1758V40.35H31.1383V38.35ZM23.1758 38.35C20.2637 38.35 17.6865 38.0767 15.4362 37.5409L14.9729 39.4865C17.4056 40.0657 20.1425 40.35 23.1758 40.35V38.35ZM4.34787 28.3569C3.57439 26.219 3.17578 23.7059 3.17578 20.8H1.17578C1.17578 23.8842 1.59834 26.6358 2.46718 29.0373L4.34787 28.3569ZM3.17578 20.8C3.17578 17.8941 3.57439 15.381 4.34787 13.2431L2.46718 12.5627C1.59834 14.9642 1.17578 17.7158 1.17578 20.8H3.17578ZM15.4362 4.05912C17.6865 3.52327 20.2637 3.24998 23.1758 3.24998V1.24998C20.1425 1.24998 17.4056 1.53426 14.9729 2.11352L15.4362 4.05912ZM23.1758 3.24998H30.3654V1.24998H23.1758V3.24998ZM44.7445 3.24998H59.1237V1.24998H44.7445V3.24998ZM73.5029 3.24998H87.882V1.24998H73.5029V3.24998ZM102.261 3.24998H116.64V1.24998H102.261V3.24998ZM131.02 3.24998H145.399V1.24998H131.02V3.24998ZM159.778 3.24998H174.157V1.24998H159.778V3.24998ZM188.536 3.24998H195.726V1.24998H188.536V3.24998ZM195.726 3.24998C198.638 3.24998 201.215 3.52327 203.465 4.05912L203.929 2.11352C201.496 1.53426 198.759 1.24998 195.726 1.24998V3.24998ZM214.554 13.2431C215.327 15.381 215.726 17.8941 215.726 20.8H217.726C217.726 17.7158 217.303 14.9642 216.434 12.5627L214.554 13.2431ZM215.726 20.8C215.726 23.7059 215.327 26.219 214.554 28.3569L216.434 29.0373C217.303 26.6358 217.726 23.8842 217.726 20.8H215.726ZM203.465 37.5409C201.215 38.0767 198.638 38.35 195.726 38.35V40.35C198.759 40.35 201.496 40.0657 203.929 39.4865L203.465 37.5409ZM195.726 38.35H187.763V40.35H195.726V38.35ZM171.838 38.35H155.913V40.35H171.838V38.35ZM139.988 38.35H132.026V40.35H139.988V38.35ZM131.026 39.35V47.225H133.026V39.35H131.026ZM131.026 62.975V78.725H133.026V62.975H131.026ZM131.026 94.475V110.225H133.026V94.475H131.026ZM131.026 125.975V141.725H133.026V125.975H131.026ZM131.026 157.475V173.225H133.026V157.475H131.026ZM131.026 188.975V204.725H133.026V188.975H131.026ZM131.026 220.475V228.35H133.026V220.475H131.026ZM131.026 228.35C131.026 229.874 130.916 231.325 130.698 232.703L132.673 233.015C132.909 231.526 133.026 229.97 133.026 228.35H131.026ZM127.72 240.746C126.955 241.941 126.055 243.056 125.019 244.093L126.433 245.507C127.568 244.372 128.56 243.144 129.405 241.824L127.72 240.746ZM125.019 244.093C124.022 245.09 122.934 245.953 121.753 246.684L122.806 248.384C124.119 247.571 125.329 246.611 126.433 245.507L125.019 244.093ZM113.875 249.454C112.535 249.651 111.119 249.75 109.626 249.75V251.75C111.207 251.75 112.721 251.645 114.166 251.432L113.875 249.454ZM92.8258 244.8L91.3718 246.173L91.411 246.215L91.4525 246.254L92.8258 244.8ZM86.8758 39.35H88.8758V37.35H86.8758V39.35ZM132.026 39.35V37.35H130.026V39.35H132.026ZM125.726 244.8L124.312 243.386L124.312 243.386L125.726 244.8ZM109.626 248.75C108.121 248.75 106.696 248.653 105.351 248.463L104.79 252.423C106.337 252.642 107.949 252.75 109.626 252.75V248.75ZM97.4841 245.818C96.3009 245.121 95.2065 244.297 94.199 243.346L91.4525 246.254C92.6762 247.41 94.0105 248.414 95.4534 249.264L97.4841 245.818ZM94.2798 243.427C93.3383 242.43 92.5232 241.357 91.8318 240.206L88.4032 242.266C89.2453 243.668 90.2358 244.97 91.3718 246.173L94.2798 243.427ZM89.1697 232.528C88.9749 231.21 88.8758 229.818 88.8758 228.35H84.8758C84.8758 229.998 84.987 231.586 85.2128 233.113L89.1697 232.528ZM88.8758 228.35V220.475H84.8758V228.35H88.8758ZM88.8758 204.725V188.975H84.8758V204.725H88.8758ZM88.8758 173.225V157.475H84.8758V173.225H88.8758ZM88.8758 141.725V125.975H84.8758V141.725H88.8758ZM88.8758 110.225V94.475H84.8758V110.225H88.8758ZM88.8758 78.725V62.975H84.8758V78.725H88.8758ZM88.8758 47.225V39.35H84.8758V47.225H88.8758ZM86.8758 37.35H78.9133V41.35H86.8758V37.35ZM62.9883 37.35H47.0633V41.35H62.9883V37.35ZM31.1383 37.35H23.1758V41.35H31.1383V37.35ZM23.1758 37.35C20.3242 37.35 17.827 37.0822 15.6679 36.5681L14.7413 40.4593C17.2651 41.0602 20.082 41.35 23.1758 41.35V37.35ZM5.28822 28.0167C4.56242 26.0105 4.17578 23.6168 4.17578 20.8H0.175781C0.175781 23.9733 0.610309 26.8443 1.52683 29.3775L5.28822 28.0167ZM4.17578 20.8C4.17578 17.9832 4.56242 15.5894 5.28822 13.5833L1.52683 12.2225C0.610308 14.7557 0.175781 17.6267 0.175781 20.8H4.17578ZM15.6679 5.03192C17.827 4.51778 20.3242 4.24998 23.1758 4.24998V0.249985C20.082 0.249985 17.2651 0.539746 14.7413 1.14072L15.6679 5.03192ZM23.1758 4.24998H30.3654V0.249985H23.1758V4.24998ZM44.7445 4.24998H59.1237V0.249985H44.7445V4.24998ZM73.5029 4.24998H87.882V0.249985H73.5029V4.24998ZM102.261 4.24998H116.64V0.249985H102.261V4.24998ZM131.02 4.24998H145.399V0.249985H131.02V4.24998ZM159.778 4.24998H174.157V0.249985H159.778V4.24998ZM188.536 4.24998H195.726V0.249985H188.536V4.24998ZM195.726 4.24998C198.577 4.24998 201.075 4.51778 203.234 5.03192L204.16 1.14072C201.636 0.539746 198.82 0.249985 195.726 0.249985V4.24998ZM213.613 13.5833C214.339 15.5894 214.726 17.9832 214.726 20.8H218.726C218.726 17.6267 218.291 14.7557 217.375 12.2225L213.613 13.5833ZM214.726 20.8C214.726 23.6168 214.339 26.0105 213.613 28.0167L217.375 29.3775C218.291 26.8443 218.726 23.9733 218.726 20.8H214.726ZM203.234 36.5681C201.075 37.0822 198.577 37.35 195.726 37.35V41.35C198.82 41.35 201.636 41.0602 204.16 40.4593L203.234 36.5681ZM195.726 37.35H187.763V41.35H195.726V37.35ZM171.838 37.35H155.913V41.35H171.838V37.35ZM139.988 37.35H132.026V41.35H139.988V37.35ZM130.026 39.35V47.225H134.026V39.35H130.026ZM130.026 62.975V78.725H134.026V62.975H130.026ZM130.026 94.475V110.225H134.026V94.475H130.026ZM130.026 125.975V141.725H134.026V125.975H130.026ZM130.026 157.475V173.225H134.026V157.475H130.026ZM130.026 188.975V204.725H134.026V188.975H130.026ZM130.026 220.475V228.35H134.026V220.475H130.026ZM130.026 228.35C130.026 229.826 129.919 231.224 129.71 232.547L133.661 233.171C133.905 231.626 134.026 230.018 134.026 228.35H130.026ZM126.878 240.206C126.153 241.339 125.299 242.399 124.312 243.386L127.14 246.214C128.325 245.029 129.362 243.745 130.247 242.363L126.878 240.206ZM124.312 243.386C123.369 244.329 122.341 245.144 121.226 245.834L123.333 249.235C124.712 248.38 125.982 247.372 127.14 246.214L124.312 243.386ZM113.73 248.464C112.442 248.654 111.075 248.75 109.626 248.75V252.75C111.252 252.75 112.814 252.642 114.312 252.422L113.73 248.464Z" fill="black"/>
</svg>
