<svg width="164" height="182" viewBox="0 0 164 182" fill="none" xmlns="http://www.w3.org/2000/svg">
<path d="M139.007 2.35C145.774 2.35 151.141 4.21666 155.107 7.95C159.074 11.6833 161.057 16.7 161.057 23V158.8C161.057 164.867 158.957 169.767 154.757 173.5C150.791 177.233 145.541 179.1 139.007 179.1C132.707 179.1 127.691 177.35 123.957 173.85C120.224 170.35 118.357 165.567 118.357 159.5V150.75C112.991 160.083 105.757 167.317 96.6572 172.45C87.5572 177.35 77.2906 179.8 65.8572 179.8C23.8572 179.8 2.85723 156.233 2.85723 109.1V23C2.85723 16.7 4.84056 11.6833 8.80723 7.95C12.7739 4.21666 18.0239 2.35 24.5572 2.35C31.3239 2.35 36.6906 4.21666 40.6572 7.95C44.6239 11.6833 46.6072 16.7 46.6072 23V109.45C46.6072 121.583 49.0572 130.567 53.9572 136.4C58.8572 142.233 66.5572 145.15 77.0572 145.15C89.1906 145.15 98.8739 141.183 106.107 133.25C113.574 125.083 117.307 114.35 117.307 101.05V23C117.307 16.7 119.291 11.6833 123.257 7.95C127.224 4.21666 132.474 2.35 139.007 2.35Z" fill="#F5F5F5"/>
<path d="M155.107 7.95L154.422 8.6782L155.107 7.95ZM154.757 173.5L154.093 172.753L154.082 172.762L154.072 172.772L154.757 173.5ZM123.957 173.85L124.641 173.12L124.641 173.12L123.957 173.85ZM118.357 150.75H119.357V147.005L117.49 150.252L118.357 150.75ZM96.6572 172.45L97.1313 173.33L97.14 173.326L97.1486 173.321L96.6572 172.45ZM8.80723 7.95L9.49259 8.6782L9.49259 8.6782L8.80723 7.95ZM40.6572 7.95L39.9719 8.6782L39.9719 8.6782L40.6572 7.95ZM53.9572 136.4L53.1915 137.043L53.1915 137.043L53.9572 136.4ZM106.107 133.25L105.369 132.575L105.368 132.576L106.107 133.25ZM123.257 7.95L122.572 7.2218L123.257 7.95ZM139.007 1.35C137.473 1.35 136.002 1.45 134.594 1.65165L134.877 3.63145C136.184 3.44436 137.56 3.35 139.007 3.35V1.35ZM126.165 4.51854C124.872 5.28274 123.674 6.18422 122.572 7.2218L123.943 8.6782C124.939 7.74087 126.018 6.92862 127.183 6.24027L126.165 4.51854ZM122.572 7.2218C121.487 8.24244 120.541 9.35712 119.735 10.5656L121.398 11.6756C122.118 10.597 122.965 9.59796 123.943 8.6782L122.572 7.2218ZM116.636 18.6902C116.416 20.0626 116.307 21.4996 116.307 23H118.307C118.307 21.5962 118.409 20.2655 118.611 19.0065L116.636 18.6902ZM116.307 23V29.5042H118.307V23H116.307ZM116.307 42.5125V55.5208H118.307V42.5125H116.307ZM116.307 68.5292V81.5375H118.307V68.5292H116.307ZM116.307 94.5458V101.05H118.307V94.5458H116.307ZM116.307 101.05C116.307 104.043 116.116 106.897 115.734 109.615L117.714 109.894C118.11 107.076 118.307 104.128 118.307 101.05H116.307ZM110.388 125.722C108.971 128.181 107.298 130.466 105.369 132.575L106.845 133.925C108.872 131.708 110.631 129.307 112.121 126.72L110.388 125.722ZM105.368 132.576C103.557 134.563 101.591 136.291 99.4706 137.762L100.611 139.405C102.859 137.845 104.937 136.017 106.846 133.924L105.368 132.576ZM84.9529 143.521C82.4574 143.94 79.8259 144.15 77.0572 144.15V146.15C79.9271 146.15 82.6697 145.932 85.2836 145.494L84.9529 143.521ZM77.0572 144.15C74.8458 144.15 72.7684 144.018 70.8239 143.757L70.5573 145.739C72.5999 146.014 74.7669 146.15 77.0572 146.15V144.15ZM59.2696 139.771C57.5433 138.649 56.0288 137.311 54.7229 135.757L53.1915 137.043C54.6261 138.751 56.2899 140.22 58.1798 141.448L59.2696 139.771ZM54.7229 135.757C53.3308 134.1 52.1373 132.166 51.147 129.948L49.3208 130.764C50.3789 133.133 51.6676 135.229 53.1915 137.043L54.7229 135.757ZM47.9165 116.473C47.7106 114.269 47.6072 111.929 47.6072 109.45H45.6072C45.6072 111.984 45.7129 114.387 45.9252 116.659L47.9165 116.473ZM47.6072 109.45V102.246H45.6072V109.45H47.6072ZM47.6072 87.8375V73.4292H45.6072V87.8375H47.6072ZM47.6072 59.0208V44.6125H45.6072V59.0208H47.6072ZM47.6072 30.2042V23H45.6072V30.2042H47.6072ZM47.6072 23C47.6072 21.4996 47.4984 20.0626 47.2786 18.6902L45.3037 19.0065C45.5054 20.2655 45.6072 21.5962 45.6072 23H47.6072ZM44.1798 10.5656C43.3735 9.35712 42.427 8.24244 41.3426 7.2218L39.9719 8.6782C40.9491 9.59796 41.7964 10.597 42.5161 11.6756L44.1798 10.5656ZM41.3426 7.2218C40.2219 6.16703 38.9945 5.25343 37.6617 4.48186L36.6597 6.21276C37.8596 6.90737 38.9632 7.72889 39.9719 8.6782L41.3426 7.2218ZM29.0496 1.64299C27.6194 1.44713 26.1216 1.35 24.5572 1.35V3.35C26.0391 3.35 27.4458 3.44202 28.7782 3.62449L29.0496 1.64299ZM24.5572 1.35C23.0231 1.35 21.5516 1.45 20.1437 1.65165L20.4273 3.63145C21.7335 3.44436 23.1099 3.35 24.5572 3.35V1.35ZM11.7152 4.51854C10.4223 5.28274 9.22429 6.18422 8.12186 7.2218L9.49259 8.6782C10.4885 7.74087 11.5683 6.92862 12.7329 6.24027L11.7152 4.51854ZM8.12186 7.2218C7.03743 8.24244 6.09098 9.35712 5.28469 10.5656L6.9484 11.6756C7.66801 10.597 8.51535 9.59796 9.49259 8.6782L8.12186 7.2218ZM2.1859 18.6902C1.96609 20.0626 1.85723 21.4996 1.85723 23H3.85723C3.85723 21.5962 3.95909 20.2655 4.16073 19.0065L2.1859 18.6902ZM1.85723 23V30.175H3.85723V23H1.85723ZM1.85723 44.525V58.875H3.85723V44.525H1.85723ZM1.85723 73.225V87.575H3.85723V73.225H1.85723ZM1.85723 101.925V109.1H3.85723V101.925H1.85723ZM1.85723 109.1C1.85723 111.439 1.9086 113.721 2.01145 115.946L4.00931 115.854C3.90796 113.66 3.85723 111.409 3.85723 109.1H1.85723ZM3.39411 129.542C4.1772 134.314 5.26065 138.76 6.64692 142.878L8.54238 142.239C7.19435 138.235 6.1353 133.896 5.36771 129.218L3.39411 129.542ZM12.3912 155.38C14.8587 159.43 17.7615 163.003 21.1006 166.093L22.4591 164.625C19.2617 161.666 16.4748 158.239 14.0992 154.34L12.3912 155.38ZM32.4659 173.931C36.4127 175.914 40.732 177.465 45.4198 178.587L45.8854 176.642C41.3332 175.553 37.1607 174.052 33.3638 172.144L32.4659 173.931ZM59 180.581C61.2224 180.727 63.5082 180.8 65.8572 180.8V178.8C63.5496 178.8 61.3077 178.728 59.1315 178.585L59 180.581ZM65.8572 180.8C68.6194 180.8 71.3167 180.659 73.9489 180.376L73.7352 178.387C71.177 178.662 68.5511 178.8 65.8572 178.8V180.8ZM89.7302 176.69C92.2761 175.736 94.7432 174.616 97.1313 173.33L96.1831 171.57C93.8747 172.813 91.4899 173.895 89.0284 174.818L89.7302 176.69ZM97.1486 173.321C99.4677 172.013 101.669 170.57 103.752 168.991L102.544 167.397C100.534 168.92 98.4083 170.314 96.1659 171.579L97.1486 173.321ZM114.877 157.831C116.441 155.763 117.89 153.569 119.224 151.248L117.49 150.252C116.197 152.501 114.794 154.626 113.282 156.624L114.877 157.831ZM117.357 150.75V152.937H119.357V150.75H117.357ZM117.357 157.312V159.5H119.357V157.312H117.357ZM117.357 159.5C117.357 160.931 117.458 162.3 117.661 163.606L119.637 163.299C119.451 162.104 119.357 160.838 119.357 159.5H117.357ZM120.568 171.378C121.335 172.541 122.237 173.608 123.273 174.58L124.641 173.12C123.717 172.254 122.916 171.306 122.237 170.277L120.568 171.378ZM123.273 174.58C124.327 175.567 125.478 176.424 126.726 177.147L127.729 175.417C126.613 174.77 125.584 174.005 124.641 173.12L123.273 174.58ZM134.797 179.823C136.139 180.008 137.542 180.1 139.007 180.1V178.1C137.626 178.1 136.314 178.013 135.071 177.841L134.797 179.823ZM139.007 180.1C140.541 180.1 142.013 180 143.421 179.798L143.137 177.819C141.831 178.006 140.455 178.1 139.007 178.1V180.1ZM151.849 176.931C153.142 176.167 154.34 175.266 155.443 174.228L154.072 172.772C153.076 173.709 151.996 174.521 150.832 175.21L151.849 176.931ZM155.422 174.247C156.531 173.261 157.506 172.193 158.342 171.043L156.724 169.867C155.977 170.895 155.101 171.857 154.093 172.753L155.422 174.247ZM161.689 163.086C161.935 161.718 162.057 160.289 162.057 158.8H160.057C160.057 160.18 159.944 161.49 159.721 162.731L161.689 163.086ZM162.057 158.8V152.01H160.057V158.8H162.057ZM162.057 138.43V124.85H160.057V138.43H162.057ZM162.057 111.27V97.69H160.057V111.27H162.057ZM162.057 84.11V70.53H160.057V84.11H162.057ZM162.057 56.95V43.37H160.057V56.95H162.057ZM162.057 29.79V23H160.057V29.79H162.057ZM162.057 23C162.057 21.4996 161.948 20.0626 161.729 18.6902L159.754 19.0065C159.955 20.2655 160.057 21.5962 160.057 23H162.057ZM158.63 10.5656C157.823 9.35712 156.877 8.24244 155.793 7.2218L154.422 8.6782C155.399 9.59796 156.246 10.597 156.966 11.6756L158.63 10.5656ZM155.793 7.2218C154.672 6.16703 153.445 5.25343 152.112 4.48186L151.11 6.21276C152.31 6.90737 153.413 7.72889 154.422 8.6782L155.793 7.2218ZM143.5 1.64299C142.069 1.44713 140.572 1.35 139.007 1.35V3.35C140.489 3.35 141.896 3.44202 143.228 3.62449L143.5 1.64299ZM155.107 7.95L153.736 9.4064L155.107 7.95ZM154.757 173.5L153.429 172.005L153.407 172.024L153.387 172.044L154.757 173.5ZM123.957 173.85L125.325 172.391L125.325 172.391L123.957 173.85ZM118.357 150.75H120.357V143.259L116.623 149.753L118.357 150.75ZM96.6572 172.45L97.6054 174.211L97.6227 174.202L97.6399 174.192L96.6572 172.45ZM8.80723 7.95L10.178 9.4064L10.178 9.4064L8.80723 7.95ZM40.6572 7.95L39.2865 9.4064L39.2865 9.4064L40.6572 7.95ZM53.9572 136.4L52.4258 137.686L52.4258 137.686L53.9572 136.4ZM106.107 133.25L104.631 131.9L104.629 131.902L106.107 133.25ZM123.257 7.95L121.887 6.4936L123.257 7.95ZM139.007 0.349995C137.43 0.349995 135.911 0.452824 134.452 0.661749L135.019 4.62134C136.275 4.44153 137.603 4.35 139.007 4.35V0.349995ZM125.656 3.65768C124.299 4.4598 123.042 5.4059 121.887 6.4936L124.628 9.4064C125.571 8.51919 126.591 7.75156 127.692 7.10113L125.656 3.65768ZM121.887 6.4936C120.748 7.56468 119.752 8.73716 118.903 10.0106L122.23 12.2306C122.907 11.217 123.704 10.2757 124.628 9.4064L121.887 6.4936ZM115.648 18.5321C115.42 19.9612 115.307 21.4513 115.307 23H119.307C119.307 21.6445 119.406 20.3669 119.598 19.1646L115.648 18.5321ZM115.307 23V29.5042H119.307V23H115.307ZM115.307 42.5125V55.5208H119.307V42.5125H115.307ZM115.307 68.5292V81.5375H119.307V68.5292H115.307ZM115.307 94.5458V101.05H119.307V94.5458H115.307ZM115.307 101.05C115.307 104 115.118 106.808 114.743 109.476L118.705 110.033C119.107 107.165 119.307 104.17 119.307 101.05H115.307ZM109.522 125.222C108.141 127.619 106.511 129.844 104.631 131.9L107.583 134.6C109.658 132.33 111.46 129.869 112.987 127.219L109.522 125.222ZM104.629 131.902C102.866 133.836 100.957 135.514 98.9005 136.94L101.181 140.227C103.493 138.622 105.628 136.744 107.585 134.598L104.629 131.902ZM84.7876 142.535C82.3512 142.944 79.7753 143.15 77.0572 143.15V147.15C79.9777 147.15 82.7759 146.928 85.449 146.48L84.7876 142.535ZM77.0572 143.15C74.8852 143.15 72.8526 143.021 70.9571 142.766L70.424 146.73C72.5156 147.011 74.7275 147.15 77.0572 147.15V143.15ZM59.8145 138.932C58.1701 137.864 56.7302 136.592 55.4886 135.114L52.4258 137.686C53.9247 139.471 55.6631 141.005 57.6349 142.286L59.8145 138.932ZM55.4886 135.114C54.1624 133.535 53.0165 131.682 52.0601 129.541L48.4077 131.172C49.4997 133.617 50.836 135.794 52.4258 137.686L55.4886 135.114ZM48.9122 116.379C48.7095 114.21 48.6072 111.901 48.6072 109.45H44.6072C44.6072 112.011 44.714 114.446 44.9295 116.752L48.9122 116.379ZM48.6072 109.45V102.246H44.6072V109.45H48.6072ZM48.6072 87.8375V73.4292H44.6072V87.8375H48.6072ZM48.6072 59.0208V44.6125H44.6072V59.0208H48.6072ZM48.6072 30.2042V23H44.6072V30.2042H48.6072ZM48.6072 23C48.6072 21.4513 48.4949 19.9612 48.266 18.5321L44.3163 19.1646C44.5089 20.3669 44.6072 21.6445 44.6072 23H48.6072ZM45.0116 10.0106C44.162 8.73716 43.166 7.56468 42.028 6.4936L39.2865 9.4064C40.2102 10.2757 41.0079 11.217 41.6842 12.2306L45.0116 10.0106ZM42.028 6.4936C40.8512 5.38611 39.562 4.42646 38.1627 3.61641L36.1587 7.07821C37.2921 7.73434 38.3339 8.50982 39.2865 9.4064L42.028 6.4936ZM29.1852 0.652233C27.7062 0.449687 26.1629 0.349995 24.5572 0.349995V4.35C25.9978 4.35 27.359 4.43947 28.6425 4.61524L29.1852 0.652233ZM24.5572 0.349995C22.9798 0.349995 21.4607 0.452824 20.0019 0.661749L20.569 4.62134C21.8245 4.44153 23.1532 4.35 24.5572 4.35V0.349995ZM11.2064 3.65768C9.84935 4.4598 8.59218 5.4059 7.4365 6.4936L10.178 9.4064C11.1206 8.51919 12.1413 7.75156 13.2417 7.10113L11.2064 3.65768ZM7.4365 6.4936C6.29847 7.56468 5.30247 8.73716 4.45284 10.0106L7.78025 12.2306C8.45652 11.217 9.2543 10.2757 10.178 9.4064L7.4365 6.4936ZM1.19848 18.5321C0.96959 19.9612 0.857228 21.4513 0.857228 23H4.85723C4.85723 21.6445 4.95559 20.3669 5.14814 19.1646L1.19848 18.5321ZM0.857228 23V30.175H4.85723V23H0.857228ZM0.857228 44.525V58.875H4.85723V44.525H0.857228ZM0.857228 73.225V87.575H4.85723V73.225H0.857228ZM0.857228 101.925V109.1H4.85723V101.925H0.857228ZM0.857228 109.1C0.857228 111.453 0.908919 113.751 1.01251 115.992L5.00825 115.808C4.90764 113.63 4.85723 111.395 4.85723 109.1H0.857228ZM2.4073 129.704C3.19815 134.523 4.2938 139.022 5.6992 143.197L9.49011 141.92C8.1612 137.973 7.11435 133.687 6.35451 129.056L2.4073 129.704ZM11.5372 155.9C14.0506 160.026 17.0115 163.671 20.4214 166.827L23.1383 163.891C20.0118 160.998 17.2829 157.643 14.9532 153.819L11.5372 155.9ZM32.0169 174.825C36.0388 176.846 40.4315 178.421 45.187 179.56L46.1182 175.67C41.6337 174.596 37.5346 173.121 33.8128 171.251L32.0169 174.825ZM58.9343 181.578C61.1797 181.726 63.4875 181.8 65.8572 181.8V177.8C63.5703 177.8 61.3503 177.729 59.1972 177.587L58.9343 181.578ZM65.8572 181.8C68.6535 181.8 71.3865 181.657 74.0558 181.37L73.6283 177.393C71.1072 177.664 68.517 177.8 65.8572 177.8V181.8ZM90.0811 177.627C92.6691 176.657 95.1774 175.518 97.6054 174.211L95.709 170.689C93.4405 171.911 91.0968 172.975 88.6775 173.881L90.0811 177.627ZM97.6399 174.192C99.9974 172.862 102.236 171.394 104.356 169.789L101.94 166.6C99.9668 168.095 97.8787 169.465 95.6746 170.708L97.6399 174.192ZM115.675 158.434C117.265 156.332 118.737 154.102 120.091 151.747L116.623 149.753C115.35 151.968 113.97 154.057 112.485 156.021L115.675 158.434ZM116.357 150.75V152.937H120.357V150.75H116.357ZM116.357 157.312V159.5H120.357V157.312H116.357ZM116.357 159.5C116.357 160.978 116.461 162.399 116.673 163.76L120.625 163.146C120.448 162.005 120.357 160.791 120.357 159.5H116.357ZM119.733 171.928C120.544 173.158 121.497 174.285 122.589 175.309L125.325 172.391C124.456 171.576 123.707 170.688 123.072 169.726L119.733 171.928ZM122.589 175.309C123.698 176.349 124.911 177.25 126.224 178.012L128.231 174.552C127.181 173.943 126.213 173.223 125.325 172.391L122.589 175.309ZM134.66 180.813C136.051 181.005 137.501 181.1 139.007 181.1V177.1C137.667 177.1 136.402 177.016 135.208 176.851L134.66 180.813ZM139.007 181.1C140.585 181.1 142.104 180.997 143.563 180.788L142.995 176.829C141.74 177.008 140.411 177.1 139.007 177.1V181.1ZM152.358 177.792C153.715 176.99 154.972 176.044 156.128 174.956L153.387 172.044C152.444 172.931 151.423 173.698 150.323 174.349L152.358 177.792ZM156.086 174.995C157.247 173.963 158.27 172.842 159.151 171.631L155.915 169.279C155.212 170.246 154.385 171.155 153.429 172.005L156.086 174.995ZM162.673 163.263C162.931 161.833 163.057 160.344 163.057 158.8H159.057C159.057 160.126 158.949 161.376 158.737 162.554L162.673 163.263ZM163.057 158.8V152.01H159.057V158.8H163.057ZM163.057 138.43V124.85H159.057V138.43H163.057ZM163.057 111.27V97.69H159.057V111.27H163.057ZM163.057 84.11V70.53H159.057V84.11H163.057ZM163.057 56.95V43.37H159.057V56.95H163.057ZM163.057 29.79V23H159.057V29.79H163.057ZM163.057 23C163.057 21.4513 162.945 19.9612 162.716 18.5321L158.766 19.1646C158.959 20.3669 159.057 21.6445 159.057 23H163.057ZM159.462 10.0106C158.612 8.73716 157.616 7.56468 156.478 6.4936L153.736 9.4064C154.66 10.2757 155.458 11.217 156.134 12.2306L159.462 10.0106ZM156.478 6.4936C155.301 5.38611 154.012 4.42646 152.613 3.61642L150.609 7.07821C151.742 7.73434 152.784 8.50982 153.736 9.4064L156.478 6.4936ZM143.635 0.652233C142.156 0.449687 140.613 0.349995 139.007 0.349995V4.35C140.448 4.35 141.809 4.43947 143.093 4.61524L143.635 0.652233Z" fill="black"/>
</svg>
