<svg width="211" height="257" viewBox="0 0 211 257" fill="none" xmlns="http://www.w3.org/2000/svg">
<path d="M105.605 254.15C71.7719 254.15 46.1053 245.4 28.6053 227.9C11.1053 210.4 2.35527 184.85 2.35527 151.25V24.9C2.35527 18.1333 4.33861 12.7667 8.30527 8.79999C12.2719 4.59999 17.6386 2.49999 24.4053 2.49999C31.1719 2.49999 36.5386 4.59999 40.5053 8.79999C44.4719 12.7667 46.4553 18.1333 46.4553 24.9V153.7C46.4553 174.933 51.4719 191.033 61.5053 202C71.5386 212.733 86.2386 218.1 105.605 218.1C124.739 218.1 139.322 212.617 149.355 201.65C159.389 190.683 164.405 174.7 164.405 153.7V24.9C164.405 18.1333 166.389 12.7667 170.355 8.79999C174.322 4.59999 179.689 2.49999 186.455 2.49999C193.222 2.49999 198.589 4.59999 202.555 8.79999C206.522 12.7667 208.505 18.1333 208.505 24.9V151.25C208.505 184.617 199.755 210.167 182.255 227.9C164.755 245.4 139.205 254.15 105.605 254.15Z" fill="#F5F5F5"/>
<path d="M28.6053 227.9L27.8982 228.607L27.8982 228.607L28.6053 227.9ZM8.30527 8.79999L9.01238 9.5071L9.02248 9.497L9.03229 9.48661L8.30527 8.79999ZM40.5053 8.79999L39.7783 9.48661L39.7881 9.497L39.7982 9.5071L40.5053 8.79999ZM61.5053 202L60.7674 202.675L60.7748 202.683L61.5053 202ZM149.355 201.65L148.617 200.975L148.617 200.975L149.355 201.65ZM170.355 8.79999L171.062 9.5071L171.072 9.497L171.082 9.48661L170.355 8.79999ZM202.555 8.79999L201.828 9.48661L201.838 9.497L201.848 9.50709L202.555 8.79999ZM182.255 227.9L182.962 228.607L182.967 228.602L182.255 227.9ZM105.605 253.15C103.256 253.15 100.947 253.108 98.6789 253.023L98.6042 255.021C100.899 255.107 103.232 255.15 105.605 255.15V253.15ZM84.8942 251.926C80.1584 251.334 75.6273 250.526 71.3004 249.505L70.8409 251.451C75.2422 252.49 79.8441 253.31 84.6459 253.911L84.8942 251.926ZM58.1136 245.492C53.7049 243.816 49.5572 241.867 45.6695 239.644L44.6767 241.38C48.6594 243.657 52.9019 245.651 57.403 247.362L58.1136 245.492ZM34.3843 231.824C32.6227 230.356 30.9321 228.813 29.3124 227.193L27.8982 228.607C29.5607 230.27 31.296 231.854 33.104 233.361L34.3843 231.824ZM29.3124 227.193C27.6985 225.579 26.16 223.896 24.6969 222.143L23.1616 223.425C24.663 225.223 26.2419 226.951 27.8982 228.607L29.3124 227.193ZM16.8915 210.915C14.6677 207.044 12.7168 202.918 11.0396 198.534L9.17165 199.249C10.8842 203.725 12.8792 207.946 15.1573 211.911L16.8915 210.915ZM7.01634 185.409C5.99086 181.1 5.18025 176.589 4.58521 171.875L2.60096 172.125C3.20439 176.906 4.02739 181.488 5.07067 185.872L7.01634 185.409ZM3.48312 158.148C3.3979 155.888 3.35527 153.589 3.35527 151.25H1.35527C1.35527 153.613 1.39835 155.938 1.48454 158.223L3.48312 158.148ZM3.35527 151.25V143.353H1.35527V151.25H3.35527ZM3.35527 127.559V111.766H1.35527V127.559H3.35527ZM3.35527 95.9719V80.1781H1.35527V95.9719H3.35527ZM3.35527 64.3844V48.5906H1.35527V64.3844H3.35527ZM3.35527 32.7969V24.9H1.35527V32.7969H3.35527ZM3.35527 24.9C3.35527 23.407 3.4547 21.9908 3.65175 20.6503L1.67301 20.3594C1.46058 21.8045 1.35527 23.3184 1.35527 24.9H3.35527ZM6.42111 12.7728C7.15234 11.5922 8.01559 10.5039 9.01238 9.5071L7.59817 8.09288C6.49385 9.19721 5.53423 10.4064 4.72082 11.7197L6.42111 12.7728ZM9.03229 9.48661C10.0174 8.4436 11.0906 7.53953 12.2525 6.7723L11.1504 5.10336C9.85693 5.95749 8.66612 6.96152 7.57826 8.11337L9.03229 9.48661ZM20.1256 3.81925C21.4745 3.60709 22.9007 3.49999 24.4053 3.49999V1.49999C22.8059 1.49999 21.2754 1.61382 19.8149 1.84354L20.1256 3.81925ZM24.4053 3.49999C25.9099 3.49999 27.336 3.60709 28.6849 3.81925L28.9957 1.84354C27.5352 1.61382 26.0046 1.49999 24.4053 1.49999V3.49999ZM36.5581 6.7723C37.7199 7.53953 38.7932 8.4436 39.7783 9.48661L41.2323 8.11337C40.1444 6.96152 38.9536 5.95749 37.6602 5.10336L36.5581 6.7723ZM39.7982 9.5071C40.795 10.5039 41.6582 11.5922 42.3894 12.7728L44.0897 11.7197C43.2763 10.4064 42.3167 9.19721 41.2124 8.09288L39.7982 9.5071ZM45.1588 20.6503C45.3559 21.9908 45.4553 23.407 45.4553 24.9H47.4553C47.4553 23.3184 47.35 21.8045 47.1375 20.3594L45.1588 20.6503ZM45.4553 24.9V32.95H47.4553V24.9H45.4553ZM45.4553 49.05V65.15H47.4553V49.05H45.4553ZM45.4553 81.25V97.35H47.4553V81.25H45.4553ZM45.4553 113.45V129.55H47.4553V113.45H45.4553ZM45.4553 145.65V153.7H47.4553V145.65H45.4553ZM45.4553 153.7C45.4553 155.93 45.5102 158.104 45.6201 160.224L47.6174 160.12C47.5094 158.037 47.4553 155.897 47.4553 153.7H45.4553ZM47.107 173.205C47.9462 177.734 49.1064 181.947 50.5905 185.839L52.4593 185.127C51.0226 181.359 49.8931 177.264 49.0735 172.84L47.107 173.205ZM56.6573 197.507C57.9203 199.338 59.2903 201.06 60.7675 202.675L62.2431 201.325C60.8287 199.779 59.5155 198.128 58.3035 196.371L56.6573 197.507ZM60.7748 202.683C62.1858 204.192 63.6876 205.598 65.2798 206.901L66.546 205.352C65.023 204.107 63.5864 202.762 62.2358 201.317L60.7748 202.683ZM75.7398 213.385C79.3247 215.027 83.2084 216.313 87.3878 217.245L87.8234 215.293C83.7685 214.388 80.0193 213.145 76.5727 211.567L75.7398 213.385ZM99.5014 218.915C101.484 219.038 103.519 219.1 105.605 219.1V217.1C103.558 217.1 101.565 217.039 99.6259 216.919L99.5014 218.915ZM105.605 219.1C107.685 219.1 109.714 219.036 111.691 218.907L111.561 216.911C109.63 217.037 107.644 217.1 105.605 217.1V219.1ZM123.758 217.175C127.905 216.212 131.762 214.885 135.326 213.193L134.468 211.387C131.044 213.012 127.325 214.293 123.306 215.227L123.758 217.175ZM145.657 206.582C147.222 205.266 148.701 203.847 150.093 202.325L148.617 200.975C147.283 202.433 145.868 203.792 144.37 205.051L145.657 206.582ZM150.093 202.325C151.562 200.72 152.924 199.01 154.181 197.196L152.537 196.057C151.331 197.798 150.024 199.437 148.617 200.975L150.093 202.325ZM160.243 185.622C161.733 181.753 162.898 177.571 163.741 173.078L161.776 172.709C160.952 177.095 159.818 181.159 158.376 184.903L160.243 185.622ZM165.239 160.182C165.35 158.076 165.405 155.915 165.405 153.7H163.405C163.405 155.882 163.351 158.007 163.242 160.077L165.239 160.182ZM165.405 153.7V145.65H163.405V153.7H165.405ZM165.405 129.55V113.45H163.405V129.55H165.405ZM165.405 97.35V81.25H163.405V97.35H165.405ZM165.405 65.15V49.05H163.405V65.15H165.405ZM165.405 32.95V24.9H163.405V32.95H165.405ZM165.405 24.9C165.405 23.407 165.505 21.9908 165.702 20.6503L163.723 20.3594C163.511 21.8045 163.405 23.3184 163.405 24.9H165.405ZM168.471 12.7728C169.202 11.5922 170.066 10.5039 171.062 9.5071L169.648 8.09288C168.544 9.1972 167.584 10.4064 166.771 11.7197L168.471 12.7728ZM171.082 9.48661C172.067 8.4436 173.141 7.53952 174.302 6.77229L173.2 5.10335C171.907 5.95748 170.716 6.96152 169.628 8.11337L171.082 9.48661ZM182.176 3.81925C183.525 3.60709 184.951 3.49999 186.455 3.49999V1.49999C184.856 1.49999 183.325 1.61382 181.865 1.84354L182.176 3.81925ZM186.455 3.49999C187.96 3.49999 189.386 3.60709 190.735 3.81925L191.046 1.84354C189.585 1.61382 188.055 1.49999 186.455 1.49999V3.49999ZM198.608 6.7723C199.77 7.53953 200.843 8.4436 201.828 9.48661L203.282 8.11337C202.194 6.96152 201.004 5.95749 199.71 5.10336L198.608 6.7723ZM201.848 9.50709C202.845 10.5039 203.708 11.5922 204.439 12.7728L206.14 11.7197C205.326 10.4064 204.367 9.19721 203.262 8.09288L201.848 9.50709ZM207.209 20.6503C207.406 21.9908 207.505 23.407 207.505 24.9H209.505C209.505 23.3184 209.4 21.8045 209.188 20.3594L207.209 20.6503ZM207.505 24.9V32.7969H209.505V24.9H207.505ZM207.505 48.5906V64.3844H209.505V48.5906H207.505ZM207.505 80.1781V95.9719H209.505V80.1781H207.505ZM207.505 111.766V127.559H209.505V111.766H207.505ZM207.505 143.353V151.25H209.505V143.353H207.505ZM207.505 151.25C207.505 153.587 207.462 155.886 207.376 158.145L209.374 158.221C209.462 155.936 209.505 153.612 209.505 151.25H207.505ZM206.262 171.863C205.661 176.57 204.844 181.078 203.81 185.389L205.755 185.856C206.806 181.47 207.637 176.89 208.246 172.117L206.262 171.863ZM199.767 198.502C198.087 202.875 196.134 207 193.91 210.878L195.645 211.873C197.923 207.902 199.919 203.684 201.634 199.22L199.767 198.502ZM186.131 222.123C184.676 223.881 183.147 225.573 181.544 227.198L182.967 228.602C184.612 226.936 186.18 225.201 187.672 223.398L186.131 222.123ZM181.548 227.193C179.934 228.807 178.251 230.345 176.498 231.808L177.78 233.344C179.579 231.842 181.306 230.263 182.962 228.607L181.548 227.193ZM165.27 239.614C161.399 241.838 157.273 243.788 152.889 245.466L153.604 247.334C158.08 245.621 162.301 243.626 166.267 241.348L165.27 239.614ZM139.764 249.489C135.455 250.514 130.944 251.325 126.23 251.92L126.481 253.904C131.261 253.301 135.843 252.478 140.227 251.435L139.764 249.489ZM112.503 253.022C110.244 253.107 107.944 253.15 105.605 253.15V255.15C107.969 255.15 110.293 255.107 112.579 255.021L112.503 253.022ZM28.6053 227.9L27.1911 229.314L27.1911 229.314L28.6053 227.9ZM8.30527 8.79999L9.71949 10.2142L9.73969 10.194L9.7593 10.1732L8.30527 8.79999ZM40.5053 8.79999L39.0513 10.1732L39.0709 10.194L39.0911 10.2142L40.5053 8.79999ZM61.5053 202L60.0297 203.35L60.0369 203.358L60.0442 203.366L61.5053 202ZM149.355 201.65L147.88 200.3L147.88 200.3L149.355 201.65ZM170.355 8.79999L171.77 10.2142L171.79 10.194L171.809 10.1732L170.355 8.79999ZM202.555 8.79999L201.101 10.1732L201.121 10.194L201.141 10.2142L202.555 8.79999ZM182.255 227.9L183.67 229.314L183.679 229.305L182.255 227.9ZM105.605 252.15C103.268 252.15 100.972 252.108 98.7162 252.024L98.5669 256.021C100.874 256.107 103.22 256.15 105.605 256.15V252.15ZM85.0183 250.934C80.3155 250.346 75.8198 249.544 71.5301 248.532L70.6111 252.425C75.0497 253.472 79.6869 254.298 84.5217 254.903L85.0183 250.934ZM58.4689 244.557C54.1064 242.899 50.0061 240.971 46.1658 238.776L44.1803 242.248C48.2105 244.552 52.5004 246.568 57.0477 248.296L58.4689 244.557ZM35.0245 231.056C33.2861 229.608 31.6178 228.084 30.0195 226.486L27.1911 229.314C28.875 230.998 30.6326 232.603 32.4638 234.129L35.0245 231.056ZM30.0195 226.486C28.4268 224.893 26.9085 223.232 25.4646 221.502L22.3939 224.066C23.9146 225.887 25.5136 227.637 27.1911 229.314L30.0195 226.486ZM17.7586 210.417C15.562 206.593 13.6331 202.514 11.9735 198.177L8.23768 199.606C9.96796 204.128 11.9849 208.397 14.2902 212.409L17.7586 210.417ZM7.98917 185.178C6.9726 180.906 6.16818 176.43 5.57734 171.75L1.60883 172.251C2.21646 177.064 3.04566 181.682 4.09784 186.104L7.98917 185.178ZM4.4824 158.11C4.39768 155.864 4.35527 153.577 4.35527 151.25H0.355275C0.355275 153.626 0.398567 155.963 0.485246 158.261L4.4824 158.11ZM4.35527 151.25V143.353H0.355275V151.25H4.35527ZM4.35527 127.559V111.766H0.355275V127.559H4.35527ZM4.35527 95.9719V80.1781H0.355275V95.9719H4.35527ZM4.35527 64.3844V48.5906H0.355275V64.3844H4.35527ZM4.35527 32.7969V24.9H0.355275V32.7969H4.35527ZM4.35527 24.9C4.35527 23.4512 4.45176 22.0839 4.64111 20.7957L0.683642 20.214C0.463527 21.7114 0.355275 23.2741 0.355275 24.9H4.35527ZM7.27125 13.2994C7.96139 12.1851 8.77647 11.1572 9.71949 10.2142L6.89106 7.38578C5.73297 8.54387 4.72517 9.81352 3.87067 11.1932L7.27125 13.2994ZM9.7593 10.1732C10.693 9.18464 11.7075 8.33055 12.8035 7.60677L10.5993 4.26889C9.24008 5.16647 7.9905 6.22048 6.85125 7.42674L9.7593 10.1732ZM20.281 4.80711C21.5741 4.60372 22.948 4.49999 24.4053 4.49999V0.499987C22.7586 0.499987 21.1758 0.617188 19.6595 0.855686L20.281 4.80711ZM24.4053 4.49999C25.8625 4.49999 27.2365 4.60372 28.5295 4.80711L29.151 0.855686C27.6347 0.617189 26.052 0.499987 24.4053 0.499987V4.49999ZM36.007 7.60677C37.1031 8.33055 38.1176 9.18465 39.0513 10.1732L41.9593 7.42674C40.8201 6.22048 39.5705 5.16647 38.2113 4.26889L36.007 7.60677ZM39.0911 10.2142C40.0341 11.1572 40.8492 12.1851 41.5393 13.2994L44.9399 11.1932C44.0854 9.81352 43.0776 8.54387 41.9195 7.38578L39.0911 10.2142ZM44.1694 20.7957C44.3588 22.0839 44.4553 23.4512 44.4553 24.9H48.4553C48.4553 23.2741 48.347 21.7114 48.1269 20.214L44.1694 20.7957ZM44.4553 24.9V32.95H48.4553V24.9H44.4553ZM44.4553 49.05V65.15H48.4553V49.05H44.4553ZM44.4553 81.25V97.35H48.4553V81.25H44.4553ZM44.4553 113.45V129.55H48.4553V113.45H44.4553ZM44.4553 145.65V153.7H48.4553V145.65H44.4553ZM44.4553 153.7C44.4553 155.946 44.5106 158.138 44.6215 160.276L48.6161 160.069C48.509 158.003 48.4553 155.88 48.4553 153.7H44.4553ZM46.1237 173.387C46.9727 177.969 48.1483 182.241 49.6561 186.196L53.3937 184.771C51.9807 181.065 50.8665 177.029 50.0568 172.658L46.1237 173.387ZM55.8342 198.075C57.1227 199.943 58.5211 201.701 60.0297 203.35L62.9809 200.65C61.5978 199.138 60.313 197.523 59.1266 195.804L55.8342 198.075ZM60.0442 203.366C61.4856 204.908 63.0199 206.344 64.6467 207.675L67.1791 204.578C65.6908 203.361 64.2866 202.047 62.9663 200.634L60.0442 203.366ZM75.3234 214.294C78.9775 215.968 82.9284 217.275 87.17 218.221L88.0412 214.317C84.0485 213.426 80.3666 212.204 76.9891 210.657L75.3234 214.294ZM99.4391 219.913C101.443 220.038 103.499 220.1 105.605 220.1V216.1C103.578 216.1 101.605 216.04 99.6881 215.92L99.4391 219.913ZM105.605 220.1C107.706 220.1 109.756 220.035 111.756 219.905L111.496 215.914C109.587 216.038 107.624 216.1 105.605 216.1V220.1ZM123.984 218.149C128.196 217.171 132.121 215.822 135.755 214.097L134.039 210.483C130.686 212.076 127.034 213.334 123.079 214.253L123.984 218.149ZM146.301 207.347C147.899 206.003 149.409 204.554 150.831 203L147.88 200.3C146.575 201.726 145.19 203.055 143.726 204.286L146.301 207.347ZM150.831 203C152.33 201.361 153.721 199.616 155.003 197.766L151.715 195.487C150.534 197.192 149.256 198.796 147.88 200.3L150.831 203ZM161.176 185.981C162.69 182.05 163.871 177.809 164.724 173.263L160.793 172.525C159.979 176.857 158.861 180.862 157.443 184.544L161.176 185.981ZM166.238 160.235C166.349 158.11 166.405 155.932 166.405 153.7H162.405C162.405 155.865 162.351 157.973 162.243 160.025L166.238 160.235ZM166.405 153.7V145.65H162.405V153.7H166.405ZM166.405 129.55V113.45H162.405V129.55H166.405ZM166.405 97.35V81.25H162.405V97.35H166.405ZM166.405 65.15V49.05H162.405V65.15H166.405ZM166.405 32.95V24.9H162.405V32.95H166.405ZM166.405 24.9C166.405 23.4512 166.502 22.0839 166.691 20.7957L162.734 20.214C162.514 21.7114 162.405 23.2741 162.405 24.9H166.405ZM169.321 13.2994C170.011 12.1851 170.826 11.1572 171.77 10.2142L168.941 7.38578C167.783 8.54386 166.775 9.81352 165.921 11.1932L169.321 13.2994ZM171.809 10.1732C172.743 9.18464 173.757 8.33054 174.854 7.60676L172.649 4.26888C171.29 5.16646 170.041 6.22048 168.901 7.42674L171.809 10.1732ZM182.331 4.80711C183.624 4.60372 184.998 4.49999 186.455 4.49999V0.499987C184.809 0.499987 183.226 0.617188 181.71 0.855685L182.331 4.80711ZM186.455 4.49999C187.913 4.49999 189.286 4.60372 190.58 4.80711L191.201 0.855686C189.685 0.617189 188.102 0.499987 186.455 0.499987V4.49999ZM198.057 7.60677C199.153 8.33055 200.168 9.18465 201.101 10.1732L204.009 7.42674C202.87 6.22048 201.62 5.16647 200.261 4.26889L198.057 7.60677ZM201.141 10.2142C202.084 11.1572 202.899 12.1851 203.589 13.2994L206.99 11.1932C206.135 9.81353 205.128 8.54387 203.97 7.38578L201.141 10.2142ZM206.219 20.7957C206.409 22.0839 206.505 23.4512 206.505 24.9H210.505C210.505 23.2741 210.397 21.7114 210.177 20.214L206.219 20.7957ZM206.505 24.9V32.7969H210.505V24.9H206.505ZM206.505 48.5906V64.3844H210.505V48.5906H206.505ZM206.505 80.1781V95.9719H210.505V80.1781H206.505ZM206.505 111.766V127.559H210.505V111.766H206.505ZM206.505 143.353V151.25H210.505V143.353H206.505ZM206.505 151.25C206.505 153.575 206.462 155.861 206.377 158.107L210.374 158.259C210.461 155.961 210.505 153.624 210.505 151.25H206.505ZM205.27 171.737C204.674 176.41 203.862 180.883 202.837 185.156L206.727 186.089C207.788 181.666 208.624 177.05 209.238 172.243L205.27 171.737ZM198.833 198.144C197.171 202.471 195.24 206.549 193.042 210.38L196.512 212.371C198.817 208.353 200.834 204.088 202.567 199.578L198.833 198.144ZM185.361 221.485C183.925 223.221 182.415 224.891 180.832 226.495L183.679 229.305C185.344 227.618 186.932 225.861 188.442 224.036L185.361 221.485ZM180.841 226.486C179.248 228.079 177.587 229.597 175.858 231.041L178.421 234.111C180.243 232.591 181.992 230.992 183.669 229.314L180.841 226.486ZM164.772 238.747C160.949 240.943 156.869 242.872 152.532 244.532L153.961 248.268C158.483 246.537 162.752 244.52 166.765 242.215L164.772 238.747ZM139.533 248.516C135.261 249.533 130.785 250.337 126.105 250.928L126.606 254.896C131.419 254.289 136.037 253.46 140.459 252.407L139.533 248.516ZM112.466 252.023C110.219 252.108 107.932 252.15 105.605 252.15V256.15C107.981 256.15 110.318 256.107 112.616 256.02L112.466 252.023Z" fill="black"/>
</svg>
