<svg width="183" height="181" viewBox="0 0 183 181" fill="none" xmlns="http://www.w3.org/2000/svg">
<path d="M141.486 14.95C143.352 10.75 145.802 7.59999 148.836 5.5C152.102 3.4 155.602 2.35 159.336 2.35C164.702 2.35 169.486 4.21666 173.686 7.95C178.119 11.45 180.336 15.8833 180.336 21.25C180.336 24.05 179.636 26.85 178.236 29.65L113.486 165.1C111.386 169.533 108.352 172.917 104.386 175.25C100.652 177.583 96.4524 178.75 91.7857 178.75C87.3524 178.75 83.0357 177.583 78.8357 175.25C74.8691 172.917 71.8357 169.533 69.7357 165.1L4.63574 29.65C3.46908 27.3167 2.88574 24.6333 2.88574 21.6C2.88574 16.2333 5.10241 11.6833 9.53574 7.95C14.2024 4.21666 19.4524 2.35 25.2857 2.35C33.6857 2.35 39.8691 6.43333 43.8357 14.6L92.8357 122.75L141.486 14.95Z" fill="#F5F5F5"/>
<path d="M141.486 14.95L142.397 15.3613L142.4 15.3561L141.486 14.95ZM148.836 5.5L148.295 4.65882L148.281 4.66807L148.267 4.6778L148.836 5.5ZM173.686 7.95L173.021 8.69741L173.043 8.7168L173.066 8.73488L173.686 7.95ZM178.236 29.65L177.341 29.2028L177.337 29.2107L177.334 29.2187L178.236 29.65ZM113.486 165.1L112.584 164.669L112.582 164.672L113.486 165.1ZM104.386 175.25L103.879 174.388L103.867 174.395L103.856 174.402L104.386 175.25ZM78.8357 175.25L78.3287 176.112L78.3393 176.118L78.3501 176.124L78.8357 175.25ZM69.7357 165.1L70.6395 164.672L70.637 164.667L69.7357 165.1ZM4.63574 29.65L5.53705 29.2168L5.53366 29.2098L5.53017 29.2028L4.63574 29.65ZM9.53574 7.95L8.91105 7.16913L8.90123 7.17698L8.89161 7.18509L9.53574 7.95ZM43.8357 14.6L44.7466 14.1873L44.7411 14.1751L44.7353 14.1631L43.8357 14.6ZM92.8357 122.75L91.9249 123.163L92.8375 125.177L93.7472 123.161L92.8357 122.75ZM140.574 14.5386L137.534 21.2761L139.357 22.0988L142.397 15.3613L140.574 14.5386ZM131.452 34.7511L125.371 48.2261L127.194 49.0488L133.275 35.5738L131.452 34.7511ZM119.29 61.7011L113.209 75.1762L115.032 75.9989L121.113 62.5238L119.29 61.7011ZM107.127 88.6512L101.046 102.126L102.869 102.949L108.95 89.4739L107.127 88.6512ZM94.9649 115.601L91.9243 122.339L93.7472 123.161L96.7878 116.424L94.9649 115.601ZM93.7466 122.337L90.6841 115.578L88.8624 116.403L91.9249 123.163L93.7466 122.337ZM84.5591 102.059L78.4341 88.5404L76.6124 89.3658L82.7374 102.885L84.5591 102.059ZM72.3091 75.0217L66.1841 61.5029L64.3624 62.3283L70.4874 75.8471L72.3091 75.0217ZM60.0591 47.9842L53.9341 34.4654L52.1124 35.2908L58.2374 48.8096L60.0591 47.9842ZM47.8091 20.9467L44.7466 14.1873L42.9249 15.0127L45.9874 21.7721L47.8091 20.9467ZM44.7353 14.1631C43.7911 12.2192 42.7188 10.4869 41.5148 8.97194L39.949 10.2163C41.0509 11.6028 42.0478 13.2077 42.9362 15.0369L44.7353 14.1631ZM31.3874 2.13808C29.4827 1.61035 27.4472 1.35 25.2857 1.35V3.35C27.2861 3.35 29.1403 3.59083 30.8534 4.06546L31.3874 2.13808ZM25.2857 1.35C23.7817 1.35 22.3116 1.46972 20.8764 1.71013L21.2068 3.68265C22.5288 3.4612 23.8882 3.35 25.2857 3.35V1.35ZM12.5596 4.68244C11.3044 5.39805 10.0882 6.2274 8.91105 7.16913L10.1604 8.73087C11.26 7.85124 12.3899 7.08137 13.5502 6.41992L12.5596 4.68244ZM8.89161 7.18509C7.8026 8.10214 6.83597 9.07173 5.99468 10.0948L7.53947 11.3651C8.29699 10.4439 9.17613 9.56017 10.1799 8.71491L8.89161 7.18509ZM2.33159 17.4826C2.03352 18.8061 1.88574 20.1793 1.88574 21.6H3.88574C3.88574 20.3188 4.01891 19.0934 4.28272 17.922L2.33159 17.4826ZM1.88574 21.6C1.88574 22.3411 1.91915 23.0647 1.98642 23.7704L3.9774 23.5806C3.91644 22.9411 3.88574 22.281 3.88574 21.6H1.88574ZM2.88902 28.0568C3.12957 28.7615 3.4136 29.4418 3.74132 30.0972L5.53017 29.2028C5.24341 28.6293 4.99388 28.0321 4.78178 27.4107L2.88902 28.0568ZM3.73444 30.0832L6.98944 36.8557L8.79205 35.9893L5.53705 29.2168L3.73444 30.0832ZM13.4994 50.4007L20.0094 63.9457L21.812 63.0793L15.302 49.5343L13.4994 50.4007ZM26.5194 77.4907L33.0294 91.0357L34.832 90.1693L28.322 76.6243L26.5194 77.4907ZM39.5394 104.581L46.0494 118.126L47.8521 117.259L41.342 103.714L39.5394 104.581ZM52.5594 131.671L59.0694 145.216L60.8721 144.349L54.362 130.804L52.5594 131.671ZM65.5794 158.761L68.8344 165.533L70.637 164.667L67.3821 157.894L65.5794 158.761ZM68.832 165.528C69.3563 166.635 69.9381 167.682 70.5781 168.667L72.2555 167.578C71.6663 166.671 71.1275 165.702 70.6395 164.672L68.832 165.528ZM75.365 174.046C76.2913 174.806 77.2794 175.495 78.3287 176.112L79.3428 174.388C78.3811 173.822 77.4782 173.193 76.6334 172.5L75.365 174.046ZM78.3501 176.124C79.391 176.702 80.441 177.212 81.5001 177.653L82.269 175.807C81.282 175.396 80.2995 174.919 79.3214 174.376L78.3501 176.124ZM88.2701 179.512C89.4343 179.671 90.6063 179.75 91.7857 179.75V177.75C90.6964 177.75 89.6148 177.677 88.5407 177.53L88.2701 179.512ZM91.7857 179.75C92.9551 179.75 94.099 179.679 95.217 179.537L94.9648 177.553C93.9339 177.684 92.8744 177.75 91.7857 177.75V179.75ZM101.861 177.714C102.912 177.253 103.93 176.714 104.916 176.098L103.856 174.402C102.951 174.968 102.018 175.461 101.058 175.883L101.861 177.714ZM104.893 176.112C105.942 175.495 106.93 174.806 107.857 174.046L106.588 172.5C105.743 173.193 104.84 173.822 103.879 174.388L104.893 176.112ZM112.643 168.667C113.283 167.682 113.865 166.635 114.389 165.528L112.582 164.672C112.094 165.702 111.555 166.671 110.966 167.578L112.643 168.667ZM114.388 165.531L117.625 158.759L115.821 157.896L112.584 164.669L114.388 165.531ZM124.1 145.214L130.575 131.669L128.771 130.806L122.296 144.351L124.1 145.214ZM137.05 118.124L143.525 104.579L141.721 103.716L135.246 117.261L137.05 118.124ZM150 91.0338L156.475 77.4888L154.671 76.6262L148.196 90.1712L150 91.0338ZM162.95 63.9438L169.425 50.3988L167.621 49.5362L161.146 63.0812L162.95 63.9438ZM175.9 36.8538L179.138 30.0813L177.334 29.2187L174.096 35.9912L175.9 36.8538ZM179.13 30.0972C179.477 29.4027 179.784 28.7061 180.051 28.0076L178.182 27.2955C177.94 27.9293 177.66 28.565 177.341 29.2028L179.13 30.0972ZM181.186 23.5569C181.286 22.7885 181.336 22.0195 181.336 21.25H179.336C179.336 21.9327 179.291 22.6159 179.203 23.2997L181.186 23.5569ZM181.336 21.25C181.336 19.8475 181.192 18.4976 180.901 17.2025L178.949 17.641C179.206 18.7828 179.336 19.985 179.336 21.25H181.336ZM177.234 9.95729C176.384 8.96519 175.407 8.03486 174.305 7.16511L173.066 8.73488C174.075 9.53124 174.957 10.3728 175.715 11.2583L177.234 9.95729ZM174.35 7.20259C173.299 6.26826 172.209 5.44326 171.08 4.72933L170.011 6.41986C171.043 7.07238 172.047 7.83099 173.021 8.69741L174.35 7.20259ZM163.438 1.71746C162.105 1.47208 160.738 1.35 159.336 1.35V3.35C160.621 3.35 161.867 3.46187 163.075 3.68438L163.438 1.71746ZM159.336 1.35C158.35 1.35 157.379 1.41964 156.421 1.55934L156.71 3.53838C157.57 3.41293 158.445 3.35 159.336 3.35V1.35ZM150.839 3.24725C149.974 3.65363 149.126 4.12442 148.295 4.65882L149.377 6.34118C150.137 5.85251 150.908 5.42483 151.69 5.05736L150.839 3.24725ZM148.267 4.6778C147.399 5.2785 146.578 5.95898 145.805 6.71809L147.205 8.14559C147.901 7.46354 148.634 6.85613 149.405 6.32219L148.267 4.6778ZM141.984 11.7479C141.48 12.6267 141.01 13.5589 140.572 14.5439L142.4 15.3561C142.812 14.4289 143.252 13.5578 143.719 12.7421L141.984 11.7479ZM141.486 14.95L143.309 15.7727L143.313 15.7623L141.486 14.95ZM148.836 5.5L147.754 3.81764L147.725 3.83614L147.697 3.85561L148.836 5.5ZM173.686 7.95L172.357 9.44482L172.401 9.48359L172.446 9.51976L173.686 7.95ZM178.236 29.65L176.447 28.7556L176.439 28.7714L176.431 28.7874L178.236 29.65ZM113.486 165.1L111.681 164.237L111.678 164.244L113.486 165.1ZM104.386 175.25L103.372 173.526L103.349 173.54L103.326 173.554L104.386 175.25ZM78.8357 175.25L77.8217 176.974L77.8429 176.986L77.8645 176.998L78.8357 175.25ZM69.7357 165.1L71.5432 164.244L71.5384 164.234L69.7357 165.1ZM4.63574 29.65L6.43835 28.7836L6.43158 28.7695L6.4246 28.7556L4.63574 29.65ZM9.53574 7.95L8.28635 6.38826L8.26671 6.40397L8.24747 6.42017L9.53574 7.95ZM43.8357 14.6L45.6575 13.7746L45.6464 13.7502L45.6348 13.7262L43.8357 14.6ZM92.8357 122.75L91.014 123.575L92.8393 127.604L94.6587 123.573L92.8357 122.75ZM139.663 14.1273L136.622 20.8648L140.268 22.5102L143.309 15.7727L139.663 14.1273ZM130.541 34.3398L124.46 47.8148L128.106 49.4602L134.187 35.9852L130.541 34.3398ZM118.378 61.2898L112.297 74.7648L115.943 76.4102L122.024 62.9352L118.378 61.2898ZM106.216 88.2398L100.135 101.715L103.781 103.36L109.862 89.8852L106.216 88.2398ZM94.0534 115.19L91.0128 121.927L94.6587 123.573L97.6993 116.835L94.0534 115.19ZM94.6575 121.925L91.595 115.165L87.9515 116.816L91.014 123.575L94.6575 121.925ZM85.47 101.646L79.345 88.1277L75.7015 89.7785L81.8265 103.297L85.47 101.646ZM73.22 74.609L67.095 61.0902L63.4515 62.741L69.5765 76.2598L73.22 74.609ZM60.97 47.5715L54.845 34.0527L51.2015 35.7035L57.3265 49.2223L60.97 47.5715ZM48.72 20.534L45.6575 13.7746L42.014 15.4254L45.0765 22.1848L48.72 20.534ZM45.6348 13.7262C44.6627 11.7249 43.5527 9.92897 42.2977 8.34978L39.1662 10.8384C40.217 12.1607 41.1761 13.702 42.0367 15.4738L45.6348 13.7262ZM31.6544 1.17438C29.6539 0.620108 27.5278 0.349995 25.2857 0.349995V4.35C27.2055 4.35 28.9691 4.58106 30.5864 5.02915L31.6544 1.17438ZM25.2857 0.349995C23.7284 0.349995 22.203 0.473976 20.7112 0.723873L21.372 4.66891C22.6374 4.45695 23.9415 4.35 25.2857 4.35V0.349995ZM12.0644 3.81369C10.7616 4.5564 9.50233 5.41547 8.28635 6.38826L10.7851 9.51173C11.8458 8.66316 12.9327 7.92303 14.0454 7.28867L12.0644 3.81369ZM8.24747 6.42017C7.11584 7.37313 6.10546 8.38564 5.22229 9.45966L8.31186 12.0002C9.02749 11.13 9.8629 10.2892 10.824 9.47982L8.24747 6.42017ZM1.35603 17.2629C1.04083 18.6625 0.885742 20.1095 0.885742 21.6H4.88574C4.88574 20.3885 5.0116 19.2371 5.25829 18.1417L1.35603 17.2629ZM0.885742 21.6C0.885742 22.3711 0.920506 23.1264 0.990934 23.8653L4.97289 23.4857C4.91509 22.8794 4.88574 22.251 4.88574 21.6H0.885742ZM1.94264 28.3799C2.19741 29.1262 2.4987 29.848 2.84689 30.5444L6.4246 28.7556C6.15832 28.223 5.92604 27.6673 5.72816 27.0877L1.94264 28.3799ZM2.83313 30.5164L6.08813 37.2889L9.69335 35.5561L6.43835 28.7836L2.83313 30.5164ZM12.5981 50.8339L19.1081 64.3789L22.7134 62.6461L16.2034 49.1011L12.5981 50.8339ZM25.6181 77.9239L32.1281 91.4689L35.7334 89.7361L29.2234 76.1911L25.6181 77.9239ZM38.6381 105.014L45.1481 118.559L48.7534 116.826L42.2434 103.281L38.6381 105.014ZM51.6581 132.104L58.1681 145.649L61.7734 143.916L55.2634 130.371L51.6581 132.104ZM64.6781 159.194L67.9331 165.966L71.5384 164.234L68.2834 157.461L64.6781 159.194ZM67.9283 165.956C68.4707 167.101 69.0741 168.187 69.7394 169.212L73.0942 167.033C72.5304 166.165 72.013 165.236 71.5432 164.244L67.9283 165.956ZM74.7308 174.82C75.6978 175.613 76.7286 176.331 77.8217 176.974L79.8498 173.526C78.9319 172.986 78.0716 172.386 77.2676 171.727L74.7308 174.82ZM77.8645 176.998C78.9368 177.594 80.0205 178.121 81.1156 178.577L82.6534 174.884C81.7025 174.488 80.7537 174.028 79.807 173.502L77.8645 176.998ZM88.1349 180.502C89.3441 180.668 90.5612 180.75 91.7857 180.75V176.75C90.7414 176.75 89.705 176.68 88.6759 176.539L88.1349 180.502ZM91.7857 180.75C92.9955 180.75 94.1816 180.677 95.3431 180.529L94.8387 176.561C93.8514 176.687 92.834 176.75 91.7857 176.75V180.75ZM102.263 178.63C103.359 178.149 104.42 177.587 105.446 176.946L103.326 173.554C102.461 174.094 101.571 174.565 100.656 174.967L102.263 178.63ZM105.4 176.974C106.493 176.331 107.524 175.613 108.491 174.82L105.954 171.727C105.15 172.386 104.29 172.986 103.372 173.526L105.4 176.974ZM113.482 169.212C114.147 168.187 114.751 167.101 115.293 165.956L111.678 164.244C111.208 165.236 110.691 166.165 110.127 167.033L113.482 169.212ZM115.29 165.963L118.528 159.19L114.919 157.465L111.681 164.237L115.29 165.963ZM125.003 145.645L131.478 132.1L127.869 130.375L121.394 143.92L125.003 145.645ZM137.953 118.555L144.428 105.01L140.819 103.285L134.344 116.83L137.953 118.555ZM150.903 91.4651L157.378 77.9201L153.769 76.1949L147.294 89.7399L150.903 91.4651ZM163.853 64.3751L170.328 50.8301L166.719 49.1049L160.244 62.6499L163.853 64.3751ZM176.803 37.2851L180.04 30.5126L176.431 28.7874L173.194 35.5599L176.803 37.2851ZM180.025 30.5444C180.386 29.8215 180.707 29.0946 180.985 28.3637L177.247 26.9394C177.018 27.5408 176.752 28.1462 176.447 28.7556L180.025 30.5444ZM182.178 23.6855C182.283 22.8748 182.336 22.0628 182.336 21.25H178.336C178.336 21.8894 178.294 22.5296 178.211 23.1712L182.178 23.6855ZM182.336 21.25C182.336 19.7787 182.185 18.355 181.876 16.9832L177.974 17.8602C178.213 18.9254 178.336 20.0538 178.336 21.25H182.336ZM177.994 9.3068C177.098 8.2614 176.073 7.28667 174.925 6.38023L172.446 9.51976C173.409 10.2794 174.243 11.0766 174.956 11.9088L177.994 9.3068ZM175.014 6.45518C173.925 5.48689 172.792 4.6287 171.614 3.88406L169.477 7.26512C170.46 7.88694 171.421 8.61235 172.357 9.44482L175.014 6.45518ZM163.619 0.733999C162.224 0.477181 160.796 0.349995 159.336 0.349995V4.35C160.563 4.35 161.748 4.45676 162.894 4.66784L163.619 0.733999ZM159.336 0.349995C158.303 0.349995 157.283 0.422989 156.277 0.569816L156.855 4.5279C157.666 4.40958 158.492 4.35 159.336 4.35V0.349995ZM150.414 2.34219C149.508 2.76803 148.621 3.26037 147.754 3.81764L149.917 7.18235C150.642 6.71656 151.374 6.31044 152.115 5.96241L150.414 2.34219ZM147.697 3.85561C146.781 4.48968 145.917 5.2067 145.104 6.00434L147.906 8.85934C148.562 8.21582 149.251 7.64494 149.974 7.14438L147.697 3.85561ZM141.116 11.2508C140.594 12.1611 140.109 13.1238 139.658 14.1377L143.313 15.7623C143.713 14.864 144.137 14.0234 144.587 13.2391L141.116 11.2508Z" fill="black"/>
</svg>
