<svg width="250" height="256" viewBox="0 0 250 256" fill="none" xmlns="http://www.w3.org/2000/svg">
<path d="M205.723 14.05C209.457 6.11666 215.64 2.14999 224.273 2.14999C230.107 2.14999 235.357 4.01665 240.023 7.74998C244.69 11.4833 247.023 16.15 247.023 21.75C247.023 24.3167 246.323 27.2333 244.923 30.5L147.973 239.1C145.873 243.533 142.607 247.033 138.173 249.6C133.973 251.933 129.423 253.1 124.523 253.1C119.623 253.1 114.957 251.933 110.523 249.6C106.323 247.033 103.173 243.533 101.073 239.1L4.47324 30.5C3.07324 27.2333 2.37324 24.4333 2.37324 22.1C2.37324 16.2667 4.70658 11.4833 9.37324 7.74998C14.2732 4.01665 19.7566 2.14999 25.8232 2.14999C29.7899 2.14999 33.4066 3.19999 36.6732 5.29999C40.1732 7.16666 42.8566 10.0833 44.7232 14.05L125.223 192.9L205.723 14.05Z" fill="#F5F5F5"/>
<path d="M205.723 14.05L204.818 13.6242L204.815 13.6318L204.811 13.6395L205.723 14.05ZM240.023 7.74998L240.648 6.96911L240.648 6.96911L240.023 7.74998ZM244.923 30.5L245.83 30.9214L245.836 30.9078L245.842 30.8939L244.923 30.5ZM147.973 239.1L148.877 239.528L148.88 239.521L147.973 239.1ZM138.173 249.6L138.659 250.474L138.667 250.47L138.674 250.465L138.173 249.6ZM110.523 249.6L110.002 250.453L110.029 250.47L110.057 250.485L110.523 249.6ZM101.073 239.1L100.166 239.52L100.17 239.528L101.073 239.1ZM4.47324 30.5L3.5541 30.8939L3.55977 30.9071L3.56582 30.9202L4.47324 30.5ZM9.37324 7.74998L8.7672 6.95455L8.75779 6.96172L8.74855 6.96911L9.37324 7.74998ZM36.6732 5.29999L36.1325 6.14117L36.1667 6.16319L36.2027 6.18234L36.6732 5.29999ZM44.7232 14.05L45.6351 13.6395L45.6317 13.6318L45.6281 13.6242L44.7232 14.05ZM125.223 192.9L124.311 193.31L125.223 195.336L126.135 193.31L125.223 192.9ZM204.811 13.6395L201.936 20.027L203.76 20.8479L206.635 14.4604L204.811 13.6395ZM196.186 32.802L190.436 45.577L192.26 46.3979L198.01 33.6229L196.186 32.802ZM184.686 58.352L178.936 71.127L180.76 71.9479L186.51 59.1729L184.686 58.352ZM173.186 83.902L167.436 96.677L169.26 97.4979L175.01 84.7229L173.186 83.902ZM161.686 109.452L155.936 122.227L157.76 123.048L163.51 110.273L161.686 109.452ZM150.186 135.002L144.436 147.777L146.26 148.598L152.01 135.823L150.186 135.002ZM138.686 160.552L132.936 173.327L134.76 174.148L140.51 161.373L138.686 160.552ZM127.186 186.102L124.311 192.49L126.135 193.31L129.01 186.923L127.186 186.102ZM126.135 192.49L123.26 186.102L121.436 186.923L124.311 193.31L126.135 192.49ZM117.51 173.327L111.76 160.552L109.936 161.373L115.686 174.148L117.51 173.327ZM106.01 147.777L100.26 135.002L98.4364 135.823L104.186 148.598L106.01 147.777ZM94.5101 122.227L88.7601 109.452L86.9364 110.273L92.6864 123.048L94.5101 122.227ZM83.0101 96.6771L77.2601 83.9021L75.4364 84.7229L81.1864 97.4979L83.0101 96.6771ZM71.5101 71.1271L65.7601 58.352L63.9364 59.1729L69.6864 71.9479L71.5101 71.1271ZM60.0101 45.577L54.2601 32.802L52.4364 33.6229L58.1864 46.3979L60.0101 45.577ZM48.5101 20.027L45.6351 13.6395L43.8114 14.4604L46.6864 20.8479L48.5101 20.027ZM45.6281 13.6242C45.1672 12.6448 44.6567 11.7231 44.096 10.8602L42.4189 11.95C42.9273 12.7322 43.394 13.5738 43.8184 14.4758L45.6281 13.6242ZM39.8235 6.15762C38.9863 5.50374 38.0928 4.92375 37.1438 4.41764L36.2027 6.18234C37.0512 6.63492 37.8476 7.1521 38.5925 7.73386L39.8235 6.15762ZM37.214 4.45881C36.3604 3.91005 35.4822 3.42865 34.5797 3.01527L33.7468 4.83362C34.5612 5.2066 35.3564 5.64223 36.1325 6.14117L37.214 4.45881ZM28.814 1.34867C27.8368 1.21601 26.8398 1.14999 25.8232 1.14999V3.14999C26.753 3.14999 27.6601 3.21036 28.5449 3.33049L28.814 1.34867ZM25.8232 1.14999C24.2672 1.14999 22.7451 1.26878 21.2576 1.50724L21.5742 3.48202C22.9532 3.26096 24.3693 3.14999 25.8232 3.14999V1.14999ZM12.6034 4.46291C11.2856 5.17906 10.0069 6.00999 8.7672 6.95455L9.97929 8.54541C11.1412 7.66012 12.3343 6.88543 13.5584 6.22017L12.6034 4.46291ZM8.74855 6.96911C7.57684 7.90648 6.53967 8.9126 5.6404 9.98859L7.17501 11.2712C7.98212 10.3054 8.92197 9.39162 9.99794 8.53085L8.74855 6.96911ZM1.8186 17.7782C1.5207 19.1591 1.37324 20.6004 1.37324 22.1H3.37324C3.37324 20.732 3.5077 19.4327 3.77363 18.1999L1.8186 17.7782ZM1.37324 22.1C1.37324 22.8412 1.43829 23.6163 1.56528 24.4241L3.54101 24.1135C3.42813 23.3954 3.37324 22.7247 3.37324 22.1H1.37324ZM2.73182 28.8114C2.97408 29.4862 3.2483 30.1804 3.5541 30.8939L5.39239 30.1061C5.101 29.4262 4.84172 28.7694 4.61416 28.1356L2.73182 28.8114ZM3.56582 30.9202L6.58457 37.4389L8.39942 36.5985L5.38067 30.0798L3.56582 30.9202ZM12.6221 50.4764L18.6596 63.5139L20.4744 62.6735L14.4369 49.636L12.6221 50.4764ZM24.6971 76.5515L30.7346 89.589L32.5494 88.7485L26.5119 75.711L24.6971 76.5515ZM36.7721 102.626L42.8096 115.664L44.6244 114.824L38.5869 101.786L36.7721 102.626ZM48.8471 128.701L54.8846 141.739L56.6994 140.899L50.6619 127.861L48.8471 128.701ZM60.9221 154.776L66.9596 167.814L68.7744 166.974L62.7369 153.936L60.9221 154.776ZM72.9971 180.851L79.0346 193.889L80.8494 193.049L74.8119 180.011L72.9971 180.851ZM85.0721 206.926L91.1096 219.964L92.9244 219.124L86.8869 206.086L85.0721 206.926ZM97.1471 233.001L100.166 239.52L101.981 238.68L98.9619 232.161L97.1471 233.001ZM100.17 239.528C100.709 240.667 101.316 241.749 101.992 242.772L103.661 241.671C103.039 240.728 102.478 239.729 101.977 238.672L100.17 239.528ZM106.968 248.3C107.915 249.078 108.926 249.796 110.002 250.453L111.045 248.747C110.046 248.136 109.111 247.472 108.239 246.755L106.968 248.3ZM110.057 250.485C111.181 251.076 112.321 251.596 113.477 252.043L114.198 250.178C113.116 249.759 112.047 249.272 110.989 248.715L110.057 250.485ZM120.767 253.873C122.005 254.025 123.257 254.1 124.523 254.1V252.1C123.337 252.1 122.165 252.029 121.009 251.888L120.767 253.873ZM124.523 254.1C125.768 254.1 126.993 254.027 128.197 253.881L127.956 251.895C126.834 252.032 125.69 252.1 124.523 252.1V254.1ZM135.331 252.059C136.464 251.606 137.573 251.077 138.659 250.474L137.688 248.726C136.674 249.289 135.641 249.781 134.588 250.202L135.331 252.059ZM138.674 250.465C139.789 249.82 140.836 249.116 141.813 248.353L140.582 246.777C139.68 247.48 138.711 248.133 137.672 248.735L138.674 250.465ZM146.996 242.827C147.701 241.787 148.328 240.687 148.877 239.528L147.07 238.672C146.563 239.741 145.987 240.752 145.341 241.705L146.996 242.827ZM148.88 239.521L151.91 233.003L150.096 232.16L147.066 238.679L148.88 239.521ZM157.969 219.965L164.029 206.928L162.215 206.085L156.155 219.122L157.969 219.965ZM170.088 193.89L176.147 180.853L174.334 180.01L168.274 193.047L170.088 193.89ZM182.207 167.815L188.266 154.778L186.452 153.935L180.393 166.972L182.207 167.815ZM194.325 141.74L200.385 128.703L198.571 127.86L192.512 140.897L194.325 141.74ZM206.444 115.665L212.504 102.628L210.69 101.785L204.63 114.822L206.444 115.665ZM218.563 89.5902L224.622 76.5527L222.809 75.7098L216.749 88.7473L218.563 89.5902ZM230.682 63.5152L236.741 50.4777L234.927 49.6348L228.868 62.6723L230.682 63.5152ZM242.8 37.4402L245.83 30.9214L244.016 30.0785L240.987 36.5973L242.8 37.4402ZM245.842 30.8939C246.159 30.1547 246.442 29.4306 246.691 28.7217L244.803 28.0599C244.571 28.7231 244.305 29.4051 244.004 30.1061L245.842 30.8939ZM247.846 24.1481C247.964 23.3252 248.023 22.5256 248.023 21.75H246.023C246.023 22.4231 245.971 23.1278 245.866 23.8651L247.846 24.1481ZM248.023 21.75C248.023 20.2796 247.87 18.8628 247.561 17.5018L245.61 17.9452C245.885 19.1518 246.023 20.4193 246.023 21.75H248.023ZM243.706 9.90964C242.818 8.86889 241.798 7.8891 240.648 6.96911L239.399 8.53085C240.458 9.37866 241.386 10.2713 242.185 11.2076L243.706 9.90964ZM240.648 6.96911C239.471 6.02738 238.255 5.19804 236.999 4.48242L236.009 6.21991C237.169 6.88136 238.299 7.65123 239.399 8.53085L240.648 6.96911ZM228.683 1.51013C227.247 1.26971 225.777 1.14999 224.273 1.14999V3.14999C225.671 3.14999 227.03 3.2612 228.352 3.48265L228.683 1.51013ZM224.273 1.14999C222.123 1.14999 220.104 1.38765 218.221 1.86974L218.717 3.80726C220.42 3.37134 222.27 3.14999 224.273 3.14999V1.14999ZM208.016 8.44521C206.798 9.95027 205.734 11.6788 204.818 13.6242L206.628 14.4758C207.484 12.6576 208.466 11.0689 209.571 9.7031L208.016 8.44521ZM205.723 14.05L203.914 13.1984L203.906 13.2137L203.899 13.2291L205.723 14.05ZM240.023 7.74998L241.273 6.18825L241.273 6.18824L240.023 7.74998ZM244.923 30.5L246.737 31.3429L246.75 31.3156L246.762 31.2878L244.923 30.5ZM147.973 239.1L149.781 239.956L149.784 239.95L149.787 239.943L147.973 239.1ZM138.173 249.6L139.145 251.348L139.16 251.34L139.175 251.331L138.173 249.6ZM110.523 249.6L109.48 251.307L109.535 251.34L109.592 251.37L110.523 249.6ZM101.073 239.1L99.2584 239.94L99.2621 239.948L99.2658 239.956L101.073 239.1ZM4.47324 30.5L2.63495 31.2878L2.64629 31.3143L2.65839 31.3404L4.47324 30.5ZM9.37324 7.74998L8.16116 6.15912L8.14233 6.17346L8.12385 6.18825L9.37324 7.74998ZM36.6732 5.29999L35.5917 6.98235L35.6602 7.02638L35.7321 7.0647L36.6732 5.29999ZM44.7232 14.05L46.547 13.2291L46.5401 13.2137L46.5329 13.1984L44.7232 14.05ZM125.223 192.9L123.399 193.721L125.223 197.773L127.047 193.721L125.223 192.9ZM203.899 13.2291L201.024 19.6166L204.672 21.2584L207.547 14.8709L203.899 13.2291ZM195.274 32.3916L189.524 45.1666L193.172 46.8084L198.922 34.0334L195.274 32.3916ZM183.774 57.9416L178.024 70.7166L181.672 72.3584L187.422 59.5834L183.774 57.9416ZM172.274 83.4916L166.524 96.2666L170.172 97.9084L175.922 85.1334L172.274 83.4916ZM160.774 109.042L155.024 121.817L158.672 123.458L164.422 110.683L160.774 109.042ZM149.274 134.592L143.524 147.367L147.172 149.008L152.922 136.233L149.274 134.592ZM137.774 160.142L132.024 172.917L135.672 174.558L141.422 161.783L137.774 160.142ZM126.274 185.692L123.399 192.079L127.047 193.721L129.922 187.333L126.274 185.692ZM127.047 192.079L124.172 185.692L120.524 187.333L123.399 193.721L127.047 192.079ZM118.422 172.917L112.672 160.142L109.024 161.783L114.774 174.558L118.422 172.917ZM106.922 147.367L101.172 134.592L97.5245 136.233L103.274 149.008L106.922 147.367ZM95.422 121.817L89.672 109.042L86.0245 110.683L91.7745 123.458L95.422 121.817ZM83.922 96.2666L78.172 83.4916L74.5245 85.1334L80.2745 97.9084L83.922 96.2666ZM72.422 70.7166L66.672 57.9416L63.0245 59.5834L68.7745 72.3584L72.422 70.7166ZM60.922 45.1666L55.172 32.3916L51.5245 34.0334L57.2745 46.8084L60.922 45.1666ZM49.422 19.6166L46.547 13.2291L42.8995 14.8709L45.7745 21.2583L49.422 19.6166ZM46.5329 13.1984C46.0538 12.1803 45.5214 11.2186 44.9345 10.3153L41.5804 12.4949C42.0625 13.2368 42.5074 14.0384 42.9136 14.9016L46.5329 13.1984ZM40.439 5.3695C39.5556 4.67956 38.6136 4.06816 37.6144 3.53529L35.7321 7.0647C36.5305 7.49051 37.2782 7.97628 37.9769 8.52198L40.439 5.3695ZM37.7548 3.61764C36.8624 3.04395 35.9427 2.53967 34.9961 2.1061L33.3304 5.7428C34.1007 6.09557 34.8544 6.50833 35.5917 6.98235L37.7548 3.61764ZM28.9485 0.357756C27.9252 0.218837 26.8832 0.149991 25.8232 0.149991V4.14999C26.7096 4.14999 27.5717 4.20754 28.4104 4.3214L28.9485 0.357756ZM25.8232 0.149991C24.2161 0.149991 22.641 0.272698 21.0993 0.519845L21.7325 4.46942C23.0572 4.25704 24.4204 4.14999 25.8232 4.14999V0.149991ZM12.1258 3.58429C10.7613 4.32588 9.43978 5.18493 8.16116 6.15912L10.5853 9.34085C11.7084 8.48518 12.8586 7.73861 14.0359 7.09879L12.1258 3.58429ZM8.12385 6.18825C6.90428 7.16391 5.81845 8.21618 4.87309 9.34731L7.94231 11.9124C8.70334 11.0019 9.59454 10.1342 10.6226 9.31172L8.12385 6.18825ZM0.841089 17.5673C0.527206 19.0224 0.373242 20.5346 0.373242 22.1H4.37324C4.37324 20.7978 4.5012 19.5695 4.75115 18.4108L0.841089 17.5673ZM0.373242 22.1C0.373242 22.8994 0.443377 23.7268 0.577412 24.5794L4.52888 23.9582C4.42304 23.2849 4.37324 22.6665 4.37324 22.1H0.373242ZM1.79064 29.1494C2.04026 29.8446 2.32195 30.5575 2.63495 31.2878L6.31153 29.7121C6.02735 29.049 5.77554 28.411 5.55534 27.7977L1.79064 29.1494ZM2.65839 31.3404L5.67714 37.8592L9.30684 36.1783L6.28809 29.6595L2.65839 31.3404ZM11.7146 50.8967L17.7521 63.9342L21.3818 62.2533L15.3443 49.2158L11.7146 50.8967ZM23.7896 76.9717L29.8271 90.0092L33.4568 88.3283L27.4193 75.2908L23.7896 76.9717ZM35.8646 103.047L41.9022 116.084L45.5318 114.403L39.4943 101.366L35.8646 103.047ZM47.9397 129.122L53.9772 142.159L57.6068 140.478L51.5693 127.441L47.9397 129.122ZM60.0147 155.197L66.0522 168.234L69.6819 166.553L63.6444 153.516L60.0147 155.197ZM72.0897 181.272L78.1272 194.309L81.7569 192.628L75.7194 179.591L72.0897 181.272ZM84.1647 207.347L90.2022 220.384L93.8319 218.703L87.7944 205.666L84.1647 207.347ZM96.2397 233.422L99.2584 239.94L102.888 238.26L99.8694 231.741L96.2397 233.422ZM99.2658 239.956C99.8248 241.136 100.455 242.259 101.157 243.323L104.496 241.12C103.9 240.218 103.362 239.259 102.881 238.244L99.2658 239.956ZM106.333 249.072C107.317 249.881 108.366 250.626 109.48 251.307L111.566 247.893C110.606 247.307 109.709 246.67 108.874 245.983L106.333 249.072ZM109.592 251.37C110.749 251.979 111.923 252.514 113.116 252.976L114.559 249.245C113.514 248.841 112.479 248.369 111.455 247.83L109.592 251.37ZM120.646 254.866C121.925 255.022 123.217 255.1 124.523 255.1V251.1C123.377 251.1 122.246 251.032 121.13 250.896L120.646 254.866ZM124.523 255.1C125.807 255.1 127.072 255.025 128.318 254.874L127.836 250.903C126.755 251.034 125.651 251.1 124.523 251.1V255.1ZM135.702 252.987C136.875 252.518 138.023 251.971 139.145 251.348L137.202 247.852C136.225 248.395 135.23 248.868 134.217 249.274L135.702 252.987ZM139.175 251.331C140.328 250.663 141.413 249.934 142.428 249.141L139.966 245.988C139.103 246.663 138.172 247.29 137.171 247.869L139.175 251.331ZM147.824 243.388C148.558 242.305 149.21 241.161 149.781 239.956L146.166 238.244C145.681 239.268 145.13 240.234 144.513 241.144L147.824 243.388ZM149.787 239.943L152.817 233.424L149.189 231.738L146.16 238.257L149.787 239.943ZM158.876 220.387L164.935 207.349L161.308 205.663L155.249 218.701L158.876 220.387ZM170.995 194.312L177.054 181.274L173.427 179.588L167.367 192.626L170.995 194.312ZM183.114 168.237L189.173 155.199L185.546 153.513L179.486 166.551L183.114 168.237ZM195.232 142.162L201.292 129.124L197.664 127.438L191.605 140.476L195.232 142.162ZM207.351 116.087L213.41 103.049L209.783 101.363L203.724 114.401L207.351 116.087ZM219.47 90.0117L225.529 76.9742L221.902 75.2883L215.842 88.3258L219.47 90.0117ZM231.588 63.9367L237.648 50.8992L234.02 49.2133L227.961 62.2508L231.588 63.9367ZM243.707 37.8617L246.737 31.3429L243.11 29.657L240.08 36.1758L243.707 37.8617ZM246.762 31.2878C247.087 30.5295 247.378 29.7843 247.634 29.0526L243.86 27.729C243.635 28.3693 243.377 29.0304 243.085 29.7121L246.762 31.2878ZM248.836 24.2896C248.96 23.4239 249.023 22.5768 249.023 21.75H245.023C245.023 22.3718 244.975 23.0292 244.876 23.7236L248.836 24.2896ZM249.023 21.75C249.023 20.2097 248.863 18.7183 248.536 17.2801L244.635 18.1669C244.892 19.2963 245.023 20.4892 245.023 21.75H249.023ZM244.467 9.26063C243.535 8.16769 242.468 7.14432 241.273 6.18825L238.774 9.31172C239.789 10.1234 240.67 10.9725 241.424 11.8566L244.467 9.26063ZM241.273 6.18824C240.057 5.21546 238.797 4.35638 237.495 3.61368L235.514 7.08865C236.626 7.72302 237.713 8.46315 238.774 9.31172L241.273 6.18824ZM228.848 0.523867C227.356 0.273971 225.831 0.149991 224.273 0.149991V4.14999C225.618 4.14999 226.922 4.25694 228.187 4.4689L228.848 0.523867ZM224.273 0.149991C222.049 0.149991 219.946 0.395797 217.973 0.900972L218.965 4.77603C220.577 4.36319 222.344 4.14999 224.273 4.14999V0.149991ZM207.239 7.81626C205.965 9.39096 204.859 11.1894 203.914 13.1984L207.533 14.9016C208.359 13.147 209.3 11.6282 210.348 10.332L207.239 7.81626Z" fill="black"/>
</svg>
