<svg width="291" height="181" viewBox="0 0 291 181" fill="none" xmlns="http://www.w3.org/2000/svg">
<path d="M249.722 15.3C251.355 11.1 253.689 7.94999 256.722 5.84999C259.989 3.74999 263.489 2.69999 267.222 2.69999C272.589 2.69999 277.372 4.56666 281.572 8.29999C286.005 11.8 288.222 16.2333 288.222 21.6C288.222 24.6333 287.639 27.3167 286.472 29.65L228.722 165.1C226.855 169.533 223.939 172.917 219.972 175.25C216.239 177.583 212.039 178.75 207.372 178.75C202.939 178.75 198.739 177.583 194.772 175.25C191.039 172.917 188.239 169.533 186.372 165.1L144.722 65L104.472 165.1C102.605 169.533 99.6887 172.917 95.7221 175.25C91.9887 177.583 87.7887 178.75 83.1221 178.75C78.6887 178.75 74.4887 177.583 70.5221 175.25C66.5554 172.917 63.6387 169.533 61.7721 165.1L4.37207 29.65C3.2054 26.6167 2.62207 24.05 2.62207 21.95C2.62207 16.5833 4.9554 12.0333 9.62207 8.29999C14.2887 4.33333 19.4221 2.35 25.0221 2.35C28.9887 2.35 32.6054 3.4 35.8721 5.5C39.1387 7.59999 41.5887 10.75 43.2221 14.95L84.5221 121.7L126.872 16C128.739 11.5667 131.422 8.29999 134.922 6.19999C138.422 3.86666 142.272 2.69999 146.472 2.69999C150.672 2.69999 154.522 3.86666 158.022 6.19999C161.522 8.29999 164.205 11.5667 166.072 16L208.772 122.05L249.722 15.3Z" fill="#F5F5F5"/>
<path d="M249.722 15.3L248.79 14.9375L248.788 14.9418L249.722 15.3ZM256.722 5.84999L256.181 5.00881L256.167 5.01806L256.153 5.0278L256.722 5.84999ZM281.572 8.29999L280.908 9.0474L280.93 9.06679L280.952 9.08487L281.572 8.29999ZM286.472 29.65L285.578 29.2028L285.564 29.2299L285.552 29.2578L286.472 29.65ZM228.722 165.1L227.802 164.708L227.8 164.712L228.722 165.1ZM219.972 175.25L219.465 174.388L219.453 174.395L219.442 174.402L219.972 175.25ZM194.772 175.25L194.242 176.098L194.253 176.105L194.265 176.112L194.772 175.25ZM186.372 165.1L185.449 165.484L185.45 165.488L186.372 165.1ZM144.722 65L145.645 64.6158L144.706 62.3589L143.794 64.6269L144.722 65ZM104.472 165.1L105.394 165.488L105.397 165.481L105.4 165.473L104.472 165.1ZM95.7221 175.25L95.2151 174.388L95.2035 174.395L95.1921 174.402L95.7221 175.25ZM70.5221 175.25L71.0291 174.388L71.0291 174.388L70.5221 175.25ZM61.7721 165.1L62.6937 164.712L62.6928 164.71L61.7721 165.1ZM4.37207 29.65L3.43872 30.009L3.44477 30.0247L3.45133 30.0402L4.37207 29.65ZM9.62207 8.29999L10.2468 9.08086L10.2584 9.07157L10.2697 9.06193L9.62207 8.29999ZM35.8721 5.5L35.3313 6.34118L35.3313 6.34118L35.8721 5.5ZM43.2221 14.95L44.1547 14.5892L44.1541 14.5875L43.2221 14.95ZM84.5221 121.7L83.5894 122.061L84.5058 124.429L85.4503 122.072L84.5221 121.7ZM126.872 16L125.95 15.6119L125.947 15.62L125.944 15.6281L126.872 16ZM134.922 6.19999L135.437 7.05748L135.457 7.04524L135.477 7.03204L134.922 6.19999ZM158.022 6.19999L157.467 7.03204L157.487 7.04524L157.508 7.05748L158.022 6.19999ZM166.072 16L167 15.6265L166.997 15.6192L166.994 15.6119L166.072 16ZM208.772 122.05L207.844 122.423L208.795 124.783L209.706 122.408L208.772 122.05ZM248.788 14.9418L246.229 21.6137L248.096 22.33L250.656 15.6582L248.788 14.9418ZM241.11 34.9575L235.992 48.3012L237.859 49.0175L242.978 35.6738L241.11 34.9575ZM230.873 61.645L225.754 74.9887L227.621 75.705L232.74 62.3613L230.873 61.645ZM220.635 88.3325L215.517 101.676L217.384 102.393L222.503 89.0488L220.635 88.3325ZM210.398 115.02L207.838 121.692L209.706 122.408L212.265 115.736L210.398 115.02ZM209.7 121.676L207.031 115.048L205.176 115.795L207.844 122.423L209.7 121.676ZM201.693 101.792L196.356 88.5359L194.501 89.2829L199.838 102.539L201.693 101.792ZM191.018 75.2796L185.681 62.0234L183.826 62.7704L189.163 76.0266L191.018 75.2796ZM180.343 48.7671L175.006 35.5109L173.151 36.2579L178.488 49.5141L180.343 48.7671ZM169.668 22.2546L167 15.6265L165.144 16.3735L167.813 23.0016L169.668 22.2546ZM166.994 15.6119C166.547 14.5503 166.053 13.5492 165.511 12.6097L163.778 13.6087C164.276 14.4714 164.733 15.3976 165.15 16.3881L166.994 15.6119ZM161.282 7.35512C160.428 6.59886 159.512 5.92779 158.537 5.34249L157.508 7.05748C158.378 7.57944 159.194 8.1778 159.957 8.85313L161.282 7.35512ZM158.577 5.36794C157.674 4.76607 156.747 4.23718 155.795 3.78205L154.932 5.58627C155.796 5.99926 156.641 6.48092 157.467 7.03204L158.577 5.36794ZM149.667 1.92428C148.622 1.77455 147.557 1.69999 146.472 1.69999V3.69999C147.465 3.69999 148.435 3.76821 149.383 3.90404L149.667 1.92428ZM146.472 1.69999C145.387 1.69999 144.322 1.77455 143.278 1.92428L143.561 3.90404C144.509 3.76821 145.479 3.69999 146.472 3.69999V1.69999ZM137.149 3.78205C136.197 4.23718 135.27 4.76607 134.367 5.36794L135.477 7.03204C136.303 6.48092 137.148 5.99926 138.012 5.58627L137.149 3.78205ZM134.408 5.34249C133.432 5.92779 132.517 6.59886 131.662 7.35512L132.987 8.85313C133.75 8.1778 134.567 7.57944 135.437 7.05748L134.408 5.34249ZM127.433 12.6097C126.891 13.5492 126.397 14.5503 125.95 15.6119L127.794 16.3881C128.211 15.3976 128.668 14.4714 129.166 13.6087L127.433 12.6097ZM125.944 15.6281L123.297 22.2343L125.153 22.9782L127.8 16.3719L125.944 15.6281ZM118.003 35.4468L112.709 48.6593L114.566 49.4032L119.86 36.1907L118.003 35.4468ZM107.416 61.8718L102.122 75.0843L103.978 75.8282L109.272 62.6157L107.416 61.8718ZM96.8282 88.2968L91.5344 101.509L93.391 102.253L98.6847 89.0407L96.8282 88.2968ZM86.2407 114.722L83.5938 121.328L85.4503 122.072L88.0972 115.466L86.2407 114.722ZM85.4547 121.339L82.8735 114.667L81.0082 115.389L83.5894 122.061L85.4547 121.339ZM77.711 101.324L72.5485 87.9798L70.6832 88.7014L75.8457 102.045L77.711 101.324ZM67.386 74.636L62.2235 61.2923L60.3582 62.0139L65.5207 75.3577L67.386 74.636ZM57.061 47.9485L51.8985 34.6048L50.0332 35.3264L55.1957 48.6702L57.061 47.9485ZM46.736 21.261L44.1547 14.5892L42.2894 15.3108L44.8707 21.9827L46.736 21.261ZM44.1541 14.5875C43.7595 13.5729 43.3174 12.6133 42.8271 11.7098L41.0692 12.6636C41.5168 13.4884 41.924 14.371 42.2901 15.3124L44.1541 14.5875ZM38.954 6.63596C38.1664 5.90066 37.3192 5.24146 36.4128 4.65882L35.3313 6.34118C36.1368 6.85898 36.8892 7.4444 37.5892 8.09787L38.954 6.63596ZM36.4128 4.65882C35.5592 4.11005 34.681 3.62865 33.7785 3.21528L32.9457 5.03363C33.76 5.4066 34.5552 5.84224 35.3313 6.34118L36.4128 4.65882ZM28.0128 1.54867C27.0357 1.41602 26.0386 1.35 25.0221 1.35V3.35C25.9518 3.35 26.8589 3.41037 27.7438 3.53049L28.0128 1.54867ZM25.0221 1.35C23.533 1.35 22.0728 1.48455 20.6423 1.75449L21.0132 3.7198C22.3182 3.47354 23.6542 3.35 25.0221 3.35V1.35ZM12.4971 4.9607C11.2918 5.70669 10.1176 6.56633 8.97442 7.53805L10.2697 9.06193C11.3415 8.15094 12.4349 7.35127 13.5496 6.66134L12.4971 4.9607ZM8.99738 7.51912C7.86931 8.42158 6.86571 9.37535 5.98972 10.3816L7.49816 11.6948C8.28835 10.7871 9.20351 9.91546 10.2468 9.08086L8.99738 7.51912ZM2.10389 17.7744C1.78178 19.116 1.62207 20.5086 1.62207 21.95H3.62207C3.62207 20.6574 3.76515 19.4219 4.04862 18.2414L2.10389 17.7744ZM1.62207 21.95C1.62207 22.6225 1.67705 23.3297 1.78415 24.0699L3.76354 23.7835C3.66827 23.125 3.62207 22.5143 3.62207 21.95H1.62207ZM2.75619 28.0882C2.95739 28.709 3.185 29.3493 3.43872 30.009L5.30542 29.291C5.06342 28.6618 4.84798 28.0554 4.65877 27.4716L2.75619 28.0882ZM3.45133 30.0402L6.32133 36.8127L8.16281 36.0323L5.29281 29.2598L3.45133 30.0402ZM12.0613 50.3577L17.8013 63.9027L19.6428 63.1223L13.9028 49.5773L12.0613 50.3577ZM23.5413 77.4477L29.2813 90.9927L31.1228 90.2123L25.3828 76.6673L23.5413 77.4477ZM35.0213 104.538L40.7613 118.083L42.6028 117.302L36.8628 103.757L35.0213 104.538ZM46.5013 131.628L52.2413 145.173L54.0828 144.392L48.3428 130.847L46.5013 131.628ZM57.9813 158.718L60.8513 165.49L62.6928 164.71L59.8228 157.937L57.9813 158.718ZM60.8504 165.488C61.3209 166.605 61.8569 167.662 62.4591 168.657L64.17 167.621C63.6205 166.713 63.1282 165.744 62.6937 164.712L60.8504 165.488ZM67.0933 174.063C67.9996 174.816 68.9738 175.499 70.0151 176.112L71.0291 174.388C70.0784 173.829 69.193 173.208 68.3722 172.525L67.0933 174.063ZM70.0151 176.112C71.0179 176.702 72.0371 177.221 73.0726 177.668L73.866 175.833C72.9089 175.419 71.9633 174.938 71.0291 174.388L70.0151 176.112ZM79.6881 179.52C80.8185 179.673 81.9633 179.75 83.1221 179.75V177.75C82.0518 177.75 80.997 177.679 79.9574 177.538L79.6881 179.52ZM83.1221 179.75C84.2915 179.75 85.4353 179.679 86.5533 179.537L86.3011 177.553C85.2702 177.684 84.2107 177.75 83.1221 177.75V179.75ZM93.1978 177.714C94.2481 177.253 95.2662 176.714 96.2521 176.098L95.1921 174.402C94.287 174.968 93.3543 175.461 92.3939 175.883L93.1978 177.714ZM96.2291 176.112C97.2703 175.499 98.2446 174.816 99.1509 174.063L97.872 172.525C97.0511 173.208 96.1658 173.829 95.2151 174.388L96.2291 176.112ZM103.785 168.657C104.387 167.662 104.923 166.605 105.394 165.488L103.55 164.712C103.116 165.744 102.624 166.713 102.074 167.621L103.785 168.657ZM105.4 165.473L107.916 159.217L106.06 158.471L103.544 164.727L105.4 165.473ZM112.947 146.704L117.978 134.192L116.122 133.446L111.091 145.958L112.947 146.704ZM123.009 121.679L128.041 109.167L126.185 108.421L121.154 120.933L123.009 121.679ZM133.072 96.6543L138.103 84.1418L136.247 83.3957L131.216 95.9082L133.072 96.6543ZM143.134 71.6293L145.65 65.3731L143.794 64.6269L141.279 70.8832L143.134 71.6293ZM143.799 65.3841L146.402 71.6404L148.248 70.8721L145.645 64.6158L143.799 65.3841ZM151.608 84.1529L156.814 96.6654L158.661 95.8971L153.455 83.3846L151.608 84.1529ZM162.021 109.178L167.227 121.69L169.073 120.922L163.867 108.41L162.021 109.178ZM172.433 134.203L177.639 146.715L179.486 145.947L174.28 133.435L172.433 134.203ZM182.846 159.228L185.449 165.484L187.295 164.716L184.692 158.46L182.846 159.228ZM185.45 165.488C185.912 166.584 186.43 167.622 187.005 168.6L188.729 167.586C188.201 166.689 187.723 165.731 187.294 164.712L185.45 165.488ZM191.428 174.003C192.303 174.774 193.241 175.472 194.242 176.098L195.302 174.402C194.393 173.834 193.543 173.201 192.751 172.503L191.428 174.003ZM194.265 176.112C195.268 176.702 196.287 177.221 197.323 177.668L198.116 175.833C197.159 175.419 196.213 174.938 195.279 174.388L194.265 176.112ZM203.938 179.52C205.069 179.673 206.213 179.75 207.372 179.75V177.75C206.302 177.75 205.247 177.679 204.207 177.538L203.938 179.52ZM207.372 179.75C208.541 179.75 209.685 179.679 210.803 179.537L210.551 177.553C209.52 177.684 208.461 177.75 207.372 177.75V179.75ZM217.448 177.714C218.498 177.253 219.516 176.714 220.502 176.098L219.442 174.402C218.537 174.968 217.604 175.461 216.644 175.883L217.448 177.714ZM220.479 176.112C221.52 175.499 222.495 174.816 223.401 174.063L222.122 172.525C221.301 173.208 220.416 173.829 219.465 174.388L220.479 176.112ZM228.035 168.657C228.637 167.662 229.173 166.605 229.644 165.488L227.8 164.712C227.366 165.744 226.874 166.713 226.324 167.621L228.035 168.657ZM229.642 165.492L232.529 158.72L230.69 157.935L227.802 164.708L229.642 165.492ZM238.304 145.175L244.079 131.63L242.24 130.845L236.465 144.39L238.304 145.175ZM249.854 118.085L255.629 104.54L253.79 103.755L248.015 117.3L249.854 118.085ZM261.404 90.9947L267.179 77.4497L265.34 76.6653L259.565 90.2103L261.404 90.9947ZM272.954 63.9047L278.729 50.3597L276.89 49.5753L271.115 63.1203L272.954 63.9047ZM284.504 36.8147L287.392 30.0422L285.552 29.2578L282.665 36.0303L284.504 36.8147ZM287.367 30.0972C287.694 29.4418 287.978 28.7615 288.219 28.0568L286.326 27.4107C286.114 28.0321 285.864 28.6293 285.578 29.2028L287.367 30.0972ZM289.121 23.7704C289.189 23.0647 289.222 22.3411 289.222 21.6H287.222C287.222 22.281 287.191 22.9411 287.13 23.5806L289.121 23.7704ZM289.222 21.6C289.222 20.1975 289.078 18.8476 288.787 17.5524L286.836 17.991C287.092 19.1328 287.222 20.335 287.222 21.6H289.222ZM285.12 10.3073C284.271 9.31519 283.293 8.38486 282.192 7.51511L280.952 9.08487C281.961 9.88124 282.843 10.7228 283.601 11.6083L285.12 10.3073ZM282.236 7.55258C281.185 6.61825 280.095 5.79326 278.966 5.07932L277.897 6.76985C278.929 7.42238 279.933 8.18098 280.908 9.0474L282.236 7.55258ZM271.324 2.06746C269.991 1.82207 268.624 1.69999 267.222 1.69999V3.69999C268.507 3.69999 269.753 3.81186 270.962 4.03438L271.324 2.06746ZM267.222 1.69999C266.237 1.69999 265.265 1.76963 264.308 1.90933L264.597 3.88838C265.456 3.76293 266.331 3.69999 267.222 3.69999V1.69999ZM258.725 3.59724C257.861 4.00363 257.013 4.47441 256.181 5.00881L257.263 6.69117C258.023 6.20251 258.794 5.77483 259.576 5.40735L258.725 3.59724ZM256.153 5.0278C255.29 5.62501 254.482 6.30139 253.729 7.05596L255.144 8.46917C255.814 7.79815 256.53 7.19948 257.291 6.67218L256.153 5.0278ZM250.068 12.1173C249.602 13.0038 249.176 13.9441 248.79 14.9375L250.654 15.6624C251.015 14.7341 251.41 13.8626 251.838 13.0473L250.068 12.1173ZM249.722 15.3L247.858 14.5751L247.855 14.5837L249.722 15.3ZM256.722 5.84999L255.641 4.16764L255.612 4.18613L255.584 4.20561L256.722 5.84999ZM281.572 8.29999L280.243 9.79481L280.287 9.83359L280.333 9.86976L281.572 8.29999ZM286.472 29.65L284.683 28.7556L284.656 28.8098L284.632 28.8656L286.472 29.65ZM228.722 165.1L226.882 164.316L226.879 164.324L228.722 165.1ZM219.972 175.25L218.958 173.526L218.935 173.54L218.912 173.554L219.972 175.25ZM194.772 175.25L193.712 176.946L193.735 176.96L193.758 176.974L194.772 175.25ZM186.372 165.1L184.526 165.868L184.529 165.876L186.372 165.1ZM144.722 65L146.569 64.2317L144.69 59.7177L142.866 64.2539L144.722 65ZM104.472 165.1L106.315 165.876L106.322 165.861L106.328 165.846L104.472 165.1ZM95.7221 175.25L94.708 173.526L94.6849 173.54L94.6621 173.554L95.7221 175.25ZM70.5221 175.25L71.5361 173.526L71.5361 173.526L70.5221 175.25ZM61.7721 165.1L63.6153 164.324L63.6135 164.32L61.7721 165.1ZM4.37207 29.65L2.50538 30.3679L2.51746 30.3994L2.5306 30.4304L4.37207 29.65ZM9.62207 8.29999L10.8715 9.86173L10.8947 9.84314L10.9174 9.82387L9.62207 8.29999ZM35.8721 5.5L34.7906 7.18235L34.7906 7.18236L35.8721 5.5ZM43.2221 14.95L45.0873 14.2283L45.0861 14.2251L43.2221 14.95ZM84.5221 121.7L82.6568 122.422L84.4895 127.159L86.3786 122.444L84.5221 121.7ZM126.872 16L125.029 15.2239L125.022 15.24L125.016 15.2562L126.872 16ZM134.922 6.19999L135.951 7.91497L135.992 7.89049L136.031 7.86409L134.922 6.19999ZM158.022 6.19999L156.913 7.86409L156.952 7.89049L156.993 7.91497L158.022 6.19999ZM166.072 16L167.927 15.253L167.921 15.2384L167.915 15.2239L166.072 16ZM208.772 122.05L206.917 122.797L208.817 127.517L210.639 122.766L208.772 122.05ZM247.855 14.5837L245.295 21.2556L249.03 22.6882L251.589 16.0163L247.855 14.5837ZM240.177 34.5993L235.058 47.9431L238.793 49.3757L243.911 36.0319L240.177 34.5993ZM229.939 61.2868L224.82 74.6306L228.555 76.0632L233.674 62.7194L229.939 61.2868ZM219.702 87.9743L214.583 101.318L218.318 102.751L223.436 89.4069L219.702 87.9743ZM209.464 114.662L206.905 121.334L210.639 122.766L213.199 116.094L209.464 114.662ZM210.627 121.303L207.959 114.675L204.248 116.169L206.917 122.797L210.627 121.303ZM202.621 101.419L197.284 88.1624L193.573 89.6564L198.911 102.913L202.621 101.419ZM191.946 74.9061L186.609 61.6499L182.898 63.1439L188.236 76.4001L191.946 74.9061ZM181.271 48.3936L175.934 35.1374L172.223 36.6314L177.561 49.8876L181.271 48.3936ZM170.596 21.8811L167.927 15.253L164.217 16.747L166.886 23.3751L170.596 21.8811ZM167.915 15.2239C167.453 14.1266 166.941 13.0881 166.377 12.1103L162.912 14.1082C163.387 14.9326 163.827 15.8212 164.229 16.7761L167.915 15.2239ZM161.945 6.60611C161.044 5.80939 160.079 5.10197 159.051 4.485L156.993 7.91497C157.81 8.40526 158.577 8.96727 159.295 9.60214L161.945 6.60611ZM159.131 4.53589C158.191 3.90865 157.222 3.35614 156.227 2.87993L154.501 6.48839C155.32 6.8803 156.124 7.33834 156.913 7.86409L159.131 4.53589ZM149.808 0.934394C148.715 0.777714 147.603 0.699991 146.472 0.699991V4.69999C147.419 4.69999 148.342 4.76505 149.241 4.89393L149.808 0.934394ZM146.472 0.699991C145.341 0.699991 144.229 0.777714 143.136 0.934394L143.703 4.89393C144.602 4.76505 145.525 4.69999 146.472 4.69999V0.699991ZM136.717 2.87993C135.722 3.35614 134.754 3.90865 133.813 4.53589L136.031 7.86409C136.82 7.33834 137.624 6.8803 138.443 6.48839L136.717 2.87993ZM133.893 4.485C132.865 5.10197 131.9 5.80939 130.999 6.60611L133.649 9.60214C134.367 8.96727 135.134 8.40526 135.951 7.91497L133.893 4.485ZM126.567 12.1103C126.003 13.0881 125.491 14.1266 125.029 15.2239L128.715 16.7761C129.117 15.8212 129.557 14.9326 130.032 14.1082L126.567 12.1103ZM125.016 15.2562L122.369 21.8624L126.082 23.3501L128.729 16.7438L125.016 15.2562ZM117.075 35.0749L111.781 48.2874L115.494 49.7751L120.788 36.5626L117.075 35.0749ZM106.487 61.4999L101.194 74.7124L104.907 76.2001L110.2 62.9876L106.487 61.4999ZM95.8999 87.9249L90.6062 101.137L94.3192 102.625L99.613 89.4126L95.8999 87.9249ZM85.3124 114.35L82.6655 120.956L86.3786 122.444L89.0255 115.838L85.3124 114.35ZM86.3873 120.978L83.8061 114.306L80.0756 115.75L82.6568 122.422L86.3873 120.978ZM78.6436 100.963L73.4811 87.619L69.7506 89.0623L74.9131 102.406L78.6436 100.963ZM68.3186 74.2752L63.1561 60.9315L59.4256 62.3748L64.5881 75.7185L68.3186 74.2752ZM57.9936 47.5877L52.8311 34.244L49.1006 35.6873L54.2631 49.031L57.9936 47.5877ZM47.6686 20.9002L45.0873 14.2283L41.3568 15.6716L43.9381 22.3435L47.6686 20.9002ZM45.0861 14.2251C44.6772 13.1738 44.2177 12.1758 43.7061 11.2328L40.1903 13.1406C40.6165 13.926 41.0062 14.7701 41.3581 15.6749L45.0861 14.2251ZM39.6364 5.905C38.805 5.12879 37.9104 4.4327 36.9536 3.81764L34.7906 7.18236C35.5456 7.66774 36.2506 8.21627 36.9068 8.82883L39.6364 5.905ZM36.9536 3.81764C36.0612 3.24396 35.1416 2.73968 34.1949 2.3061L32.5293 5.9428C33.2995 6.29558 34.0532 6.70833 34.7906 7.18235L36.9536 3.81764ZM28.1473 0.55776C27.124 0.418841 26.082 0.349995 25.0221 0.349995V4.35C25.9084 4.35 26.7705 4.40754 27.6092 4.5214L28.1473 0.55776ZM25.0221 0.349995C23.4724 0.349995 21.9501 0.49006 20.4569 0.771834L21.1986 4.70246C22.4409 4.46803 23.7148 4.35 25.0221 4.35V0.349995ZM11.9708 4.11038C10.7202 4.8844 9.50569 5.77403 8.32677 6.77611L10.9174 9.82387C11.9534 8.94324 13.0064 8.17356 14.0759 7.51166L11.9708 4.11038ZM8.37268 6.73825C7.2022 7.67464 6.15439 8.66946 5.23549 9.72494L8.25239 12.3514C8.99967 11.493 9.87062 10.6624 10.8715 9.86173L8.37268 6.73825ZM1.13153 17.541C0.790091 18.963 0.622071 20.4342 0.622071 21.95H4.62207C4.62207 20.7318 4.75684 19.5749 5.02098 18.4749L1.13153 17.541ZM0.622071 21.95C0.622071 22.6766 0.681443 23.432 0.79445 24.2131L4.75324 23.6404C4.66388 23.0227 4.62207 22.4602 4.62207 21.95H0.622071ZM1.80491 28.3965C2.01209 29.0358 2.24579 29.693 2.50538 30.3679L6.23876 28.932C6.00263 28.3181 5.79327 27.7286 5.61006 27.1633L1.80491 28.3965ZM2.5306 30.4304L5.4006 37.2029L9.08355 35.6421L6.21354 28.8696L2.5306 30.4304ZM11.1406 50.7479L16.8806 64.2929L20.5635 62.7321L14.8235 49.1871L11.1406 50.7479ZM22.6206 77.8379L28.3606 91.3829L32.0435 89.8221L26.3035 76.2771L22.6206 77.8379ZM34.1006 104.928L39.8406 118.473L43.5235 116.912L37.7835 103.367L34.1006 104.928ZM45.5806 132.018L51.3206 145.563L55.0035 144.002L49.2635 130.457L45.5806 132.018ZM57.0606 159.108L59.9306 165.88L63.6135 164.32L60.7435 157.547L57.0606 159.108ZM59.9288 165.876C60.4172 167.036 60.975 168.136 61.6036 169.174L65.0255 167.103C64.5024 166.239 64.0319 165.313 63.6153 164.324L59.9288 165.876ZM66.4538 174.831C67.4029 175.621 68.4216 176.335 69.508 176.974L71.5361 173.526C70.6306 172.994 69.7898 172.403 69.0116 171.756L66.4538 174.831ZM69.508 176.974C70.5452 177.584 71.6012 178.122 72.6759 178.586L74.2628 174.915C73.3448 174.518 72.436 174.055 71.5361 173.526L69.508 176.974ZM79.5534 180.511C80.7293 180.67 81.9191 180.75 83.1221 180.75V176.75C82.096 176.75 81.0863 176.682 80.0921 176.547L79.5534 180.511ZM83.1221 180.75C84.3319 180.75 85.5179 180.677 86.6794 180.529L86.175 176.561C85.1877 176.687 84.1703 176.75 83.1221 176.75V180.75ZM93.5997 178.63C94.6949 178.149 95.7559 177.587 96.7821 176.946L94.6621 173.554C93.7973 174.094 92.9074 174.565 91.992 174.967L93.5997 178.63ZM96.7361 176.974C97.8226 176.335 98.8413 175.621 99.7903 174.831L97.2325 171.756C96.4544 172.403 95.6135 172.994 94.708 173.526L96.7361 176.974ZM104.641 169.174C105.269 168.136 105.827 167.036 106.315 165.876L102.629 164.324C102.212 165.313 101.742 166.239 101.219 167.103L104.641 169.174ZM106.328 165.846L108.843 159.59L105.132 158.098L102.616 164.354L106.328 165.846ZM113.875 147.077L118.906 134.565L115.195 133.073L110.163 145.585L113.875 147.077ZM123.937 122.052L128.968 109.54L125.257 108.048L120.226 120.56L123.937 122.052ZM134 97.0274L139.031 84.5149L135.32 83.0226L130.288 95.5351L134 97.0274ZM144.062 72.0024L146.578 65.7461L142.866 64.2539L140.351 70.5101L144.062 72.0024ZM142.876 65.7683L145.479 72.0246L149.172 70.4879L146.569 64.2317L142.876 65.7683ZM150.685 84.5371L155.891 97.0496L159.584 95.5129L154.378 83.0004L150.685 84.5371ZM161.097 109.562L166.304 122.075L169.997 120.538L164.79 108.025L161.097 109.562ZM171.51 134.587L176.716 147.1L180.409 145.563L175.203 133.05L171.51 134.587ZM181.922 159.612L184.526 165.868L188.219 164.332L185.615 158.075L181.922 159.612ZM184.529 165.876C185.007 167.011 185.544 168.088 186.143 169.107L189.591 167.08C189.087 166.222 188.628 165.304 188.215 164.324L184.529 165.876ZM190.767 174.753C191.683 175.561 192.665 176.292 193.712 176.946L195.832 173.554C194.968 173.014 194.162 172.414 193.412 171.753L190.767 174.753ZM193.758 176.974C194.795 177.584 195.851 178.122 196.926 178.586L198.513 174.915C197.595 174.518 196.686 174.055 195.786 173.526L193.758 176.974ZM203.803 180.511C204.979 180.67 206.169 180.75 207.372 180.75V176.75C206.346 176.75 205.336 176.682 204.342 176.547L203.803 180.511ZM207.372 180.75C208.582 180.75 209.768 180.677 210.929 180.529L210.425 176.561C209.438 176.687 208.42 176.75 207.372 176.75V180.75ZM217.85 178.63C218.945 178.149 220.006 177.587 221.032 176.946L218.912 173.554C218.047 174.094 217.157 174.565 216.242 174.967L217.85 178.63ZM220.986 176.974C222.073 176.335 223.091 175.621 224.04 174.831L221.483 171.756C220.704 172.403 219.864 172.994 218.958 173.526L220.986 176.974ZM228.891 169.174C229.519 168.136 230.077 167.036 230.565 165.876L226.879 164.324C226.462 165.313 225.992 166.239 225.469 167.103L228.891 169.174ZM230.562 165.884L233.449 159.112L229.77 157.543L226.882 164.316L230.562 165.884ZM239.224 145.567L244.999 132.022L241.32 130.453L235.545 143.998L239.224 145.567ZM250.774 118.477L256.549 104.932L252.87 103.363L247.095 116.908L250.774 118.477ZM262.324 91.3869L268.099 77.8419L264.42 76.2731L258.645 89.8181L262.324 91.3869ZM273.874 64.2969L279.649 50.7519L275.97 49.1831L270.195 62.7281L273.874 64.2969ZM285.424 37.2069L288.312 30.4344L284.632 28.8656L281.745 35.6381L285.424 37.2069ZM288.261 30.5444C288.609 29.848 288.91 29.1262 289.165 28.3799L285.38 27.0877C285.182 27.6673 284.95 28.223 284.683 28.7556L288.261 30.5444ZM290.117 23.8653C290.187 23.1264 290.222 22.3711 290.222 21.6H286.222C286.222 22.251 286.193 22.8794 286.135 23.4857L290.117 23.8653ZM290.222 21.6C290.222 20.1287 290.071 18.705 289.763 17.3332L285.86 18.2102C286.099 19.2753 286.222 20.4038 286.222 21.6H290.222ZM285.88 9.6568C284.985 8.6114 283.96 7.63666 282.811 6.73023L280.333 9.86976C281.295 10.6294 282.129 11.4266 282.842 12.2588L285.88 9.6568ZM282.901 6.80517C281.811 5.83689 280.678 4.9787 279.5 4.23406L277.363 7.61512C278.346 8.23694 279.307 8.96235 280.243 9.79481L282.901 6.80517ZM271.505 1.08399C270.11 0.827177 268.682 0.699991 267.222 0.699991V4.69999C268.449 4.69999 269.634 4.80676 270.78 5.01784L271.505 1.08399ZM267.222 0.699991C266.189 0.699991 265.17 0.772985 264.163 0.919812L264.741 4.8779C265.552 4.75957 266.379 4.69999 267.222 4.69999V0.699991ZM258.3 2.69219C257.394 3.11802 256.507 3.61036 255.641 4.16764L257.804 7.53235C258.528 7.06656 259.261 6.66043 260.001 6.31241L258.3 2.69219ZM255.584 4.20561C254.671 4.83777 253.816 5.55301 253.021 6.34935L255.851 9.17578C256.48 8.54653 257.149 7.98672 257.861 7.49438L255.584 4.20561ZM249.182 11.6523C248.698 12.5744 248.257 13.5492 247.858 14.5751L251.586 16.0249C251.934 15.1291 252.314 14.2921 252.724 13.5122L249.182 11.6523Z" fill="black"/>
</svg>
