<svg width="369" height="256" viewBox="0 0 369 256" fill="none" xmlns="http://www.w3.org/2000/svg">
<path d="M326.188 16.15C327.822 11.4833 330.388 7.98332 333.888 5.64999C337.622 3.31666 341.705 2.14999 346.139 2.14999C351.738 2.14999 356.522 3.89999 360.489 7.39999C364.689 10.9 366.789 15.5667 366.789 21.4C366.789 23.5 366.205 26.5333 365.039 30.5L289.788 238.75C287.922 243.417 284.772 247.033 280.338 249.6C276.138 252.167 271.472 253.45 266.338 253.45C261.205 253.45 256.422 252.167 251.988 249.6C247.555 247.033 244.522 243.417 242.888 238.75L184.788 73.9L125.638 238.75C123.772 243.417 120.622 247.033 116.188 249.6C111.988 252.167 107.322 253.45 102.188 253.45C97.0551 253.45 92.2718 252.167 87.8385 249.6C83.6385 247.033 80.7218 243.417 79.0885 238.75L3.83848 30.5C2.67181 27 2.08848 23.9667 2.08848 21.4C2.08848 15.5667 4.18848 10.9 8.38848 7.39999C12.8218 3.89999 17.9551 2.14999 23.7885 2.14999C28.4551 2.14999 32.6551 3.31666 36.3885 5.64999C40.1218 7.98332 42.8051 11.4833 44.4385 16.15L103.938 187.3L165.188 17.2C166.822 12.5333 169.505 8.91665 173.238 6.34998C176.972 3.54999 181.055 2.14999 185.488 2.14999C189.922 2.14999 194.005 3.54999 197.738 6.34998C201.705 8.91665 204.505 12.65 206.138 17.55L265.638 189.4L326.188 16.15Z" fill="#F5F5F5"/>
<path d="M326.188 16.15L325.245 15.8196L325.244 15.8201L326.188 16.15ZM333.888 5.64999L333.358 4.80199L333.346 4.80978L333.334 4.81794L333.888 5.64999ZM360.489 7.39999L359.827 8.14983L359.837 8.15917L359.848 8.16821L360.489 7.39999ZM365.039 30.5L365.979 30.8398L365.989 30.8113L365.998 30.7821L365.039 30.5ZM289.788 238.75L290.717 239.121L290.723 239.106L290.729 239.09L289.788 238.75ZM280.338 249.6L279.837 248.735L279.827 248.741L279.817 248.747L280.338 249.6ZM251.988 249.6L252.49 248.735L251.988 249.6ZM242.888 238.75L243.832 238.42L243.832 238.418L242.888 238.75ZM184.788 73.9L185.732 73.5676L184.797 70.9155L183.847 73.5623L184.788 73.9ZM125.638 238.75L126.567 239.121L126.574 239.105L126.58 239.088L125.638 238.75ZM116.188 249.6L115.687 248.735L115.677 248.741L115.667 248.747L116.188 249.6ZM87.8385 249.6L87.317 250.453L87.3272 250.459L87.3374 250.465L87.8385 249.6ZM79.0885 238.75L80.0324 238.42L80.029 238.41L79.0885 238.75ZM3.83848 30.5L2.88979 30.8162L2.89375 30.8281L2.89799 30.8398L3.83848 30.5ZM8.38848 7.39999L7.76883 6.6151L7.75845 6.6233L7.74829 6.63176L8.38848 7.39999ZM36.3885 5.64999L35.8585 6.49799L35.8585 6.49799L36.3885 5.64999ZM44.4385 16.15L45.383 15.8216L45.3823 15.8196L44.4385 16.15ZM103.938 187.3L102.994 187.628L103.922 190.298L104.879 187.639L103.938 187.3ZM165.188 17.2L166.129 17.5388L166.132 17.5303L165.188 17.2ZM173.238 6.34998L173.805 7.17402L173.822 7.16234L173.838 7.14998L173.238 6.34998ZM197.738 6.34998L197.138 7.14998L197.166 7.17075L197.195 7.18955L197.738 6.34998ZM206.138 17.55L205.19 17.8662L205.194 17.8772L206.138 17.55ZM265.638 189.4L264.694 189.727L265.634 192.444L266.583 189.73L265.638 189.4ZM325.244 15.8201L322.722 23.0388L324.61 23.6987L327.132 16.4799L325.244 15.8201ZM317.676 37.4763L312.63 51.9138L314.518 52.5737L319.564 38.1362L317.676 37.4763ZM307.584 66.3513L302.538 80.7888L304.426 81.4487L309.472 67.0112L307.584 66.3513ZM297.492 95.2263L292.447 109.664L294.335 110.324L299.38 95.8862L297.492 95.2263ZM287.401 124.101L282.355 138.539L284.243 139.199L289.289 124.761L287.401 124.101ZM277.309 152.976L272.263 167.414L274.151 168.074L279.197 153.636L277.309 152.976ZM267.217 181.851L264.694 189.07L266.583 189.73L269.105 182.511L267.217 181.851ZM266.583 189.073L264.104 181.912L262.214 182.567L264.694 189.727L266.583 189.073ZM259.146 167.592L254.188 153.271L252.298 153.925L257.256 168.246L259.146 167.592ZM249.229 138.95L244.271 124.629L242.381 125.283L247.339 139.604L249.229 138.95ZM239.313 110.308L234.354 95.9874L232.464 96.6417L237.423 110.963L239.313 110.308ZM229.396 81.6665L224.438 67.3457L222.548 68.0001L227.506 82.3209L229.396 81.6665ZM219.479 53.0249L214.521 38.7041L212.631 39.3584L217.589 53.6793L219.479 53.0249ZM209.563 24.3832L207.083 17.2228L205.194 17.8772L207.673 25.0376L209.563 24.3832ZM207.087 17.2338C206.685 16.0258 206.212 14.882 205.669 13.8032L203.883 14.7027C204.38 15.6901 204.816 16.7443 205.19 17.8662L207.087 17.2338ZM201.233 7.815C200.328 6.9657 199.344 6.19753 198.282 5.51041L197.195 7.18955C198.159 7.81317 199.048 8.50787 199.865 9.27358L201.233 7.815ZM198.338 5.54998C197.399 4.84565 196.436 4.22418 195.448 3.68674L194.492 5.44355C195.391 5.93245 196.273 6.50086 197.138 7.14998L198.338 5.54998ZM188.934 1.42965C187.807 1.24299 186.658 1.14999 185.488 1.14999V3.14999C186.551 3.14999 187.591 3.23448 188.607 3.40278L188.934 1.42965ZM185.488 1.14999C184.319 1.14999 183.17 1.24299 182.043 1.42965L182.37 3.40278C183.386 3.23448 184.426 3.14999 185.488 3.14999V1.14999ZM175.529 3.68675C174.541 4.22418 173.578 4.84565 172.638 5.54998L173.838 7.14998C174.704 6.50086 175.586 5.93245 176.485 5.44355L175.529 3.68675ZM172.672 5.52594C171.672 6.21316 170.743 6.97323 169.885 7.80611L171.278 9.2411C172.054 8.48774 172.896 7.79872 173.805 7.17402L172.672 5.52594ZM165.646 13.5852C165.115 14.6212 164.648 15.7164 164.245 16.8696L166.132 17.5303C166.508 16.4583 166.939 15.4475 167.426 14.497L165.646 13.5852ZM164.248 16.8612L161.696 23.9487L163.577 24.6263L166.129 17.5388L164.248 16.8612ZM156.591 38.1237L151.487 52.2987L153.369 52.9763L158.473 38.8013L156.591 38.1237ZM146.383 66.4737L141.279 80.6487L143.161 81.3263L148.265 67.1513L146.383 66.4737ZM136.175 94.8237L131.071 108.999L132.952 109.676L138.056 95.5013L136.175 94.8237ZM125.966 123.174L120.862 137.349L122.744 138.026L127.848 123.851L125.966 123.174ZM115.758 151.524L110.654 165.699L112.536 166.376L117.64 152.201L115.758 151.524ZM105.55 179.874L102.998 186.961L104.879 187.639L107.431 180.551L105.55 179.874ZM104.883 186.972L102.404 179.84L100.515 180.497L102.994 187.628L104.883 186.972ZM97.4455 165.578L92.4872 151.315L90.5981 151.972L95.5564 166.235L97.4455 165.578ZM87.5289 137.053L82.5705 122.79L80.6814 123.447L85.6398 137.71L87.5289 137.053ZM77.6122 108.528L72.6539 94.2654L70.7648 94.9221L75.7231 109.185L77.6122 108.528ZM67.6955 80.0029L62.7372 65.7404L60.8481 66.3971L65.8064 80.6596L67.6955 80.0029ZM57.7789 51.4779L52.8205 37.2154L50.9314 37.8721L55.8898 52.1346L57.7789 51.4779ZM47.8622 22.9529L45.383 15.8216L43.4939 16.4784L45.9731 23.6096L47.8622 22.9529ZM45.3823 15.8196C44.9837 14.6807 44.5232 13.6042 43.9999 12.5913L42.2231 13.5093C42.7007 14.4338 43.1248 15.4238 43.4946 16.4803L45.3823 15.8196ZM39.7468 6.9543C38.8769 6.15402 37.9338 5.43656 36.9185 4.80199L35.8585 6.49799C36.7707 7.0681 37.6151 7.71082 38.3928 8.42622L39.7468 6.9543ZM36.9185 4.80199C35.9326 4.18584 34.9145 3.64702 33.8642 3.18602L33.0603 5.01737C34.0207 5.43891 34.9534 5.93229 35.8585 6.49799L36.9185 4.80199ZM27.2197 1.36283C26.1018 1.22072 24.9579 1.14999 23.7885 1.14999V3.14999C24.8771 3.14999 25.9366 3.21583 26.9675 3.34687L27.2197 1.36283ZM23.7885 1.14999C22.3209 1.14999 20.8921 1.25709 19.503 1.47238L19.8093 3.44879C21.0923 3.24995 22.4184 3.14999 23.7885 3.14999V1.14999ZM11.3574 4.22986C10.1135 4.91297 8.91728 5.70844 7.76883 6.6151L9.00812 8.18487C10.0727 7.34445 11.1766 6.61086 12.3201 5.98292L11.3574 4.22986ZM7.74829 6.63176C6.64391 7.55209 5.67234 8.5538 4.8368 9.63766L6.42077 10.8587C7.16176 9.89753 8.02999 9.00044 9.02866 8.16821L7.74829 6.63176ZM1.46002 17.2619C1.21142 18.5799 1.08848 19.9599 1.08848 21.4H3.08848C3.08848 20.0737 3.20168 18.8185 3.42537 17.6326L1.46002 17.2619ZM1.08848 21.4C1.08848 22.1783 1.13913 22.9911 1.23893 23.8375L3.22517 23.6033C3.13354 22.8261 3.08848 22.092 3.08848 21.4H1.08848ZM2.19433 28.5423C2.39829 29.2794 2.63019 30.0374 2.88979 30.8162L4.78716 30.1838C4.53764 29.4352 4.31597 28.7103 4.1219 28.0089L2.19433 28.5423ZM2.89799 30.8398L5.58549 38.2773L7.46646 37.5976L4.77896 30.1601L2.89799 30.8398ZM10.9605 53.1523L16.3355 68.0273L18.2165 67.3476L12.8415 52.4726L10.9605 53.1523ZM21.7105 82.9023L27.0855 97.7773L28.9665 97.0976L23.5915 82.2226L21.7105 82.9023ZM32.4605 112.652L37.8355 127.527L39.7165 126.848L34.3415 111.973L32.4605 112.652ZM43.2105 142.402L48.5855 157.277L50.4665 156.598L45.0915 141.723L43.2105 142.402ZM53.9605 172.152L59.3355 187.027L61.2165 186.348L55.8415 171.473L53.9605 172.152ZM64.7105 201.902L70.0855 216.777L71.9665 216.098L66.5915 201.223L64.7105 201.902ZM75.4605 231.652L78.148 239.09L80.029 238.41L77.3415 230.973L75.4605 231.652ZM78.1446 239.08C78.5631 240.276 79.0637 241.409 79.6472 242.479L81.403 241.521C80.8737 240.551 80.4166 239.518 80.0323 238.42L78.1446 239.08ZM84.3111 248.266C85.2341 249.064 86.2365 249.793 87.317 250.453L88.3599 248.747C87.3689 248.141 86.4558 247.476 85.6193 246.753L84.3111 248.266ZM87.3374 250.465C88.4729 251.123 89.6321 251.7 90.815 252.195L91.5879 250.35C90.4857 249.889 89.403 249.35 88.3395 248.735L87.3374 250.465ZM98.3128 254.206C99.5841 254.369 100.876 254.45 102.188 254.45V252.45C100.959 252.45 99.7518 252.374 98.5669 252.222L98.3128 254.206ZM102.188 254.45C103.479 254.45 104.744 254.371 105.983 254.214L105.73 252.23C104.578 252.376 103.398 252.45 102.188 252.45V254.45ZM113.326 252.212C114.485 251.71 115.614 251.123 116.71 250.453L115.667 248.747C114.649 249.369 113.604 249.912 112.531 250.377L113.326 252.212ZM116.69 250.465C117.817 249.813 118.867 249.093 119.84 248.306L118.582 246.751C117.693 247.47 116.729 248.132 115.687 248.735L116.69 250.465ZM124.867 242.549C125.517 241.472 126.084 240.329 126.567 239.121L124.71 238.379C124.266 239.489 123.747 240.534 123.155 241.515L124.867 242.549ZM126.58 239.088L129.044 232.219L127.162 231.544L124.697 238.412L126.58 239.088ZM133.973 218.481L138.903 204.744L137.02 204.069L132.091 217.806L133.973 218.481ZM143.832 191.006L148.761 177.269L146.878 176.594L141.949 190.331L143.832 191.006ZM153.69 163.531L158.619 149.794L156.737 149.119L151.808 162.856L153.69 163.531ZM163.548 136.056L168.478 122.319L166.595 121.644L161.666 135.381L163.548 136.056ZM173.407 108.581L178.336 94.844L176.454 94.1685L171.524 107.906L173.407 108.581ZM183.265 81.1065L185.73 74.2377L183.847 73.5623L181.383 80.431L183.265 81.1065ZM183.845 74.2324L186.266 81.1011L188.152 80.4363L185.732 73.5676L183.845 74.2324ZM191.108 94.8386L195.95 108.576L197.836 107.911L192.994 94.1738L191.108 94.8386ZM200.791 122.314L205.633 136.051L207.519 135.386L202.677 121.649L200.791 122.314ZM210.475 149.789L215.316 163.526L217.202 162.861L212.361 149.124L210.475 149.789ZM220.158 177.264L225 191.001L226.886 190.336L222.044 176.599L220.158 177.264ZM229.841 204.739L234.683 218.476L236.569 217.811L231.727 204.074L229.841 204.739ZM239.525 232.214L241.945 239.082L243.832 238.418L241.411 231.549L239.525 232.214ZM241.945 239.08C242.371 240.298 242.889 241.45 243.501 242.537L245.244 241.556C244.692 240.576 244.221 239.531 243.832 238.42L241.945 239.08ZM248.377 248.322C249.332 249.103 250.369 249.818 251.487 250.465L252.49 248.735C251.459 248.138 250.511 247.484 249.645 246.775L248.377 248.322ZM251.487 250.465C252.623 251.123 253.782 251.7 254.965 252.195L255.738 250.35C254.636 249.889 253.553 249.35 252.49 248.735L251.487 250.465ZM262.463 254.206C263.734 254.369 265.026 254.45 266.338 254.45V252.45C265.109 252.45 263.902 252.374 262.717 252.222L262.463 254.206ZM266.338 254.45C267.629 254.45 268.894 254.371 270.133 254.214L269.88 252.23C268.728 252.376 267.548 252.45 266.338 252.45V254.45ZM277.476 252.212C278.636 251.71 279.764 251.123 280.86 250.453L279.817 248.747C278.799 249.369 277.754 249.912 276.681 250.377L277.476 252.212ZM280.84 250.465C281.967 249.813 283.017 249.093 283.99 248.306L282.732 246.751C281.843 247.47 280.879 248.132 279.837 248.735L280.84 250.465ZM289.017 242.549C289.668 241.472 290.234 240.329 290.717 239.121L288.86 238.379C288.416 239.489 287.897 240.534 287.305 241.515L289.017 242.549ZM290.729 239.09L293.416 231.652L291.536 230.973L288.848 238.41L290.729 239.09ZM298.791 216.777L304.166 201.902L302.286 201.223L296.911 216.098L298.791 216.777ZM309.541 187.027L314.916 172.152L313.036 171.473L307.661 186.348L309.541 187.027ZM320.291 157.277L325.666 142.402L323.786 141.723L318.411 156.598L320.291 157.277ZM331.041 127.527L336.416 112.652L334.536 111.973L329.161 126.848L331.041 127.527ZM341.791 97.7773L347.166 82.9023L345.286 82.2226L339.911 97.0976L341.791 97.7773ZM352.541 68.0273L357.916 53.1523L356.036 52.4726L350.661 67.3476L352.541 68.0273ZM363.291 38.2773L365.979 30.8398L364.098 30.1601L361.411 37.5976L363.291 38.2773ZM365.998 30.7821C366.231 29.9905 366.441 29.2339 366.629 28.5127L364.693 28.009C364.511 28.7078 364.307 29.4441 364.079 30.2178L365.998 30.7821ZM367.598 23.8516C367.723 22.9509 367.789 22.1321 367.789 21.4H365.789C365.789 22.0177 365.733 22.7417 365.617 23.5765L367.598 23.8516ZM367.789 21.4C367.789 19.9599 367.666 18.5799 367.417 17.2619L365.452 17.6326C365.675 18.8185 365.789 20.0737 365.789 21.4H367.789ZM364.04 9.63766C363.205 8.5538 362.233 7.55209 361.129 6.63176L359.848 8.16821C360.847 9.00044 361.715 9.89753 362.456 10.8587L364.04 9.63766ZM361.15 6.65015C360.108 5.73087 359.01 4.92474 357.854 4.23328L356.827 5.94942C357.874 6.57568 358.874 7.30864 359.827 8.14983L361.15 6.65015ZM350.191 1.46559C348.885 1.2547 347.534 1.14999 346.139 1.14999V3.14999C347.433 3.14999 348.678 3.24716 349.873 3.44004L350.191 1.46559ZM346.139 1.14999C345.001 1.14999 343.883 1.22389 342.786 1.37222L343.054 3.3542C344.06 3.21824 345.088 3.14999 346.139 3.14999V1.14999ZM336.323 3.21606C335.311 3.67059 334.323 4.19945 333.358 4.80199L334.418 6.49799C335.307 5.94238 336.215 5.45679 337.142 5.04059L336.323 3.21606ZM333.334 4.81794C332.36 5.46683 331.455 6.20131 330.619 7.02085L332.018 8.44949C332.766 7.71722 333.574 7.06158 334.443 6.48204L333.334 4.81794ZM326.579 12.6489C326.08 13.6448 325.636 14.702 325.245 15.8196L327.132 16.4803C327.497 15.4373 327.909 14.4589 328.367 13.5441L326.579 12.6489ZM326.188 16.15L324.301 15.4893L324.3 15.4901L326.188 16.15ZM333.888 5.64999L332.828 3.95399L332.804 3.96958L332.779 3.98589L333.888 5.64999ZM360.489 7.39999L359.165 8.89967L359.186 8.91835L359.208 8.93643L360.489 7.39999ZM365.039 30.5L366.919 31.1797L366.94 31.1226L366.957 31.0643L365.039 30.5ZM289.788 238.75L291.645 239.493L291.658 239.461L291.669 239.43L289.788 238.75ZM280.338 249.6L279.336 247.869L279.316 247.881L279.296 247.893L280.338 249.6ZM251.988 249.6L252.991 247.869L251.988 249.6ZM242.888 238.75L244.776 238.089L244.775 238.085L242.888 238.75ZM184.788 73.9L186.675 73.2352L184.805 67.931L182.906 73.2245L184.788 73.9ZM125.638 238.75L127.495 239.493L127.509 239.459L127.521 239.425L125.638 238.75ZM116.188 249.6L115.186 247.869L115.166 247.881L115.146 247.893L116.188 249.6ZM87.8385 249.6L86.7956 251.307L86.8159 251.319L86.8364 251.331L87.8385 249.6ZM79.0885 238.75L80.9762 238.089L80.9729 238.08L80.9694 238.07L79.0885 238.75ZM3.83848 30.5L1.94111 31.1324L1.94901 31.1561L1.95751 31.1797L3.83848 30.5ZM8.38848 7.39999L7.14919 5.83022L7.12843 5.84661L7.10811 5.86354L8.38848 7.39999ZM36.3885 5.64999L35.3285 7.34598L35.3285 7.34598L36.3885 5.64999ZM44.4385 16.15L46.3276 15.4933L46.3262 15.4893L44.4385 16.15ZM103.938 187.3L102.049 187.957L103.905 193.295L105.82 187.978L103.938 187.3ZM165.188 17.2L167.07 17.8776L167.073 17.8691L167.076 17.8607L165.188 17.2ZM173.238 6.34998L174.372 7.99806L174.406 7.97471L174.438 7.94998L173.238 6.34998ZM197.738 6.34998L196.538 7.94998L196.594 7.99151L196.652 8.02912L197.738 6.34998ZM206.138 17.55L204.241 18.1824L204.245 18.1934L204.249 18.2043L206.138 17.55ZM265.638 189.4L263.749 190.054L265.63 195.487L267.527 190.06L265.638 189.4ZM324.3 15.4901L321.778 22.7089L325.554 24.0286L328.077 16.8098L324.3 15.4901ZM316.732 37.1464L311.686 51.5839L315.462 52.9036L320.508 38.4661L316.732 37.1464ZM306.64 66.0214L301.594 80.4589L305.37 81.7786L310.416 67.3411L306.64 66.0214ZM296.548 94.8964L291.503 109.334L295.279 110.654L300.324 96.2161L296.548 94.8964ZM286.457 123.771L281.411 138.209L285.187 139.529L290.233 125.091L286.457 123.771ZM276.365 152.646L271.319 167.084L275.095 168.404L280.141 153.966L276.365 152.646ZM266.273 181.521L263.75 188.74L267.527 190.06L270.049 182.841L266.273 181.521ZM267.528 188.746L265.049 181.585L261.269 182.894L263.749 190.054L267.528 188.746ZM260.091 167.264L255.133 152.944L251.353 154.252L256.311 168.573L260.091 167.264ZM250.174 138.623L245.216 124.302L241.436 125.611L246.394 139.931L250.174 138.623ZM240.258 109.981L235.299 95.6602L231.519 96.9689L236.478 111.29L240.258 109.981ZM230.341 81.3394L225.383 67.0185L221.603 68.3272L226.561 82.6481L230.341 81.3394ZM220.424 52.6977L215.466 38.3769L211.686 39.6856L216.644 54.0064L220.424 52.6977ZM210.508 24.0561L208.028 16.8956L204.249 18.2043L206.728 25.3648L210.508 24.0561ZM208.036 16.9175C207.619 15.6666 207.128 14.4779 206.562 13.3535L202.989 15.1525C203.464 16.0942 203.881 17.1035 204.241 18.1824L208.036 16.9175ZM201.917 7.0857C200.967 6.19461 199.936 5.38972 198.825 4.67084L196.652 8.02912C197.567 8.62099 198.409 9.27896 199.18 10.0029L201.917 7.0857ZM198.938 4.74998C197.963 4.01805 196.959 3.37005 195.926 2.80834L194.014 6.32196C194.868 6.78658 195.71 7.32847 196.538 7.94998L198.938 4.74998ZM189.097 0.443088C187.914 0.247238 186.711 0.149991 185.488 0.149991V4.14999C186.498 4.14999 187.483 4.23023 188.444 4.38935L189.097 0.443088ZM185.488 0.149991C184.266 0.149991 183.062 0.247238 181.88 0.443088L182.533 4.38935C183.494 4.23023 184.479 4.14999 185.488 4.14999V0.149991ZM175.051 2.80834C174.018 3.37005 173.014 4.01805 172.038 4.74998L174.438 7.94998C175.267 7.32847 176.109 6.78658 176.963 6.32196L175.051 2.80834ZM172.105 4.7019C171.06 5.42039 170.088 6.21598 169.189 7.08861L171.975 9.9586C172.71 9.24499 173.508 8.59149 174.372 7.99806L172.105 4.7019ZM164.756 13.1293C164.203 14.2081 163.719 15.3454 163.301 16.5393L167.076 17.8607C167.437 16.8293 167.851 15.8607 168.316 14.9529L164.756 13.1293ZM163.307 16.5224L160.755 23.6099L164.518 24.9651L167.07 17.8776L163.307 16.5224ZM155.651 37.7849L150.546 51.9599L154.31 53.3151L159.414 39.1401L155.651 37.7849ZM145.442 66.1349L140.338 80.3099L144.101 81.6651L149.206 67.4901L145.442 66.1349ZM135.234 94.4849L130.13 108.66L133.893 110.015L138.997 95.8401L135.234 94.4849ZM125.026 122.835L119.921 137.01L123.685 138.365L128.789 124.19L125.026 122.835ZM114.817 151.185L109.713 165.36L113.476 166.715L118.581 152.54L114.817 151.185ZM104.609 179.535L102.057 186.622L105.82 187.978L108.372 180.89L104.609 179.535ZM105.828 186.643L103.348 179.512L99.5702 180.825L102.049 187.957L105.828 186.643ZM98.3901 165.25L93.4317 150.987L89.6536 152.3L94.6119 166.563L98.3901 165.25ZM88.4734 136.725L83.5151 122.462L79.7369 123.775L84.6952 138.038L88.4734 136.725ZM78.5567 108.2L73.5984 93.937L69.8202 95.2505L74.7786 109.513L78.5567 108.2ZM68.6401 79.6745L63.6817 65.412L59.9035 66.7255L64.8619 80.988L68.6401 79.6745ZM58.7234 51.1495L53.7651 36.887L49.9869 38.2005L54.9452 52.463L58.7234 51.1495ZM48.8067 22.6245L46.3276 15.4933L42.5494 16.8067L45.0286 23.938L48.8067 22.6245ZM46.3262 15.4893C45.9131 14.3091 45.4345 13.1894 44.8884 12.1324L41.3346 13.9683C41.7894 14.8486 42.1954 15.7953 42.5508 16.8107L46.3262 15.4893ZM40.4239 6.21834C39.5078 5.37562 38.5153 4.62078 37.4485 3.95399L35.3285 7.34598C36.1891 7.88388 36.9842 8.48922 37.7158 9.16217L40.4239 6.21834ZM37.4485 3.95399C36.4223 3.31261 35.3613 2.75108 34.2661 2.27034L32.6584 5.93305C33.5738 6.33485 34.4637 6.80552 35.3285 7.34598L37.4485 3.95399ZM27.3458 0.370817C26.1843 0.223172 24.9983 0.149991 23.7885 0.149991V4.14999C24.8367 4.14999 25.8541 4.21338 26.8414 4.33889L27.3458 0.370817ZM23.7885 0.149991C22.2721 0.149991 20.7921 0.260659 19.3499 0.484182L19.9625 4.43699C21.1923 4.24639 22.4672 4.14999 23.7885 4.14999V0.149991ZM10.8761 3.35333C9.5819 4.06402 8.33959 4.89043 7.14919 5.83022L9.62776 8.96975C10.6503 8.16246 11.7082 7.45981 12.8014 6.85945L10.8761 3.35333ZM7.10811 5.86354C5.95087 6.82791 4.92762 7.88194 4.04481 9.02712L7.21276 11.4693C7.90648 10.5694 8.72303 9.72461 9.66885 8.93643L7.10811 5.86354ZM0.477346 17.0765C0.216284 18.4606 0.0884772 19.9029 0.0884772 21.4H4.08848C4.08848 20.1307 4.19681 18.9378 4.40804 17.8179L0.477346 17.0765ZM0.0884772 21.4C0.0884772 22.2215 0.141929 23.0736 0.245812 23.9546L4.21829 23.4862C4.13074 22.7437 4.08848 22.0488 4.08848 21.4H0.0884772ZM1.23054 28.809C1.43945 29.564 1.67647 30.3385 1.94111 31.1324L5.73584 29.8675C5.49136 29.1341 5.2748 28.4257 5.08568 27.7422L1.23054 28.809ZM1.95751 31.1797L4.64501 38.6172L8.40694 37.2578L5.71944 29.8203L1.95751 31.1797ZM10.02 53.4922L15.395 68.3672L19.1569 67.0078L13.7819 52.1328L10.02 53.4922ZM20.77 83.2422L26.145 98.1172L29.9069 96.7578L24.5319 81.8828L20.77 83.2422ZM31.52 112.992L36.895 127.867L40.6569 126.508L35.2819 111.633L31.52 112.992ZM42.27 142.742L47.645 157.617L51.4069 156.258L46.0319 141.383L42.27 142.742ZM53.02 172.492L58.395 187.367L62.157 186.008L56.7819 171.133L53.02 172.492ZM63.77 202.242L69.145 217.117L72.907 215.758L67.5319 200.883L63.77 202.242ZM74.52 231.992L77.2075 239.43L80.9694 238.07L78.2819 230.633L74.52 231.992ZM77.2008 239.411C77.6364 240.655 78.1587 241.838 78.7693 242.958L82.2809 241.042C81.7788 240.122 81.3433 239.138 80.9762 238.089L77.2008 239.411ZM83.657 249.022C84.6232 249.858 85.6702 250.619 86.7956 251.307L88.8814 247.893C87.9351 247.315 87.0666 246.683 86.2734 245.997L83.657 249.022ZM86.8364 251.331C88.0079 252.009 89.2053 252.605 90.4286 253.117L91.9743 249.428C90.9125 248.983 89.868 248.464 88.8406 247.869L86.8364 251.331ZM98.1857 255.198C99.5003 255.366 100.835 255.45 102.188 255.45V251.45C101 251.45 99.8356 251.376 98.694 251.23L98.1857 255.198ZM102.188 255.45C103.52 255.45 104.827 255.369 106.109 255.206L105.603 251.238C104.496 251.379 103.357 251.45 102.188 251.45V255.45ZM113.723 253.13C114.926 252.608 116.096 252 117.231 251.307L115.146 247.893C114.167 248.492 113.163 249.013 112.133 249.459L113.723 253.13ZM117.191 251.331C118.36 250.654 119.454 249.905 120.469 249.083L117.952 245.974C117.106 246.659 116.185 247.291 115.186 247.869L117.191 251.331ZM125.723 243.066C126.403 241.94 126.993 240.749 127.495 239.493L123.782 238.007C123.357 239.069 122.862 240.065 122.299 240.998L125.723 243.066ZM127.521 239.425L129.986 232.557L126.221 231.206L123.756 238.075L127.521 239.425ZM134.915 218.819L139.844 205.082L136.079 203.731L131.15 217.468L134.915 218.819ZM144.773 191.344L149.702 177.607L145.937 176.256L141.008 189.993L144.773 191.344ZM154.631 163.869L159.561 150.132L155.796 148.781L150.866 162.518L154.631 163.869ZM164.49 136.394L169.419 122.657L165.654 121.306L160.725 135.043L164.49 136.394ZM174.348 108.919L179.277 95.1817L175.512 93.8308L170.583 107.568L174.348 108.919ZM184.206 81.4442L186.671 74.5754L182.906 73.2245L180.441 80.0933L184.206 81.4442ZM182.902 74.5648L185.323 81.4335L189.096 80.1039L186.675 73.2352L182.902 74.5648ZM190.165 95.171L195.006 108.909L198.779 107.579L193.937 93.8414L190.165 95.171ZM199.848 122.646L204.69 136.384L208.462 135.054L203.621 121.316L199.848 122.646ZM209.531 150.121L214.373 163.859L218.146 162.529L213.304 148.791L209.531 150.121ZM219.215 177.596L224.056 191.334L227.829 190.004L222.987 176.266L219.215 177.596ZM228.898 205.071L233.74 218.809L237.512 217.479L232.671 203.741L228.898 205.071ZM238.581 232.546L241.002 239.415L244.775 238.085L242.354 231.216L238.581 232.546ZM241.001 239.411C241.445 240.681 241.988 241.888 242.629 243.027L246.115 241.065C245.593 240.138 245.146 239.147 244.776 238.089L241.001 239.411ZM247.744 249.095C248.742 249.913 249.824 250.658 250.986 251.331L252.991 247.869C252.004 247.298 251.101 246.675 250.279 246.001L247.744 249.095ZM250.986 251.331C252.158 252.009 253.355 252.605 254.579 253.117L256.124 249.428C255.063 248.983 254.018 248.464 252.991 247.869L250.986 251.331ZM262.336 255.198C263.65 255.366 264.985 255.45 266.338 255.45V251.45C265.15 251.45 263.986 251.376 262.844 251.23L262.336 255.198ZM266.338 255.45C267.67 255.45 268.977 255.369 270.259 255.206L269.754 251.238C268.646 251.379 267.507 251.45 266.338 251.45V255.45ZM277.873 253.13C279.076 252.608 280.246 252 281.381 251.307L279.296 247.893C278.317 248.492 277.313 249.013 276.283 249.459L277.873 253.13ZM281.341 251.331C282.51 250.654 283.604 249.905 284.619 249.083L282.102 245.974C281.256 246.659 280.335 247.291 279.336 247.869L281.341 251.331ZM289.873 243.066C290.553 241.94 291.143 240.749 291.645 239.493L287.932 238.007C287.507 239.069 287.012 240.065 286.449 240.998L289.873 243.066ZM291.669 239.43L294.357 231.992L290.595 230.633L287.908 238.07L291.669 239.43ZM299.732 217.117L305.107 202.242L301.345 200.883L295.97 215.758L299.732 217.117ZM310.482 187.367L315.857 172.492L312.095 171.133L306.72 186.008L310.482 187.367ZM321.232 157.617L326.607 142.742L322.845 141.383L317.47 156.258L321.232 157.617ZM331.982 127.867L337.357 112.992L333.595 111.633L328.22 126.508L331.982 127.867ZM342.732 98.1172L348.107 83.2422L344.345 81.8828L338.97 96.7578L342.732 98.1172ZM353.482 68.3672L358.857 53.4921L355.095 52.1328L349.72 67.0078L353.482 68.3672ZM364.232 38.6172L366.919 31.1797L363.158 29.8203L360.47 37.2578L364.232 38.6172ZM366.957 31.0643C367.193 30.2637 367.406 29.497 367.597 28.7646L363.725 27.7571C363.547 28.4448 363.345 29.1709 363.12 29.9356L366.957 31.0643ZM368.589 23.9891C368.718 23.0555 368.789 22.1894 368.789 21.4H364.789C364.789 21.9605 364.738 22.6371 364.627 23.4389L368.589 23.9891ZM368.789 21.4C368.789 19.9029 368.661 18.4606 368.4 17.0765L364.469 17.8179C364.68 18.9378 364.789 20.1307 364.789 21.4H368.789ZM364.832 9.02712C363.949 7.88194 362.926 6.82791 361.769 5.86354L359.208 8.93643C360.154 9.72461 360.971 10.5694 361.664 11.4693L364.832 9.02712ZM361.812 5.90031C360.726 4.94198 359.578 4.09927 358.368 3.3752L356.314 6.80749C357.306 7.40115 358.256 8.09752 359.165 8.89967L361.812 5.90031ZM350.351 0.478369C348.988 0.258472 347.584 0.149991 346.139 0.149991V4.14999C347.383 4.14999 348.574 4.24339 349.713 4.42726L350.351 0.478369ZM346.139 0.149991C344.957 0.149991 343.795 0.22672 342.652 0.381237L343.188 4.34519C344.148 4.21541 345.131 4.14999 346.139 4.14999V0.149991ZM335.914 2.3038C334.859 2.7775 333.83 3.32798 332.828 3.95399L334.948 7.34598C335.8 6.81384 336.668 6.34988 337.552 5.95285L335.914 2.3038ZM332.779 3.98589C331.754 4.66945 330.8 5.44336 329.919 6.30653L332.718 9.16381C333.421 8.47517 334.181 7.85896 334.998 7.31409L332.779 3.98589ZM325.684 12.2013C325.166 13.2378 324.705 14.3344 324.301 15.4893L328.076 16.8107C328.428 15.8049 328.824 14.8659 329.261 13.9917L325.684 12.2013Z" fill="black"/>
</svg>
