<svg width="173" height="182" viewBox="0 0 173 182" fill="none" xmlns="http://www.w3.org/2000/svg">
<path d="M164.51 144.8C168.71 149 170.81 153.783 170.81 159.15C170.81 164.283 168.827 168.95 164.86 173.15C160.894 177.117 156.227 179.1 150.86 179.1C145.027 179.1 140.01 176.65 135.81 171.75L86.4604 117.15L37.1104 171.75C32.677 176.417 27.6604 178.75 22.0604 178.75C16.927 178.75 12.377 176.767 8.41035 172.8C4.44369 168.833 2.46035 164.283 2.46035 159.15C2.46035 153.783 4.56035 149 8.76035 144.8L59.8604 89.15L11.5604 36.65C7.36035 32.45 5.26035 27.6667 5.26035 22.3C5.26035 16.9333 7.24369 12.3833 11.2104 8.64999C15.177 4.68332 19.727 2.69999 24.8604 2.69999C30.4604 2.69999 35.477 5.03333 39.9104 9.69999L86.4604 60.8L133.01 9.69999C137.444 5.03333 142.46 2.69999 148.06 2.69999C153.427 2.69999 157.977 4.68332 161.71 8.64999C165.677 12.3833 167.66 16.9333 167.66 22.3C167.66 27.6667 165.56 32.45 161.36 36.65L113.06 89.15L164.51 144.8Z" fill="#F5F5F5"/>
<path d="M164.51 144.8L163.776 145.479L163.789 145.493L163.803 145.507L164.51 144.8ZM164.86 173.15L165.567 173.857L165.578 173.847L165.587 173.837L164.86 173.15ZM135.81 171.75L136.57 171.099L136.561 171.089L136.552 171.079L135.81 171.75ZM86.4604 117.15L87.2022 116.479L86.4604 115.659L85.7185 116.479L86.4604 117.15ZM37.1104 171.75L37.8354 172.439L37.8439 172.43L37.8522 172.421L37.1104 171.75ZM8.41035 172.8L7.70325 173.507L8.41035 172.8ZM8.76035 144.8L9.46746 145.507L9.48252 145.492L9.49693 145.476L8.76035 144.8ZM59.8604 89.15L60.5969 89.8263L61.2186 89.1493L60.5963 88.4729L59.8604 89.15ZM11.5604 36.65L12.2963 35.9729L12.2822 35.9576L12.2675 35.9429L11.5604 36.65ZM11.2104 8.64999L11.8957 9.37819L11.9067 9.36781L11.9175 9.35709L11.2104 8.64999ZM39.9104 9.69999L40.6496 9.02657L40.6426 9.01883L40.6354 9.01125L39.9104 9.69999ZM86.4604 60.8L85.7211 61.4734L86.4604 62.2849L87.1996 61.4734L86.4604 60.8ZM133.01 9.69999L132.285 9.01125L132.278 9.01883L132.271 9.02657L133.01 9.69999ZM161.71 8.64999L160.982 9.33535L161.003 9.35742L161.025 9.37819L161.71 8.64999ZM161.36 36.65L160.653 35.9429L160.639 35.9576L160.624 35.9729L161.36 36.65ZM113.06 89.15L112.324 88.4729L111.7 89.1517L112.326 89.8288L113.06 89.15ZM165.245 144.121L160.957 139.484L159.489 140.841L163.776 145.479L165.245 144.121ZM152.382 130.209L143.807 120.934L142.339 122.291L150.914 131.566L152.382 130.209ZM135.232 111.659L126.657 102.384L125.189 103.741L133.764 113.016L135.232 111.659ZM118.082 93.1086L113.795 88.4711L112.326 89.8288L116.614 94.4664L118.082 93.1086ZM113.796 89.8271L119.834 83.2646L118.362 81.9104L112.324 88.4729L113.796 89.8271ZM131.909 70.1395L143.984 57.0145L142.512 55.6604L130.437 68.7854L131.909 70.1395ZM156.059 43.8895L162.096 37.327L160.624 35.9729L154.587 42.5354L156.059 43.8895ZM162.067 37.3571C163.09 36.3345 163.997 35.2739 164.786 34.1749L163.162 33.0084C162.44 34.0127 161.605 34.9911 160.653 35.9429L162.067 37.3571ZM168.228 26.5056C168.517 25.1403 168.66 23.738 168.66 22.3H166.66C166.66 23.6038 166.53 24.8671 166.271 26.0914L168.228 26.5056ZM168.66 22.3C168.66 20.9189 168.535 19.5833 168.281 18.2946L166.319 18.6803C166.546 19.8345 166.66 21.0406 166.66 22.3H168.66ZM165.06 10.9282C164.291 9.87089 163.402 8.86894 162.396 7.92179L161.025 9.37819C161.946 10.2455 162.751 11.1544 163.442 12.1043L165.06 10.9282ZM162.439 7.96462C161.491 6.95828 160.489 6.0695 159.432 5.30078L158.256 6.91845C159.206 7.60908 160.115 8.41388 160.982 9.33535L162.439 7.96462ZM152.066 2.07887C150.777 1.82558 149.441 1.69999 148.06 1.69999V3.69999C149.32 3.69999 150.526 3.81447 151.68 4.04132L152.066 2.07887ZM148.06 1.69999C146.536 1.69999 145.049 1.86473 143.6 2.19556L144.045 4.14536C145.343 3.8489 146.681 3.69999 148.06 3.69999V1.69999ZM135.571 6.04309C134.439 6.9073 133.343 7.89746 132.285 9.01125L133.735 10.3887C134.727 9.34532 135.743 8.42757 136.784 7.63316L135.571 6.04309ZM132.271 9.02657L126.452 15.4141L127.931 16.7609L133.75 10.3734L132.271 9.02657ZM114.815 28.1891L103.177 40.9641L104.656 42.3109L116.293 29.5359L114.815 28.1891ZM91.5399 53.7391L85.7211 60.1266L87.1996 61.4734L93.0184 55.0859L91.5399 53.7391ZM87.1996 60.1266L81.3809 53.7391L79.9024 55.0859L85.7211 61.4734L87.1996 60.1266ZM69.7434 40.9641L58.1059 28.1891L56.6274 29.5359L68.2648 42.3109L69.7434 40.9641ZM46.4684 15.4141L40.6496 9.02657L39.1711 10.3734L44.9898 16.7609L46.4684 15.4141ZM40.6354 9.01125C39.5773 7.89746 38.4822 6.9073 37.3494 6.04309L36.1363 7.63316C37.1775 8.42757 38.1941 9.34532 39.1854 10.3887L40.6354 9.01125ZM29.3208 2.19556C27.8721 1.86473 26.3848 1.69999 24.8604 1.69999V3.69999C26.2395 3.69999 27.5773 3.8489 28.8755 4.14536L29.3208 2.19556ZM24.8604 1.69999C23.4901 1.69999 22.155 1.83456 20.8563 2.10518L21.2643 4.06312C22.4236 3.82153 23.6219 3.69999 24.8604 3.69999V1.69999ZM13.5383 5.35689C12.4879 6.10697 11.4764 6.9697 10.5032 7.94288L11.9175 9.35709C12.8185 8.45601 13.7464 7.66587 14.7006 6.98448L13.5383 5.35689ZM10.525 7.92179C9.51864 8.86894 8.62986 9.87089 7.86114 10.9282L9.47881 12.1043C10.1694 11.1544 10.9742 10.2455 11.8957 9.37819L10.525 7.92179ZM4.63923 18.2946C4.38595 19.5833 4.26035 20.9189 4.26035 22.3H6.26035C6.26035 21.0406 6.37483 19.8345 6.60168 18.6803L4.63923 18.2946ZM4.26035 22.3C4.26035 23.738 4.40414 25.1403 4.69313 26.5056L6.64978 26.0914C6.39063 24.8671 6.26035 23.6038 6.26035 22.3H4.26035ZM8.13449 34.1749C8.92365 35.2739 9.83063 36.3345 10.8532 37.3571L12.2675 35.9429C11.3156 34.9911 10.4802 34.0127 9.75905 33.0084L8.13449 34.1749ZM10.8244 37.327L16.8619 43.8895L18.3338 42.5354L12.2963 35.9729L10.8244 37.327ZM28.9369 57.0145L41.0119 70.1395L42.4838 68.7854L30.4088 55.6604L28.9369 57.0145ZM53.0869 83.2646L59.1244 89.8271L60.5963 88.4729L54.5588 81.9104L53.0869 83.2646ZM59.1238 88.4736L54.8654 93.1111L56.3386 94.4638L60.5969 89.8263L59.1238 88.4736ZM46.3488 102.386L37.8321 111.661L39.3053 113.014L47.8219 103.739L46.3488 102.386ZM29.3154 120.936L20.7988 130.211L22.2719 131.564L30.7886 122.289L29.3154 120.936ZM12.2821 139.486L8.02378 144.124L9.49693 145.476L13.7553 140.839L12.2821 139.486ZM8.05325 144.093C7.03063 145.116 6.12365 146.176 5.33449 147.275L6.95905 148.442C7.68023 147.437 8.51564 146.459 9.46746 145.507L8.05325 144.093ZM1.89313 154.944C1.60414 156.31 1.46035 157.712 1.46035 159.15H3.46035C3.46035 157.846 3.59063 156.583 3.84978 155.359L1.89313 154.944ZM1.46035 159.15C1.46035 160.52 1.59492 161.855 1.86554 163.154L3.82348 162.746C3.58189 161.587 3.46035 160.388 3.46035 159.15H1.46035ZM5.11725 170.472C5.86734 171.522 6.73006 172.534 7.70325 173.507L9.11746 172.093C8.21637 171.192 7.42623 170.264 6.74484 169.31L5.11725 170.472ZM7.70325 173.507C8.67643 174.48 9.68793 175.343 10.7383 176.093L11.9006 174.466C10.9464 173.784 10.0185 172.994 9.11746 172.093L7.70325 173.507ZM18.0563 179.345C19.355 179.615 20.6901 179.75 22.0604 179.75V177.75C20.8219 177.75 19.6236 177.628 18.4643 177.387L18.0563 179.345ZM22.0604 179.75C23.5848 179.75 25.0721 179.585 26.5208 179.254L26.0755 177.305C24.7773 177.601 23.4395 177.75 22.0604 177.75V179.75ZM34.5494 175.407C35.6822 174.543 36.7773 173.553 37.8354 172.439L36.3854 171.061C35.3941 172.105 34.3775 173.022 33.3363 173.817L34.5494 175.407ZM37.8522 172.421L44.021 165.596L42.5372 164.254L36.3685 171.079L37.8522 172.421ZM56.3585 151.946L68.696 138.296L67.2122 136.954L54.8747 150.604L56.3585 151.946ZM81.0335 124.646L87.2022 117.821L85.7185 116.479L79.5497 123.304L81.0335 124.646ZM85.7185 117.821L91.8872 124.646L93.371 123.304L87.2022 116.479L85.7185 117.821ZM104.225 138.296L116.562 151.946L118.046 150.604L105.708 136.954L104.225 138.296ZM128.9 165.596L135.068 172.421L136.552 171.079L130.383 164.254L128.9 165.596ZM135.051 172.401C136.068 173.587 137.136 174.641 138.257 175.559L139.525 174.012C138.502 173.175 137.517 172.205 136.57 171.099L135.051 172.401ZM146.342 179.599C147.797 179.934 149.304 180.1 150.86 180.1V178.1C149.448 178.1 148.092 177.949 146.79 177.65L146.342 179.599ZM150.86 180.1C152.261 180.1 153.621 179.971 154.939 179.711L154.552 177.749C153.367 177.982 152.137 178.1 150.86 178.1V180.1ZM162.45 176.487C163.536 175.727 164.575 174.85 165.567 173.857L164.153 172.443C163.238 173.359 162.287 174.16 161.303 174.849L162.45 176.487ZM165.587 173.837C166.548 172.82 167.4 171.772 168.142 170.693L166.495 169.559C165.815 170.547 165.029 171.515 164.133 172.463L165.587 173.837ZM171.395 163.228C171.672 161.899 171.81 160.539 171.81 159.15H169.81C169.81 160.405 169.685 161.628 169.437 162.819L171.395 163.228ZM171.81 159.15C171.81 157.712 171.667 156.31 171.378 154.944L169.421 155.359C169.68 156.583 169.81 157.846 169.81 159.15H171.81ZM167.936 147.275C167.147 146.176 166.24 145.116 165.217 144.093L163.803 145.507C164.755 146.459 165.59 147.437 166.312 148.442L167.936 147.275ZM164.51 144.8L163.042 146.158L163.068 146.186L163.096 146.214L164.51 144.8ZM164.86 173.15L166.275 174.564L166.295 174.544L166.314 174.523L164.86 173.15ZM135.81 171.75L137.329 170.448L137.312 170.428L137.294 170.409L135.81 171.75ZM86.4604 117.15L87.9441 115.809L86.4604 114.167L84.9766 115.809L86.4604 117.15ZM37.1104 171.75L38.5604 173.127L38.5775 173.109L38.5941 173.091L37.1104 171.75ZM8.41035 172.8L6.99614 174.214L8.41035 172.8ZM8.76035 144.8L10.1746 146.214L10.2047 146.184L10.2335 146.153L8.76035 144.8ZM59.8604 89.15L61.3335 90.5027L62.5768 89.1487L61.3322 87.7959L59.8604 89.15ZM11.5604 36.65L13.0322 35.2959L13.004 35.2652L12.9746 35.2358L11.5604 36.65ZM11.2104 8.64999L12.5811 10.1064L12.6031 10.0856L12.6246 10.0642L11.2104 8.64999ZM39.9104 9.69999L41.3889 8.35314L41.3748 8.33767L41.3604 8.3225L39.9104 9.69999ZM86.4604 60.8L84.9818 62.1469L86.4604 63.7699L87.9389 62.1469L86.4604 60.8ZM133.01 9.69999L131.56 8.3225L131.546 8.33767L131.532 8.35314L133.01 9.69999ZM161.71 8.64999L160.254 10.0207L160.296 10.0649L160.34 10.1064L161.71 8.64999ZM161.36 36.65L159.946 35.2358L159.917 35.2652L159.888 35.2959L161.36 36.65ZM113.06 89.15L111.588 87.7959L110.34 89.1533L111.592 90.5077L113.06 89.15ZM165.979 143.442L161.691 138.805L158.754 141.52L163.042 146.158L165.979 143.442ZM153.116 129.53L144.541 120.255L141.604 122.97L150.179 132.245L153.116 129.53ZM135.966 110.98L127.391 101.705L124.454 104.42L133.029 113.695L135.966 110.98ZM118.816 92.4298L114.529 87.7923L111.592 90.5077L115.879 95.1452L118.816 92.4298ZM114.532 90.5041L120.57 83.9416L117.626 81.2334L111.588 87.7959L114.532 90.5041ZM132.645 70.8166L144.72 57.6916L141.776 54.9834L129.701 68.1084L132.645 70.8166ZM156.795 44.5666L162.832 38.0041L159.888 35.2959L153.851 41.8584L156.795 44.5666ZM162.775 38.0642C163.833 37.0062 164.775 35.9045 165.599 34.7582L162.349 32.4251C161.662 33.3821 160.863 34.3194 159.946 35.2358L162.775 38.0642ZM169.206 26.7127C169.51 25.277 169.66 23.8051 169.66 22.3H165.66C165.66 23.5367 165.537 24.7305 165.293 25.8844L169.206 26.7127ZM169.66 22.3C169.66 20.858 169.529 19.4576 169.263 18.1018L165.338 18.8732C165.551 19.9601 165.66 21.1014 165.66 22.3H169.66ZM165.868 10.3402C165.061 9.22915 164.13 8.18068 163.081 7.19359L160.34 10.1064C161.219 10.9337 161.981 11.7961 162.633 12.6924L165.868 10.3402ZM163.167 7.27926C162.18 6.23048 161.131 5.2997 160.02 4.49195L157.668 7.72728C158.564 8.37888 159.427 9.14169 160.254 10.0207L163.167 7.27926ZM152.259 1.09764C150.903 0.831143 149.502 0.699991 148.06 0.699991V4.69999C149.259 4.69999 150.4 4.80891 151.487 5.02255L152.259 1.09764ZM148.06 0.699991C146.463 0.699991 144.901 0.872647 143.377 1.22066L144.268 5.12026C145.491 4.84098 146.754 4.69999 148.06 4.69999V0.699991ZM134.965 5.24805C133.786 6.14716 132.652 7.17353 131.56 8.3225L134.46 11.0775C135.418 10.0693 136.395 9.1877 137.391 8.4282L134.965 5.24805ZM131.532 8.35314L125.713 14.7406L128.67 17.4344L134.489 11.0469L131.532 8.35314ZM114.076 27.5156L102.438 40.2906L105.395 42.9843L117.033 30.2094L114.076 27.5156ZM90.8006 53.0656L84.9818 59.4531L87.9389 62.1469L93.7576 55.7594L90.8006 53.0656ZM87.9389 59.4531L82.1201 53.0656L79.1631 55.7594L84.9818 62.1469L87.9389 59.4531ZM70.4826 40.2906L58.8451 27.5156L55.8881 30.2094L67.5256 42.9844L70.4826 40.2906ZM47.2076 14.7406L41.3889 8.35314L38.4318 11.0469L44.2506 17.4344L47.2076 14.7406ZM41.3604 8.3225C40.2688 7.17353 39.1345 6.14717 37.956 5.24805L35.5297 8.4282C36.5252 9.1877 37.5025 10.0693 38.4604 11.0775L41.3604 8.3225ZM29.5434 1.22066C28.0195 0.872647 26.4574 0.699991 24.8604 0.699991V4.69999C26.1669 4.69999 27.4299 4.84098 28.6528 5.12026L29.5434 1.22066ZM24.8604 0.699991C23.4242 0.699991 22.0206 0.84107 20.6523 1.12621L21.4683 5.04209C22.558 4.81502 23.6877 4.69999 24.8604 4.69999V0.699991ZM12.9571 4.54309C11.8587 5.32752 10.8054 6.22654 9.79614 7.23577L12.6246 10.0642C13.4896 9.19916 14.3757 8.44531 15.2817 7.79827L12.9571 4.54309ZM9.83962 7.19359C8.79084 8.18068 7.86007 9.22915 7.05231 10.3402L10.2876 12.6924C10.9392 11.7961 11.702 10.9337 12.5811 10.1064L9.83962 7.19359ZM3.65801 18.1018C3.3915 19.4576 3.26035 20.858 3.26035 22.3H7.26035C7.26035 21.1014 7.36927 19.9601 7.58291 18.8732L3.65801 18.1018ZM3.26035 22.3C3.26035 23.8051 3.4109 25.277 3.71481 26.7127L7.6281 25.8844C7.38387 24.7305 7.26035 23.5367 7.26035 22.3H3.26035ZM7.32221 34.7582C8.14536 35.9045 9.08812 37.0062 10.1461 38.0642L12.9746 35.2358C12.0581 34.3194 11.2585 33.3821 10.5713 32.4251L7.32221 34.7582ZM10.0885 38.0041L16.126 44.5666L19.0697 41.8584L13.0322 35.2959L10.0885 38.0041ZM28.201 57.6916L40.276 70.8166L43.2197 68.1084L31.1447 54.9834L28.201 57.6916ZM52.351 83.9416L58.3885 90.5041L61.3322 87.7959L55.2947 81.2334L52.351 83.9416ZM58.3872 87.7973L54.1289 92.4348L57.0752 95.1402L61.3335 90.5027L58.3872 87.7973ZM45.6122 101.71L37.0955 110.985L40.0418 113.69L48.5585 104.415L45.6122 101.71ZM28.5789 120.26L20.0622 129.535L23.0085 132.24L31.5252 122.965L28.5789 120.26ZM11.5455 138.81L7.2872 143.447L10.2335 146.153L14.4918 141.515L11.5455 138.81ZM7.34614 143.386C6.28812 144.444 5.34537 145.545 4.52221 146.692L7.77133 149.025C8.45851 148.068 9.25814 147.131 10.1746 146.214L7.34614 143.386ZM0.914808 154.737C0.610901 156.173 0.460352 157.645 0.460352 159.15H4.46035C4.46035 157.913 4.58387 156.719 4.8281 155.566L0.914808 154.737ZM0.460352 159.15C0.460352 160.586 0.601431 161.99 0.88657 163.358L4.80245 162.542C4.57538 161.452 4.46035 160.323 4.46035 159.15H0.460352ZM4.30346 171.053C5.08789 172.152 5.98691 173.205 6.99614 174.214L9.82457 171.386C8.95953 170.521 8.20568 169.635 7.55864 168.729L4.30346 171.053ZM6.99614 174.214C8.00537 175.223 9.05868 176.122 10.1571 176.907L12.4817 173.652C11.5757 173.005 10.6896 172.251 9.82457 171.386L6.99614 174.214ZM17.8523 180.324C19.2206 180.609 20.6242 180.75 22.0604 180.75V176.75C20.8877 176.75 19.758 176.635 18.6683 176.408L17.8523 180.324ZM22.0604 180.75C23.6574 180.75 25.2195 180.577 26.7434 180.229L25.8528 176.33C24.6299 176.609 23.3669 176.75 22.0604 176.75V180.75ZM35.156 176.202C36.3345 175.303 37.4688 174.276 38.5604 173.127L35.6604 170.373C34.7025 171.381 33.7252 172.262 32.7297 173.022L35.156 176.202ZM38.5941 173.091L44.7628 166.266L41.7954 163.584L35.6266 170.409L38.5941 173.091ZM57.1003 152.616L69.4378 138.966L66.4704 136.284L54.1329 149.934L57.1003 152.616ZM81.7754 125.316L87.9441 118.491L84.9766 115.809L78.8079 122.634L81.7754 125.316ZM84.9766 118.491L91.1454 125.316L94.1128 122.634L87.9441 115.809L84.9766 118.491ZM103.483 138.966L115.82 152.616L118.788 149.934L106.45 136.284L103.483 138.966ZM128.158 166.266L134.327 173.091L137.294 170.409L131.125 163.584L128.158 166.266ZM134.292 173.052C135.344 174.279 136.454 175.374 137.623 176.333L140.158 173.239C139.185 172.441 138.241 171.513 137.329 170.448L134.292 173.052ZM146.117 180.573C147.65 180.926 149.232 181.1 150.86 181.1V177.1C149.52 177.1 148.239 176.957 147.014 176.675L146.117 180.573ZM150.86 181.1C152.323 181.1 153.747 180.965 155.133 180.692L154.359 176.768C153.241 176.988 152.075 177.1 150.86 177.1V181.1ZM163.023 177.307C164.16 176.511 165.244 175.595 166.275 174.564L163.446 171.736C162.569 172.613 161.663 173.376 160.73 174.03L163.023 177.307ZM166.314 174.523C167.308 173.472 168.193 172.384 168.966 171.259L165.671 168.993C165.022 169.935 164.269 170.863 163.406 171.777L166.314 174.523ZM172.373 163.432C172.665 162.034 172.81 160.606 172.81 159.15H168.81C168.81 160.338 168.692 161.493 168.458 162.615L172.373 163.432ZM172.81 159.15C172.81 157.645 172.66 156.173 172.356 154.737L168.443 155.566C168.687 156.719 168.81 157.913 168.81 159.15H172.81ZM168.749 146.692C167.925 145.545 166.983 144.444 165.925 143.386L163.096 146.214C164.013 147.131 164.812 148.068 165.499 149.025L168.749 146.692Z" fill="black"/>
</svg>
