<svg width="221" height="256" viewBox="0 0 221 256" fill="none" xmlns="http://www.w3.org/2000/svg">
<path d="M212.689 218.8C216.422 223.233 218.289 227.667 218.289 232.1C218.289 237.7 216.072 242.6 211.639 246.8C207.439 251 202.539 253.1 196.939 253.1C191.106 253.1 185.972 250.533 181.539 245.4L110.489 157.2L39.0891 245.4C34.8891 250.3 29.8724 252.75 24.0391 252.75C18.4391 252.75 13.4224 250.767 8.98906 246.8C4.78906 242.6 2.68906 237.7 2.68906 232.1C2.68906 227.433 4.43906 223 7.93906 218.8L84.2391 125.7L11.0891 36.45C7.58906 32.7167 5.83906 28.2833 5.83906 23.15C5.83906 17.55 7.93906 12.7667 12.1391 8.79999C16.3391 4.59999 21.2391 2.49999 26.8391 2.49999C32.6724 2.49999 37.8057 5.06666 42.2391 10.2L110.489 94.55L178.739 10.2C182.939 5.06666 187.956 2.49999 193.789 2.49999C199.389 2.49999 204.289 4.59999 208.489 8.79999C212.922 12.7667 215.139 17.55 215.139 23.15C215.139 28.2833 213.389 32.7167 209.889 36.45L136.739 125.7L212.689 218.8Z" fill="#F5F5F5"/>
<path d="M212.689 218.8L211.914 219.432L211.919 219.438L211.924 219.444L212.689 218.8ZM211.639 246.8L210.951 246.074L210.942 246.083L210.932 246.093L211.639 246.8ZM181.539 245.4L180.76 246.027L180.771 246.041L180.782 246.054L181.539 245.4ZM110.489 157.2L111.268 156.573L110.491 155.608L109.712 156.571L110.489 157.2ZM39.0891 245.4L39.8483 246.051L39.8575 246.04L39.8663 246.029L39.0891 245.4ZM8.98906 246.8L8.28196 247.507L8.30158 247.527L8.32227 247.545L8.98906 246.8ZM7.93906 218.8L8.70731 219.44L8.7125 219.434L7.93906 218.8ZM84.2391 125.7L85.0125 126.334L85.532 125.7L85.0125 125.066L84.2391 125.7ZM11.0891 36.45L11.8625 35.8161L11.8414 35.7903L11.8186 35.766L11.0891 36.45ZM12.1391 8.79999L12.8257 9.527L12.8361 9.5172L12.8462 9.5071L12.1391 8.79999ZM42.2391 10.2L43.0165 9.57098L43.0064 9.55851L42.9959 9.54637L42.2391 10.2ZM110.489 94.55L109.712 95.179L110.489 96.1398L111.266 95.179L110.489 94.55ZM178.739 10.2L177.965 9.56674L177.962 9.57098L178.739 10.2ZM208.489 8.79999L207.782 9.5071L207.802 9.52672L207.822 9.54523L208.489 8.79999ZM209.889 36.45L209.16 35.766L209.137 35.7903L209.116 35.8161L209.889 36.45ZM136.739 125.7L135.966 125.066L135.447 125.699L135.964 126.332L136.739 125.7ZM213.464 218.168L208.717 212.349L207.167 213.613L211.914 219.432L213.464 218.168ZM199.223 200.712L189.73 189.074L188.18 190.338L197.674 201.976L199.223 200.712ZM180.236 177.437L170.742 165.799L169.192 167.063L178.686 178.701L180.236 177.437ZM161.248 154.162L151.755 142.524L150.205 143.788L159.699 155.426L161.248 154.162ZM142.261 130.887L137.514 125.068L135.964 126.332L140.711 132.151L142.261 130.887ZM137.512 126.334L142.084 120.756L140.538 119.488L135.966 125.066L137.512 126.334ZM151.228 109.6L160.372 98.4433L158.825 97.1755L149.681 108.332L151.228 109.6ZM169.516 87.287L178.659 76.1308L177.113 74.863L167.969 86.0192L169.516 87.287ZM187.803 64.9745L196.947 53.8183L195.4 52.5505L186.256 63.7067L187.803 64.9745ZM206.091 42.662L210.662 37.0839L209.116 35.8161L204.544 41.3942L206.091 42.662ZM210.619 37.1339C211.517 36.1757 212.308 35.1696 212.991 34.1154L211.312 33.0283C210.698 33.9774 209.981 34.89 209.16 35.766L210.619 37.1339ZM215.808 26.9737C216.029 25.7387 216.139 24.4637 216.139 23.15H214.139C214.139 24.352 214.039 25.5087 213.839 26.6213L215.808 26.9737ZM216.139 23.15C216.139 21.6814 215.993 20.2601 215.7 18.888L213.744 19.3062C214.007 20.5336 214.139 21.8143 214.139 23.15H216.139ZM212.069 11.1597C211.225 10.0712 210.253 9.03646 209.156 8.05475L207.822 9.54523C208.836 10.4526 209.724 11.3996 210.489 12.3853L212.069 11.1597ZM209.196 8.09288C208.154 7.05098 207.066 6.12926 205.932 5.32995L204.78 6.96478C205.815 7.69374 206.815 8.54045 207.782 9.5071L209.196 8.09288ZM198.07 1.91631C196.685 1.63821 195.257 1.49999 193.789 1.49999V3.49999C195.131 3.49999 196.426 3.62627 197.676 3.87717L198.07 1.91631ZM193.789 1.49999C192.213 1.49999 190.687 1.67843 189.214 2.0377L189.688 3.98075C190.999 3.66104 192.365 3.49999 193.789 3.49999V1.49999ZM181.125 6.29778C180.021 7.2505 178.968 8.34115 177.965 9.56675L179.513 10.8332C180.45 9.68856 181.423 8.68254 182.432 7.81221L181.125 6.29778ZM177.962 9.57098L173.696 14.8429L175.251 16.1009L179.516 10.829L177.962 9.57098ZM165.165 25.3866L156.634 35.9304L158.188 37.1884L166.72 26.6446L165.165 25.3866ZM148.102 46.4741L139.571 57.0179L141.126 58.2759L149.657 47.7321L148.102 46.4741ZM131.04 67.5616L122.509 78.1054L124.063 79.3634L132.595 68.8196L131.04 67.5616ZM113.977 88.6491L109.712 93.921L111.266 95.179L115.532 89.9071L113.977 88.6491ZM111.266 93.921L107.001 88.6491L105.446 89.9071L109.712 95.179L111.266 93.921ZM98.4696 78.1054L89.9383 67.5616L88.3835 68.8196L96.9148 79.3634L98.4696 78.1054ZM81.4071 57.0179L72.8758 46.4741L71.321 47.7321L79.8523 58.2759L81.4071 57.0179ZM64.3446 35.9303L55.8133 25.3866L54.2585 26.6446L62.7898 37.1884L64.3446 35.9303ZM47.2821 14.8428L43.0165 9.57098L41.4617 10.829L45.7273 16.1009L47.2821 14.8428ZM42.9959 9.54637C41.947 8.33191 40.8551 7.25069 39.7191 6.30537L38.4398 7.84268C39.4838 8.71152 40.4983 9.71427 41.4822 10.8536L42.9959 9.54637ZM31.4839 2.04894C29.9816 1.68237 28.4326 1.49999 26.8391 1.49999V3.49999C28.2786 3.49999 29.6682 3.66457 31.0098 3.99193L31.4839 2.04894ZM26.8391 1.49999C25.3707 1.49999 23.9433 1.63821 22.5584 1.91631L22.9522 3.87717C24.2016 3.62627 25.4968 3.49999 26.8391 3.49999V1.49999ZM14.6959 5.32995C13.5617 6.12926 12.4739 7.05098 11.432 8.09288L12.8462 9.5071C13.8128 8.54045 14.8136 7.69374 15.848 6.96478L14.6959 5.32995ZM11.4524 8.07298C10.3972 9.0696 9.46454 10.1203 8.65698 11.2257L10.2719 12.4055C11.0026 11.4053 11.8531 10.4456 12.8257 9.527L11.4524 8.07298ZM5.24506 18.9426C4.97372 20.2977 4.83906 21.7007 4.83906 23.15H6.83906C6.83906 21.8251 6.9621 20.554 7.20613 19.3353L5.24506 18.9426ZM4.83906 23.15C4.83906 24.4637 4.94883 25.7387 5.16995 26.9737L7.13864 26.6213C6.93945 25.5087 6.83906 24.352 6.83906 23.15H4.83906ZM7.98707 34.1154C8.6697 35.1696 9.46115 36.1757 10.3595 37.1339L11.8186 35.766C10.9973 34.89 10.2804 33.9774 9.66584 33.0283L7.98707 34.1154ZM10.3156 37.0839L14.8875 42.662L16.4344 41.3942L11.8625 35.8161L10.3156 37.0839ZM24.0313 53.8183L33.175 64.9745L34.7219 63.7067L25.5781 52.5505L24.0313 53.8183ZM42.3188 76.1308L51.4625 87.287L53.0094 86.0192L43.8656 74.863L42.3188 76.1308ZM60.6063 98.4433L69.75 109.6L71.2969 108.332L62.1531 97.1755L60.6063 98.4433ZM78.8938 120.756L83.4656 126.334L85.0125 125.066L80.4406 119.488L78.8938 120.756ZM83.4656 125.066L78.6969 130.885L80.2438 132.153L85.0125 126.334L83.4656 125.066ZM69.1594 142.522L59.6219 154.16L61.1688 155.428L70.7063 143.79L69.1594 142.522ZM50.0844 165.797L40.5469 177.435L42.0937 178.703L51.6312 167.065L50.0844 165.797ZM31.0094 189.072L21.4719 200.71L23.0187 201.978L32.5562 190.34L31.0094 189.072ZM11.9344 212.347L7.16562 218.166L8.7125 219.434L13.4812 213.615L11.9344 212.347ZM7.17084 218.16C6.33489 219.163 5.59223 220.183 4.94437 221.22L6.64063 222.28C7.2368 221.325 7.92519 220.379 8.70728 219.44L7.17084 218.16ZM2.07058 228.275C1.81618 229.534 1.68906 230.809 1.68906 232.1H3.68906C3.68906 230.941 3.80307 229.799 4.03092 228.672L2.07058 228.275ZM1.68906 232.1C1.68906 233.568 1.82729 234.996 2.10539 236.381L4.06624 235.987C3.81534 234.737 3.68906 233.442 3.68906 232.1H1.68906ZM5.51902 244.243C6.31834 245.377 7.24005 246.465 8.28196 247.507L9.69617 246.093C8.72952 245.126 7.88282 244.125 7.15385 243.091L5.51902 244.243ZM8.32227 247.545C9.42256 248.53 10.5614 249.4 11.7392 250.153L12.8172 248.469C11.7351 247.776 10.6813 246.972 9.65586 246.055L8.32227 247.545ZM19.7352 253.356C21.1344 253.619 22.5694 253.75 24.0391 253.75V251.75C22.6889 251.75 21.3779 251.63 20.1051 251.39L19.7352 253.356ZM24.0391 253.75C25.5952 253.75 27.1021 253.584 28.5578 253.249L28.1092 251.3C26.8077 251.599 25.4516 251.75 24.0391 251.75V253.75ZM36.6423 249.209C37.763 248.291 38.8313 247.237 39.8483 246.051L38.3298 244.749C37.3824 245.855 36.3971 246.825 35.3747 247.662L36.6423 249.209ZM39.8663 246.029L44.3288 240.517L42.7743 239.258L38.3118 244.771L39.8663 246.029ZM53.2538 229.492L62.1788 218.467L60.6243 217.208L51.6993 228.233L53.2538 229.492ZM71.1038 207.442L80.0288 196.417L78.4743 195.158L69.5493 206.183L71.1038 207.442ZM88.9538 185.392L97.8788 174.367L96.3243 173.108L87.3993 184.133L88.9538 185.392ZM106.804 163.342L111.266 157.829L109.712 156.571L105.249 162.083L106.804 163.342ZM109.71 157.827L114.151 163.34L115.708 162.085L111.268 156.573L109.71 157.827ZM123.032 174.365L131.913 185.39L133.471 184.135L124.59 173.11L123.032 174.365ZM140.795 196.415L149.676 207.44L151.233 206.185L142.352 195.16L140.795 196.415ZM158.557 218.465L167.438 229.49L168.996 228.235L160.115 217.21L158.557 218.465ZM176.32 240.515L180.76 246.027L182.318 244.773L177.877 239.26L176.32 240.515ZM180.782 246.054C181.831 247.268 182.923 248.349 184.059 249.295L185.338 247.757C184.294 246.888 183.28 245.886 182.296 244.746L180.782 246.054ZM192.294 253.551C193.797 253.918 195.346 254.1 196.939 254.1V252.1C195.499 252.1 194.11 251.935 192.768 251.608L192.294 253.551ZM196.939 254.1C198.407 254.1 199.835 253.962 201.22 253.684L200.826 251.723C199.577 251.974 198.281 252.1 196.939 252.1V254.1ZM209.082 250.27C210.216 249.471 211.304 248.549 212.346 247.507L210.932 246.093C209.965 247.06 208.965 247.906 207.93 248.635L209.082 250.27ZM212.327 247.526C213.411 246.499 214.373 245.426 215.209 244.308L213.607 243.11C212.844 244.131 211.96 245.119 210.951 246.074L212.327 247.526ZM218.839 236.434C219.14 235.032 219.289 233.587 219.289 232.1H217.289C217.289 233.453 217.153 234.757 216.884 236.015L218.839 236.434ZM219.289 232.1C219.289 230.805 219.139 229.512 218.841 228.223L216.893 228.674C217.157 229.819 217.289 230.961 217.289 232.1H219.289ZM215.732 221.199C215.065 220.18 214.305 219.166 213.454 218.156L211.924 219.444C212.728 220.399 213.44 221.349 214.06 222.296L215.732 221.199ZM212.689 218.8L211.139 220.064L211.149 220.076L211.159 220.088L212.689 218.8ZM211.639 246.8L210.264 245.348L210.244 245.367L210.225 245.386L211.639 246.8ZM181.539 245.4L179.982 246.655L180.003 246.681L180.025 246.707L181.539 245.4ZM110.489 157.2L112.047 155.945L110.493 154.017L108.935 155.942L110.489 157.2ZM39.0891 245.4L40.6076 246.702L40.6259 246.68L40.6436 246.658L39.0891 245.4ZM8.98906 246.8L7.57485 248.214L7.6141 248.253L7.65547 248.29L8.98906 246.8ZM7.93906 218.8L9.47551 220.08L9.48075 220.074L9.48594 220.068L7.93906 218.8ZM84.2391 125.7L85.7859 126.968L86.825 125.7L85.7859 124.432L84.2391 125.7ZM11.0891 36.45L12.6359 35.1822L12.5937 35.1307L12.5481 35.0821L11.0891 36.45ZM12.1391 8.79999L13.5123 10.254L13.5331 10.2344L13.5533 10.2142L12.1391 8.79999ZM42.2391 10.2L43.7939 8.94197L43.7737 8.91703L43.7527 8.89275L42.2391 10.2ZM110.489 94.55L108.934 95.808L110.489 97.7296L112.044 95.808L110.489 94.55ZM178.739 10.2L177.191 8.9335L177.184 8.94197L178.739 10.2ZM208.489 8.79999L207.075 10.2142L207.114 10.2535L207.155 10.2905L208.489 8.79999ZM209.889 36.45L208.43 35.0821L208.384 35.1307L208.342 35.1822L209.889 36.45ZM136.739 125.7L135.192 124.432L134.156 125.697L135.189 126.964L136.739 125.7ZM214.239 217.536L209.492 211.717L206.392 214.246L211.139 220.064L214.239 217.536ZM199.998 200.079L190.504 188.442L187.405 190.971L196.899 202.608L199.998 200.079ZM181.011 176.804L171.517 165.167L168.417 167.696L177.911 179.333L181.011 176.804ZM162.023 153.529L152.529 141.892L149.43 144.421L158.924 156.058L162.023 153.529ZM143.036 130.254L138.289 124.436L135.189 126.964L139.936 132.783L143.036 130.254ZM138.286 126.968L142.858 121.39L139.764 118.854L135.192 124.432L138.286 126.968ZM152.002 110.233L161.145 99.0772L158.052 96.5416L148.908 107.698L152.002 110.233ZM170.289 87.9209L179.433 76.7647L176.339 74.2291L167.195 85.3853L170.289 87.9209ZM188.577 65.6084L197.72 54.4522L194.627 51.9166L185.483 63.0728L188.577 65.6084ZM206.864 43.2959L211.436 37.7178L208.342 35.1822L203.77 40.7603L206.864 43.2959ZM211.348 37.8179C212.285 36.8185 213.114 35.7657 213.83 34.6589L210.473 32.4848C209.892 33.3813 209.213 34.2472 208.43 35.0821L211.348 37.8179ZM216.793 27.15C217.025 25.8537 217.139 24.5196 217.139 23.15H213.139C213.139 24.2961 213.043 25.3937 212.855 26.445L216.793 27.15ZM217.139 23.15C217.139 21.6149 216.987 20.1234 216.678 18.6789L212.766 19.5153C213.013 20.6703 213.139 21.8807 213.139 23.15H217.139ZM212.859 10.5469C211.975 9.407 210.961 8.32839 209.823 7.30951L207.155 10.2905C208.128 11.1607 208.974 12.0638 209.699 12.9981L212.859 10.5469ZM209.903 7.38578C208.824 6.30624 207.692 5.34702 206.508 4.51253L204.204 7.7822C205.189 8.47598 206.146 9.28518 207.075 10.2142L209.903 7.38578ZM198.267 0.935886C196.814 0.644183 195.321 0.499987 193.789 0.499987V4.49999C195.068 4.49999 196.297 4.62029 197.479 4.8576L198.267 0.935886ZM193.789 0.499987C192.137 0.499987 190.531 0.687118 188.977 1.06617L189.925 4.95228C191.154 4.65235 192.441 4.49999 193.789 4.49999V0.499987ZM180.472 5.54057C179.32 6.53449 178.227 7.66744 177.191 8.93352L180.287 11.4665C181.19 10.3623 182.124 9.39855 183.085 8.56942L180.472 5.54057ZM177.184 8.94197L172.919 14.2138L176.028 16.7299L180.294 11.458L177.184 8.94197ZM164.387 24.7576L155.856 35.3013L158.966 37.8174L167.497 27.2736L164.387 24.7576ZM147.325 45.8451L138.794 56.3888L141.903 58.9049L150.434 48.3611L147.325 45.8451ZM130.262 66.9326L121.731 77.4763L124.841 79.9924L133.372 69.4486L130.262 66.9326ZM113.2 88.0201L108.934 93.292L112.044 95.808L116.309 90.5362L113.2 88.0201ZM112.044 93.292L107.778 88.0201L104.669 90.5361L108.934 95.808L112.044 93.292ZM99.247 77.4763L90.7157 66.9326L87.6062 69.4486L96.1374 79.9924L99.247 77.4763ZM82.1845 56.3888L73.6532 45.8451L70.5437 48.3611L79.0749 58.9049L82.1845 56.3888ZM65.122 35.3013L56.5907 24.7576L53.4811 27.2736L62.0124 37.8174L65.122 35.3013ZM48.0595 14.2138L43.7939 8.94197L40.6843 11.458L44.9499 16.7299L48.0595 14.2138ZM43.7527 8.89275C42.6714 7.64073 41.5407 6.52027 40.3588 5.53671L37.8001 8.61134C38.7982 9.44193 39.7739 10.4055 40.7254 11.5072L43.7527 8.89275ZM31.7209 1.07744C30.1383 0.691261 28.5096 0.499987 26.8391 0.499987V4.49999C28.2017 4.49999 29.5115 4.65568 30.7727 4.96343L31.7209 1.07744ZM26.8391 0.499987C25.3076 0.499987 23.8142 0.644183 22.3616 0.935886L23.1491 4.85759C24.3308 4.62029 25.5599 4.49999 26.8391 4.49999V0.499987ZM14.1199 4.51253C12.9357 5.34702 11.8044 6.30624 10.7248 7.38578L13.5533 10.2142C14.4823 9.28518 15.4396 8.47598 16.4241 7.78219L14.1199 4.51253ZM10.7658 7.34596C9.66924 8.38162 8.69549 9.4778 7.84952 10.6357L11.0794 12.9954C11.7717 12.0478 12.581 11.1336 13.5123 10.254L10.7658 7.34596ZM4.26453 18.7463C3.97953 20.1696 3.83906 21.6385 3.83906 23.15H7.83906C7.83906 21.8873 7.95629 20.6822 8.18667 19.5317L4.26453 18.7463ZM3.83906 23.15C3.83906 24.5196 3.95351 25.8537 4.1856 27.15L8.12299 26.445C7.93477 25.3937 7.83906 24.2961 7.83906 23.15H3.83906ZM7.14768 34.6589C7.86435 35.7657 8.69306 36.8185 9.62999 37.8179L12.5481 35.0821C11.7654 34.2472 11.0857 33.3813 10.5052 32.4848L7.14768 34.6589ZM9.54223 37.7178L14.1141 43.2959L17.2078 40.7603L12.6359 35.1822L9.54223 37.7178ZM23.2579 54.4522L32.4016 65.6084L35.4953 63.0728L26.3515 51.9166L23.2579 54.4522ZM41.5454 76.7647L50.6891 87.9209L53.7828 85.3853L44.639 74.2291L41.5454 76.7647ZM59.8329 99.0772L68.9766 110.233L72.0703 107.698L62.9265 96.5416L59.8329 99.0772ZM78.1204 121.39L82.6922 126.968L85.7859 124.432L81.214 118.854L78.1204 121.39ZM82.6922 124.432L77.9234 130.251L81.0172 132.786L85.7859 126.968L82.6922 124.432ZM68.3859 141.889L58.8484 153.526L61.9422 156.061L71.4797 144.424L68.3859 141.889ZM49.3109 165.164L39.7734 176.801L42.8672 179.336L52.4047 167.699L49.3109 165.164ZM30.2359 188.439L20.6984 200.076L23.7922 202.611L33.3297 190.974L30.2359 188.439ZM11.1609 211.714L6.39219 217.532L9.48594 220.068L14.2547 214.249L11.1609 211.714ZM6.40262 217.52C5.53975 218.555 4.76995 219.612 4.09625 220.69L7.48875 222.809C8.05909 221.896 8.72033 220.987 9.47551 220.08L6.40262 217.52ZM1.09041 228.077C0.822737 229.401 0.689063 230.743 0.689063 232.1H4.68906C4.68906 231.007 4.79651 229.931 5.01109 228.87L1.09041 228.077ZM0.689063 232.1C0.689063 233.631 0.833259 235.125 1.12496 236.578L5.04667 235.79C4.80937 234.608 4.68906 233.379 4.68906 232.1H0.689063ZM4.70161 244.819C5.5361 246.003 6.49532 247.135 7.57485 248.214L10.4033 245.386C9.47426 244.457 8.66506 243.499 7.97127 242.515L4.70161 244.819ZM7.65547 248.29C8.79321 249.308 9.97459 250.211 11.2003 250.996L13.3561 247.626C12.322 246.965 11.3106 246.193 10.3227 245.31L7.65547 248.29ZM19.5502 254.338C21.0126 254.614 22.5096 254.75 24.0391 254.75V250.75C22.7486 250.75 21.4997 250.635 20.2901 250.407L19.5502 254.338ZM24.0391 254.75C25.667 254.75 27.2493 254.576 28.7821 254.223L27.8849 250.325C26.6605 250.607 25.3799 250.75 24.0391 250.75V254.75ZM37.276 249.983C38.4459 249.024 39.5558 247.929 40.6076 246.702L37.5706 244.098C36.658 245.163 35.7142 246.091 34.741 246.889L37.276 249.983ZM40.6436 246.658L45.1061 241.146L41.9971 238.629L37.5346 244.142L40.6436 246.658ZM54.0311 230.121L62.9561 219.096L59.8471 216.579L50.9221 227.604L54.0311 230.121ZM71.8811 208.071L80.8061 197.046L77.6971 194.529L68.7721 205.554L71.8811 208.071ZM89.7311 186.021L98.6561 174.996L95.5471 172.479L86.6221 183.504L89.7311 186.021ZM107.581 163.971L112.044 158.458L108.935 155.942L104.472 161.454L107.581 163.971ZM108.932 158.455L113.372 163.967L116.487 161.458L112.047 155.945L108.932 158.455ZM122.253 174.992L131.135 186.017L134.25 183.508L125.368 172.483L122.253 174.992ZM140.016 197.042L148.897 208.067L152.012 205.558L143.131 194.533L140.016 197.042ZM157.778 219.092L166.66 230.117L169.775 227.608L160.893 216.583L157.778 219.092ZM175.541 241.142L179.982 246.655L183.097 244.145L178.656 238.633L175.541 241.142ZM180.025 246.707C181.107 247.959 182.237 249.08 183.419 250.063L185.978 246.989C184.98 246.158 184.004 245.195 183.053 244.093L180.025 246.707ZM192.057 254.523C193.64 254.909 195.269 255.1 196.939 255.1V251.1C195.576 251.1 194.267 250.944 193.005 250.637L192.057 254.523ZM196.939 255.1C198.471 255.1 199.964 254.956 201.417 254.664L200.629 250.742C199.447 250.98 198.218 251.1 196.939 251.1V255.1ZM209.658 251.087C210.842 250.253 211.974 249.294 213.053 248.214L210.225 245.386C209.296 246.315 208.339 247.124 207.354 247.818L209.658 251.087ZM213.015 248.252C214.137 247.188 215.137 246.074 216.01 244.906L212.806 242.511C212.08 243.483 211.234 244.429 210.264 245.348L213.015 248.252ZM219.817 236.644C220.133 235.17 220.289 233.655 220.289 232.1H216.289C216.289 233.385 216.16 234.619 215.906 235.805L219.817 236.644ZM220.289 232.1C220.289 230.727 220.13 229.359 219.816 227.998L215.918 228.899C216.167 229.972 216.289 231.038 216.289 232.1H220.289ZM216.569 220.651C215.877 219.596 215.093 218.55 214.219 217.512L211.159 220.088C211.94 221.015 212.627 221.934 213.223 222.844L216.569 220.651Z" fill="black"/>
</svg>
