<svg width="183" height="244" viewBox="0 0 183 244" fill="none" xmlns="http://www.w3.org/2000/svg">
<path d="M141.486 14.95C143.352 10.75 145.802 7.71666 148.836 5.84999C152.102 3.74999 155.602 2.69999 159.336 2.69999C164.702 2.69999 169.486 4.56666 173.686 8.29999C178.119 11.8 180.336 16.2333 180.336 21.6C180.336 24.1667 179.636 26.85 178.236 29.65L82.6857 229.85C78.7191 237.783 72.5357 241.75 64.1357 241.75C58.7691 241.75 53.9857 240 49.7857 236.5C45.8191 233.233 43.8357 229.033 43.8357 223.9C43.8357 221.333 44.5357 218.417 45.9357 215.15L69.7357 165.1L4.63574 29.65C3.46908 27.3167 2.88574 24.6333 2.88574 21.6C2.88574 16.2333 5.10241 11.6833 9.53574 7.95C14.2024 4.21666 19.4524 2.35 25.2857 2.35C29.2524 2.35 32.8691 3.4 36.1357 5.5C39.4024 7.36666 41.9691 10.4 43.8357 14.6L92.8357 122.75L141.486 14.95Z" fill="#F5F5F5"/>
<path d="M141.486 14.95L142.397 15.3613L142.4 15.3561L141.486 14.95ZM148.836 5.84999L149.36 6.70165L149.368 6.69649L149.377 6.69117L148.836 5.84999ZM173.686 8.29999L173.021 9.0474L173.043 9.06679L173.066 9.08487L173.686 8.29999ZM178.236 29.65L177.341 29.2028L177.337 29.211L177.333 29.2193L178.236 29.65ZM82.6857 229.85L83.5802 230.297L83.5843 230.289L83.5882 230.281L82.6857 229.85ZM49.7857 236.5L50.4259 235.732L50.4215 235.728L49.7857 236.5ZM45.9357 215.15L45.0326 214.721L45.0243 214.738L45.0166 214.756L45.9357 215.15ZM69.7357 165.1L70.6388 165.529L70.8441 165.098L70.637 164.667L69.7357 165.1ZM4.63574 29.65L5.53705 29.2168L5.53366 29.2098L5.53017 29.2028L4.63574 29.65ZM9.53574 7.95L8.91105 7.16913L8.90123 7.17698L8.89161 7.18509L9.53574 7.95ZM36.1357 5.5L35.595 6.34118L35.6169 6.35529L35.6396 6.36824L36.1357 5.5ZM43.8357 14.6L42.9219 15.0061L42.9249 15.0127L43.8357 14.6ZM92.8357 122.75L91.9249 123.163L92.8375 125.177L93.7472 123.161L92.8357 122.75ZM140.574 14.5386L137.534 21.2761L139.357 22.0988L142.397 15.3613L140.574 14.5386ZM131.452 34.7511L125.371 48.2261L127.194 49.0488L133.275 35.5738L131.452 34.7511ZM119.29 61.7011L113.209 75.1762L115.032 75.9989L121.113 62.5238L119.29 61.7011ZM107.127 88.6512L101.046 102.126L102.869 102.949L108.95 89.4739L107.127 88.6512ZM94.9649 115.601L91.9243 122.339L93.7472 123.161L96.7878 116.424L94.9649 115.601ZM93.7466 122.337L90.6841 115.578L88.8624 116.403L91.9249 123.163L93.7466 122.337ZM84.5591 102.059L78.4341 88.5404L76.6124 89.3658L82.7374 102.885L84.5591 102.059ZM72.3091 75.0217L66.1841 61.5029L64.3624 62.3283L70.4874 75.8471L72.3091 75.0217ZM60.0591 47.9842L53.9341 34.4654L52.1124 35.2908L58.2374 48.8096L60.0591 47.9842ZM47.8091 20.9467L44.7466 14.1873L42.9249 15.0127L45.9874 21.7721L47.8091 20.9467ZM44.7496 14.1939C44.3085 13.2014 43.8278 12.2678 43.3069 11.3939L41.589 12.4181C42.0662 13.2186 42.5107 14.081 42.9219 15.0061L44.7496 14.1939ZM39.2594 6.49061C38.438 5.78321 37.562 5.16327 36.6319 4.63175L35.6396 6.36824C36.457 6.83534 37.2285 7.38097 37.9543 8.00607L39.2594 6.49061ZM36.6765 4.65882C35.8229 4.11005 34.9447 3.62865 34.0422 3.21528L33.2093 5.03363C34.0237 5.4066 34.8189 5.84224 35.595 6.34118L36.6765 4.65882ZM28.2765 1.54867C27.2993 1.41602 26.3023 1.35 25.2857 1.35V3.35C26.2155 3.35 27.1226 3.41037 28.0074 3.53049L28.2765 1.54867ZM25.2857 1.35C23.7817 1.35 22.3116 1.46972 20.8764 1.71013L21.2068 3.68265C22.5288 3.4612 23.8882 3.35 25.2857 3.35V1.35ZM12.5596 4.68244C11.3044 5.39805 10.0882 6.2274 8.91105 7.16913L10.1604 8.73087C11.26 7.85124 12.3899 7.08137 13.5502 6.41992L12.5596 4.68244ZM8.89161 7.18509C7.8026 8.10214 6.83597 9.07173 5.99468 10.0948L7.53947 11.3651C8.29699 10.4439 9.17613 9.56017 10.1799 8.71491L8.89161 7.18509ZM2.33159 17.4826C2.03352 18.8061 1.88574 20.1793 1.88574 21.6H3.88574C3.88574 20.3188 4.01891 19.0934 4.28272 17.922L2.33159 17.4826ZM1.88574 21.6C1.88574 22.3411 1.91915 23.0647 1.98642 23.7704L3.9774 23.5806C3.91644 22.9411 3.88574 22.281 3.88574 21.6H1.88574ZM2.88902 28.0568C3.12957 28.7615 3.4136 29.4418 3.74132 30.0972L5.53017 29.2028C5.24341 28.6293 4.99388 28.0321 4.78178 27.4107L2.88902 28.0568ZM3.73444 30.0832L6.98944 36.8557L8.79205 35.9893L5.53705 29.2168L3.73444 30.0832ZM13.4994 50.4007L20.0094 63.9457L21.812 63.0793L15.302 49.5343L13.4994 50.4007ZM26.5194 77.4907L33.0294 91.0357L34.832 90.1693L28.322 76.6243L26.5194 77.4907ZM39.5394 104.581L46.0494 118.126L47.8521 117.259L41.342 103.714L39.5394 104.581ZM52.5594 131.671L59.0694 145.216L60.8721 144.349L54.362 130.804L52.5594 131.671ZM65.5794 158.761L68.8344 165.533L70.637 164.667L67.3821 157.894L65.5794 158.761ZM68.8327 164.671L65.8576 170.927L67.6638 171.786L70.6388 165.529L68.8327 164.671ZM59.9076 183.439L53.9576 195.952L55.7638 196.811L61.7138 184.298L59.9076 183.439ZM48.0076 208.464L45.0326 214.721L46.8388 215.579L49.8138 209.323L48.0076 208.464ZM45.0166 214.756C44.6998 215.495 44.4169 216.219 44.1683 216.928L46.0556 217.59C46.2882 216.927 46.5545 216.245 46.8549 215.544L45.0166 214.756ZM43.013 221.502C42.8954 222.325 42.8357 223.124 42.8357 223.9H44.8357C44.8357 223.227 44.8876 222.522 44.9929 221.785L43.013 221.502ZM42.8357 223.9C42.8357 225.214 42.9594 226.477 43.2095 227.688L45.1682 227.283C44.9475 226.215 44.8357 225.088 44.8357 223.9H42.8357ZM46.4634 234.577C47.2395 235.539 48.1361 236.437 49.15 237.272L50.4215 235.728C49.5044 234.973 48.705 234.17 48.0201 233.321L46.4634 234.577ZM49.1456 237.268C50.2108 238.156 51.3154 238.938 52.4596 239.613L53.4756 237.89C52.429 237.273 51.4123 236.554 50.4259 235.732L49.1456 237.268ZM60.0834 242.413C61.4001 242.638 62.7511 242.75 64.1357 242.75V240.75C62.8593 240.75 61.6211 240.647 60.4203 240.442L60.0834 242.413ZM64.1357 242.75C66.2739 242.75 68.2885 242.502 70.1749 242L69.6605 240.067C67.9591 240.52 66.1191 240.75 64.1357 240.75V242.75ZM80.3145 235.397C81.5365 233.911 82.624 232.21 83.5802 230.297L81.7913 229.403C80.8939 231.198 79.8857 232.77 78.7701 234.126L80.3145 235.397ZM83.5882 230.281L87.0007 223.131L85.1958 222.269L81.7833 229.419L83.5882 230.281ZM93.8257 208.831L100.651 194.531L98.8458 193.669L92.0208 207.969L93.8257 208.831ZM107.476 180.231L114.301 165.931L112.496 165.069L105.671 179.369L107.476 180.231ZM121.126 151.631L127.951 137.331L126.146 136.469L119.321 150.769L121.126 151.631ZM134.776 123.031L141.601 108.731L139.796 107.869L132.971 122.169L134.776 123.031ZM148.426 94.4307L155.251 80.1307L153.446 79.2693L146.621 93.5693L148.426 94.4307ZM162.076 65.8307L168.901 51.5307L167.096 50.6692L160.271 64.9693L162.076 65.8307ZM175.726 37.2307L179.138 30.0807L177.333 29.2193L173.921 36.3692L175.726 37.2307ZM179.13 30.0972C179.465 29.4273 179.763 28.7613 180.022 28.0995L178.161 27.3689C177.924 27.9718 177.651 28.5831 177.341 29.2028L179.13 30.0972ZM181.174 23.8328C181.282 23.082 181.336 22.3376 181.336 21.6H179.336C179.336 22.2398 179.289 22.8896 179.195 23.5499L181.174 23.8328ZM181.336 21.6C181.336 20.1975 181.192 18.8476 180.901 17.5524L178.949 17.991C179.206 19.1328 179.336 20.335 179.336 21.6H181.336ZM177.234 10.3073C176.384 9.31519 175.407 8.38486 174.305 7.51511L173.066 9.08487C174.075 9.88124 174.957 10.7228 175.715 11.6083L177.234 10.3073ZM174.35 7.55258C173.299 6.61825 172.209 5.79326 171.08 5.07932L170.011 6.76985C171.043 7.42238 172.047 8.18098 173.021 9.0474L174.35 7.55258ZM163.438 2.06746C162.105 1.82207 160.738 1.69999 159.336 1.69999V3.69999C160.621 3.69999 161.867 3.81186 163.075 4.03438L163.438 2.06746ZM159.336 1.69999C158.35 1.69999 157.379 1.76963 156.421 1.90933L156.71 3.88838C157.57 3.76293 158.445 3.69999 159.336 3.69999V1.69999ZM150.839 3.59724C149.974 4.00363 149.126 4.47441 148.295 5.00881L149.377 6.69117C150.137 6.20251 150.908 5.77483 151.69 5.40735L150.839 3.59724ZM148.312 4.99833C147.424 5.54433 146.587 6.18214 145.798 6.91004L147.155 8.37964C147.852 7.73619 148.587 7.17743 149.36 6.70165L148.312 4.99833ZM141.963 11.8018C141.467 12.6587 141.003 13.573 140.572 14.5439L142.4 15.3561C142.805 14.4449 143.236 13.5943 143.694 12.8035L141.963 11.8018ZM141.486 14.95L143.309 15.7727L143.313 15.7623L141.486 14.95ZM148.836 5.84999L149.884 7.55331L149.901 7.54299L149.917 7.53235L148.836 5.84999ZM173.686 8.29999L172.357 9.79481L172.401 9.83359L172.446 9.86976L173.686 8.29999ZM178.236 29.65L176.447 28.7556L176.439 28.772L176.431 28.7885L178.236 29.65ZM82.6857 229.85L84.4746 230.744L84.4828 230.728L84.4907 230.711L82.6857 229.85ZM49.7857 236.5L51.0661 234.964L51.0572 234.956L49.7857 236.5ZM45.9357 215.15L44.1296 214.291L44.1128 214.326L44.0975 214.362L45.9357 215.15ZM69.7357 165.1L71.5419 165.959L71.9525 165.095L71.5384 164.234L69.7357 165.1ZM4.63574 29.65L6.43835 28.7836L6.43158 28.7695L6.4246 28.7556L4.63574 29.65ZM9.53574 7.95L8.28635 6.38826L8.26671 6.40397L8.24747 6.42017L9.53574 7.95ZM36.1357 5.5L35.0542 7.18235L35.0981 7.21058L35.1435 7.23648L36.1357 5.5ZM43.8357 14.6L42.0081 15.4123L42.011 15.4188L42.014 15.4254L43.8357 14.6ZM92.8357 122.75L91.014 123.575L92.8393 127.604L94.6587 123.573L92.8357 122.75ZM139.663 14.1273L136.622 20.8648L140.268 22.5102L143.309 15.7727L139.663 14.1273ZM130.541 34.3398L124.46 47.8148L128.106 49.4602L134.187 35.9852L130.541 34.3398ZM118.378 61.2898L112.297 74.7648L115.943 76.4102L122.024 62.9352L118.378 61.2898ZM106.216 88.2398L100.135 101.715L103.781 103.36L109.862 89.8852L106.216 88.2398ZM94.0534 115.19L91.0128 121.927L94.6587 123.573L97.6993 116.835L94.0534 115.19ZM94.6575 121.925L91.595 115.165L87.9515 116.816L91.014 123.575L94.6575 121.925ZM85.47 101.646L79.345 88.1277L75.7015 89.7785L81.8265 103.297L85.47 101.646ZM73.22 74.609L67.095 61.0902L63.4515 62.741L69.5765 76.2598L73.22 74.609ZM60.97 47.5715L54.845 34.0527L51.2015 35.7035L57.3265 49.2223L60.97 47.5715ZM48.72 20.534L45.6575 13.7746L42.014 15.4254L45.0765 22.1848L48.72 20.534ZM45.6634 13.7877C45.2073 12.7617 44.7086 11.7924 44.1658 10.8819L40.73 12.9301C41.1854 13.694 41.6119 14.5207 42.0081 15.4123L45.6634 13.7877ZM39.912 5.73288C39.0428 4.98433 38.1145 4.32723 37.128 3.76351L35.1435 7.23648C35.9045 7.67138 36.6237 8.17985 37.3017 8.7638L39.912 5.73288ZM37.2173 3.81764C36.3249 3.24396 35.4052 2.73968 34.4586 2.3061L32.7929 5.9428C33.5632 6.29558 34.3169 6.70833 35.0542 7.18235L37.2173 3.81764ZM28.411 0.55776C27.3877 0.418841 26.3457 0.349995 25.2857 0.349995V4.35C26.1721 4.35 27.0342 4.40754 27.8729 4.5214L28.411 0.55776ZM25.2857 0.349995C23.7284 0.349995 22.203 0.473976 20.7112 0.723873L21.372 4.66891C22.6374 4.45695 23.9415 4.35 25.2857 4.35V0.349995ZM12.0644 3.81369C10.7616 4.5564 9.50233 5.41547 8.28635 6.38826L10.7851 9.51173C11.8458 8.66316 12.9327 7.92303 14.0454 7.28867L12.0644 3.81369ZM8.24747 6.42017C7.11584 7.37313 6.10546 8.38564 5.22229 9.45966L8.31186 12.0002C9.02749 11.13 9.8629 10.2892 10.824 9.47982L8.24747 6.42017ZM1.35603 17.2629C1.04083 18.6625 0.885742 20.1095 0.885742 21.6H4.88574C4.88574 20.3885 5.0116 19.2371 5.25829 18.1417L1.35603 17.2629ZM0.885742 21.6C0.885742 22.3711 0.920506 23.1264 0.990934 23.8653L4.97289 23.4857C4.91509 22.8794 4.88574 22.251 4.88574 21.6H0.885742ZM1.94264 28.3799C2.19741 29.1262 2.4987 29.848 2.84689 30.5444L6.4246 28.7556C6.15832 28.223 5.92604 27.6673 5.72816 27.0877L1.94264 28.3799ZM2.83313 30.5164L6.08813 37.2889L9.69335 35.5561L6.43835 28.7836L2.83313 30.5164ZM12.5981 50.8339L19.1081 64.3789L22.7134 62.6461L16.2034 49.1011L12.5981 50.8339ZM25.6181 77.9239L32.1281 91.4689L35.7334 89.7361L29.2234 76.1911L25.6181 77.9239ZM38.6381 105.014L45.1481 118.559L48.7534 116.826L42.2434 103.281L38.6381 105.014ZM51.6581 132.104L58.1681 145.649L61.7734 143.916L55.2634 130.371L51.6581 132.104ZM64.6781 159.194L67.9331 165.966L71.5384 164.234L68.2834 157.461L64.6781 159.194ZM67.9296 164.241L64.9546 170.497L68.5669 172.215L71.5419 165.959L67.9296 164.241ZM59.0046 183.01L53.0546 195.522L56.6669 197.24L62.6169 184.728L59.0046 183.01ZM47.1046 208.035L44.1296 214.291L47.7419 216.009L50.7169 209.753L47.1046 208.035ZM44.0975 214.362C43.7724 215.121 43.4812 215.866 43.2246 216.597L46.9993 217.921C47.2239 217.281 47.4818 216.62 47.774 215.938L44.0975 214.362ZM42.0231 221.36C41.8994 222.226 41.8357 223.073 41.8357 223.9H45.8357C45.8357 223.278 45.8836 222.621 45.9829 221.926L42.0231 221.36ZM41.8357 223.9C41.8357 225.276 41.9653 226.608 42.2302 227.89L46.1475 227.081C45.9416 226.084 45.8357 225.025 45.8357 223.9H41.8357ZM45.685 235.204C46.5067 236.223 47.4519 237.169 48.5143 238.044L51.0572 234.956C50.1885 234.241 49.4378 233.486 48.7985 232.693L45.685 235.204ZM48.5054 238.036C49.61 238.957 50.7587 239.771 51.9516 240.474L53.9836 237.029C52.9857 236.44 52.0131 235.753 51.0661 234.964L48.5054 238.036ZM59.9149 243.399C61.2895 243.634 62.697 243.75 64.1357 243.75V239.75C62.9135 239.75 61.7317 239.651 60.5887 239.456L59.9149 243.399ZM64.1357 243.75C66.3513 243.75 68.4531 243.493 70.4321 242.967L69.4033 239.101C67.7945 239.529 66.0416 239.75 64.1357 239.75V243.75ZM81.0867 236.032C82.362 234.482 83.489 232.716 84.4746 230.744L80.8969 228.956C80.0289 230.692 79.0602 232.199 77.9979 233.49L81.0867 236.032ZM84.4907 230.711L87.9032 223.561L84.2933 221.839L80.8808 228.989L84.4907 230.711ZM94.7282 209.261L101.553 194.961L97.9433 193.239L91.1183 207.539L94.7282 209.261ZM108.378 180.661L115.203 166.361L111.593 164.639L104.768 178.939L108.378 180.661ZM122.028 152.061L128.853 137.761L125.243 136.039L118.418 150.339L122.028 152.061ZM135.678 123.461L142.503 109.161L138.893 107.439L132.068 121.739L135.678 123.461ZM149.328 94.8615L156.153 80.5615L152.543 78.8385L145.718 93.1385L149.328 94.8615ZM162.978 66.2614L169.803 51.9614L166.193 50.2385L159.368 64.5385L162.978 66.2614ZM176.628 37.6614L180.041 30.5114L176.431 28.7885L173.018 35.9385L176.628 37.6614ZM180.025 30.5444C180.372 29.8493 180.682 29.1561 180.953 28.4647L177.23 27.0036C177.005 27.5771 176.744 28.1611 176.447 28.7556L180.025 30.5444ZM182.164 23.9742C182.278 23.1783 182.336 22.3866 182.336 21.6H178.336C178.336 22.1908 178.293 22.7934 178.205 23.4085L182.164 23.9742ZM182.336 21.6C182.336 20.1287 182.185 18.705 181.876 17.3332L177.974 18.2102C178.213 19.2753 178.336 20.4038 178.336 21.6H182.336ZM177.994 9.6568C177.098 8.6114 176.073 7.63666 174.925 6.73023L172.446 9.86976C173.409 10.6294 174.243 11.4266 174.956 12.2588L177.994 9.6568ZM175.014 6.80517C173.925 5.83689 172.792 4.9787 171.614 4.23406L169.477 7.61512C170.46 8.23694 171.421 8.96235 172.357 9.79481L175.014 6.80517ZM163.619 1.08399C162.224 0.827177 160.796 0.699991 159.336 0.699991V4.69999C160.563 4.69999 161.748 4.80676 162.894 5.01784L163.619 1.08399ZM159.336 0.699991C158.303 0.699991 157.283 0.772985 156.277 0.919811L156.855 4.8779C157.666 4.75957 158.492 4.69999 159.336 4.69999V0.699991ZM150.414 2.69219C149.508 3.11802 148.621 3.61036 147.754 4.16764L149.917 7.53235C150.642 7.06656 151.374 6.66043 152.115 6.31241L150.414 2.69219ZM147.788 4.14668C146.843 4.72778 145.954 5.40512 145.12 6.17524L147.833 9.11444C148.484 8.51321 149.168 7.99399 149.884 7.55331L147.788 4.14668ZM141.097 11.3009C140.582 12.1909 140.103 13.1371 139.658 14.1377L143.313 15.7623C143.705 14.8809 144.121 14.0622 144.559 13.3044L141.097 11.3009Z" fill="black"/>
</svg>
