<svg width="219" height="256" viewBox="0 0 219 256" fill="none" xmlns="http://www.w3.org/2000/svg">
<path d="M181.067 10.2C185.267 5.06666 190.283 2.49999 196.117 2.49999C201.483 2.49999 206.267 4.59999 210.467 8.79999C214.667 12.7667 216.767 17.55 216.767 23.15C216.767 27.8167 215.017 32.25 211.517 36.45L132.067 133.4V230.35C132.067 237.583 129.967 243.183 125.767 247.15C121.567 251.117 116.2 253.1 109.667 253.1C102.9 253.1 97.4168 251.117 93.2168 247.15C89.0168 243.183 86.9168 237.583 86.9168 230.35V133.4L7.4668 36.45C3.9668 32.25 2.2168 27.8167 2.2168 23.15C2.2168 17.55 4.3168 12.7667 8.5168 8.79999C12.7168 4.59999 17.5001 2.49999 22.8668 2.49999C28.7001 2.49999 33.7168 5.06666 37.9168 10.2L109.667 99.1L181.067 10.2Z" fill="#F5F5F5"/>
<path d="M181.067 10.2L180.293 9.56673L180.287 9.5738L181.067 10.2ZM210.467 8.79999L209.76 9.5071L209.77 9.5172L209.78 9.527L210.467 8.79999ZM211.517 36.45L210.749 35.8098L210.743 35.8161L211.517 36.45ZM132.067 133.4L131.293 132.766L131.067 133.043V133.4H132.067ZM125.767 247.15L125.08 246.423L125.08 246.423L125.767 247.15ZM93.2168 247.15L93.9034 246.423L93.9034 246.423L93.2168 247.15ZM86.9168 133.4H87.9168V133.043L87.6903 132.766L86.9168 133.4ZM7.4668 36.45L8.24028 35.8161L8.23502 35.8098L7.4668 36.45ZM8.5168 8.79999L9.20342 9.527L9.21381 9.51719L9.2239 9.5071L8.5168 8.79999ZM37.9168 10.2L38.695 9.57193L38.6908 9.56675L37.9168 10.2ZM109.667 99.1L108.889 99.728L109.669 100.695L110.446 99.7262L109.667 99.1ZM180.287 9.5738L175.825 15.1301L177.384 16.3824L181.846 10.8262L180.287 9.5738ZM166.9 26.2426L157.975 37.3551L159.534 38.6074L168.459 27.4949L166.9 26.2426ZM149.05 48.4676L140.125 59.5801L141.684 60.8324L150.609 49.7199L149.05 48.4676ZM131.2 70.6926L122.275 81.8051L123.834 83.0574L132.759 71.9449L131.2 70.6926ZM113.35 92.9176L108.887 98.4738L110.446 99.7262L114.909 94.1699L113.35 92.9176ZM110.445 98.4719L105.961 92.9157L104.404 94.1718L108.889 99.728L110.445 98.4719ZM96.9918 81.8032L88.0231 70.6907L86.4668 71.9468L95.4355 83.0593L96.9918 81.8032ZM79.0543 59.5782L70.0856 48.4657L68.5293 49.7218L77.498 60.8343L79.0543 59.5782ZM61.1168 37.3532L52.1481 26.2407L50.5918 27.4968L59.5605 38.6093L61.1168 37.3532ZM43.1793 15.1282L38.695 9.57194L37.1386 10.828L41.623 16.3843L43.1793 15.1282ZM38.6908 9.56675C37.688 8.34115 36.6349 7.25051 35.5304 6.29779L34.2241 7.81221C35.233 8.68254 36.2063 9.68856 37.1428 10.8332L38.6908 9.56675ZM27.4421 2.0377C25.9689 1.67843 24.443 1.49999 22.8668 1.49999V3.49999C24.2909 3.49999 25.6573 3.66104 26.9683 3.98075L27.4421 2.0377ZM22.8668 1.49999C21.4288 1.49999 20.0264 1.64378 18.6612 1.93277L19.0753 3.88941C20.2996 3.63026 21.563 3.49999 22.8668 3.49999V1.49999ZM10.9919 5.37413C9.89286 6.16329 8.83231 7.07027 7.80969 8.09288L9.2239 9.5071C10.1757 8.55527 11.1541 7.71986 12.1584 6.99868L10.9919 5.37413ZM7.83017 8.07298C6.77492 9.0696 5.84227 10.1203 5.03471 11.2257L6.64963 12.4055C7.38038 11.4053 8.23081 10.4456 9.20342 9.527L7.83017 8.07298ZM1.6228 18.9426C1.35145 20.2977 1.2168 21.7007 1.2168 23.15H3.2168C3.2168 21.8251 3.33983 20.554 3.58387 19.3353L1.6228 18.9426ZM1.2168 23.15C1.2168 24.441 1.34392 25.7162 1.59832 26.9746L3.55866 26.5783C3.3308 25.4512 3.2168 24.3088 3.2168 23.15H1.2168ZM4.47211 34.0299C5.11997 35.067 5.86263 36.087 6.69858 37.0902L8.23502 35.8098C7.45292 34.8713 6.76454 33.9247 6.16836 32.9703L4.47211 34.0299ZM6.69334 37.0838L11.659 43.1432L13.2059 41.8755L8.24026 35.8161L6.69334 37.0838ZM21.5902 55.262L31.5215 67.3807L33.0684 66.113L23.1371 53.9943L21.5902 55.262ZM41.4527 79.4995L51.384 91.6182L52.9309 90.3505L42.9996 78.2318L41.4527 79.4995ZM61.3152 103.737L71.2465 115.856L72.7934 114.588L62.8621 102.469L61.3152 103.737ZM81.1777 127.974L86.1433 134.034L87.6903 132.766L82.7246 126.707L81.1777 127.974ZM85.9168 133.4V141.479H87.9168V133.4H85.9168ZM85.9168 157.637V173.796H87.9168V157.637H85.9168ZM85.9168 189.954V206.112H87.9168V189.954H85.9168ZM85.9168 222.271V230.35H87.9168V222.271H85.9168ZM85.9168 230.35C85.9168 232.009 86.0244 233.592 86.2416 235.097L88.2211 234.811C88.0189 233.41 87.9168 231.923 87.9168 230.35H85.9168ZM89.4406 244.133C90.3109 245.506 91.3413 246.754 92.5302 247.877L93.9034 246.423C92.8345 245.413 91.9105 244.293 91.1298 243.062L89.4406 244.133ZM92.5302 247.877C93.6815 248.964 94.9268 249.911 96.2654 250.715L97.2956 249.001C96.0824 248.272 94.9518 247.413 93.9034 246.423L92.5302 247.877ZM105.05 253.774C106.525 253.992 108.064 254.1 109.667 254.1V252.1C108.154 252.1 106.713 251.998 105.343 251.795L105.05 253.774ZM109.667 254.1C111.239 254.1 112.752 253.989 114.205 253.764L113.899 251.787C112.555 251.995 111.145 252.1 109.667 252.1V254.1ZM122.804 250.677C124.104 249.881 125.321 248.947 126.453 247.877L125.08 246.423C124.045 247.4 122.938 248.25 121.759 248.972L122.804 250.677ZM126.453 247.877C127.642 246.754 128.673 245.506 129.543 244.133L127.854 243.062C127.073 244.293 126.149 245.413 125.08 246.423L126.453 247.877ZM132.742 235.097C132.959 233.592 133.067 232.009 133.067 230.35H131.067C131.067 231.923 130.965 233.41 130.763 234.811L132.742 235.097ZM133.067 230.35V222.271H131.067V230.35H133.067ZM133.067 206.112V189.954H131.067V206.112H133.067ZM133.067 173.796V157.637H131.067V173.796H133.067ZM133.067 141.479V133.4H131.067V141.479H133.067ZM132.84 134.034L137.806 127.974L136.259 126.707L131.293 132.766L132.84 134.034ZM147.737 115.856L157.668 103.737L156.121 102.469L146.19 114.588L147.737 115.856ZM167.6 91.6182L177.531 79.4995L175.984 78.2318L166.053 90.3505L167.6 91.6182ZM187.462 67.3807L197.393 55.262L195.846 53.9943L185.915 66.113L187.462 67.3807ZM207.325 43.1432L212.29 37.0838L210.743 35.8161L205.778 41.8755L207.325 43.1432ZM212.285 37.0902C213.121 36.087 213.864 35.067 214.511 34.0299L212.815 32.9703C212.219 33.9247 211.531 34.8713 210.749 35.8098L212.285 37.0902ZM217.385 26.9746C217.64 25.7162 217.767 24.441 217.767 23.15H215.767C215.767 24.3088 215.653 25.4512 215.425 26.5783L217.385 26.9746ZM217.767 23.15C217.767 21.7007 217.632 20.2977 217.361 18.9426L215.4 19.3353C215.644 20.554 215.767 21.8251 215.767 23.15H217.767ZM213.949 11.2257C213.141 10.1203 212.209 9.0696 211.153 8.07298L209.78 9.527C210.753 10.4456 211.603 11.4053 212.334 12.4055L213.949 11.2257ZM211.174 8.09288C210.151 7.07027 209.091 6.16329 207.992 5.37413L206.825 6.99868C207.83 7.71986 208.808 8.55528 209.76 9.5071L211.174 8.09288ZM200.322 1.93277C198.957 1.64378 197.555 1.49999 196.117 1.49999V3.49999C197.421 3.49999 198.684 3.63026 199.908 3.88941L200.322 1.93277ZM196.117 1.49999C194.541 1.49999 193.015 1.67843 191.541 2.0377L192.015 3.98076C193.326 3.66104 194.693 3.49999 196.117 3.49999V1.49999ZM183.453 6.29779C182.349 7.25051 181.296 8.34115 180.293 9.56675L181.841 10.8332C182.777 9.68856 183.751 8.68254 184.76 7.81221L183.453 6.29779ZM181.067 10.2L179.519 8.93352L179.513 8.94054L179.507 8.94761L181.067 10.2ZM210.467 8.79999L209.053 10.2142L209.073 10.2344L209.094 10.254L210.467 8.79999ZM211.517 36.45L209.98 35.1696L209.975 35.1759L209.97 35.1823L211.517 36.45ZM132.067 133.4L130.52 132.132L130.067 132.685V133.4H132.067ZM125.767 247.15L124.394 245.696L124.394 245.696L125.767 247.15ZM93.2168 247.15L94.59 245.696L94.59 245.696L93.2168 247.15ZM86.9168 133.4H88.9168V132.685L88.4637 132.132L86.9168 133.4ZM7.4668 36.45L9.01372 35.1823L9.0085 35.1759L9.00324 35.1696L7.4668 36.45ZM8.5168 8.79999L9.89005 10.254L9.91081 10.2344L9.93101 10.2142L8.5168 8.79999ZM37.9168 10.2L39.4732 8.94386L39.4647 8.93352L37.9168 10.2ZM109.667 99.1L108.11 100.356L109.671 102.289L111.226 100.352L109.667 99.1ZM179.507 8.94761L175.045 14.5039L178.164 17.0086L182.626 11.4524L179.507 8.94761ZM166.12 25.6164L157.195 36.7289L160.314 39.2336L169.239 28.1211L166.12 25.6164ZM148.27 47.8414L139.345 58.9539L142.464 61.4586L151.389 50.3461L148.27 47.8414ZM130.42 70.0664L121.495 81.1789L124.614 83.6836L133.539 72.5711L130.42 70.0664ZM112.57 92.2914L108.107 97.8476L111.226 100.352L115.689 94.7961L112.57 92.2914ZM111.223 97.8439L106.739 92.2876L103.626 94.7998L108.11 100.356L111.223 97.8439ZM97.77 81.1751L88.8013 70.0626L85.6886 72.5748L94.6573 83.6873L97.77 81.1751ZM79.8325 58.9501L70.8638 47.8376L67.7511 50.3498L76.7198 61.4623L79.8325 58.9501ZM61.895 36.7251L52.9263 25.6126L49.8136 28.1248L58.7823 39.2373L61.895 36.7251ZM43.9575 14.5001L39.4731 8.94389L36.3605 11.4561L40.8448 17.0123L43.9575 14.5001ZM39.4647 8.93352C38.4288 7.66744 37.3358 6.53449 36.1836 5.54058L33.5709 8.56942C34.5321 9.39855 35.4654 10.3623 36.3689 11.4665L39.4647 8.93352ZM27.679 1.06617C26.1247 0.687118 24.5191 0.499987 22.8668 0.499987V4.49999C24.2148 4.49999 25.5014 4.65235 26.7313 4.95228L27.679 1.06617ZM22.8668 0.499987C21.3617 0.499987 19.8898 0.650536 18.4541 0.954443L19.2824 4.86774C20.4362 4.62351 21.6301 4.49999 22.8668 4.49999V0.499987ZM10.4086 4.56185C9.26225 5.385 8.1606 6.32776 7.10258 7.38578L9.93101 10.2142C10.8474 9.29778 11.7847 8.49815 12.7417 7.81096L10.4086 4.56185ZM7.14355 7.34596C6.04698 8.38162 5.07322 9.4778 4.22725 10.6357L7.45709 12.9954C8.14943 12.0478 8.95876 11.1336 9.89005 10.254L7.14355 7.34596ZM0.642263 18.7463C0.35726 20.1696 0.216797 21.6385 0.216797 23.15H4.2168C4.2168 21.8873 4.33403 20.6822 4.5644 19.5317L0.642263 18.7463ZM0.216797 23.15C0.216797 24.5071 0.350471 25.8487 0.618146 27.1727L4.53883 26.3801C4.32425 25.3187 4.2168 24.2427 4.2168 23.15H0.216797ZM3.62398 34.5597C4.29768 35.6382 5.06748 36.6949 5.93035 37.7304L9.00324 35.1696C8.24807 34.2634 7.58683 33.3535 7.01649 32.4405L3.62398 34.5597ZM5.91988 37.7177L10.8855 43.7771L13.9793 41.2417L9.01372 35.1823L5.91988 37.7177ZM20.8168 55.8958L30.748 68.0146L33.8418 65.4792L23.9106 53.3604L20.8168 55.8958ZM40.6793 80.1333L50.6105 92.2521L53.7043 89.7167L43.7731 77.5979L40.6793 80.1333ZM60.5418 104.371L70.473 116.49L73.5668 113.954L63.6356 101.835L60.5418 104.371ZM80.4043 128.608L85.3699 134.668L88.4637 132.132L83.4981 126.073L80.4043 128.608ZM84.9168 133.4V141.479H88.9168V133.4H84.9168ZM84.9168 157.637V173.796H88.9168V157.637H84.9168ZM84.9168 189.954V206.112H88.9168V189.954H84.9168ZM84.9168 222.271V230.35H88.9168V222.271H84.9168ZM84.9168 230.35C84.9168 232.052 85.0272 233.683 85.2518 235.24L89.2108 234.668C89.0161 233.319 88.9168 231.88 88.9168 230.35H84.9168ZM88.596 244.668C89.5111 246.112 90.5947 247.425 91.8436 248.604L94.59 245.696C93.5811 244.743 92.7102 243.687 91.9744 242.527L88.596 244.668ZM91.8436 248.604C93.0464 249.74 94.349 250.73 95.7503 251.573L97.8107 248.144C96.6602 247.453 95.587 246.638 94.59 245.696L91.8436 248.604ZM104.904 254.763C106.431 254.989 108.019 255.1 109.667 255.1V251.1C108.199 251.1 106.807 251.001 105.489 250.806L104.904 254.763ZM109.667 255.1C111.287 255.1 112.851 254.985 114.358 254.752L113.746 250.799C112.457 250.999 111.098 251.1 109.667 251.1V255.1ZM123.327 251.53C124.687 250.697 125.958 249.72 127.14 248.604L124.394 245.696C123.407 246.627 122.355 247.434 121.237 248.12L123.327 251.53ZM127.14 248.604C128.389 247.425 129.473 246.112 130.388 244.668L127.009 242.527C126.273 243.687 125.403 244.743 124.394 245.696L127.14 248.604ZM133.732 235.24C133.956 233.683 134.067 232.052 134.067 230.35H130.067C130.067 231.88 129.968 233.319 129.773 234.668L133.732 235.24ZM134.067 230.35V222.271H130.067V230.35H134.067ZM134.067 206.112V189.954H130.067V206.112H134.067ZM134.067 173.796V157.637H130.067V173.796H134.067ZM134.067 141.479V133.4H130.067V141.479H134.067ZM133.614 134.668L138.579 128.608L135.486 126.073L130.52 132.132L133.614 134.668ZM148.511 116.49L158.442 104.371L155.348 101.835L145.417 113.954L148.511 116.49ZM168.373 92.2521L178.304 80.1333L175.211 77.5979L165.279 89.7167L168.373 92.2521ZM188.236 68.0146L198.167 55.8958L195.073 53.3604L185.142 65.4792L188.236 68.0146ZM208.098 43.7771L213.064 37.7177L209.97 35.1823L205.004 41.2417L208.098 43.7771ZM213.053 37.7304C213.916 36.6949 214.686 35.6382 215.36 34.5597L211.967 32.4405C211.397 33.3535 210.736 34.2634 209.98 35.1696L213.053 37.7304ZM218.365 27.1727C218.633 25.8487 218.767 24.5071 218.767 23.15H214.767C214.767 24.2427 214.659 25.3187 214.445 26.3801L218.365 27.1727ZM218.767 23.15C218.767 21.6385 218.626 20.1696 218.341 18.7463L214.419 19.5317C214.65 20.6822 214.767 21.8873 214.767 23.15H218.767ZM214.756 10.6357C213.91 9.4778 212.937 8.38162 211.84 7.34596L209.094 10.254C210.025 11.1336 210.834 12.0478 211.527 12.9954L214.756 10.6357ZM211.881 7.38578C210.823 6.32776 209.721 5.385 208.575 4.56185L206.242 7.81096C207.199 8.49815 208.136 9.29778 209.053 10.2142L211.881 7.38578ZM200.53 0.954443C199.094 0.650536 197.622 0.499987 196.117 0.499987V4.49999C197.354 4.49999 198.547 4.62351 199.701 4.86774L200.53 0.954443ZM196.117 0.499987C194.464 0.499987 192.859 0.687118 191.305 1.06617L192.252 4.95228C193.482 4.65235 194.769 4.49999 196.117 4.49999V0.499987ZM182.8 5.54058C181.648 6.53449 180.555 7.66744 179.519 8.93352L182.615 11.4665C183.518 10.3623 184.452 9.39855 185.413 8.56942L182.8 5.54058Z" fill="black"/>
</svg>
