<svg width="163" height="176" viewBox="0 0 163 176" fill="none" xmlns="http://www.w3.org/2000/svg">
<path d="M140.441 141.1C153.508 141.1 160.041 146.583 160.041 157.55C160.041 162.683 158.408 166.767 155.141 169.8C151.874 172.6 146.974 174 140.441 174H23.541C17.7077 174 12.9243 172.133 9.19102 168.4C5.45768 164.667 3.59102 160.233 3.59102 155.1C3.59102 149.733 5.69102 144.6 9.89102 139.7L99.841 35.75H21.791C15.2577 35.75 10.3577 34.35 7.09102 31.55C3.82435 28.75 2.19102 24.6667 2.19102 19.3C2.19102 13.9333 3.82435 9.84999 7.09102 7.04999C10.3577 4.24999 15.2577 2.84999 21.791 2.84999H134.841C140.908 2.84999 145.691 4.71666 149.191 8.44999C152.924 11.95 154.791 16.3833 154.791 21.75C154.791 27.35 152.808 32.4833 148.841 37.15L58.541 141.1H140.441Z" fill="#F5F5F5"/>
<path d="M155.141 169.8L155.792 170.559L155.807 170.546L155.821 170.533L155.141 169.8ZM9.19102 168.4L9.89812 167.693L9.19102 168.4ZM9.89102 139.7L9.13482 139.046L9.13176 139.049L9.89102 139.7ZM99.841 35.75L100.597 36.4043L102.029 34.75H99.841V35.75ZM7.09102 31.55L6.44022 32.3093L6.44022 32.3093L7.09102 31.55ZM7.09102 7.04999L6.44022 6.29073L6.44022 6.29073L7.09102 7.04999ZM149.191 8.44999L148.461 9.13393L148.484 9.15747L148.507 9.17953L149.191 8.44999ZM148.841 37.15L149.596 37.8058L149.603 37.7976L148.841 37.15ZM58.541 141.1L57.7861 140.444L56.3477 142.1H58.541V141.1ZM140.441 140.1H133.616V142.1H140.441V140.1ZM119.966 140.1H106.316V142.1H119.966V140.1ZM92.666 140.1H79.016V142.1H92.666V140.1ZM65.366 140.1H58.541V142.1H65.366V140.1ZM59.296 141.756L63.811 136.558L62.3011 135.247L57.7861 140.444L59.296 141.756ZM72.841 126.163L81.871 115.768L80.3611 114.457L71.3311 124.852L72.841 126.163ZM90.901 105.373L99.931 94.9783L98.4211 93.6667L89.3911 104.062L90.901 105.373ZM108.961 84.5833L117.991 74.1883L116.481 72.8767L107.451 83.2717L108.961 84.5833ZM127.021 63.7933L136.051 53.3983L134.541 52.0867L125.511 62.4817L127.021 63.7933ZM145.081 43.0033L149.596 37.8058L148.086 36.4942L143.571 41.6917L145.081 43.0033ZM149.603 37.7976C150.575 36.6544 151.434 35.4803 152.18 34.275L150.48 33.2224C149.79 34.3372 148.99 35.4306 148.079 36.5023L149.603 37.7976ZM155.387 26.1297C155.656 24.6993 155.791 23.239 155.791 21.75H153.791C153.791 23.1179 153.667 24.4538 153.421 25.7589L155.387 26.1297ZM155.791 21.75C155.791 20.4077 155.679 19.1146 155.453 17.8721L153.485 18.2301C153.688 19.3463 153.791 20.5191 153.791 21.75H155.791ZM152.452 10.6651C151.712 9.61832 150.853 8.6369 149.875 7.72046L148.507 9.17953C149.391 10.0085 150.161 10.8886 150.819 11.8194L152.452 10.6651ZM149.921 7.76605C148.949 6.72995 147.882 5.82735 146.719 5.06033L145.618 6.72989C146.647 7.4087 147.595 8.20936 148.461 9.13393L149.921 7.76605ZM138.947 2.15349C137.641 1.95048 136.272 1.84999 134.841 1.84999V3.84999C136.179 3.84999 137.445 3.94393 138.64 4.12976L138.947 2.15349ZM134.841 1.84999H127.775V3.84999H134.841V1.84999ZM113.644 1.84999H99.5129V3.84999H113.644V1.84999ZM85.3816 1.84999H71.2504V3.84999H85.3816V1.84999ZM57.1192 1.84999H42.9879V3.84999H57.1192V1.84999ZM28.8567 1.84999H21.791V3.84999H28.8567V1.84999ZM21.791 1.84999C20.3904 1.84999 19.0579 1.91296 17.7942 2.03991L17.9941 4.02989C19.1845 3.9103 20.4499 3.84999 21.791 3.84999V1.84999ZM9.94366 4.05093C8.63725 4.66472 7.46744 5.41027 6.44022 6.29073L7.74181 7.80925C8.62154 7.05519 9.63698 6.40475 10.7941 5.8611L9.94366 4.05093ZM6.44022 6.29073C5.50003 7.09661 4.68331 8.00375 3.99246 9.01126L5.64192 10.1423C6.23248 9.28106 6.93164 8.50367 7.74181 7.80925L6.44022 6.29073ZM1.44581 15.7524C1.27521 16.8757 1.19102 18.0587 1.19102 19.3H3.19102C3.19102 18.1488 3.26913 17.0668 3.42314 16.0527L1.44581 15.7524ZM1.19102 19.3C1.19102 20.5413 1.27521 21.7242 1.44581 22.8476L3.42314 22.5473C3.26913 21.5332 3.19102 20.4512 3.19102 19.3H1.19102ZM3.99246 29.5887C4.68331 30.5962 5.50003 31.5034 6.44022 32.3093L7.74181 30.7907C6.93164 30.0963 6.23248 29.3189 5.64192 28.4577L3.99246 29.5887ZM6.44022 32.3093C7.46744 33.1897 8.63725 33.9353 9.94366 34.5491L10.7941 32.7389C9.63698 32.1952 8.62154 31.5448 7.74181 30.7907L6.44022 32.3093ZM17.7942 36.5601C19.0579 36.687 20.3904 36.75 21.791 36.75V34.75C20.4499 34.75 19.1845 34.6897 17.9941 34.5701L17.7942 36.5601ZM21.791 36.75H28.2952V34.75H21.791V36.75ZM41.3035 36.75H54.3119V34.75H41.3035V36.75ZM67.3202 36.75H80.3285V34.75H67.3202V36.75ZM93.3368 36.75H99.841V34.75H93.3368V36.75ZM99.0848 35.0956L94.5873 40.2931L96.0997 41.6018L100.597 36.4043L99.0848 35.0956ZM85.5923 50.6881L76.5973 61.0831L78.1097 62.3918L87.1047 51.9968L85.5923 50.6881ZM67.6023 71.4781L58.6073 81.8732L60.1197 83.1818L69.1147 72.7868L67.6023 71.4781ZM49.6123 92.2681L40.6173 102.663L42.1297 103.972L51.1247 93.5768L49.6123 92.2681ZM31.6223 113.058L22.6273 123.453L24.1397 124.762L33.1347 114.367L31.6223 113.058ZM13.6323 133.848L9.13482 139.046L10.6472 140.354L15.1447 135.157L13.6323 133.848ZM9.13176 139.049C8.14471 140.201 7.26693 141.369 6.49999 142.554L8.17912 143.641C8.89361 142.537 9.7168 141.44 10.6503 140.351L9.13176 139.049ZM3.05591 150.672C2.746 152.131 2.59102 153.607 2.59102 155.1H4.59102C4.59102 153.747 4.73141 152.409 5.01225 151.087L3.05591 150.672ZM2.59102 155.1C2.59102 156.432 2.71108 157.725 2.95297 158.977L4.91664 158.597C4.70015 157.477 4.59102 156.312 4.59102 155.1H2.59102ZM5.98631 166.136C6.70739 167.174 7.54066 168.164 8.48391 169.107L9.89812 167.693C9.03354 166.828 8.27783 165.929 7.62878 164.995L5.98631 166.136ZM8.48391 169.107C9.48422 170.107 10.5594 170.983 11.7095 171.732L12.8009 170.056C11.7714 169.386 10.8038 168.599 9.89812 167.693L8.48391 169.107ZM19.4367 174.677C20.7503 174.893 22.1187 175 23.541 175V173C22.2191 173 20.9596 172.901 19.7613 172.703L19.4367 174.677ZM23.541 175H30.8473V173H23.541V175ZM45.4598 175H60.0723V173H45.4598V175ZM74.6848 175H89.2973V173H74.6848V175ZM103.91 175H118.522V173H103.91V175ZM133.135 175H140.441V173H133.135V175ZM140.441 175C141.842 175 143.174 174.937 144.438 174.81L144.238 172.82C143.048 172.94 141.782 173 140.441 173V175ZM152.288 172.799C153.595 172.185 154.765 171.44 155.792 170.559L154.49 169.041C153.61 169.795 152.595 170.445 151.438 170.989L152.288 172.799ZM155.821 170.533C156.723 169.696 157.51 168.781 158.181 167.789L156.524 166.668C155.941 167.531 155.254 168.331 154.461 169.067L155.821 170.533ZM160.767 161.096C160.95 159.966 161.041 158.784 161.041 157.55H159.041C159.041 158.686 158.958 159.761 158.793 160.776L160.767 161.096ZM161.041 157.55C161.041 154.719 160.621 152.196 159.753 150.002L157.893 150.738C158.649 152.649 159.041 154.913 159.041 157.55H161.041ZM147.936 140.829C145.705 140.34 143.204 140.1 140.441 140.1V142.1C143.092 142.1 145.445 142.331 147.507 142.783L147.936 140.829ZM155.141 169.8L156.443 171.319L156.473 171.293L156.502 171.266L155.141 169.8ZM9.19102 168.4L10.6052 166.986L9.19102 168.4ZM9.89102 139.7L8.37861 138.391L8.3725 138.398L9.89102 139.7ZM99.841 35.75L101.353 37.0587L104.216 33.75H99.841V35.75ZM7.09102 31.55L5.78943 33.0685L5.78943 33.0685L7.09102 31.55ZM7.09102 7.04999L5.78943 5.53148L5.78943 5.53148L7.09102 7.04999ZM149.191 8.44999L147.732 9.81788L147.776 9.86494L147.823 9.90907L149.191 8.44999ZM148.841 37.15L150.351 38.4616L150.358 38.4535L150.365 38.4453L148.841 37.15ZM58.541 141.1L57.0312 139.788L54.1544 143.1H58.541V141.1ZM140.441 139.1H133.616V143.1H140.441V139.1ZM119.966 139.1H106.316V143.1H119.966V139.1ZM92.666 139.1H79.016V143.1H92.666V139.1ZM65.366 139.1H58.541V143.1H65.366V139.1ZM60.0509 142.412L64.5659 137.214L61.5462 134.591L57.0312 139.788L60.0509 142.412ZM73.5959 126.819L82.6259 116.424L79.6062 113.801L70.5762 124.196L73.5959 126.819ZM91.6559 106.029L100.686 95.6341L97.6661 93.0109L88.6362 103.406L91.6559 106.029ZM109.716 85.2391L118.746 74.8441L115.726 72.2209L106.696 82.6159L109.716 85.2391ZM127.776 64.4491L136.806 54.0541L133.786 51.4309L124.756 61.8259L127.776 64.4491ZM145.836 43.6591L150.351 38.4616L147.331 35.8384L142.816 41.0359L145.836 43.6591ZM150.365 38.4453C151.367 37.2664 152.257 36.0519 153.031 34.8012L149.629 32.6962C148.967 33.7656 148.198 34.8187 147.317 35.8547L150.365 38.4453ZM156.369 26.3152C156.651 24.822 156.791 23.2996 156.791 21.75H152.791C152.791 23.0573 152.673 24.3311 152.439 25.5734L156.369 26.3152ZM156.791 21.75C156.791 20.352 156.674 18.9988 156.437 17.6931L152.501 18.4091C152.693 19.4621 152.791 20.5748 152.791 21.75H156.791ZM153.269 10.088C152.488 8.98315 151.583 7.95108 150.559 6.99092L147.823 9.90907C148.661 10.6944 149.386 11.5238 150.002 12.3965L153.269 10.088ZM150.65 7.08211C149.626 5.99024 148.499 5.03668 147.27 4.22555L145.067 7.56467C146.029 8.19937 146.917 8.94906 147.732 9.81788L150.65 7.08211ZM139.101 1.16536C137.74 0.953749 136.319 0.849992 134.841 0.849992V4.84999C136.132 4.84999 137.346 4.94066 138.487 5.11789L139.101 1.16536ZM134.841 0.849992H127.775V4.84999H134.841V0.849992ZM113.644 0.849992H99.5129V4.84999H113.644V0.849992ZM85.3816 0.849992H71.2504V4.84999H85.3816V0.849992ZM57.1192 0.849992H42.9879V4.84999H57.1192V0.849992ZM28.8567 0.849992H21.791V4.84999H28.8567V0.849992ZM21.791 0.849992C20.3607 0.849992 18.9946 0.914284 17.6943 1.04492L18.0941 5.02489C19.2479 4.90897 20.4797 4.84999 21.791 4.84999V0.849992ZM9.51843 3.14585C8.13738 3.7947 6.89038 4.58781 5.78943 5.53148L8.3926 8.5685C9.1986 7.87765 10.1369 7.27477 11.2194 6.76618L9.51843 3.14585ZM5.78943 5.53148C4.78423 6.39308 3.90873 7.36509 3.16773 8.44574L6.46666 10.7078C7.00707 9.91972 7.64745 9.2072 8.3926 8.5685L5.78943 5.53148ZM0.457147 15.6023C0.278252 16.7802 0.191016 18.0137 0.191016 19.3H4.19102C4.19102 18.1938 4.26609 17.1623 4.4118 16.2028L0.457147 15.6023ZM0.191016 19.3C0.191016 20.5863 0.278252 21.8198 0.457147 22.9977L4.4118 22.3971C4.26609 21.4376 4.19102 20.4062 4.19102 19.3H0.191016ZM3.16772 30.1542C3.90873 31.2349 4.78423 32.2069 5.78943 33.0685L8.3926 30.0315C7.64745 29.3928 7.00707 28.6803 6.46666 27.8922L3.16772 30.1542ZM5.78943 33.0685C6.89038 34.0122 8.13738 34.8053 9.51843 35.4541L11.2194 31.8338C10.1369 31.3252 9.1986 30.7223 8.3926 30.0315L5.78943 33.0685ZM17.6943 37.5551C18.9946 37.6857 20.3607 37.75 21.791 37.75V33.75C20.4797 33.75 19.2479 33.691 18.0941 33.5751L17.6943 37.5551ZM21.791 37.75H28.2952V33.75H21.791V37.75ZM41.3035 37.75H54.3119V33.75H41.3035V37.75ZM67.3202 37.75H80.3285V33.75H67.3202V37.75ZM93.3368 37.75H99.841V33.75H93.3368V37.75ZM98.3286 34.4413L93.8311 39.6388L96.8559 42.2562L101.353 37.0587L98.3286 34.4413ZM84.8361 50.0338L75.8411 60.4288L78.8659 63.0462L87.8609 52.6512L84.8361 50.0338ZM66.8461 70.8238L57.8511 81.2188L60.8759 83.8362L69.8709 73.4412L66.8461 70.8238ZM48.8561 91.6138L39.8611 102.009L42.8859 104.626L51.8809 94.2312L48.8561 91.6138ZM30.8661 112.404L21.8711 122.799L24.8959 125.416L33.8909 115.021L30.8661 112.404ZM12.8761 133.194L8.37863 138.391L11.4034 141.009L15.9009 135.811L12.8761 133.194ZM8.3725 138.398C7.35866 139.581 6.45359 140.785 5.66043 142.011L9.01868 144.184C9.70695 143.12 10.5029 142.059 11.4095 141.002L8.3725 138.398ZM2.07774 150.464C1.7533 151.991 1.59102 153.537 1.59102 155.1H5.59102C5.59102 153.816 5.72411 152.549 5.99042 151.295L2.07774 150.464ZM1.59102 155.1C1.59102 156.493 1.71654 157.849 1.97114 159.166L5.89847 158.407C5.69469 157.353 5.59102 156.251 5.59102 155.1H1.59102ZM5.16508 166.706C5.92217 167.796 6.79422 168.832 7.7768 169.814L10.6052 166.986C9.77997 166.161 9.06305 165.306 8.45002 164.424L5.16508 166.706ZM7.7768 169.814C8.82444 170.862 9.95344 171.782 11.1638 172.57L13.3466 169.218C12.3774 168.587 11.4636 167.844 10.6052 166.986L7.7768 169.814ZM19.2745 175.664C20.6456 175.889 22.0686 176 23.541 176V172C22.2693 172 21.0643 171.904 19.9236 171.717L19.2745 175.664ZM23.541 176H30.8473V172H23.541V176ZM45.4598 176H60.0723V172H45.4598V176ZM74.6848 176H89.2973V172H74.6848V176ZM103.91 176H118.522V172H103.91V176ZM133.135 176H140.441V172H133.135V176ZM140.441 176C141.871 176 143.237 175.936 144.538 175.805L144.138 171.825C142.984 171.941 141.752 172 140.441 172V176ZM152.714 173.704C154.095 173.055 155.342 172.262 156.443 171.319L153.839 168.281C153.033 168.972 152.095 169.575 151.013 170.084L152.714 173.704ZM156.502 171.266C157.457 170.379 158.294 169.406 159.01 168.349L155.696 166.108C155.157 166.906 154.519 167.648 153.78 168.334L156.502 171.266ZM161.754 161.256C161.947 160.069 162.041 158.832 162.041 157.55H158.041C158.041 158.637 157.961 159.658 157.806 160.616L161.754 161.256ZM162.041 157.55C162.041 154.622 161.607 151.969 160.682 149.634L156.963 151.106C157.663 152.876 158.041 155.01 158.041 157.55H162.041ZM148.15 139.853C145.835 139.345 143.261 139.1 140.441 139.1V143.1C143.036 143.1 145.315 143.326 147.293 143.76L148.15 139.853Z" fill="black"/>
</svg>
