<svg width="195" height="251" viewBox="0 0 195 251" fill="none" xmlns="http://www.w3.org/2000/svg">
<path d="M171.877 212.95C185.877 212.95 192.877 218.9 192.877 230.8C192.877 242.933 185.877 249 171.877 249H22.7766C16.7099 249 11.8099 247.25 8.07656 243.75C4.57656 240.017 2.82656 235.35 2.82656 229.75C2.82656 224.15 4.69323 218.783 8.42656 213.65L133.727 38.3H24.1766C10.1766 38.3 3.17656 32.35 3.17656 20.45C3.17656 8.31665 10.1766 2.24998 24.1766 2.24998H168.727C174.793 2.24998 179.577 4.11666 183.077 7.85C186.81 11.35 188.677 15.7833 188.677 21.15C188.677 26.5167 186.693 31.8833 182.727 37.25L57.4266 212.95H171.877Z" fill="#F5F5F5"/>
<path d="M8.07656 243.75L7.34703 244.434L7.36909 244.457L7.39262 244.48L8.07656 243.75ZM8.42656 213.65L9.23533 214.238L9.24019 214.231L8.42656 213.65ZM133.727 38.3L134.54 38.8814L135.67 37.3H133.727V38.3ZM183.077 7.85L182.347 8.53394L182.369 8.55747L182.393 8.57953L183.077 7.85ZM182.727 37.25L181.922 36.6556L181.917 36.6624L181.912 36.6694L182.727 37.25ZM57.4266 212.95L56.6124 212.369L55.4852 213.95H57.4266V212.95ZM171.877 211.95H164.723V213.95H171.877V211.95ZM150.417 211.95H136.111V213.95H150.417V211.95ZM121.805 211.95H107.498V213.95H121.805V211.95ZM93.1922 211.95H78.8859V213.95H93.1922V211.95ZM64.5797 211.95H57.4266V213.95H64.5797V211.95ZM58.2407 213.531L62.7157 207.256L61.0874 206.094L56.6124 212.369L58.2407 213.531ZM71.6657 194.706L80.6157 182.156L78.9874 180.994L70.0374 193.544L71.6657 194.706ZM89.5657 169.606L98.5157 157.056L96.8874 155.894L87.9374 168.444L89.5657 169.606ZM107.466 144.506L116.416 131.956L114.787 130.794L105.837 143.344L107.466 144.506ZM125.366 119.406L134.316 106.856L132.687 105.694L123.737 118.244L125.366 119.406ZM143.266 94.3056L152.216 81.7556L150.587 80.5944L141.637 93.1444L143.266 94.3056ZM161.166 69.2056L170.116 56.6556L168.487 55.4943L159.537 68.0444L161.166 69.2056ZM179.066 44.1056L183.541 37.8306L181.912 36.6694L177.437 42.9444L179.066 44.1056ZM183.531 37.8444C184.451 36.5987 185.271 35.3493 185.987 34.0961L184.25 33.1036C183.576 34.2838 182.8 35.4679 181.922 36.6556L183.531 37.8444ZM189.225 25.6827C189.526 24.1738 189.677 22.6626 189.677 21.15H187.677C187.677 22.5289 187.539 23.9093 187.264 25.2921L189.225 25.6827ZM189.677 21.15C189.677 19.8077 189.565 18.5146 189.339 17.2721L187.371 17.6301C187.574 18.7463 187.677 19.9191 187.677 21.15H189.677ZM186.338 10.0651C185.598 9.01832 184.738 8.0369 183.761 7.12046L182.393 8.57953C183.277 9.40855 184.047 10.2886 184.704 11.2194L186.338 10.0651ZM183.806 7.16606C182.835 6.12995 181.767 5.22735 180.604 4.46033L179.503 6.12989C180.532 6.8087 181.48 7.60936 182.347 8.53394L183.806 7.16606ZM172.833 1.55349C171.527 1.35047 170.158 1.24998 168.727 1.24998V3.24998C170.064 3.24998 171.33 3.34392 172.526 3.52975L172.833 1.55349ZM168.727 1.24998H161.499V3.24998H168.727V1.24998ZM147.044 1.24998H132.589V3.24998H147.044V1.24998ZM118.134 1.24998H103.679V3.24998H118.134V1.24998ZM89.2241 1.24998H74.7691V3.24998H89.2241V1.24998ZM60.3141 1.24998H45.8591V3.24998H60.3141V1.24998ZM31.4041 1.24998H24.1766V3.24998H31.4041V1.24998ZM24.1766 1.24998C21.1723 1.24998 18.4592 1.52369 16.0449 2.08119L16.4949 4.02991C18.732 3.51332 21.29 3.24998 24.1766 3.24998V1.24998ZM3.49843 12.2795C2.60881 14.658 2.17656 17.3878 2.17656 20.45H4.17656C4.17656 17.5716 4.58331 15.088 5.37169 12.9802L3.49843 12.2795ZM2.17656 20.45C2.17656 23.4903 2.61902 26.1982 3.53051 28.5537L5.39572 27.8319C4.59181 25.7545 4.17656 23.3005 4.17656 20.45H2.17656ZM16.116 38.5003C18.5119 39.0366 21.2012 39.3 24.1766 39.3V37.3C21.3156 37.3 18.7768 37.0464 16.5529 36.5486L16.116 38.5003ZM24.1766 39.3H31.0234V37.3H24.1766V39.3ZM44.7172 39.3H58.4109V37.3H44.7172V39.3ZM72.1047 39.3H85.7984V37.3H72.1047V39.3ZM99.4922 39.3H113.186V37.3H99.4922V39.3ZM126.88 39.3H133.727V37.3H126.88V39.3ZM132.913 37.7186L128.438 43.9811L130.065 45.1439L134.54 38.8814L132.913 37.7186ZM119.488 56.5061L110.538 69.0311L112.165 70.1939L121.115 57.6689L119.488 56.5061ZM101.588 81.5561L92.6379 94.0811L94.2652 95.2439L103.215 82.7189L101.588 81.5561ZM83.6879 106.606L74.7379 119.131L76.3652 120.294L85.3152 107.769L83.6879 106.606ZM65.7879 131.656L56.8379 144.181L58.4652 145.344L67.4152 132.819L65.7879 131.656ZM47.8879 156.706L38.9379 169.231L40.5652 170.394L49.5152 157.869L47.8879 156.706ZM29.988 181.756L21.038 194.281L22.6652 195.444L31.6152 182.919L29.988 181.756ZM12.088 206.806L7.61294 213.069L9.24019 214.231L13.7152 207.969L12.088 206.806ZM7.61783 213.062C6.71666 214.301 5.91895 215.557 5.22584 216.829L6.98216 217.786C7.63129 216.594 8.38195 215.412 9.2353 214.238L7.61783 213.062ZM2.21904 225.263C1.95734 226.743 1.82656 228.239 1.82656 229.75H3.82656C3.82656 228.355 3.94725 226.975 4.18848 225.611L2.21904 225.263ZM1.82656 229.75C1.82656 231.124 1.92817 232.45 2.13309 233.727L4.1078 233.41C3.92087 232.245 3.82656 231.026 3.82656 229.75H1.82656ZM4.89351 241.244C5.59375 242.373 6.41216 243.437 7.34703 244.434L8.8061 243.066C7.95867 242.162 7.22167 241.203 6.59341 240.19L4.89351 241.244ZM7.39262 244.48C8.42771 245.45 9.54944 246.294 10.7571 247.01L11.7774 245.29C10.6963 244.649 9.69088 243.893 8.7605 243.02L7.39262 244.48ZM18.6448 249.714C19.9642 249.905 21.3418 250 22.7766 250V248C21.4298 248 20.1486 247.911 18.9319 247.734L18.6448 249.714ZM22.7766 250H30.2316V248H22.7766V250ZM45.1416 250H60.0516V248H45.1416V250ZM74.9616 250H89.8716V248H74.9616V250ZM104.782 250H119.692V248H104.782V250ZM134.602 250H149.512V248H134.602V250ZM164.422 250H171.877V248H164.422V250ZM171.877 250C174.881 250 177.594 249.726 180.008 249.169L179.558 247.22C177.321 247.737 174.763 248 171.877 248V250ZM192.555 238.97C193.444 236.592 193.877 233.862 193.877 230.8H191.877C191.877 233.678 191.47 236.162 190.681 238.27L192.555 238.97ZM193.877 230.8C193.877 227.76 193.434 225.052 192.523 222.696L190.657 223.418C191.461 225.496 191.877 227.949 191.877 230.8H193.877ZM179.937 212.75C177.541 212.213 174.852 211.95 171.877 211.95V213.95C174.738 213.95 177.276 214.204 179.5 214.701L179.937 212.75ZM8.07656 243.75L6.61749 245.118L6.66161 245.165L6.70868 245.209L8.07656 243.75ZM8.42656 213.65L10.044 214.826L10.049 214.82L10.0538 214.813L8.42656 213.65ZM133.727 38.3L135.354 39.4628L137.614 36.3H133.727V38.3ZM183.077 7.85L181.617 9.21788L181.662 9.26495L181.709 9.30907L183.077 7.85ZM182.727 37.25L181.118 36.0612L181.108 36.0749L181.098 36.0887L182.727 37.25ZM57.4266 212.95L55.7982 211.789L53.5438 214.95H57.4266V212.95ZM171.877 210.95H164.723V214.95H171.877V210.95ZM150.417 210.95H136.111V214.95H150.417V210.95ZM121.805 210.95H107.498V214.95H121.805V210.95ZM93.1922 210.95H78.8859V214.95H93.1922V210.95ZM64.5797 210.95H57.4266V214.95H64.5797V210.95ZM59.0549 214.111L63.5299 207.836L60.2732 205.514L55.7982 211.789L59.0549 214.111ZM72.4799 195.286L81.4299 182.736L78.1732 180.414L69.2232 192.964L72.4799 195.286ZM90.3799 170.186L99.3299 157.636L96.0732 155.314L87.1232 167.864L90.3799 170.186ZM108.28 145.086L117.23 132.536L113.973 130.214L105.023 142.764L108.28 145.086ZM126.18 119.986L135.13 107.436L131.873 105.114L122.923 117.664L126.18 119.986ZM144.08 94.8862L153.03 82.3362L149.773 80.0137L140.823 92.5637L144.08 94.8862ZM161.98 69.7862L170.93 57.2362L167.673 54.9137L158.723 67.4637L161.98 69.7862ZM179.88 44.6862L184.355 38.4112L181.098 36.0887L176.623 42.3637L179.88 44.6862ZM184.335 38.4388C185.277 37.1641 186.118 35.882 186.855 34.5923L183.382 32.6074C182.729 33.7511 181.975 34.9025 181.118 36.0612L184.335 38.4388ZM190.206 25.878C190.519 24.3061 190.677 22.7295 190.677 21.15H186.677C186.677 22.4621 186.546 23.7771 186.283 25.0968L190.206 25.878ZM190.677 21.15C190.677 19.752 190.56 18.3988 190.322 17.0931L186.387 17.8092C186.579 18.8621 186.677 19.9748 186.677 21.15H190.677ZM187.154 9.488C186.374 8.38315 185.469 7.35108 184.444 6.39092L181.709 9.30907C182.546 10.0944 183.271 10.9238 183.888 11.7965L187.154 9.488ZM184.536 6.48212C183.512 5.39024 182.385 4.43668 181.155 3.62556L178.953 6.96467C179.915 7.59937 180.803 8.34906 181.617 9.21788L184.536 6.48212ZM172.987 0.565353C171.625 0.353742 170.204 0.249985 168.727 0.249985V4.24998C170.018 4.24998 171.232 4.34065 172.372 4.51789L172.987 0.565353ZM168.727 0.249985H161.499V4.24998H168.727V0.249985ZM147.044 0.249985H132.589V4.24998H147.044V0.249985ZM118.134 0.249985H103.679V4.24998H118.134V0.249985ZM89.2241 0.249985H74.7691V4.24998H89.2241V0.249985ZM60.3141 0.249985H45.8591V4.24998H60.3141V0.249985ZM31.4041 0.249985H24.1766V4.24998H31.4041V0.249985ZM24.1766 0.249985C21.1134 0.249985 18.3228 0.528882 15.8199 1.10683L16.7199 5.00427C18.8685 4.50813 21.3489 4.24998 24.1766 4.24998V0.249985ZM2.5618 11.9292C1.62156 14.443 1.17656 17.2958 1.17656 20.45H5.17656C5.17656 17.6636 5.57056 15.303 6.30832 13.3305L2.5618 11.9292ZM1.17656 20.45C1.17656 23.5853 1.63262 26.4201 2.59791 28.9145L6.32833 27.471C5.57821 25.5326 5.17656 23.2056 5.17656 20.45H1.17656ZM15.8976 39.4761C18.3795 40.0317 21.144 40.3 24.1766 40.3V36.3C21.3728 36.3 18.9092 36.0513 16.7713 35.5727L15.8976 39.4761ZM24.1766 40.3H31.0234V36.3H24.1766V40.3ZM44.7172 40.3H58.4109V36.3H44.7172V40.3ZM72.1047 40.3H85.7984V36.3H72.1047V40.3ZM99.4922 40.3H113.186V36.3H99.4922V40.3ZM126.88 40.3H133.727V36.3H126.88V40.3ZM132.099 37.1372L127.624 43.3997L130.879 45.7253L135.354 39.4628L132.099 37.1372ZM118.674 55.9247L109.724 68.4497L112.979 70.7753L121.929 58.2503L118.674 55.9247ZM100.774 80.9747L91.8243 93.4997L95.0788 95.8253L104.029 83.3003L100.774 80.9747ZM82.8743 106.025L73.9243 118.55L77.1788 120.875L86.1288 108.35L82.8743 106.025ZM64.9743 131.075L56.0243 143.6L59.2788 145.925L68.2288 133.4L64.9743 131.075ZM47.0743 156.125L38.1243 168.65L41.3788 170.975L50.3288 158.45L47.0743 156.125ZM29.1743 181.175L20.2243 193.7L23.4788 196.025L32.4288 183.5L29.1743 181.175ZM11.2743 206.225L6.79932 212.487L10.0538 214.813L14.5288 208.55L11.2743 206.225ZM6.80909 212.474C5.88402 213.746 5.06278 215.038 4.34768 216.351L7.86032 218.264C8.48745 217.113 9.21459 215.967 10.044 214.826L6.80909 212.474ZM1.23432 225.089C0.962389 226.626 0.826563 228.181 0.826563 229.75H4.82656C4.82656 228.413 4.9422 227.092 5.1732 225.785L1.23432 225.089ZM0.826563 229.75C0.826563 231.174 0.931825 232.553 1.14573 233.885L5.09516 233.251C4.91722 232.143 4.82656 230.976 4.82656 229.75H0.826563ZM4.04356 241.771C4.7798 242.958 5.6389 244.074 6.61749 245.118L9.53564 242.382C8.73192 241.525 8.03562 240.619 7.44335 239.663L4.04356 241.771ZM6.70868 245.209C7.79612 246.229 8.97602 247.116 10.247 247.87L12.2876 244.43C11.2697 243.826 10.3225 243.114 9.44445 242.291L6.70868 245.209ZM18.5012 250.703C19.8721 250.902 21.2978 251 22.7766 251V247C21.4739 247 20.2408 246.914 19.0754 246.745L18.5012 250.703ZM22.7766 251H30.2316V247H22.7766V251ZM45.1416 251H60.0516V247H45.1416V251ZM74.9616 251H89.8716V247H74.9616V251ZM104.782 251H119.692V247H104.782V251ZM134.602 251H149.512V247H134.602V251ZM164.422 251H171.877V247H164.422V251ZM171.877 251C174.94 251 177.73 250.721 180.233 250.143L179.333 246.246C177.185 246.742 174.704 247 171.877 247V251ZM193.491 239.321C194.432 236.807 194.877 233.954 194.877 230.8H190.877C190.877 233.586 190.483 235.947 189.745 237.919L193.491 239.321ZM194.877 230.8C194.877 227.665 194.421 224.83 193.455 222.335L189.725 223.779C190.475 225.717 190.877 228.044 190.877 230.8H194.877ZM180.156 211.774C177.674 211.218 174.909 210.95 171.877 210.95V214.95C174.68 214.95 177.144 215.199 179.282 215.677L180.156 211.774Z" fill="black"/>
</svg>
